<?xml version="1.0" encoding="us-ascii" standalone="no"?><svg xmlns="http://www.w3.org/2000/svg" xmlns:xlink="http://www.w3.org/1999/xlink" contentStyleType="text/css" height="366px" preserveAspectRatio="none" style="width:979px;height:366px;background:#FFFFFF;" version="1.1" viewBox="0 0 979 366" width="979px" zoomAndPan="magnify"><defs/><g><rect fill="#FFFFFF" height="59.1328" style="stroke:#181818;stroke-width:1.0;" width="10" x="173" y="67.4297"/><rect fill="#FFFFFF" height="225.7969" style="stroke:#181818;stroke-width:1.0;" width="10" x="380" y="96.5625"/><rect fill="#FFFFFF" height="50.2656" style="stroke:#181818;stroke-width:1.0;" width="10" x="587" y="155.6953"/><rect fill="#FFFFFF" height="80.2656" style="stroke:#181818;stroke-width:1.0;" width="10" x="767" y="242.0938"/><rect fill="#FFFFFF" height="34.1328" style="stroke:#181818;stroke-width:1.0;" width="10" x="772" y="279.2266"/><line style="stroke:#181818;stroke-width:0.5;stroke-dasharray:5.0,5.0;" x1="177.5" x2="177.5" y1="36.2969" y2="331.3594"/><line style="stroke:#181818;stroke-width:0.5;stroke-dasharray:5.0,5.0;" x1="385" x2="385" y1="36.2969" y2="331.3594"/><line style="stroke:#181818;stroke-width:0.5;stroke-dasharray:5.0,5.0;" x1="591.5" x2="591.5" y1="36.2969" y2="331.3594"/><line style="stroke:#181818;stroke-width:0.5;stroke-dasharray:5.0,5.0;" x1="772" x2="772" y1="36.2969" y2="331.3594"/><line style="stroke:#181818;stroke-width:0.5;stroke-dasharray:5.0,5.0;" x1="949" x2="949" y1="36.2969" y2="331.3594"/><rect fill="#E2E2F0" height="30.2969" rx="2.5" ry="2.5" style="stroke:#181818;stroke-width:0.5;" width="73" x="141.5" y="5"/><text fill="#000000" font-family="sans-serif" font-size="14" lengthAdjust="spacing" textLength="59" x="148.5" y="24.9951">Adapter</text><rect fill="#E2E2F0" height="30.2969" rx="2.5" ry="2.5" style="stroke:#181818;stroke-width:0.5;" width="73" x="141.5" y="330.3594"/><text fill="#000000" font-family="sans-serif" font-size="14" lengthAdjust="spacing" textLength="59" x="148.5" y="350.3545">Adapter</text><rect fill="#E2E2F0" height="30.2969" rx="2.5" ry="2.5" style="stroke:#181818;stroke-width:0.5;" width="210" x="280" y="5"/><text fill="#000000" font-family="sans-serif" font-size="14" lengthAdjust="spacing" textLength="196" x="287" y="24.9951">RecyclerViewDataObserver</text><rect fill="#E2E2F0" height="30.2969" rx="2.5" ry="2.5" style="stroke:#181818;stroke-width:0.5;" width="210" x="280" y="330.3594"/><text fill="#000000" font-family="sans-serif" font-size="14" lengthAdjust="spacing" textLength="196" x="287" y="350.3545">RecyclerViewDataObserver</text><rect fill="#E2E2F0" height="30.2969" rx="2.5" ry="2.5" style="stroke:#181818;stroke-width:0.5;" width="121" x="531.5" y="5"/><text fill="#000000" font-family="sans-serif" font-size="14" lengthAdjust="spacing" textLength="107" x="538.5" y="24.9951">AdapterHelper</text><rect fill="#E2E2F0" height="30.2969" rx="2.5" ry="2.5" style="stroke:#181818;stroke-width:0.5;" width="121" x="531.5" y="330.3594"/><text fill="#000000" font-family="sans-serif" font-size="14" lengthAdjust="spacing" textLength="107" x="538.5" y="350.3545">AdapterHelper</text><rect fill="#E2E2F0" height="30.2969" rx="2.5" ry="2.5" style="stroke:#181818;stroke-width:0.5;" width="110" x="717" y="5"/><text fill="#000000" font-family="sans-serif" font-size="14" lengthAdjust="spacing" textLength="96" x="724" y="24.9951">RecyclerView</text><rect fill="#E2E2F0" height="30.2969" rx="2.5" ry="2.5" style="stroke:#181818;stroke-width:0.5;" width="110" x="717" y="330.3594"/><text fill="#000000" font-family="sans-serif" font-size="14" lengthAdjust="spacing" textLength="96" x="724" y="350.3545">RecyclerView</text><rect fill="#E2E2F0" height="30.2969" rx="2.5" ry="2.5" style="stroke:#181818;stroke-width:0.5;" width="48" x="925" y="5"/><text fill="#000000" font-family="sans-serif" font-size="14" lengthAdjust="spacing" textLength="34" x="932" y="24.9951">View</text><rect fill="#E2E2F0" height="30.2969" rx="2.5" ry="2.5" style="stroke:#181818;stroke-width:0.5;" width="48" x="925" y="330.3594"/><text fill="#000000" font-family="sans-serif" font-size="14" lengthAdjust="spacing" textLength="34" x="932" y="350.3545">View</text><rect fill="#FFFFFF" height="59.1328" style="stroke:#181818;stroke-width:1.0;" width="10" x="173" y="67.4297"/><rect fill="#FFFFFF" height="225.7969" style="stroke:#181818;stroke-width:1.0;" width="10" x="380" y="96.5625"/><rect fill="#FFFFFF" height="50.2656" style="stroke:#181818;stroke-width:1.0;" width="10" x="587" y="155.6953"/><rect fill="#FFFFFF" height="80.2656" style="stroke:#181818;stroke-width:1.0;" width="10" x="767" y="242.0938"/><rect fill="#FFFFFF" height="34.1328" style="stroke:#181818;stroke-width:1.0;" width="10" x="772" y="279.2266"/><ellipse cx="7.5" cy="66.6797" fill="none" rx="4" ry="4" style="stroke:#181818;stroke-width:1.5;"/><polygon fill="#181818" points="161,63.4297,171,67.4297,161,71.4297,165,67.4297" style="stroke:#181818;stroke-width:1.0;"/><line style="stroke:#181818;stroke-width:1.0;" x1="12" x2="167" y1="67.4297" y2="67.4297"/><text fill="#000000" font-family="sans-serif" font-size="13" lengthAdjust="spacing" textLength="146" x="15" y="62.3638">notifyItemRemoved(2)</text><polygon fill="#181818" points="368,92.5625,378,96.5625,368,100.5625,372,96.5625" style="stroke:#181818;stroke-width:1.0;"/><line style="stroke:#181818;stroke-width:1.0;" x1="183" x2="374" y1="96.5625" y2="96.5625"/><text fill="#000000" font-family="sans-serif" font-size="13" lengthAdjust="spacing" textLength="178" x="190" y="91.4966">onItemRangeRemoved(2,1)</text><polygon fill="#181818" points="575,151.6953,585,155.6953,575,159.6953,579,155.6953" style="stroke:#181818;stroke-width:1.0;"/><line style="stroke:#181818;stroke-width:1.0;" x1="390" x2="581" y1="155.6953" y2="155.6953"/><text fill="#000000" font-family="sans-serif" font-size="13" lengthAdjust="spacing" textLength="178" x="397" y="150.6294">onItemRangeRemoved(2,1)</text><line style="stroke:#181818;stroke-width:1.0;" x1="597" x2="639" y1="204.9609" y2="204.9609"/><line style="stroke:#181818;stroke-width:1.0;" x1="639" x2="639" y1="204.9609" y2="217.9609"/><line style="stroke:#181818;stroke-width:1.0;" x1="592" x2="639" y1="217.9609" y2="217.9609"/><polygon fill="#181818" points="602,213.9609,592,217.9609,602,221.9609,598,217.9609" style="stroke:#181818;stroke-width:1.0;"/><text fill="#000000" font-family="sans-serif" font-size="13" lengthAdjust="spacing" textLength="155" x="604" y="184.7622">&#28155;&#21152;&#19968;&#20010;UpdateOp&#25351;&#20196;&#21040;</text><text fill="#000000" font-family="sans-serif" font-size="13" lengthAdjust="spacing" textLength="156" x="604" y="199.895">mPendingUpdates&#21015;&#34920;&#20013;</text><polygon fill="#181818" points="755,238.0938,765,242.0938,755,246.0938,759,242.0938" style="stroke:#181818;stroke-width:1.0;"/><line style="stroke:#181818;stroke-width:1.0;" x1="390" x2="761" y1="242.0938" y2="242.0938"/><text fill="#000000" font-family="sans-serif" font-size="13" lengthAdjust="spacing" textLength="161" x="397" y="237.0278">triggerUpdateProcessor()</text><line style="stroke:#181818;stroke-width:1.0;" x1="777" x2="824" y1="266.2266" y2="266.2266"/><line style="stroke:#181818;stroke-width:1.0;" x1="824" x2="824" y1="266.2266" y2="279.2266"/><line style="stroke:#181818;stroke-width:1.0;" x1="783" x2="824" y1="279.2266" y2="279.2266"/><polygon fill="#181818" points="793,275.2266,783,279.2266,793,283.2266,789,279.2266" style="stroke:#181818;stroke-width:1.0;"/><text fill="#000000" font-family="sans-serif" font-size="13" lengthAdjust="spacing" textLength="103" x="789" y="261.1606">requestLayout()</text><polygon fill="#181818" points="937,309.3594,947,313.3594,937,317.3594,941,313.3594" style="stroke:#181818;stroke-width:1.0;"/><line style="stroke:#181818;stroke-width:1.0;" x1="777" x2="943" y1="313.3594" y2="313.3594"/><text fill="#000000" font-family="sans-serif" font-size="13" lengthAdjust="spacing" textLength="143" x="784" y="308.2935">super.requestLayout()</text><!--SRC=[YyxNjLDmJ4aiA4ajKj3MjbB8oo_9JAlqB4dD3KhDpIzBJT4mqkI2AG2g3KfDhapEIIqAoqmjTqaiIVHFAaujAWDhrjMrKiZF0sjDp4jFXUlNCTJamgaDORr7Qau1r16uJ45LYQ4Lv81dstS_xLhmP4V3anshGWjI4ajI_GkUzRG_sRtaQSU6cBpSWDIybCoyT8XKyTEEwIyMhdYoOorU1oBBWTrNKfIPdfvQ134ae2W_ERMuEBz80zMRM7KMfHQMfXQN-2HMvfUMOD40eO7-A2u5-aWFJJa0]--></g></svg>