<?xml version="1.0" encoding="us-ascii" standalone="no"?><svg xmlns="http://www.w3.org/2000/svg" xmlns:xlink="http://www.w3.org/1999/xlink" contentStyleType="text/css" height="548px" preserveAspectRatio="none" style="width:833px;height:548px;background:#FFFFFF;" version="1.1" viewBox="0 0 833 548" width="833px" zoomAndPan="magnify"><defs/><g><ellipse cx="224" cy="20" fill="#222222" rx="10" ry="10" style="stroke:#222222;stroke-width:1.0;"/><rect fill="#F1F1F1" height="33.9688" rx="12.5" ry="12.5" style="stroke:#181818;stroke-width:0.5;" width="139" x="154.5" y="50"/><text fill="#000000" font-family="sans-serif" font-size="12" lengthAdjust="spacing" textLength="119" x="164.5" y="71.1387">&#36339;&#36716;&#39029;&#38754;navigation()</text><path d="M366,181.6987 L366,312.7612 L821,312.7612 L821,191.6987 L811,181.6987 L366,181.6987 " fill="#FEFFDD" style="stroke:#181818;stroke-width:0.5;"/><path d="M811,181.6987 L811,191.6987 L821,191.6987 L811,181.6987 " fill="#FEFFDD" style="stroke:#181818;stroke-width:0.5;"/><text fill="#000000" font-family="sans-serif" font-size="13" lengthAdjust="spacing" textLength="122" x="372" y="198.7656">class Warehouse {</text><text fill="#000000" font-family="sans-serif" font-size="13" lengthAdjust="spacing" textLength="88" x="388" y="213.8984">// &#12304;group&#34920;&#12305;</text><text fill="#000000" font-family="sans-serif" font-size="13" lengthAdjust="spacing" textLength="414" x="388" y="229.0313">static Map&lt;String, Class&lt;? extends IRouteGroup&gt;&gt; groupsIndex</text><text fill="#000000" font-family="sans-serif" font-size="13" lengthAdjust="spacing" textLength="138" x="628" y="244.1641">= new HashMap&lt;&gt;();</text><text fill="#000000" font-family="sans-serif" font-size="13" lengthAdjust="spacing" textLength="77" x="388" y="259.2969">// &#12304;&#36335;&#30001;&#34920;&#12305;</text><text fill="#000000" font-family="sans-serif" font-size="13" lengthAdjust="spacing" textLength="386" x="388" y="274.4297">static Map&lt;String, RouteMeta&gt; routes = new HashMap&lt;&gt;();</text><text fill="#000000" font-family="sans-serif" font-size="13" lengthAdjust="spacing" textLength="24" x="388" y="289.5625">......</text><text fill="#000000" font-family="sans-serif" font-size="13" lengthAdjust="spacing" textLength="9" x="372" y="304.6953">}</text><rect fill="#F1F1F1" height="33.9688" rx="12.5" ry="12.5" style="stroke:#181818;stroke-width:0.5;" width="164" x="142" y="159.6792"/><text fill="#000000" font-family="sans-serif" font-size="12" lengthAdjust="spacing" textLength="144" x="152" y="180.8179">&#22312;group&#34920;&#20013;&#26597;&#25214;group&#31867;</text><polygon fill="#F1F1F1" points="197,228.6479,251,228.6479,263,240.6479,251,252.6479,197,252.6479,185,240.6479,197,228.6479" style="stroke:#181818;stroke-width:0.5;"/><text fill="#000000" font-family="sans-serif" font-size="11" lengthAdjust="spacing" textLength="54" x="197" y="244.4561">&#23384;&#22312;group</text><text fill="#000000" font-family="sans-serif" font-size="11" lengthAdjust="spacing" textLength="21" x="164" y="238.0537">yes</text><text fill="#000000" font-family="sans-serif" font-size="11" lengthAdjust="spacing" textLength="14" x="263" y="238.0537">no</text><rect fill="#F1F1F1" height="33.9688" rx="12.5" ry="12.5" style="stroke:#181818;stroke-width:0.5;" width="151" x="68.5" y="262.6479"/><text fill="#000000" font-family="sans-serif" font-size="12" lengthAdjust="spacing" textLength="131" x="78.5" y="283.7866">&#21453;&#23556;&#21021;&#22987;&#21270;group class</text><rect fill="#F1F1F1" height="33.9688" rx="12.5" ry="12.5" style="stroke:#181818;stroke-width:0.5;" width="212" x="38" y="331.6167"/><text fill="#000000" font-family="sans-serif" font-size="12" lengthAdjust="spacing" textLength="192" x="48" y="352.7554">group&#19979;&#30340;&#25152;&#26377;&#36335;&#30001;&#28155;&#21152;&#21040;&#36335;&#30001;&#34920;&#20013;</text><rect fill="#F1F1F1" height="33.9688" rx="12.5" ry="12.5" style="stroke:#181818;stroke-width:0.5;" width="68" x="270" y="262.6479"/><text fill="#000000" font-family="sans-serif" font-size="12" lengthAdjust="spacing" textLength="48" x="280" y="283.7866">&#25243;&#20986;&#24322;&#24120;</text><ellipse cx="304" cy="342.6167" fill="none" rx="11" ry="11" style="stroke:#222222;stroke-width:1.0;"/><ellipse cx="304" cy="342.6167" fill="#222222" rx="6" ry="6" style="stroke:#222222;stroke-width:1.0;"/><polygon fill="#F1F1F1" points="174.5,103.9688,273.5,103.9688,285.5,115.9688,273.5,127.9688,174.5,127.9688,162.5,115.9688,174.5,103.9688" style="stroke:#181818;stroke-width:0.5;"/><text fill="#000000" font-family="sans-serif" font-size="11" lengthAdjust="spacing" textLength="33" x="228" y="138.1792">&#19981;&#23384;&#22312;</text><text fill="#000000" font-family="sans-serif" font-size="11" lengthAdjust="spacing" textLength="99" x="174.5" y="119.7769">&#36335;&#30001;&#34920;&#20013;&#23384;&#22312;&#36335;&#30001;&#65311;</text><text fill="#000000" font-family="sans-serif" font-size="11" lengthAdjust="spacing" textLength="22" x="140.5" y="113.3745">&#23384;&#22312;</text><rect fill="#F1F1F1" height="33.9688" rx="12.5" ry="12.5" style="stroke:#181818;stroke-width:0.5;" width="144" x="152" y="407.5854"/><text fill="#000000" font-family="sans-serif" font-size="12" lengthAdjust="spacing" textLength="124" x="162" y="428.7241">&#36335;&#30001;&#20449;&#24687;&#22635;&#20805;Postcard</text><rect fill="#F1F1F1" height="33.9688" rx="12.5" ry="12.5" style="stroke:#181818;stroke-width:0.5;" width="128" x="160" y="461.5542"/><text fill="#000000" font-family="sans-serif" font-size="12" lengthAdjust="spacing" textLength="108" x="170" y="482.6929">&#25191;&#34892;&#25318;&#25130;&#21644;&#36339;&#36716;&#36923;&#36753;</text><ellipse cx="224" cy="526.5229" fill="none" rx="11" ry="11" style="stroke:#222222;stroke-width:1.0;"/><ellipse cx="224" cy="526.5229" fill="#222222" rx="6" ry="6" style="stroke:#222222;stroke-width:1.0;"/><line style="stroke:#181818;stroke-width:1.0;" x1="224" x2="224" y1="30" y2="50"/><polygon fill="#181818" points="220,40,224,50,228,40,224,44" style="stroke:#181818;stroke-width:1.0;"/><line style="stroke:#181818;stroke-width:1.0;" x1="144" x2="144" y1="296.6167" y2="331.6167"/><polygon fill="#181818" points="140,321.6167,144,331.6167,148,321.6167,144,325.6167" style="stroke:#181818;stroke-width:1.0;"/><line style="stroke:#181818;stroke-width:1.0;" x1="304" x2="304" y1="296.6167" y2="331.6167"/><polygon fill="#181818" points="300,321.6167,304,331.6167,308,321.6167,304,325.6167" style="stroke:#181818;stroke-width:1.0;"/><line style="stroke:#181818;stroke-width:1.0;" x1="185" x2="144" y1="240.6479" y2="240.6479"/><line style="stroke:#181818;stroke-width:1.0;" x1="144" x2="144" y1="240.6479" y2="262.6479"/><polygon fill="#181818" points="140,252.6479,144,262.6479,148,252.6479,144,256.6479" style="stroke:#181818;stroke-width:1.0;"/><line style="stroke:#181818;stroke-width:1.0;" x1="263" x2="304" y1="240.6479" y2="240.6479"/><line style="stroke:#181818;stroke-width:1.0;" x1="304" x2="304" y1="240.6479" y2="262.6479"/><polygon fill="#181818" points="300,252.6479,304,262.6479,308,252.6479,304,256.6479" style="stroke:#181818;stroke-width:1.0;"/><line style="stroke:#181818;stroke-width:1.0;" x1="144" x2="144" y1="365.5854" y2="370.5854"/><line style="stroke:#181818;stroke-width:1.0;" x1="144" x2="352" y1="370.5854" y2="370.5854"/><polygon fill="#181818" points="348,251.23,352,241.23,356,251.23,352,247.23" style="stroke:#181818;stroke-width:1.0;"/><line style="stroke:#181818;stroke-width:1.0;" x1="352" x2="352" y1="115.9688" y2="370.5854"/><line style="stroke:#181818;stroke-width:1.0;" x1="352" x2="285.5" y1="115.9688" y2="115.9688"/><polygon fill="#181818" points="295.5,111.9688,285.5,115.9688,295.5,119.9688,291.5,115.9688" style="stroke:#181818;stroke-width:1.0;"/><line style="stroke:#181818;stroke-width:1.0;" x1="224" x2="224" y1="193.6479" y2="228.6479"/><polygon fill="#181818" points="220,218.6479,224,228.6479,228,218.6479,224,222.6479" style="stroke:#181818;stroke-width:1.0;"/><line style="stroke:#181818;stroke-width:1.0;" x1="224" x2="224" y1="127.9688" y2="159.6792"/><polygon fill="#181818" points="220,149.6792,224,159.6792,228,149.6792,224,153.6792" style="stroke:#181818;stroke-width:1.0;"/><line style="stroke:#181818;stroke-width:1.0;" x1="162.5" x2="24" y1="115.9688" y2="115.9688"/><polygon fill="#181818" points="20,243.23,24,253.23,28,243.23,24,247.23" style="stroke:#181818;stroke-width:1.0;"/><line style="stroke:#181818;stroke-width:1.0;" x1="24" x2="24" y1="115.9688" y2="387.5854"/><line style="stroke:#181818;stroke-width:1.0;" x1="24" x2="224" y1="387.5854" y2="387.5854"/><line style="stroke:#181818;stroke-width:1.0;" x1="224" x2="224" y1="387.5854" y2="407.5854"/><polygon fill="#181818" points="220,397.5854,224,407.5854,228,397.5854,224,401.5854" style="stroke:#181818;stroke-width:1.0;"/><line style="stroke:#181818;stroke-width:1.0;" x1="224" x2="224" y1="83.9688" y2="103.9688"/><polygon fill="#181818" points="220,93.9688,224,103.9688,228,93.9688,224,97.9688" style="stroke:#181818;stroke-width:1.0;"/><line style="stroke:#181818;stroke-width:1.0;" x1="224" x2="224" y1="441.5542" y2="461.5542"/><polygon fill="#181818" points="220,451.5542,224,461.5542,228,451.5542,224,455.5542" style="stroke:#181818;stroke-width:1.0;"/><line style="stroke:#181818;stroke-width:1.0;" x1="224" x2="224" y1="495.5229" y2="515.5229"/><polygon fill="#181818" points="220,505.5229,224,515.5229,228,505.5229,224,509.5229" style="stroke:#181818;stroke-width:1.0;"/><!--SRC=[fP9DIoCn6CVlyocUump8Uf_Mxi63UX143tiERTePA4cPfDf55hgBOcihwh8ieYrr15_m1IqY7RPTzyFOfEF9hs2IqU9UTWy-Xv3ya-UNvurn573BZNktyU_Bn_3kiNr4qB9VGDodn7PIrehd5x4Tzwv7FxfnU3QChiJLdcYT9ShJeEE0p-nXj9N8ZWMGBrBbJWf0ACSG-0MFAnKWMqICmISKO8-M6OPLesgRd8I7wauXeEMI-kEXkZk-OLoXiZ2FIkab7YZe14nhJFeZu0h79CTWRf6MEPxHpfaC60YR8pbSWJ7bFJO51A_0B6AU3YAZQ_9tsEFQ_2Tk4-OyvYW3WTwoVw4_63F7BsfLYPfgggshglnQATKDsJcMzNiZZBfz3V3pO2VDCAe3tCF4_eoPOt2ksDuIDskYrXQd3T7yQHublKc-TuqoZ1gZ_JLPhyfMFSbGzlfYyr3KRjuEWtR1HTLCcz0Nljmy41k_nE2RYAA4o3Wj9KduUKkjPgPUWtJqz6dWy4yelrwBy4AihozGnhCeoAKiLzPFux0f6oUoTYw-DrycjTgFxtTJbYO_0m00]--></g></svg>