<?xml version="1.0" encoding="us-ascii" standalone="no"?><svg xmlns="http://www.w3.org/2000/svg" xmlns:xlink="http://www.w3.org/1999/xlink" contentStyleType="text/css" height="1451px" preserveAspectRatio="none" style="width:1495px;height:1451px;background:#FFFFFF;" version="1.1" viewBox="0 0 1495 1451" width="1495px" zoomAndPan="magnify"><defs/><g><rect fill="#FFFFFF" height="1287.6406" style="stroke:#181818;stroke-width:1.0;" width="10" x="143" y="119.6953"/><rect fill="#FFBBBB" height="648.4844" style="stroke:#181818;stroke-width:1.0;" width="10" x="148" y="247.0938"/><rect fill="#FFBBBB" height="467.625" style="stroke:#181818;stroke-width:1.0;" width="10" x="148" y="939.7109"/><rect fill="#FFFFFF" height="126.3984" style="stroke:#181818;stroke-width:1.0;" width="10" x="153" y="981.8438"/><rect fill="#FFFFFF" height="97.4297" style="stroke:#181818;stroke-width:1.0;" width="10" x="325" y="281.2266"/><rect fill="#FFFFFF" height="252.8281" style="stroke:#181818;stroke-width:1.0;" width="10" x="325" y="521.3516"/><rect fill="#FFFFFF" height="29.1328" style="stroke:#181818;stroke-width:1.0;" width="10" x="325" y="832.4453"/><rect fill="#FFFFFF" height="29.1328" style="stroke:#181818;stroke-width:1.0;" width="10" x="325" y="1045.1094"/><rect fill="#FFFFFF" height="84.4297" style="stroke:#181818;stroke-width:1.0;" width="10" x="494" y="407.7891"/><rect fill="#FFFFFF" height="209.6953" style="stroke:#181818;stroke-width:1.0;" width="10" x="494" y="550.4844"/><rect fill="#FFFFFF" height="151.5625" style="stroke:#181818;stroke-width:1.0;" width="10" x="499" y="587.6172"/><rect fill="#FFFFFF" height="72.2656" style="stroke:#181818;stroke-width:1.0;" width="10" x="494" y="803.3125"/><rect fill="#FFFFFF" height="72.2656" style="stroke:#181818;stroke-width:1.0;" width="10" x="494" y="1015.9766"/><rect fill="#FFFFFF" height="97.4297" style="stroke:#181818;stroke-width:1.0;" width="10" x="649" y="621.75"/><rect fill="#FFFFFF" height="253.9609" style="stroke:#181818;stroke-width:1.0;" width="10" x="975" y="1144.375"/><rect fill="#FFFFFF" height="56.1328" style="stroke:#181818;stroke-width:1.0;" width="10" x="1155" y="153.8281"/><rect fill="#FFFFFF" height="210.8281" style="stroke:#181818;stroke-width:1.0;" width="10" x="1155" y="1173.5078"/><line style="stroke:#181818;stroke-width:0.5;stroke-dasharray:5.0,5.0;" x1="148" x2="148" y1="36.2969" y2="1416.3359"/><line style="stroke:#181818;stroke-width:0.5;stroke-dasharray:5.0,5.0;" x1="329.5" x2="329.5" y1="36.2969" y2="1416.3359"/><line style="stroke:#181818;stroke-width:0.5;stroke-dasharray:5.0,5.0;" x1="499" x2="499" y1="362.0078" y2="1416.3359"/><line style="stroke:#181818;stroke-width:0.5;stroke-dasharray:5.0,5.0;" x1="653.5" x2="653.5" y1="446.4375" y2="1416.3359"/><line style="stroke:#181818;stroke-width:0.5;stroke-dasharray:5.0,5.0;" x1="842.5" x2="842.5" y1="660.3984" y2="1416.3359"/><line style="stroke:#181818;stroke-width:0.5;stroke-dasharray:5.0,5.0;" x1="979.5" x2="979.5" y1="36.2969" y2="1416.3359"/><line style="stroke:#181818;stroke-width:0.5;stroke-dasharray:5.0,5.0;" x1="1159.5" x2="1159.5" y1="36.2969" y2="1416.3359"/><line style="stroke:#181818;stroke-width:0.5;stroke-dasharray:5.0,5.0;" x1="1431.5" x2="1431.5" y1="1212.1563" y2="1416.3359"/><rect fill="#E2E2F0" height="30.2969" rx="2.5" ry="2.5" style="stroke:#181818;stroke-width:0.5;" width="120" x="88" y="5"/><text fill="#000000" font-family="sans-serif" font-size="14" lengthAdjust="spacing" textLength="106" x="95" y="24.9951">ActivityThread</text><rect fill="#E2E2F0" height="30.2969" rx="2.5" ry="2.5" style="stroke:#181818;stroke-width:0.5;" width="120" x="88" y="1415.3359"/><text fill="#000000" font-family="sans-serif" font-size="14" lengthAdjust="spacing" textLength="106" x="95" y="1435.3311">ActivityThread</text><rect fill="#E2E2F0" height="30.2969" rx="2.5" ry="2.5" style="stroke:#181818;stroke-width:0.5;" width="131" x="264.5" y="5"/><text fill="#000000" font-family="sans-serif" font-size="14" lengthAdjust="spacing" textLength="117" x="271.5" y="24.9951">Instrumentation</text><rect fill="#E2E2F0" height="30.2969" rx="2.5" ry="2.5" style="stroke:#181818;stroke-width:0.5;" width="131" x="264.5" y="1415.3359"/><text fill="#000000" font-family="sans-serif" font-size="14" lengthAdjust="spacing" textLength="117" x="271.5" y="1435.3311">Instrumentation</text><rect fill="#E2E2F0" height="30.2969" rx="2.5" ry="2.5" style="stroke:#181818;stroke-width:0.5;" width="70" x="464" y="1415.3359"/><text fill="#000000" font-family="sans-serif" font-size="14" lengthAdjust="spacing" textLength="56" x="471" y="1435.3311">Activity</text><rect fill="#E2E2F0" height="30.2969" rx="2.5" ry="2.5" style="stroke:#181818;stroke-width:0.5;" width="115" x="596.5" y="1415.3359"/><text fill="#000000" font-family="sans-serif" font-size="14" lengthAdjust="spacing" textLength="101" x="603.5" y="1435.3311">PhoneWindow</text><rect fill="#E2E2F0" height="30.2969" rx="2.5" ry="2.5" style="stroke:#181818;stroke-width:0.5;" width="91" x="797.5" y="1415.3359"/><text fill="#000000" font-family="sans-serif" font-size="14" lengthAdjust="spacing" textLength="77" x="804.5" y="1435.3311">DecorView</text><rect fill="#E2E2F0" height="30.2969" rx="2.5" ry="2.5" style="stroke:#181818;stroke-width:0.5;" width="163" x="898.5" y="5"/><text fill="#000000" font-family="sans-serif" font-size="14" lengthAdjust="spacing" textLength="149" x="905.5" y="24.9951">WindowManagerImpl</text><rect fill="#E2E2F0" height="30.2969" rx="2.5" ry="2.5" style="stroke:#181818;stroke-width:0.5;" width="163" x="898.5" y="1415.3359"/><text fill="#000000" font-family="sans-serif" font-size="14" lengthAdjust="spacing" textLength="149" x="905.5" y="1435.3311">WindowManagerImpl</text><rect fill="#E2E2F0" height="30.2969" rx="2.5" ry="2.5" style="stroke:#181818;stroke-width:0.5;" width="177" x="1071.5" y="5"/><text fill="#000000" font-family="sans-serif" font-size="14" lengthAdjust="spacing" textLength="163" x="1078.5" y="24.9951">WindowManagerGlobal</text><rect fill="#E2E2F0" height="30.2969" rx="2.5" ry="2.5" style="stroke:#181818;stroke-width:0.5;" width="177" x="1071.5" y="1415.3359"/><text fill="#000000" font-family="sans-serif" font-size="14" lengthAdjust="spacing" textLength="163" x="1078.5" y="1435.3311">WindowManagerGlobal</text><rect fill="#E2E2F0" height="30.2969" rx="2.5" ry="2.5" style="stroke:#181818;stroke-width:0.5;" width="115" x="1374.5" y="1415.3359"/><text fill="#000000" font-family="sans-serif" font-size="14" lengthAdjust="spacing" textLength="101" x="1381.5" y="1435.3311">ViewRootImpl</text><rect fill="#FFFFFF" height="1287.6406" style="stroke:#181818;stroke-width:1.0;" width="10" x="143" y="119.6953"/><rect fill="#FFBBBB" height="648.4844" style="stroke:#181818;stroke-width:1.0;" width="10" x="148" y="247.0938"/><rect fill="#FFBBBB" height="467.625" style="stroke:#181818;stroke-width:1.0;" width="10" x="148" y="939.7109"/><rect fill="#FFFFFF" height="126.3984" style="stroke:#181818;stroke-width:1.0;" width="10" x="153" y="981.8438"/><rect fill="#FFFFFF" height="97.4297" style="stroke:#181818;stroke-width:1.0;" width="10" x="325" y="281.2266"/><rect fill="#FFFFFF" height="252.8281" style="stroke:#181818;stroke-width:1.0;" width="10" x="325" y="521.3516"/><rect fill="#FFFFFF" height="29.1328" style="stroke:#181818;stroke-width:1.0;" width="10" x="325" y="832.4453"/><rect fill="#FFFFFF" height="29.1328" style="stroke:#181818;stroke-width:1.0;" width="10" x="325" y="1045.1094"/><rect fill="#FFFFFF" height="84.4297" style="stroke:#181818;stroke-width:1.0;" width="10" x="494" y="407.7891"/><rect fill="#FFFFFF" height="209.6953" style="stroke:#181818;stroke-width:1.0;" width="10" x="494" y="550.4844"/><rect fill="#FFFFFF" height="151.5625" style="stroke:#181818;stroke-width:1.0;" width="10" x="499" y="587.6172"/><rect fill="#FFFFFF" height="72.2656" style="stroke:#181818;stroke-width:1.0;" width="10" x="494" y="803.3125"/><rect fill="#FFFFFF" height="72.2656" style="stroke:#181818;stroke-width:1.0;" width="10" x="494" y="1015.9766"/><rect fill="#FFFFFF" height="97.4297" style="stroke:#181818;stroke-width:1.0;" width="10" x="649" y="621.75"/><rect fill="#FFFFFF" height="253.9609" style="stroke:#181818;stroke-width:1.0;" width="10" x="975" y="1144.375"/><rect fill="#FFFFFF" height="56.1328" style="stroke:#181818;stroke-width:1.0;" width="10" x="1155" y="153.8281"/><rect fill="#FFFFFF" height="210.8281" style="stroke:#181818;stroke-width:1.0;" width="10" x="1155" y="1173.5078"/><ellipse cx="7.5" cy="81.8125" fill="none" rx="4" ry="4" style="stroke:#181818;stroke-width:1.5;"/><polygon fill="#181818" points="136,78.5625,146,82.5625,136,86.5625,140,82.5625" style="stroke:#181818;stroke-width:1.0;"/><line style="stroke:#181818;stroke-width:1.0;" x1="12" x2="142" y1="82.5625" y2="82.5625"/><text fill="#000000" font-family="sans-serif" font-size="13" lengthAdjust="spacing" textLength="103" x="15" y="62.3638">handleMessage.</text><text fill="#000000" font-family="sans-serif" font-size="13" lengthAdjust="spacing" textLength="116" x="15" y="77.4966">LAUNCH_ACTIVITY</text><line style="stroke:#181818;stroke-width:1.0;" x1="148" x2="195" y1="106.6953" y2="106.6953"/><line style="stroke:#181818;stroke-width:1.0;" x1="195" x2="195" y1="106.6953" y2="119.6953"/><line style="stroke:#181818;stroke-width:1.0;" x1="154" x2="195" y1="119.6953" y2="119.6953"/><polygon fill="#181818" points="164,115.6953,154,119.6953,164,123.6953,160,119.6953" style="stroke:#181818;stroke-width:1.0;"/><text fill="#000000" font-family="sans-serif" font-size="13" lengthAdjust="spacing" textLength="137" x="160" y="101.6294">handleLaunchActivity</text><polygon fill="#181818" points="1143,149.8281,1153,153.8281,1143,157.8281,1147,153.8281" style="stroke:#181818;stroke-width:1.0;"/><line style="stroke:#181818;stroke-width:1.0;" x1="153" x2="1149" y1="153.8281" y2="153.8281"/><text fill="#000000" font-family="sans-serif" font-size="13" lengthAdjust="spacing" textLength="51" x="160" y="148.7622">initialize</text><line style="stroke:#181818;stroke-width:1.0;" x1="1165" x2="1207" y1="182.9609" y2="182.9609"/><line style="stroke:#181818;stroke-width:1.0;" x1="1207" x2="1207" y1="182.9609" y2="195.9609"/><line style="stroke:#181818;stroke-width:1.0;" x1="1166" x2="1207" y1="195.9609" y2="195.9609"/><polygon fill="#181818" points="1176,191.9609,1166,195.9609,1176,199.9609,1172,195.9609" style="stroke:#181818;stroke-width:1.0;"/><text fill="#000000" font-family="sans-serif" font-size="13" lengthAdjust="spacing" textLength="248" x="1172" y="177.895">ServiceManager.getService("window"))</text><polygon fill="#181818" points="164,205.9609,154,209.9609,164,213.9609,160,209.9609" style="stroke:#181818;stroke-width:1.0;"/><line style="stroke:#181818;stroke-width:1.0;stroke-dasharray:2.0,2.0;" x1="158" x2="1159" y1="209.9609" y2="209.9609"/><line style="stroke:#181818;stroke-width:1.0;" x1="153" x2="200" y1="234.0938" y2="234.0938"/><line style="stroke:#181818;stroke-width:1.0;" x1="200" x2="200" y1="234.0938" y2="247.0938"/><line style="stroke:#181818;stroke-width:1.0;" x1="159" x2="200" y1="247.0938" y2="247.0938"/><polygon fill="#181818" points="169,243.0938,159,247.0938,169,251.0938,165,247.0938" style="stroke:#181818;stroke-width:1.0;"/><text fill="#000000" font-family="sans-serif" font-size="13" lengthAdjust="spacing" textLength="146" x="165" y="229.0278">performLaunchActivity</text><polygon fill="#181818" points="313,277.2266,323,281.2266,313,285.2266,317,281.2266" style="stroke:#181818;stroke-width:1.0;"/><line style="stroke:#181818;stroke-width:1.0;" x1="158" x2="319" y1="281.2266" y2="281.2266"/><text fill="#000000" font-family="sans-serif" font-size="13" lengthAdjust="spacing" textLength="75" x="165" y="276.1606">newActivity</text><line style="stroke:#181818;stroke-width:1.0;" x1="335" x2="377" y1="310.3594" y2="310.3594"/><line style="stroke:#181818;stroke-width:1.0;" x1="377" x2="377" y1="310.3594" y2="323.3594"/><line style="stroke:#181818;stroke-width:1.0;" x1="336" x2="377" y1="323.3594" y2="323.3594"/><polygon fill="#181818" points="346,319.3594,336,323.3594,346,327.3594,342,323.3594" style="stroke:#181818;stroke-width:1.0;"/><text fill="#000000" font-family="sans-serif" font-size="13" lengthAdjust="spacing" textLength="143" x="342" y="305.2935">ClassLoader.loadClass</text><polygon fill="#181818" points="452,348.4922,462,352.4922,452,356.4922,456,352.4922" style="stroke:#181818;stroke-width:1.0;"/><line style="stroke:#181818;stroke-width:1.0;" x1="335" x2="458" y1="352.4922" y2="352.4922"/><text fill="#000000" font-family="sans-serif" font-size="13" lengthAdjust="spacing" textLength="81" x="342" y="347.4263">newInstance</text><rect fill="#E2E2F0" height="30.2969" rx="2.5" ry="2.5" style="stroke:#181818;stroke-width:0.5;" width="70" x="464" y="331.3594"/><text fill="#000000" font-family="sans-serif" font-size="14" lengthAdjust="spacing" textLength="56" x="471" y="351.3545">Activity</text><polygon fill="#181818" points="169,374.6563,159,378.6563,169,382.6563,165,378.6563" style="stroke:#181818;stroke-width:1.0;"/><line style="stroke:#181818;stroke-width:1.0;stroke-dasharray:2.0,2.0;" x1="163" x2="329" y1="378.6563" y2="378.6563"/><polygon fill="#181818" points="482,403.7891,492,407.7891,482,411.7891,486,407.7891" style="stroke:#181818;stroke-width:1.0;"/><line style="stroke:#181818;stroke-width:1.0;" x1="158" x2="488" y1="407.7891" y2="407.7891"/><text fill="#000000" font-family="sans-serif" font-size="13" lengthAdjust="spacing" textLength="41" x="165" y="402.7231">attach</text><polygon fill="#181818" points="584.5,432.9219,594.5,436.9219,584.5,440.9219,588.5,436.9219" style="stroke:#181818;stroke-width:1.0;"/><line style="stroke:#181818;stroke-width:1.0;" x1="504" x2="590.5" y1="436.9219" y2="436.9219"/><text fill="#000000" font-family="sans-serif" font-size="13" lengthAdjust="spacing" textLength="64" x="511" y="431.856">mWindow</text><rect fill="#E2E2F0" height="30.2969" rx="2.5" ry="2.5" style="stroke:#181818;stroke-width:0.5;" width="115" x="596.5" y="415.7891"/><text fill="#000000" font-family="sans-serif" font-size="14" lengthAdjust="spacing" textLength="101" x="603.5" y="435.7842">PhoneWindow</text><polygon fill="#181818" points="642,474.2188,652,478.2188,642,482.2188,646,478.2188" style="stroke:#181818;stroke-width:1.0;"/><line style="stroke:#181818;stroke-width:1.0;" x1="504" x2="648" y1="478.2188" y2="478.2188"/><text fill="#000000" font-family="sans-serif" font-size="13" lengthAdjust="spacing" textLength="126" x="511" y="473.1528">setWindowManager</text><polygon fill="#181818" points="169,488.2188,159,492.2188,169,496.2188,165,492.2188" style="stroke:#181818;stroke-width:1.0;"/><line style="stroke:#181818;stroke-width:1.0;stroke-dasharray:2.0,2.0;" x1="163" x2="498" y1="492.2188" y2="492.2188"/><polygon fill="#181818" points="313,517.3516,323,521.3516,313,525.3516,317,521.3516" style="stroke:#181818;stroke-width:1.0;"/><line style="stroke:#181818;stroke-width:1.0;" x1="158" x2="319" y1="521.3516" y2="521.3516"/><text fill="#000000" font-family="sans-serif" font-size="13" lengthAdjust="spacing" textLength="130" x="165" y="516.2856">callActivityOnCreate</text><polygon fill="#181818" points="482,546.4844,492,550.4844,482,554.4844,486,550.4844" style="stroke:#181818;stroke-width:1.0;"/><line style="stroke:#181818;stroke-width:1.0;" x1="335" x2="488" y1="550.4844" y2="550.4844"/><text fill="#000000" font-family="sans-serif" font-size="13" lengthAdjust="spacing" textLength="95" x="342" y="545.4185">performCreate</text><line style="stroke:#181818;stroke-width:1.0;" x1="504" x2="551" y1="574.6172" y2="574.6172"/><line style="stroke:#181818;stroke-width:1.0;" x1="551" x2="551" y1="574.6172" y2="587.6172"/><line style="stroke:#181818;stroke-width:1.0;" x1="510" x2="551" y1="587.6172" y2="587.6172"/><polygon fill="#181818" points="520,583.6172,510,587.6172,520,591.6172,516,587.6172" style="stroke:#181818;stroke-width:1.0;"/><text fill="#000000" font-family="sans-serif" font-size="13" lengthAdjust="spacing" textLength="59" x="516" y="569.5513">onCreate</text><polygon fill="#181818" points="637,617.75,647,621.75,637,625.75,641,621.75" style="stroke:#181818;stroke-width:1.0;"/><line style="stroke:#181818;stroke-width:1.0;" x1="509" x2="643" y1="621.75" y2="621.75"/><text fill="#000000" font-family="sans-serif" font-size="13" lengthAdjust="spacing" textLength="102" x="516" y="616.6841">setContentView</text><polygon fill="#181818" points="785.5,631.75,795.5,635.75,785.5,639.75,789.5,635.75" style="stroke:#181818;stroke-width:1.0;"/><line style="stroke:#181818;stroke-width:1.0;" x1="659" x2="791.5" y1="635.75" y2="635.75"/><rect fill="#E2E2F0" height="30.2969" rx="2.5" ry="2.5" style="stroke:#181818;stroke-width:0.5;" width="91" x="797.5" y="629.75"/><text fill="#000000" font-family="sans-serif" font-size="14" lengthAdjust="spacing" textLength="77" x="804.5" y="649.7451">DecorView</text><line style="stroke:#181818;stroke-width:1.0;" x1="659" x2="701" y1="692.1797" y2="692.1797"/><line style="stroke:#181818;stroke-width:1.0;" x1="701" x2="701" y1="692.1797" y2="705.1797"/><line style="stroke:#181818;stroke-width:1.0;" x1="660" x2="701" y1="705.1797" y2="705.1797"/><polygon fill="#181818" points="670,701.1797,660,705.1797,670,709.1797,666,705.1797" style="stroke:#181818;stroke-width:1.0;"/><text fill="#000000" font-family="sans-serif" font-size="13" lengthAdjust="spacing" textLength="165" x="666" y="687.1138">mContentParent.addView</text><polygon fill="#181818" points="520,715.1797,510,719.1797,520,723.1797,516,719.1797" style="stroke:#181818;stroke-width:1.0;"/><line style="stroke:#181818;stroke-width:1.0;stroke-dasharray:2.0,2.0;" x1="514" x2="653" y1="719.1797" y2="719.1797"/><line style="stroke:#181818;stroke-width:1.0;stroke-dasharray:2.0,2.0;" x1="509" x2="551" y1="738.1797" y2="738.1797"/><line style="stroke:#181818;stroke-width:1.0;stroke-dasharray:2.0,2.0;" x1="551" x2="551" y1="738.1797" y2="751.1797"/><line style="stroke:#181818;stroke-width:1.0;stroke-dasharray:2.0,2.0;" x1="504" x2="551" y1="751.1797" y2="751.1797"/><polygon fill="#181818" points="514,747.1797,504,751.1797,514,755.1797,510,751.1797" style="stroke:#181818;stroke-width:1.0;"/><polygon fill="#181818" points="346,756.1797,336,760.1797,346,764.1797,342,760.1797" style="stroke:#181818;stroke-width:1.0;"/><line style="stroke:#181818;stroke-width:1.0;stroke-dasharray:2.0,2.0;" x1="340" x2="498" y1="760.1797" y2="760.1797"/><polygon fill="#181818" points="169,770.1797,159,774.1797,169,778.1797,165,774.1797" style="stroke:#181818;stroke-width:1.0;"/><line style="stroke:#181818;stroke-width:1.0;stroke-dasharray:2.0,2.0;" x1="163" x2="329" y1="774.1797" y2="774.1797"/><polygon fill="#181818" points="482,799.3125,492,803.3125,482,807.3125,486,803.3125" style="stroke:#181818;stroke-width:1.0;"/><line style="stroke:#181818;stroke-width:1.0;" x1="158" x2="488" y1="803.3125" y2="803.3125"/><text fill="#000000" font-family="sans-serif" font-size="13" lengthAdjust="spacing" textLength="83" x="165" y="798.2466">performStart</text><polygon fill="#181818" points="346,828.4453,336,832.4453,346,836.4453,342,832.4453" style="stroke:#181818;stroke-width:1.0;"/><line style="stroke:#181818;stroke-width:1.0;" x1="340" x2="493" y1="832.4453" y2="832.4453"/><text fill="#000000" font-family="sans-serif" font-size="13" lengthAdjust="spacing" textLength="118" x="352" y="827.3794">callActivityOnStart</text><polygon fill="#181818" points="482,857.5781,492,861.5781,482,865.5781,486,861.5781" style="stroke:#181818;stroke-width:1.0;"/><line style="stroke:#181818;stroke-width:1.0;" x1="330" x2="488" y1="861.5781" y2="861.5781"/><text fill="#000000" font-family="sans-serif" font-size="13" lengthAdjust="spacing" textLength="47" x="337" y="856.5122">onStart</text><polygon fill="#181818" points="169,871.5781,159,875.5781,169,879.5781,165,875.5781" style="stroke:#181818;stroke-width:1.0;"/><line style="stroke:#181818;stroke-width:1.0;stroke-dasharray:2.0,2.0;" x1="163" x2="498" y1="875.5781" y2="875.5781"/><line style="stroke:#181818;stroke-width:1.0;stroke-dasharray:2.0,2.0;" x1="158" x2="200" y1="894.5781" y2="894.5781"/><line style="stroke:#181818;stroke-width:1.0;stroke-dasharray:2.0,2.0;" x1="200" x2="200" y1="894.5781" y2="907.5781"/><line style="stroke:#181818;stroke-width:1.0;stroke-dasharray:2.0,2.0;" x1="153" x2="200" y1="907.5781" y2="907.5781"/><polygon fill="#181818" points="163,903.5781,153,907.5781,163,911.5781,159,907.5781" style="stroke:#181818;stroke-width:1.0;"/><line style="stroke:#181818;stroke-width:1.0;" x1="153" x2="200" y1="926.7109" y2="926.7109"/><line style="stroke:#181818;stroke-width:1.0;" x1="200" x2="200" y1="926.7109" y2="939.7109"/><line style="stroke:#181818;stroke-width:1.0;" x1="159" x2="200" y1="939.7109" y2="939.7109"/><polygon fill="#181818" points="169,935.7109,159,939.7109,169,943.7109,165,939.7109" style="stroke:#181818;stroke-width:1.0;"/><text fill="#000000" font-family="sans-serif" font-size="13" lengthAdjust="spacing" textLength="144" x="165" y="921.645">handleResumeActivity</text><line style="stroke:#181818;stroke-width:1.0;" x1="158" x2="205" y1="968.8438" y2="968.8438"/><line style="stroke:#181818;stroke-width:1.0;" x1="205" x2="205" y1="968.8438" y2="981.8438"/><line style="stroke:#181818;stroke-width:1.0;" x1="164" x2="205" y1="981.8438" y2="981.8438"/><polygon fill="#181818" points="174,977.8438,164,981.8438,174,985.8438,170,981.8438" style="stroke:#181818;stroke-width:1.0;"/><text fill="#000000" font-family="sans-serif" font-size="13" lengthAdjust="spacing" textLength="153" x="170" y="963.7778">performResumeActivity</text><polygon fill="#181818" points="482,1011.9766,492,1015.9766,482,1019.9766,486,1015.9766" style="stroke:#181818;stroke-width:1.0;"/><line style="stroke:#181818;stroke-width:1.0;" x1="163" x2="488" y1="1015.9766" y2="1015.9766"/><text fill="#000000" font-family="sans-serif" font-size="13" lengthAdjust="spacing" textLength="105" x="170" y="1010.9106">performResume</text><polygon fill="#181818" points="346,1041.1094,336,1045.1094,346,1049.1094,342,1045.1094" style="stroke:#181818;stroke-width:1.0;"/><line style="stroke:#181818;stroke-width:1.0;" x1="340" x2="493" y1="1045.1094" y2="1045.1094"/><text fill="#000000" font-family="sans-serif" font-size="13" lengthAdjust="spacing" textLength="140" x="352" y="1040.0435">callActivityOnResume</text><polygon fill="#181818" points="482,1070.2422,492,1074.2422,482,1078.2422,486,1074.2422" style="stroke:#181818;stroke-width:1.0;"/><line style="stroke:#181818;stroke-width:1.0;" x1="330" x2="488" y1="1074.2422" y2="1074.2422"/><text fill="#000000" font-family="sans-serif" font-size="13" lengthAdjust="spacing" textLength="69" x="337" y="1069.1763">onResume</text><polygon fill="#181818" points="174,1084.2422,164,1088.2422,174,1092.2422,170,1088.2422" style="stroke:#181818;stroke-width:1.0;"/><line style="stroke:#181818;stroke-width:1.0;stroke-dasharray:2.0,2.0;" x1="168" x2="498" y1="1088.2422" y2="1088.2422"/><line style="stroke:#181818;stroke-width:1.0;stroke-dasharray:2.0,2.0;" x1="163" x2="205" y1="1107.2422" y2="1107.2422"/><line style="stroke:#181818;stroke-width:1.0;stroke-dasharray:2.0,2.0;" x1="205" x2="205" y1="1107.2422" y2="1120.2422"/><line style="stroke:#181818;stroke-width:1.0;stroke-dasharray:2.0,2.0;" x1="158" x2="205" y1="1120.2422" y2="1120.2422"/><polygon fill="#181818" points="168,1116.2422,158,1120.2422,168,1124.2422,164,1120.2422" style="stroke:#181818;stroke-width:1.0;"/><polygon fill="#181818" points="963,1140.375,973,1144.375,963,1148.375,967,1144.375" style="stroke:#181818;stroke-width:1.0;"/><line style="stroke:#181818;stroke-width:1.0;" x1="158" x2="969" y1="1144.375" y2="1144.375"/><text fill="#000000" font-family="sans-serif" font-size="13" lengthAdjust="spacing" textLength="132" x="165" y="1139.3091">addView(decorView)</text><polygon fill="#181818" points="1143,1169.5078,1153,1173.5078,1143,1177.5078,1147,1173.5078" style="stroke:#181818;stroke-width:1.0;"/><line style="stroke:#181818;stroke-width:1.0;" x1="985" x2="1149" y1="1173.5078" y2="1173.5078"/><text fill="#000000" font-family="sans-serif" font-size="13" lengthAdjust="spacing" textLength="55" x="992" y="1168.4419">addView</text><polygon fill="#181818" points="1362.5,1183.5078,1372.5,1187.5078,1362.5,1191.5078,1366.5,1187.5078" style="stroke:#181818;stroke-width:1.0;"/><line style="stroke:#181818;stroke-width:1.0;" x1="1165" x2="1368.5" y1="1187.5078" y2="1187.5078"/><rect fill="#E2E2F0" height="30.2969" rx="2.5" ry="2.5" style="stroke:#181818;stroke-width:0.5;" width="115" x="1374.5" y="1181.5078"/><text fill="#000000" font-family="sans-serif" font-size="14" lengthAdjust="spacing" textLength="101" x="1381.5" y="1201.5029">ViewRootImpl</text><line style="stroke:#181818;stroke-width:1.0;" x1="1165" x2="1207" y1="1243.9375" y2="1243.9375"/><line style="stroke:#181818;stroke-width:1.0;" x1="1207" x2="1207" y1="1243.9375" y2="1256.9375"/><line style="stroke:#181818;stroke-width:1.0;" x1="1166" x2="1207" y1="1256.9375" y2="1256.9375"/><polygon fill="#181818" points="1176,1252.9375,1166,1256.9375,1176,1260.9375,1172,1256.9375" style="stroke:#181818;stroke-width:1.0;"/><text fill="#000000" font-family="sans-serif" font-size="13" lengthAdjust="spacing" textLength="119" x="1172" y="1238.8716">mViews.add(view)</text><line style="stroke:#181818;stroke-width:1.0;" x1="1165" x2="1207" y1="1286.0703" y2="1286.0703"/><line style="stroke:#181818;stroke-width:1.0;" x1="1207" x2="1207" y1="1286.0703" y2="1299.0703"/><line style="stroke:#181818;stroke-width:1.0;" x1="1166" x2="1207" y1="1299.0703" y2="1299.0703"/><polygon fill="#181818" points="1176,1295.0703,1166,1299.0703,1176,1303.0703,1172,1299.0703" style="stroke:#181818;stroke-width:1.0;"/><text fill="#000000" font-family="sans-serif" font-size="13" lengthAdjust="spacing" textLength="114" x="1172" y="1281.0044">mRoots.add(root)</text><line style="stroke:#181818;stroke-width:1.0;" x1="1165" x2="1207" y1="1328.2031" y2="1328.2031"/><line style="stroke:#181818;stroke-width:1.0;" x1="1207" x2="1207" y1="1328.2031" y2="1341.2031"/><line style="stroke:#181818;stroke-width:1.0;" x1="1166" x2="1207" y1="1341.2031" y2="1341.2031"/><polygon fill="#181818" points="1176,1337.2031,1166,1341.2031,1176,1345.2031,1172,1341.2031" style="stroke:#181818;stroke-width:1.0;"/><text fill="#000000" font-family="sans-serif" font-size="13" lengthAdjust="spacing" textLength="160" x="1172" y="1323.1372">mParams.add(wparams)</text><polygon fill="#181818" points="1420,1366.3359,1430,1370.3359,1420,1374.3359,1424,1370.3359" style="stroke:#181818;stroke-width:1.0;"/><line style="stroke:#181818;stroke-width:1.0;" x1="1165" x2="1426" y1="1370.3359" y2="1370.3359"/><text fill="#000000" font-family="sans-serif" font-size="13" lengthAdjust="spacing" textLength="51" x="1172" y="1365.27">setView</text><polygon fill="#181818" points="996,1380.3359,986,1384.3359,996,1388.3359,992,1384.3359" style="stroke:#181818;stroke-width:1.0;"/><line style="stroke:#181818;stroke-width:1.0;stroke-dasharray:2.0,2.0;" x1="990" x2="1159" y1="1384.3359" y2="1384.3359"/><polygon fill="#181818" points="169,1394.3359,159,1398.3359,169,1402.3359,165,1398.3359" style="stroke:#181818;stroke-width:1.0;"/><line style="stroke:#181818;stroke-width:1.0;stroke-dasharray:2.0,2.0;" x1="163" x2="979" y1="1398.3359" y2="1398.3359"/><!--SRC=[bLHHRvim47xdLvpQXoQD4dMFvM5IojGrKjfLRTffMgNg2jTY2MnadB3jryzWWq8mWUOXWFrzT_TzzjqPn2mYU1T2lOa_NePIiP1bo1NyP3mInIro_23vFH5lc82G4Kcul6m1dnaL3ph0Airgn9UB2y_xBUPVOHagjcFgxoQMX17u42EF4hgbFDTn5ozylNow2svUby5czRpQ_F8E2DqGiraJPOrR7iRrleFgqZ2R-S0uKmmJzeyy5wI7wGCyajonaEpwueEKNPcS51NZP3hr9AcjvAEKd5vVN-cV3nd9To7JGKKhdYkvJOahL4nmumQdeg4S0XmS7u84ytmjK9_L8j6Fwjj5hSF2-Rd9KsAGXpGiqfI6Ic4ODx0IS1yBJiPV4pOr7xqW7t9IhGFfpzxrnuSGawH6_k21XYewAhQgt9w8XU_NriO9xe3ibr-Me0K4WYkThUmMRtzRexzHA6IveVqut6iRaTeezoZr_mAZg8fdxN0-Xax8wdnKkgLR6fnNhUsb8HspSZwlB3B0Cp0rDGjZAtKqZ9a03vJhn4VwnJKyhEBHN0ThmAX3donfX54MEMHCgnkgmLicjTTX4jNtQUfrWRrZ4Pe0VKEnDUdrLVtKx4nBTbvUsSckMzeWkynhs5A_VPQj-mLJGo-owdqwIcJLkTqM-my0]--></g></svg>