<?xml version="1.0" encoding="us-ascii" standalone="no"?><svg xmlns="http://www.w3.org/2000/svg" xmlns:xlink="http://www.w3.org/1999/xlink" contentStyleType="text/css" height="392px" preserveAspectRatio="none" style="width:1073px;height:392px;background:#FFFFFF;" version="1.1" viewBox="0 0 1073 392" width="1073px" zoomAndPan="magnify"><defs/><g><!--class WindowContainer--><g id="elem_WindowContainer"><rect codeLine="2" fill="#F1F1F1" height="48" id="WindowContainer" rx="2.5" ry="2.5" style="stroke:#181818;stroke-width:0.5;" width="269" x="352" y="119"/><ellipse cx="367" cy="135" fill="#ADD1B2" rx="11" ry="11" style="stroke:#181818;stroke-width:1.0;"/><path d="M369.3438,130.6719 C368.4063,130.2344 367.8125,130.0938 366.9375,130.0938 C364.3125,130.0938 362.3125,132.1719 362.3125,134.8906 L362.3125,136.0156 C362.3125,138.5938 364.4219,140.4844 367.3125,140.4844 C368.5313,140.4844 369.6875,140.1875 370.4375,139.6406 C371.0156,139.2344 371.3438,138.7813 371.3438,138.3906 C371.3438,137.9375 370.9531,137.5469 370.4844,137.5469 C370.2656,137.5469 370.0625,137.625 369.875,137.8125 C369.4219,138.2969 369.4219,138.2969 369.2344,138.3906 C368.8125,138.6563 368.125,138.7813 367.3594,138.7813 C365.3125,138.7813 364.0156,137.6875 364.0156,135.9844 L364.0156,134.8906 C364.0156,133.1094 365.2656,131.7969 367,131.7969 C367.5781,131.7969 368.1875,131.9531 368.6563,132.2031 C369.1406,132.4844 369.3125,132.7031 369.4063,133.1094 C369.4688,133.5156 369.5,133.6406 369.6406,133.7656 C369.7813,133.9063 370.0156,134.0156 370.2344,134.0156 C370.5,134.0156 370.7656,133.875 370.9375,133.6563 C371.0469,133.5 371.0781,133.3125 371.0781,132.8906 L371.0781,131.4688 C371.0781,131.0313 371.0625,130.9063 370.9688,130.75 C370.8125,130.4844 370.5313,130.3438 370.2344,130.3438 C369.9375,130.3438 369.7344,130.4375 369.5156,130.75 L369.3438,130.6719 Z " fill="#000000"/><text fill="#000000" font-family="sans-serif" font-size="14" lengthAdjust="spacing" textLength="127" x="381" y="139.8467">WindowContainer</text><rect fill="#FFFFFF" height="15.9688" style="stroke:#181818;stroke-width:1.0;stroke-dasharray:2.0,2.0;" width="108" x="516" y="116"/><text fill="#000000" font-family="sans-serif" font-size="12" font-style="italic" lengthAdjust="spacing" textLength="106" x="517" y="128.1387">WindowContainer</text><line style="stroke:#181818;stroke-width:0.5;" x1="353" x2="620" y1="151" y2="151"/><line style="stroke:#181818;stroke-width:0.5;" x1="353" x2="620" y1="159" y2="159"/></g><!--class TaskFragment--><g id="elem_TaskFragment"><rect fill="#F1F1F1" height="48" id="TaskFragment" rx="2.5" ry="2.5" style="stroke:#181818;stroke-width:0.5;" width="135" x="419" y="228"/><ellipse cx="434" cy="244" fill="#ADD1B2" rx="11" ry="11" style="stroke:#181818;stroke-width:1.0;"/><path d="M436.3438,239.6719 C435.4063,239.2344 434.8125,239.0938 433.9375,239.0938 C431.3125,239.0938 429.3125,241.1719 429.3125,243.8906 L429.3125,245.0156 C429.3125,247.5938 431.4219,249.4844 434.3125,249.4844 C435.5313,249.4844 436.6875,249.1875 437.4375,248.6406 C438.0156,248.2344 438.3438,247.7813 438.3438,247.3906 C438.3438,246.9375 437.9531,246.5469 437.4844,246.5469 C437.2656,246.5469 437.0625,246.625 436.875,246.8125 C436.4219,247.2969 436.4219,247.2969 436.2344,247.3906 C435.8125,247.6563 435.125,247.7813 434.3594,247.7813 C432.3125,247.7813 431.0156,246.6875 431.0156,244.9844 L431.0156,243.8906 C431.0156,242.1094 432.2656,240.7969 434,240.7969 C434.5781,240.7969 435.1875,240.9531 435.6563,241.2031 C436.1406,241.4844 436.3125,241.7031 436.4063,242.1094 C436.4688,242.5156 436.5,242.6406 436.6406,242.7656 C436.7813,242.9063 437.0156,243.0156 437.2344,243.0156 C437.5,243.0156 437.7656,242.875 437.9375,242.6563 C438.0469,242.5 438.0781,242.3125 438.0781,241.8906 L438.0781,240.4688 C438.0781,240.0313 438.0625,239.9063 437.9688,239.75 C437.8125,239.4844 437.5313,239.3438 437.2344,239.3438 C436.9375,239.3438 436.7344,239.4375 436.5156,239.75 L436.3438,239.6719 Z " fill="#000000"/><text fill="#000000" font-family="sans-serif" font-size="14" lengthAdjust="spacing" textLength="103" x="448" y="248.8467">TaskFragment</text><line style="stroke:#181818;stroke-width:0.5;" x1="420" x2="553" y1="260" y2="260"/><line style="stroke:#181818;stroke-width:0.5;" x1="420" x2="553" y1="268" y2="268"/></g><!--class Task--><g id="elem_Task"><rect fill="#F1F1F1" height="48" id="Task" rx="2.5" ry="2.5" style="stroke:#181818;stroke-width:0.5;" width="65" x="454" y="337"/><ellipse cx="469" cy="353" fill="#ADD1B2" rx="11" ry="11" style="stroke:#181818;stroke-width:1.0;"/><path d="M471.3438,348.6719 C470.4063,348.2344 469.8125,348.0938 468.9375,348.0938 C466.3125,348.0938 464.3125,350.1719 464.3125,352.8906 L464.3125,354.0156 C464.3125,356.5938 466.4219,358.4844 469.3125,358.4844 C470.5313,358.4844 471.6875,358.1875 472.4375,357.6406 C473.0156,357.2344 473.3438,356.7813 473.3438,356.3906 C473.3438,355.9375 472.9531,355.5469 472.4844,355.5469 C472.2656,355.5469 472.0625,355.625 471.875,355.8125 C471.4219,356.2969 471.4219,356.2969 471.2344,356.3906 C470.8125,356.6563 470.125,356.7813 469.3594,356.7813 C467.3125,356.7813 466.0156,355.6875 466.0156,353.9844 L466.0156,352.8906 C466.0156,351.1094 467.2656,349.7969 469,349.7969 C469.5781,349.7969 470.1875,349.9531 470.6563,350.2031 C471.1406,350.4844 471.3125,350.7031 471.4063,351.1094 C471.4688,351.5156 471.5,351.6406 471.6406,351.7656 C471.7813,351.9063 472.0156,352.0156 472.2344,352.0156 C472.5,352.0156 472.7656,351.875 472.9375,351.6563 C473.0469,351.5 473.0781,351.3125 473.0781,350.8906 L473.0781,349.4688 C473.0781,349.0313 473.0625,348.9063 472.9688,348.75 C472.8125,348.4844 472.5313,348.3438 472.2344,348.3438 C471.9375,348.3438 471.7344,348.4375 471.5156,348.75 L471.3438,348.6719 Z " fill="#000000"/><text fill="#000000" font-family="sans-serif" font-size="14" lengthAdjust="spacing" textLength="33" x="483" y="357.8467">Task</text><line style="stroke:#181818;stroke-width:0.5;" x1="455" x2="518" y1="369" y2="369"/><line style="stroke:#181818;stroke-width:0.5;" x1="455" x2="518" y1="377" y2="377"/></g><!--class RootDisplayArea--><g id="elem_RootDisplayArea"><rect fill="#F1F1F1" height="48" id="RootDisplayArea" rx="2.5" ry="2.5" style="stroke:#181818;stroke-width:0.5;" width="152" x="643.5" y="228"/><ellipse cx="658.5" cy="244" fill="#ADD1B2" rx="11" ry="11" style="stroke:#181818;stroke-width:1.0;"/><path d="M660.8438,239.6719 C659.9063,239.2344 659.3125,239.0938 658.4375,239.0938 C655.8125,239.0938 653.8125,241.1719 653.8125,243.8906 L653.8125,245.0156 C653.8125,247.5938 655.9219,249.4844 658.8125,249.4844 C660.0313,249.4844 661.1875,249.1875 661.9375,248.6406 C662.5156,248.2344 662.8438,247.7813 662.8438,247.3906 C662.8438,246.9375 662.4531,246.5469 661.9844,246.5469 C661.7656,246.5469 661.5625,246.625 661.375,246.8125 C660.9219,247.2969 660.9219,247.2969 660.7344,247.3906 C660.3125,247.6563 659.625,247.7813 658.8594,247.7813 C656.8125,247.7813 655.5156,246.6875 655.5156,244.9844 L655.5156,243.8906 C655.5156,242.1094 656.7656,240.7969 658.5,240.7969 C659.0781,240.7969 659.6875,240.9531 660.1563,241.2031 C660.6406,241.4844 660.8125,241.7031 660.9063,242.1094 C660.9688,242.5156 661,242.6406 661.1406,242.7656 C661.2813,242.9063 661.5156,243.0156 661.7344,243.0156 C662,243.0156 662.2656,242.875 662.4375,242.6563 C662.5469,242.5 662.5781,242.3125 662.5781,241.8906 L662.5781,240.4688 C662.5781,240.0313 662.5625,239.9063 662.4688,239.75 C662.3125,239.4844 662.0313,239.3438 661.7344,239.3438 C661.4375,239.3438 661.2344,239.4375 661.0156,239.75 L660.8438,239.6719 Z " fill="#000000"/><text fill="#000000" font-family="sans-serif" font-size="14" lengthAdjust="spacing" textLength="120" x="672.5" y="248.8467">RootDisplayArea</text><line style="stroke:#181818;stroke-width:0.5;" x1="644.5" x2="794.5" y1="260" y2="260"/><line style="stroke:#181818;stroke-width:0.5;" x1="644.5" x2="794.5" y1="268" y2="268"/></g><!--class DisplayContent--><g id="elem_DisplayContent"><rect fill="#F1F1F1" height="48" id="DisplayContent" rx="2.5" ry="2.5" style="stroke:#181818;stroke-width:0.5;" width="144" x="753.5" y="337"/><ellipse cx="768.5" cy="353" fill="#ADD1B2" rx="11" ry="11" style="stroke:#181818;stroke-width:1.0;"/><path d="M770.8438,348.6719 C769.9063,348.2344 769.3125,348.0938 768.4375,348.0938 C765.8125,348.0938 763.8125,350.1719 763.8125,352.8906 L763.8125,354.0156 C763.8125,356.5938 765.9219,358.4844 768.8125,358.4844 C770.0313,358.4844 771.1875,358.1875 771.9375,357.6406 C772.5156,357.2344 772.8438,356.7813 772.8438,356.3906 C772.8438,355.9375 772.4531,355.5469 771.9844,355.5469 C771.7656,355.5469 771.5625,355.625 771.375,355.8125 C770.9219,356.2969 770.9219,356.2969 770.7344,356.3906 C770.3125,356.6563 769.625,356.7813 768.8594,356.7813 C766.8125,356.7813 765.5156,355.6875 765.5156,353.9844 L765.5156,352.8906 C765.5156,351.1094 766.7656,349.7969 768.5,349.7969 C769.0781,349.7969 769.6875,349.9531 770.1563,350.2031 C770.6406,350.4844 770.8125,350.7031 770.9063,351.1094 C770.9688,351.5156 771,351.6406 771.1406,351.7656 C771.2813,351.9063 771.5156,352.0156 771.7344,352.0156 C772,352.0156 772.2656,351.875 772.4375,351.6563 C772.5469,351.5 772.5781,351.3125 772.5781,350.8906 L772.5781,349.4688 C772.5781,349.0313 772.5625,348.9063 772.4688,348.75 C772.3125,348.4844 772.0313,348.3438 771.7344,348.3438 C771.4375,348.3438 771.2344,348.4375 771.0156,348.75 L770.8438,348.6719 Z " fill="#000000"/><text fill="#000000" font-family="sans-serif" font-size="14" lengthAdjust="spacing" textLength="112" x="782.5" y="357.8467">DisplayContent</text><line style="stroke:#181818;stroke-width:0.5;" x1="754.5" x2="896.5" y1="369" y2="369"/><line style="stroke:#181818;stroke-width:0.5;" x1="754.5" x2="896.5" y1="377" y2="377"/></g><!--class WindowContainer1--><g id="elem_WindowContainer1"><rect codeLine="8" fill="#F1F1F1" height="48" id="WindowContainer1" rx="2.5" ry="2.5" style="stroke:#181818;stroke-width:0.5;" width="233" x="507" y="10"/><ellipse cx="522" cy="26" fill="#ADD1B2" rx="11" ry="11" style="stroke:#181818;stroke-width:1.0;"/><path d="M524.3438,21.6719 C523.4063,21.2344 522.8125,21.0938 521.9375,21.0938 C519.3125,21.0938 517.3125,23.1719 517.3125,25.8906 L517.3125,27.0156 C517.3125,29.5938 519.4219,31.4844 522.3125,31.4844 C523.5313,31.4844 524.6875,31.1875 525.4375,30.6406 C526.0156,30.2344 526.3438,29.7813 526.3438,29.3906 C526.3438,28.9375 525.9531,28.5469 525.4844,28.5469 C525.2656,28.5469 525.0625,28.625 524.875,28.8125 C524.4219,29.2969 524.4219,29.2969 524.2344,29.3906 C523.8125,29.6563 523.125,29.7813 522.3594,29.7813 C520.3125,29.7813 519.0156,28.6875 519.0156,26.9844 L519.0156,25.8906 C519.0156,24.1094 520.2656,22.7969 522,22.7969 C522.5781,22.7969 523.1875,22.9531 523.6563,23.2031 C524.1406,23.4844 524.3125,23.7031 524.4063,24.1094 C524.4688,24.5156 524.5,24.6406 524.6406,24.7656 C524.7813,24.9063 525.0156,25.0156 525.2344,25.0156 C525.5,25.0156 525.7656,24.875 525.9375,24.6563 C526.0469,24.5 526.0781,24.3125 526.0781,23.8906 L526.0781,22.4688 C526.0781,22.0313 526.0625,21.9063 525.9688,21.75 C525.8125,21.4844 525.5313,21.3438 525.2344,21.3438 C524.9375,21.3438 524.7344,21.4375 524.5156,21.75 L524.3438,21.6719 Z " fill="#000000"/><text fill="#000000" font-family="sans-serif" font-size="14" lengthAdjust="spacing" textLength="127" x="536" y="30.8467">WindowContainer</text><rect fill="#FFFFFF" height="15.9688" style="stroke:#181818;stroke-width:1.0;stroke-dasharray:2.0,2.0;" width="72" x="671" y="7"/><text fill="#000000" font-family="sans-serif" font-size="12" font-style="italic" lengthAdjust="spacing" textLength="70" x="672" y="19.1387">DisplayArea</text><line style="stroke:#181818;stroke-width:0.5;" x1="508" x2="739" y1="42" y2="42"/><line style="stroke:#181818;stroke-width:0.5;" x1="508" x2="739" y1="50" y2="50"/></g><!--class DisplayArea--><g id="elem_DisplayArea"><rect fill="#F1F1F1" height="48" id="DisplayArea" rx="2.5" ry="2.5" style="stroke:#181818;stroke-width:0.5;" width="117" x="656" y="119"/><ellipse cx="671" cy="135" fill="#ADD1B2" rx="11" ry="11" style="stroke:#181818;stroke-width:1.0;"/><path d="M673.3438,130.6719 C672.4063,130.2344 671.8125,130.0938 670.9375,130.0938 C668.3125,130.0938 666.3125,132.1719 666.3125,134.8906 L666.3125,136.0156 C666.3125,138.5938 668.4219,140.4844 671.3125,140.4844 C672.5313,140.4844 673.6875,140.1875 674.4375,139.6406 C675.0156,139.2344 675.3438,138.7813 675.3438,138.3906 C675.3438,137.9375 674.9531,137.5469 674.4844,137.5469 C674.2656,137.5469 674.0625,137.625 673.875,137.8125 C673.4219,138.2969 673.4219,138.2969 673.2344,138.3906 C672.8125,138.6563 672.125,138.7813 671.3594,138.7813 C669.3125,138.7813 668.0156,137.6875 668.0156,135.9844 L668.0156,134.8906 C668.0156,133.1094 669.2656,131.7969 671,131.7969 C671.5781,131.7969 672.1875,131.9531 672.6563,132.2031 C673.1406,132.4844 673.3125,132.7031 673.4063,133.1094 C673.4688,133.5156 673.5,133.6406 673.6406,133.7656 C673.7813,133.9063 674.0156,134.0156 674.2344,134.0156 C674.5,134.0156 674.7656,133.875 674.9375,133.6563 C675.0469,133.5 675.0781,133.3125 675.0781,132.8906 L675.0781,131.4688 C675.0781,131.0313 675.0625,130.9063 674.9688,130.75 C674.8125,130.4844 674.5313,130.3438 674.2344,130.3438 C673.9375,130.3438 673.7344,130.4375 673.5156,130.75 L673.3438,130.6719 Z " fill="#000000"/><text fill="#000000" font-family="sans-serif" font-size="14" lengthAdjust="spacing" textLength="85" x="685" y="139.8467">DisplayArea</text><line style="stroke:#181818;stroke-width:0.5;" x1="657" x2="772" y1="151" y2="151"/><line style="stroke:#181818;stroke-width:0.5;" x1="657" x2="772" y1="159" y2="159"/></g><!--class WindowContainer2--><g id="elem_WindowContainer2"><rect codeLine="13" fill="#F1F1F1" height="48" id="WindowContainer2" rx="2.5" ry="2.5" style="stroke:#181818;stroke-width:0.5;" width="254" x="808.5" y="119"/><ellipse cx="823.5" cy="135" fill="#ADD1B2" rx="11" ry="11" style="stroke:#181818;stroke-width:1.0;"/><path d="M825.8438,130.6719 C824.9063,130.2344 824.3125,130.0938 823.4375,130.0938 C820.8125,130.0938 818.8125,132.1719 818.8125,134.8906 L818.8125,136.0156 C818.8125,138.5938 820.9219,140.4844 823.8125,140.4844 C825.0313,140.4844 826.1875,140.1875 826.9375,139.6406 C827.5156,139.2344 827.8438,138.7813 827.8438,138.3906 C827.8438,137.9375 827.4531,137.5469 826.9844,137.5469 C826.7656,137.5469 826.5625,137.625 826.375,137.8125 C825.9219,138.2969 825.9219,138.2969 825.7344,138.3906 C825.3125,138.6563 824.625,138.7813 823.8594,138.7813 C821.8125,138.7813 820.5156,137.6875 820.5156,135.9844 L820.5156,134.8906 C820.5156,133.1094 821.7656,131.7969 823.5,131.7969 C824.0781,131.7969 824.6875,131.9531 825.1563,132.2031 C825.6406,132.4844 825.8125,132.7031 825.9063,133.1094 C825.9688,133.5156 826,133.6406 826.1406,133.7656 C826.2813,133.9063 826.5156,134.0156 826.7344,134.0156 C827,134.0156 827.2656,133.875 827.4375,133.6563 C827.5469,133.5 827.5781,133.3125 827.5781,132.8906 L827.5781,131.4688 C827.5781,131.0313 827.5625,130.9063 827.4688,130.75 C827.3125,130.4844 827.0313,130.3438 826.7344,130.3438 C826.4375,130.3438 826.2344,130.4375 826.0156,130.75 L825.8438,130.6719 Z " fill="#000000"/><text fill="#000000" font-family="sans-serif" font-size="14" lengthAdjust="spacing" textLength="127" x="837.5" y="139.8467">WindowContainer</text><rect fill="#FFFFFF" height="15.9688" style="stroke:#181818;stroke-width:1.0;stroke-dasharray:2.0,2.0;" width="93" x="972.5" y="116"/><text fill="#000000" font-family="sans-serif" font-size="12" font-style="italic" lengthAdjust="spacing" textLength="91" x="973.5" y="128.1387">DisplayContent</text><line style="stroke:#181818;stroke-width:0.5;" x1="809.5" x2="1061.5" y1="151" y2="151"/><line style="stroke:#181818;stroke-width:0.5;" x1="809.5" x2="1061.5" y1="159" y2="159"/></g><!--class RootWindowContainer--><g id="elem_RootWindowContainer"><rect fill="#F1F1F1" height="48" id="RootWindowContainer" rx="2.5" ry="2.5" style="stroke:#181818;stroke-width:0.5;" width="194" x="836.5" y="228"/><ellipse cx="851.5" cy="244" fill="#ADD1B2" rx="11" ry="11" style="stroke:#181818;stroke-width:1.0;"/><path d="M853.8438,239.6719 C852.9063,239.2344 852.3125,239.0938 851.4375,239.0938 C848.8125,239.0938 846.8125,241.1719 846.8125,243.8906 L846.8125,245.0156 C846.8125,247.5938 848.9219,249.4844 851.8125,249.4844 C853.0313,249.4844 854.1875,249.1875 854.9375,248.6406 C855.5156,248.2344 855.8438,247.7813 855.8438,247.3906 C855.8438,246.9375 855.4531,246.5469 854.9844,246.5469 C854.7656,246.5469 854.5625,246.625 854.375,246.8125 C853.9219,247.2969 853.9219,247.2969 853.7344,247.3906 C853.3125,247.6563 852.625,247.7813 851.8594,247.7813 C849.8125,247.7813 848.5156,246.6875 848.5156,244.9844 L848.5156,243.8906 C848.5156,242.1094 849.7656,240.7969 851.5,240.7969 C852.0781,240.7969 852.6875,240.9531 853.1563,241.2031 C853.6406,241.4844 853.8125,241.7031 853.9063,242.1094 C853.9688,242.5156 854,242.6406 854.1406,242.7656 C854.2813,242.9063 854.5156,243.0156 854.7344,243.0156 C855,243.0156 855.2656,242.875 855.4375,242.6563 C855.5469,242.5 855.5781,242.3125 855.5781,241.8906 L855.5781,240.4688 C855.5781,240.0313 855.5625,239.9063 855.4688,239.75 C855.3125,239.4844 855.0313,239.3438 854.7344,239.3438 C854.4375,239.3438 854.2344,239.4375 854.0156,239.75 L853.8438,239.6719 Z " fill="#000000"/><text fill="#000000" font-family="sans-serif" font-size="14" lengthAdjust="spacing" textLength="162" x="865.5" y="248.8467">RootWindowContainer</text><line style="stroke:#181818;stroke-width:0.5;" x1="837.5" x2="1029.5" y1="260" y2="260"/><line style="stroke:#181818;stroke-width:0.5;" x1="837.5" x2="1029.5" y1="268" y2="268"/></g><!--class WindowContainer3--><g id="elem_WindowContainer3"><rect codeLine="17" fill="#F1F1F1" height="48" id="WindowContainer3" rx="2.5" ry="2.5" style="stroke:#181818;stroke-width:0.5;" width="243" x="7" y="119"/><ellipse cx="22" cy="135" fill="#ADD1B2" rx="11" ry="11" style="stroke:#181818;stroke-width:1.0;"/><path d="M24.3438,130.6719 C23.4063,130.2344 22.8125,130.0938 21.9375,130.0938 C19.3125,130.0938 17.3125,132.1719 17.3125,134.8906 L17.3125,136.0156 C17.3125,138.5938 19.4219,140.4844 22.3125,140.4844 C23.5313,140.4844 24.6875,140.1875 25.4375,139.6406 C26.0156,139.2344 26.3438,138.7813 26.3438,138.3906 C26.3438,137.9375 25.9531,137.5469 25.4844,137.5469 C25.2656,137.5469 25.0625,137.625 24.875,137.8125 C24.4219,138.2969 24.4219,138.2969 24.2344,138.3906 C23.8125,138.6563 23.125,138.7813 22.3594,138.7813 C20.3125,138.7813 19.0156,137.6875 19.0156,135.9844 L19.0156,134.8906 C19.0156,133.1094 20.2656,131.7969 22,131.7969 C22.5781,131.7969 23.1875,131.9531 23.6563,132.2031 C24.1406,132.4844 24.3125,132.7031 24.4063,133.1094 C24.4688,133.5156 24.5,133.6406 24.6406,133.7656 C24.7813,133.9063 25.0156,134.0156 25.2344,134.0156 C25.5,134.0156 25.7656,133.875 25.9375,133.6563 C26.0469,133.5 26.0781,133.3125 26.0781,132.8906 L26.0781,131.4688 C26.0781,131.0313 26.0625,130.9063 25.9688,130.75 C25.8125,130.4844 25.5313,130.3438 25.2344,130.3438 C24.9375,130.3438 24.7344,130.4375 24.5156,130.75 L24.3438,130.6719 Z " fill="#000000"/><text fill="#000000" font-family="sans-serif" font-size="14" lengthAdjust="spacing" textLength="127" x="36" y="139.8467">WindowContainer</text><rect fill="#FFFFFF" height="15.9688" style="stroke:#181818;stroke-width:1.0;stroke-dasharray:2.0,2.0;" width="82" x="171" y="116"/><text fill="#000000" font-family="sans-serif" font-size="12" font-style="italic" lengthAdjust="spacing" textLength="80" x="172" y="128.1387">WindowState</text><line style="stroke:#181818;stroke-width:0.5;" x1="8" x2="249" y1="151" y2="151"/><line style="stroke:#181818;stroke-width:0.5;" x1="8" x2="249" y1="159" y2="159"/></g><!--class WindowToken--><g id="elem_WindowToken"><rect fill="#F1F1F1" height="48" id="WindowToken" rx="2.5" ry="2.5" style="stroke:#181818;stroke-width:0.5;" width="133" x="62" y="228"/><ellipse cx="77" cy="244" fill="#ADD1B2" rx="11" ry="11" style="stroke:#181818;stroke-width:1.0;"/><path d="M79.3438,239.6719 C78.4063,239.2344 77.8125,239.0938 76.9375,239.0938 C74.3125,239.0938 72.3125,241.1719 72.3125,243.8906 L72.3125,245.0156 C72.3125,247.5938 74.4219,249.4844 77.3125,249.4844 C78.5313,249.4844 79.6875,249.1875 80.4375,248.6406 C81.0156,248.2344 81.3438,247.7813 81.3438,247.3906 C81.3438,246.9375 80.9531,246.5469 80.4844,246.5469 C80.2656,246.5469 80.0625,246.625 79.875,246.8125 C79.4219,247.2969 79.4219,247.2969 79.2344,247.3906 C78.8125,247.6563 78.125,247.7813 77.3594,247.7813 C75.3125,247.7813 74.0156,246.6875 74.0156,244.9844 L74.0156,243.8906 C74.0156,242.1094 75.2656,240.7969 77,240.7969 C77.5781,240.7969 78.1875,240.9531 78.6563,241.2031 C79.1406,241.4844 79.3125,241.7031 79.4063,242.1094 C79.4688,242.5156 79.5,242.6406 79.6406,242.7656 C79.7813,242.9063 80.0156,243.0156 80.2344,243.0156 C80.5,243.0156 80.7656,242.875 80.9375,242.6563 C81.0469,242.5 81.0781,242.3125 81.0781,241.8906 L81.0781,240.4688 C81.0781,240.0313 81.0625,239.9063 80.9688,239.75 C80.8125,239.4844 80.5313,239.3438 80.2344,239.3438 C79.9375,239.3438 79.7344,239.4375 79.5156,239.75 L79.3438,239.6719 Z " fill="#000000"/><text fill="#000000" font-family="sans-serif" font-size="14" lengthAdjust="spacing" textLength="101" x="91" y="248.8467">WindowToken</text><line style="stroke:#181818;stroke-width:0.5;" x1="63" x2="194" y1="260" y2="260"/><line style="stroke:#181818;stroke-width:0.5;" x1="63" x2="194" y1="268" y2="268"/></g><!--class ActivityRecord--><g id="elem_ActivityRecord"><rect fill="#F1F1F1" height="48" id="ActivityRecord" rx="2.5" ry="2.5" style="stroke:#181818;stroke-width:0.5;" width="139" x="59" y="337"/><ellipse cx="74" cy="353" fill="#ADD1B2" rx="11" ry="11" style="stroke:#181818;stroke-width:1.0;"/><path d="M76.3438,348.6719 C75.4063,348.2344 74.8125,348.0938 73.9375,348.0938 C71.3125,348.0938 69.3125,350.1719 69.3125,352.8906 L69.3125,354.0156 C69.3125,356.5938 71.4219,358.4844 74.3125,358.4844 C75.5313,358.4844 76.6875,358.1875 77.4375,357.6406 C78.0156,357.2344 78.3438,356.7813 78.3438,356.3906 C78.3438,355.9375 77.9531,355.5469 77.4844,355.5469 C77.2656,355.5469 77.0625,355.625 76.875,355.8125 C76.4219,356.2969 76.4219,356.2969 76.2344,356.3906 C75.8125,356.6563 75.125,356.7813 74.3594,356.7813 C72.3125,356.7813 71.0156,355.6875 71.0156,353.9844 L71.0156,352.8906 C71.0156,351.1094 72.2656,349.7969 74,349.7969 C74.5781,349.7969 75.1875,349.9531 75.6563,350.2031 C76.1406,350.4844 76.3125,350.7031 76.4063,351.1094 C76.4688,351.5156 76.5,351.6406 76.6406,351.7656 C76.7813,351.9063 77.0156,352.0156 77.2344,352.0156 C77.5,352.0156 77.7656,351.875 77.9375,351.6563 C78.0469,351.5 78.0781,351.3125 78.0781,350.8906 L78.0781,349.4688 C78.0781,349.0313 78.0625,348.9063 77.9688,348.75 C77.8125,348.4844 77.5313,348.3438 77.2344,348.3438 C76.9375,348.3438 76.7344,348.4375 76.5156,348.75 L76.3438,348.6719 Z " fill="#000000"/><text fill="#000000" font-family="sans-serif" font-size="14" lengthAdjust="spacing" textLength="107" x="88" y="357.8467">ActivityRecord</text><line style="stroke:#181818;stroke-width:0.5;" x1="60" x2="197" y1="369" y2="369"/><line style="stroke:#181818;stroke-width:0.5;" x1="60" x2="197" y1="377" y2="377"/></g><!--reverse link WindowContainer to TaskFragment--><g id="link_WindowContainer_TaskFragment"><path codeLine="4" d="M486.5,185.217 C486.5,203.165 486.5,209.892 486.5,227.828 " fill="none" id="WindowContainer-backto-TaskFragment" style="stroke:#181818;stroke-width:1.0;"/><polygon fill="none" points="486.5,167.217,480.5,185.217,492.5,185.217,486.5,167.217" style="stroke:#181818;stroke-width:1.0;"/></g><!--reverse link TaskFragment to Task--><g id="link_TaskFragment_Task"><path codeLine="5" d="M486.5,294.217 C486.5,312.1649 486.5,318.8918 486.5,336.8279 " fill="none" id="TaskFragment-backto-Task" style="stroke:#181818;stroke-width:1.0;"/><polygon fill="none" points="486.5,276.217,480.5,294.217,492.5,294.217,486.5,276.217" style="stroke:#181818;stroke-width:1.0;"/></g><!--reverse link RootDisplayArea to DisplayContent--><g id="link_RootDisplayArea_DisplayContent"><path codeLine="7" d="M755.168,289.0046 C772.948,306.9525 784.776,318.8918 802.544,336.8279 " fill="none" id="RootDisplayArea-backto-DisplayContent" style="stroke:#181818;stroke-width:1.0;"/><polygon fill="none" points="742.5,276.217,750.9054,293.2273,759.4305,284.7819,742.5,276.217" style="stroke:#181818;stroke-width:1.0;"/></g><!--reverse link WindowContainer1 to DisplayArea--><g id="link_WindowContainer1_DisplayArea"><path codeLine="9" d="M654.9069,71.9292 C670.1699,89.8772 679.539,100.892 694.793,118.828 " fill="none" id="WindowContainer1-backto-DisplayArea" style="stroke:#181818;stroke-width:1.0;"/><polygon fill="none" points="643.246,58.217,650.3361,75.8161,659.4776,68.0422,643.246,58.217" style="stroke:#181818;stroke-width:1.0;"/></g><!--reverse link DisplayArea to RootDisplayArea--><g id="link_DisplayArea_RootDisplayArea"><path codeLine="10" d="M716.4255,185.1974 C717.2645,203.1454 717.579,209.892 718.417,227.828 " fill="none" id="DisplayArea-backto-RootDisplayArea" style="stroke:#181818;stroke-width:1.0;"/><polygon fill="none" points="715.585,167.217,710.4321,185.4775,722.419,184.9172,715.585,167.217" style="stroke:#181818;stroke-width:1.0;"/></g><!--reverse link WindowContainer1 to WindowContainer--><g id="link_WindowContainer1_WindowContainer"><path codeLine="11" d="M584.3158,65.6036 C561.3368,83.5516 539.134,100.892 516.169,118.828 " fill="none" id="WindowContainer1-backto-WindowContainer" style="stroke:#181818;stroke-width:1.0;"/><polygon fill="#181818" points="593.773,58.217,586.5822,58.7579,584.3158,65.6036,591.5066,65.0627,593.773,58.217" style="stroke:#181818;stroke-width:1.0;"/><text fill="#000000" font-family="sans-serif" font-size="13" lengthAdjust="spacing" textLength="8" x="577.552" y="78.0311">1</text><text fill="#000000" font-family="sans-serif" font-size="13" lengthAdjust="spacing" textLength="8" x="514.7467" y="107.796">n</text></g><!--reverse link WindowContainer2 to RootWindowContainer--><g id="link_WindowContainer2_RootWindowContainer"><path codeLine="14" d="M934.7301,185.2139 C934.3951,203.1619 934.268,209.892 933.933,227.828 " fill="none" id="WindowContainer2-backto-RootWindowContainer" style="stroke:#181818;stroke-width:1.0;"/><polygon fill="none" points="935.066,167.217,928.7311,185.1019,940.729,185.3258,935.066,167.217" style="stroke:#181818;stroke-width:1.0;"/></g><!--reverse link RootWindowContainer to DisplayContent--><g id="link_RootWindowContainer_DisplayContent"><path codeLine="15" d="M901.5413,284.6626 C883.4253,302.6105 866.992,318.8918 848.889,336.8279 " fill="none" id="RootWindowContainer-backto-DisplayContent" style="stroke:#181818;stroke-width:1.0;"/><polygon fill="#181818" points="910.066,276.217,902.9884,277.5982,901.5413,284.6626,908.6188,283.2814,910.066,276.217" style="stroke:#181818;stroke-width:1.0;"/><text fill="#000000" font-family="sans-serif" font-size="13" lengthAdjust="spacing" textLength="8" x="895.379" y="296.0311">1</text><text fill="#000000" font-family="sans-serif" font-size="13" lengthAdjust="spacing" textLength="8" x="845.8574" y="325.7958">n</text></g><!--reverse link WindowContainer3 to WindowToken--><g id="link_WindowContainer3_WindowToken"><path codeLine="18" d="M128.5,185.217 C128.5,203.165 128.5,209.892 128.5,227.828 " fill="none" id="WindowContainer3-backto-WindowToken" style="stroke:#181818;stroke-width:1.0;"/><polygon fill="none" points="128.5,167.217,122.5,185.217,134.5,185.217,128.5,167.217" style="stroke:#181818;stroke-width:1.0;"/></g><!--reverse link WindowToken to ActivityRecord--><g id="link_WindowToken_ActivityRecord"><path codeLine="19" d="M128.5,294.217 C128.5,312.1649 128.5,318.8918 128.5,336.8279 " fill="none" id="WindowToken-backto-ActivityRecord" style="stroke:#181818;stroke-width:1.0;"/><polygon fill="none" points="128.5,276.217,122.5,294.217,134.5,294.217,128.5,276.217" style="stroke:#181818;stroke-width:1.0;"/></g><!--link WindowContainer3 to WindowContainer--><g id="link_WindowContainer3_WindowContainer"><path codeLine="21" d="M250.202,143 C282.939,143 306.534,143 339.927,143 " fill="none" id="WindowContainer3-to-WindowContainer" style="stroke:#181818;stroke-width:1.0;"/><polygon fill="#181818" points="351.927,143,345.927,139,339.927,143,345.927,147,351.927,143" style="stroke:#181818;stroke-width:1.0;"/><text fill="#000000" font-family="sans-serif" font-size="13" lengthAdjust="spacing" textLength="65" x="268.5" y="136.0669">mChildren</text><text fill="#000000" font-family="sans-serif" font-size="13" lengthAdjust="spacing" textLength="8" x="257.862" y="139.6139">n</text><text fill="#000000" font-family="sans-serif" font-size="13" lengthAdjust="spacing" textLength="8" x="335.9157" y="139.6371">1</text></g><!--SRC=[XPB12i8m38RlVOhGYo3iC7SJ4KJn0LJm7BUgnQsLDYg23-z6HMTQyRO_pPzyVzW0SEV9OKamjsQl3nU7fArf1Q4soasssbJszjPJKTReFR1ot3RuCH0cZopZTi5qQDgWFoqT7XfbIFJ5vxbTmwt331RQdskyTxNEkhAMNgMPKnZSh2UaaZnMppQLW57kd9FdNzCxduXMCvvuXCnb6oC3QMHqgJ-ahpn9s17VDFhmy3M9sXSMEzylgg3NXAIII0L7Alh_nyQUb16zx_0uAqbVDTrNghIk4YBDMQiz9KzOm1YQ-L7NbLFc2G00]--></g></svg>