<?xml version="1.0" encoding="us-ascii" standalone="no"?><svg xmlns="http://www.w3.org/2000/svg" xmlns:xlink="http://www.w3.org/1999/xlink" contentStyleType="text/css" height="394px" preserveAspectRatio="none" style="width:910px;height:394px;background:#FFFFFF;" version="1.1" viewBox="0 0 910 394" width="910px" zoomAndPan="magnify"><defs/><g><!--class BaseCanvas--><g id="elem_BaseCanvas"><rect fill="#F1F1F1" height="48" id="BaseCanvas" rx="2.5" ry="2.5" style="stroke:#181818;stroke-width:0.5;" width="116" x="7" y="7"/><ellipse cx="22" cy="23" fill="#ADD1B2" rx="11" ry="11" style="stroke:#181818;stroke-width:1.0;"/><path d="M24.3438,18.6719 C23.4063,18.2344 22.8125,18.0938 21.9375,18.0938 C19.3125,18.0938 17.3125,20.1719 17.3125,22.8906 L17.3125,24.0156 C17.3125,26.5938 19.4219,28.4844 22.3125,28.4844 C23.5313,28.4844 24.6875,28.1875 25.4375,27.6406 C26.0156,27.2344 26.3438,26.7813 26.3438,26.3906 C26.3438,25.9375 25.9531,25.5469 25.4844,25.5469 C25.2656,25.5469 25.0625,25.625 24.875,25.8125 C24.4219,26.2969 24.4219,26.2969 24.2344,26.3906 C23.8125,26.6563 23.125,26.7813 22.3594,26.7813 C20.3125,26.7813 19.0156,25.6875 19.0156,23.9844 L19.0156,22.8906 C19.0156,21.1094 20.2656,19.7969 22,19.7969 C22.5781,19.7969 23.1875,19.9531 23.6563,20.2031 C24.1406,20.4844 24.3125,20.7031 24.4063,21.1094 C24.4688,21.5156 24.5,21.6406 24.6406,21.7656 C24.7813,21.9063 25.0156,22.0156 25.2344,22.0156 C25.5,22.0156 25.7656,21.875 25.9375,21.6563 C26.0469,21.5 26.0781,21.3125 26.0781,20.8906 L26.0781,19.4688 C26.0781,19.0313 26.0625,18.9063 25.9688,18.75 C25.8125,18.4844 25.5313,18.3438 25.2344,18.3438 C24.9375,18.3438 24.7344,18.4375 24.5156,18.75 L24.3438,18.6719 Z " fill="#000000"/><text fill="#000000" font-family="sans-serif" font-size="14" lengthAdjust="spacing" textLength="84" x="36" y="27.8467">BaseCanvas</text><line style="stroke:#181818;stroke-width:0.5;" x1="8" x2="122" y1="39" y2="39"/><line style="stroke:#181818;stroke-width:0.5;" x1="8" x2="122" y1="47" y2="47"/></g><!--class Canvas--><g id="elem_Canvas"><rect fill="#F1F1F1" height="48" id="Canvas" rx="2.5" ry="2.5" style="stroke:#181818;stroke-width:0.5;" width="82" x="24" y="115"/><ellipse cx="39" cy="131" fill="#ADD1B2" rx="11" ry="11" style="stroke:#181818;stroke-width:1.0;"/><path d="M41.3438,126.6719 C40.4063,126.2344 39.8125,126.0938 38.9375,126.0938 C36.3125,126.0938 34.3125,128.1719 34.3125,130.8906 L34.3125,132.0156 C34.3125,134.5938 36.4219,136.4844 39.3125,136.4844 C40.5313,136.4844 41.6875,136.1875 42.4375,135.6406 C43.0156,135.2344 43.3438,134.7813 43.3438,134.3906 C43.3438,133.9375 42.9531,133.5469 42.4844,133.5469 C42.2656,133.5469 42.0625,133.625 41.875,133.8125 C41.4219,134.2969 41.4219,134.2969 41.2344,134.3906 C40.8125,134.6563 40.125,134.7813 39.3594,134.7813 C37.3125,134.7813 36.0156,133.6875 36.0156,131.9844 L36.0156,130.8906 C36.0156,129.1094 37.2656,127.7969 39,127.7969 C39.5781,127.7969 40.1875,127.9531 40.6563,128.2031 C41.1406,128.4844 41.3125,128.7031 41.4063,129.1094 C41.4688,129.5156 41.5,129.6406 41.6406,129.7656 C41.7813,129.9063 42.0156,130.0156 42.2344,130.0156 C42.5,130.0156 42.7656,129.875 42.9375,129.6563 C43.0469,129.5 43.0781,129.3125 43.0781,128.8906 L43.0781,127.4688 C43.0781,127.0313 43.0625,126.9063 42.9688,126.75 C42.8125,126.4844 42.5313,126.3438 42.2344,126.3438 C41.9375,126.3438 41.7344,126.4375 41.5156,126.75 L41.3438,126.6719 Z " fill="#000000"/><text fill="#000000" font-family="sans-serif" font-size="14" lengthAdjust="spacing" textLength="50" x="53" y="135.8467">Canvas</text><line style="stroke:#181818;stroke-width:0.5;" x1="25" x2="105" y1="147" y2="147"/><line style="stroke:#181818;stroke-width:0.5;" x1="25" x2="105" y1="155" y2="155"/></g><!--class WindowManager--><g id="elem_WindowManager"><rect codeLine="2" fill="#F1F1F1" height="48" id="WindowManager" rx="2.5" ry="2.5" style="stroke:#181818;stroke-width:0.5;" width="151" x="141.5" y="115"/><ellipse cx="156.5" cy="131" fill="#B4A7E5" rx="11" ry="11" style="stroke:#181818;stroke-width:1.0;"/><path d="M157.4531,127.7813 L159.1719,127.7813 C159.5625,127.7813 159.75,127.75 159.875,127.6719 C160.1406,127.5156 160.2813,127.2344 160.2813,126.9375 C160.2813,126.6719 160.1719,126.4063 159.9375,126.2344 C159.7656,126.125 159.625,126.0938 159.1719,126.0938 L154.0313,126.0938 C153.5938,126.0938 153.4688,126.1094 153.3125,126.2031 C153.0625,126.3594 152.9063,126.6563 152.9063,126.9375 C152.9063,127.2188 153.0469,127.4688 153.2656,127.6406 C153.4219,127.75 153.6094,127.7813 154.0313,127.7813 L155.75,127.7813 L155.75,134.2969 L154.0313,134.2969 C153.5938,134.2969 153.4688,134.3125 153.3125,134.4219 C153.0625,134.5781 152.9063,134.8594 152.9063,135.1563 C152.9063,135.4063 153.0469,135.6719 153.2656,135.8281 C153.4219,135.9531 153.625,136 154.0313,136 L159.1719,136 C159.9219,136 160.2813,135.7188 160.2813,135.1563 C160.2813,134.875 160.1719,134.625 159.9375,134.4531 C159.7656,134.3281 159.625,134.2969 159.1719,134.2969 L157.4531,134.2969 L157.4531,127.7813 Z " fill="#000000"/><text fill="#000000" font-family="sans-serif" font-size="14" font-style="italic" lengthAdjust="spacing" textLength="119" x="170.5" y="135.8467">WindowManager</text><line style="stroke:#181818;stroke-width:0.5;" x1="142.5" x2="291.5" y1="147" y2="147"/><line style="stroke:#181818;stroke-width:0.5;" x1="142.5" x2="291.5" y1="155" y2="155"/></g><!--class Window--><g id="elem_Window"><rect codeLine="3" fill="#F1F1F1" height="48" id="Window" rx="2.5" ry="2.5" style="stroke:#181818;stroke-width:0.5;" width="88" x="261" y="7"/><ellipse cx="276" cy="23" fill="#A9DCDF" rx="11" ry="11" style="stroke:#181818;stroke-width:1.0;"/><path d="M278.0781,24.8125 L278.4688,25.7969 L278.0781,25.7969 C277.625,25.7969 277.5156,25.8125 277.3594,25.9219 C277.1094,26.0781 276.9531,26.3594 276.9531,26.6563 C276.9531,26.9219 277.0938,27.1719 277.3125,27.3281 C277.4531,27.4531 277.6563,27.5 278.0781,27.5 L280.4375,27.5 C280.7969,27.5 281.0156,27.4688 281.1563,27.375 C281.4063,27.2344 281.5625,26.9375 281.5625,26.6563 C281.5625,26.375 281.4219,26.125 281.2031,25.9688 C281.0313,25.8281 280.875,25.7969 280.4063,25.7969 L277.0156,17.5938 L273.3438,17.5938 C272.8906,17.5938 272.7656,17.6094 272.6094,17.7031 C272.3594,17.875 272.2031,18.1563 272.2031,18.4375 C272.2031,18.7188 272.3438,18.9688 272.5625,19.1406 C272.7344,19.25 272.9063,19.2813 273.3438,19.2813 L274.4219,19.2813 L271.7813,25.7969 C271.3594,25.7969 271.2031,25.8125 271.0469,25.9219 C270.7969,26.0781 270.6406,26.3594 270.6406,26.6563 C270.6406,27.2188 271.0156,27.5 271.7656,27.5 L274.0313,27.5 C274.3906,27.5 274.6094,27.4688 274.7344,27.375 C275,27.2344 275.1406,26.9375 275.1406,26.6563 C275.1406,26.375 275.0156,26.125 274.7969,25.9531 C274.625,25.8281 274.4844,25.7969 274.0313,25.7969 L273.6406,25.7969 L274.0313,24.8125 L278.0781,24.8125 Z M277.375,23.1094 L274.7031,23.1094 L276.0469,19.8438 L277.375,23.1094 Z " fill="#000000"/><text fill="#000000" font-family="sans-serif" font-size="14" font-style="italic" lengthAdjust="spacing" textLength="56" x="290" y="27.8467">Window</text><line style="stroke:#181818;stroke-width:0.5;" x1="262" x2="348" y1="39" y2="39"/><line style="stroke:#181818;stroke-width:0.5;" x1="262" x2="348" y1="47" y2="47"/></g><!--class PhoneWindow--><g id="elem_PhoneWindow"><rect fill="#F1F1F1" height="48" id="PhoneWindow" rx="2.5" ry="2.5" style="stroke:#181818;stroke-width:0.5;" width="133" x="327.5" y="115"/><ellipse cx="342.5" cy="131" fill="#ADD1B2" rx="11" ry="11" style="stroke:#181818;stroke-width:1.0;"/><path d="M344.8438,126.6719 C343.9063,126.2344 343.3125,126.0938 342.4375,126.0938 C339.8125,126.0938 337.8125,128.1719 337.8125,130.8906 L337.8125,132.0156 C337.8125,134.5938 339.9219,136.4844 342.8125,136.4844 C344.0313,136.4844 345.1875,136.1875 345.9375,135.6406 C346.5156,135.2344 346.8438,134.7813 346.8438,134.3906 C346.8438,133.9375 346.4531,133.5469 345.9844,133.5469 C345.7656,133.5469 345.5625,133.625 345.375,133.8125 C344.9219,134.2969 344.9219,134.2969 344.7344,134.3906 C344.3125,134.6563 343.625,134.7813 342.8594,134.7813 C340.8125,134.7813 339.5156,133.6875 339.5156,131.9844 L339.5156,130.8906 C339.5156,129.1094 340.7656,127.7969 342.5,127.7969 C343.0781,127.7969 343.6875,127.9531 344.1563,128.2031 C344.6406,128.4844 344.8125,128.7031 344.9063,129.1094 C344.9688,129.5156 345,129.6406 345.1406,129.7656 C345.2813,129.9063 345.5156,130.0156 345.7344,130.0156 C346,130.0156 346.2656,129.875 346.4375,129.6563 C346.5469,129.5 346.5781,129.3125 346.5781,128.8906 L346.5781,127.4688 C346.5781,127.0313 346.5625,126.9063 346.4688,126.75 C346.3125,126.4844 346.0313,126.3438 345.7344,126.3438 C345.4375,126.3438 345.2344,126.4375 345.0156,126.75 L344.8438,126.6719 Z " fill="#000000"/><text fill="#000000" font-family="sans-serif" font-size="14" lengthAdjust="spacing" textLength="101" x="356.5" y="135.8467">PhoneWindow</text><line style="stroke:#181818;stroke-width:0.5;" x1="328.5" x2="459.5" y1="147" y2="147"/><line style="stroke:#181818;stroke-width:0.5;" x1="328.5" x2="459.5" y1="155" y2="155"/></g><!--class WindowManagerImpl--><g id="elem_WindowManagerImpl"><rect fill="#F1F1F1" height="48" id="WindowManagerImpl" rx="2.5" ry="2.5" style="stroke:#181818;stroke-width:0.5;" width="181" x="126.5" y="223"/><ellipse cx="141.5" cy="239" fill="#ADD1B2" rx="11" ry="11" style="stroke:#181818;stroke-width:1.0;"/><path d="M143.8438,234.6719 C142.9063,234.2344 142.3125,234.0938 141.4375,234.0938 C138.8125,234.0938 136.8125,236.1719 136.8125,238.8906 L136.8125,240.0156 C136.8125,242.5938 138.9219,244.4844 141.8125,244.4844 C143.0313,244.4844 144.1875,244.1875 144.9375,243.6406 C145.5156,243.2344 145.8438,242.7813 145.8438,242.3906 C145.8438,241.9375 145.4531,241.5469 144.9844,241.5469 C144.7656,241.5469 144.5625,241.625 144.375,241.8125 C143.9219,242.2969 143.9219,242.2969 143.7344,242.3906 C143.3125,242.6563 142.625,242.7813 141.8594,242.7813 C139.8125,242.7813 138.5156,241.6875 138.5156,239.9844 L138.5156,238.8906 C138.5156,237.1094 139.7656,235.7969 141.5,235.7969 C142.0781,235.7969 142.6875,235.9531 143.1563,236.2031 C143.6406,236.4844 143.8125,236.7031 143.9063,237.1094 C143.9688,237.5156 144,237.6406 144.1406,237.7656 C144.2813,237.9063 144.5156,238.0156 144.7344,238.0156 C145,238.0156 145.2656,237.875 145.4375,237.6563 C145.5469,237.5 145.5781,237.3125 145.5781,236.8906 L145.5781,235.4688 C145.5781,235.0313 145.5625,234.9063 145.4688,234.75 C145.3125,234.4844 145.0313,234.3438 144.7344,234.3438 C144.4375,234.3438 144.2344,234.4375 144.0156,234.75 L143.8438,234.6719 Z " fill="#000000"/><text fill="#000000" font-family="sans-serif" font-size="14" lengthAdjust="spacing" textLength="149" x="155.5" y="243.8467">WindowManagerImpl</text><line style="stroke:#181818;stroke-width:0.5;" x1="127.5" x2="306.5" y1="255" y2="255"/><line style="stroke:#181818;stroke-width:0.5;" x1="127.5" x2="306.5" y1="263" y2="263"/></g><!--class WindowManagerGlobal--><g id="elem_WindowManagerGlobal"><rect codeLine="7" fill="#F1F1F1" height="56.2656" id="WindowManagerGlobal" rx="2.5" ry="2.5" style="stroke:#181818;stroke-width:0.5;" width="195" x="119.5" y="331"/><ellipse cx="134.5" cy="351.1328" fill="#FF7700" rx="11" ry="11" style="stroke:#181818;stroke-width:1.0;"/><path d="M138.2813,347.1016 C138.2813,346.6641 138.2656,346.5234 138.1719,346.3672 C138.0313,346.1328 137.75,345.9766 137.4531,345.9766 C137.1094,345.9766 136.9688,346.1172 136.7969,346.5391 C136.2031,346.1641 135.4531,345.9766 134.5781,345.9766 C132.4688,345.9766 130.8906,347.2734 130.8906,348.9922 C130.8906,349.9609 131.4219,350.8672 132.2813,351.3516 C132.8281,351.6641 133.375,351.8359 134.4844,352.0234 C135.6406,352.2266 135.9063,352.2891 136.2656,352.4766 C136.6406,352.6797 136.875,353.0234 136.875,353.3828 C136.875,354.1172 135.8906,354.6641 134.6406,354.6641 C133.5156,354.6641 132.4375,354.1797 132.2656,353.5703 C132.1406,353.1016 132.1406,353.1016 132.0156,352.9922 C131.8594,352.8359 131.6406,352.7422 131.4063,352.7422 C131.125,352.7422 130.875,352.8672 130.7031,353.0859 C130.5938,353.2578 130.5469,353.4453 130.5469,353.8672 L130.5469,354.9922 C130.5469,355.7578 130.8281,356.1172 131.4219,356.1172 C131.6875,356.1172 131.8125,356.0547 132.0938,355.7109 C132.9375,356.1484 133.8281,356.3672 134.75,356.3672 C137.0781,356.3672 138.6406,355.1797 138.6406,353.4141 C138.6406,352.5234 138.3281,351.8359 137.6406,351.2891 C137.1094,350.8672 136.4688,350.6172 134.9844,350.3516 C133.7188,350.1172 133.625,350.0859 133.2969,349.9141 C132.9219,349.7266 132.6563,349.3359 132.6563,348.9766 C132.6563,348.2422 133.5156,347.6797 134.5781,347.6797 C135.6406,347.6797 136.4531,348.1484 136.6094,348.8203 C136.7188,349.3672 136.7188,349.3672 136.8438,349.5078 C136.9844,349.6328 137.2188,349.7422 137.4531,349.7422 C137.7188,349.7422 137.9688,349.6016 138.1406,349.3828 C138.25,349.2109 138.2813,349.0703 138.2813,348.6016 L138.2813,347.1016 Z " fill="#000000"/><text fill="#000000" font-family="sans-serif" font-size="12" font-style="italic" lengthAdjust="spacing" textLength="71" x="194.5" y="347.1387">&#171;Singleton&#187;</text><text fill="#000000" font-family="sans-serif" font-size="14" lengthAdjust="spacing" textLength="163" x="148.5" y="362.9639">WindowManagerGlobal</text><line style="stroke:#181818;stroke-width:0.5;" x1="120.5" x2="313.5" y1="371.2656" y2="371.2656"/><line style="stroke:#181818;stroke-width:0.5;" x1="120.5" x2="313.5" y1="379.2656" y2="379.2656"/></g><!--class ViewParent--><g id="elem_ViewParent"><rect codeLine="9" fill="#F1F1F1" height="48" id="ViewParent" rx="2.5" ry="2.5" style="stroke:#181818;stroke-width:0.5;" width="112" x="523" y="7"/><ellipse cx="538" cy="23" fill="#B4A7E5" rx="11" ry="11" style="stroke:#181818;stroke-width:1.0;"/><path d="M538.9531,19.7813 L540.6719,19.7813 C541.0625,19.7813 541.25,19.75 541.375,19.6719 C541.6406,19.5156 541.7813,19.2344 541.7813,18.9375 C541.7813,18.6719 541.6719,18.4063 541.4375,18.2344 C541.2656,18.125 541.125,18.0938 540.6719,18.0938 L535.5313,18.0938 C535.0938,18.0938 534.9688,18.1094 534.8125,18.2031 C534.5625,18.3594 534.4063,18.6563 534.4063,18.9375 C534.4063,19.2188 534.5469,19.4688 534.7656,19.6406 C534.9219,19.75 535.1094,19.7813 535.5313,19.7813 L537.25,19.7813 L537.25,26.2969 L535.5313,26.2969 C535.0938,26.2969 534.9688,26.3125 534.8125,26.4219 C534.5625,26.5781 534.4063,26.8594 534.4063,27.1563 C534.4063,27.4063 534.5469,27.6719 534.7656,27.8281 C534.9219,27.9531 535.125,28 535.5313,28 L540.6719,28 C541.4219,28 541.7813,27.7188 541.7813,27.1563 C541.7813,26.875 541.6719,26.625 541.4375,26.4531 C541.2656,26.3281 541.125,26.2969 540.6719,26.2969 L538.9531,26.2969 L538.9531,19.7813 Z " fill="#000000"/><text fill="#000000" font-family="sans-serif" font-size="14" font-style="italic" lengthAdjust="spacing" textLength="80" x="552" y="27.8467">ViewParent</text><line style="stroke:#181818;stroke-width:0.5;" x1="524" x2="634" y1="39" y2="39"/><line style="stroke:#181818;stroke-width:0.5;" x1="524" x2="634" y1="47" y2="47"/></g><!--class ViewRootImpl--><g id="elem_ViewRootImpl"><rect fill="#F1F1F1" height="48" id="ViewRootImpl" rx="2.5" ry="2.5" style="stroke:#181818;stroke-width:0.5;" width="133" x="512.5" y="115"/><ellipse cx="527.5" cy="131" fill="#ADD1B2" rx="11" ry="11" style="stroke:#181818;stroke-width:1.0;"/><path d="M529.8438,126.6719 C528.9063,126.2344 528.3125,126.0938 527.4375,126.0938 C524.8125,126.0938 522.8125,128.1719 522.8125,130.8906 L522.8125,132.0156 C522.8125,134.5938 524.9219,136.4844 527.8125,136.4844 C529.0313,136.4844 530.1875,136.1875 530.9375,135.6406 C531.5156,135.2344 531.8438,134.7813 531.8438,134.3906 C531.8438,133.9375 531.4531,133.5469 530.9844,133.5469 C530.7656,133.5469 530.5625,133.625 530.375,133.8125 C529.9219,134.2969 529.9219,134.2969 529.7344,134.3906 C529.3125,134.6563 528.625,134.7813 527.8594,134.7813 C525.8125,134.7813 524.5156,133.6875 524.5156,131.9844 L524.5156,130.8906 C524.5156,129.1094 525.7656,127.7969 527.5,127.7969 C528.0781,127.7969 528.6875,127.9531 529.1563,128.2031 C529.6406,128.4844 529.8125,128.7031 529.9063,129.1094 C529.9688,129.5156 530,129.6406 530.1406,129.7656 C530.2813,129.9063 530.5156,130.0156 530.7344,130.0156 C531,130.0156 531.2656,129.875 531.4375,129.6563 C531.5469,129.5 531.5781,129.3125 531.5781,128.8906 L531.5781,127.4688 C531.5781,127.0313 531.5625,126.9063 531.4688,126.75 C531.3125,126.4844 531.0313,126.3438 530.7344,126.3438 C530.4375,126.3438 530.2344,126.4375 530.0156,126.75 L529.8438,126.6719 Z " fill="#000000"/><text fill="#000000" font-family="sans-serif" font-size="14" lengthAdjust="spacing" textLength="101" x="541.5" y="135.8467">ViewRootImpl</text><line style="stroke:#181818;stroke-width:0.5;" x1="513.5" x2="644.5" y1="147" y2="147"/><line style="stroke:#181818;stroke-width:0.5;" x1="513.5" x2="644.5" y1="155" y2="155"/></g><!--class IWindowSession--><g id="elem_IWindowSession"><rect codeLine="11" fill="#F1F1F1" height="48" id="IWindowSession" rx="2.5" ry="2.5" style="stroke:#181818;stroke-width:0.5;" width="146" x="343" y="223"/><ellipse cx="358" cy="239" fill="#B4A7E5" rx="11" ry="11" style="stroke:#181818;stroke-width:1.0;"/><path d="M358.9531,235.7813 L360.6719,235.7813 C361.0625,235.7813 361.25,235.75 361.375,235.6719 C361.6406,235.5156 361.7813,235.2344 361.7813,234.9375 C361.7813,234.6719 361.6719,234.4063 361.4375,234.2344 C361.2656,234.125 361.125,234.0938 360.6719,234.0938 L355.5313,234.0938 C355.0938,234.0938 354.9688,234.1094 354.8125,234.2031 C354.5625,234.3594 354.4063,234.6563 354.4063,234.9375 C354.4063,235.2188 354.5469,235.4688 354.7656,235.6406 C354.9219,235.75 355.1094,235.7813 355.5313,235.7813 L357.25,235.7813 L357.25,242.2969 L355.5313,242.2969 C355.0938,242.2969 354.9688,242.3125 354.8125,242.4219 C354.5625,242.5781 354.4063,242.8594 354.4063,243.1563 C354.4063,243.4063 354.5469,243.6719 354.7656,243.8281 C354.9219,243.9531 355.125,244 355.5313,244 L360.6719,244 C361.4219,244 361.7813,243.7188 361.7813,243.1563 C361.7813,242.875 361.6719,242.625 361.4375,242.4531 C361.2656,242.3281 361.125,242.2969 360.6719,242.2969 L358.9531,242.2969 L358.9531,235.7813 Z " fill="#000000"/><text fill="#000000" font-family="sans-serif" font-size="14" font-style="italic" lengthAdjust="spacing" textLength="114" x="372" y="243.8467">IWindowSession</text><line style="stroke:#181818;stroke-width:0.5;" x1="344" x2="488" y1="255" y2="255"/><line style="stroke:#181818;stroke-width:0.5;" x1="344" x2="488" y1="263" y2="263"/></g><!--class Choreographer--><g id="elem_Choreographer"><rect fill="#F1F1F1" height="48" id="Choreographer" rx="2.5" ry="2.5" style="stroke:#181818;stroke-width:0.5;" width="141" x="524.5" y="223"/><ellipse cx="539.5" cy="239" fill="#ADD1B2" rx="11" ry="11" style="stroke:#181818;stroke-width:1.0;"/><path d="M541.8438,234.6719 C540.9063,234.2344 540.3125,234.0938 539.4375,234.0938 C536.8125,234.0938 534.8125,236.1719 534.8125,238.8906 L534.8125,240.0156 C534.8125,242.5938 536.9219,244.4844 539.8125,244.4844 C541.0313,244.4844 542.1875,244.1875 542.9375,243.6406 C543.5156,243.2344 543.8438,242.7813 543.8438,242.3906 C543.8438,241.9375 543.4531,241.5469 542.9844,241.5469 C542.7656,241.5469 542.5625,241.625 542.375,241.8125 C541.9219,242.2969 541.9219,242.2969 541.7344,242.3906 C541.3125,242.6563 540.625,242.7813 539.8594,242.7813 C537.8125,242.7813 536.5156,241.6875 536.5156,239.9844 L536.5156,238.8906 C536.5156,237.1094 537.7656,235.7969 539.5,235.7969 C540.0781,235.7969 540.6875,235.9531 541.1563,236.2031 C541.6406,236.4844 541.8125,236.7031 541.9063,237.1094 C541.9688,237.5156 542,237.6406 542.1406,237.7656 C542.2813,237.9063 542.5156,238.0156 542.7344,238.0156 C543,238.0156 543.2656,237.875 543.4375,237.6563 C543.5469,237.5 543.5781,237.3125 543.5781,236.8906 L543.5781,235.4688 C543.5781,235.0313 543.5625,234.9063 543.4688,234.75 C543.3125,234.4844 543.0313,234.3438 542.7344,234.3438 C542.4375,234.3438 542.2344,234.4375 542.0156,234.75 L541.8438,234.6719 Z " fill="#000000"/><text fill="#000000" font-family="sans-serif" font-size="14" lengthAdjust="spacing" textLength="109" x="553.5" y="243.8467">Choreographer</text><line style="stroke:#181818;stroke-width:0.5;" x1="525.5" x2="664.5" y1="255" y2="255"/><line style="stroke:#181818;stroke-width:0.5;" x1="525.5" x2="664.5" y1="263" y2="263"/></g><!--class stub--><g id="elem_stub"><rect codeLine="15" fill="#F1F1F1" height="48" id="stub" rx="2.5" ry="2.5" style="stroke:#181818;stroke-width:0.5;" width="185" x="709.5" y="7"/><ellipse cx="724.5" cy="23" fill="#ADD1B2" rx="11" ry="11" style="stroke:#181818;stroke-width:1.0;"/><path d="M726.8438,18.6719 C725.9063,18.2344 725.3125,18.0938 724.4375,18.0938 C721.8125,18.0938 719.8125,20.1719 719.8125,22.8906 L719.8125,24.0156 C719.8125,26.5938 721.9219,28.4844 724.8125,28.4844 C726.0313,28.4844 727.1875,28.1875 727.9375,27.6406 C728.5156,27.2344 728.8438,26.7813 728.8438,26.3906 C728.8438,25.9375 728.4531,25.5469 727.9844,25.5469 C727.7656,25.5469 727.5625,25.625 727.375,25.8125 C726.9219,26.2969 726.9219,26.2969 726.7344,26.3906 C726.3125,26.6563 725.625,26.7813 724.8594,26.7813 C722.8125,26.7813 721.5156,25.6875 721.5156,23.9844 L721.5156,22.8906 C721.5156,21.1094 722.7656,19.7969 724.5,19.7969 C725.0781,19.7969 725.6875,19.9531 726.1563,20.2031 C726.6406,20.4844 726.8125,20.7031 726.9063,21.1094 C726.9688,21.5156 727,21.6406 727.1406,21.7656 C727.2813,21.9063 727.5156,22.0156 727.7344,22.0156 C728,22.0156 728.2656,21.875 728.4375,21.6563 C728.5469,21.5 728.5781,21.3125 728.5781,20.8906 L728.5781,19.4688 C728.5781,19.0313 728.5625,18.9063 728.4688,18.75 C728.3125,18.4844 728.0313,18.3438 727.7344,18.3438 C727.4375,18.3438 727.2344,18.4375 727.0156,18.75 L726.8438,18.6719 Z " fill="#000000"/><text fill="#000000" font-family="sans-serif" font-size="14" lengthAdjust="spacing" textLength="153" x="738.5" y="27.8467">IWindowSession.Stub</text><line style="stroke:#181818;stroke-width:0.5;" x1="710.5" x2="893.5" y1="39" y2="39"/><line style="stroke:#181818;stroke-width:0.5;" x1="710.5" x2="893.5" y1="47" y2="47"/></g><!--class Session--><g id="elem_Session"><rect fill="#F1F1F1" height="48" id="Session" rx="2.5" ry="2.5" style="stroke:#181818;stroke-width:0.5;" width="86" x="759" y="115"/><ellipse cx="774" cy="131" fill="#ADD1B2" rx="11" ry="11" style="stroke:#181818;stroke-width:1.0;"/><path d="M776.3438,126.6719 C775.4063,126.2344 774.8125,126.0938 773.9375,126.0938 C771.3125,126.0938 769.3125,128.1719 769.3125,130.8906 L769.3125,132.0156 C769.3125,134.5938 771.4219,136.4844 774.3125,136.4844 C775.5313,136.4844 776.6875,136.1875 777.4375,135.6406 C778.0156,135.2344 778.3438,134.7813 778.3438,134.3906 C778.3438,133.9375 777.9531,133.5469 777.4844,133.5469 C777.2656,133.5469 777.0625,133.625 776.875,133.8125 C776.4219,134.2969 776.4219,134.2969 776.2344,134.3906 C775.8125,134.6563 775.125,134.7813 774.3594,134.7813 C772.3125,134.7813 771.0156,133.6875 771.0156,131.9844 L771.0156,130.8906 C771.0156,129.1094 772.2656,127.7969 774,127.7969 C774.5781,127.7969 775.1875,127.9531 775.6563,128.2031 C776.1406,128.4844 776.3125,128.7031 776.4063,129.1094 C776.4688,129.5156 776.5,129.6406 776.6406,129.7656 C776.7813,129.9063 777.0156,130.0156 777.2344,130.0156 C777.5,130.0156 777.7656,129.875 777.9375,129.6563 C778.0469,129.5 778.0781,129.3125 778.0781,128.8906 L778.0781,127.4688 C778.0781,127.0313 778.0625,126.9063 777.9688,126.75 C777.8125,126.4844 777.5313,126.3438 777.2344,126.3438 C776.9375,126.3438 776.7344,126.4375 776.5156,126.75 L776.3438,126.6719 Z " fill="#000000"/><text fill="#000000" font-family="sans-serif" font-size="14" lengthAdjust="spacing" textLength="54" x="788" y="135.8467">Session</text><line style="stroke:#181818;stroke-width:0.5;" x1="760" x2="844" y1="147" y2="147"/><line style="stroke:#181818;stroke-width:0.5;" x1="760" x2="844" y1="155" y2="155"/></g><!--class WindowManagerService--><g id="elem_WindowManagerService"><rect fill="#F1F1F1" height="48" id="WindowManagerService" rx="2.5" ry="2.5" style="stroke:#181818;stroke-width:0.5;" width="202" x="701" y="223"/><ellipse cx="716" cy="239" fill="#ADD1B2" rx="11" ry="11" style="stroke:#181818;stroke-width:1.0;"/><path d="M718.3438,234.6719 C717.4063,234.2344 716.8125,234.0938 715.9375,234.0938 C713.3125,234.0938 711.3125,236.1719 711.3125,238.8906 L711.3125,240.0156 C711.3125,242.5938 713.4219,244.4844 716.3125,244.4844 C717.5313,244.4844 718.6875,244.1875 719.4375,243.6406 C720.0156,243.2344 720.3438,242.7813 720.3438,242.3906 C720.3438,241.9375 719.9531,241.5469 719.4844,241.5469 C719.2656,241.5469 719.0625,241.625 718.875,241.8125 C718.4219,242.2969 718.4219,242.2969 718.2344,242.3906 C717.8125,242.6563 717.125,242.7813 716.3594,242.7813 C714.3125,242.7813 713.0156,241.6875 713.0156,239.9844 L713.0156,238.8906 C713.0156,237.1094 714.2656,235.7969 716,235.7969 C716.5781,235.7969 717.1875,235.9531 717.6563,236.2031 C718.1406,236.4844 718.3125,236.7031 718.4063,237.1094 C718.4688,237.5156 718.5,237.6406 718.6406,237.7656 C718.7813,237.9063 719.0156,238.0156 719.2344,238.0156 C719.5,238.0156 719.7656,237.875 719.9375,237.6563 C720.0469,237.5 720.0781,237.3125 720.0781,236.8906 L720.0781,235.4688 C720.0781,235.0313 720.0625,234.9063 719.9688,234.75 C719.8125,234.4844 719.5313,234.3438 719.2344,234.3438 C718.9375,234.3438 718.7344,234.4375 718.5156,234.75 L718.3438,234.6719 Z " fill="#000000"/><text fill="#000000" font-family="sans-serif" font-size="14" lengthAdjust="spacing" textLength="170" x="730" y="243.8467">WindowManagerService</text><line style="stroke:#181818;stroke-width:0.5;" x1="702" x2="902" y1="255" y2="255"/><line style="stroke:#181818;stroke-width:0.5;" x1="702" x2="902" y1="263" y2="263"/></g><!--reverse link BaseCanvas to Canvas--><g id="link_BaseCanvas_Canvas"><path codeLine="1" d="M65,73 C65,90.658 65,96.941 65,114.678 " fill="none" id="BaseCanvas-backto-Canvas" style="stroke:#181818;stroke-width:1.0;"/><polygon fill="none" points="65,55,59,73,71,73,65,55" style="stroke:#181818;stroke-width:1.0;"/></g><!--reverse link Window to PhoneWindow--><g id="link_Window_PhoneWindow"><path codeLine="4" d="M335.8864,68.7853 C350.7124,86.4433 359.526,96.941 374.419,114.678 " fill="none" id="Window-backto-PhoneWindow" style="stroke:#181818;stroke-width:1.0;"/><polygon fill="none" points="324.312,55,331.2913,72.6434,340.4815,64.9271,324.312,55" style="stroke:#181818;stroke-width:1.0;"/></g><!--reverse link Window to WindowManager--><g id="link_Window_WindowManager"><path codeLine="5" d="M278.2401,64.233 C263.5811,81.891 251.087,96.941 236.361,114.678 " fill="none" id="Window-backto-WindowManager" style="stroke:#181818;stroke-width:1.0;"/><polygon fill="#181818" points="285.905,55,278.9949,57.0615,278.2401,64.233,285.1502,62.1715,285.905,55" style="stroke:#181818;stroke-width:1.0;"/></g><!--reverse link WindowManager to WindowManagerImpl--><g id="link_WindowManager_WindowManagerImpl"><path codeLine="6" d="M217,181 C217,198.658 217,204.941 217,222.678 " fill="none" id="WindowManager-backto-WindowManagerImpl" style="stroke:#181818;stroke-width:1.0;"/><polygon fill="none" points="217,163,211,181,223,181,217,163" style="stroke:#181818;stroke-width:1.0;"/></g><!--reverse link WindowManagerImpl to WindowManagerGlobal--><g id="link_WindowManagerImpl_WindowManagerGlobal"><path codeLine="8" d="M217,283.06 C217,300.4473 217,312.3528 217,330.6964 " fill="none" id="WindowManagerImpl-backto-WindowManagerGlobal" style="stroke:#181818;stroke-width:1.0;"/><polygon fill="#181818" points="217,271.06,213,277.06,217,283.06,221,277.06,217,271.06" style="stroke:#181818;stroke-width:1.0;"/></g><!--reverse link ViewParent to ViewRootImpl--><g id="link_ViewParent_ViewRootImpl"><path codeLine="10" d="M579,73 C579,90.658 579,96.941 579,114.678 " fill="none" id="ViewParent-backto-ViewRootImpl" style="stroke:#181818;stroke-width:1.0;"/><polygon fill="none" points="579,55,573,73,585,73,579,55" style="stroke:#181818;stroke-width:1.0;"/></g><!--reverse link ViewRootImpl to IWindowSession--><g id="link_ViewRootImpl_IWindowSession"><path codeLine="12" d="M533.5712,169.5422 C506.3252,187.2612 478.881,205.108 451.581,222.862 " fill="none" id="ViewRootImpl-backto-IWindowSession" style="stroke:#181818;stroke-width:1.0;"/><polygon fill="#181818" points="543.631,163,536.4204,162.9178,533.5712,169.5422,540.7818,169.6244,543.631,163" style="stroke:#181818;stroke-width:1.0;"/></g><!--reverse link ViewRootImpl to Choreographer--><g id="link_ViewRootImpl_Choreographer"><path codeLine="13" d="M584.2628,174.8656 C586.9278,192.5236 588.802,204.941 591.48,222.678 " fill="none" id="ViewRootImpl-backto-Choreographer" style="stroke:#181818;stroke-width:1.0;"/><polygon fill="#181818" points="582.472,163,579.4122,169.5297,584.2628,174.8656,587.3226,168.3359,582.472,163" style="stroke:#181818;stroke-width:1.0;"/></g><!--reverse link stub to Session--><g id="link_stub_Session"><path codeLine="16" d="M802,73 C802,90.658 802,96.941 802,114.678 " fill="none" id="stub-backto-Session" style="stroke:#181818;stroke-width:1.0;"/><polygon fill="none" points="802,55,796,73,808,73,802,55" style="stroke:#181818;stroke-width:1.0;"/></g><!--reverse link Session to WindowManagerService--><g id="link_Session_WindowManagerService"><path codeLine="17" d="M802,175 C802,192.658 802,204.941 802,222.678 " fill="none" id="Session-backto-WindowManagerService" style="stroke:#181818;stroke-width:1.0;"/><polygon fill="#181818" points="802,163,798,169,802,175,806,169,802,163" style="stroke:#181818;stroke-width:1.0;"/></g><!--SRC=[XL6nhi8m3Dpp5HOiy0I8ZQLYU9L034Y8IBpPBQQD56oK15ZuU0hf4uqwiCJsERux9x_eAKU-eOViCPr2p9NXGEw49S6VuQFSjyXOaLDO-E2m351QzBvjgXWYmQuMfXJ_QU2K9gdYN09jpXUhkX8jlhPIe8KiWv6U35UhnM8-7uCsN5aAmh1SgXvFNpwoT7Oy6Bhlq147zKcZhLUz5mblHv-9JIJKvBqHLjrRRxrl_RmMHr8vlDJDSxIh3jAfcGxNOW3Dp_WcKQyZUlfdRMD_GKtkPafw0W00]--></g></svg>