<?xml version="1.0" encoding="us-ascii" standalone="no"?><svg xmlns="http://www.w3.org/2000/svg" xmlns:xlink="http://www.w3.org/1999/xlink" contentStyleType="text/css" height="70px" preserveAspectRatio="none" style="width:247px;height:70px;background:#FFFFFF;" version="1.1" viewBox="0 0 247 70" width="247px" zoomAndPan="magnify"><defs/><g><!--class ARouter--><g id="elem_ARouter"><rect codeLine="1" fill="#F1F1F1" height="56.2656" id="ARouter" rx="2.5" ry="2.5" style="stroke:#181818;stroke-width:0.5;" width="99" x="7" y="7"/><ellipse cx="22" cy="27.1328" fill="#FF7700" rx="11" ry="11" style="stroke:#181818;stroke-width:1.0;"/><path d="M25.7813,23.1016 C25.7813,22.6641 25.7656,22.5234 25.6719,22.3672 C25.5313,22.1328 25.25,21.9766 24.9531,21.9766 C24.6094,21.9766 24.4688,22.1172 24.2969,22.5391 C23.7031,22.1641 22.9531,21.9766 22.0781,21.9766 C19.9688,21.9766 18.3906,23.2734 18.3906,24.9922 C18.3906,25.9609 18.9219,26.8672 19.7813,27.3516 C20.3281,27.6641 20.875,27.8359 21.9844,28.0234 C23.1406,28.2266 23.4063,28.2891 23.7656,28.4766 C24.1406,28.6797 24.375,29.0234 24.375,29.3828 C24.375,30.1172 23.3906,30.6641 22.1406,30.6641 C21.0156,30.6641 19.9375,30.1797 19.7656,29.5703 C19.6406,29.1016 19.6406,29.1016 19.5156,28.9922 C19.3594,28.8359 19.1406,28.7422 18.9063,28.7422 C18.625,28.7422 18.375,28.8672 18.2031,29.0859 C18.0938,29.2578 18.0469,29.4453 18.0469,29.8672 L18.0469,30.9922 C18.0469,31.7578 18.3281,32.1172 18.9219,32.1172 C19.1875,32.1172 19.3125,32.0547 19.5938,31.7109 C20.4375,32.1484 21.3281,32.3672 22.25,32.3672 C24.5781,32.3672 26.1406,31.1797 26.1406,29.4141 C26.1406,28.5234 25.8281,27.8359 25.1406,27.2891 C24.6094,26.8672 23.9688,26.6172 22.4844,26.3516 C21.2188,26.1172 21.125,26.0859 20.7969,25.9141 C20.4219,25.7266 20.1563,25.3359 20.1563,24.9766 C20.1563,24.2422 21.0156,23.6797 22.0781,23.6797 C23.1406,23.6797 23.9531,24.1484 24.1094,24.8203 C24.2188,25.3672 24.2188,25.3672 24.3438,25.5078 C24.4844,25.6328 24.7188,25.7422 24.9531,25.7422 C25.2188,25.7422 25.4688,25.6016 25.6406,25.3828 C25.75,25.2109 25.7813,25.0703 25.7813,24.6016 L25.7813,23.1016 Z " fill="#000000"/><text fill="#000000" font-family="sans-serif" font-size="12" font-style="italic" lengthAdjust="spacing" textLength="71" x="34" y="23.1387">&#171;Singleton&#187;</text><text fill="#000000" font-family="sans-serif" font-size="14" lengthAdjust="spacing" textLength="59" x="40" y="38.9639">ARouter</text><line style="stroke:#181818;stroke-width:0.5;" x1="8" x2="105" y1="47.2656" y2="47.2656"/><line style="stroke:#181818;stroke-width:0.5;" x1="8" x2="105" y1="55.2656" y2="55.2656"/></g><!--class _ARouter--><g id="elem__ARouter"><rect codeLine="2" fill="#F1F1F1" height="56.2656" id="_ARouter" rx="2.5" ry="2.5" style="stroke:#181818;stroke-width:0.5;" width="99" x="141" y="7"/><ellipse cx="156" cy="27.1328" fill="#FF7700" rx="11" ry="11" style="stroke:#181818;stroke-width:1.0;"/><path d="M159.7813,23.1016 C159.7813,22.6641 159.7656,22.5234 159.6719,22.3672 C159.5313,22.1328 159.25,21.9766 158.9531,21.9766 C158.6094,21.9766 158.4688,22.1172 158.2969,22.5391 C157.7031,22.1641 156.9531,21.9766 156.0781,21.9766 C153.9688,21.9766 152.3906,23.2734 152.3906,24.9922 C152.3906,25.9609 152.9219,26.8672 153.7813,27.3516 C154.3281,27.6641 154.875,27.8359 155.9844,28.0234 C157.1406,28.2266 157.4063,28.2891 157.7656,28.4766 C158.1406,28.6797 158.375,29.0234 158.375,29.3828 C158.375,30.1172 157.3906,30.6641 156.1406,30.6641 C155.0156,30.6641 153.9375,30.1797 153.7656,29.5703 C153.6406,29.1016 153.6406,29.1016 153.5156,28.9922 C153.3594,28.8359 153.1406,28.7422 152.9063,28.7422 C152.625,28.7422 152.375,28.8672 152.2031,29.0859 C152.0938,29.2578 152.0469,29.4453 152.0469,29.8672 L152.0469,30.9922 C152.0469,31.7578 152.3281,32.1172 152.9219,32.1172 C153.1875,32.1172 153.3125,32.0547 153.5938,31.7109 C154.4375,32.1484 155.3281,32.3672 156.25,32.3672 C158.5781,32.3672 160.1406,31.1797 160.1406,29.4141 C160.1406,28.5234 159.8281,27.8359 159.1406,27.2891 C158.6094,26.8672 157.9688,26.6172 156.4844,26.3516 C155.2188,26.1172 155.125,26.0859 154.7969,25.9141 C154.4219,25.7266 154.1563,25.3359 154.1563,24.9766 C154.1563,24.2422 155.0156,23.6797 156.0781,23.6797 C157.1406,23.6797 157.9531,24.1484 158.1094,24.8203 C158.2188,25.3672 158.2188,25.3672 158.3438,25.5078 C158.4844,25.6328 158.7188,25.7422 158.9531,25.7422 C159.2188,25.7422 159.4688,25.6016 159.6406,25.3828 C159.75,25.2109 159.7813,25.0703 159.7813,24.6016 L159.7813,23.1016 Z " fill="#000000"/><text fill="#000000" font-family="sans-serif" font-size="12" font-style="italic" lengthAdjust="spacing" textLength="71" x="168" y="23.1387">&#171;Singleton&#187;</text><text fill="#000000" font-family="sans-serif" font-size="14" lengthAdjust="spacing" textLength="66" x="170.5" y="38.9639">_ARouter</text><line style="stroke:#181818;stroke-width:0.5;" x1="142" x2="239" y1="47.2656" y2="47.2656"/><line style="stroke:#181818;stroke-width:0.5;" x1="142" x2="239" y1="55.2656" y2="55.2656"/></g><!--link ARouter to _ARouter--><g id="link_ARouter__ARouter"><path codeLine="3" d="M106.2266,35 C117.748,35 123.27,35 134.792,35 " fill="none" id="ARouter-to-_ARouter" style="stroke:#181818;stroke-width:1.0;"/><polygon fill="#181818" points="140.792,35,131.792,31,135.792,35,131.792,39,140.792,35" style="stroke:#181818;stroke-width:1.0;"/></g><!--SRC=[Iyv9B2vMS0pABor9BLAmiL7G2DPHTdCpDpSmq5G8pinBpqajoSzJiBFZIWQhZ2T6AKoDhXrSFG00]--></g></svg>