<?xml version="1.0" encoding="us-ascii" standalone="no"?><svg xmlns="http://www.w3.org/2000/svg" xmlns:xlink="http://www.w3.org/1999/xlink" contentStyleType="text/css" height="859px" preserveAspectRatio="none" style="width:915px;height:859px;background:#FFFFFF;" version="1.1" viewBox="0 0 915 859" width="915px" zoomAndPan="magnify"><defs/><g><rect fill="#FFFFFF" height="747.3203" style="stroke:#181818;stroke-width:1.0;" width="10" x="87" y="67.4297"/><rect fill="#FFFFFF" height="710.1875" style="stroke:#181818;stroke-width:1.0;" width="10" x="92" y="104.5625"/><rect fill="#FFFFFF" height="668.0547" style="stroke:#181818;stroke-width:1.0;" width="10" x="97" y="146.6953"/><rect fill="#FFFFFF" height="633.9219" style="stroke:#181818;stroke-width:1.0;" width="10" x="251" y="180.8281"/><rect fill="#FFFFFF" height="363.7266" style="stroke:#181818;stroke-width:1.0;" width="10" x="256" y="451.0234"/><rect fill="#FFFFFF" height="297.4609" style="stroke:#181818;stroke-width:1.0;" width="10" x="261" y="517.2891"/><rect fill="#FFFFFF" height="211.9297" style="stroke:#181818;stroke-width:1.0;" width="10" x="481" y="209.9609"/><rect fill="#FFFFFF" height="161.7969" style="stroke:#181818;stroke-width:1.0;" width="10" x="481" y="652.9531"/><rect fill="#FFFFFF" height="50.2656" style="stroke:#181818;stroke-width:1.0;" width="10" x="649" y="349.625"/><rect fill="#FFFFFF" height="65.3984" style="stroke:#181818;stroke-width:1.0;" width="10" x="649" y="551.4219"/><rect fill="#FFFFFF" height="50.2656" style="stroke:#181818;stroke-width:1.0;" width="10" x="649" y="682.0859"/><rect fill="none" height="189.9297" style="stroke:#000000;stroke-width:1.5;" width="797" x="27" y="224.9609"/><rect fill="none" height="335.7266" style="stroke:#000000;stroke-width:1.5;" width="882" x="27" y="471.0234"/><line style="stroke:#181818;stroke-width:0.5;stroke-dasharray:5.0,5.0;" x1="92" x2="92" y1="36.2969" y2="823.75"/><line style="stroke:#181818;stroke-width:0.5;stroke-dasharray:5.0,5.0;" x1="255.5" x2="255.5" y1="36.2969" y2="823.75"/><line style="stroke:#181818;stroke-width:0.5;stroke-dasharray:5.0,5.0;" x1="486" x2="486" y1="36.2969" y2="823.75"/><line style="stroke:#181818;stroke-width:0.5;stroke-dasharray:5.0,5.0;" x1="654" x2="654" y1="36.2969" y2="823.75"/><rect fill="#E2E2F0" height="30.2969" rx="2.5" ry="2.5" style="stroke:#181818;stroke-width:0.5;" width="110" x="37" y="5"/><text fill="#000000" font-family="sans-serif" font-size="14" lengthAdjust="spacing" textLength="96" x="44" y="24.9951">RecyclerView</text><rect fill="#E2E2F0" height="30.2969" rx="2.5" ry="2.5" style="stroke:#181818;stroke-width:0.5;" width="110" x="37" y="822.75"/><text fill="#000000" font-family="sans-serif" font-size="14" lengthAdjust="spacing" textLength="96" x="44" y="842.7451">RecyclerView</text><rect fill="#E2E2F0" height="30.2969" rx="2.5" ry="2.5" style="stroke:#181818;stroke-width:0.5;" width="159" x="176.5" y="5"/><text fill="#000000" font-family="sans-serif" font-size="14" lengthAdjust="spacing" textLength="145" x="183.5" y="24.9951">LinerLayoutManager</text><rect fill="#E2E2F0" height="30.2969" rx="2.5" ry="2.5" style="stroke:#181818;stroke-width:0.5;" width="159" x="176.5" y="822.75"/><text fill="#000000" font-family="sans-serif" font-size="14" lengthAdjust="spacing" textLength="145" x="183.5" y="842.7451">LinerLayoutManager</text><rect fill="#E2E2F0" height="30.2969" rx="2.5" ry="2.5" style="stroke:#181818;stroke-width:0.5;" width="224" x="374" y="5"/><text fill="#000000" font-family="sans-serif" font-size="14" lengthAdjust="spacing" textLength="210" x="381" y="24.9951">RecyclerView.LayoutManager</text><rect fill="#E2E2F0" height="30.2969" rx="2.5" ry="2.5" style="stroke:#181818;stroke-width:0.5;" width="224" x="374" y="822.75"/><text fill="#000000" font-family="sans-serif" font-size="14" lengthAdjust="spacing" textLength="210" x="381" y="842.7451">RecyclerView.LayoutManager</text><rect fill="#E2E2F0" height="30.2969" rx="2.5" ry="2.5" style="stroke:#181818;stroke-width:0.5;" width="76" x="616" y="5"/><text fill="#000000" font-family="sans-serif" font-size="14" lengthAdjust="spacing" textLength="62" x="623" y="24.9951">Recycler</text><rect fill="#E2E2F0" height="30.2969" rx="2.5" ry="2.5" style="stroke:#181818;stroke-width:0.5;" width="76" x="616" y="822.75"/><text fill="#000000" font-family="sans-serif" font-size="14" lengthAdjust="spacing" textLength="62" x="623" y="842.7451">Recycler</text><rect fill="#FFFFFF" height="747.3203" style="stroke:#181818;stroke-width:1.0;" width="10" x="87" y="67.4297"/><rect fill="#FFFFFF" height="710.1875" style="stroke:#181818;stroke-width:1.0;" width="10" x="92" y="104.5625"/><rect fill="#FFFFFF" height="668.0547" style="stroke:#181818;stroke-width:1.0;" width="10" x="97" y="146.6953"/><rect fill="#FFFFFF" height="633.9219" style="stroke:#181818;stroke-width:1.0;" width="10" x="251" y="180.8281"/><rect fill="#FFFFFF" height="363.7266" style="stroke:#181818;stroke-width:1.0;" width="10" x="256" y="451.0234"/><rect fill="#FFFFFF" height="297.4609" style="stroke:#181818;stroke-width:1.0;" width="10" x="261" y="517.2891"/><rect fill="#FFFFFF" height="211.9297" style="stroke:#181818;stroke-width:1.0;" width="10" x="481" y="209.9609"/><rect fill="#FFFFFF" height="161.7969" style="stroke:#181818;stroke-width:1.0;" width="10" x="481" y="652.9531"/><rect fill="#FFFFFF" height="50.2656" style="stroke:#181818;stroke-width:1.0;" width="10" x="649" y="349.625"/><rect fill="#FFFFFF" height="65.3984" style="stroke:#181818;stroke-width:1.0;" width="10" x="649" y="551.4219"/><rect fill="#FFFFFF" height="50.2656" style="stroke:#181818;stroke-width:1.0;" width="10" x="649" y="682.0859"/><ellipse cx="7.5" cy="66.6797" fill="none" rx="4" ry="4" style="stroke:#181818;stroke-width:1.5;"/><polygon fill="#181818" points="75,63.4297,85,67.4297,75,71.4297,79,67.4297" style="stroke:#181818;stroke-width:1.0;"/><line style="stroke:#181818;stroke-width:1.0;" x1="12" x2="81" y1="67.4297" y2="67.4297"/><text fill="#000000" font-family="sans-serif" font-size="13" lengthAdjust="spacing" textLength="60" x="15" y="62.3638">onLayout</text><line style="stroke:#181818;stroke-width:1.0;" x1="97" x2="144" y1="91.5625" y2="91.5625"/><line style="stroke:#181818;stroke-width:1.0;" x1="144" x2="144" y1="91.5625" y2="104.5625"/><line style="stroke:#181818;stroke-width:1.0;" x1="103" x2="144" y1="104.5625" y2="104.5625"/><polygon fill="#181818" points="113,100.5625,103,104.5625,113,108.5625,109,104.5625" style="stroke:#181818;stroke-width:1.0;"/><text fill="#000000" font-family="sans-serif" font-size="13" lengthAdjust="spacing" textLength="98" x="109" y="86.4966">dispatchLayout</text><line style="stroke:#181818;stroke-width:1.0;" x1="102" x2="149" y1="133.6953" y2="133.6953"/><line style="stroke:#181818;stroke-width:1.0;" x1="149" x2="149" y1="133.6953" y2="146.6953"/><line style="stroke:#181818;stroke-width:1.0;" x1="108" x2="149" y1="146.6953" y2="146.6953"/><polygon fill="#181818" points="118,142.6953,108,146.6953,118,150.6953,114,146.6953" style="stroke:#181818;stroke-width:1.0;"/><text fill="#000000" font-family="sans-serif" font-size="13" lengthAdjust="spacing" textLength="135" x="114" y="128.6294">dispatchLayoutStep1</text><polygon fill="#181818" points="239,176.8281,249,180.8281,239,184.8281,243,180.8281" style="stroke:#181818;stroke-width:1.0;"/><line style="stroke:#181818;stroke-width:1.0;" x1="107" x2="245" y1="180.8281" y2="180.8281"/><text fill="#000000" font-family="sans-serif" font-size="13" lengthAdjust="spacing" textLength="112" x="114" y="175.7622">onLayoutChildren</text><polygon fill="#181818" points="469,205.9609,479,209.9609,469,213.9609,473,209.9609" style="stroke:#181818;stroke-width:1.0;"/><line style="stroke:#181818;stroke-width:1.0;" x1="261" x2="475" y1="209.9609" y2="209.9609"/><text fill="#000000" font-family="sans-serif" font-size="13" lengthAdjust="spacing" textLength="201" x="268" y="204.895">detachAndScrapAttachedViews</text><path d="M27,224.9609 L275,224.9609 L275,232.0938 L265,242.0938 L27,242.0938 L27,224.9609 " fill="#EEEEEE" style="stroke:#000000;stroke-width:1.5;"/><rect fill="none" height="189.9297" style="stroke:#000000;stroke-width:1.5;" width="797" x="27" y="224.9609"/><text fill="#000000" font-family="sans-serif" font-size="13" font-weight="bold" lengthAdjust="spacing" textLength="203" x="42" y="238.0278">&#20498;&#24207;&#36941;&#21382;RecyclerView&#23376;View</text><line style="stroke:#181818;stroke-width:1.0;" x1="491" x2="533" y1="278.3594" y2="278.3594"/><line style="stroke:#181818;stroke-width:1.0;" x1="533" x2="533" y1="278.3594" y2="291.3594"/><line style="stroke:#181818;stroke-width:1.0;" x1="492" x2="533" y1="291.3594" y2="291.3594"/><polygon fill="#181818" points="502,287.3594,492,291.3594,502,295.3594,498,291.3594" style="stroke:#181818;stroke-width:1.0;"/><text fill="#000000" font-family="sans-serif" font-size="13" lengthAdjust="spacing" textLength="98" x="498" y="258.1606">ViewHolder&#35774;&#32622;</text><text fill="#000000" font-family="sans-serif" font-size="13" lengthAdjust="spacing" textLength="144" x="498" y="273.2935">FLAG_TMP_DETACHED</text><polygon fill="#181818" points="118,316.4922,108,320.4922,118,324.4922,114,320.4922" style="stroke:#181818;stroke-width:1.0;"/><line style="stroke:#181818;stroke-width:1.0;" x1="112" x2="480" y1="320.4922" y2="320.4922"/><text fill="#000000" font-family="sans-serif" font-size="13" lengthAdjust="spacing" textLength="160" x="124" y="315.4263">detachViewFromParent()</text><polygon fill="#181818" points="637,345.625,647,349.625,637,353.625,641,349.625" style="stroke:#181818;stroke-width:1.0;"/><line style="stroke:#181818;stroke-width:1.0;" x1="491" x2="643" y1="349.625" y2="349.625"/><text fill="#000000" font-family="sans-serif" font-size="13" lengthAdjust="spacing" textLength="106" x="498" y="344.5591">scrapView(view)</text><line style="stroke:#181818;stroke-width:1.0;" x1="659" x2="701" y1="398.8906" y2="398.8906"/><line style="stroke:#181818;stroke-width:1.0;" x1="701" x2="701" y1="398.8906" y2="411.8906"/><line style="stroke:#181818;stroke-width:1.0;" x1="654" x2="701" y1="411.8906" y2="411.8906"/><polygon fill="#181818" points="664,407.8906,654,411.8906,664,415.8906,660,411.8906" style="stroke:#181818;stroke-width:1.0;"/><text fill="#000000" font-family="sans-serif" font-size="13" lengthAdjust="spacing" textLength="111" x="666" y="378.6919">ViewHolder&#28155;&#21152;&#21040;</text><text fill="#000000" font-family="sans-serif" font-size="13" lengthAdjust="spacing" textLength="146" x="666" y="393.8247">mAttachedScrap&#21015;&#34920;&#20013;</text><line style="stroke:#181818;stroke-width:1.0;" x1="261" x2="308" y1="438.0234" y2="438.0234"/><line style="stroke:#181818;stroke-width:1.0;" x1="308" x2="308" y1="438.0234" y2="451.0234"/><line style="stroke:#181818;stroke-width:1.0;" x1="267" x2="308" y1="451.0234" y2="451.0234"/><polygon fill="#181818" points="277,447.0234,267,451.0234,277,455.0234,273,451.0234" style="stroke:#181818;stroke-width:1.0;"/><text fill="#000000" font-family="sans-serif" font-size="13" lengthAdjust="spacing" textLength="14" x="273" y="432.9575">fill</text><path d="M27,471.0234 L358,471.0234 L358,478.1563 L348,488.1563 L27,488.1563 L27,471.0234 " fill="#EEEEEE" style="stroke:#000000;stroke-width:1.5;"/><rect fill="none" height="335.7266" style="stroke:#000000;stroke-width:1.5;" width="882" x="27" y="471.0234"/><text fill="#000000" font-family="sans-serif" font-size="13" font-weight="bold" lengthAdjust="spacing" textLength="286" x="42" y="484.0903">&#24490;&#29615;&#20174;mAttachedScrap&#21462;&#20986;ViewHouder</text><line style="stroke:#181818;stroke-width:1.0;" x1="266" x2="313" y1="504.2891" y2="504.2891"/><line style="stroke:#181818;stroke-width:1.0;" x1="313" x2="313" y1="504.2891" y2="517.2891"/><line style="stroke:#181818;stroke-width:1.0;" x1="272" x2="313" y1="517.2891" y2="517.2891"/><polygon fill="#181818" points="282,513.2891,272,517.2891,282,521.2891,278,517.2891" style="stroke:#181818;stroke-width:1.0;"/><text fill="#000000" font-family="sans-serif" font-size="13" lengthAdjust="spacing" textLength="80" x="278" y="499.2231">layoutChunk</text><polygon fill="#181818" points="637,547.4219,647,551.4219,637,555.4219,641,551.4219" style="stroke:#181818;stroke-width:1.0;"/><line style="stroke:#181818;stroke-width:1.0;" x1="271" x2="643" y1="551.4219" y2="551.4219"/><text fill="#000000" font-family="sans-serif" font-size="13" lengthAdjust="spacing" textLength="122" x="278" y="546.356">getViewForPosition</text><line style="stroke:#181818;stroke-width:1.0;" x1="659" x2="701" y1="615.8203" y2="615.8203"/><line style="stroke:#181818;stroke-width:1.0;" x1="701" x2="701" y1="615.8203" y2="628.8203"/><line style="stroke:#181818;stroke-width:1.0;" x1="654" x2="701" y1="628.8203" y2="628.8203"/><polygon fill="#181818" points="664,624.8203,654,628.8203,664,632.8203,660,628.8203" style="stroke:#181818;stroke-width:1.0;"/><text fill="#000000" font-family="sans-serif" font-size="13" lengthAdjust="spacing" textLength="159" x="666" y="580.4888">&#20174;mAttachedScrap&#21462;&#20986;&#12290;</text><text fill="#000000" font-family="sans-serif" font-size="13" lengthAdjust="spacing" textLength="130" x="666" y="595.6216">&#22914;&#26524;&#33719;&#21462;&#19981;&#21040;&#23558;&#20250;&#35843;&#29992;</text><text fill="#000000" font-family="sans-serif" font-size="13" lengthAdjust="spacing" textLength="181" x="666" y="610.7544">onCreateViewHolder()&#24182;bind</text><polygon fill="#181818" points="469,648.9531,479,652.9531,469,656.9531,473,652.9531" style="stroke:#181818;stroke-width:1.0;"/><line style="stroke:#181818;stroke-width:1.0;" x1="271" x2="475" y1="652.9531" y2="652.9531"/><text fill="#000000" font-family="sans-serif" font-size="13" lengthAdjust="spacing" textLength="55" x="278" y="647.8872">addView</text><polygon fill="#181818" points="637,678.0859,647,682.0859,637,686.0859,641,682.0859" style="stroke:#181818;stroke-width:1.0;"/><line style="stroke:#181818;stroke-width:1.0;" x1="491" x2="643" y1="682.0859" y2="682.0859"/><text fill="#000000" font-family="sans-serif" font-size="13" lengthAdjust="spacing" textLength="92" x="498" y="677.02">unscrapView()</text><line style="stroke:#181818;stroke-width:1.0;" x1="659" x2="701" y1="731.3516" y2="731.3516"/><line style="stroke:#181818;stroke-width:1.0;" x1="701" x2="701" y1="731.3516" y2="744.3516"/><line style="stroke:#181818;stroke-width:1.0;" x1="654" x2="701" y1="744.3516" y2="744.3516"/><polygon fill="#181818" points="664,740.3516,654,744.3516,664,748.3516,660,744.3516" style="stroke:#181818;stroke-width:1.0;"/><text fill="#000000" font-family="sans-serif" font-size="13" lengthAdjust="spacing" textLength="231" x="666" y="711.1528">ViewHolder&#20174;mAttachedScrap&#20013;&#21024;&#38500;</text><text fill="#000000" font-family="sans-serif" font-size="13" lengthAdjust="spacing" textLength="211" x="666" y="726.2856">mAttachedScrap.remove(holder)</text><polygon fill="#181818" points="118,794.75,108,798.75,118,802.75,114,798.75" style="stroke:#181818;stroke-width:1.0;"/><line style="stroke:#181818;stroke-width:1.0;" x1="112" x2="480" y1="798.75" y2="798.75"/><text fill="#000000" font-family="sans-serif" font-size="13" lengthAdjust="spacing" textLength="130" x="124" y="763.4185">attachViewToParent</text><text fill="#000000" font-family="sans-serif" font-size="13" lengthAdjust="spacing" textLength="280" x="124" y="778.5513">(&#23545;&#20110;onCreateViewHolder&#21019;&#24314;&#30340;&#26032;holder&#23558;&#20250;</text><text fill="#000000" font-family="sans-serif" font-size="13" lengthAdjust="spacing" textLength="187" x="124" y="793.6841">&#35843;&#29992;addView&#65292;&#32780;&#19981;&#26159;attache)</text><!--SRC=[dL9DQnD16BxlhvZZXfA2rnw4aBRsa4AmmOiBPTmPay7TcMLsDj9Rh5A3j5ifKjigKa6a26roicrI-sVSIROd_u8psNpiTgs8brrctlTzvlbu7xFYVV0GsnksW_aZWf-3kRa5m6W5Rh1069dAdpeHyJqexCR_zQy9xDqpFCW5iOa7gG0LGZ5FYgkGmZhc0Fh0STmSjBhBS2qtY8CufXcuzD1y7jOrD8e6Ix0G5j1kb2XQipdqIaAVCDB3lb7dBF20REt9tkxDYnqPRgN1vUbR_JC0c08k07spmXo4UNnsFVnnPj7bIkd1UcsrkhwuL2kLLvOMfmCPUHCc-h3CcLk5IfWm2xdk4MjVazMjPbDzTDEqd6uj5jEC1kTz-UPOjhiMTIT2Hwfb-tty-IIwE3KmHGR2q1Qa2GLEkpMswobnd8alrz-6OIVgXxV0TlVbwrxoQg1UrGAo6Cuul80-cnKpykfOZ7nWlCfy8WYZVrDu1uMVhKsBog-RWqyVu_1StKKNEqgyx6v5LqTnz-NmtOb56IrphAJEN38BylBx4wACc15FU4E4Ce5dA0Tqbia_vf7ZhHAGxUERmo-t0vhds6LDR3P6SuMxDWYAoGRLMB8_5ZLbvpBgXNcTilr1zdl3erU3_Mw2cpXZqSIRiTfVLzjnQrjPDpZe9FYueDVaDm00]--></g></svg>