<?xml version="1.0" encoding="us-ascii" standalone="no"?><svg xmlns="http://www.w3.org/2000/svg" xmlns:xlink="http://www.w3.org/1999/xlink" contentStyleType="text/css" height="387px" preserveAspectRatio="none" style="width:358px;height:387px;background:#FFFFFF;" version="1.1" viewBox="0 0 358 387" width="358px" zoomAndPan="magnify"><defs/><g><rect fill="#FFFFFF" height="175.9297" style="stroke:#181818;stroke-width:1.0;" width="10" x="93.5" y="112.4297"/><rect fill="#FFFFFF" height="102.5313" style="stroke:#181818;stroke-width:1.0;" width="10" x="200" y="156.6953"/><rect fill="#FFFFFF" height="29.1328" style="stroke:#181818;stroke-width:1.0;" width="10" x="305.5" y="185.8281"/><line style="stroke:#181818;stroke-width:0.5;stroke-dasharray:5.0,5.0;" x1="23" x2="23" y1="81.2969" y2="306.3594"/><line style="stroke:#181818;stroke-width:0.5;stroke-dasharray:5.0,5.0;" x1="98.5" x2="98.5" y1="81.2969" y2="306.3594"/><line style="stroke:#181818;stroke-width:0.5;stroke-dasharray:5.0,5.0;" x1="204.5" x2="204.5" y1="81.2969" y2="306.3594"/><line style="stroke:#181818;stroke-width:0.5;stroke-dasharray:5.0,5.0;" x1="310.5" x2="310.5" y1="81.2969" y2="306.3594"/><text fill="#000000" font-family="sans-serif" font-size="14" lengthAdjust="spacing" text-decoration="underline" textLength="31" x="5" y="77.9951">User</text><ellipse cx="23.5" cy="13.5" fill="#E2E2F0" rx="8" ry="8" style="stroke:#181818;stroke-width:0.5;"/><path d="M23.5,21.5 L23.5,48.5 M10.5,29.5 L36.5,29.5 M23.5,48.5 L10.5,63.5 M23.5,48.5 L36.5,63.5 " fill="none" style="stroke:#181818;stroke-width:0.5;"/><text fill="#000000" font-family="sans-serif" font-size="14" lengthAdjust="spacing" text-decoration="underline" textLength="31" x="5" y="318.3545">User</text><ellipse cx="23.5" cy="330.1563" fill="#E2E2F0" rx="8" ry="8" style="stroke:#181818;stroke-width:0.5;"/><path d="M23.5,338.1563 L23.5,365.1563 M10.5,346.1563 L36.5,346.1563 M23.5,365.1563 L10.5,380.1563 M23.5,365.1563 L36.5,380.1563 " fill="none" style="stroke:#181818;stroke-width:0.5;"/><rect fill="#E2E2F0" height="30.2969" rx="10" ry="10" style="stroke:#181818;stroke-width:0.5;" width="86" x="55.5" y="50"/><text fill="#000000" font-family="sans-serif" font-size="14" lengthAdjust="spacing" text-decoration="underline" textLength="72" x="62.5" y="69.9951">First Class</text><rect fill="#E2E2F0" height="30.2969" rx="10" ry="10" style="stroke:#181818;stroke-width:0.5;" width="86" x="55.5" y="305.3594"/><text fill="#000000" font-family="sans-serif" font-size="14" lengthAdjust="spacing" text-decoration="underline" textLength="72" x="62.5" y="325.3545">First Class</text><rect fill="#E2E2F0" height="30.2969" rx="10" ry="10" style="stroke:#181818;stroke-width:0.5;" width="107" x="151.5" y="50"/><text fill="#000000" font-family="sans-serif" font-size="14" lengthAdjust="spacing" text-decoration="underline" textLength="93" x="158.5" y="69.9951">Second Class</text><rect fill="#E2E2F0" height="30.2969" rx="10" ry="10" style="stroke:#181818;stroke-width:0.5;" width="107" x="151.5" y="305.3594"/><text fill="#000000" font-family="sans-serif" font-size="14" lengthAdjust="spacing" text-decoration="underline" textLength="93" x="158.5" y="325.3545">Second Class</text><rect fill="#E2E2F0" height="30.2969" rx="10" ry="10" style="stroke:#181818;stroke-width:0.5;" width="84" x="268.5" y="50"/><text fill="#000000" font-family="sans-serif" font-size="14" lengthAdjust="spacing" text-decoration="underline" textLength="70" x="275.5" y="69.9951">Last Class</text><rect fill="#E2E2F0" height="30.2969" rx="10" ry="10" style="stroke:#181818;stroke-width:0.5;" width="84" x="268.5" y="305.3594"/><text fill="#000000" font-family="sans-serif" font-size="14" lengthAdjust="spacing" text-decoration="underline" textLength="70" x="275.5" y="325.3545">Last Class</text><rect fill="#FFFFFF" height="175.9297" style="stroke:#181818;stroke-width:1.0;" width="10" x="93.5" y="112.4297"/><rect fill="#FFFFFF" height="102.5313" style="stroke:#181818;stroke-width:1.0;" width="10" x="200" y="156.6953"/><rect fill="#FFFFFF" height="29.1328" style="stroke:#181818;stroke-width:1.0;" width="10" x="305.5" y="185.8281"/><polygon fill="#181818" points="81.5,108.4297,91.5,112.4297,81.5,116.4297,85.5,112.4297" style="stroke:#181818;stroke-width:1.0;"/><line style="stroke:#181818;stroke-width:2.0;" x1="23.5" x2="87.5" y1="112.4297" y2="112.4297"/><text fill="#000000" font-family="sans-serif" font-size="13" lengthAdjust="spacing" textLength="51" x="30.5" y="107.3638">DoWork</text><polygon fill="#181818" points="188,152.6953,198,156.6953,188,160.6953,192,156.6953" style="stroke:#181818;stroke-width:1.0;"/><line style="stroke:#181818;stroke-width:2.0;" x1="103.5" x2="194" y1="156.6953" y2="156.6953"/><text fill="#000000" font-family="sans-serif" font-size="13" lengthAdjust="spacing" textLength="43" x="110.5" y="136.4966">Create</text><text fill="#000000" font-family="sans-serif" font-size="13" lengthAdjust="spacing" textLength="53" x="110.5" y="151.6294">Request</text><polygon fill="#181818" points="293.5,181.8281,303.5,185.8281,293.5,189.8281,297.5,185.8281" style="stroke:#181818;stroke-width:1.0;"/><line style="stroke:#181818;stroke-width:2.0;" x1="210" x2="299.5" y1="185.8281" y2="185.8281"/><text fill="#000000" font-family="sans-serif" font-size="13" lengthAdjust="spacing" textLength="51" x="217" y="180.7622">DoWork</text><polygon fill="#181818" points="221,210.9609,211,214.9609,221,218.9609,217,214.9609" style="stroke:#181818;stroke-width:1.0;"/><line style="stroke:#181818;stroke-width:2.0;stroke-dasharray:2.0,2.0;" x1="215" x2="309.5" y1="214.9609" y2="214.9609"/><text fill="#000000" font-family="sans-serif" font-size="13" lengthAdjust="spacing" textLength="67" x="227" y="209.895">WorkDone</text><line style="stroke:#A80036;stroke-width:2.0;" x1="301.5" x2="319.5" y1="205.9609" y2="223.9609"/><line style="stroke:#A80036;stroke-width:2.0;" x1="301.5" x2="319.5" y1="223.9609" y2="205.9609"/><polygon fill="#181818" points="114.5,255.2266,104.5,259.2266,114.5,263.2266,110.5,259.2266" style="stroke:#181818;stroke-width:1.0;"/><line style="stroke:#181818;stroke-width:2.0;stroke-dasharray:2.0,2.0;" x1="108.5" x2="204" y1="259.2266" y2="259.2266"/><text fill="#000000" font-family="sans-serif" font-size="13" lengthAdjust="spacing" textLength="53" x="120.5" y="239.0278">Request</text><text fill="#000000" font-family="sans-serif" font-size="13" lengthAdjust="spacing" textLength="51" x="120.5" y="254.1606">Created</text><polygon fill="#181818" points="34.5,284.3594,24.5,288.3594,34.5,292.3594,30.5,288.3594" style="stroke:#181818;stroke-width:1.0;"/><line style="stroke:#181818;stroke-width:2.0;stroke-dasharray:2.0,2.0;" x1="28.5" x2="97.5" y1="288.3594" y2="288.3594"/><text fill="#000000" font-family="sans-serif" font-size="13" lengthAdjust="spacing" textLength="34" x="40.5" y="283.2935">Done</text><!--SRC=[PO-xJWCn44Nx-OfH-aWe1KMAI6j7L1G8WgX7tX5OcxMN6OVNr-DP0l6ArkVSUySwn3IHq8ZAhoTEWJkH_7vuYM58h8eRq3z5yYdr8KjYmSrL0qRw6AjCpwpnY_6wPR-zToGbXZXHAbXhM8unCG25aWKVbGMcnbZTHD62_aYgAoJ5ReaVEEJKDzmj-IqjqXx09d2zmswB-_oKPR3f-4Q5QpTqXjmMlR2ztDlHMYwA0t2c-Fzf3nxNFsa3-ro_rTUmv4_RTJEig-VEyqHVdRQzcpKxqXRcYijztm00]--></g></svg>