<?xml version="1.0" encoding="us-ascii" standalone="no"?><svg xmlns="http://www.w3.org/2000/svg" xmlns:xlink="http://www.w3.org/1999/xlink" contentStyleType="text/css" height="170px" preserveAspectRatio="none" style="width:150px;height:170px;background:#FFFFFF;" version="1.1" viewBox="0 0 150 170" width="150px" zoomAndPan="magnify"><defs/><g><!--class A1--><g id="elem_A1"><rect codeLine="1" fill="#F1F1F1" height="48" id="A1" rx="2.5" ry="2.5" style="stroke:#181818;stroke-width:0.5;" width="51" x="7" y="115"/><ellipse cx="22" cy="131" fill="#ADD1B2" rx="11" ry="11" style="stroke:#181818;stroke-width:1.0;"/><path d="M24.3438,126.6719 C23.4063,126.2344 22.8125,126.0938 21.9375,126.0938 C19.3125,126.0938 17.3125,128.1719 17.3125,130.8906 L17.3125,132.0156 C17.3125,134.5938 19.4219,136.4844 22.3125,136.4844 C23.5313,136.4844 24.6875,136.1875 25.4375,135.6406 C26.0156,135.2344 26.3438,134.7813 26.3438,134.3906 C26.3438,133.9375 25.9531,133.5469 25.4844,133.5469 C25.2656,133.5469 25.0625,133.625 24.875,133.8125 C24.4219,134.2969 24.4219,134.2969 24.2344,134.3906 C23.8125,134.6563 23.125,134.7813 22.3594,134.7813 C20.3125,134.7813 19.0156,133.6875 19.0156,131.9844 L19.0156,130.8906 C19.0156,129.1094 20.2656,127.7969 22,127.7969 C22.5781,127.7969 23.1875,127.9531 23.6563,128.2031 C24.1406,128.4844 24.3125,128.7031 24.4063,129.1094 C24.4688,129.5156 24.5,129.6406 24.6406,129.7656 C24.7813,129.9063 25.0156,130.0156 25.2344,130.0156 C25.5,130.0156 25.7656,129.875 25.9375,129.6563 C26.0469,129.5 26.0781,129.3125 26.0781,128.8906 L26.0781,127.4688 C26.0781,127.0313 26.0625,126.9063 25.9688,126.75 C25.8125,126.4844 25.5313,126.3438 25.2344,126.3438 C24.9375,126.3438 24.7344,126.4375 24.5156,126.75 L24.3438,126.6719 Z " fill="#000000"/><text fill="#000000" font-family="sans-serif" font-size="14" lengthAdjust="spacing" textLength="19" x="36" y="135.8467">A1</text><line style="stroke:#181818;stroke-width:0.5;" x1="8" x2="57" y1="147" y2="147"/><line style="stroke:#181818;stroke-width:0.5;" x1="8" x2="57" y1="155" y2="155"/></g><!--class B1--><g id="elem_B1"><rect fill="#F1F1F1" height="48" id="B1" rx="2.5" ry="2.5" style="stroke:#181818;stroke-width:0.5;" width="51" x="7" y="7"/><ellipse cx="22" cy="23" fill="#ADD1B2" rx="11" ry="11" style="stroke:#181818;stroke-width:1.0;"/><path d="M24.3438,18.6719 C23.4063,18.2344 22.8125,18.0938 21.9375,18.0938 C19.3125,18.0938 17.3125,20.1719 17.3125,22.8906 L17.3125,24.0156 C17.3125,26.5938 19.4219,28.4844 22.3125,28.4844 C23.5313,28.4844 24.6875,28.1875 25.4375,27.6406 C26.0156,27.2344 26.3438,26.7813 26.3438,26.3906 C26.3438,25.9375 25.9531,25.5469 25.4844,25.5469 C25.2656,25.5469 25.0625,25.625 24.875,25.8125 C24.4219,26.2969 24.4219,26.2969 24.2344,26.3906 C23.8125,26.6563 23.125,26.7813 22.3594,26.7813 C20.3125,26.7813 19.0156,25.6875 19.0156,23.9844 L19.0156,22.8906 C19.0156,21.1094 20.2656,19.7969 22,19.7969 C22.5781,19.7969 23.1875,19.9531 23.6563,20.2031 C24.1406,20.4844 24.3125,20.7031 24.4063,21.1094 C24.4688,21.5156 24.5,21.6406 24.6406,21.7656 C24.7813,21.9063 25.0156,22.0156 25.2344,22.0156 C25.5,22.0156 25.7656,21.875 25.9375,21.6563 C26.0469,21.5 26.0781,21.3125 26.0781,20.8906 L26.0781,19.4688 C26.0781,19.0313 26.0625,18.9063 25.9688,18.75 C25.8125,18.4844 25.5313,18.3438 25.2344,18.3438 C24.9375,18.3438 24.7344,18.4375 24.5156,18.75 L24.3438,18.6719 Z " fill="#000000"/><text fill="#000000" font-family="sans-serif" font-size="14" lengthAdjust="spacing" textLength="19" x="36" y="27.8467">B1</text><line style="stroke:#181818;stroke-width:0.5;" x1="8" x2="57" y1="39" y2="39"/><line style="stroke:#181818;stroke-width:0.5;" x1="8" x2="57" y1="47" y2="47"/></g><!--class A2--><g id="elem_A2"><rect fill="#F1F1F1" height="48" id="A2" rx="2.5" ry="2.5" style="stroke:#181818;stroke-width:0.5;" width="50" x="93.5" y="7"/><ellipse cx="108.5" cy="23" fill="#ADD1B2" rx="11" ry="11" style="stroke:#181818;stroke-width:1.0;"/><path d="M110.8438,18.6719 C109.9063,18.2344 109.3125,18.0938 108.4375,18.0938 C105.8125,18.0938 103.8125,20.1719 103.8125,22.8906 L103.8125,24.0156 C103.8125,26.5938 105.9219,28.4844 108.8125,28.4844 C110.0313,28.4844 111.1875,28.1875 111.9375,27.6406 C112.5156,27.2344 112.8438,26.7813 112.8438,26.3906 C112.8438,25.9375 112.4531,25.5469 111.9844,25.5469 C111.7656,25.5469 111.5625,25.625 111.375,25.8125 C110.9219,26.2969 110.9219,26.2969 110.7344,26.3906 C110.3125,26.6563 109.625,26.7813 108.8594,26.7813 C106.8125,26.7813 105.5156,25.6875 105.5156,23.9844 L105.5156,22.8906 C105.5156,21.1094 106.7656,19.7969 108.5,19.7969 C109.0781,19.7969 109.6875,19.9531 110.1563,20.2031 C110.6406,20.4844 110.8125,20.7031 110.9063,21.1094 C110.9688,21.5156 111,21.6406 111.1406,21.7656 C111.2813,21.9063 111.5156,22.0156 111.7344,22.0156 C112,22.0156 112.2656,21.875 112.4375,21.6563 C112.5469,21.5 112.5781,21.3125 112.5781,20.8906 L112.5781,19.4688 C112.5781,19.0313 112.5625,18.9063 112.4688,18.75 C112.3125,18.4844 112.0313,18.3438 111.7344,18.3438 C111.4375,18.3438 111.2344,18.4375 111.0156,18.75 L110.8438,18.6719 Z " fill="#000000"/><text fill="#000000" font-family="sans-serif" font-size="14" lengthAdjust="spacing" textLength="18" x="122.5" y="27.8467">A2</text><line style="stroke:#181818;stroke-width:0.5;" x1="94.5" x2="142.5" y1="39" y2="39"/><line style="stroke:#181818;stroke-width:0.5;" x1="94.5" x2="142.5" y1="47" y2="47"/></g><!--class B2--><g id="elem_B2"><rect fill="#F1F1F1" height="48" id="B2" rx="2.5" ry="2.5" style="stroke:#181818;stroke-width:0.5;" width="50" x="93.5" y="115"/><ellipse cx="108.5" cy="131" fill="#ADD1B2" rx="11" ry="11" style="stroke:#181818;stroke-width:1.0;"/><path d="M110.8438,126.6719 C109.9063,126.2344 109.3125,126.0938 108.4375,126.0938 C105.8125,126.0938 103.8125,128.1719 103.8125,130.8906 L103.8125,132.0156 C103.8125,134.5938 105.9219,136.4844 108.8125,136.4844 C110.0313,136.4844 111.1875,136.1875 111.9375,135.6406 C112.5156,135.2344 112.8438,134.7813 112.8438,134.3906 C112.8438,133.9375 112.4531,133.5469 111.9844,133.5469 C111.7656,133.5469 111.5625,133.625 111.375,133.8125 C110.9219,134.2969 110.9219,134.2969 110.7344,134.3906 C110.3125,134.6563 109.625,134.7813 108.8594,134.7813 C106.8125,134.7813 105.5156,133.6875 105.5156,131.9844 L105.5156,130.8906 C105.5156,129.1094 106.7656,127.7969 108.5,127.7969 C109.0781,127.7969 109.6875,127.9531 110.1563,128.2031 C110.6406,128.4844 110.8125,128.7031 110.9063,129.1094 C110.9688,129.5156 111,129.6406 111.1406,129.7656 C111.2813,129.9063 111.5156,130.0156 111.7344,130.0156 C112,130.0156 112.2656,129.875 112.4375,129.6563 C112.5469,129.5 112.5781,129.3125 112.5781,128.8906 L112.5781,127.4688 C112.5781,127.0313 112.5625,126.9063 112.4688,126.75 C112.3125,126.4844 112.0313,126.3438 111.7344,126.3438 C111.4375,126.3438 111.2344,126.4375 111.0156,126.75 L110.8438,126.6719 Z " fill="#000000"/><text fill="#000000" font-family="sans-serif" font-size="14" lengthAdjust="spacing" textLength="18" x="122.5" y="135.8467">B2</text><line style="stroke:#181818;stroke-width:0.5;" x1="94.5" x2="142.5" y1="147" y2="147"/><line style="stroke:#181818;stroke-width:0.5;" x1="94.5" x2="142.5" y1="155" y2="155"/></g><!--reverse link B1 to A1--><g id="link_B1_A1"><path codeLine="2" d="M32.5,61 C32.5,78.6584 32.5,96.9408 32.5,114.6784 " fill="none" id="B1-backto-A1" style="stroke:#008000;stroke-width:1.0;stroke-dasharray:7.0,7.0;"/><polygon fill="#008000" points="32.5,55,28.5,64,32.5,60,36.5,64,32.5,55" style="stroke:#008000;stroke-width:1.0;"/></g><!--link A2 to B2--><g id="link_A2_B2"><path codeLine="3" d="M118.5,55 C118.5,72.6584 118.5,90.9408 118.5,108.6784 " fill="none" id="A2-to-B2" style="stroke:#FF00FF;stroke-width:2.0;"/><polygon fill="#FF00FF" points="118.5,114.6784,122.5,105.6784,118.5,109.6784,114.5,105.6784,118.5,114.6784" style="stroke:#FF00FF;stroke-width:2.0;"/></g><!--SRC=[Iyv9B2vMS3JaSZHKq8rEIIpEI4tHKKulIatDYoqjqBLJS09A6G6bal9pW19fQGO6QMcn874Z0000]--></g></svg>