<?xml version="1.0" encoding="us-ascii" standalone="no"?><svg xmlns="http://www.w3.org/2000/svg" xmlns:xlink="http://www.w3.org/1999/xlink" contentStyleType="text/css" height="389px" preserveAspectRatio="none" style="width:570px;height:389px;background:#FFFFFF;" version="1.1" viewBox="0 0 570 389" width="570px" zoomAndPan="magnify"><defs/><g><rect fill="#FFFFFF" height="241.0938" style="stroke:#181818;stroke-width:1.0;" width="10" x="79" y="104.5625"/><rect fill="#FFFFFF" height="123.5313" style="stroke:#181818;stroke-width:1.0;" width="10" x="312" y="222.125"/><line style="stroke:#181818;stroke-width:0.5;stroke-dasharray:5.0,5.0;" x1="83.5" x2="83.5" y1="36.2969" y2="354.6563"/><line style="stroke:#181818;stroke-width:0.5;stroke-dasharray:5.0,5.0;" x1="316.5" x2="316.5" y1="190.3438" y2="354.6563"/><rect fill="#E2E2F0" height="30.2969" rx="2.5" ry="2.5" style="stroke:#181818;stroke-width:0.5;" width="71" x="48.5" y="5"/><text fill="#000000" font-family="sans-serif" font-size="14" lengthAdjust="spacing" textLength="57" x="55.5" y="24.9951">RealCall</text><rect fill="#E2E2F0" height="30.2969" rx="2.5" ry="2.5" style="stroke:#181818;stroke-width:0.5;" width="71" x="48.5" y="353.6563"/><text fill="#000000" font-family="sans-serif" font-size="14" lengthAdjust="spacing" textLength="57" x="55.5" y="373.6514">RealCall</text><rect fill="#E2E2F0" height="30.2969" rx="2.5" ry="2.5" style="stroke:#181818;stroke-width:0.5;" width="169" x="232.5" y="353.6563"/><text fill="#000000" font-family="sans-serif" font-size="14" lengthAdjust="spacing" textLength="155" x="239.5" y="373.6514">RealInterceptorChain</text><rect fill="#FFFFFF" height="241.0938" style="stroke:#181818;stroke-width:1.0;" width="10" x="79" y="104.5625"/><rect fill="#FFFFFF" height="123.5313" style="stroke:#181818;stroke-width:1.0;" width="10" x="312" y="222.125"/><ellipse cx="7.5" cy="66.6797" fill="none" rx="4" ry="4" style="stroke:#181818;stroke-width:1.5;"/><polygon fill="#181818" points="72,63.4297,82,67.4297,72,71.4297,76,67.4297" style="stroke:#181818;stroke-width:1.0;"/><line style="stroke:#181818;stroke-width:1.0;" x1="12" x2="78" y1="67.4297" y2="67.4297"/><text fill="#000000" font-family="sans-serif" font-size="13" lengthAdjust="spacing" textLength="52" x="15" y="62.3638">execute</text><line style="stroke:#181818;stroke-width:1.0;" x1="84" x2="131" y1="91.5625" y2="91.5625"/><line style="stroke:#181818;stroke-width:1.0;" x1="131" x2="131" y1="91.5625" y2="104.5625"/><line style="stroke:#181818;stroke-width:1.0;" x1="90" x2="131" y1="104.5625" y2="104.5625"/><polygon fill="#181818" points="100,100.5625,90,104.5625,100,108.5625,96,104.5625" style="stroke:#181818;stroke-width:1.0;"/><text fill="#000000" font-family="sans-serif" font-size="13" lengthAdjust="spacing" textLength="219" x="96" y="86.4966">getResponseWithInterceptorChain</text><line style="stroke:#181818;stroke-width:1.0;" x1="89" x2="131" y1="138.6953" y2="138.6953"/><line style="stroke:#181818;stroke-width:1.0;" x1="131" x2="131" y1="138.6953" y2="151.6953"/><line style="stroke:#181818;stroke-width:1.0;" x1="90" x2="131" y1="151.6953" y2="151.6953"/><polygon fill="#181818" points="100,147.6953,90,151.6953,100,155.6953,96,151.6953" style="stroke:#181818;stroke-width:1.0;"/><text fill="#000000" font-family="sans-serif" font-size="13" lengthAdjust="spacing" textLength="122" x="96" y="133.6294">&#21019;&#24314;Interceptor List</text><polygon fill="#181818" points="220.5,176.8281,230.5,180.8281,220.5,184.8281,224.5,180.8281" style="stroke:#181818;stroke-width:1.0;"/><line style="stroke:#181818;stroke-width:1.0;" x1="89" x2="226.5" y1="180.8281" y2="180.8281"/><text fill="#000000" font-family="sans-serif" font-size="13" lengthAdjust="spacing" textLength="27" x="96" y="175.7622">new</text><rect fill="#E2E2F0" height="30.2969" rx="2.5" ry="2.5" style="stroke:#181818;stroke-width:0.5;" width="169" x="232.5" y="159.6953"/><text fill="#000000" font-family="sans-serif" font-size="14" lengthAdjust="spacing" textLength="155" x="239.5" y="179.6904">RealInterceptorChain</text><polygon fill="#181818" points="300,218.125,310,222.125,300,226.125,304,222.125" style="stroke:#181818;stroke-width:1.0;"/><line style="stroke:#181818;stroke-width:1.0;" x1="89" x2="306" y1="222.125" y2="222.125"/><text fill="#000000" font-family="sans-serif" font-size="13" lengthAdjust="spacing" textLength="52" x="96" y="217.0591">proceed</text><line style="stroke:#181818;stroke-width:1.0;" x1="322" x2="364" y1="266.3906" y2="266.3906"/><line style="stroke:#181818;stroke-width:1.0;" x1="364" x2="364" y1="266.3906" y2="279.3906"/><line style="stroke:#181818;stroke-width:1.0;" x1="323" x2="364" y1="279.3906" y2="279.3906"/><polygon fill="#181818" points="333,275.3906,323,279.3906,333,283.3906,329,279.3906" style="stroke:#181818;stroke-width:1.0;"/><text fill="#000000" font-family="sans-serif" font-size="13" lengthAdjust="spacing" textLength="141" x="329" y="246.1919">next = copy(index+1)</text><text fill="#000000" font-family="sans-serif" font-size="13" lengthAdjust="spacing" textLength="234" x="329" y="261.3247">&#22797;&#21046;&#24403;&#21069;&#36131;&#20219;&#38142;&#65292;&#25351;&#38024;&#25351;&#21521;&#19979;&#19968;&#20010;&#25318;&#25130;&#22120;</text><line style="stroke:#181818;stroke-width:1.0;" x1="322" x2="364" y1="323.6563" y2="323.6563"/><line style="stroke:#181818;stroke-width:1.0;" x1="364" x2="364" y1="323.6563" y2="336.6563"/><line style="stroke:#181818;stroke-width:1.0;" x1="323" x2="364" y1="336.6563" y2="336.6563"/><polygon fill="#181818" points="333,332.6563,323,336.6563,333,340.6563,329,336.6563" style="stroke:#181818;stroke-width:1.0;"/><text fill="#000000" font-family="sans-serif" font-size="13" lengthAdjust="spacing" textLength="96" x="329" y="303.4575">intercept(next)</text><text fill="#000000" font-family="sans-serif" font-size="13" lengthAdjust="spacing" textLength="65" x="329" y="318.5903">&#25191;&#34892;&#25318;&#25130;&#22120;</text><!--SRC=[YyxNjLC8IatCSKxCoL6mKaYjI4qkBKdbWWiXIsjhMocafvO4fHONvESLfuPdbcHuvfMa5YMd5fJa5pbd96RcOTTefV2qO_RJtRkGL2luP1QNSAaheAelAQfqp4jnoy_9oIyFBK1MhgK5D2KljHnDYrDHPafwAX4AdHEJCuXIbv-NbvfSGfI9EJd1gKLbgKLO5QC717f8aQ0I5Eu5HVd9gQafN5WLuD88Ch-YHC5M8Jc_e58ZCoybjKBRK3Ccx-cItgSTsvxkdVoqi_V5biLFTkz-ENdV-pqzpthQNqxg099F9qnyigFxoOw69pjMFUjUzgnZrTEPAqYrEnCcf05o1T3QPvtBNopiWPi70000]--></g></svg>