<?xml version="1.0" encoding="us-ascii" standalone="no"?><svg xmlns="http://www.w3.org/2000/svg" xmlns:xlink="http://www.w3.org/1999/xlink" contentStyleType="text/css" height="281px" preserveAspectRatio="none" style="width:233px;height:281px;background:#FFFFFF;" version="1.1" viewBox="0 0 233 281" width="233px" zoomAndPan="magnify"><defs/><g><!--class Reference--><g id="elem_Reference"><rect codeLine="1" fill="#F1F1F1" height="48" id="Reference" rx="2.5" ry="2.5" style="stroke:#181818;stroke-width:0.5;" width="149" x="40" y="10"/><ellipse cx="55" cy="26" fill="#A9DCDF" rx="11" ry="11" style="stroke:#181818;stroke-width:1.0;"/><path d="M57.0781,27.8125 L57.4688,28.7969 L57.0781,28.7969 C56.625,28.7969 56.5156,28.8125 56.3594,28.9219 C56.1094,29.0781 55.9531,29.3594 55.9531,29.6563 C55.9531,29.9219 56.0938,30.1719 56.3125,30.3281 C56.4531,30.4531 56.6563,30.5 57.0781,30.5 L59.4375,30.5 C59.7969,30.5 60.0156,30.4688 60.1563,30.375 C60.4063,30.2344 60.5625,29.9375 60.5625,29.6563 C60.5625,29.375 60.4219,29.125 60.2031,28.9688 C60.0313,28.8281 59.875,28.7969 59.4063,28.7969 L56.0156,20.5938 L52.3438,20.5938 C51.8906,20.5938 51.7656,20.6094 51.6094,20.7031 C51.3594,20.875 51.2031,21.1563 51.2031,21.4375 C51.2031,21.7188 51.3438,21.9688 51.5625,22.1406 C51.7344,22.25 51.9063,22.2813 52.3438,22.2813 L53.4219,22.2813 L50.7813,28.7969 C50.3594,28.7969 50.2031,28.8125 50.0469,28.9219 C49.7969,29.0781 49.6406,29.3594 49.6406,29.6563 C49.6406,30.2188 50.0156,30.5 50.7656,30.5 L53.0313,30.5 C53.3906,30.5 53.6094,30.4688 53.7344,30.375 C54,30.2344 54.1406,29.9375 54.1406,29.6563 C54.1406,29.375 54.0156,29.125 53.7969,28.9531 C53.625,28.8281 53.4844,28.7969 53.0313,28.7969 L52.6406,28.7969 L53.0313,27.8125 L57.0781,27.8125 Z M56.375,26.1094 L53.7031,26.1094 L55.0469,22.8438 L56.375,26.1094 Z " fill="#000000"/><text fill="#000000" font-family="sans-serif" font-size="14" font-style="italic" lengthAdjust="spacing" textLength="74" x="69" y="30.8467">Reference</text><rect fill="#FFFFFF" height="15.9688" style="stroke:#181818;stroke-width:1.0;stroke-dasharray:2.0,2.0;" width="41" x="151" y="7"/><text fill="#000000" font-family="sans-serif" font-size="12" font-style="italic" lengthAdjust="spacing" textLength="39" x="152" y="19.1387">Object</text><line style="stroke:#181818;stroke-width:0.5;" x1="41" x2="188" y1="42" y2="42"/><line style="stroke:#181818;stroke-width:0.5;" x1="41" x2="188" y1="50" y2="50"/></g><!--class PhantomReference--><g id="elem_PhantomReference"><rect codeLine="2" fill="#F1F1F1" height="48" id="PhantomReference" rx="2.5" ry="2.5" style="stroke:#181818;stroke-width:0.5;" width="215" x="7" y="118"/><ellipse cx="22" cy="134" fill="#ADD1B2" rx="11" ry="11" style="stroke:#181818;stroke-width:1.0;"/><path d="M24.3438,129.6719 C23.4063,129.2344 22.8125,129.0938 21.9375,129.0938 C19.3125,129.0938 17.3125,131.1719 17.3125,133.8906 L17.3125,135.0156 C17.3125,137.5938 19.4219,139.4844 22.3125,139.4844 C23.5313,139.4844 24.6875,139.1875 25.4375,138.6406 C26.0156,138.2344 26.3438,137.7813 26.3438,137.3906 C26.3438,136.9375 25.9531,136.5469 25.4844,136.5469 C25.2656,136.5469 25.0625,136.625 24.875,136.8125 C24.4219,137.2969 24.4219,137.2969 24.2344,137.3906 C23.8125,137.6563 23.125,137.7813 22.3594,137.7813 C20.3125,137.7813 19.0156,136.6875 19.0156,134.9844 L19.0156,133.8906 C19.0156,132.1094 20.2656,130.7969 22,130.7969 C22.5781,130.7969 23.1875,130.9531 23.6563,131.2031 C24.1406,131.4844 24.3125,131.7031 24.4063,132.1094 C24.4688,132.5156 24.5,132.6406 24.6406,132.7656 C24.7813,132.9063 25.0156,133.0156 25.2344,133.0156 C25.5,133.0156 25.7656,132.875 25.9375,132.6563 C26.0469,132.5 26.0781,132.3125 26.0781,131.8906 L26.0781,130.4688 C26.0781,130.0313 26.0625,129.9063 25.9688,129.75 C25.8125,129.4844 25.5313,129.3438 25.2344,129.3438 C24.9375,129.3438 24.7344,129.4375 24.5156,129.75 L24.3438,129.6719 Z " fill="#000000"/><text fill="#000000" font-family="sans-serif" font-size="14" lengthAdjust="spacing" textLength="140" x="36" y="138.8467">PhantomReference</text><rect fill="#FFFFFF" height="15.9688" style="stroke:#181818;stroke-width:1.0;stroke-dasharray:2.0,2.0;" width="41" x="184" y="115"/><text fill="#000000" font-family="sans-serif" font-size="12" font-style="italic" lengthAdjust="spacing" textLength="39" x="185" y="127.1387">Object</text><line style="stroke:#181818;stroke-width:0.5;" x1="8" x2="221" y1="150" y2="150"/><line style="stroke:#181818;stroke-width:0.5;" x1="8" x2="221" y1="158" y2="158"/></g><!--class Cleaner--><g id="elem_Cleaner"><rect fill="#F1F1F1" height="48" id="Cleaner" rx="2.5" ry="2.5" style="stroke:#181818;stroke-width:0.5;" width="87" x="71" y="226"/><ellipse cx="86" cy="242" fill="#ADD1B2" rx="11" ry="11" style="stroke:#181818;stroke-width:1.0;"/><path d="M88.3438,237.6719 C87.4063,237.2344 86.8125,237.0938 85.9375,237.0938 C83.3125,237.0938 81.3125,239.1719 81.3125,241.8906 L81.3125,243.0156 C81.3125,245.5938 83.4219,247.4844 86.3125,247.4844 C87.5313,247.4844 88.6875,247.1875 89.4375,246.6406 C90.0156,246.2344 90.3438,245.7813 90.3438,245.3906 C90.3438,244.9375 89.9531,244.5469 89.4844,244.5469 C89.2656,244.5469 89.0625,244.625 88.875,244.8125 C88.4219,245.2969 88.4219,245.2969 88.2344,245.3906 C87.8125,245.6563 87.125,245.7813 86.3594,245.7813 C84.3125,245.7813 83.0156,244.6875 83.0156,242.9844 L83.0156,241.8906 C83.0156,240.1094 84.2656,238.7969 86,238.7969 C86.5781,238.7969 87.1875,238.9531 87.6563,239.2031 C88.1406,239.4844 88.3125,239.7031 88.4063,240.1094 C88.4688,240.5156 88.5,240.6406 88.6406,240.7656 C88.7813,240.9063 89.0156,241.0156 89.2344,241.0156 C89.5,241.0156 89.7656,240.875 89.9375,240.6563 C90.0469,240.5 90.0781,240.3125 90.0781,239.8906 L90.0781,238.4688 C90.0781,238.0313 90.0625,237.9063 89.9688,237.75 C89.8125,237.4844 89.5313,237.3438 89.2344,237.3438 C88.9375,237.3438 88.7344,237.4375 88.5156,237.75 L88.3438,237.6719 Z " fill="#000000"/><text fill="#000000" font-family="sans-serif" font-size="14" lengthAdjust="spacing" textLength="55" x="100" y="246.8467">Cleaner</text><line style="stroke:#181818;stroke-width:0.5;" x1="72" x2="157" y1="258" y2="258"/><line style="stroke:#181818;stroke-width:0.5;" x1="72" x2="157" y1="266" y2="266"/></g><!--reverse link Reference to PhantomReference--><g id="link_Reference_PhantomReference"><path codeLine="3" d="M114.5,76 C114.5,93.658 114.5,99.941 114.5,117.678 " fill="none" id="Reference-backto-PhantomReference" style="stroke:#181818;stroke-width:1.0;"/><polygon fill="none" points="114.5,58,108.5,76,120.5,76,114.5,58" style="stroke:#181818;stroke-width:1.0;"/></g><!--reverse link PhantomReference to Cleaner--><g id="link_PhantomReference_Cleaner"><path codeLine="4" d="M114.5,184 C114.5,201.6584 114.5,207.9408 114.5,225.6784 " fill="none" id="PhantomReference-backto-Cleaner" style="stroke:#181818;stroke-width:1.0;"/><polygon fill="none" points="114.5,166,108.5,184,120.5,184,114.5,166" style="stroke:#181818;stroke-width:1.0;"/></g><!--SRC=[IqmgBYbAJ2vH24fDIorApKjEjV5FoafDBh7ZIiv9B2vM2CX8p2l9pyMKXeiesDJewcAeuq8NW2XppabDp4ij0W00]--></g></svg>