<?xml version="1.0" encoding="us-ascii" standalone="no"?><svg xmlns="http://www.w3.org/2000/svg" xmlns:xlink="http://www.w3.org/1999/xlink" contentStyleType="text/css" height="1081px" preserveAspectRatio="none" style="width:851px;height:1081px;background:#FFFFFF;" version="1.1" viewBox="0 0 851 1081" width="851px" zoomAndPan="magnify"><defs/><g><rect fill="#FFFFFF" height="875.6641" style="stroke:#181818;stroke-width:1.0;" width="10" x="152" y="161.8281"/><rect fill="#FFBBBB" height="702" style="stroke:#181818;stroke-width:1.0;" width="10" x="157" y="335.4922"/><rect fill="#FFFFFF" height="334.1953" style="stroke:#181818;stroke-width:1.0;" width="10" x="162" y="377.625"/><rect fill="#FFFFFF" height="287.5391" style="stroke:#181818;stroke-width:1.0;" width="10" x="162" y="748.9531"/><rect fill="#FFFFFF" height="95.3984" style="stroke:#181818;stroke-width:1.0;" width="10" x="392" y="195.9609"/><rect fill="#FFFFFF" height="28" style="stroke:#181818;stroke-width:1.0;" width="10" x="397" y="263.3594"/><rect fill="#FFFFFF" height="300.0625" style="stroke:#181818;stroke-width:1.0;" width="10" x="588" y="411.7578"/><rect fill="#FFFFFF" height="135.5313" style="stroke:#181818;stroke-width:1.0;" width="10" x="593" y="448.8906"/><rect fill="#FFFFFF" height="34.1328" style="stroke:#181818;stroke-width:1.0;" width="10" x="598" y="515.1563"/><rect fill="#FFFFFF" height="76.2656" style="stroke:#181818;stroke-width:1.0;" width="10" x="593" y="635.5547"/><rect fill="#FFFFFF" height="34.1328" style="stroke:#181818;stroke-width:1.0;" width="10" x="598" y="677.6875"/><rect fill="#FFFFFF" height="106.3984" style="stroke:#181818;stroke-width:1.0;" width="10" x="588" y="822.0234"/><rect fill="#FFFFFF" height="34.1328" style="stroke:#181818;stroke-width:1.0;" width="10" x="593" y="859.1563"/><rect fill="#FFFFFF" height="35.1328" style="stroke:#181818;stroke-width:1.0;" width="10" x="588" y="979.3594"/><rect fill="none" height="130.5313" style="stroke:#000000;stroke-width:1.5;" width="318.5" x="493.5" y="468.8906"/><rect fill="none" height="260.5391" style="stroke:#000000;stroke-width:1.5;" width="722.5" x="84.5" y="768.9531"/><line style="stroke:#181818;stroke-width:0.5;stroke-dasharray:5.0,5.0;" x1="156.5" x2="156.5" y1="36.2969" y2="1046.4922"/><line style="stroke:#181818;stroke-width:0.5;stroke-dasharray:5.0,5.0;" x1="397" x2="397" y1="36.2969" y2="1046.4922"/><line style="stroke:#181818;stroke-width:0.5;stroke-dasharray:5.0,5.0;" x1="592.5" x2="592.5" y1="36.2969" y2="1046.4922"/><rect fill="#E2E2F0" height="30.2969" rx="2.5" ry="2.5" style="stroke:#181818;stroke-width:0.5;" width="125" x="94.5" y="5"/><text fill="#000000" font-family="sans-serif" font-size="14" lengthAdjust="spacing" textLength="111" x="101.5" y="24.9951">GestureBinding</text><rect fill="#E2E2F0" height="30.2969" rx="2.5" ry="2.5" style="stroke:#181818;stroke-width:0.5;" width="125" x="94.5" y="1045.4922"/><text fill="#000000" font-family="sans-serif" font-size="14" lengthAdjust="spacing" textLength="111" x="101.5" y="1065.4873">GestureBinding</text><rect fill="#E2E2F0" height="30.2969" rx="2.5" ry="2.5" style="stroke:#181818;stroke-width:0.5;" width="178" x="308" y="5"/><text fill="#000000" font-family="sans-serif" font-size="14" lengthAdjust="spacing" textLength="164" x="315" y="24.9951">RenderPointerListener</text><rect fill="#E2E2F0" height="30.2969" rx="2.5" ry="2.5" style="stroke:#181818;stroke-width:0.5;" width="178" x="308" y="1045.4922"/><text fill="#000000" font-family="sans-serif" font-size="14" lengthAdjust="spacing" textLength="164" x="315" y="1065.4873">RenderPointerListener</text><rect fill="#E2E2F0" height="30.2969" rx="2.5" ry="2.5" style="stroke:#181818;stroke-width:0.5;" width="179" x="503.5" y="5"/><text fill="#000000" font-family="sans-serif" font-size="14" lengthAdjust="spacing" textLength="165" x="510.5" y="24.9951">TapGestureRecognizer</text><rect fill="#E2E2F0" height="30.2969" rx="2.5" ry="2.5" style="stroke:#181818;stroke-width:0.5;" width="179" x="503.5" y="1045.4922"/><text fill="#000000" font-family="sans-serif" font-size="14" lengthAdjust="spacing" textLength="165" x="510.5" y="1065.4873">TapGestureRecognizer</text><rect fill="#FFFFFF" height="875.6641" style="stroke:#181818;stroke-width:1.0;" width="10" x="152" y="161.8281"/><rect fill="#FFBBBB" height="702" style="stroke:#181818;stroke-width:1.0;" width="10" x="157" y="335.4922"/><rect fill="#FFFFFF" height="334.1953" style="stroke:#181818;stroke-width:1.0;" width="10" x="162" y="377.625"/><rect fill="#FFFFFF" height="287.5391" style="stroke:#181818;stroke-width:1.0;" width="10" x="162" y="748.9531"/><rect fill="#FFFFFF" height="95.3984" style="stroke:#181818;stroke-width:1.0;" width="10" x="392" y="195.9609"/><rect fill="#FFFFFF" height="28" style="stroke:#181818;stroke-width:1.0;" width="10" x="397" y="263.3594"/><rect fill="#FFFFFF" height="300.0625" style="stroke:#181818;stroke-width:1.0;" width="10" x="588" y="411.7578"/><rect fill="#FFFFFF" height="135.5313" style="stroke:#181818;stroke-width:1.0;" width="10" x="593" y="448.8906"/><rect fill="#FFFFFF" height="34.1328" style="stroke:#181818;stroke-width:1.0;" width="10" x="598" y="515.1563"/><rect fill="#FFFFFF" height="76.2656" style="stroke:#181818;stroke-width:1.0;" width="10" x="593" y="635.5547"/><rect fill="#FFFFFF" height="34.1328" style="stroke:#181818;stroke-width:1.0;" width="10" x="598" y="677.6875"/><rect fill="#FFFFFF" height="106.3984" style="stroke:#181818;stroke-width:1.0;" width="10" x="588" y="822.0234"/><rect fill="#FFFFFF" height="34.1328" style="stroke:#181818;stroke-width:1.0;" width="10" x="593" y="859.1563"/><rect fill="#FFFFFF" height="35.1328" style="stroke:#181818;stroke-width:1.0;" width="10" x="588" y="979.3594"/><ellipse cx="7.5" cy="81.8125" fill="none" rx="4" ry="4" style="stroke:#181818;stroke-width:1.5;"/><polygon fill="#181818" points="145,78.5625,155,82.5625,145,86.5625,149,82.5625" style="stroke:#181818;stroke-width:1.0;"/><line style="stroke:#181818;stroke-width:1.0;" x1="12" x2="151" y1="82.5625" y2="82.5625"/><text fill="#000000" font-family="sans-serif" font-size="13" lengthAdjust="spacing" textLength="125" x="15" y="62.3638">handlePointerEvent</text><text fill="#000000" font-family="sans-serif" font-size="13" lengthAdjust="spacing" textLength="109" x="15" y="77.4966">(PointerUpEvent)</text><line style="stroke:#181818;stroke-width:1.0;" x1="157" x2="199" y1="111.6953" y2="111.6953"/><line style="stroke:#181818;stroke-width:1.0;" x1="199" x2="199" y1="111.6953" y2="124.6953"/><line style="stroke:#181818;stroke-width:1.0;" x1="158" x2="199" y1="124.6953" y2="124.6953"/><polygon fill="#181818" points="168,120.6953,158,124.6953,168,128.6953,164,124.6953" style="stroke:#181818;stroke-width:1.0;"/><text fill="#000000" font-family="sans-serif" font-size="13" lengthAdjust="spacing" textLength="104" x="164" y="106.6294">&#21024;&#38500;&#21629;&#20013;&#27979;&#35797;&#32467;&#26524;</text><line style="stroke:#181818;stroke-width:1.0;" x1="157" x2="204" y1="148.8281" y2="148.8281"/><line style="stroke:#181818;stroke-width:1.0;" x1="204" x2="204" y1="148.8281" y2="161.8281"/><line style="stroke:#181818;stroke-width:1.0;" x1="163" x2="204" y1="161.8281" y2="161.8281"/><polygon fill="#181818" points="173,157.8281,163,161.8281,173,165.8281,169,161.8281" style="stroke:#181818;stroke-width:1.0;"/><text fill="#000000" font-family="sans-serif" font-size="13" lengthAdjust="spacing" textLength="91" x="169" y="143.7622">dispatchEvent</text><polygon fill="#181818" points="380,191.9609,390,195.9609,380,199.9609,384,195.9609" style="stroke:#181818;stroke-width:1.0;"/><line style="stroke:#181818;stroke-width:1.0;" x1="162" x2="386" y1="195.9609" y2="195.9609"/><text fill="#000000" font-family="sans-serif" font-size="13" lengthAdjust="spacing" textLength="80" x="169" y="190.895">handleEvent</text><line style="stroke:#181818;stroke-width:1.0;" x1="407" x2="449" y1="255.3594" y2="255.3594"/><line style="stroke:#181818;stroke-width:1.0;" x1="449" x2="449" y1="255.3594" y2="268.3594"/><line style="stroke:#181818;stroke-width:1.0;" x1="408" x2="449" y1="268.3594" y2="268.3594"/><polygon fill="#181818" points="418,264.3594,408,268.3594,418,272.3594,414,268.3594" style="stroke:#181818;stroke-width:1.0;"/><text fill="#000000" font-family="sans-serif" font-size="13" lengthAdjust="spacing" textLength="157" x="414" y="220.0278">onPointerUp?.call(event)</text><text fill="#000000" font-family="sans-serif" font-size="13" lengthAdjust="spacing" textLength="172" x="414" y="235.1606">&#22312;GestureDetector&#30340;&#22330;&#26223;&#65292;</text><text fill="#000000" font-family="sans-serif" font-size="13" lengthAdjust="spacing" textLength="113" x="414" y="250.2935">onPointerUp&#20026;null</text><line style="stroke:#181818;stroke-width:1.0;" x1="162" x2="209" y1="322.4922" y2="322.4922"/><line style="stroke:#181818;stroke-width:1.0;" x1="209" x2="209" y1="322.4922" y2="335.4922"/><line style="stroke:#181818;stroke-width:1.0;" x1="168" x2="209" y1="335.4922" y2="335.4922"/><polygon fill="#181818" points="178,331.4922,168,335.4922,178,339.4922,174,335.4922" style="stroke:#181818;stroke-width:1.0;"/><text fill="#000000" font-family="sans-serif" font-size="13" lengthAdjust="spacing" textLength="80" x="174" y="317.4263">handleEvent</text><line style="stroke:#181818;stroke-width:1.0;" x1="167" x2="214" y1="364.625" y2="364.625"/><line style="stroke:#181818;stroke-width:1.0;" x1="214" x2="214" y1="364.625" y2="377.625"/><line style="stroke:#181818;stroke-width:1.0;" x1="173" x2="214" y1="377.625" y2="377.625"/><polygon fill="#181818" points="183,373.625,173,377.625,183,381.625,179,377.625" style="stroke:#181818;stroke-width:1.0;"/><text fill="#000000" font-family="sans-serif" font-size="13" lengthAdjust="spacing" textLength="126" x="179" y="359.5591">pointerRouter.route</text><polygon fill="#181818" points="576,407.7578,586,411.7578,576,415.7578,580,411.7578" style="stroke:#181818;stroke-width:1.0;"/><line style="stroke:#181818;stroke-width:1.0;" x1="172" x2="582" y1="411.7578" y2="411.7578"/><text fill="#000000" font-family="sans-serif" font-size="13" lengthAdjust="spacing" textLength="80" x="179" y="406.6919">handleEvent</text><line style="stroke:#181818;stroke-width:1.0;" x1="598" x2="645" y1="435.8906" y2="435.8906"/><line style="stroke:#181818;stroke-width:1.0;" x1="645" x2="645" y1="435.8906" y2="448.8906"/><line style="stroke:#181818;stroke-width:1.0;" x1="604" x2="645" y1="448.8906" y2="448.8906"/><polygon fill="#181818" points="614,444.8906,604,448.8906,614,452.8906,610,448.8906" style="stroke:#181818;stroke-width:1.0;"/><text fill="#000000" font-family="sans-serif" font-size="13" lengthAdjust="spacing" textLength="138" x="610" y="430.8247">handlePrimaryPointer</text><path d="M493.5,468.8906 L706.5,468.8906 L706.5,476.0234 L696.5,486.0234 L493.5,486.0234 L493.5,468.8906 " fill="#EEEEEE" style="stroke:#000000;stroke-width:1.5;"/><rect fill="none" height="130.5313" style="stroke:#000000;stroke-width:1.5;" width="318.5" x="493.5" y="468.8906"/><text fill="#000000" font-family="sans-serif" font-size="13" font-weight="bold" lengthAdjust="spacing" textLength="168" x="508.5" y="481.9575">&#21482;&#26377;&#19968;&#20010;&#31454;&#20105;&#32773;&#26102;&#25165;&#20250;&#25191;&#34892;</text><line style="stroke:#181818;stroke-width:1.0;" x1="603" x2="650" y1="502.1563" y2="502.1563"/><line style="stroke:#181818;stroke-width:1.0;" x1="650" x2="650" y1="502.1563" y2="515.1563"/><line style="stroke:#181818;stroke-width:1.0;" x1="609" x2="650" y1="515.1563" y2="515.1563"/><polygon fill="#181818" points="619,511.1563,609,515.1563,619,519.1563,615,515.1563" style="stroke:#181818;stroke-width:1.0;"/><text fill="#000000" font-family="sans-serif" font-size="13" lengthAdjust="spacing" textLength="84" x="615" y="497.0903">handleTapUp</text><ellipse cx="841.5" cy="548.5391" fill="none" rx="4" ry="4" style="stroke:#181818;stroke-width:1.5;"/><polygon fill="#181818" points="824.5,545.2891,834.5,549.2891,824.5,553.2891,828.5,549.2891" style="stroke:#181818;stroke-width:1.0;"/><line style="stroke:#181818;stroke-width:1.0;" x1="603" x2="830.5" y1="549.2891" y2="549.2891"/><text fill="#000000" font-family="sans-serif" font-size="13" lengthAdjust="spacing" textLength="188" x="610" y="544.2231">onTap &#20351;&#29992;&#32773;&#25509;&#25910;&#21040;onTap&#20107;&#20214;</text><line style="stroke:#181818;stroke-width:1.0;" x1="603" x2="645" y1="583.4219" y2="583.4219"/><line style="stroke:#181818;stroke-width:1.0;" x1="645" x2="645" y1="583.4219" y2="596.4219"/><line style="stroke:#181818;stroke-width:1.0;" x1="598" x2="645" y1="596.4219" y2="596.4219"/><polygon fill="#181818" points="608,592.4219,598,596.4219,608,600.4219,604,596.4219" style="stroke:#181818;stroke-width:1.0;"/><text fill="#000000" font-family="sans-serif" font-size="13" lengthAdjust="spacing" textLength="40" x="610" y="578.356">_reset</text><line style="stroke:#181818;stroke-width:1.0;" x1="598" x2="645" y1="622.5547" y2="622.5547"/><line style="stroke:#181818;stroke-width:1.0;" x1="645" x2="645" y1="622.5547" y2="635.5547"/><line style="stroke:#181818;stroke-width:1.0;" x1="604" x2="645" y1="635.5547" y2="635.5547"/><polygon fill="#181818" points="614,631.5547,604,635.5547,614,639.5547,610,635.5547" style="stroke:#181818;stroke-width:1.0;"/><text fill="#000000" font-family="sans-serif" font-size="13" lengthAdjust="spacing" textLength="233" x="610" y="617.4888">stopTrackingIfPointerNoLongerDown</text><line style="stroke:#181818;stroke-width:1.0;" x1="603" x2="650" y1="664.6875" y2="664.6875"/><line style="stroke:#181818;stroke-width:1.0;" x1="650" x2="650" y1="664.6875" y2="677.6875"/><line style="stroke:#181818;stroke-width:1.0;" x1="609" x2="650" y1="677.6875" y2="677.6875"/><polygon fill="#181818" points="619,673.6875,609,677.6875,619,681.6875,615,677.6875" style="stroke:#181818;stroke-width:1.0;"/><text fill="#000000" font-family="sans-serif" font-size="13" lengthAdjust="spacing" textLength="127" x="615" y="659.6216">stopTrackingPointer</text><polygon fill="#181818" points="178,707.8203,168,711.8203,178,715.8203,174,711.8203" style="stroke:#181818;stroke-width:1.0;"/><line style="stroke:#181818;stroke-width:1.0;" x1="172" x2="592" y1="711.8203" y2="711.8203"/><text fill="#000000" font-family="sans-serif" font-size="13" lengthAdjust="spacing" textLength="180" x="184" y="706.7544">pointerRouter.removeRoute</text><line style="stroke:#181818;stroke-width:1.0;stroke-dasharray:2.0,2.0;" x1="167" x2="214" y1="735.9531" y2="735.9531"/><line style="stroke:#181818;stroke-width:1.0;stroke-dasharray:2.0,2.0;" x1="214" x2="214" y1="735.9531" y2="748.9531"/><line style="stroke:#181818;stroke-width:1.0;stroke-dasharray:2.0,2.0;" x1="173" x2="214" y1="748.9531" y2="748.9531"/><polygon fill="#181818" points="183,744.9531,173,748.9531,183,752.9531,179,748.9531" style="stroke:#181818;stroke-width:1.0;"/><text fill="#000000" font-family="sans-serif" font-size="13" lengthAdjust="spacing" textLength="211" x="179" y="730.8872">gestureArena.sweep&#22788;&#29702;&#31454;&#25216;&#36923;&#36753;</text><path d="M84.5,768.9531 L150.5,768.9531 L150.5,776.0859 L140.5,786.0859 L84.5,786.0859 L84.5,768.9531 " fill="#EEEEEE" style="stroke:#000000;stroke-width:1.5;"/><rect fill="none" height="260.5391" style="stroke:#000000;stroke-width:1.5;" width="722.5" x="84.5" y="768.9531"/><text fill="#000000" font-family="sans-serif" font-size="13" font-weight="bold" lengthAdjust="spacing" textLength="21" x="99.5" y="782.02">alt</text><text fill="#000000" font-family="sans-serif" font-size="11" font-weight="bold" lengthAdjust="spacing" textLength="175" x="165.5" y="781.1636">[&#23384;&#22312;&#22810;&#20010;&#31454;&#20105;&#32773;&#65292;&#21017;&#25191;&#34892;&#31454;&#25216;&#27969;&#31243;]</text><line style="stroke:#000000;stroke-width:1.0;stroke-dasharray:2.0,2.0;" x1="84.5" x2="807" y1="787.0859" y2="787.0859"/><text fill="#000000" font-family="sans-serif" font-size="11" font-weight="bold" lengthAdjust="spacing" textLength="54" x="89.5" y="797.2964">[&#31454;&#25216;&#32988;&#20986;]</text><polygon fill="#181818" points="576,818.0234,586,822.0234,576,826.0234,580,822.0234" style="stroke:#181818;stroke-width:1.0;"/><line style="stroke:#181818;stroke-width:1.0;" x1="172" x2="582" y1="822.0234" y2="822.0234"/><text fill="#000000" font-family="sans-serif" font-size="13" lengthAdjust="spacing" textLength="94" x="179" y="816.9575">acceptGesture</text><line style="stroke:#181818;stroke-width:1.0;" x1="598" x2="645" y1="846.1563" y2="846.1563"/><line style="stroke:#181818;stroke-width:1.0;" x1="645" x2="645" y1="846.1563" y2="859.1563"/><line style="stroke:#181818;stroke-width:1.0;" x1="604" x2="645" y1="859.1563" y2="859.1563"/><polygon fill="#181818" points="614,855.1563,604,859.1563,614,863.1563,610,859.1563" style="stroke:#181818;stroke-width:1.0;"/><text fill="#000000" font-family="sans-serif" font-size="13" lengthAdjust="spacing" textLength="84" x="610" y="841.0903">handleTapUp</text><ellipse cx="841.5" cy="892.5391" fill="none" rx="4" ry="4" style="stroke:#181818;stroke-width:1.5;"/><polygon fill="#181818" points="824.5,889.2891,834.5,893.2891,824.5,897.2891,828.5,893.2891" style="stroke:#181818;stroke-width:1.0;"/><line style="stroke:#181818;stroke-width:1.0;" x1="598" x2="830.5" y1="893.2891" y2="893.2891"/><text fill="#000000" font-family="sans-serif" font-size="13" lengthAdjust="spacing" textLength="188" x="605" y="888.2231">onTap &#20351;&#29992;&#32773;&#25509;&#25910;&#21040;onTap&#20107;&#20214;</text><line style="stroke:#181818;stroke-width:1.0;" x1="598" x2="640" y1="927.4219" y2="927.4219"/><line style="stroke:#181818;stroke-width:1.0;" x1="640" x2="640" y1="927.4219" y2="940.4219"/><line style="stroke:#181818;stroke-width:1.0;" x1="593" x2="640" y1="940.4219" y2="940.4219"/><polygon fill="#181818" points="603,936.4219,593,940.4219,603,944.4219,599,940.4219" style="stroke:#181818;stroke-width:1.0;"/><text fill="#000000" font-family="sans-serif" font-size="13" lengthAdjust="spacing" textLength="40" x="605" y="922.356">_reset</text><line style="stroke:#000000;stroke-width:1.0;stroke-dasharray:2.0,2.0;" x1="84.5" x2="807" y1="944.4219" y2="944.4219"/><text fill="#000000" font-family="sans-serif" font-size="11" font-weight="bold" lengthAdjust="spacing" textLength="54" x="89.5" y="954.6323">[&#31454;&#25216;&#22833;&#36133;]</text><polygon fill="#181818" points="576,975.3594,586,979.3594,576,983.3594,580,979.3594" style="stroke:#181818;stroke-width:1.0;"/><line style="stroke:#181818;stroke-width:1.0;" x1="172" x2="582" y1="979.3594" y2="979.3594"/><text fill="#000000" font-family="sans-serif" font-size="13" lengthAdjust="spacing" textLength="87" x="179" y="974.2935">rejectGesture</text><line style="stroke:#181818;stroke-width:1.0;" x1="598" x2="640" y1="1013.4922" y2="1013.4922"/><line style="stroke:#181818;stroke-width:1.0;" x1="640" x2="640" y1="1013.4922" y2="1026.4922"/><line style="stroke:#181818;stroke-width:1.0;" x1="593" x2="640" y1="1026.4922" y2="1026.4922"/><polygon fill="#181818" points="603,1022.4922,593,1026.4922,603,1030.4922,599,1026.4922" style="stroke:#181818;stroke-width:1.0;"/><text fill="#000000" font-family="sans-serif" font-size="13" lengthAdjust="spacing" textLength="40" x="605" y="1008.4263">_reset</text><!--SRC=[jLHVQzDG57_FfxZWosIq7w0F4yUS24D6sPwio2KvPj7itd1psw5F5QUsTluPJhIb38KEosHCmPNIRlfbSfFioQ_WRH9BR5FRJCn3mZtd_iwVt_cTtAAPXUjWyoA3HODe1j5H3crWefcmIWt2WLqh0U45CXSTrwt0S1af8x3C0XeB92eVpkijiNlcT8_Savf__DRhlt7tczEny_Cvf1csXRcw4IHCWEI1QC2YkbOCcmC15Y331a9Sygs_m3EP7A9asEwLh8fDSmw2hWj4DDjH9Kl0GUMKUOrjqUovzUEVfpi54aCwtHufcgQY0LQvKS8SadFEmcIyes6qaLkNbfSNvJCRkLPOGvuMvJlB1fy4u1gs8cCULAeJus42mucNfeDNcR69sOE834MNDLX8l3fqcrMdMtQwXzxdVQTNzSjFt7STj_h2EMsurK_-nvsB9fJkTMiIcDv6uU2b7pbdFxozzY3pomDthoCgNmAxqwiv_Kwwz8EWTnZOm1Kv-_IbsvnQQmohz-L4RjoDoBf9LoZHWItHBV9l8N-pFod8g2GoOyg1JLg2u10NUbAyDFu_yuufCrdJUcYwoe3WhBq5O8dMjlVwgHII-xnyNkxxttSLR78aZjxBFHQjHbnbSdr5fHvAB4Iu9u-yTaq1qmOKMlp7JV6ibsPHiAg2nIFV_rBkRBgTHd-gueQgdXOrnfveVVM_7QHXZy4z-O-z47iZYpTHMxy0]--></g></svg>