<?xml version="1.0" encoding="us-ascii" standalone="no"?><svg xmlns="http://www.w3.org/2000/svg" xmlns:xlink="http://www.w3.org/1999/xlink" contentStyleType="text/css" height="334px" preserveAspectRatio="none" style="width:983px;height:334px;background:#FFFFFF;" version="1.1" viewBox="0 0 983 334" width="983px" zoomAndPan="magnify"><defs/><g><rect fill="#F0F8FF" height="322.5234" style="stroke:#181818;stroke-width:0.5;" width="893" x="84.5" y="6"/><text fill="#000000" font-family="sans-serif" font-size="13" font-weight="bold" lengthAdjust="spacing" textLength="32" x="512.5" y="18.0669">AMS</text><rect fill="#FFFFFF" height="29.1328" style="stroke:#181818;stroke-width:1.0;" width="10" x="142" y="87.5625"/><rect fill="#FFFFFF" height="59.1328" style="stroke:#181818;stroke-width:1.0;" width="10" x="142" y="217.0938"/><rect fill="#FFFFFF" height="29.1328" style="stroke:#181818;stroke-width:1.0;" width="10" x="392" y="116.6953"/><rect fill="#FFFFFF" height="101.2656" style="stroke:#181818;stroke-width:1.0;" width="10" x="657" y="145.8281"/><rect fill="#FFFFFF" height="64.1328" style="stroke:#181818;stroke-width:1.0;" width="10" x="662" y="182.9609"/><line style="stroke:#181818;stroke-width:0.5;stroke-dasharray:5.0,5.0;" x1="146.5" x2="146.5" y1="56.4297" y2="294.2266"/><line style="stroke:#181818;stroke-width:0.5;stroke-dasharray:5.0,5.0;" x1="397" x2="397" y1="56.4297" y2="294.2266"/><line style="stroke:#181818;stroke-width:0.5;stroke-dasharray:5.0,5.0;" x1="661.5" x2="661.5" y1="56.4297" y2="294.2266"/><line style="stroke:#181818;stroke-width:0.5;stroke-dasharray:5.0,5.0;" x1="883.5" x2="883.5" y1="56.4297" y2="294.2266"/><rect fill="#E2E2F0" height="30.2969" rx="2.5" ry="2.5" style="stroke:#181818;stroke-width:0.5;" width="117" x="88.5" y="25.1328"/><text fill="#000000" font-family="sans-serif" font-size="14" lengthAdjust="spacing" textLength="103" x="95.5" y="45.1279">TaskFragment</text><rect fill="#E2E2F0" height="30.2969" rx="2.5" ry="2.5" style="stroke:#181818;stroke-width:0.5;" width="117" x="88.5" y="293.2266"/><text fill="#000000" font-family="sans-serif" font-size="14" lengthAdjust="spacing" textLength="103" x="95.5" y="313.2217">TaskFragment</text><rect fill="#E2E2F0" height="30.2969" rx="2.5" ry="2.5" style="stroke:#181818;stroke-width:0.5;" width="176" x="309" y="25.1328"/><text fill="#000000" font-family="sans-serif" font-size="14" lengthAdjust="spacing" textLength="162" x="316" y="45.1279">RootWindowContainer</text><rect fill="#E2E2F0" height="30.2969" rx="2.5" ry="2.5" style="stroke:#181818;stroke-width:0.5;" width="176" x="309" y="293.2266"/><text fill="#000000" font-family="sans-serif" font-size="14" lengthAdjust="spacing" textLength="162" x="316" y="313.2217">RootWindowContainer</text><rect fill="#E2E2F0" height="30.2969" rx="2.5" ry="2.5" style="stroke:#181818;stroke-width:0.5;" width="47" x="638.5" y="25.1328"/><text fill="#000000" font-family="sans-serif" font-size="14" lengthAdjust="spacing" textLength="33" x="645.5" y="45.1279">Task</text><rect fill="#E2E2F0" height="30.2969" rx="2.5" ry="2.5" style="stroke:#181818;stroke-width:0.5;" width="47" x="638.5" y="293.2266"/><text fill="#000000" font-family="sans-serif" font-size="14" lengthAdjust="spacing" textLength="33" x="645.5" y="313.2217">Task</text><rect fill="#E2E2F0" height="30.2969" rx="2.5" ry="2.5" style="stroke:#181818;stroke-width:0.5;" width="179" x="794.5" y="25.1328"/><text fill="#000000" font-family="sans-serif" font-size="14" lengthAdjust="spacing" textLength="165" x="801.5" y="45.1279">ActivityTaskSupervisor</text><rect fill="#E2E2F0" height="30.2969" rx="2.5" ry="2.5" style="stroke:#181818;stroke-width:0.5;" width="179" x="794.5" y="293.2266"/><text fill="#000000" font-family="sans-serif" font-size="14" lengthAdjust="spacing" textLength="165" x="801.5" y="313.2217">ActivityTaskSupervisor</text><rect fill="#FFFFFF" height="29.1328" style="stroke:#181818;stroke-width:1.0;" width="10" x="142" y="87.5625"/><rect fill="#FFFFFF" height="59.1328" style="stroke:#181818;stroke-width:1.0;" width="10" x="142" y="217.0938"/><rect fill="#FFFFFF" height="29.1328" style="stroke:#181818;stroke-width:1.0;" width="10" x="392" y="116.6953"/><rect fill="#FFFFFF" height="101.2656" style="stroke:#181818;stroke-width:1.0;" width="10" x="657" y="145.8281"/><rect fill="#FFFFFF" height="64.1328" style="stroke:#181818;stroke-width:1.0;" width="10" x="662" y="182.9609"/><ellipse cx="7.5" cy="86.8125" fill="none" rx="4" ry="4" style="stroke:#181818;stroke-width:1.5;"/><polygon fill="#181818" points="130,83.5625,140,87.5625,130,91.5625,134,87.5625" style="stroke:#181818;stroke-width:1.0;"/><line style="stroke:#181818;stroke-width:1.0;" x1="12" x2="136" y1="87.5625" y2="87.5625"/><text fill="#000000" font-family="sans-serif" font-size="13" lengthAdjust="spacing" textLength="115" x="15" y="82.4966">&#9314; completePause</text><polygon fill="#181818" points="380,112.6953,390,116.6953,380,120.6953,384,116.6953" style="stroke:#181818;stroke-width:1.0;"/><line style="stroke:#181818;stroke-width:1.0;" x1="147" x2="386" y1="116.6953" y2="116.6953"/><text fill="#000000" font-family="sans-serif" font-size="13" lengthAdjust="spacing" textLength="221" x="154" y="111.6294">resumeFocusedTasksTopActivities</text><polygon fill="#181818" points="645,141.8281,655,145.8281,645,149.8281,649,145.8281" style="stroke:#181818;stroke-width:1.0;"/><line style="stroke:#181818;stroke-width:1.0;" x1="397" x2="651" y1="145.8281" y2="145.8281"/><text fill="#000000" font-family="sans-serif" font-size="13" lengthAdjust="spacing" textLength="236" x="404" y="140.7622">resumeTopActivityUncheckedLocked</text><line style="stroke:#181818;stroke-width:1.0;" x1="667" x2="714" y1="169.9609" y2="169.9609"/><line style="stroke:#181818;stroke-width:1.0;" x1="714" x2="714" y1="169.9609" y2="182.9609"/><line style="stroke:#181818;stroke-width:1.0;" x1="673" x2="714" y1="182.9609" y2="182.9609"/><polygon fill="#181818" points="683,178.9609,673,182.9609,683,186.9609,679,182.9609" style="stroke:#181818;stroke-width:1.0;"/><text fill="#000000" font-family="sans-serif" font-size="13" lengthAdjust="spacing" textLength="198" x="679" y="164.895">resumeTopActivityInnerLocked</text><polygon fill="#181818" points="163,213.0938,153,217.0938,163,221.0938,159,217.0938" style="stroke:#181818;stroke-width:1.0;"/><line style="stroke:#181818;stroke-width:1.0;" x1="157" x2="661" y1="217.0938" y2="217.0938"/><text fill="#000000" font-family="sans-serif" font-size="13" lengthAdjust="spacing" textLength="121" x="169" y="212.0278">resumeTopActivity</text><polygon fill="#181818" points="872,272.2266,882,276.2266,872,280.2266,876,276.2266" style="stroke:#181818;stroke-width:1.0;"/><line style="stroke:#181818;stroke-width:1.0;" x1="147" x2="878" y1="276.2266" y2="276.2266"/><text fill="#000000" font-family="sans-serif" font-size="13" lengthAdjust="spacing" textLength="143" x="154" y="271.1606">&#9315; startSpecificActivity</text><!--SRC=[RT1B2i8m40RWVKunu58ABiM58490K12hk70Lar63DbEIgOzZU0MzcIUnyKcrcv24_vj9Pab7w8rIQCYMR4if5fHqOQh2Ldgrpj0nD9iTk9qle2dBTyWuLaL0KOcKP4B4S-iC7VhaM5c77f8aMe-Xo52IBfc9B4mfxscsUyiMWwYLppTKAdpLQURq1lKMpP3YAfxPbwaL0rUMhKbNVlcdX44LjuhnaVux_qxX3UDzMkJezpPG74GSuHK2AyzfZjgkhFuqGMTWISSx]--></g></svg>