<?xml version="1.0" encoding="us-ascii" standalone="no"?><svg xmlns="http://www.w3.org/2000/svg" xmlns:xlink="http://www.w3.org/1999/xlink" contentStyleType="text/css" height="436px" preserveAspectRatio="none" style="width:572px;height:436px;background:#FFFFFF;" version="1.1" viewBox="0 0 572 436" width="572px" zoomAndPan="magnify"><defs/><g><!--cluster android--><g id="cluster_android"><path d="M211.5,47 L274.5,47 A3.75,3.75 0 0 1 277,49.5 L284,69.2969 L366.5,69.2969 A2.5,2.5 0 0 1 369,71.7969 L369,210.5 A2.5,2.5 0 0 1 366.5,213 L211.5,213 A2.5,2.5 0 0 1 209,210.5 L209,49.5 A2.5,2.5 0 0 1 211.5,47 " fill="none" style="stroke:#000000;stroke-width:1.5;"/><line style="stroke:#000000;stroke-width:1.5;" x1="209" x2="284" y1="69.2969" y2="69.2969"/><text fill="#000000" font-family="sans-serif" font-size="14" font-weight="bold" lengthAdjust="spacing" textLength="62" x="213" y="61.9951">android</text></g><!--cluster os--><g id="cluster_os"><path d="M235.5,90 L255.5,90 A3.75,3.75 0 0 1 258,92.5 L265,112.2969 L342.5,112.2969 A2.5,2.5 0 0 1 345,114.7969 L345,186.5 A2.5,2.5 0 0 1 342.5,189 L235.5,189 A2.5,2.5 0 0 1 233,186.5 L233,92.5 A2.5,2.5 0 0 1 235.5,90 " fill="none" style="stroke:#000000;stroke-width:1.5;"/><line style="stroke:#000000;stroke-width:1.5;" x1="233" x2="265" y1="112.2969" y2="112.2969"/><text fill="#000000" font-family="sans-serif" font-size="14" font-weight="bold" lengthAdjust="spacing" textLength="19" x="237" y="104.9951">os</text></g><!--class Binder--><g id="elem_Binder"><rect fill="#F1F1F1" height="48" id="Binder" rx="2.5" ry="2.5" style="stroke:#181818;stroke-width:0.5;" width="79" x="249.5" y="125"/><ellipse cx="264.5" cy="141" fill="#ADD1B2" rx="11" ry="11" style="stroke:#181818;stroke-width:1.0;"/><path d="M266.8438,136.6719 C265.9063,136.2344 265.3125,136.0938 264.4375,136.0938 C261.8125,136.0938 259.8125,138.1719 259.8125,140.8906 L259.8125,142.0156 C259.8125,144.5938 261.9219,146.4844 264.8125,146.4844 C266.0313,146.4844 267.1875,146.1875 267.9375,145.6406 C268.5156,145.2344 268.8438,144.7813 268.8438,144.3906 C268.8438,143.9375 268.4531,143.5469 267.9844,143.5469 C267.7656,143.5469 267.5625,143.625 267.375,143.8125 C266.9219,144.2969 266.9219,144.2969 266.7344,144.3906 C266.3125,144.6563 265.625,144.7813 264.8594,144.7813 C262.8125,144.7813 261.5156,143.6875 261.5156,141.9844 L261.5156,140.8906 C261.5156,139.1094 262.7656,137.7969 264.5,137.7969 C265.0781,137.7969 265.6875,137.9531 266.1563,138.2031 C266.6406,138.4844 266.8125,138.7031 266.9063,139.1094 C266.9688,139.5156 267,139.6406 267.1406,139.7656 C267.2813,139.9063 267.5156,140.0156 267.7344,140.0156 C268,140.0156 268.2656,139.875 268.4375,139.6563 C268.5469,139.5 268.5781,139.3125 268.5781,138.8906 L268.5781,137.4688 C268.5781,137.0313 268.5625,136.9063 268.4688,136.75 C268.3125,136.4844 268.0313,136.3438 267.7344,136.3438 C267.4375,136.3438 267.2344,136.4375 267.0156,136.75 L266.8438,136.6719 Z " fill="#000000"/><text fill="#000000" font-family="sans-serif" font-size="14" lengthAdjust="spacing" textLength="47" x="278.5" y="145.8467">Binder</text><line style="stroke:#181818;stroke-width:0.5;" x1="250.5" x2="327.5" y1="157" y2="157"/><line style="stroke:#181818;stroke-width:0.5;" x1="250.5" x2="327.5" y1="165" y2="165"/></g><!--class IActivityManager--><g id="elem_IActivityManager"><rect codeLine="1" fill="#F1F1F1" height="64.2969" id="IActivityManager" rx="2.5" ry="2.5" style="stroke:#181818;stroke-width:0.5;" width="182" x="11" y="117"/><ellipse cx="39.95" cy="133" fill="#B4A7E5" rx="11" ry="11" style="stroke:#181818;stroke-width:1.0;"/><path d="M40.9031,129.7813 L42.6219,129.7813 C43.0125,129.7813 43.2,129.75 43.325,129.6719 C43.5906,129.5156 43.7313,129.2344 43.7313,128.9375 C43.7313,128.6719 43.6219,128.4063 43.3875,128.2344 C43.2156,128.125 43.075,128.0938 42.6219,128.0938 L37.4813,128.0938 C37.0438,128.0938 36.9188,128.1094 36.7625,128.2031 C36.5125,128.3594 36.3563,128.6563 36.3563,128.9375 C36.3563,129.2188 36.4969,129.4688 36.7156,129.6406 C36.8719,129.75 37.0594,129.7813 37.4813,129.7813 L39.2,129.7813 L39.2,136.2969 L37.4813,136.2969 C37.0438,136.2969 36.9188,136.3125 36.7625,136.4219 C36.5125,136.5781 36.3563,136.8594 36.3563,137.1563 C36.3563,137.4063 36.4969,137.6719 36.7156,137.8281 C36.8719,137.9531 37.075,138 37.4813,138 L42.6219,138 C43.3719,138 43.7313,137.7188 43.7313,137.1563 C43.7313,136.875 43.6219,136.625 43.3875,136.4531 C43.2156,136.3281 43.075,136.2969 42.6219,136.2969 L40.9031,136.2969 L40.9031,129.7813 Z " fill="#000000"/><text fill="#000000" font-family="sans-serif" font-size="14" font-style="italic" lengthAdjust="spacing" textLength="119" x="57.05" y="137.8467">IActivityManager</text><line style="stroke:#181818;stroke-width:0.5;" x1="12" x2="192" y1="149" y2="149"/><line style="stroke:#181818;stroke-width:0.5;" x1="12" x2="192" y1="157" y2="157"/><text fill="#000000" font-family="sans-serif" font-size="14" lengthAdjust="spacing" textLength="170" x="17" y="173.9951">serviceDoneExecuting()</text></g><g id="elem_GMN3"><path d="M6,6 L6,31.1328 A0,0 0 0 0 6,31.1328 L98,31.1328 L102,116.853 L106,31.1328 L198,31.1328 A0,0 0 0 0 198,31.1328 L198,16 L188,6 L6,6 A0,0 0 0 0 6,6 " fill="#FEFFDD" style="stroke:#181818;stroke-width:0.5;"/><path d="M188,6 L188,16 L198,16 L188,6 " fill="#FEFFDD" style="stroke:#181818;stroke-width:0.5;"/><text fill="#000000" font-family="sans-serif" font-size="13" lengthAdjust="spacing" textLength="171" x="12" y="23.0669">&#30001;IActivityManager.aidl&#29983;&#25104;</text></g><!--class Stub--><g id="elem_Stub"><rect codeLine="5" fill="#F1F1F1" height="64.2969" id="Stub" rx="2.5" ry="2.5" style="stroke:#181818;stroke-width:0.5;" width="182" x="104" y="241"/><ellipse cx="174.75" cy="257" fill="#A9DCDF" rx="11" ry="11" style="stroke:#181818;stroke-width:1.0;"/><path d="M176.8281,258.8125 L177.2188,259.7969 L176.8281,259.7969 C176.375,259.7969 176.2656,259.8125 176.1094,259.9219 C175.8594,260.0781 175.7031,260.3594 175.7031,260.6563 C175.7031,260.9219 175.8438,261.1719 176.0625,261.3281 C176.2031,261.4531 176.4063,261.5 176.8281,261.5 L179.1875,261.5 C179.5469,261.5 179.7656,261.4688 179.9063,261.375 C180.1563,261.2344 180.3125,260.9375 180.3125,260.6563 C180.3125,260.375 180.1719,260.125 179.9531,259.9688 C179.7813,259.8281 179.625,259.7969 179.1563,259.7969 L175.7656,251.5938 L172.0938,251.5938 C171.6406,251.5938 171.5156,251.6094 171.3594,251.7031 C171.1094,251.875 170.9531,252.1563 170.9531,252.4375 C170.9531,252.7188 171.0938,252.9688 171.3125,253.1406 C171.4844,253.25 171.6563,253.2813 172.0938,253.2813 L173.1719,253.2813 L170.5313,259.7969 C170.1094,259.7969 169.9531,259.8125 169.7969,259.9219 C169.5469,260.0781 169.3906,260.3594 169.3906,260.6563 C169.3906,261.2188 169.7656,261.5 170.5156,261.5 L172.7813,261.5 C173.1406,261.5 173.3594,261.4688 173.4844,261.375 C173.75,261.2344 173.8906,260.9375 173.8906,260.6563 C173.8906,260.375 173.7656,260.125 173.5469,259.9531 C173.375,259.8281 173.2344,259.7969 172.7813,259.7969 L172.3906,259.7969 L172.7813,258.8125 L176.8281,258.8125 Z M176.125,257.1094 L173.4531,257.1094 L174.7969,253.8438 L176.125,257.1094 Z " fill="#000000"/><text fill="#000000" font-family="sans-serif" font-size="14" font-style="italic" lengthAdjust="spacing" textLength="32" x="195.25" y="261.8467">Stub</text><line style="stroke:#181818;stroke-width:0.5;" x1="105" x2="285" y1="273" y2="273"/><line style="stroke:#181818;stroke-width:0.5;" x1="105" x2="285" y1="281" y2="281"/><text fill="#000000" font-family="sans-serif" font-size="14" lengthAdjust="spacing" textLength="170" x="110" y="297.9951">serviceDoneExecuting()</text></g><g id="elem_GMN12"><path d="M321.5,253 L321.5,269 L286.289,273 L321.5,277 L321.5,293.2656 A0,0 0 0 0 321.5,293.2656 L448.5,293.2656 A0,0 0 0 0 448.5,293.2656 L448.5,263 L438.5,253 L321.5,253 A0,0 0 0 0 321.5,253 " fill="#FEFFDD" style="stroke:#181818;stroke-width:0.5;"/><path d="M438.5,253 L438.5,263 L448.5,263 L438.5,253 " fill="#FEFFDD" style="stroke:#181818;stroke-width:0.5;"/><text fill="#000000" font-family="sans-serif" font-size="13" lengthAdjust="spacing" textLength="106" x="327.5" y="270.0669">IActivityManager</text><text fill="#000000" font-family="sans-serif" font-size="13" lengthAdjust="spacing" textLength="65" x="327.5" y="285.1997">&#20869;&#37096;&#38745;&#24577;&#31867;</text></g><!--class ActivityManagerService--><g id="elem_ActivityManagerService"><rect fill="#F1F1F1" height="48" id="ActivityManagerService" rx="2.5" ry="2.5" style="stroke:#181818;stroke-width:0.5;" width="202" x="94" y="373"/><ellipse cx="109" cy="389" fill="#ADD1B2" rx="11" ry="11" style="stroke:#181818;stroke-width:1.0;"/><path d="M111.3438,384.6719 C110.4063,384.2344 109.8125,384.0938 108.9375,384.0938 C106.3125,384.0938 104.3125,386.1719 104.3125,388.8906 L104.3125,390.0156 C104.3125,392.5938 106.4219,394.4844 109.3125,394.4844 C110.5313,394.4844 111.6875,394.1875 112.4375,393.6406 C113.0156,393.2344 113.3438,392.7813 113.3438,392.3906 C113.3438,391.9375 112.9531,391.5469 112.4844,391.5469 C112.2656,391.5469 112.0625,391.625 111.875,391.8125 C111.4219,392.2969 111.4219,392.2969 111.2344,392.3906 C110.8125,392.6563 110.125,392.7813 109.3594,392.7813 C107.3125,392.7813 106.0156,391.6875 106.0156,389.9844 L106.0156,388.8906 C106.0156,387.1094 107.2656,385.7969 109,385.7969 C109.5781,385.7969 110.1875,385.9531 110.6563,386.2031 C111.1406,386.4844 111.3125,386.7031 111.4063,387.1094 C111.4688,387.5156 111.5,387.6406 111.6406,387.7656 C111.7813,387.9063 112.0156,388.0156 112.2344,388.0156 C112.5,388.0156 112.7656,387.875 112.9375,387.6563 C113.0469,387.5 113.0781,387.3125 113.0781,386.8906 L113.0781,385.4688 C113.0781,385.0313 113.0625,384.9063 112.9688,384.75 C112.8125,384.4844 112.5313,384.3438 112.2344,384.3438 C111.9375,384.3438 111.7344,384.4375 111.5156,384.75 L111.3438,384.6719 Z " fill="#000000"/><text fill="#000000" font-family="sans-serif" font-size="14" lengthAdjust="spacing" textLength="170" x="123" y="393.8467">ActivityManagerService</text><line style="stroke:#181818;stroke-width:0.5;" x1="95" x2="295" y1="405" y2="405"/><line style="stroke:#181818;stroke-width:0.5;" x1="95" x2="295" y1="413" y2="413"/></g><!--class ActiveServices--><g id="elem_ActiveServices"><rect codeLine="12" fill="#F1F1F1" height="64.2969" id="ActiveServices" rx="2.5" ry="2.5" style="stroke:#181818;stroke-width:0.5;" width="234" x="331" y="365"/><ellipse cx="390.75" cy="381" fill="#ADD1B2" rx="11" ry="11" style="stroke:#181818;stroke-width:1.0;"/><path d="M393.0938,376.6719 C392.1563,376.2344 391.5625,376.0938 390.6875,376.0938 C388.0625,376.0938 386.0625,378.1719 386.0625,380.8906 L386.0625,382.0156 C386.0625,384.5938 388.1719,386.4844 391.0625,386.4844 C392.2813,386.4844 393.4375,386.1875 394.1875,385.6406 C394.7656,385.2344 395.0938,384.7813 395.0938,384.3906 C395.0938,383.9375 394.7031,383.5469 394.2344,383.5469 C394.0156,383.5469 393.8125,383.625 393.625,383.8125 C393.1719,384.2969 393.1719,384.2969 392.9844,384.3906 C392.5625,384.6563 391.875,384.7813 391.1094,384.7813 C389.0625,384.7813 387.7656,383.6875 387.7656,381.9844 L387.7656,380.8906 C387.7656,379.1094 389.0156,377.7969 390.75,377.7969 C391.3281,377.7969 391.9375,377.9531 392.4063,378.2031 C392.8906,378.4844 393.0625,378.7031 393.1563,379.1094 C393.2188,379.5156 393.25,379.6406 393.3906,379.7656 C393.5313,379.9063 393.7656,380.0156 393.9844,380.0156 C394.25,380.0156 394.5156,379.875 394.6875,379.6563 C394.7969,379.5 394.8281,379.3125 394.8281,378.8906 L394.8281,377.4688 C394.8281,377.0313 394.8125,376.9063 394.7188,376.75 C394.5625,376.4844 394.2813,376.3438 393.9844,376.3438 C393.6875,376.3438 393.4844,376.4375 393.2656,376.75 L393.0938,376.6719 Z " fill="#000000"/><text fill="#000000" font-family="sans-serif" font-size="14" lengthAdjust="spacing" textLength="106" x="411.25" y="385.8467">ActiveServices</text><line style="stroke:#181818;stroke-width:0.5;" x1="332" x2="564" y1="397" y2="397"/><line style="stroke:#181818;stroke-width:0.5;" x1="332" x2="564" y1="405" y2="405"/><text fill="#000000" font-family="sans-serif" font-size="14" lengthAdjust="spacing" textLength="222" x="337" y="421.9951">serviceDoneExecutingLocked()</text></g><!--reverse link IActivityManager to Stub--><g id="link_IActivityManager_Stub"><path codeLine="8" d="M136.6205,195.416 C150.6135,213.772 157.35,222.61 171.335,240.955 " fill="none" id="IActivityManager-backto-Stub" style="stroke:#181818;stroke-width:1.0;"/><polygon fill="none" points="125.708,181.101,131.8488,199.0534,141.3921,191.7785,125.708,181.101" style="stroke:#181818;stroke-width:1.0;"/></g><!--reverse link Binder to Stub--><g id="link_Binder_Stub"><path codeLine="9" d="M260.1122,187.4927 C245.4102,206.5747 235.431,219.525 219.228,240.555 " fill="none" id="Binder-backto-Stub" style="stroke:#181818;stroke-width:1.0;"/><polygon fill="none" points="271.098,173.234,255.3593,183.8308,264.8651,191.1547,271.098,173.234" style="stroke:#181818;stroke-width:1.0;"/></g><!--reverse link Stub to ActivityManagerService--><g id="link_Stub_ActivityManagerService"><path codeLine="11" d="M195,323.101 C195,344.139 195,353.4806 195,372.6609 " fill="none" id="Stub-backto-ActivityManagerService" style="stroke:#181818;stroke-width:1.0;"/><polygon fill="none" points="195,305.101,189,323.101,201,323.101,195,305.101" style="stroke:#181818;stroke-width:1.0;"/></g><!--reverse link ActivityManagerService to ActiveServices--><g id="link_ActivityManagerService_ActiveServices"><path codeLine="15" d="M308.299,397 C319.854,397 319.41,397 330.965,397 " fill="none" id="ActivityManagerService-backto-ActiveServices" style="stroke:#181818;stroke-width:1.0;"/><polygon fill="#181818" points="296.299,397,302.299,401,308.299,397,302.299,393,296.299,397" style="stroke:#181818;stroke-width:1.0;"/></g><!--SRC=[oymhIIrAIqnELV1qJ2x9BCiigVHDp4jCJorIgEPI08BYrAAopEHKb_oyLDUArEJIaioyT0rDhbgklFoIL8MI_0A5_3HClLOApwTiH1VLIynCoNa-PVwpZWbSYKd59KM9oIKAmIMbIOIimZ3UfaPN5woJAp4lfIW_CqKllrZFAJCl1KKExCAYpFIC4f0RmHPPOJWr9kzfM-lBvXKlvyvyrj3uVEDkBh12i2beIeCXxkDApaaiBeP8faB5Yl5umIS_EJir1UmHx0OgQEcYcGO0]--></g></svg>