<?xml version="1.0" encoding="us-ascii" standalone="no"?><svg xmlns="http://www.w3.org/2000/svg" xmlns:xlink="http://www.w3.org/1999/xlink" contentStyleType="text/css" height="281px" preserveAspectRatio="none" style="width:342px;height:281px;background:#FFFFFF;" version="1.1" viewBox="0 0 342 281" width="342px" zoomAndPan="magnify"><defs/><g><!--class BasePool--><g id="elem_BasePool"><rect codeLine="1" fill="#F1F1F1" height="48" id="BasePool" rx="2.5" ry="2.5" style="stroke:#181818;stroke-width:0.5;" width="160" x="7" y="118"/><ellipse cx="22" cy="134" fill="#ADD1B2" rx="11" ry="11" style="stroke:#181818;stroke-width:1.0;"/><path d="M24.3438,129.6719 C23.4063,129.2344 22.8125,129.0938 21.9375,129.0938 C19.3125,129.0938 17.3125,131.1719 17.3125,133.8906 L17.3125,135.0156 C17.3125,137.5938 19.4219,139.4844 22.3125,139.4844 C23.5313,139.4844 24.6875,139.1875 25.4375,138.6406 C26.0156,138.2344 26.3438,137.7813 26.3438,137.3906 C26.3438,136.9375 25.9531,136.5469 25.4844,136.5469 C25.2656,136.5469 25.0625,136.625 24.875,136.8125 C24.4219,137.2969 24.4219,137.2969 24.2344,137.3906 C23.8125,137.6563 23.125,137.7813 22.3594,137.7813 C20.3125,137.7813 19.0156,136.6875 19.0156,134.9844 L19.0156,133.8906 C19.0156,132.1094 20.2656,130.7969 22,130.7969 C22.5781,130.7969 23.1875,130.9531 23.6563,131.2031 C24.1406,131.4844 24.3125,131.7031 24.4063,132.1094 C24.4688,132.5156 24.5,132.6406 24.6406,132.7656 C24.7813,132.9063 25.0156,133.0156 25.2344,133.0156 C25.5,133.0156 25.7656,132.875 25.9375,132.6563 C26.0469,132.5 26.0781,132.3125 26.0781,131.8906 L26.0781,130.4688 C26.0781,130.0313 26.0625,129.9063 25.9688,129.75 C25.8125,129.4844 25.5313,129.3438 25.2344,129.3438 C24.9375,129.3438 24.7344,129.4375 24.5156,129.75 L24.3438,129.6719 Z " fill="#000000"/><text fill="#000000" font-family="sans-serif" font-size="14" lengthAdjust="spacing" textLength="65" x="36" y="138.8467">BasePool</text><rect fill="#FFFFFF" height="15.9688" style="stroke:#181818;stroke-width:1.0;stroke-dasharray:2.0,2.0;" width="61" x="109" y="115"/><text fill="#000000" font-family="sans-serif" font-size="12" font-style="italic" lengthAdjust="spacing" textLength="59" x="110" y="127.1387">ByteArray</text><line style="stroke:#181818;stroke-width:0.5;" x1="8" x2="166" y1="150" y2="150"/><line style="stroke:#181818;stroke-width:0.5;" x1="8" x2="166" y1="158" y2="158"/></g><!--class Pool--><g id="elem_Pool"><rect codeLine="2" fill="#F1F1F1" height="48" id="Pool" rx="2.5" ry="2.5" style="stroke:#181818;stroke-width:0.5;" width="107" x="215.5" y="10"/><ellipse cx="230.5" cy="26" fill="#B4A7E5" rx="11" ry="11" style="stroke:#181818;stroke-width:1.0;"/><path d="M231.4531,22.7813 L233.1719,22.7813 C233.5625,22.7813 233.75,22.75 233.875,22.6719 C234.1406,22.5156 234.2813,22.2344 234.2813,21.9375 C234.2813,21.6719 234.1719,21.4063 233.9375,21.2344 C233.7656,21.125 233.625,21.0938 233.1719,21.0938 L228.0313,21.0938 C227.5938,21.0938 227.4688,21.1094 227.3125,21.2031 C227.0625,21.3594 226.9063,21.6563 226.9063,21.9375 C226.9063,22.2188 227.0469,22.4688 227.2656,22.6406 C227.4219,22.75 227.6094,22.7813 228.0313,22.7813 L229.75,22.7813 L229.75,29.2969 L228.0313,29.2969 C227.5938,29.2969 227.4688,29.3125 227.3125,29.4219 C227.0625,29.5781 226.9063,29.8594 226.9063,30.1563 C226.9063,30.4063 227.0469,30.6719 227.2656,30.8281 C227.4219,30.9531 227.625,31 228.0313,31 L233.1719,31 C233.9219,31 234.2813,30.7188 234.2813,30.1563 C234.2813,29.875 234.1719,29.625 233.9375,29.4531 C233.7656,29.3281 233.625,29.2969 233.1719,29.2969 L231.4531,29.2969 L231.4531,22.7813 Z " fill="#000000"/><text fill="#000000" font-family="sans-serif" font-size="14" font-style="italic" lengthAdjust="spacing" textLength="30" x="244.5" y="30.8467">Pool</text><rect fill="#FFFFFF" height="15.9688" style="stroke:#181818;stroke-width:1.0;stroke-dasharray:2.0,2.0;" width="43" x="282.5" y="7"/><text fill="#000000" font-family="sans-serif" font-size="12" font-style="italic" lengthAdjust="spacing" textLength="41" x="283.5" y="19.1387">byte []</text><line style="stroke:#181818;stroke-width:0.5;" x1="216.5" x2="321.5" y1="42" y2="42"/><line style="stroke:#181818;stroke-width:0.5;" x1="216.5" x2="321.5" y1="50" y2="50"/></g><!--class ByteArrayPool--><g id="elem_ByteArrayPool"><rect codeLine="3" fill="#F1F1F1" height="48" id="ByteArrayPool" rx="2.5" ry="2.5" style="stroke:#181818;stroke-width:0.5;" width="133" x="202.5" y="118"/><ellipse cx="217.5" cy="134" fill="#B4A7E5" rx="11" ry="11" style="stroke:#181818;stroke-width:1.0;"/><path d="M218.4531,130.7813 L220.1719,130.7813 C220.5625,130.7813 220.75,130.75 220.875,130.6719 C221.1406,130.5156 221.2813,130.2344 221.2813,129.9375 C221.2813,129.6719 221.1719,129.4063 220.9375,129.2344 C220.7656,129.125 220.625,129.0938 220.1719,129.0938 L215.0313,129.0938 C214.5938,129.0938 214.4688,129.1094 214.3125,129.2031 C214.0625,129.3594 213.9063,129.6563 213.9063,129.9375 C213.9063,130.2188 214.0469,130.4688 214.2656,130.6406 C214.4219,130.75 214.6094,130.7813 215.0313,130.7813 L216.75,130.7813 L216.75,137.2969 L215.0313,137.2969 C214.5938,137.2969 214.4688,137.3125 214.3125,137.4219 C214.0625,137.5781 213.9063,137.8594 213.9063,138.1563 C213.9063,138.4063 214.0469,138.6719 214.2656,138.8281 C214.4219,138.9531 214.625,139 215.0313,139 L220.1719,139 C220.9219,139 221.2813,138.7188 221.2813,138.1563 C221.2813,137.875 221.1719,137.625 220.9375,137.4531 C220.7656,137.3281 220.625,137.2969 220.1719,137.2969 L218.4531,137.2969 L218.4531,130.7813 Z " fill="#000000"/><text fill="#000000" font-family="sans-serif" font-size="14" font-style="italic" lengthAdjust="spacing" textLength="101" x="231.5" y="138.8467">ByteArrayPool</text><line style="stroke:#181818;stroke-width:0.5;" x1="203.5" x2="334.5" y1="150" y2="150"/><line style="stroke:#181818;stroke-width:0.5;" x1="203.5" x2="334.5" y1="158" y2="158"/></g><!--class GenericByteArrayPool--><g id="elem_GenericByteArrayPool"><rect fill="#F1F1F1" height="48" id="GenericByteArrayPool" rx="2.5" ry="2.5" style="stroke:#181818;stroke-width:0.5;" width="191" x="82.5" y="226"/><ellipse cx="97.5" cy="242" fill="#ADD1B2" rx="11" ry="11" style="stroke:#181818;stroke-width:1.0;"/><path d="M99.8438,237.6719 C98.9063,237.2344 98.3125,237.0938 97.4375,237.0938 C94.8125,237.0938 92.8125,239.1719 92.8125,241.8906 L92.8125,243.0156 C92.8125,245.5938 94.9219,247.4844 97.8125,247.4844 C99.0313,247.4844 100.1875,247.1875 100.9375,246.6406 C101.5156,246.2344 101.8438,245.7813 101.8438,245.3906 C101.8438,244.9375 101.4531,244.5469 100.9844,244.5469 C100.7656,244.5469 100.5625,244.625 100.375,244.8125 C99.9219,245.2969 99.9219,245.2969 99.7344,245.3906 C99.3125,245.6563 98.625,245.7813 97.8594,245.7813 C95.8125,245.7813 94.5156,244.6875 94.5156,242.9844 L94.5156,241.8906 C94.5156,240.1094 95.7656,238.7969 97.5,238.7969 C98.0781,238.7969 98.6875,238.9531 99.1563,239.2031 C99.6406,239.4844 99.8125,239.7031 99.9063,240.1094 C99.9688,240.5156 100,240.6406 100.1406,240.7656 C100.2813,240.9063 100.5156,241.0156 100.7344,241.0156 C101,241.0156 101.2656,240.875 101.4375,240.6563 C101.5469,240.5 101.5781,240.3125 101.5781,239.8906 L101.5781,238.4688 C101.5781,238.0313 101.5625,237.9063 101.4688,237.75 C101.3125,237.4844 101.0313,237.3438 100.7344,237.3438 C100.4375,237.3438 100.2344,237.4375 100.0156,237.75 L99.8438,237.6719 Z " fill="#000000"/><text fill="#000000" font-family="sans-serif" font-size="14" lengthAdjust="spacing" textLength="159" x="111.5" y="246.8467">GenericByteArrayPool</text><line style="stroke:#181818;stroke-width:0.5;" x1="83.5" x2="272.5" y1="258" y2="258"/><line style="stroke:#181818;stroke-width:0.5;" x1="83.5" x2="272.5" y1="266" y2="266"/></g><!--reverse link Pool to ByteArrayPool--><g id="link_Pool_ByteArrayPool"><path codeLine="4" d="M269,76 C269,93.658 269,99.941 269,117.678 " fill="none" id="Pool-backto-ByteArrayPool" style="stroke:#181818;stroke-width:1.0;"/><polygon fill="none" points="269,58,263,76,275,76,269,58" style="stroke:#181818;stroke-width:1.0;"/></g><!--reverse link ByteArrayPool to GenericByteArrayPool--><g id="link_ByteArrayPool_GenericByteArrayPool"><path codeLine="5" d="M237.5294,179.6577 C222.3704,197.3161 213.249,207.9408 198.021,225.6784 " fill="none" id="ByteArrayPool-backto-GenericByteArrayPool" style="stroke:#181818;stroke-width:1.0;"/><polygon fill="none" points="249.254,166,232.9768,175.7495,242.082,183.5659,249.254,166" style="stroke:#181818;stroke-width:1.0;"/></g><!--reverse link BasePool to GenericByteArrayPool--><g id="link_BasePool_GenericByteArrayPool"><path codeLine="6" d="M118.4704,179.6576 C133.6298,197.316 142.751,207.9408 157.979,225.6784 " fill="none" id="BasePool-backto-GenericByteArrayPool" style="stroke:#181818;stroke-width:1.0;"/><polygon fill="none" points="106.7456,166,113.9178,183.5658,123.0229,175.7493,106.7456,166" style="stroke:#181818;stroke-width:1.0;"/></g><!--SRC=[Iyv9B2vMS4eiJWt8py-nSQeiINKiAagijEFAp2j9BKfBJ4vL0Cia0MKKecEHnU6AGGguG8I2JOskBfeu2W-Ym3qrBxKeCnbD7TGDk9K00000]--></g></svg>