<?xml version="1.0" encoding="us-ascii" standalone="no"?><svg xmlns="http://www.w3.org/2000/svg" xmlns:xlink="http://www.w3.org/1999/xlink" contentStyleType="text/css" height="328px" preserveAspectRatio="none" style="width:603px;height:328px;background:#FFFFFF;" version="1.1" viewBox="0 0 603 328" width="603px" zoomAndPan="magnify"><defs/><g><!--class ViewModel--><g id="elem_ViewModel"><rect codeLine="1" fill="#F1F1F1" height="64.2969" id="ViewModel" rx="2.5" ry="2.5" style="stroke:#181818;stroke-width:0.5;" width="129" x="61" y="7"/><ellipse cx="85" cy="23" fill="#A9DCDF" rx="11" ry="11" style="stroke:#181818;stroke-width:1.0;"/><path d="M87.0781,24.8125 L87.4688,25.7969 L87.0781,25.7969 C86.625,25.7969 86.5156,25.8125 86.3594,25.9219 C86.1094,26.0781 85.9531,26.3594 85.9531,26.6563 C85.9531,26.9219 86.0938,27.1719 86.3125,27.3281 C86.4531,27.4531 86.6563,27.5 87.0781,27.5 L89.4375,27.5 C89.7969,27.5 90.0156,27.4688 90.1563,27.375 C90.4063,27.2344 90.5625,26.9375 90.5625,26.6563 C90.5625,26.375 90.4219,26.125 90.2031,25.9688 C90.0313,25.8281 89.875,25.7969 89.4063,25.7969 L86.0156,17.5938 L82.3438,17.5938 C81.8906,17.5938 81.7656,17.6094 81.6094,17.7031 C81.3594,17.875 81.2031,18.1563 81.2031,18.4375 C81.2031,18.7188 81.3438,18.9688 81.5625,19.1406 C81.7344,19.25 81.9063,19.2813 82.3438,19.2813 L83.4219,19.2813 L80.7813,25.7969 C80.3594,25.7969 80.2031,25.8125 80.0469,25.9219 C79.7969,26.0781 79.6406,26.3594 79.6406,26.6563 C79.6406,27.2188 80.0156,27.5 80.7656,27.5 L83.0313,27.5 C83.3906,27.5 83.6094,27.4688 83.7344,27.375 C84,27.2344 84.1406,26.9375 84.1406,26.6563 C84.1406,26.375 84.0156,26.125 83.7969,25.9531 C83.625,25.8281 83.4844,25.7969 83.0313,25.7969 L82.6406,25.7969 L83.0313,24.8125 L87.0781,24.8125 Z M86.375,23.1094 L83.7031,23.1094 L85.0469,19.8438 L86.375,23.1094 Z " fill="#000000"/><text fill="#000000" font-family="sans-serif" font-size="14" font-style="italic" lengthAdjust="spacing" textLength="77" x="101" y="27.8467">ViewModel</text><line style="stroke:#181818;stroke-width:0.5;" x1="62" x2="189" y1="39" y2="39"/><line style="stroke:#181818;stroke-width:0.5;" x1="62" x2="189" y1="47" y2="47"/><text fill="#000000" font-family="sans-serif" font-size="14" lengthAdjust="spacing" textLength="117" x="67" y="63.9951">void onCleared()</text></g><!--class ViewModelClearedWatcher--><g id="elem_ViewModelClearedWatcher"><rect codeLine="4" fill="#F5DEB3" height="48" id="ViewModelClearedWatcher" rx="2.5" ry="2.5" style="stroke:#181818;stroke-width:0.5;" width="225" x="13" y="132"/><ellipse cx="28" cy="148" fill="#ADD1B2" rx="11" ry="11" style="stroke:#181818;stroke-width:1.0;"/><path d="M30.3438,143.6719 C29.4063,143.2344 28.8125,143.0938 27.9375,143.0938 C25.3125,143.0938 23.3125,145.1719 23.3125,147.8906 L23.3125,149.0156 C23.3125,151.5938 25.4219,153.4844 28.3125,153.4844 C29.5313,153.4844 30.6875,153.1875 31.4375,152.6406 C32.0156,152.2344 32.3438,151.7813 32.3438,151.3906 C32.3438,150.9375 31.9531,150.5469 31.4844,150.5469 C31.2656,150.5469 31.0625,150.625 30.875,150.8125 C30.4219,151.2969 30.4219,151.2969 30.2344,151.3906 C29.8125,151.6563 29.125,151.7813 28.3594,151.7813 C26.3125,151.7813 25.0156,150.6875 25.0156,148.9844 L25.0156,147.8906 C25.0156,146.1094 26.2656,144.7969 28,144.7969 C28.5781,144.7969 29.1875,144.9531 29.6563,145.2031 C30.1406,145.4844 30.3125,145.7031 30.4063,146.1094 C30.4688,146.5156 30.5,146.6406 30.6406,146.7656 C30.7813,146.9063 31.0156,147.0156 31.2344,147.0156 C31.5,147.0156 31.7656,146.875 31.9375,146.6563 C32.0469,146.5 32.0781,146.3125 32.0781,145.8906 L32.0781,144.4688 C32.0781,144.0313 32.0625,143.9063 31.9688,143.75 C31.8125,143.4844 31.5313,143.3438 31.2344,143.3438 C30.9375,143.3438 30.7344,143.4375 30.5156,143.75 L30.3438,143.6719 Z " fill="#000000"/><text fill="#000000" font-family="sans-serif" font-size="14" lengthAdjust="spacing" textLength="193" x="42" y="152.8467">ViewModelClearedWatcher</text><line style="stroke:#181818;stroke-width:0.5;" x1="14" x2="237" y1="164" y2="164"/><line style="stroke:#181818;stroke-width:0.5;" x1="14" x2="237" y1="172" y2="172"/></g><!--class ViewModelStoreOwner--><g id="elem_ViewModelStoreOwner"><rect codeLine="6" fill="#F1F1F1" height="64.2969" id="ViewModelStoreOwner" rx="2.5" ry="2.5" style="stroke:#181818;stroke-width:0.5;" width="285" x="255" y="7"/><ellipse cx="312.75" cy="23" fill="#B4A7E5" rx="11" ry="11" style="stroke:#181818;stroke-width:1.0;"/><path d="M313.7031,19.7813 L315.4219,19.7813 C315.8125,19.7813 316,19.75 316.125,19.6719 C316.3906,19.5156 316.5313,19.2344 316.5313,18.9375 C316.5313,18.6719 316.4219,18.4063 316.1875,18.2344 C316.0156,18.125 315.875,18.0938 315.4219,18.0938 L310.2813,18.0938 C309.8438,18.0938 309.7188,18.1094 309.5625,18.2031 C309.3125,18.3594 309.1563,18.6563 309.1563,18.9375 C309.1563,19.2188 309.2969,19.4688 309.5156,19.6406 C309.6719,19.75 309.8594,19.7813 310.2813,19.7813 L312,19.7813 L312,26.2969 L310.2813,26.2969 C309.8438,26.2969 309.7188,26.3125 309.5625,26.4219 C309.3125,26.5781 309.1563,26.8594 309.1563,27.1563 C309.1563,27.4063 309.2969,27.6719 309.5156,27.8281 C309.6719,27.9531 309.875,28 310.2813,28 L315.4219,28 C316.1719,28 316.5313,27.7188 316.5313,27.1563 C316.5313,26.875 316.4219,26.625 316.1875,26.4531 C316.0156,26.3281 315.875,26.2969 315.4219,26.2969 L313.7031,26.2969 L313.7031,19.7813 Z " fill="#000000"/><text fill="#000000" font-family="sans-serif" font-size="14" font-style="italic" lengthAdjust="spacing" textLength="161" x="333.25" y="27.8467">ViewModelStoreOwner</text><line style="stroke:#181818;stroke-width:0.5;" x1="256" x2="539" y1="39" y2="39"/><line style="stroke:#181818;stroke-width:0.5;" x1="256" x2="539" y1="47" y2="47"/><text fill="#000000" font-family="sans-serif" font-size="14" lengthAdjust="spacing" textLength="273" x="261" y="63.9951">ViewModelStore getViewModelStore()</text></g><!--class FragmentActivity--><g id="elem_FragmentActivity"><rect fill="#F1F1F1" height="48" id="FragmentActivity" rx="2.5" ry="2.5" style="stroke:#181818;stroke-width:0.5;" width="158" x="410.5" y="132"/><ellipse cx="425.5" cy="148" fill="#ADD1B2" rx="11" ry="11" style="stroke:#181818;stroke-width:1.0;"/><path d="M427.8438,143.6719 C426.9063,143.2344 426.3125,143.0938 425.4375,143.0938 C422.8125,143.0938 420.8125,145.1719 420.8125,147.8906 L420.8125,149.0156 C420.8125,151.5938 422.9219,153.4844 425.8125,153.4844 C427.0313,153.4844 428.1875,153.1875 428.9375,152.6406 C429.5156,152.2344 429.8438,151.7813 429.8438,151.3906 C429.8438,150.9375 429.4531,150.5469 428.9844,150.5469 C428.7656,150.5469 428.5625,150.625 428.375,150.8125 C427.9219,151.2969 427.9219,151.2969 427.7344,151.3906 C427.3125,151.6563 426.625,151.7813 425.8594,151.7813 C423.8125,151.7813 422.5156,150.6875 422.5156,148.9844 L422.5156,147.8906 C422.5156,146.1094 423.7656,144.7969 425.5,144.7969 C426.0781,144.7969 426.6875,144.9531 427.1563,145.2031 C427.6406,145.4844 427.8125,145.7031 427.9063,146.1094 C427.9688,146.5156 428,146.6406 428.1406,146.7656 C428.2813,146.9063 428.5156,147.0156 428.7344,147.0156 C429,147.0156 429.2656,146.875 429.4375,146.6563 C429.5469,146.5 429.5781,146.3125 429.5781,145.8906 L429.5781,144.4688 C429.5781,144.0313 429.5625,143.9063 429.4688,143.75 C429.3125,143.4844 429.0313,143.3438 428.7344,143.3438 C428.4375,143.3438 428.2344,143.4375 428.0156,143.75 L427.8438,143.6719 Z " fill="#000000"/><text fill="#000000" font-family="sans-serif" font-size="14" lengthAdjust="spacing" textLength="126" x="439.5" y="152.8467">FragmentActivity</text><line style="stroke:#181818;stroke-width:0.5;" x1="411.5" x2="567.5" y1="164" y2="164"/><line style="stroke:#181818;stroke-width:0.5;" x1="411.5" x2="567.5" y1="172" y2="172"/></g><!--class ViewModelStore1--><g id="elem_ViewModelStore1"><rect codeLine="10" fill="#F1F1F1" height="64.2969" id="ViewModelStore1" rx="2.5" ry="2.5" style="stroke:#181818;stroke-width:0.5;" width="275" x="321" y="257"/><ellipse cx="395.75" cy="273" fill="#ADD1B2" rx="11" ry="11" style="stroke:#181818;stroke-width:1.0;"/><path d="M398.0938,268.6719 C397.1563,268.2344 396.5625,268.0938 395.6875,268.0938 C393.0625,268.0938 391.0625,270.1719 391.0625,272.8906 L391.0625,274.0156 C391.0625,276.5938 393.1719,278.4844 396.0625,278.4844 C397.2813,278.4844 398.4375,278.1875 399.1875,277.6406 C399.7656,277.2344 400.0938,276.7813 400.0938,276.3906 C400.0938,275.9375 399.7031,275.5469 399.2344,275.5469 C399.0156,275.5469 398.8125,275.625 398.625,275.8125 C398.1719,276.2969 398.1719,276.2969 397.9844,276.3906 C397.5625,276.6563 396.875,276.7813 396.1094,276.7813 C394.0625,276.7813 392.7656,275.6875 392.7656,273.9844 L392.7656,272.8906 C392.7656,271.1094 394.0156,269.7969 395.75,269.7969 C396.3281,269.7969 396.9375,269.9531 397.4063,270.2031 C397.8906,270.4844 398.0625,270.7031 398.1563,271.1094 C398.2188,271.5156 398.25,271.6406 398.3906,271.7656 C398.5313,271.9063 398.7656,272.0156 398.9844,272.0156 C399.25,272.0156 399.5156,271.875 399.6875,271.6563 C399.7969,271.5 399.8281,271.3125 399.8281,270.8906 L399.8281,269.4688 C399.8281,269.0313 399.8125,268.9063 399.7188,268.75 C399.5625,268.4844 399.2813,268.3438 398.9844,268.3438 C398.6875,268.3438 398.4844,268.4375 398.2656,268.75 L398.0938,268.6719 Z " fill="#000000"/><text fill="#000000" font-family="sans-serif" font-size="14" lengthAdjust="spacing" textLength="117" x="416.25" y="277.8467">ViewModelStore</text><line style="stroke:#181818;stroke-width:0.5;" x1="322" x2="595" y1="289" y2="289"/><text fill="#000000" font-family="sans-serif" font-size="14" lengthAdjust="spacing" textLength="263" x="327" y="305.9951">HashMap&lt;String, ViewModel&gt; mMap</text><line style="stroke:#181818;stroke-width:0.5;" x1="322" x2="595" y1="313.2969" y2="313.2969"/></g><!--class ViewModelStore2--><g id="elem_ViewModelStore2"><rect codeLine="15" fill="#F1F1F1" height="64.2969" id="ViewModelStore2" rx="2.5" ry="2.5" style="stroke:#181818;stroke-width:0.5;" width="275" x="7" y="257"/><ellipse cx="81.75" cy="273" fill="#ADD1B2" rx="11" ry="11" style="stroke:#181818;stroke-width:1.0;"/><path d="M84.0938,268.6719 C83.1563,268.2344 82.5625,268.0938 81.6875,268.0938 C79.0625,268.0938 77.0625,270.1719 77.0625,272.8906 L77.0625,274.0156 C77.0625,276.5938 79.1719,278.4844 82.0625,278.4844 C83.2813,278.4844 84.4375,278.1875 85.1875,277.6406 C85.7656,277.2344 86.0938,276.7813 86.0938,276.3906 C86.0938,275.9375 85.7031,275.5469 85.2344,275.5469 C85.0156,275.5469 84.8125,275.625 84.625,275.8125 C84.1719,276.2969 84.1719,276.2969 83.9844,276.3906 C83.5625,276.6563 82.875,276.7813 82.1094,276.7813 C80.0625,276.7813 78.7656,275.6875 78.7656,273.9844 L78.7656,272.8906 C78.7656,271.1094 80.0156,269.7969 81.75,269.7969 C82.3281,269.7969 82.9375,269.9531 83.4063,270.2031 C83.8906,270.4844 84.0625,270.7031 84.1563,271.1094 C84.2188,271.5156 84.25,271.6406 84.3906,271.7656 C84.5313,271.9063 84.7656,272.0156 84.9844,272.0156 C85.25,272.0156 85.5156,271.875 85.6875,271.6563 C85.7969,271.5 85.8281,271.3125 85.8281,270.8906 L85.8281,269.4688 C85.8281,269.0313 85.8125,268.9063 85.7188,268.75 C85.5625,268.4844 85.2813,268.3438 84.9844,268.3438 C84.6875,268.3438 84.4844,268.4375 84.2656,268.75 L84.0938,268.6719 Z " fill="#000000"/><text fill="#000000" font-family="sans-serif" font-size="14" lengthAdjust="spacing" textLength="117" x="102.25" y="277.8467">ViewModelStore</text><line style="stroke:#181818;stroke-width:0.5;" x1="8" x2="281" y1="289" y2="289"/><text fill="#000000" font-family="sans-serif" font-size="14" lengthAdjust="spacing" textLength="263" x="13" y="305.9951">HashMap&lt;String, ViewModel&gt; mMap</text><line style="stroke:#181818;stroke-width:0.5;" x1="8" x2="281" y1="313.2969" y2="313.2969"/></g><!--class Fragment--><g id="elem_Fragment"><rect fill="#F1F1F1" height="48" id="Fragment" rx="2.5" ry="2.5" style="stroke:#181818;stroke-width:0.5;" width="102" x="273.5" y="132"/><ellipse cx="288.5" cy="148" fill="#ADD1B2" rx="11" ry="11" style="stroke:#181818;stroke-width:1.0;"/><path d="M290.8438,143.6719 C289.9063,143.2344 289.3125,143.0938 288.4375,143.0938 C285.8125,143.0938 283.8125,145.1719 283.8125,147.8906 L283.8125,149.0156 C283.8125,151.5938 285.9219,153.4844 288.8125,153.4844 C290.0313,153.4844 291.1875,153.1875 291.9375,152.6406 C292.5156,152.2344 292.8438,151.7813 292.8438,151.3906 C292.8438,150.9375 292.4531,150.5469 291.9844,150.5469 C291.7656,150.5469 291.5625,150.625 291.375,150.8125 C290.9219,151.2969 290.9219,151.2969 290.7344,151.3906 C290.3125,151.6563 289.625,151.7813 288.8594,151.7813 C286.8125,151.7813 285.5156,150.6875 285.5156,148.9844 L285.5156,147.8906 C285.5156,146.1094 286.7656,144.7969 288.5,144.7969 C289.0781,144.7969 289.6875,144.9531 290.1563,145.2031 C290.6406,145.4844 290.8125,145.7031 290.9063,146.1094 C290.9688,146.5156 291,146.6406 291.1406,146.7656 C291.2813,146.9063 291.5156,147.0156 291.7344,147.0156 C292,147.0156 292.2656,146.875 292.4375,146.6563 C292.5469,146.5 292.5781,146.3125 292.5781,145.8906 L292.5781,144.4688 C292.5781,144.0313 292.5625,143.9063 292.4688,143.75 C292.3125,143.4844 292.0313,143.3438 291.7344,143.3438 C291.4375,143.3438 291.2344,143.4375 291.0156,143.75 L290.8438,143.6719 Z " fill="#000000"/><text fill="#000000" font-family="sans-serif" font-size="14" lengthAdjust="spacing" textLength="70" x="302.5" y="152.8467">Fragment</text><line style="stroke:#181818;stroke-width:0.5;" x1="274.5" x2="374.5" y1="164" y2="164"/><line style="stroke:#181818;stroke-width:0.5;" x1="274.5" x2="374.5" y1="172" y2="172"/></g><!--reverse link ViewModel to ViewModelClearedWatcher--><g id="link_ViewModel_ViewModelClearedWatcher"><path codeLine="5" d="M125.5,89.121 C125.5,108.278 125.5,114.423 125.5,131.884 " fill="none" id="ViewModel-backto-ViewModelClearedWatcher" style="stroke:#181818;stroke-width:1.0;"/><polygon fill="none" points="125.5,71.121,119.5,89.121,131.5,89.121,125.5,71.121" style="stroke:#181818;stroke-width:1.0;"/></g><!--reverse link ViewModelStoreOwner to FragmentActivity--><g id="link_ViewModelStoreOwner_FragmentActivity"><path codeLine="9" d="M433.6417,85.1765 C448.9677,104.3335 457.039,114.423 471.007,131.884 " fill="none" id="ViewModelStoreOwner-backto-FragmentActivity" style="stroke:#181818;stroke-width:1.0;stroke-dasharray:7.0,7.0;"/><polygon fill="none" points="422.397,71.121,428.9565,88.9247,438.3269,81.4283,422.397,71.121" style="stroke:#181818;stroke-width:1.0;"/></g><!--reverse link FragmentActivity to ViewModelStore1--><g id="link_FragmentActivity_ViewModelStore1"><path codeLine="13" d="M481.2655,191.7965 C476.2245,213.0975 471.468,233.2008 465.894,256.7562 " fill="none" id="FragmentActivity-backto-ViewModelStore1" style="stroke:#181818;stroke-width:1.0;"/><polygon fill="#181818" points="484.029,180.119,478.7547,185.0365,481.2655,191.7965,486.5397,186.8789,484.029,180.119" style="stroke:#181818;stroke-width:1.0;"/><text fill="#000000" font-family="sans-serif" font-size="13" lengthAdjust="spacing" textLength="8" x="473.7204" y="199.9092">1</text><text fill="#000000" font-family="sans-serif" font-size="13" lengthAdjust="spacing" textLength="8" x="458.5622" y="245.9824">1</text></g><!--reverse link ViewModelStoreOwner to Fragment--><g id="link_ViewModelStoreOwner_Fragment"><path codeLine="18" d="M368.0981,86.3176 C355.9371,105.4746 350.257,114.423 339.174,131.884 " fill="none" id="ViewModelStoreOwner-backto-Fragment" style="stroke:#181818;stroke-width:1.0;stroke-dasharray:7.0,7.0;"/><polygon fill="none" points="377.745,71.121,363.0325,83.102,373.1636,89.5333,377.745,71.121" style="stroke:#181818;stroke-width:1.0;"/></g><!--reverse link Fragment to ViewModelStore2--><g id="link_Fragment_ViewModelStore2"><path codeLine="19" d="M283.0314,187.1801 C253.6614,208.5541 219.495,233.4201 187.096,256.9996 " fill="none" id="Fragment-backto-ViewModelStore2" style="stroke:#181818;stroke-width:1.0;"/><polygon fill="#181818" points="292.734,180.119,285.529,180.4153,283.0314,187.1801,290.2364,186.8838,292.734,180.119" style="stroke:#181818;stroke-width:1.0;"/></g><!--link ViewModelClearedWatcher to ViewModelStore1--><g id="link_ViewModelClearedWatcher_ViewModelStore1"><path codeLine="21" d="M184.267,180.119 C238.601,201.493 308.592,229.027 368.53,252.6065 " fill="none" id="ViewModelClearedWatcher-to-ViewModelStore1" style="stroke:#181818;stroke-width:1.0;"/><polygon fill="#181818" points="379.697,256.9996,375.5779,251.0807,368.53,252.6065,372.6492,258.5254,379.697,256.9996" style="stroke:#181818;stroke-width:1.0;"/></g><!--link ViewModelClearedWatcher to ViewModelStore2--><g id="link_ViewModelClearedWatcher_ViewModelStore2"><path codeLine="22" d="M128.853,180.119 C131.943,201.42 134.8298,221.325 138.2458,244.8804 " fill="none" id="ViewModelClearedWatcher-to-ViewModelStore2" style="stroke:#181818;stroke-width:1.0;"/><polygon fill="#181818" points="139.968,256.7562,143.0655,250.2442,138.2458,244.8804,135.1483,251.3924,139.968,256.7562" style="stroke:#181818;stroke-width:1.0;"/><text fill="#000000" font-family="sans-serif" font-size="13" lengthAdjust="spacing" textLength="39" x="137.5" y="223.0669">&#28155;&#21152;&#21040;</text></g><!--SRC=[IqmgBYbAJ2vHICv9B2vM2CjCBVVDJqdDKQZcKW22ilpC58NyFEUSrCIYr1GDJQvQBZI5KAdmn9BaZDGY1UNmZDJ44Yw4EJOrkhguL7DbvfMa5gKb9gSYL0INv1Ub-fVd0Ss2E05LHY4zjGHL1EmeRDfjQlJq5DoA4jDpK_DA79DBCiioIogXpbT2rQ2aa5YCPf4Xr7gFnE8CtyG2c-2IeioyT1s4AZk5NA0uq6vqAnIK39KKj82-1j5eXd8HRRyHqVOJz3lSXM1NeLd3nOKhAdLrjJ2SJxnQ8mKhXMVRTp_jMl2qOmC0]--></g></svg>