<?xml version="1.0" encoding="us-ascii" standalone="no"?><svg xmlns="http://www.w3.org/2000/svg" xmlns:xlink="http://www.w3.org/1999/xlink" contentStyleType="text/css" height="642px" preserveAspectRatio="none" style="width:948px;height:642px;background:#FFFFFF;" version="1.1" viewBox="0 0 948 642" width="948px" zoomAndPan="magnify"><defs/><g><line style="stroke:#181818;stroke-width:0.5;stroke-dasharray:5.0,5.0;" x1="116.5" x2="116.5" y1="36.2969" y2="606.9844"/><line style="stroke:#181818;stroke-width:0.5;stroke-dasharray:5.0,5.0;" x1="436.5" x2="436.5" y1="36.2969" y2="606.9844"/><line style="stroke:#181818;stroke-width:0.5;stroke-dasharray:5.0,5.0;" x1="607" x2="607" y1="150.3438" y2="606.9844"/><line style="stroke:#181818;stroke-width:0.5;stroke-dasharray:5.0,5.0;" x1="722" x2="722" y1="36.2969" y2="606.9844"/><line style="stroke:#181818;stroke-width:0.5;stroke-dasharray:5.0,5.0;" x1="857" x2="857" y1="36.2969" y2="606.9844"/><rect fill="#E2E2F0" height="30.2969" rx="2.5" ry="2.5" style="stroke:#181818;stroke-width:0.5;" width="145" x="44.5" y="5"/><text fill="#000000" font-family="sans-serif" font-size="14" lengthAdjust="spacing" textLength="131" x="51.5" y="24.9951">BridgeInterceptor</text><rect fill="#E2E2F0" height="30.2969" rx="2.5" ry="2.5" style="stroke:#181818;stroke-width:0.5;" width="145" x="44.5" y="605.9844"/><text fill="#000000" font-family="sans-serif" font-size="14" lengthAdjust="spacing" textLength="131" x="51.5" y="625.9795">BridgeInterceptor</text><rect fill="#E2E2F0" height="30.2969" rx="2.5" ry="2.5" style="stroke:#181818;stroke-width:0.5;" width="73" x="400.5" y="5"/><text fill="#000000" font-family="sans-serif" font-size="14" lengthAdjust="spacing" textLength="59" x="407.5" y="24.9951">Request</text><rect fill="#E2E2F0" height="30.2969" rx="2.5" ry="2.5" style="stroke:#181818;stroke-width:0.5;" width="73" x="400.5" y="605.9844"/><text fill="#000000" font-family="sans-serif" font-size="14" lengthAdjust="spacing" textLength="59" x="407.5" y="625.9795">Request</text><rect fill="#E2E2F0" height="30.2969" rx="2.5" ry="2.5" style="stroke:#181818;stroke-width:0.5;" width="128" x="543" y="605.9844"/><text fill="#000000" font-family="sans-serif" font-size="14" lengthAdjust="spacing" textLength="114" x="550" y="625.9795">Request.Builder</text><rect fill="#E2E2F0" height="30.2969" rx="2.5" ry="2.5" style="stroke:#181818;stroke-width:0.5;" width="82" x="681" y="5"/><text fill="#000000" font-family="sans-serif" font-size="14" lengthAdjust="spacing" textLength="68" x="688" y="24.9951">CookieJar</text><rect fill="#E2E2F0" height="30.2969" rx="2.5" ry="2.5" style="stroke:#181818;stroke-width:0.5;" width="82" x="681" y="605.9844"/><text fill="#000000" font-family="sans-serif" font-size="14" lengthAdjust="spacing" textLength="68" x="688" y="625.9795">CookieJar</text><rect fill="#E2E2F0" height="30.2969" rx="2.5" ry="2.5" style="stroke:#181818;stroke-width:0.5;" width="169" x="773" y="5"/><text fill="#000000" font-family="sans-serif" font-size="14" lengthAdjust="spacing" textLength="155" x="780" y="24.9951">RealInterceptorChain</text><rect fill="#E2E2F0" height="30.2969" rx="2.5" ry="2.5" style="stroke:#181818;stroke-width:0.5;" width="169" x="773" y="605.9844"/><text fill="#000000" font-family="sans-serif" font-size="14" lengthAdjust="spacing" textLength="155" x="780" y="625.9795">RealInterceptorChain</text><ellipse cx="7.5" cy="66.6797" fill="none" rx="4" ry="4" style="stroke:#181818;stroke-width:1.5;"/><polygon fill="#181818" points="105,63.4297,115,67.4297,105,71.4297,109,67.4297" style="stroke:#181818;stroke-width:1.0;"/><line style="stroke:#181818;stroke-width:1.0;" x1="12" x2="111" y1="67.4297" y2="67.4297"/><text fill="#000000" font-family="sans-serif" font-size="13" lengthAdjust="spacing" textLength="57" x="15" y="62.3638">intercept</text><polygon fill="#181818" points="425,107.6953,435,111.6953,425,115.6953,429,111.6953" style="stroke:#181818;stroke-width:1.0;"/><line style="stroke:#181818;stroke-width:1.0;" x1="117" x2="431" y1="111.6953" y2="111.6953"/><text fill="#000000" font-family="sans-serif" font-size="13" lengthAdjust="spacing" textLength="80" x="124" y="91.4966">newBuilder()</text><text fill="#000000" font-family="sans-serif" font-size="13" lengthAdjust="spacing" textLength="296" x="124" y="106.6294">&#22522;&#20110;&#29992;&#25143;&#20256;&#20837;&#30340;Request&#29983;&#25104;&#26032;&#30340;Request.Builder</text><polygon fill="#181818" points="531,121.6953,541,125.6953,531,129.6953,535,125.6953" style="stroke:#181818;stroke-width:1.0;"/><line style="stroke:#181818;stroke-width:1.0;" x1="437" x2="537" y1="125.6953" y2="125.6953"/><rect fill="#E2E2F0" height="30.2969" rx="2.5" ry="2.5" style="stroke:#181818;stroke-width:0.5;" width="128" x="543" y="119.6953"/><text fill="#000000" font-family="sans-serif" font-size="14" lengthAdjust="spacing" textLength="114" x="550" y="139.6904">Request.Builder</text><polygon fill="#181818" points="595,193.2578,605,197.2578,595,201.2578,599,197.2578" style="stroke:#181818;stroke-width:1.0;"/><line style="stroke:#181818;stroke-width:1.0;" x1="117" x2="601" y1="197.2578" y2="197.2578"/><text fill="#000000" font-family="sans-serif" font-size="13" lengthAdjust="spacing" textLength="262" x="124" y="177.0591">&#22914;&#26524;body&#19981;&#20026;null&#65292;&#21017;&#26681;&#25454;&#38656;&#35201;&#28155;&#21152;&#35831;&#27714;&#22836;&#65306;</text><text fill="#000000" font-family="sans-serif" font-size="13" lengthAdjust="spacing" textLength="331" x="124" y="192.1919">Content-Type&#12289;Content-Length&#12289;Transfer-Encoding</text><polygon fill="#181818" points="595,222.3906,605,226.3906,595,230.3906,599,226.3906" style="stroke:#181818;stroke-width:1.0;"/><line style="stroke:#181818;stroke-width:1.0;" x1="117" x2="601" y1="226.3906" y2="226.3906"/><text fill="#000000" font-family="sans-serif" font-size="13" lengthAdjust="spacing" textLength="146" x="124" y="221.3247">&#22914;&#26524;Host&#19981;&#23384;&#22312;&#65292;&#21017;&#28155;&#21152;</text><polygon fill="#181818" points="595,251.5234,605,255.5234,595,259.5234,599,255.5234" style="stroke:#181818;stroke-width:1.0;"/><line style="stroke:#181818;stroke-width:1.0;" x1="117" x2="601" y1="255.5234" y2="255.5234"/><text fill="#000000" font-family="sans-serif" font-size="13" lengthAdjust="spacing" textLength="300" x="124" y="250.4575">&#22914;&#26524;Connection&#65292;&#21017;&#28155;&#21152;Connection=Keep-Alive</text><polygon fill="#181818" points="595,280.6563,605,284.6563,595,288.6563,599,284.6563" style="stroke:#181818;stroke-width:1.0;"/><line style="stroke:#181818;stroke-width:1.0;" x1="117" x2="601" y1="284.6563" y2="284.6563"/><text fill="#000000" font-family="sans-serif" font-size="13" lengthAdjust="spacing" textLength="369" x="124" y="279.5903">&#22914;&#26524;&#29992;&#25143;&#27809;&#26377;&#25351;&#23450;Accept-Encoding&#21644;Range&#22836;&#65292;&#21017;&#35774;&#32622;&#20026;gzip</text><polygon fill="#181818" points="710,309.7891,720,313.7891,710,317.7891,714,313.7891" style="stroke:#181818;stroke-width:1.0;"/><line style="stroke:#181818;stroke-width:1.0;" x1="117" x2="716" y1="313.7891" y2="313.7891"/><text fill="#000000" font-family="sans-serif" font-size="13" lengthAdjust="spacing" textLength="186" x="124" y="308.7231">loadForRequest(): &#21152;&#36733;cookie</text><polygon fill="#181818" points="595,338.9219,605,342.9219,595,346.9219,599,342.9219" style="stroke:#181818;stroke-width:1.0;"/><line style="stroke:#181818;stroke-width:1.0;" x1="117" x2="601" y1="342.9219" y2="342.9219"/><text fill="#000000" font-family="sans-serif" font-size="13" lengthAdjust="spacing" textLength="69" x="124" y="337.856">&#28155;&#21152;Cookie</text><polygon fill="#181818" points="595,368.0547,605,372.0547,595,376.0547,599,372.0547" style="stroke:#181818;stroke-width:1.0;"/><line style="stroke:#181818;stroke-width:1.0;" x1="117" x2="601" y1="372.0547" y2="372.0547"/><text fill="#000000" font-family="sans-serif" font-size="13" lengthAdjust="spacing" textLength="98" x="124" y="366.9888">&#28155;&#21152;User-Agent</text><polygon fill="#181818" points="595,397.1875,605,401.1875,595,405.1875,599,401.1875" style="stroke:#181818;stroke-width:1.0;"/><line style="stroke:#181818;stroke-width:1.0;" x1="117" x2="601" y1="401.1875" y2="401.1875"/><text fill="#000000" font-family="sans-serif" font-size="13" lengthAdjust="spacing" textLength="40" x="124" y="396.1216">build()</text><polygon fill="#181818" points="448,426.3203,438,430.3203,448,434.3203,444,430.3203" style="stroke:#181818;stroke-width:1.0;"/><line style="stroke:#181818;stroke-width:1.0;" x1="442" x2="606" y1="430.3203" y2="430.3203"/><text fill="#000000" font-family="sans-serif" font-size="13" lengthAdjust="spacing" textLength="146" x="454" y="425.2544">new() &#29983;&#25104;&#26032;&#30340;Request</text><polygon fill="#181818" points="845.5,455.4531,855.5,459.4531,845.5,463.4531,849.5,459.4531" style="stroke:#181818;stroke-width:1.0;"/><line style="stroke:#181818;stroke-width:1.0;" x1="117" x2="851.5" y1="459.4531" y2="459.4531"/><text fill="#000000" font-family="sans-serif" font-size="13" lengthAdjust="spacing" textLength="275" x="124" y="454.3872">proceed(Request) &#32487;&#32493;&#20854;&#20182;&#25318;&#25130;&#22120;&#30340;&#22788;&#29702;&#27969;&#31243;</text><polygon fill="#181818" points="128,484.5859,118,488.5859,128,492.5859,124,488.5859" style="stroke:#181818;stroke-width:1.0;"/><line style="stroke:#181818;stroke-width:1.0;stroke-dasharray:2.0,2.0;" x1="122" x2="856.5" y1="488.5859" y2="488.5859"/><text fill="#000000" font-family="sans-serif" font-size="13" lengthAdjust="spacing" textLength="117" x="134" y="483.52">&#20854;&#20182;&#25318;&#25130;&#22120;&#22788;&#29702;&#23436;&#25104;</text><polygon fill="#181818" points="710,513.7188,720,517.7188,710,521.7188,714,517.7188" style="stroke:#181818;stroke-width:1.0;"/><line style="stroke:#181818;stroke-width:1.0;" x1="117" x2="716" y1="517.7188" y2="517.7188"/><text fill="#000000" font-family="sans-serif" font-size="13" lengthAdjust="spacing" textLength="365" x="124" y="512.6528">receiveHeaders(): &#20445;&#23384;cookie&#65292;header&#20013;&#30340;Set-Cookie&#23383;&#27573;</text><line style="stroke:#181818;stroke-width:1.0;" x1="117" x2="159" y1="546.8516" y2="546.8516"/><line style="stroke:#181818;stroke-width:1.0;" x1="159" x2="159" y1="546.8516" y2="559.8516"/><line style="stroke:#181818;stroke-width:1.0;" x1="118" x2="159" y1="559.8516" y2="559.8516"/><polygon fill="#181818" points="128,555.8516,118,559.8516,128,563.8516,124,559.8516" style="stroke:#181818;stroke-width:1.0;"/><text fill="#000000" font-family="sans-serif" font-size="13" lengthAdjust="spacing" textLength="247" x="124" y="541.7856">&#22914;&#26524;&#21709;&#24212;&#20869;&#23481;&#26159;gzip&#26684;&#24335;&#65292;&#21017;&#36827;&#34892;&#35299;&#21387;&#22788;&#29702;</text><polygon fill="#181818" points="11,584.9844,1,588.9844,11,592.9844,7,588.9844" style="stroke:#181818;stroke-width:1.0;"/><line style="stroke:#181818;stroke-width:1.0;" x1="5" x2="116" y1="588.9844" y2="588.9844"/><text fill="#000000" font-family="sans-serif" font-size="13" lengthAdjust="spacing" textLength="93" x="17" y="583.9185">&#36820;&#22238; Response</text><!--SRC=[bLJBRjD05DtxAxnCAfaFY00fZK3biIfbrMvS- -9OM3Dcx83AggcQ4aXIAeXAcuOs5IMDaE82eYJDWtmCdh5PzHUOn0w9sW3DpdCVvvnxxv4NiNHJd2Mwgi4TP0DHmBGnYOdwy25SIegyOnwUfC2oOoA2PxCftL21HA9BY1wqtDQcLwonRCFjL6ZcerTQ3skzuW7BRh7jpwFGjR1L2DzZoCEKE3FpJmN3kfX8gsjilxoCrHMtMN2RBPGoZFDEdcPtMUMC5PnVvLM_ccQDDdrLyKyQxCiQFVfstYajeGJcqCYM5bPC-BcQ7Zxl0zBi90yi41bPZu18jv22LHrfKocQmvRD5T7w3YtNGa434LEXS54855l7Q1nY5Brn3y2KueR-5AR23Mx5lXwoyakMVq6TKbpfD_sPbRx9pyj8Wy6o-io-yyFhEdp1sdFTdCoLmFYn3dTbpc9WMRsDISWUYN9UllvkLncKN57gSDYfMnvQ_6fnZL_pYctB_Oz8LBZemb6jEF1y92fEyBFmDnRP60ibahAEOg99i0AWHi9U3jW-zjfrcldkjhTPhigod-XkZOFJetLlQuETfhrQJY1WfmWIBrG59TJ9SqN_FGa11RXDva3cardzaxYzzzoUmKduaPE3ZDkiS_87O4j1Bws_OyxfPFG9Fv30NlHjWRQAT2D3dJEsSzAt3AjqQETrwANUdd-Ozuy_qCrSC8EmU5sw3CUNxlUAT6-Vxz8oCRBWDm00]--></g></svg>