<?xml version="1.0" encoding="us-ascii" standalone="no"?><svg xmlns="http://www.w3.org/2000/svg" xmlns:xlink="http://www.w3.org/1999/xlink" contentStyleType="text/css" height="243px" preserveAspectRatio="none" style="width:388px;height:243px;background:#FFFFFF;" version="1.1" viewBox="0 0 388 243" width="388px" zoomAndPan="magnify"><defs/><g><!--entity Looper--><g id="elem_Looper"><rect fill="#F1F1F1" height="36.2969" rx="2.5" ry="2.5" style="stroke:#181818;stroke-width:0.5;" width="71" x="220" y="104"/><text fill="#000000" font-family="sans-serif" font-size="14" lengthAdjust="spacing" textLength="51" x="230" y="126.9951">Looper</text></g><!--entity Thread--><g id="elem_Thread"><rect fill="#F1F1F1" height="36.2969" rx="2.5" ry="2.5" style="stroke:#181818;stroke-width:0.5;" width="70" x="221.5" y="201"/><text fill="#000000" font-family="sans-serif" font-size="14" lengthAdjust="spacing" textLength="50" x="231.5" y="223.9951">Thread</text></g><!--entity MessageQueue--><g id="elem_MessageQueue"><rect fill="#F1F1F1" height="36.2969" rx="2.5" ry="2.5" style="stroke:#181818;stroke-width:0.5;" width="126" x="60.5" y="201"/><text fill="#000000" font-family="sans-serif" font-size="14" lengthAdjust="spacing" textLength="106" x="70.5" y="223.9951">MessageQueue</text></g><!--entity Handler1--><g id="elem_Handler1"><rect fill="#F1F1F1" height="36.2969" rx="2.5" ry="2.5" style="stroke:#181818;stroke-width:0.5;" width="84" x="137.5" y="7"/><text fill="#000000" font-family="sans-serif" font-size="14" lengthAdjust="spacing" textLength="64" x="147.5" y="29.9951">Handler1</text></g><!--entity Handler2--><g id="elem_Handler2"><rect fill="#F1F1F1" height="36.2969" rx="2.5" ry="2.5" style="stroke:#181818;stroke-width:0.5;" width="83" x="7" y="7"/><text fill="#000000" font-family="sans-serif" font-size="14" lengthAdjust="spacing" textLength="63" x="17" y="29.9951">Handler2</text></g><!--entity Handler3--><g id="elem_Handler3"><rect fill="#F1F1F1" height="36.2969" rx="2.5" ry="2.5" style="stroke:#181818;stroke-width:0.5;" width="84" x="269.5" y="7"/><text fill="#000000" font-family="sans-serif" font-size="14" lengthAdjust="spacing" textLength="64" x="279.5" y="29.9951">Handler3</text></g><!--reverse link Looper to Thread--><g id="link_Looper_Thread"><path d="M255.8097,152.4238 C255.9907,169.5648 256.138,183.5832 256.318,200.686 " fill="none" id="Looper-backto-Thread" style="stroke:#181818;stroke-width:1.0;"/><polygon fill="#181818" points="255.683,140.4245,251.7466,146.4664,255.8097,152.4238,259.7461,146.3819,255.683,140.4245" style="stroke:#181818;stroke-width:1.0;"/></g><!--reverse link Looper to MessageQueue--><g id="link_Looper_MessageQueue"><path d="M221.8562,147.2135 C197.9332,164.4307 171.086,183.7524 147.226,200.9242 " fill="none" id="Looper-backto-MessageQueue" style="stroke:#181818;stroke-width:1.0;"/><polygon fill="#181818" points="231.596,140.2038,224.3895,140.462,221.8562,147.2135,229.0626,146.9553,231.596,140.2038" style="stroke:#181818;stroke-width:1.0;"/></g><!--reverse link Handler1 to Looper--><g id="link_Handler1_Looper"><path d="M200.9358,52.7949 C214.6478,69.9369 227.967,86.583 241.649,103.686 " fill="none" id="Handler1-backto-Looper" style="stroke:#181818;stroke-width:1.0;"/><polygon fill="#181818" points="193.44,43.424,194.0643,50.608,200.9358,52.7949,200.3115,45.6108,193.44,43.424" style="stroke:#181818;stroke-width:1.0;"/></g><!--reverse link Handler2 to Looper--><g id="link_Handler2_Looper"><path d="M96.8924,48.2092 C134.8743,65.6402 182.305,87.408 219.678,104.56 " fill="none" id="Handler2-backto-Looper" style="stroke:#181818;stroke-width:1.0;"/><polygon fill="#181818" points="85.9861,43.204,89.7708,49.3421,96.8924,48.2092,93.1077,42.0712,85.9861,43.204" style="stroke:#181818;stroke-width:1.0;"/></g><!--reverse link Handler3 to Looper--><g id="link_Handler3_Looper"><path d="M295.1356,53.7618 C285.0316,70.9038 275.788,86.583 265.706,103.686 " fill="none" id="Handler3-backto-Looper" style="stroke:#181818;stroke-width:1.0;"/><polygon fill="#181818" points="301.229,43.424,294.7364,46.5618,295.1356,53.7618,301.6282,50.624,301.229,43.424" style="stroke:#181818;stroke-width:1.0;"/></g><!--link Handler1 to MessageQueue--><g id="link_Handler1_MessageQueue"><path d="M169.356,43.044 C160.642,58.449 148.42,82.017 141.5,104 C131.032,137.2554 126.9642,171.9891 125.1212,194.6595 " fill="none" id="Handler1-to-MessageQueue" style="stroke:#181818;stroke-width:1.0;stroke-dasharray:1.0,3.0;"/><polygon fill="#181818" points="124.635,200.6398,129.3511,191.9935,125.0401,195.6562,121.3774,191.3453,124.635,200.6398" style="stroke:#181818;stroke-width:1.0;"/><text fill="#000000" font-family="sans-serif" font-size="13" lengthAdjust="spacing" textLength="59" x="142.5" y="126.5669">message</text></g><!--link Handler2 to MessageQueue--><g id="link_Handler2_MessageQueue"><path d="M48.264,43.315 C48.5367,66.287 51.0893,107.698 64.5,140 C74.2007,163.3655 88.5232,181.5495 102.2059,196.3513 " fill="none" id="Handler2-to-MessageQueue" style="stroke:#181818;stroke-width:1.0;stroke-dasharray:1.0,3.0;"/><polygon fill="#181818" points="106.2787,200.7572,103.1068,191.4331,102.8847,197.0856,97.2322,196.8635,106.2787,200.7572" style="stroke:#181818;stroke-width:1.0;"/><text fill="#000000" font-family="sans-serif" font-size="13" lengthAdjust="spacing" textLength="59" x="65.5" y="126.5669">message</text></g><!--link Handler3 to MessageQueue--><g id="link_Handler3_MessageQueue"><path d="M316.368,43.194 C322.059,67.15 328.371,110.895 308.5,140 C293.465,162.0218 236.0385,183.7624 187.6605,199.1559 " fill="none" id="Handler3-to-MessageQueue" style="stroke:#181818;stroke-width:1.0;stroke-dasharray:1.0,3.0;"/><polygon fill="#181818" points="181.943,200.9752,191.7322,202.058,186.7076,199.4591,189.3065,194.4346,181.943,200.9752" style="stroke:#181818;stroke-width:1.0;"/><text fill="#000000" font-family="sans-serif" font-size="13" lengthAdjust="spacing" textLength="59" x="321.5" y="126.5669">message</text></g><!--SRC=[AyxEp2j8B4hCLKZEpot8pqlDAmakgSn9LIXAJIv9p4lFIUMAzidFBqWjYbNGqjLLY0x9A4fDJ8b54_LDBIvEJ4yDB4qjJGNAUIJcfUIa5Xb2PQ5AuU96ECIDSOW3pT6DJialAKbDYTMrGxDDmKeX5y97DfyazSR4gGS0]--></g></svg>