<?xml version="1.0" encoding="us-ascii" standalone="no"?><svg xmlns="http://www.w3.org/2000/svg" xmlns:xlink="http://www.w3.org/1999/xlink" contentStyleType="text/css" height="862px" preserveAspectRatio="none" style="width:1908px;height:862px;background:#FFFFFF;" version="1.1" viewBox="0 0 1908 862" width="1908px" zoomAndPan="magnify"><defs/><g><rect fill="#FFFFFF" height="751.0859" style="stroke:#181818;stroke-width:1.0;" width="10" x="105" y="67.4297"/><rect fill="#FFFFFF" height="713.9531" style="stroke:#181818;stroke-width:1.0;" width="10" x="110" y="104.5625"/><rect fill="#FFFFFF" height="679.8203" style="stroke:#181818;stroke-width:1.0;" width="10" x="267" y="138.6953"/><rect fill="#FFFFFF" height="650.6875" style="stroke:#181818;stroke-width:1.0;" width="10" x="410" y="167.8281"/><rect fill="#FFFFFF" height="561.2891" style="stroke:#181818;stroke-width:1.0;" width="10" x="517" y="196.9609"/><rect fill="#FFFFFF" height="524.1563" style="stroke:#181818;stroke-width:1.0;" width="10" x="522" y="234.0938"/><rect fill="#FFFFFF" height="9" style="stroke:#181818;stroke-width:1.0;" width="10" x="517" y="809.5156"/><rect fill="#FFFFFF" height="490.0234" style="stroke:#181818;stroke-width:1.0;" width="10" x="684" y="268.2266"/><rect fill="#FFFFFF" height="452.8906" style="stroke:#181818;stroke-width:1.0;" width="10" x="689" y="305.3594"/><rect fill="#FFFFFF" height="410.7578" style="stroke:#181818;stroke-width:1.0;" width="10" x="694" y="347.4922"/><rect fill="#FFFFFF" height="327.3281" style="stroke:#181818;stroke-width:1.0;" width="10" x="699" y="430.9219"/><rect fill="#FFFFFF" height="285.1953" style="stroke:#181818;stroke-width:1.0;" width="10" x="704" y="473.0547"/><rect fill="#FFFFFF" height="251.0625" style="stroke:#181818;stroke-width:1.0;" width="10" x="1035" y="507.1875"/><rect fill="#FFFFFF" height="98.3984" style="stroke:#181818;stroke-width:1.0;" width="10" x="1040" y="659.8516"/><rect fill="#FFFFFF" height="86.3984" style="stroke:#181818;stroke-width:1.0;" width="10" x="1300" y="536.3203"/><rect fill="#FFFFFF" height="49.2656" style="stroke:#181818;stroke-width:1.0;" width="10" x="1305" y="573.4531"/><rect fill="#FFFFFF" height="29.1328" style="stroke:#181818;stroke-width:1.0;" width="10" x="1522" y="693.9844"/><line style="stroke:#181818;stroke-width:0.5;stroke-dasharray:5.0,5.0;" x1="110" x2="110" y1="36.2969" y2="827.5156"/><line style="stroke:#181818;stroke-width:0.5;stroke-dasharray:5.0,5.0;" x1="271.5" x2="271.5" y1="36.2969" y2="827.5156"/><line style="stroke:#181818;stroke-width:0.5;stroke-dasharray:5.0,5.0;" x1="414.5" x2="414.5" y1="36.2969" y2="827.5156"/><line style="stroke:#181818;stroke-width:0.5;stroke-dasharray:5.0,5.0;" x1="521.5" x2="521.5" y1="36.2969" y2="827.5156"/><line style="stroke:#181818;stroke-width:0.5;stroke-dasharray:5.0,5.0;" x1="689" x2="689" y1="36.2969" y2="827.5156"/><line style="stroke:#181818;stroke-width:0.5;stroke-dasharray:5.0,5.0;" x1="875.5" x2="875.5" y1="391.1406" y2="827.5156"/><line style="stroke:#181818;stroke-width:0.5;stroke-dasharray:5.0,5.0;" x1="1039.5" x2="1039.5" y1="36.2969" y2="827.5156"/><line style="stroke:#181818;stroke-width:0.5;stroke-dasharray:5.0,5.0;" x1="1304.5" x2="1304.5" y1="36.2969" y2="827.5156"/><line style="stroke:#181818;stroke-width:0.5;stroke-dasharray:5.0,5.0;" x1="1526.5" x2="1526.5" y1="36.2969" y2="827.5156"/><line style="stroke:#181818;stroke-width:0.5;stroke-dasharray:5.0,5.0;" x1="1795" x2="1795" y1="36.2969" y2="827.5156"/><rect fill="#E2E2F0" height="30.2969" rx="2.5" ry="2.5" style="stroke:#181818;stroke-width:0.5;" width="70" x="75" y="5"/><text fill="#000000" font-family="sans-serif" font-size="14" lengthAdjust="spacing" textLength="56" x="82" y="24.9951">Activity</text><rect fill="#E2E2F0" height="30.2969" rx="2.5" ry="2.5" style="stroke:#181818;stroke-width:0.5;" width="70" x="75" y="826.5156"/><text fill="#000000" font-family="sans-serif" font-size="14" lengthAdjust="spacing" textLength="56" x="82" y="846.5107">Activity</text><rect fill="#E2E2F0" height="30.2969" rx="2.5" ry="2.5" style="stroke:#181818;stroke-width:0.5;" width="131" x="206.5" y="5"/><text fill="#000000" font-family="sans-serif" font-size="14" lengthAdjust="spacing" textLength="117" x="213.5" y="24.9951">Instrumentation</text><rect fill="#E2E2F0" height="30.2969" rx="2.5" ry="2.5" style="stroke:#181818;stroke-width:0.5;" width="131" x="206.5" y="826.5156"/><text fill="#000000" font-family="sans-serif" font-size="14" lengthAdjust="spacing" textLength="117" x="213.5" y="846.5107">Instrumentation</text><rect fill="#E2E2F0" height="30.2969" rx="2.5" ry="2.5" style="stroke:#181818;stroke-width:0.5;" width="135" x="347.5" y="5"/><text fill="#000000" font-family="sans-serif" font-size="14" lengthAdjust="spacing" textLength="121" x="354.5" y="24.9951">IActivityManager</text><rect fill="#E2E2F0" height="30.2969" rx="2.5" ry="2.5" style="stroke:#181818;stroke-width:0.5;" width="135" x="347.5" y="826.5156"/><text fill="#000000" font-family="sans-serif" font-size="14" lengthAdjust="spacing" textLength="121" x="354.5" y="846.5107">IActivityManager</text><rect fill="#E2E2F0" height="30.2969" rx="2.5" ry="2.5" style="stroke:#181818;stroke-width:0.5;" width="45" x="499.5" y="5"/><text fill="#000000" font-family="sans-serif" font-size="14" lengthAdjust="spacing" textLength="31" x="506.5" y="24.9951">AMS</text><rect fill="#E2E2F0" height="30.2969" rx="2.5" ry="2.5" style="stroke:#181818;stroke-width:0.5;" width="45" x="499.5" y="826.5156"/><text fill="#000000" font-family="sans-serif" font-size="14" lengthAdjust="spacing" textLength="31" x="506.5" y="846.5107">AMS</text><rect fill="#E2E2F0" height="30.2969" rx="2.5" ry="2.5" style="stroke:#181818;stroke-width:0.5;" width="122" x="628" y="5"/><text fill="#000000" font-family="sans-serif" font-size="14" lengthAdjust="spacing" textLength="108" x="635" y="24.9951">ActivityStarter</text><rect fill="#E2E2F0" height="30.2969" rx="2.5" ry="2.5" style="stroke:#181818;stroke-width:0.5;" width="122" x="628" y="826.5156"/><text fill="#000000" font-family="sans-serif" font-size="14" lengthAdjust="spacing" textLength="108" x="635" y="846.5107">ActivityStarter</text><rect fill="#E2E2F0" height="30.2969" rx="2.5" ry="2.5" style="stroke:#181818;stroke-width:0.5;" width="121" x="815.5" y="826.5156"/><text fill="#000000" font-family="sans-serif" font-size="14" lengthAdjust="spacing" textLength="107" x="822.5" y="846.5107">ActivityRecord</text><rect fill="#E2E2F0" height="30.2969" rx="2.5" ry="2.5" style="stroke:#181818;stroke-width:0.5;" width="187" x="946.5" y="5"/><text fill="#000000" font-family="sans-serif" font-size="14" lengthAdjust="spacing" textLength="173" x="953.5" y="24.9951">ActivityStackSupervisor</text><rect fill="#E2E2F0" height="30.2969" rx="2.5" ry="2.5" style="stroke:#181818;stroke-width:0.5;" width="187" x="946.5" y="826.5156"/><text fill="#000000" font-family="sans-serif" font-size="14" lengthAdjust="spacing" textLength="173" x="953.5" y="846.5107">ActivityStackSupervisor</text><rect fill="#E2E2F0" height="30.2969" rx="2.5" ry="2.5" style="stroke:#181818;stroke-width:0.5;" width="111" x="1249.5" y="5"/><text fill="#000000" font-family="sans-serif" font-size="14" lengthAdjust="spacing" textLength="97" x="1256.5" y="24.9951">ActivityStack</text><rect fill="#E2E2F0" height="30.2969" rx="2.5" ry="2.5" style="stroke:#181818;stroke-width:0.5;" width="111" x="1249.5" y="826.5156"/><text fill="#000000" font-family="sans-serif" font-size="14" lengthAdjust="spacing" textLength="97" x="1256.5" y="846.5107">ActivityStack</text><rect fill="#E2E2F0" height="30.2969" rx="2.5" ry="2.5" style="stroke:#181818;stroke-width:0.5;" width="147" x="1453.5" y="5"/><text fill="#000000" font-family="sans-serif" font-size="14" lengthAdjust="spacing" textLength="133" x="1460.5" y="24.9951">ApplicationThread</text><rect fill="#E2E2F0" height="30.2969" rx="2.5" ry="2.5" style="stroke:#181818;stroke-width:0.5;" width="147" x="1453.5" y="826.5156"/><text fill="#000000" font-family="sans-serif" font-size="14" lengthAdjust="spacing" textLength="133" x="1460.5" y="846.5107">ApplicationThread</text><rect fill="#E2E2F0" height="30.2969" rx="2.5" ry="2.5" style="stroke:#181818;stroke-width:0.5;" width="120" x="1735" y="5"/><text fill="#000000" font-family="sans-serif" font-size="14" lengthAdjust="spacing" textLength="106" x="1742" y="24.9951">ActivityThread</text><rect fill="#E2E2F0" height="30.2969" rx="2.5" ry="2.5" style="stroke:#181818;stroke-width:0.5;" width="120" x="1735" y="826.5156"/><text fill="#000000" font-family="sans-serif" font-size="14" lengthAdjust="spacing" textLength="106" x="1742" y="846.5107">ActivityThread</text><rect fill="#FFFFFF" height="751.0859" style="stroke:#181818;stroke-width:1.0;" width="10" x="105" y="67.4297"/><rect fill="#FFFFFF" height="713.9531" style="stroke:#181818;stroke-width:1.0;" width="10" x="110" y="104.5625"/><rect fill="#FFFFFF" height="679.8203" style="stroke:#181818;stroke-width:1.0;" width="10" x="267" y="138.6953"/><rect fill="#FFFFFF" height="650.6875" style="stroke:#181818;stroke-width:1.0;" width="10" x="410" y="167.8281"/><rect fill="#FFFFFF" height="561.2891" style="stroke:#181818;stroke-width:1.0;" width="10" x="517" y="196.9609"/><rect fill="#FFFFFF" height="524.1563" style="stroke:#181818;stroke-width:1.0;" width="10" x="522" y="234.0938"/><rect fill="#FFFFFF" height="9" style="stroke:#181818;stroke-width:1.0;" width="10" x="517" y="809.5156"/><rect fill="#FFFFFF" height="490.0234" style="stroke:#181818;stroke-width:1.0;" width="10" x="684" y="268.2266"/><rect fill="#FFFFFF" height="452.8906" style="stroke:#181818;stroke-width:1.0;" width="10" x="689" y="305.3594"/><rect fill="#FFFFFF" height="410.7578" style="stroke:#181818;stroke-width:1.0;" width="10" x="694" y="347.4922"/><rect fill="#FFFFFF" height="327.3281" style="stroke:#181818;stroke-width:1.0;" width="10" x="699" y="430.9219"/><rect fill="#FFFFFF" height="285.1953" style="stroke:#181818;stroke-width:1.0;" width="10" x="704" y="473.0547"/><rect fill="#FFFFFF" height="251.0625" style="stroke:#181818;stroke-width:1.0;" width="10" x="1035" y="507.1875"/><rect fill="#FFFFFF" height="98.3984" style="stroke:#181818;stroke-width:1.0;" width="10" x="1040" y="659.8516"/><rect fill="#FFFFFF" height="86.3984" style="stroke:#181818;stroke-width:1.0;" width="10" x="1300" y="536.3203"/><rect fill="#FFFFFF" height="49.2656" style="stroke:#181818;stroke-width:1.0;" width="10" x="1305" y="573.4531"/><rect fill="#FFFFFF" height="29.1328" style="stroke:#181818;stroke-width:1.0;" width="10" x="1522" y="693.9844"/><ellipse cx="7.5" cy="66.6797" fill="none" rx="4" ry="4" style="stroke:#181818;stroke-width:1.5;"/><polygon fill="#181818" points="93,63.4297,103,67.4297,93,71.4297,97,67.4297" style="stroke:#181818;stroke-width:1.0;"/><line style="stroke:#181818;stroke-width:1.0;" x1="12" x2="99" y1="67.4297" y2="67.4297"/><text fill="#000000" font-family="sans-serif" font-size="13" lengthAdjust="spacing" textLength="78" x="15" y="62.3638">startActivity</text><line style="stroke:#181818;stroke-width:1.0;" x1="115" x2="162" y1="91.5625" y2="91.5625"/><line style="stroke:#181818;stroke-width:1.0;" x1="162" x2="162" y1="91.5625" y2="104.5625"/><line style="stroke:#181818;stroke-width:1.0;" x1="121" x2="162" y1="104.5625" y2="104.5625"/><polygon fill="#181818" points="131,100.5625,121,104.5625,131,108.5625,127,104.5625" style="stroke:#181818;stroke-width:1.0;"/><text fill="#000000" font-family="sans-serif" font-size="13" lengthAdjust="spacing" textLength="138" x="127" y="86.4966">startActivityForResult</text><polygon fill="#181818" points="255,134.6953,265,138.6953,255,142.6953,259,138.6953" style="stroke:#181818;stroke-width:1.0;"/><line style="stroke:#181818;stroke-width:1.0;" x1="120" x2="261" y1="138.6953" y2="138.6953"/><text fill="#000000" font-family="sans-serif" font-size="13" lengthAdjust="spacing" textLength="110" x="127" y="133.6294">execStartActivity</text><polygon fill="#181818" points="398,163.8281,408,167.8281,398,171.8281,402,167.8281" style="stroke:#181818;stroke-width:1.0;"/><line style="stroke:#181818;stroke-width:1.0;" x1="277" x2="404" y1="167.8281" y2="167.8281"/><text fill="#000000" font-family="sans-serif" font-size="13" lengthAdjust="spacing" textLength="78" x="284" y="162.7622">startActivity</text><polygon fill="#181818" points="505,192.9609,515,196.9609,505,200.9609,509,196.9609" style="stroke:#181818;stroke-width:1.0;"/><line style="stroke:#181818;stroke-width:1.0;" x1="420" x2="511" y1="196.9609" y2="196.9609"/><text fill="#000000" font-family="sans-serif" font-size="13" lengthAdjust="spacing" textLength="78" x="427" y="191.895">startActivity</text><line style="stroke:#181818;stroke-width:1.0;" x1="527" x2="574" y1="221.0938" y2="221.0938"/><line style="stroke:#181818;stroke-width:1.0;" x1="574" x2="574" y1="221.0938" y2="234.0938"/><line style="stroke:#181818;stroke-width:1.0;" x1="533" x2="574" y1="234.0938" y2="234.0938"/><polygon fill="#181818" points="543,230.0938,533,234.0938,543,238.0938,539,234.0938" style="stroke:#181818;stroke-width:1.0;"/><text fill="#000000" font-family="sans-serif" font-size="13" lengthAdjust="spacing" textLength="123" x="539" y="216.0278">startActivityAsUser</text><polygon fill="#181818" points="672,264.2266,682,268.2266,672,272.2266,676,268.2266" style="stroke:#181818;stroke-width:1.0;"/><line style="stroke:#181818;stroke-width:1.0;" x1="532" x2="678" y1="268.2266" y2="268.2266"/><text fill="#000000" font-family="sans-serif" font-size="13" lengthAdjust="spacing" textLength="133" x="539" y="263.1606">startActivityMayWait</text><line style="stroke:#181818;stroke-width:1.0;" x1="694" x2="741" y1="292.3594" y2="292.3594"/><line style="stroke:#181818;stroke-width:1.0;" x1="741" x2="741" y1="292.3594" y2="305.3594"/><line style="stroke:#181818;stroke-width:1.0;" x1="700" x2="741" y1="305.3594" y2="305.3594"/><polygon fill="#181818" points="710,301.3594,700,305.3594,710,309.3594,706,305.3594" style="stroke:#181818;stroke-width:1.0;"/><text fill="#000000" font-family="sans-serif" font-size="13" lengthAdjust="spacing" textLength="123" x="706" y="287.2935">startActivityLocked</text><line style="stroke:#181818;stroke-width:1.0;" x1="699" x2="746" y1="334.4922" y2="334.4922"/><line style="stroke:#181818;stroke-width:1.0;" x1="746" x2="746" y1="334.4922" y2="347.4922"/><line style="stroke:#181818;stroke-width:1.0;" x1="705" x2="746" y1="347.4922" y2="347.4922"/><polygon fill="#181818" points="715,343.4922,705,347.4922,715,351.4922,711,347.4922" style="stroke:#181818;stroke-width:1.0;"/><text fill="#000000" font-family="sans-serif" font-size="13" lengthAdjust="spacing" textLength="78" x="711" y="329.4263">startActivity</text><polygon fill="#181818" points="803.5,362.4922,813.5,366.4922,803.5,370.4922,807.5,366.4922" style="stroke:#181818;stroke-width:1.0;"/><line style="stroke:#181818;stroke-width:1.0;" x1="704" x2="809.5" y1="366.4922" y2="366.4922"/><rect fill="#E2E2F0" height="30.2969" rx="2.5" ry="2.5" style="stroke:#181818;stroke-width:0.5;" width="121" x="815.5" y="360.4922"/><text fill="#000000" font-family="sans-serif" font-size="14" lengthAdjust="spacing" textLength="107" x="822.5" y="380.4873">ActivityRecord</text><line style="stroke:#181818;stroke-width:1.0;" x1="704" x2="751" y1="417.9219" y2="417.9219"/><line style="stroke:#181818;stroke-width:1.0;" x1="751" x2="751" y1="417.9219" y2="430.9219"/><line style="stroke:#181818;stroke-width:1.0;" x1="710" x2="751" y1="430.9219" y2="430.9219"/><polygon fill="#181818" points="720,426.9219,710,430.9219,720,434.9219,716,430.9219" style="stroke:#181818;stroke-width:1.0;"/><text fill="#000000" font-family="sans-serif" font-size="13" lengthAdjust="spacing" textLength="78" x="716" y="412.856">startActivity</text><line style="stroke:#181818;stroke-width:1.0;" x1="709" x2="756" y1="460.0547" y2="460.0547"/><line style="stroke:#181818;stroke-width:1.0;" x1="756" x2="756" y1="460.0547" y2="473.0547"/><line style="stroke:#181818;stroke-width:1.0;" x1="715" x2="756" y1="473.0547" y2="473.0547"/><polygon fill="#181818" points="725,469.0547,715,473.0547,725,477.0547,721,473.0547" style="stroke:#181818;stroke-width:1.0;"/><text fill="#000000" font-family="sans-serif" font-size="13" lengthAdjust="spacing" textLength="148" x="721" y="454.9888">startActivityUnchecked</text><polygon fill="#181818" points="1023,503.1875,1033,507.1875,1023,511.1875,1027,507.1875" style="stroke:#181818;stroke-width:1.0;"/><line style="stroke:#181818;stroke-width:1.0;" x1="714" x2="1029" y1="507.1875" y2="507.1875"/><text fill="#000000" font-family="sans-serif" font-size="13" lengthAdjust="spacing" textLength="254" x="721" y="502.1216">resumeFocusedStackTopActivityLocked</text><polygon fill="#181818" points="1288,532.3203,1298,536.3203,1288,540.3203,1292,536.3203" style="stroke:#181818;stroke-width:1.0;"/><line style="stroke:#181818;stroke-width:1.0;" x1="1045" x2="1294" y1="536.3203" y2="536.3203"/><text fill="#000000" font-family="sans-serif" font-size="13" lengthAdjust="spacing" textLength="236" x="1052" y="531.2544">resumeTopActivityUncheckedLocked</text><line style="stroke:#181818;stroke-width:1.0;" x1="1310" x2="1357" y1="560.4531" y2="560.4531"/><line style="stroke:#181818;stroke-width:1.0;" x1="1357" x2="1357" y1="560.4531" y2="573.4531"/><line style="stroke:#181818;stroke-width:1.0;" x1="1316" x2="1357" y1="573.4531" y2="573.4531"/><polygon fill="#181818" points="1326,569.4531,1316,573.4531,1326,577.4531,1322,573.4531" style="stroke:#181818;stroke-width:1.0;"/><text fill="#000000" font-family="sans-serif" font-size="13" lengthAdjust="spacing" textLength="198" x="1322" y="555.3872">resumeTopActivityInnerLocked</text><polygon fill="#181818" points="1056,618.7188,1046,622.7188,1056,626.7188,1052,622.7188" style="stroke:#181818;stroke-width:1.0;"/><line style="stroke:#181818;stroke-width:1.0;" x1="1050" x2="1304" y1="622.7188" y2="622.7188"/><text fill="#000000" font-family="sans-serif" font-size="13" lengthAdjust="spacing" textLength="172" x="1062" y="602.52">startSpecificActivityLocked</text><text fill="#000000" font-family="sans-serif" font-size="13" lengthAdjust="spacing" textLength="143" x="1062" y="617.6528">&#20250;&#21028;&#26029;&#26159;&#21542;&#21551;&#21160;&#26032;&#30340;&#36827;&#31243;</text><line style="stroke:#181818;stroke-width:1.0;" x1="1045" x2="1092" y1="646.8516" y2="646.8516"/><line style="stroke:#181818;stroke-width:1.0;" x1="1092" x2="1092" y1="646.8516" y2="659.8516"/><line style="stroke:#181818;stroke-width:1.0;" x1="1051" x2="1092" y1="659.8516" y2="659.8516"/><polygon fill="#181818" points="1061,655.8516,1051,659.8516,1061,663.8516,1057,659.8516" style="stroke:#181818;stroke-width:1.0;"/><text fill="#000000" font-family="sans-serif" font-size="13" lengthAdjust="spacing" textLength="148" x="1057" y="641.7856">realStartActivityLocked</text><polygon fill="#181818" points="1510,689.9844,1520,693.9844,1510,697.9844,1514,693.9844" style="stroke:#181818;stroke-width:1.0;"/><line style="stroke:#181818;stroke-width:1.0;" x1="1050" x2="1516" y1="693.9844" y2="693.9844"/><text fill="#000000" font-family="sans-serif" font-size="13" lengthAdjust="spacing" textLength="151" x="1057" y="688.9185">scheduleLaunchActivity</text><polygon fill="#181818" points="1783,719.1172,1793,723.1172,1783,727.1172,1787,723.1172" style="stroke:#181818;stroke-width:1.0;"/><line style="stroke:#181818;stroke-width:1.0;" x1="1527" x2="1789" y1="723.1172" y2="723.1172"/><text fill="#000000" font-family="sans-serif" font-size="13" lengthAdjust="spacing" textLength="239" x="1534" y="718.0513">sendMessage(H.LAUNCH_ACTIVITY, r)</text><line style="stroke:#181818;stroke-width:1.0;" x1="1795" x2="1837" y1="757.25" y2="757.25"/><line style="stroke:#181818;stroke-width:1.0;" x1="1837" x2="1837" y1="757.25" y2="770.25"/><line style="stroke:#181818;stroke-width:1.0;" x1="1790" x2="1837" y1="770.25" y2="770.25"/><polygon fill="#181818" points="1800,766.25,1790,770.25,1800,774.25,1796,770.25" style="stroke:#181818;stroke-width:1.0;"/><text fill="#000000" font-family="sans-serif" font-size="13" lengthAdjust="spacing" textLength="99" x="1802" y="752.1841">handleMessage</text><polygon fill="#181818" points="538,805.5156,528,809.5156,538,813.5156,534,809.5156" style="stroke:#181818;stroke-width:1.0;"/><line style="stroke:#181818;stroke-width:1.0;" x1="532" x2="1039" y1="809.5156" y2="809.5156"/><text fill="#000000" font-family="sans-serif" font-size="13" lengthAdjust="spacing" textLength="125" x="544" y="789.3169">startProcessLocked</text><text fill="#000000" font-family="sans-serif" font-size="13" lengthAdjust="spacing" textLength="78" x="544" y="804.4497">&#38656;&#35201;&#21551;&#21160;&#36827;&#31243;</text><!--SRC=[nLJDIiGm4BxtANBptmVm82o2R64hOdSLKP2OZ6wm9YL9HMyA7aGldaJKeuWNqGSGV1btrRSmhUtQRRPbMGHlpSptVJFpPT8nr6OKq8uGUbiSEiw6c9b7DQBP0TD7Q6fg3YcDfSuYJYzL2LiKSWLK5EW-lCkLbj4-S8qr4poXmI4Glw_2c8NBbV8mnxiW4-ekQ1_a0IDWE19q93bo2q1dW9PhYw7Yc1Ocxi7p1nbYecN9ccefqqC6IQF9k0FBUlXe3RDVqpBaKEI687j0H-DMiLQ024dHvEJVIvUpMfoqOOXvo9uVXV4IA26DXZHBjm-BWaGAQ99kYh1W48wFM4EPZ5CcNwpSgvUhqUkxibX_2LiuySFITZa7QT_o085yqpEfitu8XEqmqk_69dz_lUcStNUldhhNpvtBXyxbS-VyiNlryd5p-lbs-_5uuL0OPeeAetAfT38S-DMhQ-c5OS18yeIRRSEdwSuOjsaKG0D7nlZVbRFGkPQoI6mCSEg1KkQ5ZzTd6xNMqa9zgxRGT5VTvleqaXDEaMJ9pA4svZI0LARKhDn-ZGo9z__VKfvVF5PTL_8tp1xriXJ4sFDposYJVzqTVpwS_6nQkcFP3toqZsy0]--></g></svg>