<?xml version="1.0" encoding="us-ascii" standalone="no"?><svg xmlns="http://www.w3.org/2000/svg" xmlns:xlink="http://www.w3.org/1999/xlink" contentStyleType="text/css" height="203px" preserveAspectRatio="none" style="width:372px;height:203px;background:#FFFFFF;" version="1.1" viewBox="0 0 372 203" width="372px" zoomAndPan="magnify"><defs/><g><!--class WindowManagerGlobal--><g id="elem_WindowManagerGlobal"><rect codeLine="1" fill="#F1F1F1" height="80.5938" id="WindowManagerGlobal" rx="2.5" ry="2.5" style="stroke:#181818;stroke-width:0.5;" width="259" x="101.5" y="7"/><ellipse cx="145.3" cy="23" fill="#ADD1B2" rx="11" ry="11" style="stroke:#181818;stroke-width:1.0;"/><path d="M147.6438,18.6719 C146.7063,18.2344 146.1125,18.0938 145.2375,18.0938 C142.6125,18.0938 140.6125,20.1719 140.6125,22.8906 L140.6125,24.0156 C140.6125,26.5938 142.7219,28.4844 145.6125,28.4844 C146.8313,28.4844 147.9875,28.1875 148.7375,27.6406 C149.3156,27.2344 149.6438,26.7813 149.6438,26.3906 C149.6438,25.9375 149.2531,25.5469 148.7844,25.5469 C148.5656,25.5469 148.3625,25.625 148.175,25.8125 C147.7219,26.2969 147.7219,26.2969 147.5344,26.3906 C147.1125,26.6563 146.425,26.7813 145.6594,26.7813 C143.6125,26.7813 142.3156,25.6875 142.3156,23.9844 L142.3156,22.8906 C142.3156,21.1094 143.5656,19.7969 145.3,19.7969 C145.8781,19.7969 146.4875,19.9531 146.9563,20.2031 C147.4406,20.4844 147.6125,20.7031 147.7063,21.1094 C147.7688,21.5156 147.8,21.6406 147.9406,21.7656 C148.0813,21.9063 148.3156,22.0156 148.5344,22.0156 C148.8,22.0156 149.0656,21.875 149.2375,21.6563 C149.3469,21.5 149.3781,21.3125 149.3781,20.8906 L149.3781,19.4688 C149.3781,19.0313 149.3625,18.9063 149.2688,18.75 C149.1125,18.4844 148.8313,18.3438 148.5344,18.3438 C148.2375,18.3438 148.0344,18.4375 147.8156,18.75 L147.6438,18.6719 Z " fill="#000000"/><text fill="#000000" font-family="sans-serif" font-size="14" lengthAdjust="spacing" textLength="163" x="165.7" y="27.8467">WindowManagerGlobal</text><line style="stroke:#181818;stroke-width:0.5;" x1="102.5" x2="359.5" y1="39" y2="39"/><text fill="#000000" font-family="sans-serif" font-size="14" lengthAdjust="spacing" textLength="184" x="107.5" y="55.9951">ArrayList&lt;View&gt; mViews;</text><text fill="#000000" font-family="sans-serif" font-size="14" lengthAdjust="spacing" textLength="247" x="107.5" y="72.292">ArrayList&lt;ViewRootImpl&gt; mRoots</text><line style="stroke:#181818;stroke-width:0.5;" x1="102.5" x2="359.5" y1="79.5938" y2="79.5938"/></g><!--class View--><g id="elem_View"><rect fill="#F1F1F1" height="48" id="View" rx="2.5" ry="2.5" style="stroke:#181818;stroke-width:0.5;" width="66" x="131" y="148"/><ellipse cx="146" cy="164" fill="#ADD1B2" rx="11" ry="11" style="stroke:#181818;stroke-width:1.0;"/><path d="M148.3438,159.6719 C147.4063,159.2344 146.8125,159.0938 145.9375,159.0938 C143.3125,159.0938 141.3125,161.1719 141.3125,163.8906 L141.3125,165.0156 C141.3125,167.5938 143.4219,169.4844 146.3125,169.4844 C147.5313,169.4844 148.6875,169.1875 149.4375,168.6406 C150.0156,168.2344 150.3438,167.7813 150.3438,167.3906 C150.3438,166.9375 149.9531,166.5469 149.4844,166.5469 C149.2656,166.5469 149.0625,166.625 148.875,166.8125 C148.4219,167.2969 148.4219,167.2969 148.2344,167.3906 C147.8125,167.6563 147.125,167.7813 146.3594,167.7813 C144.3125,167.7813 143.0156,166.6875 143.0156,164.9844 L143.0156,163.8906 C143.0156,162.1094 144.2656,160.7969 146,160.7969 C146.5781,160.7969 147.1875,160.9531 147.6563,161.2031 C148.1406,161.4844 148.3125,161.7031 148.4063,162.1094 C148.4688,162.5156 148.5,162.6406 148.6406,162.7656 C148.7813,162.9063 149.0156,163.0156 149.2344,163.0156 C149.5,163.0156 149.7656,162.875 149.9375,162.6563 C150.0469,162.5 150.0781,162.3125 150.0781,161.8906 L150.0781,160.4688 C150.0781,160.0313 150.0625,159.9063 149.9688,159.75 C149.8125,159.4844 149.5313,159.3438 149.2344,159.3438 C148.9375,159.3438 148.7344,159.4375 148.5156,159.75 L148.3438,159.6719 Z " fill="#000000"/><text fill="#000000" font-family="sans-serif" font-size="14" lengthAdjust="spacing" textLength="34" x="160" y="168.8467">View</text><line style="stroke:#181818;stroke-width:0.5;" x1="132" x2="196" y1="180" y2="180"/><line style="stroke:#181818;stroke-width:0.5;" x1="132" x2="196" y1="188" y2="188"/></g><g id="elem_GMN5"><path d="M6,159.5 L6,184.6328 A0,0 0 0 0 6,184.6328 L96,184.6328 A0,0 0 0 0 96,184.6328 L96,177.5 L130.808,172 L96,169.5 L96,169.5 L86,159.5 L6,159.5 A0,0 0 0 0 6,159.5 " fill="#FEFFDD" style="stroke:#181818;stroke-width:0.5;"/><path d="M86,159.5 L86,169.5 L96,169.5 L86,159.5 " fill="#FEFFDD" style="stroke:#181818;stroke-width:0.5;"/><text fill="#000000" font-family="sans-serif" font-size="13" lengthAdjust="spacing" textLength="69" x="12" y="176.5669">DecorView</text></g><!--class ViewRootImpl--><g id="elem_ViewRootImpl"><rect fill="#F1F1F1" height="48" id="ViewRootImpl" rx="2.5" ry="2.5" style="stroke:#181818;stroke-width:0.5;" width="133" x="232.5" y="148"/><ellipse cx="247.5" cy="164" fill="#ADD1B2" rx="11" ry="11" style="stroke:#181818;stroke-width:1.0;"/><path d="M249.8438,159.6719 C248.9063,159.2344 248.3125,159.0938 247.4375,159.0938 C244.8125,159.0938 242.8125,161.1719 242.8125,163.8906 L242.8125,165.0156 C242.8125,167.5938 244.9219,169.4844 247.8125,169.4844 C249.0313,169.4844 250.1875,169.1875 250.9375,168.6406 C251.5156,168.2344 251.8438,167.7813 251.8438,167.3906 C251.8438,166.9375 251.4531,166.5469 250.9844,166.5469 C250.7656,166.5469 250.5625,166.625 250.375,166.8125 C249.9219,167.2969 249.9219,167.2969 249.7344,167.3906 C249.3125,167.6563 248.625,167.7813 247.8594,167.7813 C245.8125,167.7813 244.5156,166.6875 244.5156,164.9844 L244.5156,163.8906 C244.5156,162.1094 245.7656,160.7969 247.5,160.7969 C248.0781,160.7969 248.6875,160.9531 249.1563,161.2031 C249.6406,161.4844 249.8125,161.7031 249.9063,162.1094 C249.9688,162.5156 250,162.6406 250.1406,162.7656 C250.2813,162.9063 250.5156,163.0156 250.7344,163.0156 C251,163.0156 251.2656,162.875 251.4375,162.6563 C251.5469,162.5 251.5781,162.3125 251.5781,161.8906 L251.5781,160.4688 C251.5781,160.0313 251.5625,159.9063 251.4688,159.75 C251.3125,159.4844 251.0313,159.3438 250.7344,159.3438 C250.4375,159.3438 250.2344,159.4375 250.0156,159.75 L249.8438,159.6719 Z " fill="#000000"/><text fill="#000000" font-family="sans-serif" font-size="14" lengthAdjust="spacing" textLength="101" x="261.5" y="168.8467">ViewRootImpl</text><line style="stroke:#181818;stroke-width:0.5;" x1="233.5" x2="364.5" y1="180" y2="180"/><line style="stroke:#181818;stroke-width:0.5;" x1="233.5" x2="364.5" y1="188" y2="188"/></g><!--reverse link WindowManagerGlobal to View--><g id="link_WindowManagerGlobal_View"><path codeLine="5" d="M203.4889,98.8002 C192.7139,118.5014 185.84,131.0687 176.666,147.8428 " fill="none" id="WindowManagerGlobal-backto-View" style="stroke:#181818;stroke-width:1.0;"/><polygon fill="#181818" points="209.247,88.272,202.8585,91.6168,203.4889,98.8002,209.8774,95.4555,209.247,88.272" style="stroke:#181818;stroke-width:1.0;"/><text fill="#000000" font-family="sans-serif" font-size="13" lengthAdjust="spacing" textLength="8" x="197.3036" y="107.7718">1</text><text fill="#000000" font-family="sans-serif" font-size="13" lengthAdjust="spacing" textLength="8" x="170.8867" y="136.8146">n</text></g><!--reverse link WindowManagerGlobal to ViewRootImpl--><g id="link_WindowManagerGlobal_ViewRootImpl"><path codeLine="7" d="M258.902,98.7639 C269.838,118.4651 276.834,131.0687 286.145,147.8428 " fill="none" id="WindowManagerGlobal-backto-ViewRootImpl" style="stroke:#181818;stroke-width:1.0;"/><polygon fill="#181818" points="253.078,88.272,252.4927,95.4593,258.902,98.7639,259.4873,91.5766,253.078,88.272" style="stroke:#181818;stroke-width:1.0;"/><text fill="#000000" font-family="sans-serif" font-size="13" lengthAdjust="spacing" textLength="8" x="247.8462" y="107.7718">1</text><text fill="#000000" font-family="sans-serif" font-size="13" lengthAdjust="spacing" textLength="8" x="273.8259" y="136.8146">n</text></g><!--SRC=[Iyv9B2vM2C_CIyalzqtCIqnFBNBFoKzAp56evb800iUYeiHAdypY4fkmpDHoEuLS45LiZKKkA3-_n3Et80Ue1iGivghbmcQiag6IWfQkhe9Idf82I1jNNdv9ga9EQbg9GduQM4J1Ii4bDJc_22nBZ14mcm40]--></g></svg>