<?xml version="1.0" encoding="us-ascii" standalone="no"?><svg xmlns="http://www.w3.org/2000/svg" xmlns:xlink="http://www.w3.org/1999/xlink" contentStyleType="text/css" height="1171px" preserveAspectRatio="none" style="width:1101px;height:1171px;background:#FFFFFF;" version="1.1" viewBox="0 0 1101 1171" width="1101px" zoomAndPan="magnify"><defs/><g><rect fill="#FFFFFF" height="29.1328" style="stroke:#181818;stroke-width:1.0;" width="10" x="201" y="97.6953"/><rect fill="#FFFFFF" height="101.2656" style="stroke:#181818;stroke-width:1.0;" width="10" x="201" y="183.2578"/><rect fill="#FFFFFF" height="64.1328" style="stroke:#181818;stroke-width:1.0;" width="10" x="206" y="220.3906"/><rect fill="#FFFFFF" height="473.8594" style="stroke:#181818;stroke-width:1.0;" width="10" x="386.5" y="515.5859"/><rect fill="#FFFFFF" height="406.7266" style="stroke:#181818;stroke-width:1.0;" width="10" x="391.5" y="582.7188"/><rect fill="#FFFFFF" height="278.1953" style="stroke:#181818;stroke-width:1.0;" width="10" x="396.5" y="682.1172"/><rect fill="#FFFFFF" height="108.3984" style="stroke:#181818;stroke-width:1.0;" width="10" x="386.5" y="1018.5781"/><rect fill="#FFFFFF" height="80.2656" style="stroke:#181818;stroke-width:1.0;" width="10" x="553.5" y="254.5234"/><rect fill="#FFFFFF" height="101.2656" style="stroke:#181818;stroke-width:1.0;" width="10" x="553.5" y="444.3203"/><rect fill="#FFFFFF" height="64.1328" style="stroke:#181818;stroke-width:1.0;" width="10" x="558.5" y="481.4531"/><rect fill="#FFFFFF" height="244.0625" style="stroke:#181818;stroke-width:1.0;" width="10" x="851.5" y="716.25"/><rect fill="#FFFFFF" height="164.7969" style="stroke:#181818;stroke-width:1.0;" width="10" x="856.5" y="795.5156"/><line style="stroke:#181818;stroke-width:0.5;stroke-dasharray:5.0,5.0;" x1="206" x2="206" y1="36.2969" y2="1135.9766"/><line style="stroke:#181818;stroke-width:0.5;stroke-dasharray:5.0,5.0;" x1="391" x2="391" y1="136.3438" y2="1135.9766"/><line style="stroke:#181818;stroke-width:0.5;stroke-dasharray:5.0,5.0;" x1="558" x2="558" y1="36.2969" y2="1135.9766"/><line style="stroke:#181818;stroke-width:0.5;stroke-dasharray:5.0,5.0;" x1="730.5" x2="730.5" y1="36.2969" y2="1135.9766"/><line style="stroke:#181818;stroke-width:0.5;stroke-dasharray:5.0,5.0;" x1="856.5" x2="856.5" y1="36.2969" y2="1135.9766"/><line style="stroke:#181818;stroke-width:0.5;stroke-dasharray:5.0,5.0;" x1="1022" x2="1022" y1="840.6484" y2="1135.9766"/><rect fill="#E2E2F0" height="30.2969" rx="2.5" ry="2.5" style="stroke:#181818;stroke-width:0.5;" width="152" x="130" y="5"/><text fill="#000000" font-family="sans-serif" font-size="14" lengthAdjust="spacing" textLength="138" x="137" y="24.9951">SimpleDraweeView</text><rect fill="#E2E2F0" height="30.2969" rx="2.5" ry="2.5" style="stroke:#181818;stroke-width:0.5;" width="152" x="130" y="1134.9766"/><text fill="#000000" font-family="sans-serif" font-size="14" lengthAdjust="spacing" textLength="138" x="137" y="1154.9717">SimpleDraweeView</text><rect fill="#E2E2F0" height="30.2969" rx="2.5" ry="2.5" style="stroke:#181818;stroke-width:0.5;" width="199" x="292" y="1134.9766"/><text fill="#000000" font-family="sans-serif" font-size="14" lengthAdjust="spacing" textLength="185" x="299" y="1154.9717">PipelineDraweeController</text><rect fill="#E2E2F0" height="30.2969" rx="2.5" ry="2.5" style="stroke:#181818;stroke-width:0.5;" width="115" x="501" y="5"/><text fill="#000000" font-family="sans-serif" font-size="14" lengthAdjust="spacing" textLength="101" x="508" y="24.9951">DraweeHolder</text><rect fill="#E2E2F0" height="30.2969" rx="2.5" ry="2.5" style="stroke:#181818;stroke-width:0.5;" width="115" x="501" y="1134.9766"/><text fill="#000000" font-family="sans-serif" font-size="14" lengthAdjust="spacing" textLength="101" x="508" y="1154.9717">DraweeHolder</text><rect fill="#E2E2F0" height="30.2969" rx="2.5" ry="2.5" style="stroke:#181818;stroke-width:0.5;" width="116" x="672.5" y="5"/><text fill="#000000" font-family="sans-serif" font-size="14" lengthAdjust="spacing" textLength="102" x="679.5" y="24.9951">RootDrawable</text><rect fill="#E2E2F0" height="30.2969" rx="2.5" ry="2.5" style="stroke:#181818;stroke-width:0.5;" width="116" x="672.5" y="1134.9766"/><text fill="#000000" font-family="sans-serif" font-size="14" lengthAdjust="spacing" textLength="102" x="679.5" y="1154.9717">RootDrawable</text><rect fill="#E2E2F0" height="30.2969" rx="2.5" ry="2.5" style="stroke:#181818;stroke-width:0.5;" width="116" x="798.5" y="5"/><text fill="#000000" font-family="sans-serif" font-size="14" lengthAdjust="spacing" textLength="102" x="805.5" y="24.9951">ImagePipeline</text><rect fill="#E2E2F0" height="30.2969" rx="2.5" ry="2.5" style="stroke:#181818;stroke-width:0.5;" width="116" x="798.5" y="1134.9766"/><text fill="#000000" font-family="sans-serif" font-size="14" lengthAdjust="spacing" textLength="102" x="805.5" y="1154.9717">ImagePipeline</text><rect fill="#E2E2F0" height="30.2969" rx="2.5" ry="2.5" style="stroke:#181818;stroke-width:0.5;" width="97" x="974" y="1134.9766"/><text fill="#000000" font-family="sans-serif" font-size="14" lengthAdjust="spacing" textLength="83" x="981" y="1154.9717">DataSource</text><rect fill="#FFFFFF" height="29.1328" style="stroke:#181818;stroke-width:1.0;" width="10" x="201" y="97.6953"/><rect fill="#FFFFFF" height="101.2656" style="stroke:#181818;stroke-width:1.0;" width="10" x="201" y="183.2578"/><rect fill="#FFFFFF" height="64.1328" style="stroke:#181818;stroke-width:1.0;" width="10" x="206" y="220.3906"/><rect fill="#FFFFFF" height="473.8594" style="stroke:#181818;stroke-width:1.0;" width="10" x="386.5" y="515.5859"/><rect fill="#FFFFFF" height="406.7266" style="stroke:#181818;stroke-width:1.0;" width="10" x="391.5" y="582.7188"/><rect fill="#FFFFFF" height="278.1953" style="stroke:#181818;stroke-width:1.0;" width="10" x="396.5" y="682.1172"/><rect fill="#FFFFFF" height="108.3984" style="stroke:#181818;stroke-width:1.0;" width="10" x="386.5" y="1018.5781"/><rect fill="#FFFFFF" height="80.2656" style="stroke:#181818;stroke-width:1.0;" width="10" x="553.5" y="254.5234"/><rect fill="#FFFFFF" height="101.2656" style="stroke:#181818;stroke-width:1.0;" width="10" x="553.5" y="444.3203"/><rect fill="#FFFFFF" height="64.1328" style="stroke:#181818;stroke-width:1.0;" width="10" x="558.5" y="481.4531"/><rect fill="#FFFFFF" height="244.0625" style="stroke:#181818;stroke-width:1.0;" width="10" x="851.5" y="716.25"/><rect fill="#FFFFFF" height="164.7969" style="stroke:#181818;stroke-width:1.0;" width="10" x="856.5" y="795.5156"/><ellipse cx="7.5" cy="96.9453" fill="none" rx="4" ry="4" style="stroke:#181818;stroke-width:1.5;"/><polygon fill="#181818" points="189,93.6953,199,97.6953,189,101.6953,193,97.6953" style="stroke:#181818;stroke-width:1.0;"/><line style="stroke:#181818;stroke-width:1.0;" x1="12" x2="195" y1="97.6953" y2="97.6953"/><text fill="#000000" font-family="sans-serif" font-size="13" lengthAdjust="spacing" textLength="96" x="15" y="62.3638">setImageURI();</text><text fill="#000000" font-family="sans-serif" font-size="13" lengthAdjust="spacing" textLength="174" x="15" y="77.4966">Framework.onViewCreated</text><text fill="#000000" font-family="sans-serif" font-size="13" lengthAdjust="spacing" textLength="39" x="15" y="92.6294">&#20013;&#35843;&#29992;</text><polygon fill="#181818" points="280,122.8281,290,126.8281,280,130.8281,284,126.8281" style="stroke:#181818;stroke-width:1.0;"/><line style="stroke:#181818;stroke-width:1.0;" x1="206" x2="286" y1="126.8281" y2="126.8281"/><text fill="#000000" font-family="sans-serif" font-size="13" lengthAdjust="spacing" textLength="26" x="213" y="121.7622">&#26500;&#36896;</text><rect fill="#E2E2F0" height="30.2969" rx="2.5" ry="2.5" style="stroke:#181818;stroke-width:0.5;" width="199" x="292" y="105.6953"/><text fill="#000000" font-family="sans-serif" font-size="14" lengthAdjust="spacing" textLength="185" x="299" y="125.6904">PipelineDraweeController</text><ellipse cx="7.5" cy="182.5078" fill="none" rx="4" ry="4" style="stroke:#181818;stroke-width:1.5;"/><polygon fill="#181818" points="189,179.2578,199,183.2578,189,187.2578,193,183.2578" style="stroke:#181818;stroke-width:1.0;"/><line style="stroke:#181818;stroke-width:1.0;" x1="12" x2="195" y1="183.2578" y2="183.2578"/><text fill="#000000" font-family="sans-serif" font-size="13" lengthAdjust="spacing" textLength="141" x="15" y="163.0591">onAttachedToWindow</text><text fill="#000000" font-family="sans-serif" font-size="13" lengthAdjust="spacing" textLength="78" x="15" y="178.1919">&#65288;&#29238;&#31867;&#26041;&#27861;&#65289;</text><line style="stroke:#181818;stroke-width:1.0;" x1="211" x2="258" y1="207.3906" y2="207.3906"/><line style="stroke:#181818;stroke-width:1.0;" x1="258" x2="258" y1="207.3906" y2="220.3906"/><line style="stroke:#181818;stroke-width:1.0;" x1="217" x2="258" y1="220.3906" y2="220.3906"/><polygon fill="#181818" points="227,216.3906,217,220.3906,227,224.3906,223,220.3906" style="stroke:#181818;stroke-width:1.0;"/><text fill="#000000" font-family="sans-serif" font-size="13" lengthAdjust="spacing" textLength="58" x="223" y="202.3247">onAttach</text><polygon fill="#181818" points="541.5,250.5234,551.5,254.5234,541.5,258.5234,545.5,254.5234" style="stroke:#181818;stroke-width:1.0;"/><line style="stroke:#181818;stroke-width:1.0;" x1="216" x2="547.5" y1="254.5234" y2="254.5234"/><text fill="#000000" font-family="sans-serif" font-size="13" lengthAdjust="spacing" textLength="58" x="223" y="249.4575">onAttach</text><line style="stroke:#181818;stroke-width:1.0;" x1="563.5" x2="605.5" y1="333.7891" y2="333.7891"/><line style="stroke:#181818;stroke-width:1.0;" x1="605.5" x2="605.5" y1="333.7891" y2="346.7891"/><line style="stroke:#181818;stroke-width:1.0;" x1="558.5" x2="605.5" y1="346.7891" y2="346.7891"/><polygon fill="#181818" points="568.5,342.7891,558.5,346.7891,568.5,350.7891,564.5,346.7891" style="stroke:#181818;stroke-width:1.0;"/><text fill="#000000" font-family="sans-serif" font-size="13" lengthAdjust="spacing" textLength="148" x="570.5" y="313.5903">&#27492;&#26102;&#36824;&#26410;&#35774;&#32622;visible,&#19981;&#20250;</text><text fill="#000000" font-family="sans-serif" font-size="13" lengthAdjust="spacing" textLength="129" x="570.5" y="328.7231">&#35843;&#29992;attachController</text><ellipse cx="7.5" cy="385.3047" fill="none" rx="4" ry="4" style="stroke:#181818;stroke-width:1.5;"/><polygon fill="#181818" points="194,382.0547,204,386.0547,194,390.0547,198,386.0547" style="stroke:#181818;stroke-width:1.0;"/><line style="stroke:#181818;stroke-width:1.0;" x1="12" x2="200" y1="386.0547" y2="386.0547"/><text fill="#000000" font-family="sans-serif" font-size="13" lengthAdjust="spacing" textLength="143" x="15" y="365.856">onVisibilityAggregated</text><text fill="#000000" font-family="sans-serif" font-size="13" lengthAdjust="spacing" textLength="146" x="15" y="380.9888">(&#29238;&#31867;ImageView&#30340;&#26041;&#27861;)</text><polygon fill="#181818" points="718.5,411.1875,728.5,415.1875,718.5,419.1875,722.5,415.1875" style="stroke:#181818;stroke-width:1.0;"/><line style="stroke:#181818;stroke-width:1.0;" x1="206" x2="724.5" y1="415.1875" y2="415.1875"/><text fill="#000000" font-family="sans-serif" font-size="13" lengthAdjust="spacing" textLength="61" x="213" y="410.1216">setVisible</text><polygon fill="#181818" points="574.5,440.3203,564.5,444.3203,574.5,448.3203,570.5,444.3203" style="stroke:#181818;stroke-width:1.0;"/><line style="stroke:#181818;stroke-width:1.0;" x1="568.5" x2="729.5" y1="444.3203" y2="444.3203"/><text fill="#000000" font-family="sans-serif" font-size="13" lengthAdjust="spacing" textLength="117" x="580.5" y="439.2544">onVisibilityChange</text><line style="stroke:#181818;stroke-width:1.0;" x1="563.5" x2="610.5" y1="468.4531" y2="468.4531"/><line style="stroke:#181818;stroke-width:1.0;" x1="610.5" x2="610.5" y1="468.4531" y2="481.4531"/><line style="stroke:#181818;stroke-width:1.0;" x1="569.5" x2="610.5" y1="481.4531" y2="481.4531"/><polygon fill="#181818" points="579.5,477.4531,569.5,481.4531,579.5,485.4531,575.5,481.4531" style="stroke:#181818;stroke-width:1.0;"/><text fill="#000000" font-family="sans-serif" font-size="13" lengthAdjust="spacing" textLength="103" x="575.5" y="463.3872">attachController</text><polygon fill="#181818" points="407.5,511.5859,397.5,515.5859,407.5,519.5859,403.5,515.5859" style="stroke:#181818;stroke-width:1.0;"/><line style="stroke:#181818;stroke-width:1.0;" x1="401.5" x2="557.5" y1="515.5859" y2="515.5859"/><text fill="#000000" font-family="sans-serif" font-size="13" lengthAdjust="spacing" textLength="58" x="413.5" y="510.52">onAttach</text><line style="stroke:#181818;stroke-width:1.0;" x1="396.5" x2="443.5" y1="569.7188" y2="569.7188"/><line style="stroke:#181818;stroke-width:1.0;" x1="443.5" x2="443.5" y1="569.7188" y2="582.7188"/><line style="stroke:#181818;stroke-width:1.0;" x1="402.5" x2="443.5" y1="582.7188" y2="582.7188"/><polygon fill="#181818" points="412.5,578.7188,402.5,582.7188,412.5,586.7188,408.5,582.7188" style="stroke:#181818;stroke-width:1.0;"/><text fill="#000000" font-family="sans-serif" font-size="13" lengthAdjust="spacing" textLength="97" x="408.5" y="564.6528">submitRequest</text><line style="stroke:#181818;stroke-width:1.0;" x1="401.5" x2="443.5" y1="631.9844" y2="631.9844"/><line style="stroke:#181818;stroke-width:1.0;" x1="443.5" x2="443.5" y1="631.9844" y2="644.9844"/><line style="stroke:#181818;stroke-width:1.0;" x1="402.5" x2="443.5" y1="644.9844" y2="644.9844"/><polygon fill="#181818" points="412.5,640.9844,402.5,644.9844,412.5,648.9844,408.5,644.9844" style="stroke:#181818;stroke-width:1.0;"/><text fill="#000000" font-family="sans-serif" font-size="13" lengthAdjust="spacing" textLength="109" x="408.5" y="611.7856">getCachedImage</text><text fill="#000000" font-family="sans-serif" font-size="13" lengthAdjust="spacing" textLength="97" x="408.5" y="626.9185">&#33719;&#21462;&#32531;&#23384;Bitmap</text><line style="stroke:#181818;stroke-width:1.0;" x1="401.5" x2="448.5" y1="669.1172" y2="669.1172"/><line style="stroke:#181818;stroke-width:1.0;" x1="448.5" x2="448.5" y1="669.1172" y2="682.1172"/><line style="stroke:#181818;stroke-width:1.0;" x1="407.5" x2="448.5" y1="682.1172" y2="682.1172"/><polygon fill="#181818" points="417.5,678.1172,407.5,682.1172,417.5,686.1172,413.5,682.1172" style="stroke:#181818;stroke-width:1.0;"/><text fill="#000000" font-family="sans-serif" font-size="13" lengthAdjust="spacing" textLength="96" x="413.5" y="664.0513">getDataSource</text><polygon fill="#181818" points="839.5,712.25,849.5,716.25,839.5,720.25,843.5,716.25" style="stroke:#181818;stroke-width:1.0;"/><line style="stroke:#181818;stroke-width:1.0;" x1="406.5" x2="845.5" y1="716.25" y2="716.25"/><text fill="#000000" font-family="sans-serif" font-size="13" lengthAdjust="spacing" textLength="130" x="413.5" y="711.1841">fetchDecodedImage</text><line style="stroke:#181818;stroke-width:1.0;" x1="861.5" x2="903.5" y1="745.3828" y2="745.3828"/><line style="stroke:#181818;stroke-width:1.0;" x1="903.5" x2="903.5" y1="745.3828" y2="758.3828"/><line style="stroke:#181818;stroke-width:1.0;" x1="862.5" x2="903.5" y1="758.3828" y2="758.3828"/><polygon fill="#181818" points="872.5,754.3828,862.5,758.3828,872.5,762.3828,868.5,758.3828" style="stroke:#181818;stroke-width:1.0;"/><text fill="#000000" font-family="sans-serif" font-size="13" lengthAdjust="spacing" textLength="91" x="868.5" y="740.3169">&#29983;&#25104;&#29983;&#20135;&#32773;&#24207;&#21015;</text><line style="stroke:#181818;stroke-width:1.0;" x1="861.5" x2="908.5" y1="782.5156" y2="782.5156"/><line style="stroke:#181818;stroke-width:1.0;" x1="908.5" x2="908.5" y1="782.5156" y2="795.5156"/><line style="stroke:#181818;stroke-width:1.0;" x1="867.5" x2="908.5" y1="795.5156" y2="795.5156"/><polygon fill="#181818" points="877.5,791.5156,867.5,795.5156,877.5,799.5156,873.5,795.5156" style="stroke:#181818;stroke-width:1.0;"/><text fill="#000000" font-family="sans-serif" font-size="13" lengthAdjust="spacing" textLength="142" x="873.5" y="777.4497">submitFetchRequest()</text><polygon fill="#181818" points="962,840.7813,972,844.7813,962,848.7813,966,844.7813" style="stroke:#181818;stroke-width:1.0;"/><line style="stroke:#181818;stroke-width:1.0;" x1="866.5" x2="968" y1="844.7813" y2="844.7813"/><text fill="#000000" font-family="sans-serif" font-size="13" lengthAdjust="spacing" textLength="65" x="873.5" y="824.5825">&#26500;&#36896;&#26102;&#20256;&#20837;</text><text fill="#000000" font-family="sans-serif" font-size="13" lengthAdjust="spacing" textLength="65" x="873.5" y="839.7153">&#29983;&#20135;&#32773;&#38431;&#21015;</text><rect fill="#E2E2F0" height="30.2969" rx="2.5" ry="2.5" style="stroke:#181818;stroke-width:0.5;" width="97" x="974" y="811.4844"/><text fill="#000000" font-family="sans-serif" font-size="14" lengthAdjust="spacing" textLength="83" x="981" y="831.4795">DataSource</text><line style="stroke:#181818;stroke-width:1.0;" x1="1022.5" x2="1064.5" y1="889.0469" y2="889.0469"/><line style="stroke:#181818;stroke-width:1.0;" x1="1064.5" x2="1064.5" y1="889.0469" y2="902.0469"/><line style="stroke:#181818;stroke-width:1.0;" x1="1023.5" x2="1064.5" y1="902.0469" y2="902.0469"/><polygon fill="#181818" points="1033.5,898.0469,1023.5,902.0469,1033.5,906.0469,1029.5,902.0469" style="stroke:#181818;stroke-width:1.0;"/><text fill="#000000" font-family="sans-serif" font-size="13" lengthAdjust="spacing" textLength="65" x="1029.5" y="868.8481">&#29983;&#20135;&#32773;&#38431;&#21015;</text><text fill="#000000" font-family="sans-serif" font-size="13" lengthAdjust="spacing" textLength="52" x="1029.5" y="883.981">&#21551;&#21160;&#25191;&#34892;</text><polygon fill="#181818" points="877.5,927.1797,867.5,931.1797,877.5,935.1797,873.5,931.1797" style="stroke:#181818;stroke-width:1.0;"/><line style="stroke:#181818;stroke-width:1.0;stroke-dasharray:2.0,2.0;" x1="871.5" x2="1021.5" y1="931.1797" y2="931.1797"/><text fill="#000000" font-family="sans-serif" font-size="13" lengthAdjust="spacing" textLength="52" x="883.5" y="926.1138">&#36820;&#22238;&#23454;&#20363;</text><polygon fill="#181818" points="412.5,956.3125,402.5,960.3125,412.5,964.3125,408.5,960.3125" style="stroke:#181818;stroke-width:1.0;"/><line style="stroke:#181818;stroke-width:1.0;stroke-dasharray:2.0,2.0;" x1="406.5" x2="855.5" y1="960.3125" y2="960.3125"/><text fill="#000000" font-family="sans-serif" font-size="13" lengthAdjust="spacing" textLength="375" x="418.5" y="955.2466">&#36820;&#22238; DataSource&lt;CloseableReference&lt;CloseableImage&gt;&gt;</text><polygon fill="#181818" points="1010.5,985.4453,1020.5,989.4453,1010.5,993.4453,1014.5,989.4453" style="stroke:#181818;stroke-width:1.0;"/><line style="stroke:#181818;stroke-width:1.0;" x1="391.5" x2="1016.5" y1="989.4453" y2="989.4453"/><text fill="#000000" font-family="sans-serif" font-size="13" lengthAdjust="spacing" textLength="242" x="398.5" y="984.3794">&#160;&#160;subscribe(DataSubscriber)&#27880;&#20876;&#35746;&#38405;&#32773;</text><polygon fill="#181818" points="407.5,1014.5781,397.5,1018.5781,407.5,1022.5781,403.5,1018.5781" style="stroke:#181818;stroke-width:1.0;"/><line style="stroke:#181818;stroke-width:1.0;" x1="401.5" x2="1021.5" y1="1018.5781" y2="1018.5781"/><text fill="#000000" font-family="sans-serif" font-size="13" lengthAdjust="spacing" textLength="343" x="413.5" y="1013.5122">&#36820;&#22238;&#22270;&#29255;Bitmap&#12290;&#29238;&#31867;&#30340;onNewResultInternal()&#20250;&#34987;&#25191;&#34892;</text><line style="stroke:#181818;stroke-width:1.0;" x1="396.5" x2="438.5" y1="1047.7109" y2="1047.7109"/><line style="stroke:#181818;stroke-width:1.0;" x1="438.5" x2="438.5" y1="1047.7109" y2="1060.7109"/><line style="stroke:#181818;stroke-width:1.0;" x1="397.5" x2="438.5" y1="1060.7109" y2="1060.7109"/><polygon fill="#181818" points="407.5,1056.7109,397.5,1060.7109,407.5,1064.7109,403.5,1060.7109" style="stroke:#181818;stroke-width:1.0;"/><text fill="#000000" font-family="sans-serif" font-size="13" lengthAdjust="spacing" textLength="102" x="403.5" y="1042.645">createDrawable</text><line style="stroke:#181818;stroke-width:1.0;" x1="396.5" x2="438.5" y1="1104.9766" y2="1104.9766"/><line style="stroke:#181818;stroke-width:1.0;" x1="438.5" x2="438.5" y1="1104.9766" y2="1117.9766"/><line style="stroke:#181818;stroke-width:1.0;" x1="397.5" x2="438.5" y1="1117.9766" y2="1117.9766"/><polygon fill="#181818" points="407.5,1113.9766,397.5,1117.9766,407.5,1121.9766,403.5,1117.9766" style="stroke:#181818;stroke-width:1.0;"/><text fill="#000000" font-family="sans-serif" font-size="13" lengthAdjust="spacing" textLength="134" x="403.5" y="1084.7778">hierarchy.setImage()</text><text fill="#000000" font-family="sans-serif" font-size="13" lengthAdjust="spacing" textLength="52" x="403.5" y="1099.9106">&#26174;&#31034;&#22270;&#29255;</text><!--SRC=[dLLDJnD16BxlhzZ4nBJK4hruA8O4IuXSZ2cA1_OoR5_QYTkPEftIS2CAs2eAYGWD6422WMYe6X94hEN7sFtWn5zmThUbk_rOII-RxCpxFEypppCVKpGwB4_WJ5Q3KOOA09CO2d8a4fDpmCSpA0LF4kEXy912nXZAG86oPuEKs4Ln1eX3KY7rqoFh-qjpxL3gu17SZt0MD4mQet5AEAEQ1amU691Zih6zS36_AoK1gHpF2huEBP8qrLCY9IES8pKDoSVqAIP9Mb38PRLe5a_C7x-DzL_6yOVBQgchh6vyJRgk0FVl0TMIGhktUQ3ue3aVOtk7Q5IOSxHlR9nOvsNZunUhKZF_L6Pn3azhSAj- -hPUtLI8wpjoTBIixU6OBNdI9i0QvdCZgHI3b9jWo7NCYTikDJSNNFV2NQr8KChj4IIaEFjaqfKbUITwUDOI44yZae9W5snCn-hQ4JrtM2HYkzWj9o-5r1CVmEqSaFnq1lC4FCz3ZlV58Y990OyxEzWnNoJwxgU-icvMt-j7vVkOPr2sFsPReE0UHHnDq3nJ8P36QTuiSB0pmDNqAAWqsP0c-MiwG37PNDinYglYMpyxiEONzRCLlRZnFrZBo36xOyFDKBWJrrgAz-eG1wHUtTKNFolaglD5USVkx07uuOvKRwb2zDLl-kj3etHWVLhs0RkiqpfVqxUszSfslVQcNMPG9D7e5TYZvbvSepcmJqm2Pe01yGuvxCF3tgthQ-YTwDKtC7YVApTltBbxUyZzYanoAiFJ479AcdyiR1mVwalBLcNlehme3BoMWklK-DCAtDUD0BPgPkcLUqR-phzmhp1nSr7o40e9oEKrFauuC8AqK5ZSbjRUrqQ-VHvLrNdmclTRlonf30mnDJqts7nWGs656EMQkN_cBkaV]--></g></svg>