<?xml version="1.0" encoding="us-ascii" standalone="no"?><svg xmlns="http://www.w3.org/2000/svg" xmlns:xlink="http://www.w3.org/1999/xlink" contentStyleType="text/css" height="1166px" preserveAspectRatio="none" style="width:982px;height:1166px;background:#FFFFFF;" version="1.1" viewBox="0 0 982 1166" width="982px" zoomAndPan="magnify"><defs/><g><rect fill="#F0F0F0" height="1154.0391" style="stroke:#181818;stroke-width:0.5;" width="851.5" x="125" y="6"/><text fill="#000000" font-family="sans-serif" font-size="13" font-weight="bold" lengthAdjust="spacing" textLength="30" x="533.25" y="18.0669">APP</text><rect fill="#FFFFFF" height="29.1328" style="stroke:#181818;stroke-width:1.0;" width="10" x="184" y="102.6953"/><rect fill="#FFFFFF" height="370.6563" style="stroke:#181818;stroke-width:1.0;" width="10" x="184" y="218.2266"/><rect fill="#FFFFFF" height="303.5234" style="stroke:#181818;stroke-width:1.0;" width="10" x="189" y="285.3594"/><rect fill="#FFFFFF" height="76.2656" style="stroke:#181818;stroke-width:1.0;" width="10" x="194" y="327.4922"/><rect fill="#FFFFFF" height="19" style="stroke:#181818;stroke-width:1.0;" width="10" x="199" y="384.7578"/><rect fill="#FFFFFF" height="59.1328" style="stroke:#181818;stroke-width:1.0;" width="10" x="184" y="744.4141"/><rect fill="#FFFFFF" height="168.5313" style="stroke:#181818;stroke-width:1.0;" width="10" x="184" y="948.2109"/><rect fill="#FFFFFF" height="34.1328" style="stroke:#181818;stroke-width:1.0;" width="10" x="189" y="1015.3438"/><rect fill="#FFFFFF" height="846.3828" style="stroke:#181818;stroke-width:1.0;" width="10" x="404" y="131.8281"/><rect fill="#FFFFFF" height="64.1328" style="stroke:#181818;stroke-width:1.0;" width="10" x="409" y="184.0938"/><rect fill="#FFFFFF" height="352.1953" style="stroke:#181818;stroke-width:1.0;" width="10" x="409" y="626.0156"/><rect fill="#FFFFFF" height="106.2656" style="stroke:#181818;stroke-width:1.0;" width="10" x="414" y="668.1484"/><rect fill="#FFFFFF" height="64.1328" style="stroke:#181818;stroke-width:1.0;" width="10" x="419" y="710.2813"/><rect fill="#FFFFFF" height="64.1328" style="stroke:#181818;stroke-width:1.0;" width="10" x="414" y="914.0781"/><rect fill="#FFFFFF" height="14" style="stroke:#181818;stroke-width:1.0;" width="10" x="737" y="460.1875"/><rect fill="#FFFFFF" height="29.1328" style="stroke:#181818;stroke-width:1.0;" width="10" x="737" y="559.75"/><rect fill="#FFFFFF" height="29.1328" style="stroke:#181818;stroke-width:1.0;" width="10" x="737" y="832.6797"/><rect fill="#FFFFFF" height="38.1328" style="stroke:#181818;stroke-width:1.0;" width="10" x="737" y="1078.6094"/><rect fill="#FFFFFF" height="29.1328" style="stroke:#181818;stroke-width:1.0;" width="10" x="906" y="803.5469"/><rect fill="#FFFFFF" height="29.1328" style="stroke:#181818;stroke-width:1.0;" width="10" x="906" y="1049.4766"/><line style="stroke:#181818;stroke-width:0.5;stroke-dasharray:5.0,5.0;" x1="189" x2="189" y1="56.4297" y2="1125.7422"/><line style="stroke:#181818;stroke-width:0.5;stroke-dasharray:5.0,5.0;" x1="409" x2="409" y1="56.4297" y2="1125.7422"/><line style="stroke:#181818;stroke-width:0.5;stroke-dasharray:5.0,5.0;" x1="613.5" x2="613.5" y1="428.4063" y2="1125.7422"/><line style="stroke:#181818;stroke-width:0.5;stroke-dasharray:5.0,5.0;" x1="741.5" x2="741.5" y1="56.4297" y2="1125.7422"/><line style="stroke:#181818;stroke-width:0.5;stroke-dasharray:5.0,5.0;" x1="910.5" x2="910.5" y1="498.8359" y2="1125.7422"/><rect fill="#E2E2F0" height="30.2969" rx="2.5" ry="2.5" style="stroke:#181818;stroke-width:0.5;" width="120" x="129" y="25.1328"/><text fill="#000000" font-family="sans-serif" font-size="14" lengthAdjust="spacing" textLength="106" x="136" y="45.1279">ActivityThread</text><rect fill="#E2E2F0" height="30.2969" rx="2.5" ry="2.5" style="stroke:#181818;stroke-width:0.5;" width="120" x="129" y="1124.7422"/><text fill="#000000" font-family="sans-serif" font-size="14" lengthAdjust="spacing" textLength="106" x="136" y="1144.7373">ActivityThread</text><rect fill="#E2E2F0" height="30.2969" rx="2.5" ry="2.5" style="stroke:#181818;stroke-width:0.5;" width="162" x="328" y="25.1328"/><text fill="#000000" font-family="sans-serif" font-size="14" lengthAdjust="spacing" textLength="148" x="335" y="45.1279">TransactionExecutor</text><rect fill="#E2E2F0" height="30.2969" rx="2.5" ry="2.5" style="stroke:#181818;stroke-width:0.5;" width="162" x="328" y="1124.7422"/><text fill="#000000" font-family="sans-serif" font-size="14" lengthAdjust="spacing" textLength="148" x="335" y="1144.7373">TransactionExecutor</text><rect fill="#E2E2F0" height="30.2969" rx="2.5" ry="2.5" style="stroke:#181818;stroke-width:0.5;" width="105" x="561.5" y="1124.7422"/><text fill="#000000" font-family="sans-serif" font-size="14" lengthAdjust="spacing" textLength="91" x="568.5" y="1144.7373">ContextImpl</text><rect fill="#E2E2F0" height="30.2969" rx="2.5" ry="2.5" style="stroke:#181818;stroke-width:0.5;" width="131" x="676.5" y="25.1328"/><text fill="#000000" font-family="sans-serif" font-size="14" lengthAdjust="spacing" textLength="117" x="683.5" y="45.1279">Instrumentation</text><rect fill="#E2E2F0" height="30.2969" rx="2.5" ry="2.5" style="stroke:#181818;stroke-width:0.5;" width="131" x="676.5" y="1124.7422"/><text fill="#000000" font-family="sans-serif" font-size="14" lengthAdjust="spacing" textLength="117" x="683.5" y="1144.7373">Instrumentation</text><rect fill="#E2E2F0" height="30.2969" rx="2.5" ry="2.5" style="stroke:#181818;stroke-width:0.5;" width="123" x="849.5" y="1124.7422"/><text fill="#000000" font-family="sans-serif" font-size="14" lengthAdjust="spacing" textLength="109" x="856.5" y="1144.7373">SecondActivity</text><rect fill="#FFFFFF" height="29.1328" style="stroke:#181818;stroke-width:1.0;" width="10" x="184" y="102.6953"/><rect fill="#FFFFFF" height="370.6563" style="stroke:#181818;stroke-width:1.0;" width="10" x="184" y="218.2266"/><rect fill="#FFFFFF" height="303.5234" style="stroke:#181818;stroke-width:1.0;" width="10" x="189" y="285.3594"/><rect fill="#FFFFFF" height="76.2656" style="stroke:#181818;stroke-width:1.0;" width="10" x="194" y="327.4922"/><rect fill="#FFFFFF" height="19" style="stroke:#181818;stroke-width:1.0;" width="10" x="199" y="384.7578"/><rect fill="#FFFFFF" height="59.1328" style="stroke:#181818;stroke-width:1.0;" width="10" x="184" y="744.4141"/><rect fill="#FFFFFF" height="168.5313" style="stroke:#181818;stroke-width:1.0;" width="10" x="184" y="948.2109"/><rect fill="#FFFFFF" height="34.1328" style="stroke:#181818;stroke-width:1.0;" width="10" x="189" y="1015.3438"/><rect fill="#FFFFFF" height="846.3828" style="stroke:#181818;stroke-width:1.0;" width="10" x="404" y="131.8281"/><rect fill="#FFFFFF" height="64.1328" style="stroke:#181818;stroke-width:1.0;" width="10" x="409" y="184.0938"/><rect fill="#FFFFFF" height="352.1953" style="stroke:#181818;stroke-width:1.0;" width="10" x="409" y="626.0156"/><rect fill="#FFFFFF" height="106.2656" style="stroke:#181818;stroke-width:1.0;" width="10" x="414" y="668.1484"/><rect fill="#FFFFFF" height="64.1328" style="stroke:#181818;stroke-width:1.0;" width="10" x="419" y="710.2813"/><rect fill="#FFFFFF" height="64.1328" style="stroke:#181818;stroke-width:1.0;" width="10" x="414" y="914.0781"/><rect fill="#FFFFFF" height="14" style="stroke:#181818;stroke-width:1.0;" width="10" x="737" y="460.1875"/><rect fill="#FFFFFF" height="29.1328" style="stroke:#181818;stroke-width:1.0;" width="10" x="737" y="559.75"/><rect fill="#FFFFFF" height="29.1328" style="stroke:#181818;stroke-width:1.0;" width="10" x="737" y="832.6797"/><rect fill="#FFFFFF" height="38.1328" style="stroke:#181818;stroke-width:1.0;" width="10" x="737" y="1078.6094"/><rect fill="#FFFFFF" height="29.1328" style="stroke:#181818;stroke-width:1.0;" width="10" x="906" y="803.5469"/><rect fill="#FFFFFF" height="29.1328" style="stroke:#181818;stroke-width:1.0;" width="10" x="906" y="1049.4766"/><ellipse cx="7.5" cy="101.9453" fill="none" rx="4" ry="4" style="stroke:#181818;stroke-width:1.5;"/><polygon fill="#181818" points="172,98.6953,182,102.6953,172,106.6953,176,102.6953" style="stroke:#181818;stroke-width:1.0;"/><line style="stroke:#181818;stroke-width:1.0;" x1="12" x2="178" y1="102.6953" y2="102.6953"/><text fill="#000000" font-family="sans-serif" font-size="13" lengthAdjust="spacing" textLength="115" x="10" y="82.4966">&#9316; handleMessage</text><text fill="#000000" font-family="sans-serif" font-size="13" lengthAdjust="spacing" textLength="157" x="10" y="97.6294">EXECUTE_TRANSACTION</text><polygon fill="#181818" points="392,127.8281,402,131.8281,392,135.8281,396,131.8281" style="stroke:#181818;stroke-width:1.0;"/><line style="stroke:#181818;stroke-width:1.0;" x1="189" x2="398" y1="131.8281" y2="131.8281"/><text fill="#000000" font-family="sans-serif" font-size="13" lengthAdjust="spacing" textLength="134" x="253" y="126.7622">execute(transaction)</text><line style="stroke:#181818;stroke-width:1.0;" x1="414" x2="461" y1="171.0938" y2="171.0938"/><line style="stroke:#181818;stroke-width:1.0;" x1="461" x2="461" y1="171.0938" y2="184.0938"/><line style="stroke:#181818;stroke-width:1.0;" x1="420" x2="461" y1="184.0938" y2="184.0938"/><polygon fill="#181818" points="430,180.0938,420,184.0938,430,188.0938,426,184.0938" style="stroke:#181818;stroke-width:1.0;"/><text fill="#000000" font-family="sans-serif" font-size="13" lengthAdjust="spacing" textLength="123" x="426" y="150.895">LaunchActivityItem</text><text fill="#000000" font-family="sans-serif" font-size="13" lengthAdjust="spacing" textLength="56" x="426" y="166.0278">.execute</text><polygon fill="#181818" points="205,214.2266,195,218.2266,205,222.2266,201,218.2266" style="stroke:#181818;stroke-width:1.0;"/><line style="stroke:#181818;stroke-width:1.0;" x1="199" x2="408" y1="218.2266" y2="218.2266"/><text fill="#000000" font-family="sans-serif" font-size="13" lengthAdjust="spacing" textLength="137" x="211" y="213.1606">handleLaunchActivity</text><line style="stroke:#181818;stroke-width:1.0;" x1="194" x2="241" y1="272.3594" y2="272.3594"/><line style="stroke:#181818;stroke-width:1.0;" x1="241" x2="241" y1="272.3594" y2="285.3594"/><line style="stroke:#181818;stroke-width:1.0;" x1="200" x2="241" y1="285.3594" y2="285.3594"/><polygon fill="#181818" points="210,281.3594,200,285.3594,210,289.3594,206,285.3594" style="stroke:#181818;stroke-width:1.0;"/><text fill="#000000" font-family="sans-serif" font-size="13" lengthAdjust="spacing" textLength="146" x="206" y="267.2935">performLaunchActivity</text><line style="stroke:#181818;stroke-width:1.0;" x1="199" x2="246" y1="314.4922" y2="314.4922"/><line style="stroke:#181818;stroke-width:1.0;" x1="246" x2="246" y1="314.4922" y2="327.4922"/><line style="stroke:#181818;stroke-width:1.0;" x1="205" x2="246" y1="327.4922" y2="327.4922"/><polygon fill="#181818" points="215,323.4922,205,327.4922,215,331.4922,211,327.4922" style="stroke:#181818;stroke-width:1.0;"/><text fill="#000000" font-family="sans-serif" font-size="13" lengthAdjust="spacing" textLength="191" x="211" y="309.4263">createBaseContextForActivity</text><line style="stroke:#181818;stroke-width:1.0;" x1="204" x2="251" y1="371.7578" y2="371.7578"/><line style="stroke:#181818;stroke-width:1.0;" x1="251" x2="251" y1="371.7578" y2="384.7578"/><line style="stroke:#181818;stroke-width:1.0;" x1="210" x2="251" y1="384.7578" y2="384.7578"/><polygon fill="#181818" points="220,380.7578,210,384.7578,220,388.7578,216,384.7578" style="stroke:#181818;stroke-width:1.0;"/><text fill="#000000" font-family="sans-serif" font-size="13" lengthAdjust="spacing" textLength="99" x="216" y="351.5591">[ContextImpl]&#8594;</text><text fill="#000000" font-family="sans-serif" font-size="13" lengthAdjust="spacing" textLength="140" x="216" y="366.6919">createActivityContext</text><polygon fill="#181818" points="549.5,399.7578,559.5,403.7578,549.5,407.7578,553.5,403.7578" style="stroke:#181818;stroke-width:1.0;"/><line style="stroke:#181818;stroke-width:1.0;" x1="199" x2="555.5" y1="403.7578" y2="403.7578"/><rect fill="#E2E2F0" height="30.2969" rx="2.5" ry="2.5" style="stroke:#181818;stroke-width:0.5;" width="105" x="561.5" y="397.7578"/><text fill="#000000" font-family="sans-serif" font-size="14" lengthAdjust="spacing" textLength="91" x="568.5" y="417.7529">ContextImpl</text><polygon fill="#181818" points="725,456.1875,735,460.1875,725,464.1875,729,460.1875" style="stroke:#181818;stroke-width:1.0;"/><line style="stroke:#181818;stroke-width:1.0;" x1="199" x2="731" y1="460.1875" y2="460.1875"/><text fill="#000000" font-family="sans-serif" font-size="13" lengthAdjust="spacing" textLength="75" x="645" y="455.1216">newActivity</text><polygon fill="#181818" points="837.5,470.1875,847.5,474.1875,837.5,478.1875,841.5,474.1875" style="stroke:#181818;stroke-width:1.0;"/><line style="stroke:#181818;stroke-width:1.0;" x1="742" x2="843.5" y1="474.1875" y2="474.1875"/><rect fill="#E2E2F0" height="30.2969" rx="2.5" ry="2.5" style="stroke:#181818;stroke-width:0.5;" width="123" x="849.5" y="468.1875"/><text fill="#000000" font-family="sans-serif" font-size="14" lengthAdjust="spacing" textLength="109" x="856.5" y="488.1826">SecondActivity</text><polygon fill="#181818" points="899,526.6172,909,530.6172,899,534.6172,903,530.6172" style="stroke:#181818;stroke-width:1.0;"/><line style="stroke:#181818;stroke-width:1.0;" x1="199" x2="905" y1="530.6172" y2="530.6172"/><text fill="#000000" font-family="sans-serif" font-size="13" lengthAdjust="spacing" textLength="57" x="837" y="525.5513">&#9312; attach</text><polygon fill="#181818" points="725,555.75,735,559.75,725,563.75,729,559.75" style="stroke:#181818;stroke-width:1.0;"/><line style="stroke:#181818;stroke-width:1.0;" x1="199" x2="731" y1="559.75" y2="559.75"/><text fill="#000000" font-family="sans-serif" font-size="13" lengthAdjust="spacing" textLength="130" x="590" y="554.6841">callActivityOnCreate</text><polygon fill="#181818" points="899,584.8828,909,588.8828,899,592.8828,903,588.8828" style="stroke:#181818;stroke-width:1.0;"/><line style="stroke:#181818;stroke-width:1.0;" x1="742" x2="905" y1="588.8828" y2="588.8828"/><text fill="#000000" font-family="sans-serif" font-size="13" lengthAdjust="spacing" textLength="85" x="809" y="583.8169">&#9313; onCreate()</text><line style="stroke:#181818;stroke-width:1.0;" x1="414" x2="461" y1="613.0156" y2="613.0156"/><line style="stroke:#181818;stroke-width:1.0;" x1="461" x2="461" y1="613.0156" y2="626.0156"/><line style="stroke:#181818;stroke-width:1.0;" x1="420" x2="461" y1="626.0156" y2="626.0156"/><polygon fill="#181818" points="430,622.0156,420,626.0156,430,630.0156,426,626.0156" style="stroke:#181818;stroke-width:1.0;"/><text fill="#000000" font-family="sans-serif" font-size="13" lengthAdjust="spacing" textLength="142" x="426" y="607.9497">executeLifecycleState</text><line style="stroke:#181818;stroke-width:1.0;" x1="419" x2="466" y1="655.1484" y2="655.1484"/><line style="stroke:#181818;stroke-width:1.0;" x1="466" x2="466" y1="655.1484" y2="668.1484"/><line style="stroke:#181818;stroke-width:1.0;" x1="425" x2="466" y1="668.1484" y2="668.1484"/><polygon fill="#181818" points="435,664.1484,425,668.1484,435,672.1484,431,668.1484" style="stroke:#181818;stroke-width:1.0;"/><text fill="#000000" font-family="sans-serif" font-size="13" lengthAdjust="spacing" textLength="78" x="431" y="650.0825">cycleToPath</text><line style="stroke:#181818;stroke-width:1.0;" x1="424" x2="471" y1="697.2813" y2="697.2813"/><line style="stroke:#181818;stroke-width:1.0;" x1="471" x2="471" y1="697.2813" y2="710.2813"/><line style="stroke:#181818;stroke-width:1.0;" x1="430" x2="471" y1="710.2813" y2="710.2813"/><polygon fill="#181818" points="440,706.2813,430,710.2813,440,714.2813,436,710.2813" style="stroke:#181818;stroke-width:1.0;"/><text fill="#000000" font-family="sans-serif" font-size="13" lengthAdjust="spacing" textLength="171" x="436" y="692.2153">performLifecycleSequence</text><polygon fill="#181818" points="205,740.4141,195,744.4141,205,748.4141,201,744.4141" style="stroke:#181818;stroke-width:1.0;"/><line style="stroke:#181818;stroke-width:1.0;" x1="199" x2="418" y1="744.4141" y2="744.4141"/><text fill="#000000" font-family="sans-serif" font-size="13" lengthAdjust="spacing" textLength="122" x="211" y="739.3481">handleStartActivity</text><polygon fill="#181818" points="894,799.5469,904,803.5469,894,807.5469,898,803.5469" style="stroke:#181818;stroke-width:1.0;"/><line style="stroke:#181818;stroke-width:1.0;" x1="189" x2="900" y1="803.5469" y2="803.5469"/><text fill="#000000" font-family="sans-serif" font-size="13" lengthAdjust="spacing" textLength="83" x="806" y="798.481">performStart</text><polygon fill="#181818" points="758,828.6797,748,832.6797,758,836.6797,754,832.6797" style="stroke:#181818;stroke-width:1.0;"/><line style="stroke:#181818;stroke-width:1.0;" x1="752" x2="910" y1="832.6797" y2="832.6797"/><text fill="#000000" font-family="sans-serif" font-size="13" lengthAdjust="spacing" textLength="118" x="764" y="827.6138">callActivityOnStart</text><polygon fill="#181818" points="899,857.8125,909,861.8125,899,865.8125,903,861.8125" style="stroke:#181818;stroke-width:1.0;"/><line style="stroke:#181818;stroke-width:1.0;" x1="742" x2="905" y1="861.8125" y2="861.8125"/><text fill="#000000" font-family="sans-serif" font-size="13" lengthAdjust="spacing" textLength="73" x="821" y="856.7466">&#9314; onStart()</text><line style="stroke:#181818;stroke-width:1.0;" x1="419" x2="466" y1="901.0781" y2="901.0781"/><line style="stroke:#181818;stroke-width:1.0;" x1="466" x2="466" y1="901.0781" y2="914.0781"/><line style="stroke:#181818;stroke-width:1.0;" x1="425" x2="466" y1="914.0781" y2="914.0781"/><polygon fill="#181818" points="435,910.0781,425,914.0781,435,918.0781,431,914.0781" style="stroke:#181818;stroke-width:1.0;"/><text fill="#000000" font-family="sans-serif" font-size="13" lengthAdjust="spacing" textLength="130" x="431" y="880.8794">ResumeActivityItem</text><text fill="#000000" font-family="sans-serif" font-size="13" lengthAdjust="spacing" textLength="56" x="431" y="896.0122">.execute</text><polygon fill="#181818" points="205,944.2109,195,948.2109,205,952.2109,201,948.2109" style="stroke:#181818;stroke-width:1.0;"/><line style="stroke:#181818;stroke-width:1.0;" x1="199" x2="413" y1="948.2109" y2="948.2109"/><text fill="#000000" font-family="sans-serif" font-size="13" lengthAdjust="spacing" textLength="144" x="211" y="943.145">handleResumeActivity</text><line style="stroke:#181818;stroke-width:1.0;" x1="194" x2="241" y1="1002.3438" y2="1002.3438"/><line style="stroke:#181818;stroke-width:1.0;" x1="241" x2="241" y1="1002.3438" y2="1015.3438"/><line style="stroke:#181818;stroke-width:1.0;" x1="200" x2="241" y1="1015.3438" y2="1015.3438"/><polygon fill="#181818" points="210,1011.3438,200,1015.3438,210,1019.3438,206,1015.3438" style="stroke:#181818;stroke-width:1.0;"/><text fill="#000000" font-family="sans-serif" font-size="13" lengthAdjust="spacing" textLength="153" x="206" y="997.2778">performResumeActivity</text><polygon fill="#181818" points="894,1045.4766,904,1049.4766,894,1053.4766,898,1049.4766" style="stroke:#181818;stroke-width:1.0;"/><line style="stroke:#181818;stroke-width:1.0;" x1="194" x2="900" y1="1049.4766" y2="1049.4766"/><text fill="#000000" font-family="sans-serif" font-size="13" lengthAdjust="spacing" textLength="105" x="784" y="1044.4106">performResume</text><polygon fill="#181818" points="758,1074.6094,748,1078.6094,758,1082.6094,754,1078.6094" style="stroke:#181818;stroke-width:1.0;"/><line style="stroke:#181818;stroke-width:1.0;" x1="752" x2="910" y1="1078.6094" y2="1078.6094"/><text fill="#000000" font-family="sans-serif" font-size="13" lengthAdjust="spacing" textLength="140" x="764" y="1073.5435">callActivityOnResume</text><polygon fill="#181818" points="899,1103.7422,909,1107.7422,899,1111.7422,903,1107.7422" style="stroke:#181818;stroke-width:1.0;"/><line style="stroke:#181818;stroke-width:1.0;" x1="747" x2="905" y1="1107.7422" y2="1107.7422"/><text fill="#000000" font-family="sans-serif" font-size="13" lengthAdjust="spacing" textLength="95" x="799" y="1102.6763">&#9315; onResume()</text><!--SRC=[hLNBJi905DttAoPn0veQrovCAa92Wa2W9YPWp3YzqCRs3iuCY3_WNh_0rvVn9KvV2ALeYvHDoPnpxklSgRptS4853OY4XoaWWqkGaex1yhqn4W4p418kF05CUHoDEpudLhTB3XeduSyOSFECMFfivgadsnL07N9qT4eMBr_4fUZugTuGwzVrsfLTlxLxLhjlrUncfsrac5hB5XGbZOBLvy2cYWjYcg4aH7-XeduGLICNdgyIQhJe59cRHcqg28Pud0XlqygfBgviNSnm8EJEg8Ayy3cbvWXFG8ou23BAXQXCloaufn9g71NCLOEBSWg3XDWC9lxDulbrYB5c2asESyHMYEJmSBKJwzXVJZP5coYLc0Q0YeQDZ594U5pMb3tNb3umZawAoAIImUT4pD135xyHgXHbRi7y6FNz5Dd1MjI-0ecQPXZhdV24Kgdkr4FzbDo7nFejRmJiYVdGLtJx8cmJYPWsxrBbbgMcVb_6JowXqhke4nUgw2gMtjIDSQta7aKsieXDUyIaTOF4tAB- -D3-Y1ZQ7gKdtGEfG-pfvbiN-sUxztXlPl8gDyYOlECa4_BVemm7-Qa76HFq904Teh-gtm00]--></g></svg>