<?xml version="1.0" encoding="us-ascii" standalone="no"?><svg xmlns="http://www.w3.org/2000/svg" xmlns:xlink="http://www.w3.org/1999/xlink" contentStyleType="text/css" height="510px" preserveAspectRatio="none" style="width:903px;height:510px;background:#FFFFFF;" version="1.1" viewBox="0 0 903 510" width="903px" zoomAndPan="magnify"><defs/><g><!--class ImageView--><g id="elem_ImageView"><rect fill="#F1F1F1" height="48" id="ImageView" rx="2.5" ry="2.5" style="stroke:#181818;stroke-width:0.5;" width="110" x="88.5" y="7"/><ellipse cx="103.5" cy="23" fill="#ADD1B2" rx="11" ry="11" style="stroke:#181818;stroke-width:1.0;"/><path d="M105.8438,18.6719 C104.9063,18.2344 104.3125,18.0938 103.4375,18.0938 C100.8125,18.0938 98.8125,20.1719 98.8125,22.8906 L98.8125,24.0156 C98.8125,26.5938 100.9219,28.4844 103.8125,28.4844 C105.0313,28.4844 106.1875,28.1875 106.9375,27.6406 C107.5156,27.2344 107.8438,26.7813 107.8438,26.3906 C107.8438,25.9375 107.4531,25.5469 106.9844,25.5469 C106.7656,25.5469 106.5625,25.625 106.375,25.8125 C105.9219,26.2969 105.9219,26.2969 105.7344,26.3906 C105.3125,26.6563 104.625,26.7813 103.8594,26.7813 C101.8125,26.7813 100.5156,25.6875 100.5156,23.9844 L100.5156,22.8906 C100.5156,21.1094 101.7656,19.7969 103.5,19.7969 C104.0781,19.7969 104.6875,19.9531 105.1563,20.2031 C105.6406,20.4844 105.8125,20.7031 105.9063,21.1094 C105.9688,21.5156 106,21.6406 106.1406,21.7656 C106.2813,21.9063 106.5156,22.0156 106.7344,22.0156 C107,22.0156 107.2656,21.875 107.4375,21.6563 C107.5469,21.5 107.5781,21.3125 107.5781,20.8906 L107.5781,19.4688 C107.5781,19.0313 107.5625,18.9063 107.4688,18.75 C107.3125,18.4844 107.0313,18.3438 106.7344,18.3438 C106.4375,18.3438 106.2344,18.4375 106.0156,18.75 L105.8438,18.6719 Z " fill="#000000"/><text fill="#000000" font-family="sans-serif" font-size="14" lengthAdjust="spacing" textLength="78" x="117.5" y="27.8467">ImageView</text><line style="stroke:#181818;stroke-width:0.5;" x1="89.5" x2="197.5" y1="39" y2="39"/><line style="stroke:#181818;stroke-width:0.5;" x1="89.5" x2="197.5" y1="47" y2="47"/></g><!--class DraweeView--><g id="elem_DraweeView"><rect codeLine="3" fill="#F1F1F1" height="48" id="DraweeView" rx="2.5" ry="2.5" style="stroke:#181818;stroke-width:0.5;" width="273" x="7" y="123"/><ellipse cx="22" cy="139" fill="#ADD1B2" rx="11" ry="11" style="stroke:#181818;stroke-width:1.0;"/><path d="M24.3438,134.6719 C23.4063,134.2344 22.8125,134.0938 21.9375,134.0938 C19.3125,134.0938 17.3125,136.1719 17.3125,138.8906 L17.3125,140.0156 C17.3125,142.5938 19.4219,144.4844 22.3125,144.4844 C23.5313,144.4844 24.6875,144.1875 25.4375,143.6406 C26.0156,143.2344 26.3438,142.7813 26.3438,142.3906 C26.3438,141.9375 25.9531,141.5469 25.4844,141.5469 C25.2656,141.5469 25.0625,141.625 24.875,141.8125 C24.4219,142.2969 24.4219,142.2969 24.2344,142.3906 C23.8125,142.6563 23.125,142.7813 22.3594,142.7813 C20.3125,142.7813 19.0156,141.6875 19.0156,139.9844 L19.0156,138.8906 C19.0156,137.1094 20.2656,135.7969 22,135.7969 C22.5781,135.7969 23.1875,135.9531 23.6563,136.2031 C24.1406,136.4844 24.3125,136.7031 24.4063,137.1094 C24.4688,137.5156 24.5,137.6406 24.6406,137.7656 C24.7813,137.9063 25.0156,138.0156 25.2344,138.0156 C25.5,138.0156 25.7656,137.875 25.9375,137.6563 C26.0469,137.5 26.0781,137.3125 26.0781,136.8906 L26.0781,135.4688 C26.0781,135.0313 26.0625,134.9063 25.9688,134.75 C25.8125,134.4844 25.5313,134.3438 25.2344,134.3438 C24.9375,134.3438 24.7344,134.4375 24.5156,134.75 L24.3438,134.6719 Z " fill="#000000"/><text fill="#000000" font-family="sans-serif" font-size="14" lengthAdjust="spacing" textLength="88" x="36" y="143.8467">DraweeView</text><rect fill="#FFFFFF" height="15.9688" style="stroke:#181818;stroke-width:1.0;stroke-dasharray:2.0,2.0;" width="151" x="132" y="120"/><text fill="#000000" font-family="sans-serif" font-size="12" font-style="italic" lengthAdjust="spacing" textLength="149" x="133" y="132.1387">GenericDraweeHierarchy</text><line style="stroke:#181818;stroke-width:0.5;" x1="8" x2="279" y1="155" y2="155"/><line style="stroke:#181818;stroke-width:0.5;" x1="8" x2="279" y1="163" y2="163"/></g><!--class GenericDraweeView--><g id="elem_GenericDraweeView"><rect fill="#F1F1F1" height="48" id="GenericDraweeView" rx="2.5" ry="2.5" style="stroke:#181818;stroke-width:0.5;" width="176" x="79.5" y="239"/><ellipse cx="94.5" cy="255" fill="#ADD1B2" rx="11" ry="11" style="stroke:#181818;stroke-width:1.0;"/><path d="M96.8438,250.6719 C95.9063,250.2344 95.3125,250.0938 94.4375,250.0938 C91.8125,250.0938 89.8125,252.1719 89.8125,254.8906 L89.8125,256.0156 C89.8125,258.5938 91.9219,260.4844 94.8125,260.4844 C96.0313,260.4844 97.1875,260.1875 97.9375,259.6406 C98.5156,259.2344 98.8438,258.7813 98.8438,258.3906 C98.8438,257.9375 98.4531,257.5469 97.9844,257.5469 C97.7656,257.5469 97.5625,257.625 97.375,257.8125 C96.9219,258.2969 96.9219,258.2969 96.7344,258.3906 C96.3125,258.6563 95.625,258.7813 94.8594,258.7813 C92.8125,258.7813 91.5156,257.6875 91.5156,255.9844 L91.5156,254.8906 C91.5156,253.1094 92.7656,251.7969 94.5,251.7969 C95.0781,251.7969 95.6875,251.9531 96.1563,252.2031 C96.6406,252.4844 96.8125,252.7031 96.9063,253.1094 C96.9688,253.5156 97,253.6406 97.1406,253.7656 C97.2813,253.9063 97.5156,254.0156 97.7344,254.0156 C98,254.0156 98.2656,253.875 98.4375,253.6563 C98.5469,253.5 98.5781,253.3125 98.5781,252.8906 L98.5781,251.4688 C98.5781,251.0313 98.5625,250.9063 98.4688,250.75 C98.3125,250.4844 98.0313,250.3438 97.7344,250.3438 C97.4375,250.3438 97.2344,250.4375 97.0156,250.75 L96.8438,250.6719 Z " fill="#000000"/><text fill="#000000" font-family="sans-serif" font-size="14" lengthAdjust="spacing" textLength="144" x="108.5" y="259.8467">GenericDraweeView</text><line style="stroke:#181818;stroke-width:0.5;" x1="80.5" x2="254.5" y1="271" y2="271"/><line style="stroke:#181818;stroke-width:0.5;" x1="80.5" x2="254.5" y1="279" y2="279"/></g><!--class SimpleDraweeView--><g id="elem_SimpleDraweeView"><rect codeLine="5" fill="#ADD8E6" height="48" id="SimpleDraweeView" rx="2.5" ry="2.5" style="stroke:#181818;stroke-width:0.5;" width="170" x="96.5" y="347"/><ellipse cx="111.5" cy="363" fill="#ADD1B2" rx="11" ry="11" style="stroke:#181818;stroke-width:1.0;"/><path d="M113.8438,358.6719 C112.9063,358.2344 112.3125,358.0938 111.4375,358.0938 C108.8125,358.0938 106.8125,360.1719 106.8125,362.8906 L106.8125,364.0156 C106.8125,366.5938 108.9219,368.4844 111.8125,368.4844 C113.0313,368.4844 114.1875,368.1875 114.9375,367.6406 C115.5156,367.2344 115.8438,366.7813 115.8438,366.3906 C115.8438,365.9375 115.4531,365.5469 114.9844,365.5469 C114.7656,365.5469 114.5625,365.625 114.375,365.8125 C113.9219,366.2969 113.9219,366.2969 113.7344,366.3906 C113.3125,366.6563 112.625,366.7813 111.8594,366.7813 C109.8125,366.7813 108.5156,365.6875 108.5156,363.9844 L108.5156,362.8906 C108.5156,361.1094 109.7656,359.7969 111.5,359.7969 C112.0781,359.7969 112.6875,359.9531 113.1563,360.2031 C113.6406,360.4844 113.8125,360.7031 113.9063,361.1094 C113.9688,361.5156 114,361.6406 114.1406,361.7656 C114.2813,361.9063 114.5156,362.0156 114.7344,362.0156 C115,362.0156 115.2656,361.875 115.4375,361.6563 C115.5469,361.5 115.5781,361.3125 115.5781,360.8906 L115.5781,359.4688 C115.5781,359.0313 115.5625,358.9063 115.4688,358.75 C115.3125,358.4844 115.0313,358.3438 114.7344,358.3438 C114.4375,358.3438 114.2344,358.4375 114.0156,358.75 L113.8438,358.6719 Z " fill="#000000"/><text fill="#000000" font-family="sans-serif" font-size="14" lengthAdjust="spacing" textLength="138" x="125.5" y="367.8467">SimpleDraweeView</text><line style="stroke:#181818;stroke-width:0.5;" x1="97.5" x2="265.5" y1="379" y2="379"/><line style="stroke:#181818;stroke-width:0.5;" x1="97.5" x2="265.5" y1="387" y2="387"/></g><!--class DraweeHierarchy--><g id="elem_DraweeHierarchy"><rect codeLine="10" fill="#F1F1F1" height="64.2969" id="DraweeHierarchy" rx="2.5" ry="2.5" style="stroke:#181818;stroke-width:0.5;" width="260" x="636.5" y="115"/><ellipse cx="699.75" cy="131" fill="#B4A7E5" rx="11" ry="11" style="stroke:#181818;stroke-width:1.0;"/><path d="M700.7031,127.7813 L702.4219,127.7813 C702.8125,127.7813 703,127.75 703.125,127.6719 C703.3906,127.5156 703.5313,127.2344 703.5313,126.9375 C703.5313,126.6719 703.4219,126.4063 703.1875,126.2344 C703.0156,126.125 702.875,126.0938 702.4219,126.0938 L697.2813,126.0938 C696.8438,126.0938 696.7188,126.1094 696.5625,126.2031 C696.3125,126.3594 696.1563,126.6563 696.1563,126.9375 C696.1563,127.2188 696.2969,127.4688 696.5156,127.6406 C696.6719,127.75 696.8594,127.7813 697.2813,127.7813 L699,127.7813 L699,134.2969 L697.2813,134.2969 C696.8438,134.2969 696.7188,134.3125 696.5625,134.4219 C696.3125,134.5781 696.1563,134.8594 696.1563,135.1563 C696.1563,135.4063 696.2969,135.6719 696.5156,135.8281 C696.6719,135.9531 696.875,136 697.2813,136 L702.4219,136 C703.1719,136 703.5313,135.7188 703.5313,135.1563 C703.5313,134.875 703.4219,134.625 703.1875,134.4531 C703.0156,134.3281 702.875,134.2969 702.4219,134.2969 L700.7031,134.2969 L700.7031,127.7813 Z " fill="#000000"/><text fill="#000000" font-family="sans-serif" font-size="14" font-style="italic" lengthAdjust="spacing" textLength="125" x="720.25" y="135.8467">DraweeHierarchy</text><line style="stroke:#181818;stroke-width:0.5;" x1="637.5" x2="895.5" y1="147" y2="147"/><line style="stroke:#181818;stroke-width:0.5;" x1="637.5" x2="895.5" y1="155" y2="155"/><text fill="#000000" font-family="sans-serif" font-size="14" lengthAdjust="spacing" textLength="248" x="642.5" y="171.9951">getTopLevelDrawable() : Drawable</text></g><!--class SettableDraweeHierarchy--><g id="elem_SettableDraweeHierarchy"><rect codeLine="13" fill="#F1F1F1" height="48" id="SettableDraweeHierarchy" rx="2.5" ry="2.5" style="stroke:#181818;stroke-width:0.5;" width="216" x="658.5" y="239"/><ellipse cx="673.5" cy="255" fill="#B4A7E5" rx="11" ry="11" style="stroke:#181818;stroke-width:1.0;"/><path d="M674.4531,251.7813 L676.1719,251.7813 C676.5625,251.7813 676.75,251.75 676.875,251.6719 C677.1406,251.5156 677.2813,251.2344 677.2813,250.9375 C677.2813,250.6719 677.1719,250.4063 676.9375,250.2344 C676.7656,250.125 676.625,250.0938 676.1719,250.0938 L671.0313,250.0938 C670.5938,250.0938 670.4688,250.1094 670.3125,250.2031 C670.0625,250.3594 669.9063,250.6563 669.9063,250.9375 C669.9063,251.2188 670.0469,251.4688 670.2656,251.6406 C670.4219,251.75 670.6094,251.7813 671.0313,251.7813 L672.75,251.7813 L672.75,258.2969 L671.0313,258.2969 C670.5938,258.2969 670.4688,258.3125 670.3125,258.4219 C670.0625,258.5781 669.9063,258.8594 669.9063,259.1563 C669.9063,259.4063 670.0469,259.6719 670.2656,259.8281 C670.4219,259.9531 670.625,260 671.0313,260 L676.1719,260 C676.9219,260 677.2813,259.7188 677.2813,259.1563 C677.2813,258.875 677.1719,258.625 676.9375,258.4531 C676.7656,258.3281 676.625,258.2969 676.1719,258.2969 L674.4531,258.2969 L674.4531,251.7813 Z " fill="#000000"/><text fill="#000000" font-family="sans-serif" font-size="14" font-style="italic" lengthAdjust="spacing" textLength="184" x="687.5" y="259.8467">SettableDraweeHierarchy</text><line style="stroke:#181818;stroke-width:0.5;" x1="659.5" x2="873.5" y1="271" y2="271"/><line style="stroke:#181818;stroke-width:0.5;" x1="659.5" x2="873.5" y1="279" y2="279"/></g><!--class GenericDraweeHierarchy--><g id="elem_GenericDraweeHierarchy"><rect codeLine="14" fill="#F1F1F1" height="48" id="GenericDraweeHierarchy" rx="2.5" ry="2.5" style="stroke:#181818;stroke-width:0.5;" width="210" x="661.5" y="347"/><ellipse cx="676.5" cy="363" fill="#ADD1B2" rx="11" ry="11" style="stroke:#181818;stroke-width:1.0;"/><path d="M678.8438,358.6719 C677.9063,358.2344 677.3125,358.0938 676.4375,358.0938 C673.8125,358.0938 671.8125,360.1719 671.8125,362.8906 L671.8125,364.0156 C671.8125,366.5938 673.9219,368.4844 676.8125,368.4844 C678.0313,368.4844 679.1875,368.1875 679.9375,367.6406 C680.5156,367.2344 680.8438,366.7813 680.8438,366.3906 C680.8438,365.9375 680.4531,365.5469 679.9844,365.5469 C679.7656,365.5469 679.5625,365.625 679.375,365.8125 C678.9219,366.2969 678.9219,366.2969 678.7344,366.3906 C678.3125,366.6563 677.625,366.7813 676.8594,366.7813 C674.8125,366.7813 673.5156,365.6875 673.5156,363.9844 L673.5156,362.8906 C673.5156,361.1094 674.7656,359.7969 676.5,359.7969 C677.0781,359.7969 677.6875,359.9531 678.1563,360.2031 C678.6406,360.4844 678.8125,360.7031 678.9063,361.1094 C678.9688,361.5156 679,361.6406 679.1406,361.7656 C679.2813,361.9063 679.5156,362.0156 679.7344,362.0156 C680,362.0156 680.2656,361.875 680.4375,361.6563 C680.5469,361.5 680.5781,361.3125 680.5781,360.8906 L680.5781,359.4688 C680.5781,359.0313 680.5625,358.9063 680.4688,358.75 C680.3125,358.4844 680.0313,358.3438 679.7344,358.3438 C679.4375,358.3438 679.2344,358.4375 679.0156,358.75 L678.8438,358.6719 Z " fill="#000000"/><text fill="#000000" font-family="sans-serif" font-size="14" lengthAdjust="spacing" textLength="178" x="690.5" y="367.8467">GenericDraweeHierarchy</text><line style="stroke:#181818;stroke-width:0.5;" x1="662.5" x2="870.5" y1="379" y2="379"/><line style="stroke:#181818;stroke-width:0.5;" x1="662.5" x2="870.5" y1="387" y2="387"/></g><!--class DraweeController--><g id="elem_DraweeController"><rect codeLine="18" fill="#F1F1F1" height="48" id="DraweeController" rx="2.5" ry="2.5" style="stroke:#181818;stroke-width:0.5;" width="158" x="353.5" y="239"/><ellipse cx="368.5" cy="255" fill="#B4A7E5" rx="11" ry="11" style="stroke:#181818;stroke-width:1.0;"/><path d="M369.4531,251.7813 L371.1719,251.7813 C371.5625,251.7813 371.75,251.75 371.875,251.6719 C372.1406,251.5156 372.2813,251.2344 372.2813,250.9375 C372.2813,250.6719 372.1719,250.4063 371.9375,250.2344 C371.7656,250.125 371.625,250.0938 371.1719,250.0938 L366.0313,250.0938 C365.5938,250.0938 365.4688,250.1094 365.3125,250.2031 C365.0625,250.3594 364.9063,250.6563 364.9063,250.9375 C364.9063,251.2188 365.0469,251.4688 365.2656,251.6406 C365.4219,251.75 365.6094,251.7813 366.0313,251.7813 L367.75,251.7813 L367.75,258.2969 L366.0313,258.2969 C365.5938,258.2969 365.4688,258.3125 365.3125,258.4219 C365.0625,258.5781 364.9063,258.8594 364.9063,259.1563 C364.9063,259.4063 365.0469,259.6719 365.2656,259.8281 C365.4219,259.9531 365.625,260 366.0313,260 L371.1719,260 C371.9219,260 372.2813,259.7188 372.2813,259.1563 C372.2813,258.875 372.1719,258.625 371.9375,258.4531 C371.7656,258.3281 371.625,258.2969 371.1719,258.2969 L369.4531,258.2969 L369.4531,251.7813 Z " fill="#000000"/><text fill="#000000" font-family="sans-serif" font-size="14" font-style="italic" lengthAdjust="spacing" textLength="126" x="382.5" y="259.8467">DraweeController</text><line style="stroke:#181818;stroke-width:0.5;" x1="354.5" x2="510.5" y1="271" y2="271"/><line style="stroke:#181818;stroke-width:0.5;" x1="354.5" x2="510.5" y1="279" y2="279"/></g><!--class DraweeHolder--><g id="elem_DraweeHolder"><rect codeLine="21" fill="#F1F1F1" height="48" id="DraweeHolder" rx="2.5" ry="2.5" style="stroke:#181818;stroke-width:0.5;" width="286" x="315.5" y="123"/><ellipse cx="330.5" cy="139" fill="#ADD1B2" rx="11" ry="11" style="stroke:#181818;stroke-width:1.0;"/><path d="M332.8438,134.6719 C331.9063,134.2344 331.3125,134.0938 330.4375,134.0938 C327.8125,134.0938 325.8125,136.1719 325.8125,138.8906 L325.8125,140.0156 C325.8125,142.5938 327.9219,144.4844 330.8125,144.4844 C332.0313,144.4844 333.1875,144.1875 333.9375,143.6406 C334.5156,143.2344 334.8438,142.7813 334.8438,142.3906 C334.8438,141.9375 334.4531,141.5469 333.9844,141.5469 C333.7656,141.5469 333.5625,141.625 333.375,141.8125 C332.9219,142.2969 332.9219,142.2969 332.7344,142.3906 C332.3125,142.6563 331.625,142.7813 330.8594,142.7813 C328.8125,142.7813 327.5156,141.6875 327.5156,139.9844 L327.5156,138.8906 C327.5156,137.1094 328.7656,135.7969 330.5,135.7969 C331.0781,135.7969 331.6875,135.9531 332.1563,136.2031 C332.6406,136.4844 332.8125,136.7031 332.9063,137.1094 C332.9688,137.5156 333,137.6406 333.1406,137.7656 C333.2813,137.9063 333.5156,138.0156 333.7344,138.0156 C334,138.0156 334.2656,137.875 334.4375,137.6563 C334.5469,137.5 334.5781,137.3125 334.5781,136.8906 L334.5781,135.4688 C334.5781,135.0313 334.5625,134.9063 334.4688,134.75 C334.3125,134.4844 334.0313,134.3438 333.7344,134.3438 C333.4375,134.3438 333.2344,134.4375 333.0156,134.75 L332.8438,134.6719 Z " fill="#000000"/><text fill="#000000" font-family="sans-serif" font-size="14" lengthAdjust="spacing" textLength="101" x="344.5" y="143.8467">DraweeHolder</text><rect fill="#FFFFFF" height="15.9688" style="stroke:#181818;stroke-width:1.0;stroke-dasharray:2.0,2.0;" width="151" x="453.5" y="120"/><text fill="#000000" font-family="sans-serif" font-size="12" font-style="italic" lengthAdjust="spacing" textLength="149" x="454.5" y="132.1387">GenericDraweeHierarchy</text><line style="stroke:#181818;stroke-width:0.5;" x1="316.5" x2="600.5" y1="155" y2="155"/><line style="stroke:#181818;stroke-width:0.5;" x1="316.5" x2="600.5" y1="163" y2="163"/></g><!--class VisibilityCallback--><g id="elem_VisibilityCallback"><rect codeLine="25" fill="#F1F1F1" height="48" id="VisibilityCallback" rx="2.5" ry="2.5" style="stroke:#181818;stroke-width:0.5;" width="152" x="382.5" y="7"/><ellipse cx="397.5" cy="23" fill="#B4A7E5" rx="11" ry="11" style="stroke:#181818;stroke-width:1.0;"/><path d="M398.4531,19.7813 L400.1719,19.7813 C400.5625,19.7813 400.75,19.75 400.875,19.6719 C401.1406,19.5156 401.2813,19.2344 401.2813,18.9375 C401.2813,18.6719 401.1719,18.4063 400.9375,18.2344 C400.7656,18.125 400.625,18.0938 400.1719,18.0938 L395.0313,18.0938 C394.5938,18.0938 394.4688,18.1094 394.3125,18.2031 C394.0625,18.3594 393.9063,18.6563 393.9063,18.9375 C393.9063,19.2188 394.0469,19.4688 394.2656,19.6406 C394.4219,19.75 394.6094,19.7813 395.0313,19.7813 L396.75,19.7813 L396.75,26.2969 L395.0313,26.2969 C394.5938,26.2969 394.4688,26.3125 394.3125,26.4219 C394.0625,26.5781 393.9063,26.8594 393.9063,27.1563 C393.9063,27.4063 394.0469,27.6719 394.2656,27.8281 C394.4219,27.9531 394.625,28 395.0313,28 L400.1719,28 C400.9219,28 401.2813,27.7188 401.2813,27.1563 C401.2813,26.875 401.1719,26.625 400.9375,26.4531 C400.7656,26.3281 400.625,26.2969 400.1719,26.2969 L398.4531,26.2969 L398.4531,19.7813 Z " fill="#000000"/><text fill="#000000" font-family="sans-serif" font-size="14" font-style="italic" lengthAdjust="spacing" textLength="120" x="411.5" y="27.8467">VisibilityCallback</text><line style="stroke:#181818;stroke-width:0.5;" x1="383.5" x2="533.5" y1="39" y2="39"/><line style="stroke:#181818;stroke-width:0.5;" x1="383.5" x2="533.5" y1="47" y2="47"/></g><!--class RootDrawable--><g id="elem_RootDrawable"><rect fill="#F1F1F1" height="48" id="RootDrawable" rx="2.5" ry="2.5" style="stroke:#181818;stroke-width:0.5;" width="134" x="699.5" y="455"/><ellipse cx="714.5" cy="471" fill="#ADD1B2" rx="11" ry="11" style="stroke:#181818;stroke-width:1.0;"/><path d="M716.8438,466.6719 C715.9063,466.2344 715.3125,466.0938 714.4375,466.0938 C711.8125,466.0938 709.8125,468.1719 709.8125,470.8906 L709.8125,472.0156 C709.8125,474.5938 711.9219,476.4844 714.8125,476.4844 C716.0313,476.4844 717.1875,476.1875 717.9375,475.6406 C718.5156,475.2344 718.8438,474.7813 718.8438,474.3906 C718.8438,473.9375 718.4531,473.5469 717.9844,473.5469 C717.7656,473.5469 717.5625,473.625 717.375,473.8125 C716.9219,474.2969 716.9219,474.2969 716.7344,474.3906 C716.3125,474.6563 715.625,474.7813 714.8594,474.7813 C712.8125,474.7813 711.5156,473.6875 711.5156,471.9844 L711.5156,470.8906 C711.5156,469.1094 712.7656,467.7969 714.5,467.7969 C715.0781,467.7969 715.6875,467.9531 716.1563,468.2031 C716.6406,468.4844 716.8125,468.7031 716.9063,469.1094 C716.9688,469.5156 717,469.6406 717.1406,469.7656 C717.2813,469.9063 717.5156,470.0156 717.7344,470.0156 C718,470.0156 718.2656,469.875 718.4375,469.6563 C718.5469,469.5 718.5781,469.3125 718.5781,468.8906 L718.5781,467.4688 C718.5781,467.0313 718.5625,466.9063 718.4688,466.75 C718.3125,466.4844 718.0313,466.3438 717.7344,466.3438 C717.4375,466.3438 717.2344,466.4375 717.0156,466.75 L716.8438,466.6719 Z " fill="#000000"/><text fill="#000000" font-family="sans-serif" font-size="14" lengthAdjust="spacing" textLength="102" x="728.5" y="475.8467">RootDrawable</text><line style="stroke:#181818;stroke-width:0.5;" x1="700.5" x2="832.5" y1="487" y2="487"/><line style="stroke:#181818;stroke-width:0.5;" x1="700.5" x2="832.5" y1="495" y2="495"/></g><!--class AbstractDraweeController--><g id="elem_AbstractDraweeController"><rect codeLine="32" fill="#F1F1F1" height="48" id="AbstractDraweeController" rx="2.5" ry="2.5" style="stroke:#181818;stroke-width:0.5;" width="217" x="324" y="347"/><ellipse cx="339" cy="363" fill="#A9DCDF" rx="11" ry="11" style="stroke:#181818;stroke-width:1.0;"/><path d="M341.0781,364.8125 L341.4688,365.7969 L341.0781,365.7969 C340.625,365.7969 340.5156,365.8125 340.3594,365.9219 C340.1094,366.0781 339.9531,366.3594 339.9531,366.6563 C339.9531,366.9219 340.0938,367.1719 340.3125,367.3281 C340.4531,367.4531 340.6563,367.5 341.0781,367.5 L343.4375,367.5 C343.7969,367.5 344.0156,367.4688 344.1563,367.375 C344.4063,367.2344 344.5625,366.9375 344.5625,366.6563 C344.5625,366.375 344.4219,366.125 344.2031,365.9688 C344.0313,365.8281 343.875,365.7969 343.4063,365.7969 L340.0156,357.5938 L336.3438,357.5938 C335.8906,357.5938 335.7656,357.6094 335.6094,357.7031 C335.3594,357.875 335.2031,358.1563 335.2031,358.4375 C335.2031,358.7188 335.3438,358.9688 335.5625,359.1406 C335.7344,359.25 335.9063,359.2813 336.3438,359.2813 L337.4219,359.2813 L334.7813,365.7969 C334.3594,365.7969 334.2031,365.8125 334.0469,365.9219 C333.7969,366.0781 333.6406,366.3594 333.6406,366.6563 C333.6406,367.2188 334.0156,367.5 334.7656,367.5 L337.0313,367.5 C337.3906,367.5 337.6094,367.4688 337.7344,367.375 C338,367.2344 338.1406,366.9375 338.1406,366.6563 C338.1406,366.375 338.0156,366.125 337.7969,365.9531 C337.625,365.8281 337.4844,365.7969 337.0313,365.7969 L336.6406,365.7969 L337.0313,364.8125 L341.0781,364.8125 Z M340.375,363.1094 L337.7031,363.1094 L339.0469,359.8438 L340.375,363.1094 Z " fill="#000000"/><text fill="#000000" font-family="sans-serif" font-size="14" font-style="italic" lengthAdjust="spacing" textLength="185" x="353" y="367.8467">AbstractDraweeController</text><line style="stroke:#181818;stroke-width:0.5;" x1="325" x2="540" y1="379" y2="379"/><line style="stroke:#181818;stroke-width:0.5;" x1="325" x2="540" y1="387" y2="387"/></g><!--class PipelineDraweeController--><g id="elem_PipelineDraweeController"><rect fill="#F1F1F1" height="48" id="PipelineDraweeController" rx="2.5" ry="2.5" style="stroke:#181818;stroke-width:0.5;" width="217" x="324" y="455"/><ellipse cx="339" cy="471" fill="#ADD1B2" rx="11" ry="11" style="stroke:#181818;stroke-width:1.0;"/><path d="M341.3438,466.6719 C340.4063,466.2344 339.8125,466.0938 338.9375,466.0938 C336.3125,466.0938 334.3125,468.1719 334.3125,470.8906 L334.3125,472.0156 C334.3125,474.5938 336.4219,476.4844 339.3125,476.4844 C340.5313,476.4844 341.6875,476.1875 342.4375,475.6406 C343.0156,475.2344 343.3438,474.7813 343.3438,474.3906 C343.3438,473.9375 342.9531,473.5469 342.4844,473.5469 C342.2656,473.5469 342.0625,473.625 341.875,473.8125 C341.4219,474.2969 341.4219,474.2969 341.2344,474.3906 C340.8125,474.6563 340.125,474.7813 339.3594,474.7813 C337.3125,474.7813 336.0156,473.6875 336.0156,471.9844 L336.0156,470.8906 C336.0156,469.1094 337.2656,467.7969 339,467.7969 C339.5781,467.7969 340.1875,467.9531 340.6563,468.2031 C341.1406,468.4844 341.3125,468.7031 341.4063,469.1094 C341.4688,469.5156 341.5,469.6406 341.6406,469.7656 C341.7813,469.9063 342.0156,470.0156 342.2344,470.0156 C342.5,470.0156 342.7656,469.875 342.9375,469.6563 C343.0469,469.5 343.0781,469.3125 343.0781,468.8906 L343.0781,467.4688 C343.0781,467.0313 343.0625,466.9063 342.9688,466.75 C342.8125,466.4844 342.5313,466.3438 342.2344,466.3438 C341.9375,466.3438 341.7344,466.4375 341.5156,466.75 L341.3438,466.6719 Z " fill="#000000"/><text fill="#000000" font-family="sans-serif" font-size="14" lengthAdjust="spacing" textLength="185" x="353" y="475.8467">PipelineDraweeController</text><line style="stroke:#181818;stroke-width:0.5;" x1="325" x2="540" y1="487" y2="487"/><line style="stroke:#181818;stroke-width:0.5;" x1="325" x2="540" y1="495" y2="495"/></g><!--reverse link ImageView to DraweeView--><g id="link_ImageView_DraweeView"><path codeLine="2" d="M143.5,73.07 C143.5,92.848 143.5,103.196 143.5,122.965 " fill="none" id="ImageView-backto-DraweeView" style="stroke:#181818;stroke-width:1.0;"/><polygon fill="none" points="143.5,55.07,137.5,73.07,149.5,73.07,143.5,55.07" style="stroke:#181818;stroke-width:1.0;"/></g><!--reverse link DraweeView to GenericDraweeView--><g id="link_DraweeView_GenericDraweeView"><path codeLine="4" d="M152.0654,188.6839 C156.2294,208.4619 158.489,219.196 162.65,238.965 " fill="none" id="DraweeView-backto-GenericDraweeView" style="stroke:#181818;stroke-width:1.0;"/><polygon fill="none" points="148.357,171.07,146.1941,189.92,157.9367,187.4477,148.357,171.07" style="stroke:#181818;stroke-width:1.0;"/></g><!--reverse link GenericDraweeView to SimpleDraweeView--><g id="link_GenericDraweeView_SimpleDraweeView"><path codeLine="6" d="M172.8947,304.8451 C175.2267,322.5031 176.077,328.941 178.42,346.678 " fill="none" id="GenericDraweeView-backto-SimpleDraweeView" style="stroke:#181818;stroke-width:1.0;"/><polygon fill="none" points="170.538,287,166.9464,305.6306,178.8431,304.0595,170.538,287" style="stroke:#181818;stroke-width:1.0;"/></g><!--reverse link SettableDraweeHierarchy to GenericDraweeHierarchy--><g id="link_SettableDraweeHierarchy_GenericDraweeHierarchy"><path codeLine="15" d="M766.5,305 C766.5,322.658 766.5,328.941 766.5,346.678 " fill="none" id="SettableDraweeHierarchy-backto-GenericDraweeHierarchy" style="stroke:#181818;stroke-width:1.0;"/><polygon fill="none" points="766.5,287,760.5,305,772.5,305,766.5,287" style="stroke:#181818;stroke-width:1.0;"/></g><!--reverse link DraweeHierarchy to SettableDraweeHierarchy--><g id="link_DraweeHierarchy_SettableDraweeHierarchy"><path codeLine="19" d="M766.5,197.151 C766.5,216.005 766.5,221.647 766.5,238.845 " fill="none" id="DraweeHierarchy-backto-SettableDraweeHierarchy" style="stroke:#181818;stroke-width:1.0;"/><polygon fill="none" points="766.5,179.151,760.5,197.151,772.5,197.151,766.5,179.151" style="stroke:#181818;stroke-width:1.0;"/></g><!--reverse link DraweeHolder to DraweeController--><g id="link_DraweeHolder_DraweeController"><path codeLine="22" d="M450.5705,182.7695 C446.0595,202.5475 442.262,219.196 437.754,238.965 " fill="none" id="DraweeHolder-backto-DraweeController" style="stroke:#181818;stroke-width:1.0;"/><polygon fill="#181818" points="453.239,171.07,448.0049,176.0303,450.5705,182.7695,455.8046,177.8093,453.239,171.07" style="stroke:#181818;stroke-width:1.0;"/></g><!--reverse link DraweeHolder to DraweeHierarchy--><g id="link_DraweeHolder_DraweeHierarchy"><path codeLine="23" d="M613.672,147 C625.261,147 624.851,147 636.44,147 " fill="none" id="DraweeHolder-backto-DraweeHierarchy" style="stroke:#181818;stroke-width:1.0;"/><polygon fill="#181818" points="601.672,147,607.672,151,613.672,147,607.672,143,601.672,147" style="stroke:#181818;stroke-width:1.0;"/></g><!--reverse link VisibilityCallback to DraweeHolder--><g id="link_VisibilityCallback_DraweeHolder"><path codeLine="26" d="M458.5,73.07 C458.5,92.848 458.5,103.196 458.5,122.965 " fill="none" id="VisibilityCallback-backto-DraweeHolder" style="stroke:#181818;stroke-width:1.0;"/><polygon fill="none" points="458.5,55.07,452.5,73.07,464.5,73.07,458.5,55.07" style="stroke:#181818;stroke-width:1.0;"/></g><!--reverse link DraweeView to DraweeHolder--><g id="link_DraweeView_DraweeHolder"><path codeLine="27" d="M292.082,147 C303.814,147 303.546,147 315.278,147 " fill="none" id="DraweeView-backto-DraweeHolder" style="stroke:#181818;stroke-width:1.0;"/><polygon fill="#181818" points="280.082,147,286.082,151,292.082,147,286.082,143,280.082,147" style="stroke:#181818;stroke-width:1.0;"/></g><!--reverse link GenericDraweeHierarchy to RootDrawable--><g id="link_GenericDraweeHierarchy_RootDrawable"><path codeLine="29" d="M766.5,407 C766.5,424.6584 766.5,436.9408 766.5,454.6784 " fill="none" id="GenericDraweeHierarchy-backto-RootDrawable" style="stroke:#181818;stroke-width:1.0;"/><polygon fill="#181818" points="766.5,395,762.5,401,766.5,407,770.5,401,766.5,395" style="stroke:#181818;stroke-width:1.0;"/></g><!--reverse link DraweeController to SimpleDraweeView--><g id="link_DraweeController_SimpleDraweeView"><path codeLine="31" d="M372.5097,289.3343 C330.5527,307.0533 278.328,329.108 236.29,346.862 " fill="none" id="DraweeController-backto-SimpleDraweeView" style="stroke:#181818;stroke-width:1.0;"/><polygon fill="#181818" points="378.037,287,368.1899,286.8165,373.4309,288.9452,371.3022,294.1863,378.037,287" style="stroke:#181818;stroke-width:1.0;"/></g><!--reverse link DraweeController to AbstractDraweeController--><g id="link_DraweeController_AbstractDraweeController"><path codeLine="33" d="M432.5,305 C432.5,322.658 432.5,328.941 432.5,346.678 " fill="none" id="DraweeController-backto-AbstractDraweeController" style="stroke:#181818;stroke-width:1.0;"/><polygon fill="none" points="432.5,287,426.5,305,438.5,305,432.5,287" style="stroke:#181818;stroke-width:1.0;"/></g><!--reverse link AbstractDraweeController to PipelineDraweeController--><g id="link_AbstractDraweeController_PipelineDraweeController"><path codeLine="34" d="M432.5,413 C432.5,430.6584 432.5,436.9408 432.5,454.6784 " fill="none" id="AbstractDraweeController-backto-PipelineDraweeController" style="stroke:#181818;stroke-width:1.0;"/><polygon fill="none" points="432.5,395,426.5,413,438.5,413,432.5,395" style="stroke:#181818;stroke-width:1.0;"/></g><!--SRC=[TL91JiCm4BplArRY0fNy0LHLGaMYI1mGHRqxxf9OREF8SOaguEyuCMtSEBx5kpFZcOoTASbLPF4R49yFigITfWwNFqBWevKT3MU_KopRDXejdwWcgrMOR3HPQLLrMdde20ewLyWhkQq-D4mH_ePrMRc2Z-Gn2I_8JKdm2-366BfsP3-a8fnO6o8YUk2xQLxeYxW7o8BfzWxlyNpmSgF4bfphXnCf2FRdVm5aIBtxlUbgaUFv75FpQrCxQvZ9meoQoFg3kAwDuJtPR64n21UNtjEhpmXCRXjjxtIh2ytQdTQIkP3g4z9H_Bo2AaGbBoOhc3S-M7qpnbsAW-GvYMCZLcaUMRJEIkNmuVyZatWS1CTPU6uHQA-w8TOrJRT_]--></g></svg>