<?xml version="1.0" encoding="us-ascii" standalone="no"?><svg xmlns="http://www.w3.org/2000/svg" xmlns:xlink="http://www.w3.org/1999/xlink" contentStyleType="text/css" height="975px" preserveAspectRatio="none" style="width:1019px;height:975px;background:#FFFFFF;" version="1.1" viewBox="0 0 1019 975" width="1019px" zoomAndPan="magnify"><defs/><g><rect fill="#F0F0F0" height="963.4063" style="stroke:#181818;stroke-width:0.5;" width="901" x="112" y="6"/><text fill="#000000" font-family="sans-serif" font-size="13" font-weight="bold" lengthAdjust="spacing" textLength="30" x="545" y="18.0669">APP</text><rect fill="#FFFFFF" height="309.3594" style="stroke:#181818;stroke-width:1.0;" width="10" x="171" y="616.75"/><rect fill="#FFFFFF" height="112.5625" style="stroke:#181818;stroke-width:1.0;" width="10" x="302.5" y="87.5625"/><rect fill="#FFFFFF" height="322.2266" style="stroke:#181818;stroke-width:1.0;" width="10" x="302.5" y="229.2578"/><rect fill="#FFFFFF" height="285.0938" style="stroke:#181818;stroke-width:1.0;" width="10" x="307.5" y="266.3906"/><rect fill="#FFFFFF" height="38.1328" style="stroke:#181818;stroke-width:1.0;" width="10" x="302.5" y="887.9766"/><rect fill="#FFFFFF" height="250.9609" style="stroke:#181818;stroke-width:1.0;" width="10" x="457.5" y="300.5234"/><rect fill="#FFFFFF" height="126.5625" style="stroke:#181818;stroke-width:1.0;" width="10" x="462.5" y="337.6563"/><rect fill="#FFFFFF" height="28" style="stroke:#181818;stroke-width:1.0;" width="10" x="467.5" y="436.2188"/><rect fill="#FFFFFF" height="28" style="stroke:#181818;stroke-width:1.0;" width="10" x="462.5" y="523.4844"/><rect fill="#FFFFFF" height="221.9609" style="stroke:#181818;stroke-width:1.0;" width="10" x="746.5" y="704.1484"/><line style="stroke:#181818;stroke-width:0.5;stroke-dasharray:5.0,5.0;" x1="176" x2="176" y1="56.4297" y2="935.1094"/><line style="stroke:#181818;stroke-width:0.5;stroke-dasharray:5.0,5.0;" x1="307" x2="307" y1="56.4297" y2="935.1094"/><line style="stroke:#181818;stroke-width:0.5;stroke-dasharray:5.0,5.0;" x1="462" x2="462" y1="168.3438" y2="935.1094"/><line style="stroke:#181818;stroke-width:0.5;stroke-dasharray:5.0,5.0;" x1="607" x2="607" y1="381.3047" y2="935.1094"/><line style="stroke:#181818;stroke-width:0.5;stroke-dasharray:5.0,5.0;" x1="751" x2="751" y1="56.4297" y2="935.1094"/><line style="stroke:#181818;stroke-width:0.5;stroke-dasharray:5.0,5.0;" x1="951" x2="951" y1="742.7969" y2="935.1094"/><rect fill="#E2E2F0" height="30.2969" rx="2.5" ry="2.5" style="stroke:#181818;stroke-width:0.5;" width="120" x="116" y="25.1328"/><text fill="#000000" font-family="sans-serif" font-size="14" lengthAdjust="spacing" textLength="106" x="123" y="45.1279">ActivityThread</text><rect fill="#E2E2F0" height="30.2969" rx="2.5" ry="2.5" style="stroke:#181818;stroke-width:0.5;" width="120" x="116" y="934.1094"/><text fill="#000000" font-family="sans-serif" font-size="14" lengthAdjust="spacing" textLength="106" x="123" y="954.1045">ActivityThread</text><rect fill="#E2E2F0" height="30.2969" rx="2.5" ry="2.5" style="stroke:#181818;stroke-width:0.5;" width="123" x="246" y="25.1328"/><text fill="#000000" font-family="sans-serif" font-size="14" lengthAdjust="spacing" textLength="109" x="253" y="45.1279">SecondActivity</text><rect fill="#E2E2F0" height="30.2969" rx="2.5" ry="2.5" style="stroke:#181818;stroke-width:0.5;" width="123" x="246" y="934.1094"/><text fill="#000000" font-family="sans-serif" font-size="14" lengthAdjust="spacing" textLength="109" x="253" y="954.1045">SecondActivity</text><rect fill="#E2E2F0" height="30.2969" rx="2.5" ry="2.5" style="stroke:#181818;stroke-width:0.5;" width="115" x="405" y="934.1094"/><text fill="#000000" font-family="sans-serif" font-size="14" lengthAdjust="spacing" textLength="101" x="412" y="954.1045">PhoneWindow</text><rect fill="#E2E2F0" height="30.2969" rx="2.5" ry="2.5" style="stroke:#181818;stroke-width:0.5;" width="91" x="562" y="934.1094"/><text fill="#000000" font-family="sans-serif" font-size="14" lengthAdjust="spacing" textLength="77" x="569" y="954.1045">DecorView</text><rect fill="#E2E2F0" height="30.2969" rx="2.5" ry="2.5" style="stroke:#181818;stroke-width:0.5;" width="177" x="663" y="25.1328"/><text fill="#000000" font-family="sans-serif" font-size="14" lengthAdjust="spacing" textLength="163" x="670" y="45.1279">WindowManagerGlobal</text><rect fill="#E2E2F0" height="30.2969" rx="2.5" ry="2.5" style="stroke:#181818;stroke-width:0.5;" width="177" x="663" y="934.1094"/><text fill="#000000" font-family="sans-serif" font-size="14" lengthAdjust="spacing" textLength="163" x="670" y="954.1045">WindowManagerGlobal</text><rect fill="#E2E2F0" height="30.2969" rx="2.5" ry="2.5" style="stroke:#181818;stroke-width:0.5;" width="115" x="894" y="934.1094"/><text fill="#000000" font-family="sans-serif" font-size="14" lengthAdjust="spacing" textLength="101" x="901" y="954.1045">ViewRootImpl</text><rect fill="#FFFFFF" height="309.3594" style="stroke:#181818;stroke-width:1.0;" width="10" x="171" y="616.75"/><rect fill="#FFFFFF" height="112.5625" style="stroke:#181818;stroke-width:1.0;" width="10" x="302.5" y="87.5625"/><rect fill="#FFFFFF" height="322.2266" style="stroke:#181818;stroke-width:1.0;" width="10" x="302.5" y="229.2578"/><rect fill="#FFFFFF" height="285.0938" style="stroke:#181818;stroke-width:1.0;" width="10" x="307.5" y="266.3906"/><rect fill="#FFFFFF" height="38.1328" style="stroke:#181818;stroke-width:1.0;" width="10" x="302.5" y="887.9766"/><rect fill="#FFFFFF" height="250.9609" style="stroke:#181818;stroke-width:1.0;" width="10" x="457.5" y="300.5234"/><rect fill="#FFFFFF" height="126.5625" style="stroke:#181818;stroke-width:1.0;" width="10" x="462.5" y="337.6563"/><rect fill="#FFFFFF" height="28" style="stroke:#181818;stroke-width:1.0;" width="10" x="467.5" y="436.2188"/><rect fill="#FFFFFF" height="28" style="stroke:#181818;stroke-width:1.0;" width="10" x="462.5" y="523.4844"/><rect fill="#FFFFFF" height="221.9609" style="stroke:#181818;stroke-width:1.0;" width="10" x="746.5" y="704.1484"/><ellipse cx="7.5" cy="86.8125" fill="none" rx="4" ry="4" style="stroke:#181818;stroke-width:1.5;"/><polygon fill="#181818" points="290.5,83.5625,300.5,87.5625,290.5,91.5625,294.5,87.5625" style="stroke:#181818;stroke-width:1.0;"/><line style="stroke:#181818;stroke-width:1.0;" x1="12" x2="296.5" y1="87.5625" y2="87.5625"/><text fill="#000000" font-family="sans-serif" font-size="13" lengthAdjust="spacing" textLength="57" x="228.5" y="82.4966">&#9312; attach</text><line style="stroke:#181818;stroke-width:1.0;" x1="312.5" x2="354.5" y1="116.6953" y2="116.6953"/><line style="stroke:#181818;stroke-width:1.0;" x1="354.5" x2="354.5" y1="116.6953" y2="129.6953"/><line style="stroke:#181818;stroke-width:1.0;" x1="313.5" x2="354.5" y1="129.6953" y2="129.6953"/><polygon fill="#181818" points="323.5,125.6953,313.5,129.6953,323.5,133.6953,319.5,129.6953" style="stroke:#181818;stroke-width:1.0;"/><text fill="#000000" font-family="sans-serif" font-size="13" lengthAdjust="spacing" textLength="123" x="319.5" y="111.6294">attachBaseContext</text><polygon fill="#181818" points="393,139.6953,403,143.6953,393,147.6953,397,143.6953" style="stroke:#181818;stroke-width:1.0;"/><line style="stroke:#181818;stroke-width:1.0;" x1="312.5" x2="399" y1="143.6953" y2="143.6953"/><rect fill="#E2E2F0" height="30.2969" rx="2.5" ry="2.5" style="stroke:#181818;stroke-width:0.5;" width="115" x="405" y="137.6953"/><text fill="#000000" font-family="sans-serif" font-size="14" lengthAdjust="spacing" textLength="101" x="412" y="157.6904">PhoneWindow</text><polygon fill="#181818" points="450.5,196.125,460.5,200.125,450.5,204.125,454.5,200.125" style="stroke:#181818;stroke-width:1.0;"/><line style="stroke:#181818;stroke-width:1.0;" x1="307.5" x2="456.5" y1="200.125" y2="200.125"/><text fill="#000000" font-family="sans-serif" font-size="13" lengthAdjust="spacing" textLength="126" x="319.5" y="195.0591">setWindowManager</text><ellipse cx="7.5" cy="228.5078" fill="none" rx="4" ry="4" style="stroke:#181818;stroke-width:1.5;"/><polygon fill="#181818" points="290.5,225.2578,300.5,229.2578,290.5,233.2578,294.5,229.2578" style="stroke:#181818;stroke-width:1.0;"/><line style="stroke:#181818;stroke-width:1.0;" x1="12" x2="296.5" y1="229.2578" y2="229.2578"/><text fill="#000000" font-family="sans-serif" font-size="13" lengthAdjust="spacing" textLength="85" x="200.5" y="224.1919">&#9313; onCreate()</text><line style="stroke:#181818;stroke-width:1.0;" x1="312.5" x2="359.5" y1="253.3906" y2="253.3906"/><line style="stroke:#181818;stroke-width:1.0;" x1="359.5" x2="359.5" y1="253.3906" y2="266.3906"/><line style="stroke:#181818;stroke-width:1.0;" x1="318.5" x2="359.5" y1="266.3906" y2="266.3906"/><polygon fill="#181818" points="328.5,262.3906,318.5,266.3906,328.5,270.3906,324.5,266.3906" style="stroke:#181818;stroke-width:1.0;"/><text fill="#000000" font-family="sans-serif" font-size="13" lengthAdjust="spacing" textLength="102" x="324.5" y="248.3247">setContentView</text><polygon fill="#181818" points="445.5,296.5234,455.5,300.5234,445.5,304.5234,449.5,300.5234" style="stroke:#181818;stroke-width:1.0;"/><line style="stroke:#181818;stroke-width:1.0;" x1="317.5" x2="451.5" y1="300.5234" y2="300.5234"/><text fill="#000000" font-family="sans-serif" font-size="13" lengthAdjust="spacing" textLength="102" x="338.5" y="295.4575">setContentView</text><line style="stroke:#181818;stroke-width:1.0;" x1="467.5" x2="514.5" y1="324.6563" y2="324.6563"/><line style="stroke:#181818;stroke-width:1.0;" x1="514.5" x2="514.5" y1="324.6563" y2="337.6563"/><line style="stroke:#181818;stroke-width:1.0;" x1="473.5" x2="514.5" y1="337.6563" y2="337.6563"/><polygon fill="#181818" points="483.5,333.6563,473.5,337.6563,483.5,341.6563,479.5,337.6563" style="stroke:#181818;stroke-width:1.0;"/><text fill="#000000" font-family="sans-serif" font-size="13" lengthAdjust="spacing" textLength="75" x="479.5" y="319.5903">installDecor</text><polygon fill="#181818" points="550,367.7891,560,371.7891,550,375.7891,554,371.7891" style="stroke:#181818;stroke-width:1.0;"/><line style="stroke:#181818;stroke-width:1.0;" x1="472.5" x2="556" y1="371.7891" y2="371.7891"/><text fill="#000000" font-family="sans-serif" font-size="13" lengthAdjust="spacing" textLength="27" x="518" y="366.7231">new</text><rect fill="#E2E2F0" height="30.2969" rx="2.5" ry="2.5" style="stroke:#181818;stroke-width:0.5;" width="91" x="562" y="350.6563"/><text fill="#000000" font-family="sans-serif" font-size="14" lengthAdjust="spacing" textLength="77" x="569" y="370.6514">DecorView</text><line style="stroke:#181818;stroke-width:1.0;" x1="477.5" x2="519.5" y1="428.2188" y2="428.2188"/><line style="stroke:#181818;stroke-width:1.0;" x1="519.5" x2="519.5" y1="428.2188" y2="441.2188"/><line style="stroke:#181818;stroke-width:1.0;" x1="478.5" x2="519.5" y1="441.2188" y2="441.2188"/><polygon fill="#181818" points="488.5,437.2188,478.5,441.2188,488.5,445.2188,484.5,441.2188" style="stroke:#181818;stroke-width:1.0;"/><text fill="#000000" font-family="sans-serif" font-size="13" lengthAdjust="spacing" textLength="116" x="484.5" y="408.02">mContentParent=</text><text fill="#000000" font-family="sans-serif" font-size="13" lengthAdjust="spacing" textLength="112" x="484.5" y="423.1528">generateLayout()</text><line style="stroke:#181818;stroke-width:1.0;" x1="472.5" x2="514.5" y1="515.4844" y2="515.4844"/><line style="stroke:#181818;stroke-width:1.0;" x1="514.5" x2="514.5" y1="515.4844" y2="528.4844"/><line style="stroke:#181818;stroke-width:1.0;" x1="473.5" x2="514.5" y1="528.4844" y2="528.4844"/><polygon fill="#181818" points="483.5,524.4844,473.5,528.4844,483.5,532.4844,479.5,528.4844" style="stroke:#181818;stroke-width:1.0;"/><text fill="#000000" font-family="sans-serif" font-size="13" lengthAdjust="spacing" textLength="69" x="479.5" y="495.2856">view&#28155;&#21152;&#21040;</text><text fill="#000000" font-family="sans-serif" font-size="13" lengthAdjust="spacing" textLength="106" x="479.5" y="510.4185">mContentParent</text><ellipse cx="7.5" cy="586.8672" fill="none" rx="4" ry="4" style="stroke:#181818;stroke-width:1.5;"/><polygon fill="#181818" points="295.5,583.6172,305.5,587.6172,295.5,591.6172,299.5,587.6172" style="stroke:#181818;stroke-width:1.0;"/><line style="stroke:#181818;stroke-width:1.0;" x1="12" x2="301.5" y1="587.6172" y2="587.6172"/><text fill="#000000" font-family="sans-serif" font-size="13" lengthAdjust="spacing" textLength="73" x="217.5" y="582.5513">&#9314; onStart()</text><ellipse cx="7.5" cy="616" fill="none" rx="4" ry="4" style="stroke:#181818;stroke-width:1.5;"/><polygon fill="#181818" points="159,612.75,169,616.75,159,620.75,163,616.75" style="stroke:#181818;stroke-width:1.0;"/><line style="stroke:#181818;stroke-width:1.0;" x1="12" x2="165" y1="616.75" y2="616.75"/><text fill="#000000" font-family="sans-serif" font-size="13" lengthAdjust="spacing" textLength="144" x="10" y="611.6841">handleResumeActivity</text><ellipse cx="7.5" cy="645.1328" fill="none" rx="4" ry="4" style="stroke:#181818;stroke-width:1.5;"/><polygon fill="#181818" points="295.5,641.8828,305.5,645.8828,295.5,649.8828,299.5,645.8828" style="stroke:#181818;stroke-width:1.0;"/><line style="stroke:#181818;stroke-width:1.0;" x1="12" x2="301.5" y1="645.8828" y2="645.8828"/><text fill="#000000" font-family="sans-serif" font-size="13" lengthAdjust="spacing" textLength="95" x="195.5" y="640.8169">&#9315; onResume()</text><polygon fill="#181818" points="595.5,671.0156,605.5,675.0156,595.5,679.0156,599.5,675.0156" style="stroke:#181818;stroke-width:1.0;"/><line style="stroke:#181818;stroke-width:1.0;" x1="181" x2="601.5" y1="675.0156" y2="675.0156"/><text fill="#000000" font-family="sans-serif" font-size="13" lengthAdjust="spacing" textLength="140" x="450.5" y="669.9497">setVisibility(INVISIBLE)</text><polygon fill="#181818" points="734.5,700.1484,744.5,704.1484,734.5,708.1484,738.5,704.1484" style="stroke:#181818;stroke-width:1.0;"/><line style="stroke:#181818;stroke-width:1.0;" x1="181" x2="740.5" y1="704.1484" y2="704.1484"/><text fill="#000000" font-family="sans-serif" font-size="13" lengthAdjust="spacing" textLength="134" x="595.5" y="699.0825">addView(DecorView)</text><polygon fill="#181818" points="882,714.1484,892,718.1484,882,722.1484,886,718.1484" style="stroke:#181818;stroke-width:1.0;"/><line style="stroke:#181818;stroke-width:1.0;" x1="756.5" x2="888" y1="718.1484" y2="718.1484"/><rect fill="#E2E2F0" height="30.2969" rx="2.5" ry="2.5" style="stroke:#181818;stroke-width:0.5;" width="115" x="894" y="712.1484"/><text fill="#000000" font-family="sans-serif" font-size="14" lengthAdjust="spacing" textLength="101" x="901" y="732.1436">ViewRootImpl</text><line style="stroke:#181818;stroke-width:1.0;" x1="756.5" x2="798.5" y1="774.5781" y2="774.5781"/><line style="stroke:#181818;stroke-width:1.0;" x1="798.5" x2="798.5" y1="774.5781" y2="787.5781"/><line style="stroke:#181818;stroke-width:1.0;" x1="757.5" x2="798.5" y1="787.5781" y2="787.5781"/><polygon fill="#181818" points="767.5,783.5781,757.5,787.5781,767.5,791.5781,763.5,787.5781" style="stroke:#181818;stroke-width:1.0;"/><text fill="#000000" font-family="sans-serif" font-size="13" lengthAdjust="spacing" textLength="158" x="763.5" y="769.5122">mViews.add(DecorView)</text><line style="stroke:#181818;stroke-width:1.0;" x1="756.5" x2="798.5" y1="816.7109" y2="816.7109"/><line style="stroke:#181818;stroke-width:1.0;" x1="798.5" x2="798.5" y1="816.7109" y2="829.7109"/><line style="stroke:#181818;stroke-width:1.0;" x1="757.5" x2="798.5" y1="829.7109" y2="829.7109"/><polygon fill="#181818" points="767.5,825.7109,757.5,829.7109,767.5,833.7109,763.5,829.7109" style="stroke:#181818;stroke-width:1.0;"/><text fill="#000000" font-family="sans-serif" font-size="13" lengthAdjust="spacing" textLength="176" x="763.5" y="811.645">mRoots.add(ViewRootImpl)</text><polygon fill="#181818" points="939.5,854.8438,949.5,858.8438,939.5,862.8438,943.5,858.8438" style="stroke:#181818;stroke-width:1.0;"/><line style="stroke:#181818;stroke-width:1.0;" x1="756.5" x2="945.5" y1="858.8438" y2="858.8438"/><text fill="#000000" font-family="sans-serif" font-size="13" lengthAdjust="spacing" textLength="130" x="804.5" y="853.7778">setView(DecorView)</text><polygon fill="#181818" points="290.5,883.9766,300.5,887.9766,290.5,891.9766,294.5,887.9766" style="stroke:#181818;stroke-width:1.0;"/><line style="stroke:#181818;stroke-width:1.0;" x1="181" x2="296.5" y1="887.9766" y2="887.9766"/><text fill="#000000" font-family="sans-serif" font-size="13" lengthAdjust="spacing" textLength="77" x="208.5" y="882.9106">makeVisible</text><polygon fill="#181818" points="595.5,913.1094,605.5,917.1094,595.5,921.1094,599.5,917.1094" style="stroke:#181818;stroke-width:1.0;"/><line style="stroke:#181818;stroke-width:1.0;" x1="312.5" x2="601.5" y1="917.1094" y2="917.1094"/><text fill="#000000" font-family="sans-serif" font-size="13" lengthAdjust="spacing" textLength="128" x="462.5" y="912.0435">setVisibility(VISIBLE)</text><!--SRC=[ZLHBIWD14DtFAHhS94h4TK0XVWaa4ep4XMugCqNIs5CTkpjHRo3kl86V2xXpuMq4FOVLanWoIOyJ1eQXwzMhUg-gnrvB6e61L5Yy6IF5s4PhOO0D9GSa34xGM3oK1cCdDKLzVISQdOxOEDxnJyIvJiPo1EH4Wo4JwUxFXmOXYIvrRKzqCTQK_4N4rbPTV3qz2t0Euc6q55t5rsV8VR1ueCdXdGiaTOQQy49Iec_5vcO9eCvAtVIx3SHAJPGWU30uNAeV_IFYHMWwOA4EAzLo8Jw7wsOQoFKatfQq6KXO30VGagm3fGwPrYnZiqDFmlwm0rJ6LglLHJghtG73xzqh6Y2XORqjkDTZnweNV5j8BsUUS2C_7v_VZy_V3-zNb2zKnFhFb8eZeV7vuRtoyBgETvTLP9ZyxcP-3e4IXMTenocM4hunuHJAZ4jaEV-pgVQabNsf659fdlQQtUP-woYKbblJ4wNxeBBM84ayMMLEMur2K6RmmJEjNJCTANyt2c2XOzu0dsstkTeQbGeeVF4fnM8hw_KxyoelTDMbm5LBuHepanK6xbdnDEQpG4e4_-j-0G00]--></g></svg>