<?xml version="1.0" encoding="us-ascii" standalone="no"?><svg xmlns="http://www.w3.org/2000/svg" xmlns:xlink="http://www.w3.org/1999/xlink" contentStyleType="text/css" height="405px" preserveAspectRatio="none" style="width:718px;height:405px;background:#FFFFFF;" version="1.1" viewBox="0 0 718 405" width="718px" zoomAndPan="magnify"><defs/><g><!--class Pool--><g id="elem_Pool"><rect codeLine="1" fill="#F1F1F1" height="48" id="Pool" rx="2.5" ry="2.5" style="stroke:#181818;stroke-width:0.5;" width="109" x="323.5" y="10"/><ellipse cx="338.5" cy="26" fill="#B4A7E5" rx="11" ry="11" style="stroke:#181818;stroke-width:1.0;"/><path d="M339.4531,22.7813 L341.1719,22.7813 C341.5625,22.7813 341.75,22.75 341.875,22.6719 C342.1406,22.5156 342.2813,22.2344 342.2813,21.9375 C342.2813,21.6719 342.1719,21.4063 341.9375,21.2344 C341.7656,21.125 341.625,21.0938 341.1719,21.0938 L336.0313,21.0938 C335.5938,21.0938 335.4688,21.1094 335.3125,21.2031 C335.0625,21.3594 334.9063,21.6563 334.9063,21.9375 C334.9063,22.2188 335.0469,22.4688 335.2656,22.6406 C335.4219,22.75 335.6094,22.7813 336.0313,22.7813 L337.75,22.7813 L337.75,29.2969 L336.0313,29.2969 C335.5938,29.2969 335.4688,29.3125 335.3125,29.4219 C335.0625,29.5781 334.9063,29.8594 334.9063,30.1563 C334.9063,30.4063 335.0469,30.6719 335.2656,30.8281 C335.4219,30.9531 335.625,31 336.0313,31 L341.1719,31 C341.9219,31 342.2813,30.7188 342.2813,30.1563 C342.2813,29.875 342.1719,29.625 341.9375,29.4531 C341.7656,29.3281 341.625,29.2969 341.1719,29.2969 L339.4531,29.2969 L339.4531,22.7813 Z " fill="#000000"/><text fill="#000000" font-family="sans-serif" font-size="14" font-style="italic" lengthAdjust="spacing" textLength="30" x="352.5" y="30.8467">Pool</text><rect fill="#FFFFFF" height="15.9688" style="stroke:#181818;stroke-width:1.0;stroke-dasharray:2.0,2.0;" width="45" x="390.5" y="7"/><text fill="#000000" font-family="sans-serif" font-size="12" font-style="italic" lengthAdjust="spacing" textLength="43" x="391.5" y="19.1387">Bitmap</text><line style="stroke:#181818;stroke-width:0.5;" x1="324.5" x2="431.5" y1="42" y2="42"/><line style="stroke:#181818;stroke-width:0.5;" x1="324.5" x2="431.5" y1="50" y2="50"/></g><!--class BitmapPool--><g id="elem_BitmapPool"><rect codeLine="2" fill="#ADD8E6" height="48" id="BitmapPool" rx="2.5" ry="2.5" style="stroke:#181818;stroke-width:0.5;" width="113" x="229.5" y="118"/><ellipse cx="244.5" cy="134" fill="#B4A7E5" rx="11" ry="11" style="stroke:#181818;stroke-width:1.0;"/><path d="M245.4531,130.7813 L247.1719,130.7813 C247.5625,130.7813 247.75,130.75 247.875,130.6719 C248.1406,130.5156 248.2813,130.2344 248.2813,129.9375 C248.2813,129.6719 248.1719,129.4063 247.9375,129.2344 C247.7656,129.125 247.625,129.0938 247.1719,129.0938 L242.0313,129.0938 C241.5938,129.0938 241.4688,129.1094 241.3125,129.2031 C241.0625,129.3594 240.9063,129.6563 240.9063,129.9375 C240.9063,130.2188 241.0469,130.4688 241.2656,130.6406 C241.4219,130.75 241.6094,130.7813 242.0313,130.7813 L243.75,130.7813 L243.75,137.2969 L242.0313,137.2969 C241.5938,137.2969 241.4688,137.3125 241.3125,137.4219 C241.0625,137.5781 240.9063,137.8594 240.9063,138.1563 C240.9063,138.4063 241.0469,138.6719 241.2656,138.8281 C241.4219,138.9531 241.625,139 242.0313,139 L247.1719,139 C247.9219,139 248.2813,138.7188 248.2813,138.1563 C248.2813,137.875 248.1719,137.625 247.9375,137.4531 C247.7656,137.3281 247.625,137.2969 247.1719,137.2969 L245.4531,137.2969 L245.4531,130.7813 Z " fill="#000000"/><text fill="#000000" font-family="sans-serif" font-size="14" font-style="italic" lengthAdjust="spacing" textLength="81" x="258.5" y="138.8467">BitmapPool</text><line style="stroke:#181818;stroke-width:0.5;" x1="230.5" x2="341.5" y1="150" y2="150"/><line style="stroke:#181818;stroke-width:0.5;" x1="230.5" x2="341.5" y1="158" y2="158"/></g><!--class BasePool--><g id="elem_BasePool"><rect codeLine="4" fill="#F1F1F1" height="48" id="BasePool" rx="2.5" ry="2.5" style="stroke:#181818;stroke-width:0.5;" width="144" x="398" y="118"/><ellipse cx="413" cy="134" fill="#A9DCDF" rx="11" ry="11" style="stroke:#181818;stroke-width:1.0;"/><path d="M415.0781,135.8125 L415.4688,136.7969 L415.0781,136.7969 C414.625,136.7969 414.5156,136.8125 414.3594,136.9219 C414.1094,137.0781 413.9531,137.3594 413.9531,137.6563 C413.9531,137.9219 414.0938,138.1719 414.3125,138.3281 C414.4531,138.4531 414.6563,138.5 415.0781,138.5 L417.4375,138.5 C417.7969,138.5 418.0156,138.4688 418.1563,138.375 C418.4063,138.2344 418.5625,137.9375 418.5625,137.6563 C418.5625,137.375 418.4219,137.125 418.2031,136.9688 C418.0313,136.8281 417.875,136.7969 417.4063,136.7969 L414.0156,128.5938 L410.3438,128.5938 C409.8906,128.5938 409.7656,128.6094 409.6094,128.7031 C409.3594,128.875 409.2031,129.1563 409.2031,129.4375 C409.2031,129.7188 409.3438,129.9688 409.5625,130.1406 C409.7344,130.25 409.9063,130.2813 410.3438,130.2813 L411.4219,130.2813 L408.7813,136.7969 C408.3594,136.7969 408.2031,136.8125 408.0469,136.9219 C407.7969,137.0781 407.6406,137.3594 407.6406,137.6563 C407.6406,138.2188 408.0156,138.5 408.7656,138.5 L411.0313,138.5 C411.3906,138.5 411.6094,138.4688 411.7344,138.375 C412,138.2344 412.1406,137.9375 412.1406,137.6563 C412.1406,137.375 412.0156,137.125 411.7969,136.9531 C411.625,136.8281 411.4844,136.7969 411.0313,136.7969 L410.6406,136.7969 L411.0313,135.8125 L415.0781,135.8125 Z M414.375,134.1094 L411.7031,134.1094 L413.0469,130.8438 L414.375,134.1094 Z " fill="#000000"/><text fill="#000000" font-family="sans-serif" font-size="14" font-style="italic" lengthAdjust="spacing" textLength="65" x="427" y="138.8467">BasePool</text><rect fill="#FFFFFF" height="15.9688" style="stroke:#181818;stroke-width:1.0;stroke-dasharray:2.0,2.0;" width="45" x="500" y="115"/><text fill="#000000" font-family="sans-serif" font-size="12" font-style="italic" lengthAdjust="spacing" textLength="43" x="501" y="127.1387">Bitmap</text><line style="stroke:#181818;stroke-width:0.5;" x1="399" x2="541" y1="150" y2="150"/><line style="stroke:#181818;stroke-width:0.5;" x1="399" x2="541" y1="158" y2="158"/></g><!--class BucketsBitmapPool--><g id="elem_BucketsBitmapPool"><rect fill="#F1F1F1" height="48" id="BucketsBitmapPool" rx="2.5" ry="2.5" style="stroke:#181818;stroke-width:0.5;" width="174" x="387" y="226"/><ellipse cx="402" cy="242" fill="#ADD1B2" rx="11" ry="11" style="stroke:#181818;stroke-width:1.0;"/><path d="M404.3438,237.6719 C403.4063,237.2344 402.8125,237.0938 401.9375,237.0938 C399.3125,237.0938 397.3125,239.1719 397.3125,241.8906 L397.3125,243.0156 C397.3125,245.5938 399.4219,247.4844 402.3125,247.4844 C403.5313,247.4844 404.6875,247.1875 405.4375,246.6406 C406.0156,246.2344 406.3438,245.7813 406.3438,245.3906 C406.3438,244.9375 405.9531,244.5469 405.4844,244.5469 C405.2656,244.5469 405.0625,244.625 404.875,244.8125 C404.4219,245.2969 404.4219,245.2969 404.2344,245.3906 C403.8125,245.6563 403.125,245.7813 402.3594,245.7813 C400.3125,245.7813 399.0156,244.6875 399.0156,242.9844 L399.0156,241.8906 C399.0156,240.1094 400.2656,238.7969 402,238.7969 C402.5781,238.7969 403.1875,238.9531 403.6563,239.2031 C404.1406,239.4844 404.3125,239.7031 404.4063,240.1094 C404.4688,240.5156 404.5,240.6406 404.6406,240.7656 C404.7813,240.9063 405.0156,241.0156 405.2344,241.0156 C405.5,241.0156 405.7656,240.875 405.9375,240.6563 C406.0469,240.5 406.0781,240.3125 406.0781,239.8906 L406.0781,238.4688 C406.0781,238.0313 406.0625,237.9063 405.9688,237.75 C405.8125,237.4844 405.5313,237.3438 405.2344,237.3438 C404.9375,237.3438 404.7344,237.4375 404.5156,237.75 L404.3438,237.6719 Z " fill="#000000"/><text fill="#000000" font-family="sans-serif" font-size="14" lengthAdjust="spacing" textLength="142" x="416" y="246.8467">BucketsBitmapPool</text><line style="stroke:#181818;stroke-width:0.5;" x1="388" x2="560" y1="258" y2="258"/><line style="stroke:#181818;stroke-width:0.5;" x1="388" x2="560" y1="266" y2="266"/></g><!--class DummyBitmapPool--><g id="elem_DummyBitmapPool"><rect fill="#F1F1F1" height="48" id="DummyBitmapPool" rx="2.5" ry="2.5" style="stroke:#181818;stroke-width:0.5;" width="171" x="180.5" y="226"/><ellipse cx="195.5" cy="242" fill="#ADD1B2" rx="11" ry="11" style="stroke:#181818;stroke-width:1.0;"/><path d="M197.8438,237.6719 C196.9063,237.2344 196.3125,237.0938 195.4375,237.0938 C192.8125,237.0938 190.8125,239.1719 190.8125,241.8906 L190.8125,243.0156 C190.8125,245.5938 192.9219,247.4844 195.8125,247.4844 C197.0313,247.4844 198.1875,247.1875 198.9375,246.6406 C199.5156,246.2344 199.8438,245.7813 199.8438,245.3906 C199.8438,244.9375 199.4531,244.5469 198.9844,244.5469 C198.7656,244.5469 198.5625,244.625 198.375,244.8125 C197.9219,245.2969 197.9219,245.2969 197.7344,245.3906 C197.3125,245.6563 196.625,245.7813 195.8594,245.7813 C193.8125,245.7813 192.5156,244.6875 192.5156,242.9844 L192.5156,241.8906 C192.5156,240.1094 193.7656,238.7969 195.5,238.7969 C196.0781,238.7969 196.6875,238.9531 197.1563,239.2031 C197.6406,239.4844 197.8125,239.7031 197.9063,240.1094 C197.9688,240.5156 198,240.6406 198.1406,240.7656 C198.2813,240.9063 198.5156,241.0156 198.7344,241.0156 C199,241.0156 199.2656,240.875 199.4375,240.6563 C199.5469,240.5 199.5781,240.3125 199.5781,239.8906 L199.5781,238.4688 C199.5781,238.0313 199.5625,237.9063 199.4688,237.75 C199.3125,237.4844 199.0313,237.3438 198.7344,237.3438 C198.4375,237.3438 198.2344,237.4375 198.0156,237.75 L197.8438,237.6719 Z " fill="#000000"/><text fill="#000000" font-family="sans-serif" font-size="14" lengthAdjust="spacing" textLength="139" x="209.5" y="246.8467">DummyBitmapPool</text><line style="stroke:#181818;stroke-width:0.5;" x1="181.5" x2="350.5" y1="258" y2="258"/><line style="stroke:#181818;stroke-width:0.5;" x1="181.5" x2="350.5" y1="266" y2="266"/></g><!--class LruBitmapPool--><g id="elem_LruBitmapPool"><rect fill="#F1F1F1" height="48" id="LruBitmapPool" rx="2.5" ry="2.5" style="stroke:#181818;stroke-width:0.5;" width="138" x="7" y="226"/><ellipse cx="22" cy="242" fill="#ADD1B2" rx="11" ry="11" style="stroke:#181818;stroke-width:1.0;"/><path d="M24.3438,237.6719 C23.4063,237.2344 22.8125,237.0938 21.9375,237.0938 C19.3125,237.0938 17.3125,239.1719 17.3125,241.8906 L17.3125,243.0156 C17.3125,245.5938 19.4219,247.4844 22.3125,247.4844 C23.5313,247.4844 24.6875,247.1875 25.4375,246.6406 C26.0156,246.2344 26.3438,245.7813 26.3438,245.3906 C26.3438,244.9375 25.9531,244.5469 25.4844,244.5469 C25.2656,244.5469 25.0625,244.625 24.875,244.8125 C24.4219,245.2969 24.4219,245.2969 24.2344,245.3906 C23.8125,245.6563 23.125,245.7813 22.3594,245.7813 C20.3125,245.7813 19.0156,244.6875 19.0156,242.9844 L19.0156,241.8906 C19.0156,240.1094 20.2656,238.7969 22,238.7969 C22.5781,238.7969 23.1875,238.9531 23.6563,239.2031 C24.1406,239.4844 24.3125,239.7031 24.4063,240.1094 C24.4688,240.5156 24.5,240.6406 24.6406,240.7656 C24.7813,240.9063 25.0156,241.0156 25.2344,241.0156 C25.5,241.0156 25.7656,240.875 25.9375,240.6563 C26.0469,240.5 26.0781,240.3125 26.0781,239.8906 L26.0781,238.4688 C26.0781,238.0313 26.0625,237.9063 25.9688,237.75 C25.8125,237.4844 25.5313,237.3438 25.2344,237.3438 C24.9375,237.3438 24.7344,237.4375 24.5156,237.75 L24.3438,237.6719 Z " fill="#000000"/><text fill="#000000" font-family="sans-serif" font-size="14" lengthAdjust="spacing" textLength="106" x="36" y="246.8467">LruBitmapPool</text><line style="stroke:#181818;stroke-width:0.5;" x1="8" x2="144" y1="258" y2="258"/><line style="stroke:#181818;stroke-width:0.5;" x1="8" x2="144" y1="266" y2="266"/></g><!--class PoolFactory--><g id="elem_PoolFactory"><rect codeLine="10" fill="#F1F1F1" height="64.2969" id="PoolFactory" rx="2.5" ry="2.5" style="stroke:#181818;stroke-width:0.5;" width="219" x="156.5" y="334"/><ellipse cx="219.25" cy="350" fill="#ADD1B2" rx="11" ry="11" style="stroke:#181818;stroke-width:1.0;"/><path d="M221.5938,345.6719 C220.6563,345.2344 220.0625,345.0938 219.1875,345.0938 C216.5625,345.0938 214.5625,347.1719 214.5625,349.8906 L214.5625,351.0156 C214.5625,353.5938 216.6719,355.4844 219.5625,355.4844 C220.7813,355.4844 221.9375,355.1875 222.6875,354.6406 C223.2656,354.2344 223.5938,353.7813 223.5938,353.3906 C223.5938,352.9375 223.2031,352.5469 222.7344,352.5469 C222.5156,352.5469 222.3125,352.625 222.125,352.8125 C221.6719,353.2969 221.6719,353.2969 221.4844,353.3906 C221.0625,353.6563 220.375,353.7813 219.6094,353.7813 C217.5625,353.7813 216.2656,352.6875 216.2656,350.9844 L216.2656,349.8906 C216.2656,348.1094 217.5156,346.7969 219.25,346.7969 C219.8281,346.7969 220.4375,346.9531 220.9063,347.2031 C221.3906,347.4844 221.5625,347.7031 221.6563,348.1094 C221.7188,348.5156 221.75,348.6406 221.8906,348.7656 C222.0313,348.9063 222.2656,349.0156 222.4844,349.0156 C222.75,349.0156 223.0156,348.875 223.1875,348.6563 C223.2969,348.5 223.3281,348.3125 223.3281,347.8906 L223.3281,346.4688 C223.3281,346.0313 223.3125,345.9063 223.2188,345.75 C223.0625,345.4844 222.7813,345.3438 222.4844,345.3438 C222.1875,345.3438 221.9844,345.4375 221.7656,345.75 L221.5938,345.6719 Z " fill="#000000"/><text fill="#000000" font-family="sans-serif" font-size="14" lengthAdjust="spacing" textLength="85" x="239.75" y="354.8467">PoolFactory</text><line style="stroke:#181818;stroke-width:0.5;" x1="157.5" x2="374.5" y1="366" y2="366"/><line style="stroke:#181818;stroke-width:0.5;" x1="157.5" x2="374.5" y1="374" y2="374"/><text fill="#000000" font-family="sans-serif" font-size="14" lengthAdjust="spacing" textLength="207" x="162.5" y="390.9951">BitmapPool getBitmapPool()</text></g><!--class Bucket--><g id="elem_Bucket"><rect codeLine="16" fill="#F1F1F1" height="48" id="Bucket" rx="2.5" ry="2.5" style="stroke:#181818;stroke-width:0.5;" width="130" x="577" y="118"/><ellipse cx="592" cy="134" fill="#ADD1B2" rx="11" ry="11" style="stroke:#181818;stroke-width:1.0;"/><path d="M594.3438,129.6719 C593.4063,129.2344 592.8125,129.0938 591.9375,129.0938 C589.3125,129.0938 587.3125,131.1719 587.3125,133.8906 L587.3125,135.0156 C587.3125,137.5938 589.4219,139.4844 592.3125,139.4844 C593.5313,139.4844 594.6875,139.1875 595.4375,138.6406 C596.0156,138.2344 596.3438,137.7813 596.3438,137.3906 C596.3438,136.9375 595.9531,136.5469 595.4844,136.5469 C595.2656,136.5469 595.0625,136.625 594.875,136.8125 C594.4219,137.2969 594.4219,137.2969 594.2344,137.3906 C593.8125,137.6563 593.125,137.7813 592.3594,137.7813 C590.3125,137.7813 589.0156,136.6875 589.0156,134.9844 L589.0156,133.8906 C589.0156,132.1094 590.2656,130.7969 592,130.7969 C592.5781,130.7969 593.1875,130.9531 593.6563,131.2031 C594.1406,131.4844 594.3125,131.7031 594.4063,132.1094 C594.4688,132.5156 594.5,132.6406 594.6406,132.7656 C594.7813,132.9063 595.0156,133.0156 595.2344,133.0156 C595.5,133.0156 595.7656,132.875 595.9375,132.6563 C596.0469,132.5 596.0781,132.3125 596.0781,131.8906 L596.0781,130.4688 C596.0781,130.0313 596.0625,129.9063 595.9688,129.75 C595.8125,129.4844 595.5313,129.3438 595.2344,129.3438 C594.9375,129.3438 594.7344,129.4375 594.5156,129.75 L594.3438,129.6719 Z " fill="#000000"/><text fill="#000000" font-family="sans-serif" font-size="14" lengthAdjust="spacing" textLength="51" x="606" y="138.8467">Bucket</text><rect fill="#FFFFFF" height="15.9688" style="stroke:#181818;stroke-width:1.0;stroke-dasharray:2.0,2.0;" width="45" x="665" y="115"/><text fill="#000000" font-family="sans-serif" font-size="12" font-style="italic" lengthAdjust="spacing" textLength="43" x="666" y="127.1387">Bitmap</text><line style="stroke:#181818;stroke-width:0.5;" x1="578" x2="706" y1="150" y2="150"/><line style="stroke:#181818;stroke-width:0.5;" x1="578" x2="706" y1="158" y2="158"/></g><!--class Bitmap--><g id="elem_Bitmap"><rect fill="#F1F1F1" height="48" id="Bitmap" rx="2.5" ry="2.5" style="stroke:#181818;stroke-width:0.5;" width="85" x="599.5" y="226"/><ellipse cx="614.5" cy="242" fill="#ADD1B2" rx="11" ry="11" style="stroke:#181818;stroke-width:1.0;"/><path d="M616.8438,237.6719 C615.9063,237.2344 615.3125,237.0938 614.4375,237.0938 C611.8125,237.0938 609.8125,239.1719 609.8125,241.8906 L609.8125,243.0156 C609.8125,245.5938 611.9219,247.4844 614.8125,247.4844 C616.0313,247.4844 617.1875,247.1875 617.9375,246.6406 C618.5156,246.2344 618.8438,245.7813 618.8438,245.3906 C618.8438,244.9375 618.4531,244.5469 617.9844,244.5469 C617.7656,244.5469 617.5625,244.625 617.375,244.8125 C616.9219,245.2969 616.9219,245.2969 616.7344,245.3906 C616.3125,245.6563 615.625,245.7813 614.8594,245.7813 C612.8125,245.7813 611.5156,244.6875 611.5156,242.9844 L611.5156,241.8906 C611.5156,240.1094 612.7656,238.7969 614.5,238.7969 C615.0781,238.7969 615.6875,238.9531 616.1563,239.2031 C616.6406,239.4844 616.8125,239.7031 616.9063,240.1094 C616.9688,240.5156 617,240.6406 617.1406,240.7656 C617.2813,240.9063 617.5156,241.0156 617.7344,241.0156 C618,241.0156 618.2656,240.875 618.4375,240.6563 C618.5469,240.5 618.5781,240.3125 618.5781,239.8906 L618.5781,238.4688 C618.5781,238.0313 618.5625,237.9063 618.4688,237.75 C618.3125,237.4844 618.0313,237.3438 617.7344,237.3438 C617.4375,237.3438 617.2344,237.4375 617.0156,237.75 L616.8438,237.6719 Z " fill="#000000"/><text fill="#000000" font-family="sans-serif" font-size="14" lengthAdjust="spacing" textLength="53" x="628.5" y="246.8467">Bitmap</text><line style="stroke:#181818;stroke-width:0.5;" x1="600.5" x2="683.5" y1="258" y2="258"/><line style="stroke:#181818;stroke-width:0.5;" x1="600.5" x2="683.5" y1="266" y2="266"/></g><!--reverse link Pool to BitmapPool--><g id="link_Pool_BitmapPool"><path codeLine="3" d="M346.2388,71.5942 C330.9138,89.2522 321.636,99.941 306.241,117.678 " fill="none" id="Pool-backto-BitmapPool" style="stroke:#181818;stroke-width:1.0;"/><polygon fill="none" points="358.037,58,341.7074,67.6615,350.7703,75.527,358.037,58" style="stroke:#181818;stroke-width:1.0;"/></g><!--reverse link Pool to BasePool--><g id="link_Pool_BasePool"><path codeLine="5" d="M409.7612,71.5942 C425.0862,89.2522 434.364,99.941 449.759,117.678 " fill="none" id="Pool-backto-BasePool" style="stroke:#181818;stroke-width:1.0;"/><polygon fill="none" points="397.963,58,405.2297,75.527,414.2926,67.6615,397.963,58" style="stroke:#181818;stroke-width:1.0;"/></g><!--reverse link BasePool to BucketsBitmapPool--><g id="link_BasePool_BucketsBitmapPool"><path codeLine="6" d="M471.5464,183.9872 C472.2124,201.6452 472.451,207.941 473.12,225.678 " fill="none" id="BasePool-backto-BucketsBitmapPool" style="stroke:#181818;stroke-width:1.0;"/><polygon fill="none" points="470.868,166,465.5507,184.2133,477.5422,183.7611,470.868,166" style="stroke:#181818;stroke-width:1.0;"/></g><!--reverse link BitmapPool to BucketsBitmapPool--><g id="link_BitmapPool_BucketsBitmapPool"><path codeLine="7" d="M342.4724,174.8406 C373.8984,192.5596 401.475,208.108 432.962,225.862 " fill="none" id="BitmapPool-backto-BucketsBitmapPool" style="stroke:#181818;stroke-width:1.0;"/><polygon fill="none" points="326.793,166,339.5256,180.067,345.4193,169.6141,326.793,166" style="stroke:#181818;stroke-width:1.0;"/></g><!--reverse link BitmapPool to DummyBitmapPool--><g id="link_BitmapPool_DummyBitmapPool"><path codeLine="8" d="M278.3233,183.688 C274.9923,201.346 273.747,207.941 270.4,225.678 " fill="none" id="BitmapPool-backto-DummyBitmapPool" style="stroke:#181818;stroke-width:1.0;"/><polygon fill="none" points="281.66,166,272.4273,182.5758,284.2193,184.8003,281.66,166" style="stroke:#181818;stroke-width:1.0;"/></g><!--reverse link BitmapPool to LruBitmapPool--><g id="link_BitmapPool_LruBitmapPool"><path codeLine="9" d="M224.3641,174.1111 C189.2611,191.8301 157.012,208.108 121.84,225.862 " fill="none" id="BitmapPool-backto-LruBitmapPool" style="stroke:#181818;stroke-width:1.0;"/><polygon fill="none" points="240.433,166,221.6604,168.7548,227.0678,179.4674,240.433,166" style="stroke:#181818;stroke-width:1.0;"/></g><!--reverse link BucketsBitmapPool to PoolFactory--><g id="link_BucketsBitmapPool_PoolFactory"><path codeLine="13" d="M426.6464,276.9538 C395.1894,294.1948 357.112,315.0637 322.618,333.969 " fill="none" id="BucketsBitmapPool-backto-PoolFactory" style="stroke:#181818;stroke-width:1.0;"/><polygon fill="#181818" points="431.908,274.07,422.0932,274.8879,427.5234,276.4731,425.9382,281.9033,431.908,274.07" style="stroke:#181818;stroke-width:1.0;"/></g><!--reverse link DummyBitmapPool to PoolFactory--><g id="link_DummyBitmapPool_PoolFactory"><path codeLine="14" d="M266,280.07 C266,297.246 266,314.8845 266,333.7548 " fill="none" id="DummyBitmapPool-backto-PoolFactory" style="stroke:#181818;stroke-width:1.0;"/><polygon fill="#181818" points="266,274.07,262,283.07,266,279.07,270,283.07,266,274.07" style="stroke:#181818;stroke-width:1.0;"/></g><!--reverse link LruBitmapPool to PoolFactory--><g id="link_LruBitmapPool_PoolFactory"><path codeLine="15" d="M119.594,277.1569 C148.33,294.3979 182.773,315.0637 214.282,333.969 " fill="none" id="LruBitmapPool-backto-PoolFactory" style="stroke:#181818;stroke-width:1.0;"/><polygon fill="#181818" points="114.449,274.07,120.1086,282.1303,118.7365,276.6424,124.2244,275.2703,114.449,274.07" style="stroke:#181818;stroke-width:1.0;"/></g><!--reverse link BasePool to Bucket--><g id="link_BasePool_Bucket"><path codeLine="17" d="M554.227,142 C565.789,142 565.351,142 576.913,142 " fill="none" id="BasePool-backto-Bucket" style="stroke:#181818;stroke-width:1.0;"/><polygon fill="#181818" points="542.227,142,548.227,146,554.227,142,548.227,138,542.227,142" style="stroke:#181818;stroke-width:1.0;"/><text fill="#000000" font-family="sans-serif" font-size="13" lengthAdjust="spacing" textLength="8" x="550.0879" y="138.3003">1</text><text fill="#000000" font-family="sans-serif" font-size="13" lengthAdjust="spacing" textLength="8" x="560.9248" y="138.2074">n</text></g><!--reverse link Bucket to Bitmap--><g id="link_Bucket_Bitmap"><path codeLine="18" d="M642,178 C642,195.658 642,207.941 642,225.678 " fill="none" id="Bucket-backto-Bitmap" style="stroke:#181818;stroke-width:1.0;"/><polygon fill="#181818" points="642,166,638,172,642,178,646,172,642,166" style="stroke:#181818;stroke-width:1.0;"/><text fill="#000000" font-family="sans-serif" font-size="13" lengthAdjust="spacing" textLength="8" x="632.975" y="186.1558">1</text><text fill="#000000" font-family="sans-serif" font-size="13" lengthAdjust="spacing" textLength="8" x="633.025" y="215.0045">n</text></g><!--SRC=[ZL2x3i8m3Dpp5LPO02a3UzMXGamC_48QfIKYVQXnXWhuTr9IYg4L8fDzTpvVR6hKNI6LXbFJs2GpMCasPMQ28pAGiBAcF6DklMRFFha9GNWcSuUTL0ZAIkSWaqv_c9AXaMAlOeIzkcXqn99i_rEnzrNL_-2FdITiJ3gKXn2ywNguCWYFJ9KQtzrwm-wCoeLlHReGQwxv3ZPNB4MBpjC9OmkyvY2iBb1iWUyukUV81smRFZleukW3]--></g></svg>