<?xml version="1.0" encoding="us-ascii" standalone="no"?><svg xmlns="http://www.w3.org/2000/svg" xmlns:xlink="http://www.w3.org/1999/xlink" contentStyleType="text/css" height="1274px" preserveAspectRatio="none" style="width:437px;height:1274px;background:#FFFFFF;" version="1.1" viewBox="0 0 437 1274" width="437px" zoomAndPan="magnify"><defs/><g><ellipse cx="217.5" cy="20" fill="#222222" rx="10" ry="10" style="stroke:#222222;stroke-width:1.0;"/><polygon fill="#F1F1F1" points="156,100.0117,279,100.0117,291,112.8164,279,125.6211,156,125.6211,144,112.8164,156,100.0117" style="stroke:#181818;stroke-width:0.5;"/><text fill="#000000" font-family="sans-serif" font-size="11" lengthAdjust="spacing" textLength="117" x="156" y="110.2222">&#26032;&#30340;&#35831;&#27714;&#19982;connection</text><text fill="#000000" font-family="sans-serif" font-size="11" lengthAdjust="spacing" textLength="123" x="156" y="123.0269">&#26159;&#21542;&#26159;&#30456;&#21516;&#30340;host&#21644;port</text><text fill="#000000" font-family="sans-serif" font-size="11" lengthAdjust="spacing" textLength="22" x="122" y="110.2222">&#19981;&#21516;</text><text fill="#000000" font-family="sans-serif" font-size="11" lengthAdjust="spacing" textLength="22" x="291" y="110.2222">&#30456;&#21516;</text><rect fill="#F1F1F1" height="33.9688" rx="12.5" ry="12.5" style="stroke:#181818;stroke-width:0.5;" width="214" x="11" y="135.6211"/><text fill="#000000" font-family="sans-serif" font-size="12" lengthAdjust="spacing" textLength="194" x="21" y="156.7598">&#21024;&#38500;&#35813;connection&#19982;call&#20043;&#38388;&#30340;&#20851;&#32852;</text><rect fill="#F1F1F1" height="33.9688" rx="12.5" ry="12.5" style="stroke:#181818;stroke-width:0.5;" width="180" x="28" y="237.9922"/><text fill="#000000" font-family="sans-serif" font-size="12" lengthAdjust="spacing" textLength="160" x="38" y="259.1309">&#23558;connection&#26631;&#35760;&#34987;idle&#29366;&#24577;</text><rect fill="#F1F1F1" height="33.9688" rx="12.5" ry="12.5" style="stroke:#181818;stroke-width:0.5;" width="85" x="75.5" y="306.9609"/><text fill="#000000" font-family="sans-serif" font-size="12" lengthAdjust="spacing" textLength="65" x="85.5" y="328.0996">&#20851;&#38381;socket</text><polygon fill="#F1F1F1" points="36,189.5898,200,189.5898,212,201.5898,200,213.5898,36,213.5898,24,201.5898,36,189.5898" style="stroke:#181818;stroke-width:0.5;"/><text fill="#000000" font-family="sans-serif" font-size="11" lengthAdjust="spacing" textLength="22" x="122" y="223.8003">&#20026;&#31354;</text><text fill="#000000" font-family="sans-serif" font-size="11" lengthAdjust="spacing" textLength="164" x="36" y="205.3979">connection&#20851;&#32852;&#30340;calls&#21015;&#34920;&#20026;&#31354;</text><polygon fill="#F1F1F1" points="118,360.9297,130,372.9297,118,384.9297,106,372.9297,118,360.9297" style="stroke:#181818;stroke-width:0.5;"/><rect fill="#F1F1F1" height="33.9688" rx="12.5" ry="12.5" style="stroke:#181818;stroke-width:0.5;" width="134" x="250" y="135.6211"/><text fill="#000000" font-family="sans-serif" font-size="12" lengthAdjust="spacing" textLength="114" x="260" y="156.7598">&#22797;&#29992;&#24403;&#21069;connection</text><ellipse cx="317" cy="200.5898" fill="none" rx="11" ry="11" style="stroke:#222222;stroke-width:1.0;"/><ellipse cx="317" cy="200.5898" fill="#222222" rx="6" ry="6" style="stroke:#222222;stroke-width:1.0;"/><polygon fill="#F1F1F1" points="129.5,50,305.5,50,317.5,62.8047,305.5,75.6094,129.5,75.6094,117.5,62.8047,129.5,50" style="stroke:#181818;stroke-width:0.5;"/><text fill="#000000" font-family="sans-serif" font-size="11" lengthAdjust="spacing" textLength="33" x="221.5" y="85.8198">&#19981;&#20026;&#31354;</text><text fill="#000000" font-family="sans-serif" font-size="11" lengthAdjust="spacing" textLength="139" x="129.5" y="60.2104">&#24403;&#21069;connection&#26159;&#21542;&#20026;&#31354;&#65311;</text><text fill="#000000" font-family="sans-serif" font-size="11" lengthAdjust="spacing" textLength="176" x="129.5" y="73.0151">(RealCall&#25345;&#26377;&#30340;RealConnection)</text><polygon fill="#F1F1F1" points="217.5,404.9297,229.5,416.9297,217.5,428.9297,205.5,416.9297,217.5,404.9297" style="stroke:#181818;stroke-width:0.5;"/><rect fill="#F1F1F1" height="33.9688" rx="12.5" ry="12.5" style="stroke:#181818;stroke-width:0.5;" width="80" x="177.5" y="448.9297"/><text fill="#000000" font-family="sans-serif" font-size="12" lengthAdjust="spacing" textLength="60" x="187.5" y="470.0684">&#26597;&#25214;&#36830;&#25509;&#27744;</text><polygon fill="#F1F1F1" points="162.5,502.8984,272.5,502.8984,284.5,514.8984,272.5,526.8984,162.5,526.8984,150.5,514.8984,162.5,502.8984" style="stroke:#181818;stroke-width:0.5;"/><text fill="#000000" font-family="sans-serif" font-size="11" lengthAdjust="spacing" textLength="110" x="162.5" y="518.7065">&#36830;&#25509;&#27744;&#20013;&#23384;&#22312;&#21487;&#29992;&#36830;&#25509;</text><text fill="#000000" font-family="sans-serif" font-size="11" lengthAdjust="spacing" textLength="22" x="128.5" y="512.3042">&#23384;&#22312;</text><text fill="#000000" font-family="sans-serif" font-size="11" lengthAdjust="spacing" textLength="33" x="284.5" y="512.3042">&#19981;&#23384;&#22312;</text><rect fill="#F1F1F1" height="33.9688" rx="12.5" ry="12.5" style="stroke:#181818;stroke-width:0.5;" width="142" x="49.75" y="536.8984"/><text fill="#000000" font-family="sans-serif" font-size="12" lengthAdjust="spacing" textLength="122" x="59.75" y="558.0371">&#20851;&#32852;call&#19982;connection</text><rect fill="#F1F1F1" height="33.9688" rx="12.5" ry="12.5" style="stroke:#181818;stroke-width:0.5;" width="152" x="44.75" y="605.8672"/><text fill="#000000" font-family="sans-serif" font-size="12" lengthAdjust="spacing" textLength="132" x="54.75" y="627.0059">&#36820;&#22238;&#36830;&#25509;&#27744;&#20013;&#25214;&#30340;&#30340;&#36830;&#25509;</text><ellipse cx="120.75" cy="685.8359" fill="none" rx="11" ry="11" style="stroke:#222222;stroke-width:1.0;"/><ellipse cx="120.75" cy="685.8359" fill="#222222" rx="6" ry="6" style="stroke:#222222;stroke-width:1.0;"/><rect fill="#F1F1F1" height="33.9688" rx="12.5" ry="12.5" style="stroke:#181818;stroke-width:0.5;" width="175" x="226.75" y="586.9102"/><text fill="#000000" font-family="sans-serif" font-size="12" lengthAdjust="spacing" textLength="155" x="236.75" y="608.0488">&#21019;&#24314;&#36335;&#30001;&#35299;&#26512;&#22120;&#24182;&#35299;&#26512;ip&#22320;&#22336;</text><rect fill="#F1F1F1" height="33.9688" rx="12.5" ry="12.5" style="stroke:#181818;stroke-width:0.5;" width="161" x="233.75" y="655.8789"/><text fill="#000000" font-family="sans-serif" font-size="12" lengthAdjust="spacing" textLength="141" x="243.75" y="677.0176">&#22522;&#20110;IP&#22320;&#22336;&#20877;&#27425;&#26597;&#25214;&#36830;&#25509;&#27744;</text><rect fill="#F1F1F1" height="33.9688" rx="12.5" ry="12.5" style="stroke:#181818;stroke-width:0.5;" width="92" x="268.25" y="765.2383"/><text fill="#000000" font-family="sans-serif" font-size="12" lengthAdjust="spacing" textLength="72" x="278.25" y="786.377">&#36820;&#22238;&#21487;&#29992;&#36830;&#25509;</text><ellipse cx="314.25" cy="838.7227" fill="none" rx="11" ry="11" style="stroke:#222222;stroke-width:1.0;"/><ellipse cx="314.25" cy="838.7227" fill="#222222" rx="6" ry="6" style="stroke:#222222;stroke-width:1.0;"/><polygon fill="#F1F1F1" points="281.25,716.8359,347.25,716.8359,359.25,728.8359,347.25,740.8359,281.25,740.8359,269.25,728.8359,281.25,716.8359" style="stroke:#181818;stroke-width:0.5;"/><text fill="#000000" font-family="sans-serif" font-size="11" lengthAdjust="spacing" textLength="21" x="318.25" y="751.0464">yes</text><text fill="#000000" font-family="sans-serif" font-size="11" lengthAdjust="spacing" textLength="66" x="281.25" y="732.644">&#23384;&#22312;&#21487;&#29992;&#36830;&#25509;</text><polygon fill="#F1F1F1" points="242.75,536.8984,385.75,536.8984,397.75,549.7031,385.75,562.5078,242.75,562.5078,230.75,549.7031,242.75,536.8984" style="stroke:#181818;stroke-width:0.5;"/><text fill="#000000" font-family="sans-serif" font-size="11" lengthAdjust="spacing" textLength="33" x="318.25" y="572.7183">&#19981;&#20351;&#29992;</text><text fill="#000000" font-family="sans-serif" font-size="11" lengthAdjust="spacing" textLength="132" x="242.75" y="547.1089">&#20351;&#29992;&#21512;&#24182;&#36830;&#25509;&#30340;&#36335;&#30001;&#65292;&#25110;&#32773;</text><text fill="#000000" font-family="sans-serif" font-size="11" lengthAdjust="spacing" textLength="143" x="242.75" y="559.9136">&#20351;&#29992;&#24050;&#23384;&#22312;&#36335;&#30001;&#36873;&#25321;&#22120;&#30340;&#36335;&#30001;</text><polygon fill="#F1F1F1" points="314.25,891.7227,326.25,903.7227,314.25,915.7227,302.25,903.7227,314.25,891.7227" style="stroke:#181818;stroke-width:0.5;"/><rect fill="#F1F1F1" height="33.9688" rx="12.5" ry="12.5" style="stroke:#181818;stroke-width:0.5;" width="135" x="150" y="935.7227"/><text fill="#000000" font-family="sans-serif" font-size="12" lengthAdjust="spacing" textLength="115" x="160" y="956.8613">&#21019;&#24314;&#26032;&#30340;Connection</text><rect fill="#F1F1F1" height="33.9688" rx="12.5" ry="12.5" style="stroke:#181818;stroke-width:0.5;" width="80" x="177.5" y="989.6914"/><text fill="#000000" font-family="sans-serif" font-size="12" lengthAdjust="spacing" textLength="60" x="187.5" y="1010.8301">&#36830;&#25509;&#26381;&#21153;&#22120;</text><polygon fill="#F1F1F1" points="135.5,1043.6602,299.5,1043.6602,311.5,1056.4648,299.5,1069.2695,135.5,1069.2695,123.5,1056.4648,135.5,1043.6602" style="stroke:#181818;stroke-width:0.5;"/><text fill="#000000" font-family="sans-serif" font-size="11" lengthAdjust="spacing" textLength="99" x="135.5" y="1053.8706">&#26597;&#25214;&#36830;&#25509;&#27744;&#26159;&#21542;&#23384;&#22312;</text><text fill="#000000" font-family="sans-serif" font-size="11" lengthAdjust="spacing" textLength="164" x="135.5" y="1066.6753">&#22810;&#36335;&#22797;&#29992;&#30340;connection(HTTP/2)</text><text fill="#000000" font-family="sans-serif" font-size="11" lengthAdjust="spacing" textLength="22" x="101.5" y="1053.8706">&#23384;&#22312;</text><text fill="#000000" font-family="sans-serif" font-size="11" lengthAdjust="spacing" textLength="33" x="311.5" y="1053.8706">&#19981;&#23384;&#22312;</text><rect fill="#F1F1F1" height="33.9688" rx="12.5" ry="12.5" style="stroke:#181818;stroke-width:0.5;" width="187" x="20" y="1079.2695"/><text fill="#000000" font-family="sans-serif" font-size="12" lengthAdjust="spacing" textLength="167" x="30" y="1100.4082">&#20851;&#38381;&#26032;&#24314;connection&#30340;socket</text><rect fill="#F1F1F1" height="33.9688" rx="12.5" ry="12.5" style="stroke:#181818;stroke-width:0.5;" width="170" x="28.5" y="1133.2383"/><text fill="#000000" font-family="sans-serif" font-size="12" lengthAdjust="spacing" textLength="150" x="38.5" y="1154.377">&#36820;&#22238;&#22810;&#36335;&#22797;&#29992;&#30340;connection</text><ellipse cx="113.5" cy="1198.207" fill="none" rx="11" ry="11" style="stroke:#222222;stroke-width:1.0;"/><ellipse cx="113.5" cy="1198.207" fill="#222222" rx="6" ry="6" style="stroke:#222222;stroke-width:1.0;"/><rect fill="#F1F1F1" height="33.9688" rx="12.5" ry="12.5" style="stroke:#181818;stroke-width:0.5;" width="128" x="257.5" y="1079.2695"/><text fill="#000000" font-family="sans-serif" font-size="12" lengthAdjust="spacing" textLength="108" x="267.5" y="1100.4082">&#26032;&#36830;&#25509;&#25918;&#21040;&#36830;&#25509;&#27744;&#20013;</text><rect fill="#F1F1F1" height="33.9688" rx="12.5" ry="12.5" style="stroke:#181818;stroke-width:0.5;" width="142" x="250.5" y="1133.2383"/><text fill="#000000" font-family="sans-serif" font-size="12" lengthAdjust="spacing" textLength="122" x="260.5" y="1154.377">&#20851;&#32852;call&#19982;connection</text><rect fill="#F1F1F1" height="33.9688" rx="12.5" ry="12.5" style="stroke:#181818;stroke-width:0.5;" width="92" x="275.5" y="1187.207"/><text fill="#000000" font-family="sans-serif" font-size="12" lengthAdjust="spacing" textLength="72" x="285.5" y="1208.3457">&#36820;&#22238;&#26032;&#24314;&#36830;&#25509;</text><ellipse cx="321.5" cy="1252.1758" fill="none" rx="11" ry="11" style="stroke:#222222;stroke-width:1.0;"/><ellipse cx="321.5" cy="1252.1758" fill="#222222" rx="6" ry="6" style="stroke:#222222;stroke-width:1.0;"/><line style="stroke:#181818;stroke-width:1.0;" x1="118" x2="118" y1="271.9609" y2="306.9609"/><polygon fill="#181818" points="114,296.9609,118,306.9609,122,296.9609,118,300.9609" style="stroke:#181818;stroke-width:1.0;"/><line style="stroke:#181818;stroke-width:1.0;" x1="118" x2="118" y1="213.5898" y2="237.9922"/><polygon fill="#181818" points="114,227.9922,118,237.9922,122,227.9922,118,231.9922" style="stroke:#181818;stroke-width:1.0;"/><line style="stroke:#181818;stroke-width:1.0;" x1="212" x2="224" y1="201.5898" y2="201.5898"/><polygon fill="#181818" points="220,279.4609,224,289.4609,228,279.4609,224,283.4609" style="stroke:#181818;stroke-width:1.0;"/><line style="stroke:#181818;stroke-width:1.0;" x1="224" x2="224" y1="201.5898" y2="372.9297"/><line style="stroke:#181818;stroke-width:1.0;" x1="224" x2="130" y1="372.9297" y2="372.9297"/><polygon fill="#181818" points="140,368.9297,130,372.9297,140,376.9297,136,372.9297" style="stroke:#181818;stroke-width:1.0;"/><line style="stroke:#181818;stroke-width:1.0;" x1="118" x2="118" y1="340.9297" y2="360.9297"/><polygon fill="#181818" points="114,350.9297,118,360.9297,122,350.9297,118,354.9297" style="stroke:#181818;stroke-width:1.0;"/><line style="stroke:#181818;stroke-width:1.0;" x1="118" x2="118" y1="169.5898" y2="189.5898"/><polygon fill="#181818" points="114,179.5898,118,189.5898,122,179.5898,118,183.5898" style="stroke:#181818;stroke-width:1.0;"/><line style="stroke:#181818;stroke-width:1.0;" x1="317" x2="317" y1="169.5898" y2="189.5898"/><polygon fill="#181818" points="313,179.5898,317,189.5898,321,179.5898,317,183.5898" style="stroke:#181818;stroke-width:1.0;"/><line style="stroke:#181818;stroke-width:1.0;" x1="144" x2="118" y1="112.8164" y2="112.8164"/><line style="stroke:#181818;stroke-width:1.0;" x1="118" x2="118" y1="112.8164" y2="135.6211"/><polygon fill="#181818" points="114,125.6211,118,135.6211,122,125.6211,118,129.6211" style="stroke:#181818;stroke-width:1.0;"/><line style="stroke:#181818;stroke-width:1.0;" x1="291" x2="317" y1="112.8164" y2="112.8164"/><line style="stroke:#181818;stroke-width:1.0;" x1="317" x2="317" y1="112.8164" y2="135.6211"/><polygon fill="#181818" points="313,125.6211,317,135.6211,321,125.6211,317,129.6211" style="stroke:#181818;stroke-width:1.0;"/><line style="stroke:#181818;stroke-width:1.0;" x1="118" x2="118" y1="384.9297" y2="389.9297"/><line style="stroke:#181818;stroke-width:1.0;" x1="118" x2="217.5" y1="389.9297" y2="389.9297"/><line style="stroke:#181818;stroke-width:1.0;" x1="217.5" x2="217.5" y1="389.9297" y2="404.9297"/><polygon fill="#181818" points="213.5,394.9297,217.5,404.9297,221.5,394.9297,217.5,398.9297" style="stroke:#181818;stroke-width:1.0;"/><line style="stroke:#181818;stroke-width:1.0;" x1="217.5" x2="217.5" y1="75.6094" y2="100.0117"/><polygon fill="#181818" points="213.5,90.0117,217.5,100.0117,221.5,90.0117,217.5,94.0117" style="stroke:#181818;stroke-width:1.0;"/><line style="stroke:#181818;stroke-width:1.0;" x1="317.5" x2="404" y1="62.8047" y2="62.8047"/><polygon fill="#181818" points="400,229.7695,404,239.7695,408,229.7695,404,233.7695" style="stroke:#181818;stroke-width:1.0;"/><line style="stroke:#181818;stroke-width:1.0;" x1="404" x2="404" y1="62.8047" y2="416.9297"/><line style="stroke:#181818;stroke-width:1.0;" x1="404" x2="229.5" y1="416.9297" y2="416.9297"/><polygon fill="#181818" points="239.5,412.9297,229.5,416.9297,239.5,420.9297,235.5,416.9297" style="stroke:#181818;stroke-width:1.0;"/><line style="stroke:#181818;stroke-width:1.0;" x1="217.5" x2="217.5" y1="30" y2="50"/><polygon fill="#181818" points="213.5,40,217.5,50,221.5,40,217.5,44" style="stroke:#181818;stroke-width:1.0;"/><line style="stroke:#181818;stroke-width:1.0;" x1="217.5" x2="217.5" y1="428.9297" y2="448.9297"/><polygon fill="#181818" points="213.5,438.9297,217.5,448.9297,221.5,438.9297,217.5,442.9297" style="stroke:#181818;stroke-width:1.0;"/><line style="stroke:#181818;stroke-width:1.0;" x1="120.75" x2="120.75" y1="570.8672" y2="605.8672"/><polygon fill="#181818" points="116.75,595.8672,120.75,605.8672,124.75,595.8672,120.75,599.8672" style="stroke:#181818;stroke-width:1.0;"/><line style="stroke:#181818;stroke-width:1.0;" x1="120.75" x2="120.75" y1="639.8359" y2="674.8359"/><polygon fill="#181818" points="116.75,664.8359,120.75,674.8359,124.75,664.8359,120.75,668.8359" style="stroke:#181818;stroke-width:1.0;"/><line style="stroke:#181818;stroke-width:1.0;" x1="314.25" x2="314.25" y1="620.8789" y2="655.8789"/><polygon fill="#181818" points="310.25,645.8789,314.25,655.8789,318.25,645.8789,314.25,649.8789" style="stroke:#181818;stroke-width:1.0;"/><line style="stroke:#181818;stroke-width:1.0;" x1="314.25" x2="314.25" y1="799.207" y2="827.7227"/><polygon fill="#181818" points="310.25,817.7227,314.25,827.7227,318.25,817.7227,314.25,821.7227" style="stroke:#181818;stroke-width:1.0;"/><line style="stroke:#181818;stroke-width:1.0;" x1="314.25" x2="314.25" y1="740.8359" y2="765.2383"/><polygon fill="#181818" points="310.25,755.2383,314.25,765.2383,318.25,755.2383,314.25,759.2383" style="stroke:#181818;stroke-width:1.0;"/><line style="stroke:#181818;stroke-width:1.0;" x1="359.25" x2="371.25" y1="728.8359" y2="728.8359"/><polygon fill="#181818" points="367.25,797.7227,371.25,807.7227,375.25,797.7227,371.25,801.7227" style="stroke:#181818;stroke-width:1.0;"/><line style="stroke:#181818;stroke-width:1.0;" x1="371.25" x2="371.25" y1="728.8359" y2="871.7227"/><line style="stroke:#181818;stroke-width:1.0;" x1="371.25" x2="314.25" y1="871.7227" y2="871.7227"/><line style="stroke:#181818;stroke-width:1.0;" x1="314.25" x2="314.25" y1="871.7227" y2="891.7227"/><polygon fill="#181818" points="310.25,881.7227,314.25,891.7227,318.25,881.7227,314.25,885.7227" style="stroke:#181818;stroke-width:1.0;"/><line style="stroke:#181818;stroke-width:1.0;" x1="314.25" x2="314.25" y1="689.8477" y2="716.8359"/><polygon fill="#181818" points="310.25,706.8359,314.25,716.8359,318.25,706.8359,314.25,710.8359" style="stroke:#181818;stroke-width:1.0;"/><line style="stroke:#181818;stroke-width:1.0;" x1="314.25" x2="314.25" y1="562.5078" y2="586.9102"/><polygon fill="#181818" points="310.25,576.9102,314.25,586.9102,318.25,576.9102,314.25,580.9102" style="stroke:#181818;stroke-width:1.0;"/><line style="stroke:#181818;stroke-width:1.0;" x1="397.75" x2="411.75" y1="549.7031" y2="549.7031"/><polygon fill="#181818" points="407.75,722.3516,411.75,732.3516,415.75,722.3516,411.75,726.3516" style="stroke:#181818;stroke-width:1.0;"/><line style="stroke:#181818;stroke-width:1.0;" x1="411.75" x2="411.75" y1="549.7031" y2="903.7227"/><line style="stroke:#181818;stroke-width:1.0;" x1="411.75" x2="326.25" y1="903.7227" y2="903.7227"/><polygon fill="#181818" points="336.25,899.7227,326.25,903.7227,336.25,907.7227,332.25,903.7227" style="stroke:#181818;stroke-width:1.0;"/><line style="stroke:#181818;stroke-width:1.0;" x1="150.5" x2="120.75" y1="514.8984" y2="514.8984"/><line style="stroke:#181818;stroke-width:1.0;" x1="120.75" x2="120.75" y1="514.8984" y2="536.8984"/><polygon fill="#181818" points="116.75,526.8984,120.75,536.8984,124.75,526.8984,120.75,530.8984" style="stroke:#181818;stroke-width:1.0;"/><line style="stroke:#181818;stroke-width:1.0;" x1="284.5" x2="314.25" y1="514.8984" y2="514.8984"/><line style="stroke:#181818;stroke-width:1.0;" x1="314.25" x2="314.25" y1="514.8984" y2="536.8984"/><polygon fill="#181818" points="310.25,526.8984,314.25,536.8984,318.25,526.8984,314.25,530.8984" style="stroke:#181818;stroke-width:1.0;"/><line style="stroke:#181818;stroke-width:1.0;" x1="314.25" x2="314.25" y1="915.7227" y2="920.7227"/><line style="stroke:#181818;stroke-width:1.0;" x1="314.25" x2="217.5" y1="920.7227" y2="920.7227"/><line style="stroke:#181818;stroke-width:1.0;" x1="217.5" x2="217.5" y1="920.7227" y2="935.7227"/><polygon fill="#181818" points="213.5,925.7227,217.5,935.7227,221.5,925.7227,217.5,929.7227" style="stroke:#181818;stroke-width:1.0;"/><line style="stroke:#181818;stroke-width:1.0;" x1="217.5" x2="217.5" y1="482.8984" y2="502.8984"/><polygon fill="#181818" points="213.5,492.8984,217.5,502.8984,221.5,492.8984,217.5,496.8984" style="stroke:#181818;stroke-width:1.0;"/><line style="stroke:#181818;stroke-width:1.0;" x1="217.5" x2="217.5" y1="969.6914" y2="989.6914"/><polygon fill="#181818" points="213.5,979.6914,217.5,989.6914,221.5,979.6914,217.5,983.6914" style="stroke:#181818;stroke-width:1.0;"/><line style="stroke:#181818;stroke-width:1.0;" x1="113.5" x2="113.5" y1="1113.2383" y2="1133.2383"/><polygon fill="#181818" points="109.5,1123.2383,113.5,1133.2383,117.5,1123.2383,113.5,1127.2383" style="stroke:#181818;stroke-width:1.0;"/><line style="stroke:#181818;stroke-width:1.0;" x1="113.5" x2="113.5" y1="1167.207" y2="1187.207"/><polygon fill="#181818" points="109.5,1177.207,113.5,1187.207,117.5,1177.207,113.5,1181.207" style="stroke:#181818;stroke-width:1.0;"/><line style="stroke:#181818;stroke-width:1.0;" x1="321.5" x2="321.5" y1="1113.2383" y2="1133.2383"/><polygon fill="#181818" points="317.5,1123.2383,321.5,1133.2383,325.5,1123.2383,321.5,1127.2383" style="stroke:#181818;stroke-width:1.0;"/><line style="stroke:#181818;stroke-width:1.0;" x1="321.5" x2="321.5" y1="1167.207" y2="1187.207"/><polygon fill="#181818" points="317.5,1177.207,321.5,1187.207,325.5,1177.207,321.5,1181.207" style="stroke:#181818;stroke-width:1.0;"/><line style="stroke:#181818;stroke-width:1.0;" x1="321.5" x2="321.5" y1="1221.1758" y2="1241.1758"/><polygon fill="#181818" points="317.5,1231.1758,321.5,1241.1758,325.5,1231.1758,321.5,1235.1758" style="stroke:#181818;stroke-width:1.0;"/><line style="stroke:#181818;stroke-width:1.0;" x1="123.5" x2="113.5" y1="1056.4648" y2="1056.4648"/><line style="stroke:#181818;stroke-width:1.0;" x1="113.5" x2="113.5" y1="1056.4648" y2="1079.2695"/><polygon fill="#181818" points="109.5,1069.2695,113.5,1079.2695,117.5,1069.2695,113.5,1073.2695" style="stroke:#181818;stroke-width:1.0;"/><line style="stroke:#181818;stroke-width:1.0;" x1="311.5" x2="321.5" y1="1056.4648" y2="1056.4648"/><line style="stroke:#181818;stroke-width:1.0;" x1="321.5" x2="321.5" y1="1056.4648" y2="1079.2695"/><polygon fill="#181818" points="317.5,1069.2695,321.5,1079.2695,325.5,1069.2695,321.5,1073.2695" style="stroke:#181818;stroke-width:1.0;"/><line style="stroke:#181818;stroke-width:1.0;" x1="217.5" x2="217.5" y1="1023.6602" y2="1043.6602"/><polygon fill="#181818" points="213.5,1033.6602,217.5,1043.6602,221.5,1033.6602,217.5,1037.6602" style="stroke:#181818;stroke-width:1.0;"/><!--SRC=[ZLCzRzfG5Dtv5HvXgjJHZ5dQBQeoiY3YAAYMZM8ltQ0AgKamHIqAIQ1yjD0IfHHega3S9FmPtuUPyXTwd-_pXwXIbS4oxvrpxhdtN1jczi1CvFUa9Dn_X8gTqpLDoPbvNMDd4wX_THVEwj9vlEjcjEGh9QjkPLMLLKkiNLbT7Fe78I6LainzHKkw2vjOgOGaSMLsEaMmDvcpsLjtKOjAP4GHVAvQ2wXN4RQl6oPyg1Rq0pFImoik9aaoMBtr-S2R32CLBecktDkJTVCNAa3vsYirqZwUbu-GT8CGZZV0QdhzaR0Qb0fyqq-6wL5i8hrtte-fz_aglwigg-CRLYobOz3ozRevDlJSQyMaOqNRpU_Xcw8QYfIa3eCs1lQgCTeSET4CKoya0ZOzPTOTiig3j-omsf3DUca_iV2lknZ3-0pQ8tW_GLaw5otH1IyhK_l-hE8fyAgojsn0gnDNn7euAHwSVyXHlZFgXeSIAdCpxlsITrItuFQ669mwHp-pnxigiqwzOZcZ2TJy9v7fVbsii9DBE1-5ZDWc-OGm_1RyTWZYVVl2EdKayNh-Uxu0xIbyAgO5kEkuJktbDXt2aSs-z_yQOx0ZJuxlZM84wo1c50S5yOl8Of77mai8t_GPRCNcBWidRHkE-zWAnRfXaZuHCfZHO721_TFwy4KErP8lTdQsdpqN7w6qaJjk9fP74n41sT6o1hqzfVwlz6LK5cuR3s1DuqkK_h-z8s-RYyQdzmS0]--></g></svg>