<?xml version="1.0" encoding="us-ascii" standalone="no"?><svg xmlns="http://www.w3.org/2000/svg" xmlns:xlink="http://www.w3.org/1999/xlink" contentStyleType="text/css" height="1064px" preserveAspectRatio="none" style="width:420px;height:1064px;background:#FFFFFF;" version="1.1" viewBox="0 0 420 1064" width="420px" zoomAndPan="magnify"><defs/><g><ellipse cx="217.5" cy="20" fill="#222222" rx="10" ry="10" style="stroke:#222222;stroke-width:1.0;"/><rect fill="none" height="491.2339" style="stroke:#000000;stroke-width:1.5;" width="398" x="11" y="40"/><path d="M106,40 L106,49.2969 L96,59.2969 L11,59.2969 " fill="none" style="stroke:#000000;stroke-width:1.5;"/><text fill="#000000" font-family="sans-serif" font-size="14" lengthAdjust="spacing" textLength="85" x="14" y="53.9951">tryAcquire()</text><polygon fill="#F1F1F1" points="42.5,79.2969,161.5,79.2969,173.5,91.2969,161.5,103.2969,42.5,103.2969,30.5,91.2969,42.5,79.2969" style="stroke:#181818;stroke-width:0.5;"/><text fill="#000000" font-family="sans-serif" font-size="11" lengthAdjust="spacing" textLength="21" x="106" y="113.5073">yes</text><text fill="#000000" font-family="sans-serif" font-size="11" lengthAdjust="spacing" textLength="119" x="42.5" y="95.105">&#38145;&#26410;&#34987;&#38145;&#23450; state==0?</text><rect fill="#F1F1F1" height="33.9688" rx="12.5" ry="12.5" style="stroke:#181818;stroke-width:0.5;" width="158" x="23" y="183.4097"/><text fill="#000000" font-family="sans-serif" font-size="12" lengthAdjust="spacing" textLength="138" x="33" y="204.5483">CAS&#35774;&#32622;state&#20026;&#38145;&#23450;&#29366;&#24577;</text><rect fill="#F1F1F1" height="33.9688" rx="12.5" ry="12.5" style="stroke:#181818;stroke-width:0.5;" width="152" x="26" y="300.7808"/><text fill="#000000" font-family="sans-serif" font-size="12" lengthAdjust="spacing" textLength="132" x="36" y="321.9194">&#24403;&#21069;&#32447;&#31243;&#35774;&#32622;&#20026;&#29420;&#21344;&#32447;&#31243;</text><rect fill="#F1F1F1" height="33.9688" rx="12.5" ry="12.5" style="stroke:#181818;stroke-width:0.5;" width="68" x="68" y="357.2651"/><text fill="#000000" font-family="sans-serif" font-size="12" lengthAdjust="spacing" textLength="48" x="78" y="378.4038">&#21152;&#38145;&#25104;&#21151;</text><ellipse cx="102" cy="422.2339" fill="none" rx="11" ry="11" style="stroke:#222222;stroke-width:1.0;"/><ellipse cx="102" cy="422.2339" fill="#222222" rx="6" ry="6" style="stroke:#222222;stroke-width:1.0;"/><polygon fill="#F1F1F1" points="65,252.3784,139,252.3784,151,264.3784,139,276.3784,65,276.3784,53,264.3784,65,252.3784" style="stroke:#181818;stroke-width:0.5;"/><text fill="#000000" font-family="sans-serif" font-size="11" lengthAdjust="spacing" textLength="21" x="106" y="286.5889">yes</text><text fill="#000000" font-family="sans-serif" font-size="11" lengthAdjust="spacing" textLength="74" x="65" y="268.1865">CAS&#35774;&#32622;&#25104;&#21151;?</text><text fill="#000000" font-family="sans-serif" font-size="11" lengthAdjust="spacing" textLength="14" x="151" y="261.7842">no</text><polygon fill="#F1F1F1" points="52.5,135.0073,151.5,135.0073,163.5,147.0073,151.5,159.0073,52.5,159.0073,40.5,147.0073,52.5,135.0073" style="stroke:#181818;stroke-width:0.5;"/><text fill="#000000" font-family="sans-serif" font-size="11" lengthAdjust="spacing" textLength="14" x="106" y="169.2178">no</text><text fill="#000000" font-family="sans-serif" font-size="11" lengthAdjust="spacing" textLength="99" x="52.5" y="150.8154">&#26377;&#20854;&#20182;&#32447;&#31243;&#27491;&#22312;&#25490;&#38431;</text><text fill="#000000" font-family="sans-serif" font-size="11" lengthAdjust="spacing" textLength="21" x="163.5" y="144.4131">yes</text><polygon fill="#F1F1F1" points="102,475.2339,114,487.2339,102,499.2339,90,487.2339,102,475.2339" style="stroke:#181818;stroke-width:0.5;"/><polygon fill="#F1F1F1" points="268,79.2969,367,79.2969,379,91.2969,367,103.2969,268,103.2969,256,91.2969,268,79.2969" style="stroke:#181818;stroke-width:0.5;"/><text fill="#000000" font-family="sans-serif" font-size="11" lengthAdjust="spacing" textLength="21" x="321.5" y="113.5073">yes</text><text fill="#000000" font-family="sans-serif" font-size="11" lengthAdjust="spacing" textLength="99" x="268" y="95.105">&#24403;&#21069;&#32447;&#31243;&#24050;&#32463;&#25345;&#26377;&#38145;</text><text fill="#000000" font-family="sans-serif" font-size="11" lengthAdjust="spacing" textLength="14" x="242" y="88.7026">no</text><rect fill="#F1F1F1" height="33.9688" rx="12.5" ry="12.5" style="stroke:#181818;stroke-width:0.5;" width="69" x="283" y="135.0073"/><text fill="#000000" font-family="sans-serif" font-size="12" lengthAdjust="spacing" textLength="49" x="293" y="156.146">state&#21152;1</text><rect fill="#F1F1F1" height="33.9688" rx="12.5" ry="12.5" style="stroke:#181818;stroke-width:0.5;" width="68" x="283.5" y="203.9761"/><text fill="#000000" font-family="sans-serif" font-size="12" lengthAdjust="spacing" textLength="48" x="293.5" y="225.1147">&#21152;&#38145;&#25104;&#21151;</text><ellipse cx="317.5" cy="283.9448" fill="none" rx="11" ry="11" style="stroke:#222222;stroke-width:1.0;"/><ellipse cx="317.5" cy="283.9448" fill="#222222" rx="6" ry="6" style="stroke:#222222;stroke-width:1.0;"/><rect fill="#F1F1F1" height="33.9688" rx="12.5" ry="12.5" style="stroke:#181818;stroke-width:0.5;" width="128" x="153.5" y="551.2339"/><text fill="#000000" font-family="sans-serif" font-size="12" lengthAdjust="spacing" textLength="108" x="163.5" y="572.3726">&#28155;&#21152;&#21040;&#31561;&#24453;&#38431;&#21015;&#38431;&#23614;</text><rect fill="#F1F1F1" height="33.9688" rx="12.5" ry="12.5" style="stroke:#181818;stroke-width:0.5;" width="140" x="147.5" y="697.605"/><text fill="#000000" font-family="sans-serif" font-size="12" lengthAdjust="spacing" textLength="120" x="157.5" y="718.7437">&#20877;&#27425;&#35843;&#29992;tryAcquire()</text><rect fill="#F1F1F1" height="33.9688" rx="12.5" ry="12.5" style="stroke:#181818;stroke-width:0.5;" width="134" x="150.5" y="799.9761"/><text fill="#000000" font-family="sans-serif" font-size="12" lengthAdjust="spacing" textLength="114" x="160.5" y="821.1147">&#24403;&#21069;&#33410;&#28857;&#35774;&#32622;&#20026;head</text><ellipse cx="217.5" cy="877.4604" fill="none" rx="11" ry="11" style="stroke:#222222;stroke-width:1.0;"/><ellipse cx="217.5" cy="877.4604" fill="#222222" rx="6" ry="6" style="stroke:#222222;stroke-width:1.0;"/><polygon fill="#F1F1F1" points="161,751.5737,274,751.5737,286,763.5737,274,775.5737,161,775.5737,149,763.5737,161,751.5737" style="stroke:#181818;stroke-width:0.5;"/><text fill="#000000" font-family="sans-serif" font-size="11" lengthAdjust="spacing" textLength="21" x="221.5" y="785.7842">yes</text><text fill="#000000" font-family="sans-serif" font-size="11" lengthAdjust="spacing" textLength="113" x="161" y="767.3818">tryAcquire&#21152;&#38145;&#25104;&#21151;&#65311;</text><text fill="#000000" font-family="sans-serif" font-size="11" lengthAdjust="spacing" textLength="14" x="286" y="760.9795">no</text><polygon fill="#F1F1F1" points="161,649.2026,274,649.2026,286,661.2026,274,673.2026,161,673.2026,149,661.2026,161,649.2026" style="stroke:#181818;stroke-width:0.5;"/><text fill="#000000" font-family="sans-serif" font-size="11" lengthAdjust="spacing" textLength="21" x="221.5" y="683.4131">yes</text><text fill="#000000" font-family="sans-serif" font-size="11" lengthAdjust="spacing" textLength="113" x="161" y="665.0107">node.prev == head</text><text fill="#000000" font-family="sans-serif" font-size="11" lengthAdjust="spacing" textLength="14" x="286" y="658.6084">no</text><polygon fill="#F1F1F1" points="217.5,930.4604,229.5,942.4604,217.5,954.4604,205.5,942.4604,217.5,930.4604" style="stroke:#181818;stroke-width:0.5;"/><rect fill="#F1F1F1" height="33.9688" rx="12.5" ry="12.5" style="stroke:#181818;stroke-width:0.5;" width="116" x="159.5" y="974.4604"/><text fill="#000000" font-family="sans-serif" font-size="12" lengthAdjust="spacing" textLength="96" x="169.5" y="995.5991">&#32447;&#31243;&#36827;&#20837;&#38459;&#22622;&#29366;&#24577;</text><polygon fill="#F1F1F1" points="217.5,605.2026,229.5,617.2026,217.5,629.2026,205.5,617.2026,217.5,605.2026" style="stroke:#181818;stroke-width:0.5;"/><polygon fill="#F1F1F1" points="201,1028.4292,234,1028.4292,246,1040.4292,234,1052.4292,201,1052.4292,189,1040.4292,201,1028.4292" style="stroke:#181818;stroke-width:0.5;"/><text fill="#000000" font-family="sans-serif" font-size="11" lengthAdjust="spacing" textLength="33" x="201" y="1044.2373">&#27515;&#24490;&#29615;</text><line style="stroke:#181818;stroke-width:1.0;" x1="102" x2="102" y1="334.7495" y2="357.2651"/><polygon fill="#181818" points="98,347.2651,102,357.2651,106,347.2651,102,351.2651" style="stroke:#181818;stroke-width:1.0;"/><line style="stroke:#181818;stroke-width:1.0;" x1="102" x2="102" y1="391.2339" y2="411.2339"/><polygon fill="#181818" points="98,401.2339,102,411.2339,106,401.2339,102,405.2339" style="stroke:#181818;stroke-width:1.0;"/><line style="stroke:#181818;stroke-width:1.0;" x1="102" x2="102" y1="276.3784" y2="300.7808"/><polygon fill="#181818" points="98,290.7808,102,300.7808,106,290.7808,102,294.7808" style="stroke:#181818;stroke-width:1.0;"/><line style="stroke:#181818;stroke-width:1.0;" x1="151" x2="188" y1="264.3784" y2="264.3784"/><polygon fill="#181818" points="184,355.2651,188,365.2651,192,355.2651,188,359.2651" style="stroke:#181818;stroke-width:1.0;"/><line style="stroke:#181818;stroke-width:1.0;" x1="188" x2="188" y1="264.3784" y2="455.2339"/><line style="stroke:#181818;stroke-width:1.0;" x1="188" x2="102" y1="455.2339" y2="455.2339"/><line style="stroke:#181818;stroke-width:1.0;" x1="102" x2="102" y1="455.2339" y2="475.2339"/><polygon fill="#181818" points="98,465.2339,102,475.2339,106,465.2339,102,469.2339" style="stroke:#181818;stroke-width:1.0;"/><line style="stroke:#181818;stroke-width:1.0;" x1="102" x2="102" y1="217.3784" y2="252.3784"/><polygon fill="#181818" points="98,242.3784,102,252.3784,106,242.3784,102,246.3784" style="stroke:#181818;stroke-width:1.0;"/><line style="stroke:#181818;stroke-width:1.0;" x1="102" x2="102" y1="159.0073" y2="183.4097"/><polygon fill="#181818" points="98,173.4097,102,183.4097,106,173.4097,102,177.4097" style="stroke:#181818;stroke-width:1.0;"/><line style="stroke:#181818;stroke-width:1.0;" x1="163.5" x2="210" y1="147.0073" y2="147.0073"/><polygon fill="#181818" points="206,327.2651,210,337.2651,214,327.2651,210,331.2651" style="stroke:#181818;stroke-width:1.0;"/><line style="stroke:#181818;stroke-width:1.0;" x1="210" x2="210" y1="147.0073" y2="487.2339"/><line style="stroke:#181818;stroke-width:1.0;" x1="210" x2="114" y1="487.2339" y2="487.2339"/><polygon fill="#181818" points="124,483.2339,114,487.2339,124,491.2339,120,487.2339" style="stroke:#181818;stroke-width:1.0;"/><line style="stroke:#181818;stroke-width:1.0;" x1="317.5" x2="317.5" y1="168.9761" y2="203.9761"/><polygon fill="#181818" points="313.5,193.9761,317.5,203.9761,321.5,193.9761,317.5,197.9761" style="stroke:#181818;stroke-width:1.0;"/><line style="stroke:#181818;stroke-width:1.0;" x1="317.5" x2="317.5" y1="237.9448" y2="272.9448"/><polygon fill="#181818" points="313.5,262.9448,317.5,272.9448,321.5,262.9448,317.5,266.9448" style="stroke:#181818;stroke-width:1.0;"/><line style="stroke:#181818;stroke-width:1.0;" x1="102" x2="102" y1="103.2969" y2="135.0073"/><polygon fill="#181818" points="98,125.0073,102,135.0073,106,125.0073,102,129.0073" style="stroke:#181818;stroke-width:1.0;"/><line style="stroke:#181818;stroke-width:1.0;" x1="102" x2="102" y1="499.2339" y2="519.2339"/><polygon fill="#181818" points="98,509.2339,102,519.2339,106,509.2339,102,513.2339" style="stroke:#181818;stroke-width:1.0;"/><line style="stroke:#181818;stroke-width:1.0;" x1="317.5" x2="317.5" y1="103.2969" y2="135.0073"/><polygon fill="#181818" points="313.5,125.0073,317.5,135.0073,321.5,125.0073,317.5,129.0073" style="stroke:#181818;stroke-width:1.0;"/><line style="stroke:#181818;stroke-width:1.0;" x1="173.5" x2="256" y1="91.2969" y2="91.2969"/><polygon fill="#181818" points="246,87.2969,256,91.2969,246,95.2969,250,91.2969" style="stroke:#181818;stroke-width:1.0;"/><line style="stroke:#181818;stroke-width:1.0;" x1="217.5" x2="217.5" y1="30" y2="64.2969"/><line style="stroke:#181818;stroke-width:1.0;" x1="217.5" x2="102" y1="64.2969" y2="64.2969"/><line style="stroke:#181818;stroke-width:1.0;" x1="102" x2="102" y1="64.2969" y2="79.2969"/><polygon fill="#181818" points="98,69.2969,102,79.2969,106,69.2969,102,73.2969" style="stroke:#181818;stroke-width:1.0;"/><line style="stroke:#181818;stroke-width:1.0;" x1="379" x2="393" y1="91.2969" y2="91.2969"/><line style="stroke:#181818;stroke-width:1.0;" x1="393" x2="393" y1="91.2969" y2="519.2339"/><polygon fill="#181818" points="389,509.2339,393,519.2339,397,509.2339,393,513.2339" style="stroke:#181818;stroke-width:1.0;"/><line style="stroke:#181818;stroke-width:1.0;" x1="102" x2="393" y1="519.2339" y2="519.2339"/><line style="stroke:#181818;stroke-width:1.0;" x1="217.5" x2="217.5" y1="519.2339" y2="551.2339"/><polygon fill="#181818" points="213.5,541.2339,217.5,551.2339,221.5,541.2339,217.5,545.2339" style="stroke:#181818;stroke-width:1.0;"/><line style="stroke:#181818;stroke-width:1.0;" x1="217.5" x2="217.5" y1="833.9448" y2="866.4604"/><polygon fill="#181818" points="213.5,856.4604,217.5,866.4604,221.5,856.4604,217.5,860.4604" style="stroke:#181818;stroke-width:1.0;"/><line style="stroke:#181818;stroke-width:1.0;" x1="217.5" x2="217.5" y1="775.5737" y2="799.9761"/><polygon fill="#181818" points="213.5,789.9761,217.5,799.9761,221.5,789.9761,217.5,793.9761" style="stroke:#181818;stroke-width:1.0;"/><line style="stroke:#181818;stroke-width:1.0;" x1="286" x2="298" y1="763.5737" y2="763.5737"/><polygon fill="#181818" points="294,832.4604,298,842.4604,302,832.4604,298,836.4604" style="stroke:#181818;stroke-width:1.0;"/><line style="stroke:#181818;stroke-width:1.0;" x1="298" x2="298" y1="763.5737" y2="910.4604"/><line style="stroke:#181818;stroke-width:1.0;" x1="298" x2="217.5" y1="910.4604" y2="910.4604"/><line style="stroke:#181818;stroke-width:1.0;" x1="217.5" x2="217.5" y1="910.4604" y2="930.4604"/><polygon fill="#181818" points="213.5,920.4604,217.5,930.4604,221.5,920.4604,217.5,924.4604" style="stroke:#181818;stroke-width:1.0;"/><line style="stroke:#181818;stroke-width:1.0;" x1="217.5" x2="217.5" y1="731.5737" y2="751.5737"/><polygon fill="#181818" points="213.5,741.5737,217.5,751.5737,221.5,741.5737,217.5,745.5737" style="stroke:#181818;stroke-width:1.0;"/><line style="stroke:#181818;stroke-width:1.0;" x1="217.5" x2="217.5" y1="673.2026" y2="697.605"/><polygon fill="#181818" points="213.5,687.605,217.5,697.605,221.5,687.605,217.5,691.605" style="stroke:#181818;stroke-width:1.0;"/><line style="stroke:#181818;stroke-width:1.0;" x1="286" x2="316.5" y1="661.2026" y2="661.2026"/><polygon fill="#181818" points="312.5,791.9761,316.5,801.9761,320.5,791.9761,316.5,795.9761" style="stroke:#181818;stroke-width:1.0;"/><line style="stroke:#181818;stroke-width:1.0;" x1="316.5" x2="316.5" y1="661.2026" y2="942.4604"/><line style="stroke:#181818;stroke-width:1.0;" x1="316.5" x2="229.5" y1="942.4604" y2="942.4604"/><polygon fill="#181818" points="239.5,938.4604,229.5,942.4604,239.5,946.4604,235.5,942.4604" style="stroke:#181818;stroke-width:1.0;"/><line style="stroke:#181818;stroke-width:1.0;" x1="217.5" x2="217.5" y1="954.4604" y2="974.4604"/><polygon fill="#181818" points="213.5,964.4604,217.5,974.4604,221.5,964.4604,217.5,968.4604" style="stroke:#181818;stroke-width:1.0;"/><line style="stroke:#181818;stroke-width:1.0;" x1="217.5" x2="217.5" y1="629.2026" y2="649.2026"/><polygon fill="#181818" points="213.5,639.2026,217.5,649.2026,221.5,639.2026,217.5,643.2026" style="stroke:#181818;stroke-width:1.0;"/><line style="stroke:#181818;stroke-width:1.0;" x1="246" x2="340.5" y1="1040.4292" y2="1040.4292"/><polygon fill="#181818" points="336.5,846.4604,340.5,836.4604,344.5,846.4604,340.5,842.4604" style="stroke:#181818;stroke-width:1.0;"/><line style="stroke:#181818;stroke-width:1.0;" x1="340.5" x2="340.5" y1="617.2026" y2="1040.4292"/><line style="stroke:#181818;stroke-width:1.0;" x1="340.5" x2="229.5" y1="617.2026" y2="617.2026"/><polygon fill="#181818" points="239.5,613.2026,229.5,617.2026,239.5,621.2026,235.5,617.2026" style="stroke:#181818;stroke-width:1.0;"/><line style="stroke:#181818;stroke-width:1.0;" x1="217.5" x2="217.5" y1="1008.4292" y2="1028.4292"/><polygon fill="#181818" points="213.5,1018.4292,217.5,1028.4292,221.5,1018.4292,217.5,1022.4292" style="stroke:#181818;stroke-width:1.0;"/><line style="stroke:#181818;stroke-width:1.0;" x1="217.5" x2="217.5" y1="585.2026" y2="605.2026"/><polygon fill="#181818" points="213.5,595.2026,217.5,605.2026,221.5,595.2026,217.5,599.2026" style="stroke:#181818;stroke-width:1.0;"/><!--SRC=[bLB1Ji905BptA_RONenUInf3_0I_e955cf22xQhX9XWCBO96YH8b0XeJWe340oYLyZFiBfpy1RlRKX3ZmSlcPJAPcJTlJQGQIDWtKeTfW8nCTE_WK3EWA0bQ78ZpIfRKshF75s_0lJjW8XL1HTdSbW1AG5tCG5CI061KKhDmVZ1rRkXeGbj5qdt2jHOfNyshzO2ifnWN07adkZlhkNJSutBJzv6lJkq1ESb6E8SfXZHIkCHsVSsJA-7nDRPAlgFFzTHeiODB3H-CX4oxmPRXIWlGHAaq7s7IX23C1_MO5XSMQ63dWup3SPPlrHmFtwXpGSwzkYpFvsTKcU_f9TXYph-Yy1Y-llS2VWf19aF78-92dtOjxEQz6d7XbhrzDo8OC0rL53Ilfs9m8st08w0e807Ls7fHCZuhaKvprZ-bbTRgZPTTBz7LT5-VzJzBdzavcli8IsU-_-hLHnUO7DnmSe_pp_EgWviFY-_WxmgE4reIYgJhOBTDow_IDm00]--></g></svg>