<?xml version="1.0" encoding="us-ascii" standalone="no"?><svg xmlns="http://www.w3.org/2000/svg" xmlns:xlink="http://www.w3.org/1999/xlink" contentStyleType="text/css" height="635px" preserveAspectRatio="none" style="width:893px;height:635px;background:#FFFFFF;" version="1.1" viewBox="0 0 893 635" width="893px" zoomAndPan="magnify"><defs/><g><!--cluster Application--><g id="cluster_Application"><path d="M8.5,296 L102.5,296 A3.75,3.75 0 0 1 105,298.5 L112,318.2969 L251.5,318.2969 A2.5,2.5 0 0 1 254,320.7969 L254,392.5 A2.5,2.5 0 0 1 251.5,395 L8.5,395 A2.5,2.5 0 0 1 6,392.5 L6,298.5 A2.5,2.5 0 0 1 8.5,296 " fill="none" style="stroke:#000000;stroke-width:1.5;"/><line style="stroke:#000000;stroke-width:1.5;" x1="6" x2="112" y1="318.2969" y2="318.2969"/><text fill="#000000" font-family="sans-serif" font-size="14" font-weight="bold" lengthAdjust="spacing" textLength="93" x="10" y="310.9951">Application</text></g><!--class ActivityLifecycleCallbacks--><g id="elem_ActivityLifecycleCallbacks"><rect codeLine="21" fill="#F1F1F1" height="48" id="ActivityLifecycleCallbacks" rx="2.5" ry="2.5" style="stroke:#181818;stroke-width:0.5;" width="215" x="22.5" y="331"/><ellipse cx="37.5" cy="347" fill="#B4A7E5" rx="11" ry="11" style="stroke:#181818;stroke-width:1.0;"/><path d="M38.4531,343.7813 L40.1719,343.7813 C40.5625,343.7813 40.75,343.75 40.875,343.6719 C41.1406,343.5156 41.2813,343.2344 41.2813,342.9375 C41.2813,342.6719 41.1719,342.4063 40.9375,342.2344 C40.7656,342.125 40.625,342.0938 40.1719,342.0938 L35.0313,342.0938 C34.5938,342.0938 34.4688,342.1094 34.3125,342.2031 C34.0625,342.3594 33.9063,342.6563 33.9063,342.9375 C33.9063,343.2188 34.0469,343.4688 34.2656,343.6406 C34.4219,343.75 34.6094,343.7813 35.0313,343.7813 L36.75,343.7813 L36.75,350.2969 L35.0313,350.2969 C34.5938,350.2969 34.4688,350.3125 34.3125,350.4219 C34.0625,350.5781 33.9063,350.8594 33.9063,351.1563 C33.9063,351.4063 34.0469,351.6719 34.2656,351.8281 C34.4219,351.9531 34.625,352 35.0313,352 L40.1719,352 C40.9219,352 41.2813,351.7188 41.2813,351.1563 C41.2813,350.875 41.1719,350.625 40.9375,350.4531 C40.7656,350.3281 40.625,350.2969 40.1719,350.2969 L38.4531,350.2969 L38.4531,343.7813 Z " fill="#000000"/><text fill="#000000" font-family="sans-serif" font-size="14" font-style="italic" lengthAdjust="spacing" textLength="183" x="51.5" y="351.8467">ActivityLifecycleCallbacks</text><line style="stroke:#181818;stroke-width:0.5;" x1="23.5" x2="236.5" y1="363" y2="363"/><line style="stroke:#181818;stroke-width:0.5;" x1="23.5" x2="236.5" y1="371" y2="371"/></g><!--class ReachabilityWatcher--><g id="elem_ReachabilityWatcher"><rect codeLine="1" fill="#F1F1F1" height="48" id="ReachabilityWatcher" rx="2.5" ry="2.5" style="stroke:#181818;stroke-width:0.5;" width="180" x="369" y="331"/><ellipse cx="384" cy="347" fill="#B4A7E5" rx="11" ry="11" style="stroke:#181818;stroke-width:1.0;"/><path d="M384.9531,343.7813 L386.6719,343.7813 C387.0625,343.7813 387.25,343.75 387.375,343.6719 C387.6406,343.5156 387.7813,343.2344 387.7813,342.9375 C387.7813,342.6719 387.6719,342.4063 387.4375,342.2344 C387.2656,342.125 387.125,342.0938 386.6719,342.0938 L381.5313,342.0938 C381.0938,342.0938 380.9688,342.1094 380.8125,342.2031 C380.5625,342.3594 380.4063,342.6563 380.4063,342.9375 C380.4063,343.2188 380.5469,343.4688 380.7656,343.6406 C380.9219,343.75 381.1094,343.7813 381.5313,343.7813 L383.25,343.7813 L383.25,350.2969 L381.5313,350.2969 C381.0938,350.2969 380.9688,350.3125 380.8125,350.4219 C380.5625,350.5781 380.4063,350.8594 380.4063,351.1563 C380.4063,351.4063 380.5469,351.6719 380.7656,351.8281 C380.9219,351.9531 381.125,352 381.5313,352 L386.6719,352 C387.4219,352 387.7813,351.7188 387.7813,351.1563 C387.7813,350.875 387.6719,350.625 387.4375,350.4531 C387.2656,350.3281 387.125,350.2969 386.6719,350.2969 L384.9531,350.2969 L384.9531,343.7813 Z " fill="#000000"/><text fill="#000000" font-family="sans-serif" font-size="14" font-style="italic" lengthAdjust="spacing" textLength="148" x="398" y="351.8467">ReachabilityWatcher</text><line style="stroke:#181818;stroke-width:0.5;" x1="370" x2="548" y1="363" y2="363"/><line style="stroke:#181818;stroke-width:0.5;" x1="370" x2="548" y1="371" y2="371"/></g><!--class ObjectWatcher--><g id="elem_ObjectWatcher"><rect codeLine="3" fill="#F1F1F1" height="80.5938" id="ObjectWatcher" rx="2.5" ry="2.5" style="stroke:#181818;stroke-width:0.5;" width="406" x="256" y="439"/><ellipse cx="399.75" cy="455" fill="#ADD1B2" rx="11" ry="11" style="stroke:#181818;stroke-width:1.0;"/><path d="M402.0938,450.6719 C401.1563,450.2344 400.5625,450.0938 399.6875,450.0938 C397.0625,450.0938 395.0625,452.1719 395.0625,454.8906 L395.0625,456.0156 C395.0625,458.5938 397.1719,460.4844 400.0625,460.4844 C401.2813,460.4844 402.4375,460.1875 403.1875,459.6406 C403.7656,459.2344 404.0938,458.7813 404.0938,458.3906 C404.0938,457.9375 403.7031,457.5469 403.2344,457.5469 C403.0156,457.5469 402.8125,457.625 402.625,457.8125 C402.1719,458.2969 402.1719,458.2969 401.9844,458.3906 C401.5625,458.6563 400.875,458.7813 400.1094,458.7813 C398.0625,458.7813 396.7656,457.6875 396.7656,455.9844 L396.7656,454.8906 C396.7656,453.1094 398.0156,451.7969 399.75,451.7969 C400.3281,451.7969 400.9375,451.9531 401.4063,452.2031 C401.8906,452.4844 402.0625,452.7031 402.1563,453.1094 C402.2188,453.5156 402.25,453.6406 402.3906,453.7656 C402.5313,453.9063 402.7656,454.0156 402.9844,454.0156 C403.25,454.0156 403.5156,453.875 403.6875,453.6563 C403.7969,453.5 403.8281,453.3125 403.8281,452.8906 L403.8281,451.4688 C403.8281,451.0313 403.8125,450.9063 403.7188,450.75 C403.5625,450.4844 403.2813,450.3438 402.9844,450.3438 C402.6875,450.3438 402.4844,450.4375 402.2656,450.75 L402.0938,450.6719 Z " fill="#000000"/><text fill="#000000" font-family="sans-serif" font-size="14" lengthAdjust="spacing" textLength="110" x="420.25" y="459.8467">ObjectWatcher</text><line style="stroke:#181818;stroke-width:0.5;" x1="257" x2="661" y1="471" y2="471"/><text fill="#000000" font-family="sans-serif" font-size="14" lengthAdjust="spacing" textLength="394" x="262" y="487.9951">watchedObjects : Map&lt;String, KeyedWeakReference&gt;</text><text fill="#000000" font-family="sans-serif" font-size="14" lengthAdjust="spacing" textLength="225" x="262" y="504.292">queue : ReferenceQueue&lt;Any&gt;</text><line style="stroke:#181818;stroke-width:0.5;" x1="257" x2="661" y1="511.5938" y2="511.5938"/></g><!--class KeyedWeakReference--><g id="elem_KeyedWeakReference"><rect fill="#F1F1F1" height="48" id="KeyedWeakReference" rx="2.5" ry="2.5" style="stroke:#181818;stroke-width:0.5;" width="192" x="519" y="580"/><ellipse cx="534" cy="596" fill="#ADD1B2" rx="11" ry="11" style="stroke:#181818;stroke-width:1.0;"/><path d="M536.3438,591.6719 C535.4063,591.2344 534.8125,591.0938 533.9375,591.0938 C531.3125,591.0938 529.3125,593.1719 529.3125,595.8906 L529.3125,597.0156 C529.3125,599.5938 531.4219,601.4844 534.3125,601.4844 C535.5313,601.4844 536.6875,601.1875 537.4375,600.6406 C538.0156,600.2344 538.3438,599.7813 538.3438,599.3906 C538.3438,598.9375 537.9531,598.5469 537.4844,598.5469 C537.2656,598.5469 537.0625,598.625 536.875,598.8125 C536.4219,599.2969 536.4219,599.2969 536.2344,599.3906 C535.8125,599.6563 535.125,599.7813 534.3594,599.7813 C532.3125,599.7813 531.0156,598.6875 531.0156,596.9844 L531.0156,595.8906 C531.0156,594.1094 532.2656,592.7969 534,592.7969 C534.5781,592.7969 535.1875,592.9531 535.6563,593.2031 C536.1406,593.4844 536.3125,593.7031 536.4063,594.1094 C536.4688,594.5156 536.5,594.6406 536.6406,594.7656 C536.7813,594.9063 537.0156,595.0156 537.2344,595.0156 C537.5,595.0156 537.7656,594.875 537.9375,594.6563 C538.0469,594.5 538.0781,594.3125 538.0781,593.8906 L538.0781,592.4688 C538.0781,592.0313 538.0625,591.9063 537.9688,591.75 C537.8125,591.4844 537.5313,591.3438 537.2344,591.3438 C536.9375,591.3438 536.7344,591.4375 536.5156,591.75 L536.3438,591.6719 Z " fill="#000000"/><text fill="#000000" font-family="sans-serif" font-size="14" lengthAdjust="spacing" textLength="160" x="548" y="600.8467">KeyedWeakReference</text><line style="stroke:#181818;stroke-width:0.5;" x1="520" x2="710" y1="612" y2="612"/><line style="stroke:#181818;stroke-width:0.5;" x1="520" x2="710" y1="620" y2="620"/></g><!--class WeakReference--><g id="elem_WeakReference"><rect fill="#F1F1F1" height="48" id="WeakReference" rx="2.5" ry="2.5" style="stroke:#181818;stroke-width:0.5;" width="147" x="697.5" y="455.5"/><ellipse cx="712.5" cy="471.5" fill="#ADD1B2" rx="11" ry="11" style="stroke:#181818;stroke-width:1.0;"/><path d="M714.8438,467.1719 C713.9063,466.7344 713.3125,466.5938 712.4375,466.5938 C709.8125,466.5938 707.8125,468.6719 707.8125,471.3906 L707.8125,472.5156 C707.8125,475.0938 709.9219,476.9844 712.8125,476.9844 C714.0313,476.9844 715.1875,476.6875 715.9375,476.1406 C716.5156,475.7344 716.8438,475.2813 716.8438,474.8906 C716.8438,474.4375 716.4531,474.0469 715.9844,474.0469 C715.7656,474.0469 715.5625,474.125 715.375,474.3125 C714.9219,474.7969 714.9219,474.7969 714.7344,474.8906 C714.3125,475.1563 713.625,475.2813 712.8594,475.2813 C710.8125,475.2813 709.5156,474.1875 709.5156,472.4844 L709.5156,471.3906 C709.5156,469.6094 710.7656,468.2969 712.5,468.2969 C713.0781,468.2969 713.6875,468.4531 714.1563,468.7031 C714.6406,468.9844 714.8125,469.2031 714.9063,469.6094 C714.9688,470.0156 715,470.1406 715.1406,470.2656 C715.2813,470.4063 715.5156,470.5156 715.7344,470.5156 C716,470.5156 716.2656,470.375 716.4375,470.1563 C716.5469,470 716.5781,469.8125 716.5781,469.3906 L716.5781,467.9688 C716.5781,467.5313 716.5625,467.4063 716.4688,467.25 C716.3125,466.9844 716.0313,466.8438 715.7344,466.8438 C715.4375,466.8438 715.2344,466.9375 715.0156,467.25 L714.8438,467.1719 Z " fill="#000000"/><text fill="#000000" font-family="sans-serif" font-size="14" lengthAdjust="spacing" textLength="115" x="726.5" y="476.3467">WeakReference</text><line style="stroke:#181818;stroke-width:0.5;" x1="698.5" x2="843.5" y1="487.5" y2="487.5"/><line style="stroke:#181818;stroke-width:0.5;" x1="698.5" x2="843.5" y1="495.5" y2="495.5"/></g><!--class InstallableWatcher--><g id="elem_InstallableWatcher"><rect codeLine="10" fill="#F1F1F1" height="48" id="InstallableWatcher" rx="2.5" ry="2.5" style="stroke:#181818;stroke-width:0.5;" width="165" x="351.5" y="115"/><ellipse cx="366.5" cy="131" fill="#B4A7E5" rx="11" ry="11" style="stroke:#181818;stroke-width:1.0;"/><path d="M367.4531,127.7813 L369.1719,127.7813 C369.5625,127.7813 369.75,127.75 369.875,127.6719 C370.1406,127.5156 370.2813,127.2344 370.2813,126.9375 C370.2813,126.6719 370.1719,126.4063 369.9375,126.2344 C369.7656,126.125 369.625,126.0938 369.1719,126.0938 L364.0313,126.0938 C363.5938,126.0938 363.4688,126.1094 363.3125,126.2031 C363.0625,126.3594 362.9063,126.6563 362.9063,126.9375 C362.9063,127.2188 363.0469,127.4688 363.2656,127.6406 C363.4219,127.75 363.6094,127.7813 364.0313,127.7813 L365.75,127.7813 L365.75,134.2969 L364.0313,134.2969 C363.5938,134.2969 363.4688,134.3125 363.3125,134.4219 C363.0625,134.5781 362.9063,134.8594 362.9063,135.1563 C362.9063,135.4063 363.0469,135.6719 363.2656,135.8281 C363.4219,135.9531 363.625,136 364.0313,136 L369.1719,136 C369.9219,136 370.2813,135.7188 370.2813,135.1563 C370.2813,134.875 370.1719,134.625 369.9375,134.4531 C369.7656,134.3281 369.625,134.2969 369.1719,134.2969 L367.4531,134.2969 L367.4531,127.7813 Z " fill="#000000"/><text fill="#000000" font-family="sans-serif" font-size="14" font-style="italic" lengthAdjust="spacing" textLength="133" x="380.5" y="135.8467">InstallableWatcher</text><line style="stroke:#181818;stroke-width:0.5;" x1="352.5" x2="515.5" y1="147" y2="147"/><line style="stroke:#181818;stroke-width:0.5;" x1="352.5" x2="515.5" y1="155" y2="155"/></g><!--class ActivityWatcher--><g id="elem_ActivityWatcher"><rect fill="#F1F1F1" height="48" id="ActivityWatcher" rx="2.5" ry="2.5" style="stroke:#181818;stroke-width:0.5;" width="149" x="55.5" y="223"/><ellipse cx="70.5" cy="239" fill="#ADD1B2" rx="11" ry="11" style="stroke:#181818;stroke-width:1.0;"/><path d="M72.8438,234.6719 C71.9063,234.2344 71.3125,234.0938 70.4375,234.0938 C67.8125,234.0938 65.8125,236.1719 65.8125,238.8906 L65.8125,240.0156 C65.8125,242.5938 67.9219,244.4844 70.8125,244.4844 C72.0313,244.4844 73.1875,244.1875 73.9375,243.6406 C74.5156,243.2344 74.8438,242.7813 74.8438,242.3906 C74.8438,241.9375 74.4531,241.5469 73.9844,241.5469 C73.7656,241.5469 73.5625,241.625 73.375,241.8125 C72.9219,242.2969 72.9219,242.2969 72.7344,242.3906 C72.3125,242.6563 71.625,242.7813 70.8594,242.7813 C68.8125,242.7813 67.5156,241.6875 67.5156,239.9844 L67.5156,238.8906 C67.5156,237.1094 68.7656,235.7969 70.5,235.7969 C71.0781,235.7969 71.6875,235.9531 72.1563,236.2031 C72.6406,236.4844 72.8125,236.7031 72.9063,237.1094 C72.9688,237.5156 73,237.6406 73.1406,237.7656 C73.2813,237.9063 73.5156,238.0156 73.7344,238.0156 C74,238.0156 74.2656,237.875 74.4375,237.6563 C74.5469,237.5 74.5781,237.3125 74.5781,236.8906 L74.5781,235.4688 C74.5781,235.0313 74.5625,234.9063 74.4688,234.75 C74.3125,234.4844 74.0313,234.3438 73.7344,234.3438 C73.4375,234.3438 73.2344,234.4375 73.0156,234.75 L72.8438,234.6719 Z " fill="#000000"/><text fill="#000000" font-family="sans-serif" font-size="14" lengthAdjust="spacing" textLength="117" x="84.5" y="243.8467">ActivityWatcher</text><line style="stroke:#181818;stroke-width:0.5;" x1="56.5" x2="203.5" y1="255" y2="255"/><line style="stroke:#181818;stroke-width:0.5;" x1="56.5" x2="203.5" y1="263" y2="263"/></g><!--class FragmentAndViewModelWatcher--><g id="elem_FragmentAndViewModelWatcher"><rect fill="#F1F1F1" height="48" id="FragmentAndViewModelWatcher" rx="2.5" ry="2.5" style="stroke:#181818;stroke-width:0.5;" width="268" x="421" y="223"/><ellipse cx="436" cy="239" fill="#ADD1B2" rx="11" ry="11" style="stroke:#181818;stroke-width:1.0;"/><path d="M438.3438,234.6719 C437.4063,234.2344 436.8125,234.0938 435.9375,234.0938 C433.3125,234.0938 431.3125,236.1719 431.3125,238.8906 L431.3125,240.0156 C431.3125,242.5938 433.4219,244.4844 436.3125,244.4844 C437.5313,244.4844 438.6875,244.1875 439.4375,243.6406 C440.0156,243.2344 440.3438,242.7813 440.3438,242.3906 C440.3438,241.9375 439.9531,241.5469 439.4844,241.5469 C439.2656,241.5469 439.0625,241.625 438.875,241.8125 C438.4219,242.2969 438.4219,242.2969 438.2344,242.3906 C437.8125,242.6563 437.125,242.7813 436.3594,242.7813 C434.3125,242.7813 433.0156,241.6875 433.0156,239.9844 L433.0156,238.8906 C433.0156,237.1094 434.2656,235.7969 436,235.7969 C436.5781,235.7969 437.1875,235.9531 437.6563,236.2031 C438.1406,236.4844 438.3125,236.7031 438.4063,237.1094 C438.4688,237.5156 438.5,237.6406 438.6406,237.7656 C438.7813,237.9063 439.0156,238.0156 439.2344,238.0156 C439.5,238.0156 439.7656,237.875 439.9375,237.6563 C440.0469,237.5 440.0781,237.3125 440.0781,236.8906 L440.0781,235.4688 C440.0781,235.0313 440.0625,234.9063 439.9688,234.75 C439.8125,234.4844 439.5313,234.3438 439.2344,234.3438 C438.9375,234.3438 438.7344,234.4375 438.5156,234.75 L438.3438,234.6719 Z " fill="#000000"/><text fill="#000000" font-family="sans-serif" font-size="14" lengthAdjust="spacing" textLength="236" x="450" y="243.8467">FragmentAndViewModelWatcher</text><line style="stroke:#181818;stroke-width:0.5;" x1="422" x2="688" y1="255" y2="255"/><line style="stroke:#181818;stroke-width:0.5;" x1="422" x2="688" y1="263" y2="263"/></g><!--class RootViewWatcher--><g id="elem_RootViewWatcher"><rect fill="#F1F1F1" height="48" id="RootViewWatcher" rx="2.5" ry="2.5" style="stroke:#181818;stroke-width:0.5;" width="162" x="724" y="223"/><ellipse cx="739" cy="239" fill="#ADD1B2" rx="11" ry="11" style="stroke:#181818;stroke-width:1.0;"/><path d="M741.3438,234.6719 C740.4063,234.2344 739.8125,234.0938 738.9375,234.0938 C736.3125,234.0938 734.3125,236.1719 734.3125,238.8906 L734.3125,240.0156 C734.3125,242.5938 736.4219,244.4844 739.3125,244.4844 C740.5313,244.4844 741.6875,244.1875 742.4375,243.6406 C743.0156,243.2344 743.3438,242.7813 743.3438,242.3906 C743.3438,241.9375 742.9531,241.5469 742.4844,241.5469 C742.2656,241.5469 742.0625,241.625 741.875,241.8125 C741.4219,242.2969 741.4219,242.2969 741.2344,242.3906 C740.8125,242.6563 740.125,242.7813 739.3594,242.7813 C737.3125,242.7813 736.0156,241.6875 736.0156,239.9844 L736.0156,238.8906 C736.0156,237.1094 737.2656,235.7969 739,235.7969 C739.5781,235.7969 740.1875,235.9531 740.6563,236.2031 C741.1406,236.4844 741.3125,236.7031 741.4063,237.1094 C741.4688,237.5156 741.5,237.6406 741.6406,237.7656 C741.7813,237.9063 742.0156,238.0156 742.2344,238.0156 C742.5,238.0156 742.7656,237.875 742.9375,237.6563 C743.0469,237.5 743.0781,237.3125 743.0781,236.8906 L743.0781,235.4688 C743.0781,235.0313 743.0625,234.9063 742.9688,234.75 C742.8125,234.4844 742.5313,234.3438 742.2344,234.3438 C741.9375,234.3438 741.7344,234.4375 741.5156,234.75 L741.3438,234.6719 Z " fill="#000000"/><text fill="#000000" font-family="sans-serif" font-size="14" lengthAdjust="spacing" textLength="130" x="753" y="243.8467">RootViewWatcher</text><line style="stroke:#181818;stroke-width:0.5;" x1="725" x2="885" y1="255" y2="255"/><line style="stroke:#181818;stroke-width:0.5;" x1="725" x2="885" y1="263" y2="263"/></g><!--class ServiceWatcher--><g id="elem_ServiceWatcher"><rect fill="#F1F1F1" height="48" id="ServiceWatcher" rx="2.5" ry="2.5" style="stroke:#181818;stroke-width:0.5;" width="146" x="240" y="223"/><ellipse cx="255" cy="239" fill="#ADD1B2" rx="11" ry="11" style="stroke:#181818;stroke-width:1.0;"/><path d="M257.3438,234.6719 C256.4063,234.2344 255.8125,234.0938 254.9375,234.0938 C252.3125,234.0938 250.3125,236.1719 250.3125,238.8906 L250.3125,240.0156 C250.3125,242.5938 252.4219,244.4844 255.3125,244.4844 C256.5313,244.4844 257.6875,244.1875 258.4375,243.6406 C259.0156,243.2344 259.3438,242.7813 259.3438,242.3906 C259.3438,241.9375 258.9531,241.5469 258.4844,241.5469 C258.2656,241.5469 258.0625,241.625 257.875,241.8125 C257.4219,242.2969 257.4219,242.2969 257.2344,242.3906 C256.8125,242.6563 256.125,242.7813 255.3594,242.7813 C253.3125,242.7813 252.0156,241.6875 252.0156,239.9844 L252.0156,238.8906 C252.0156,237.1094 253.2656,235.7969 255,235.7969 C255.5781,235.7969 256.1875,235.9531 256.6563,236.2031 C257.1406,236.4844 257.3125,236.7031 257.4063,237.1094 C257.4688,237.5156 257.5,237.6406 257.6406,237.7656 C257.7813,237.9063 258.0156,238.0156 258.2344,238.0156 C258.5,238.0156 258.7656,237.875 258.9375,237.6563 C259.0469,237.5 259.0781,237.3125 259.0781,236.8906 L259.0781,235.4688 C259.0781,235.0313 259.0625,234.9063 258.9688,234.75 C258.8125,234.4844 258.5313,234.3438 258.2344,234.3438 C257.9375,234.3438 257.7344,234.4375 257.5156,234.75 L257.3438,234.6719 Z " fill="#000000"/><text fill="#000000" font-family="sans-serif" font-size="14" lengthAdjust="spacing" textLength="114" x="269" y="243.8467">ServiceWatcher</text><line style="stroke:#181818;stroke-width:0.5;" x1="241" x2="385" y1="255" y2="255"/><line style="stroke:#181818;stroke-width:0.5;" x1="241" x2="385" y1="263" y2="263"/></g><!--class AppWatcher--><g id="elem_AppWatcher"><rect fill="#F1F1F1" height="48" id="AppWatcher" rx="2.5" ry="2.5" style="stroke:#181818;stroke-width:0.5;" width="123" x="372.5" y="7"/><ellipse cx="387.5" cy="23" fill="#ADD1B2" rx="11" ry="11" style="stroke:#181818;stroke-width:1.0;"/><path d="M389.8438,18.6719 C388.9063,18.2344 388.3125,18.0938 387.4375,18.0938 C384.8125,18.0938 382.8125,20.1719 382.8125,22.8906 L382.8125,24.0156 C382.8125,26.5938 384.9219,28.4844 387.8125,28.4844 C389.0313,28.4844 390.1875,28.1875 390.9375,27.6406 C391.5156,27.2344 391.8438,26.7813 391.8438,26.3906 C391.8438,25.9375 391.4531,25.5469 390.9844,25.5469 C390.7656,25.5469 390.5625,25.625 390.375,25.8125 C389.9219,26.2969 389.9219,26.2969 389.7344,26.3906 C389.3125,26.6563 388.625,26.7813 387.8594,26.7813 C385.8125,26.7813 384.5156,25.6875 384.5156,23.9844 L384.5156,22.8906 C384.5156,21.1094 385.7656,19.7969 387.5,19.7969 C388.0781,19.7969 388.6875,19.9531 389.1563,20.2031 C389.6406,20.4844 389.8125,20.7031 389.9063,21.1094 C389.9688,21.5156 390,21.6406 390.1406,21.7656 C390.2813,21.9063 390.5156,22.0156 390.7344,22.0156 C391,22.0156 391.2656,21.875 391.4375,21.6563 C391.5469,21.5 391.5781,21.3125 391.5781,20.8906 L391.5781,19.4688 C391.5781,19.0313 391.5625,18.9063 391.4688,18.75 C391.3125,18.4844 391.0313,18.3438 390.7344,18.3438 C390.4375,18.3438 390.2344,18.4375 390.0156,18.75 L389.8438,18.6719 Z " fill="#000000"/><text fill="#000000" font-family="sans-serif" font-size="14" lengthAdjust="spacing" textLength="91" x="401.5" y="27.8467">AppWatcher</text><line style="stroke:#181818;stroke-width:0.5;" x1="373.5" x2="494.5" y1="39" y2="39"/><line style="stroke:#181818;stroke-width:0.5;" x1="373.5" x2="494.5" y1="47" y2="47"/></g><!--reverse link ReachabilityWatcher to ObjectWatcher--><g id="link_ReachabilityWatcher_ObjectWatcher"><path codeLine="2" d="M459,397.041 C459,413.814 459,418.95 459,438.688 " fill="none" id="ReachabilityWatcher-backto-ObjectWatcher" style="stroke:#181818;stroke-width:1.0;"/><polygon fill="none" points="459,379.041,453,397.041,465,397.041,459,379.041" style="stroke:#181818;stroke-width:1.0;"/></g><!--reverse link ObjectWatcher to KeyedWeakReference--><g id="link_ObjectWatcher_KeyedWeakReference"><path codeLine="7" d="M519.0868,527.6833 C544.1748,547.3845 564.149,563.0687 585.51,579.8428 " fill="none" id="ObjectWatcher-backto-KeyedWeakReference" style="stroke:#181818;stroke-width:1.0;"/><polygon fill="#181818" points="509.649,520.272,511.8974,527.1236,519.0868,527.6833,516.8383,520.8317,509.649,520.272" style="stroke:#181818;stroke-width:1.0;"/><text fill="#000000" font-family="sans-serif" font-size="13" lengthAdjust="spacing" textLength="8" x="508.7921" y="539.7718">1</text><text fill="#000000" font-family="sans-serif" font-size="13" lengthAdjust="spacing" textLength="8" x="568.9282" y="568.8146">n</text></g><!--reverse link WeakReference to KeyedWeakReference--><g id="link_WeakReference_KeyedWeakReference"><path codeLine="8" d="M727.5012,514.6579 C699.6992,536.4899 672.321,557.988 644.476,579.8541 " fill="none" id="WeakReference-backto-KeyedWeakReference" style="stroke:#181818;stroke-width:1.0;"/><polygon fill="none" points="741.658,503.541,723.7956,509.9389,731.2068,519.3768,741.658,503.541" style="stroke:#181818;stroke-width:1.0;"/></g><!--reverse link InstallableWatcher to ActivityWatcher--><g id="link_InstallableWatcher_ActivityWatcher"><path codeLine="11" d="M351.0406,168.9266 C300.1366,186.6766 247.034,205.192 196.097,222.953 " fill="none" id="InstallableWatcher-backto-ActivityWatcher" style="stroke:#181818;stroke-width:1.0;"/><polygon fill="none" points="368.037,163,349.0651,163.2611,353.0162,174.592,368.037,163" style="stroke:#181818;stroke-width:1.0;"/></g><!--reverse link InstallableWatcher to FragmentAndViewModelWatcher--><g id="link_InstallableWatcher_FragmentAndViewModelWatcher"><path codeLine="12" d="M473.7945,174.8609 C493.9515,192.5189 508.131,204.941 528.378,222.678 " fill="none" id="InstallableWatcher-backto-FragmentAndViewModelWatcher" style="stroke:#181818;stroke-width:1.0;"/><polygon fill="none" points="460.255,163,469.8409,179.3741,477.7482,170.3478,460.255,163" style="stroke:#181818;stroke-width:1.0;"/></g><!--reverse link InstallableWatcher to RootViewWatcher--><g id="link_InstallableWatcher_RootViewWatcher"><path codeLine="13" d="M531.8084,167.9451 C593.9314,185.6951 662.173,205.192 724.336,222.953 " fill="none" id="InstallableWatcher-backto-RootViewWatcher" style="stroke:#181818;stroke-width:1.0;"/><polygon fill="none" points="514.501,163,530.16,173.7143,533.4568,162.176,514.501,163" style="stroke:#181818;stroke-width:1.0;"/></g><!--reverse link InstallableWatcher to ServiceWatcher--><g id="link_InstallableWatcher_ServiceWatcher"><path codeLine="14" d="M394.2055,174.8609 C374.0485,192.5189 359.869,204.941 339.622,222.678 " fill="none" id="InstallableWatcher-backto-ServiceWatcher" style="stroke:#181818;stroke-width:1.0;"/><polygon fill="none" points="407.745,163,390.2518,170.3478,398.1591,179.3741,407.745,163" style="stroke:#181818;stroke-width:1.0;"/></g><!--reverse link ActivityWatcher to ReachabilityWatcher--><g id="link_ActivityWatcher_ReachabilityWatcher"><path codeLine="16" d="M212.8098,274.6801 C267.8998,292.4301 332.342,313.192 387.468,330.953 " fill="none" id="ActivityWatcher-backto-ReachabilityWatcher" style="stroke:#181818;stroke-width:1.0;"/><polygon fill="#181818" points="201.388,271,205.8722,276.6473,212.8098,274.6801,208.3256,269.0328,201.388,271" style="stroke:#181818;stroke-width:1.0;"/></g><!--reverse link FragmentAndViewModelWatcher to ReachabilityWatcher--><g id="link_FragmentAndViewModelWatcher_ReachabilityWatcher"><path codeLine="17" d="M526.1137,279.8945 C510.1217,297.5525 496.186,312.941 480.121,330.678 " fill="none" id="FragmentAndViewModelWatcher-backto-ReachabilityWatcher" style="stroke:#181818;stroke-width:1.0;"/><polygon fill="#181818" points="534.169,271,527.1765,272.7621,526.1137,279.8945,533.1062,278.1323,534.169,271" style="stroke:#181818;stroke-width:1.0;"/></g><!--reverse link RootViewWatcher to ReachabilityWatcher--><g id="link_RootViewWatcher_ReachabilityWatcher"><path codeLine="18" d="M718.4494,274.5152 C660.5134,292.2652 592.203,313.192 534.228,330.953 " fill="none" id="RootViewWatcher-backto-ReachabilityWatcher" style="stroke:#181818;stroke-width:1.0;"/><polygon fill="#181818" points="729.923,271,723.0145,268.9331,718.4494,274.5152,725.3579,276.5821,729.923,271" style="stroke:#181818;stroke-width:1.0;"/></g><!--reverse link ServiceWatcher to ReachabilityWatcher--><g id="link_ServiceWatcher_ReachabilityWatcher"><path codeLine="19" d="M354.3905,278.0502 C378.7955,295.7692 402.678,313.108 427.13,330.862 " fill="none" id="ServiceWatcher-backto-ReachabilityWatcher" style="stroke:#181818;stroke-width:1.0;"/><polygon fill="#181818" points="344.68,271,347.1852,277.762,354.3905,278.0502,351.8853,271.2883,344.68,271" style="stroke:#181818;stroke-width:1.0;"/></g><!--link ActivityWatcher to ActivityLifecycleCallbacks--><g id="link_ActivityWatcher_ActivityLifecycleCallbacks"><path codeLine="22" d="M130,271 C130,288.658 130,306.941 130,324.678 " fill="none" id="ActivityWatcher-to-ActivityLifecycleCallbacks" style="stroke:#181818;stroke-width:1.0;"/><polygon fill="#181818" points="130,330.678,134,321.678,130,325.678,126,321.678,130,330.678" style="stroke:#181818;stroke-width:1.0;"/></g><!--reverse link AppWatcher to InstallableWatcher--><g id="link_AppWatcher_InstallableWatcher"><path codeLine="24" d="M434,67 C434,84.658 434,96.941 434,114.678 " fill="none" id="AppWatcher-backto-InstallableWatcher" style="stroke:#181818;stroke-width:1.0;"/><polygon fill="#181818" points="434,55,430,61,434,67,438,61,434,55" style="stroke:#181818;stroke-width:1.0;"/><text fill="#000000" font-family="sans-serif" font-size="13" lengthAdjust="spacing" textLength="8" x="424.975" y="75.1558">1</text><text fill="#000000" font-family="sans-serif" font-size="13" lengthAdjust="spacing" textLength="8" x="425.025" y="104.0045">n</text></g><!--link AppWatcher to ActivityWatcher--><g id="link_AppWatcher_ActivityWatcher"><path codeLine="25" d="M398.742,55.07 C373.789,71.525 339.631,94.313 310,115 C257.077,151.949 201.4206,192.8625 165.7676,219.3305 " fill="none" id="AppWatcher-to-ActivityWatcher" style="stroke:#181818;stroke-width:1.0;"/><polygon fill="#181818" points="160.95,222.907,170.5607,220.754,164.9646,219.9266,165.792,214.3306,160.95,222.907" style="stroke:#181818;stroke-width:1.0;"/></g><!--link AppWatcher to FragmentAndViewModelWatcher--><g id="link_AppWatcher_FragmentAndViewModelWatcher"><path codeLine="26" d="M473.769,55.028 C495.078,69.491 519.8,90.112 534,115 C553.291,148.81 556.3093,189.0712 556.1013,216.6092 " fill="none" id="AppWatcher-to-FragmentAndViewModelWatcher" style="stroke:#181818;stroke-width:1.0;"/><polygon fill="#181818" points="556.056,222.609,560.1239,213.6395,556.0938,217.6091,552.1241,213.579,556.056,222.609" style="stroke:#181818;stroke-width:1.0;"/></g><!--link AppWatcher to RootViewWatcher--><g id="link_AppWatcher_RootViewWatcher"><path codeLine="27" d="M474.056,55.105 C545.443,96.283 688.6477,178.886 759.9137,219.994 " fill="none" id="AppWatcher-to-RootViewWatcher" style="stroke:#181818;stroke-width:1.0;"/><polygon fill="#181818" points="765.111,222.992,759.3136,215.0302,760.7799,220.4937,755.3164,221.96,765.111,222.992" style="stroke:#181818;stroke-width:1.0;"/></g><!--link AppWatcher to ServiceWatcher--><g id="link_AppWatcher_ServiceWatcher"><path codeLine="28" d="M394.231,55.028 C372.922,69.491 348.2,90.112 334,115 C314.709,148.81 311.6907,189.0712 311.8987,216.6092 " fill="none" id="AppWatcher-to-ServiceWatcher" style="stroke:#181818;stroke-width:1.0;"/><polygon fill="#181818" points="311.944,222.609,315.8759,213.579,311.9062,217.6091,307.8761,213.6395,311.944,222.609" style="stroke:#181818;stroke-width:1.0;"/></g><!--SRC=[ZPBHQuCm4CRVyrS47ySSx7M888F1sCgOXVNvFCysQnPTJ5jas_y-goWcZMrzoztlak- -Jw4CwGAGU4g06yY45APPWS4DQUQfyUWt3FbRzabe1WmbrBLTup-Cjz-XE-Lzg-OFV05Lj3HQgFKjVw66yXN1DgM2D2cak1lwtj6EMdOilnyBKQAQcFqn-vdWFk0thQ101Pxxc7NgfNie9aONdbLjG4h890tRdPRwYn8qOZynQuvxqh3-8cKIbNy8EYpAdEIbcRGipH6-n2r9xmMEKfcZgRF65-mPJRCpZgPPpjOqYqrCJwfA2WGZIdKtRF0g2i869JssUsU0s_fakJ2ChnrbBUVxPJnnJyZk0ITbftqkN0TrCtNQjct_]--></g></svg>