<?xml version="1.0" encoding="us-ascii" standalone="no"?><svg xmlns="http://www.w3.org/2000/svg" xmlns:xlink="http://www.w3.org/1999/xlink" contentStyleType="text/css" height="1341px" preserveAspectRatio="none" style="width:1035px;height:1341px;background:#FFFFFF;" version="1.1" viewBox="0 0 1035 1341" width="1035px" zoomAndPan="magnify"><defs/><g><rect fill="#FFFFFF" height="191.7969" style="stroke:#181818;stroke-width:1.0;" width="10" x="156" y="204.125"/><rect fill="#FFFFFF" height="120.5313" style="stroke:#181818;stroke-width:1.0;" width="10" x="161" y="246.2578"/><rect fill="#FFFFFF" height="34.1328" style="stroke:#181818;stroke-width:1.0;" width="10" x="166" y="303.5234"/><rect fill="#FFFFFF" height="821.4531" style="stroke:#181818;stroke-width:1.0;" width="10" x="156" y="476.1875"/><rect fill="#FFBBBB" height="423.9922" style="stroke:#181818;stroke-width:1.0;" width="10" x="161" y="850.6484"/><rect fill="#FFFFFF" height="99.5313" style="stroke:#181818;stroke-width:1.0;" width="10" x="166" y="892.7813"/><rect fill="#FFFFFF" height="223.0625" style="stroke:#181818;stroke-width:1.0;" width="10" x="166" y="1051.5781"/><rect fill="#C0C0C0" height="156.7969" style="stroke:#181818;stroke-width:1.0;" width="10" x="171" y="1117.8438"/><rect fill="#FFFFFF" height="131.5313" style="stroke:#181818;stroke-width:1.0;" width="10" x="587" y="539.4531"/><rect fill="#FFFFFF" height="64.1328" style="stroke:#181818;stroke-width:1.0;" width="10" x="592" y="606.8516"/><rect fill="#FFFFFF" height="172.5313" style="stroke:#181818;stroke-width:1.0;" width="10" x="810" y="640.9844"/><rect fill="#FFFFFF" height="105.3984" style="stroke:#181818;stroke-width:1.0;" width="10" x="815" y="708.1172"/><rect fill="#FFFFFF" height="63.2656" style="stroke:#181818;stroke-width:1.0;" width="10" x="820" y="750.25"/><rect fill="#FFFFFF" height="65.3984" style="stroke:#181818;stroke-width:1.0;" width="10" x="810" y="926.9141"/><rect fill="#FFFFFF" height="65.3984" style="stroke:#181818;stroke-width:1.0;" width="10" x="810" y="1209.2422"/><rect fill="none" height="218.0625" style="stroke:#000000;stroke-width:1.5;" width="896.5" x="88.5" y="1071.5781"/><line style="stroke:#181818;stroke-width:0.5;stroke-dasharray:5.0,5.0;" x1="160.5" x2="160.5" y1="36.2969" y2="1306.6406"/><line style="stroke:#181818;stroke-width:0.5;stroke-dasharray:5.0,5.0;" x1="437" x2="437" y1="121.2109" y2="1306.6406"/><line style="stroke:#181818;stroke-width:0.5;stroke-dasharray:5.0,5.0;" x1="592" x2="592" y1="36.2969" y2="1306.6406"/><line style="stroke:#181818;stroke-width:0.5;stroke-dasharray:5.0,5.0;" x1="814.5" x2="814.5" y1="36.2969" y2="1306.6406"/><rect fill="#E2E2F0" height="30.2969" rx="2.5" ry="2.5" style="stroke:#181818;stroke-width:0.5;" width="125" x="98.5" y="5"/><text fill="#000000" font-family="sans-serif" font-size="14" lengthAdjust="spacing" textLength="111" x="105.5" y="24.9951">GestureBinding</text><rect fill="#E2E2F0" height="30.2969" rx="2.5" ry="2.5" style="stroke:#181818;stroke-width:0.5;" width="125" x="98.5" y="1305.6406"/><text fill="#000000" font-family="sans-serif" font-size="14" lengthAdjust="spacing" textLength="111" x="105.5" y="1325.6357">GestureBinding</text><rect fill="#E2E2F0" height="30.2969" rx="2.5" ry="2.5" style="stroke:#181818;stroke-width:0.5;" width="112" x="381" y="1305.6406"/><text fill="#000000" font-family="sans-serif" font-size="14" lengthAdjust="spacing" textLength="98" x="388" y="1325.6357">HitTestResult</text><rect fill="#E2E2F0" height="30.2969" rx="2.5" ry="2.5" style="stroke:#181818;stroke-width:0.5;" width="178" x="503" y="5"/><text fill="#000000" font-family="sans-serif" font-size="14" lengthAdjust="spacing" textLength="164" x="510" y="24.9951">RenderPointerListener</text><rect fill="#E2E2F0" height="30.2969" rx="2.5" ry="2.5" style="stroke:#181818;stroke-width:0.5;" width="178" x="503" y="1305.6406"/><text fill="#000000" font-family="sans-serif" font-size="14" lengthAdjust="spacing" textLength="164" x="510" y="1325.6357">RenderPointerListener</text><rect fill="#E2E2F0" height="30.2969" rx="2.5" ry="2.5" style="stroke:#181818;stroke-width:0.5;" width="179" x="725.5" y="5"/><text fill="#000000" font-family="sans-serif" font-size="14" lengthAdjust="spacing" textLength="165" x="732.5" y="24.9951">TapGestureRecognizer</text><rect fill="#E2E2F0" height="30.2969" rx="2.5" ry="2.5" style="stroke:#181818;stroke-width:0.5;" width="179" x="725.5" y="1305.6406"/><text fill="#000000" font-family="sans-serif" font-size="14" lengthAdjust="spacing" textLength="165" x="732.5" y="1325.6357">TapGestureRecognizer</text><rect fill="#FFFFFF" height="191.7969" style="stroke:#181818;stroke-width:1.0;" width="10" x="156" y="204.125"/><rect fill="#FFFFFF" height="120.5313" style="stroke:#181818;stroke-width:1.0;" width="10" x="161" y="246.2578"/><rect fill="#FFFFFF" height="34.1328" style="stroke:#181818;stroke-width:1.0;" width="10" x="166" y="303.5234"/><rect fill="#FFFFFF" height="821.4531" style="stroke:#181818;stroke-width:1.0;" width="10" x="156" y="476.1875"/><rect fill="#FFBBBB" height="423.9922" style="stroke:#181818;stroke-width:1.0;" width="10" x="161" y="850.6484"/><rect fill="#FFFFFF" height="99.5313" style="stroke:#181818;stroke-width:1.0;" width="10" x="166" y="892.7813"/><rect fill="#FFFFFF" height="223.0625" style="stroke:#181818;stroke-width:1.0;" width="10" x="166" y="1051.5781"/><rect fill="#C0C0C0" height="156.7969" style="stroke:#181818;stroke-width:1.0;" width="10" x="171" y="1117.8438"/><rect fill="#FFFFFF" height="131.5313" style="stroke:#181818;stroke-width:1.0;" width="10" x="587" y="539.4531"/><rect fill="#FFFFFF" height="64.1328" style="stroke:#181818;stroke-width:1.0;" width="10" x="592" y="606.8516"/><rect fill="#FFFFFF" height="172.5313" style="stroke:#181818;stroke-width:1.0;" width="10" x="810" y="640.9844"/><rect fill="#FFFFFF" height="105.3984" style="stroke:#181818;stroke-width:1.0;" width="10" x="815" y="708.1172"/><rect fill="#FFFFFF" height="63.2656" style="stroke:#181818;stroke-width:1.0;" width="10" x="820" y="750.25"/><rect fill="#FFFFFF" height="65.3984" style="stroke:#181818;stroke-width:1.0;" width="10" x="810" y="926.9141"/><rect fill="#FFFFFF" height="65.3984" style="stroke:#181818;stroke-width:1.0;" width="10" x="810" y="1209.2422"/><ellipse cx="7.5" cy="81.8125" fill="none" rx="4" ry="4" style="stroke:#181818;stroke-width:1.5;"/><polygon fill="#181818" points="149,78.5625,159,82.5625,149,86.5625,153,82.5625" style="stroke:#181818;stroke-width:1.0;"/><line style="stroke:#181818;stroke-width:1.0;" x1="12" x2="155" y1="82.5625" y2="82.5625"/><text fill="#000000" font-family="sans-serif" font-size="13" lengthAdjust="spacing" textLength="125" x="15" y="62.3638">handlePointerEvent</text><text fill="#000000" font-family="sans-serif" font-size="13" lengthAdjust="spacing" textLength="129" x="15" y="77.4966">(PointerDownEvent)</text><polygon fill="#181818" points="369,107.6953,379,111.6953,369,115.6953,373,111.6953" style="stroke:#181818;stroke-width:1.0;"/><line style="stroke:#181818;stroke-width:1.0;" x1="161" x2="375" y1="111.6953" y2="111.6953"/><text fill="#000000" font-family="sans-serif" font-size="13" lengthAdjust="spacing" textLength="27" x="168" y="106.6294">new</text><rect fill="#E2E2F0" height="30.2969" rx="2.5" ry="2.5" style="stroke:#181818;stroke-width:0.5;" width="112" x="381" y="90.5625"/><text fill="#000000" font-family="sans-serif" font-size="14" lengthAdjust="spacing" textLength="98" x="388" y="110.5576">HitTestResult</text><rect fill="#EEEEEE" height="3" style="stroke:#EEEEEE;stroke-width:1.0;" width="1028" x="0" y="152.4258"/><line style="stroke:#000000;stroke-width:1.0;" x1="0" x2="1028" y1="152.4258" y2="152.4258"/><line style="stroke:#000000;stroke-width:1.0;" x1="0" x2="1028" y1="155.4258" y2="155.4258"/><rect fill="#EEEEEE" height="23.1328" style="stroke:#000000;stroke-width:2.0;" width="137" x="445.5" y="141.8594"/><text fill="#000000" font-family="sans-serif" font-size="13" font-weight="bold" lengthAdjust="spacing" textLength="118" x="451.5" y="157.9263">&#21629;&#20013;&#27979;&#35797; hitTest</text><line style="stroke:#181818;stroke-width:1.0;" x1="161" x2="208" y1="191.125" y2="191.125"/><line style="stroke:#181818;stroke-width:1.0;" x1="208" x2="208" y1="191.125" y2="204.125"/><line style="stroke:#181818;stroke-width:1.0;" x1="167" x2="208" y1="204.125" y2="204.125"/><polygon fill="#181818" points="177,200.125,167,204.125,177,208.125,173,204.125" style="stroke:#181818;stroke-width:1.0;"/><text fill="#000000" font-family="sans-serif" font-size="13" lengthAdjust="spacing" textLength="163" x="173" y="186.0591">(RendererBinding).hitTest</text><line style="stroke:#181818;stroke-width:1.0;" x1="166" x2="213" y1="233.2578" y2="233.2578"/><line style="stroke:#181818;stroke-width:1.0;" x1="213" x2="213" y1="233.2578" y2="246.2578"/><line style="stroke:#181818;stroke-width:1.0;" x1="172" x2="213" y1="246.2578" y2="246.2578"/><polygon fill="#181818" points="182,242.2578,172,246.2578,182,250.2578,178,246.2578" style="stroke:#181818;stroke-width:1.0;"/><text fill="#000000" font-family="sans-serif" font-size="13" lengthAdjust="spacing" textLength="121" x="178" y="228.1919">renderView.hitTest</text><line style="stroke:#181818;stroke-width:1.0;" x1="171" x2="218" y1="290.5234" y2="290.5234"/><line style="stroke:#181818;stroke-width:1.0;" x1="218" x2="218" y1="290.5234" y2="303.5234"/><line style="stroke:#181818;stroke-width:1.0;" x1="177" x2="218" y1="303.5234" y2="303.5234"/><polygon fill="#181818" points="187,299.5234,177,303.5234,187,307.5234,183,303.5234" style="stroke:#181818;stroke-width:1.0;"/><text fill="#000000" font-family="sans-serif" font-size="13" lengthAdjust="spacing" textLength="82" x="183" y="270.3247">child!.hitTest</text><text fill="#000000" font-family="sans-serif" font-size="13" lengthAdjust="spacing" textLength="104" x="183" y="285.4575">&#28145;&#24230;&#20248;&#20808;&#36941;&#21382;&#23376;&#26641;</text><polygon fill="#181818" points="425,333.6563,435,337.6563,425,341.6563,429,337.6563" style="stroke:#181818;stroke-width:1.0;"/><line style="stroke:#181818;stroke-width:1.0;" x1="171" x2="431" y1="337.6563" y2="337.6563"/><text fill="#000000" font-family="sans-serif" font-size="13" lengthAdjust="spacing" textLength="195" x="178" y="332.5903">add(&#21629;&#20013;&#27979;&#35797;&#36890;&#36807;&#30340;RenderBox)</text><polygon fill="#181818" points="425,362.7891,435,366.7891,425,370.7891,429,366.7891" style="stroke:#181818;stroke-width:1.0;"/><line style="stroke:#181818;stroke-width:1.0;" x1="166" x2="431" y1="366.7891" y2="366.7891"/><text fill="#000000" font-family="sans-serif" font-size="13" lengthAdjust="spacing" textLength="227" x="173" y="361.7231">add(HitTestEntry(RenderView.this))</text><polygon fill="#181818" points="425,391.9219,435,395.9219,425,399.9219,429,395.9219" style="stroke:#181818;stroke-width:1.0;"/><line style="stroke:#181818;stroke-width:1.0;" x1="161" x2="431" y1="395.9219" y2="395.9219"/><text fill="#000000" font-family="sans-serif" font-size="13" lengthAdjust="spacing" textLength="247" x="168" y="390.856">add(HitTestEntry(GestureBinding.this))</text><rect fill="#EEEEEE" height="3" style="stroke:#EEEEEE;stroke-width:1.0;" width="1028" x="0" y="424.4883"/><line style="stroke:#000000;stroke-width:1.0;" x1="0" x2="1028" y1="424.4883" y2="424.4883"/><line style="stroke:#000000;stroke-width:1.0;" x1="0" x2="1028" y1="427.4883" y2="427.4883"/><rect fill="#EEEEEE" height="23.1328" style="stroke:#000000;stroke-width:2.0;" width="143" x="442.5" y="413.9219"/><text fill="#000000" font-family="sans-serif" font-size="13" font-weight="bold" lengthAdjust="spacing" textLength="124" x="448.5" y="429.9888">&#28857;&#20987;down&#20107;&#20214;&#20998;&#21457;</text><line style="stroke:#181818;stroke-width:1.0;" x1="161" x2="208" y1="463.1875" y2="463.1875"/><line style="stroke:#181818;stroke-width:1.0;" x1="208" x2="208" y1="463.1875" y2="476.1875"/><line style="stroke:#181818;stroke-width:1.0;" x1="167" x2="208" y1="476.1875" y2="476.1875"/><polygon fill="#181818" points="177,472.1875,167,476.1875,177,480.1875,173,476.1875" style="stroke:#181818;stroke-width:1.0;"/><text fill="#000000" font-family="sans-serif" font-size="13" lengthAdjust="spacing" textLength="91" x="173" y="458.1216">dispatchEvent</text><polygon fill="#181818" points="425,506.3203,435,510.3203,425,514.3203,429,510.3203" style="stroke:#181818;stroke-width:1.0;"/><line style="stroke:#181818;stroke-width:1.0;" x1="166" x2="431" y1="510.3203" y2="510.3203"/><text fill="#000000" font-family="sans-serif" font-size="13" lengthAdjust="spacing" textLength="156" x="173" y="505.2544">&#33719;&#21462;&#21629;&#20013;&#27979;&#35797;&#30340;target&#21015;&#34920;</text><polygon fill="#181818" points="575,535.4531,585,539.4531,575,543.4531,579,539.4531" style="stroke:#181818;stroke-width:1.0;"/><line style="stroke:#181818;stroke-width:1.0;" x1="166" x2="581" y1="539.4531" y2="539.4531"/><text fill="#000000" font-family="sans-serif" font-size="13" lengthAdjust="spacing" textLength="80" x="173" y="534.3872">handleEvent</text><line style="stroke:#181818;stroke-width:1.0;" x1="597" x2="644" y1="593.8516" y2="593.8516"/><line style="stroke:#181818;stroke-width:1.0;" x1="644" x2="644" y1="593.8516" y2="606.8516"/><line style="stroke:#181818;stroke-width:1.0;" x1="603" x2="644" y1="606.8516" y2="606.8516"/><polygon fill="#181818" points="613,602.8516,603,606.8516,613,610.8516,609,606.8516" style="stroke:#181818;stroke-width:1.0;"/><text fill="#000000" font-family="sans-serif" font-size="13" lengthAdjust="spacing" textLength="177" x="609" y="558.52">onPointerDown?.call(event)</text><text fill="#000000" font-family="sans-serif" font-size="13" lengthAdjust="spacing" textLength="199" x="609" y="573.6528">&#23545;&#24212;RawGestureDetectorState.</text><text fill="#000000" font-family="sans-serif" font-size="13" lengthAdjust="spacing" textLength="132" x="609" y="588.7856">_handlePointerDown</text><polygon fill="#181818" points="798,636.9844,808,640.9844,798,644.9844,802,640.9844" style="stroke:#181818;stroke-width:1.0;"/><line style="stroke:#181818;stroke-width:1.0;" x1="602" x2="804" y1="640.9844" y2="640.9844"/><text fill="#000000" font-family="sans-serif" font-size="13" lengthAdjust="spacing" textLength="116" x="609" y="635.9185">addPointer(event)</text><line style="stroke:#181818;stroke-width:1.0;" x1="820" x2="867" y1="695.1172" y2="695.1172"/><line style="stroke:#181818;stroke-width:1.0;" x1="867" x2="867" y1="695.1172" y2="708.1172"/><line style="stroke:#181818;stroke-width:1.0;" x1="826" x2="867" y1="708.1172" y2="708.1172"/><polygon fill="#181818" points="836,704.1172,826,708.1172,836,712.1172,832,708.1172" style="stroke:#181818;stroke-width:1.0;"/><text fill="#000000" font-family="sans-serif" font-size="13" lengthAdjust="spacing" textLength="166" x="832" y="690.0513">addAllowedPointer(event)</text><line style="stroke:#181818;stroke-width:1.0;" x1="825" x2="872" y1="737.25" y2="737.25"/><line style="stroke:#181818;stroke-width:1.0;" x1="872" x2="872" y1="737.25" y2="750.25"/><line style="stroke:#181818;stroke-width:1.0;" x1="831" x2="872" y1="750.25" y2="750.25"/><polygon fill="#181818" points="841,746.25,831,750.25,841,754.25,837,750.25" style="stroke:#181818;stroke-width:1.0;"/><text fill="#000000" font-family="sans-serif" font-size="13" lengthAdjust="spacing" textLength="184" x="837" y="732.1841">startTrackingPointer(pointer)</text><polygon fill="#181818" points="177,780.3828,167,784.3828,177,788.3828,173,784.3828" style="stroke:#181818;stroke-width:1.0;"/><line style="stroke:#181818;stroke-width:1.0;" x1="171" x2="819" y1="784.3828" y2="784.3828"/><text fill="#000000" font-family="sans-serif" font-size="13" lengthAdjust="spacing" textLength="236" x="183" y="779.3169">pointerRouter.addRoute &#21152;&#20837;&#21040;&#36335;&#30001;&#20013;</text><polygon fill="#181818" points="177,809.5156,167,813.5156,177,817.5156,173,813.5156" style="stroke:#181818;stroke-width:1.0;"/><line style="stroke:#181818;stroke-width:1.0;" x1="171" x2="814" y1="813.5156" y2="813.5156"/><text fill="#000000" font-family="sans-serif" font-size="13" lengthAdjust="spacing" textLength="309" x="183" y="808.4497">gestureArena.add(pointer, this) &#28155;&#21152;&#21040;&#20107;&#20214;&#31454;&#25216;&#22330;</text><line style="stroke:#181818;stroke-width:1.0;" x1="166" x2="213" y1="837.6484" y2="837.6484"/><line style="stroke:#181818;stroke-width:1.0;" x1="213" x2="213" y1="837.6484" y2="850.6484"/><line style="stroke:#181818;stroke-width:1.0;" x1="172" x2="213" y1="850.6484" y2="850.6484"/><polygon fill="#181818" points="182,846.6484,172,850.6484,182,854.6484,178,850.6484" style="stroke:#181818;stroke-width:1.0;"/><text fill="#000000" font-family="sans-serif" font-size="13" lengthAdjust="spacing" textLength="80" x="178" y="832.5825">handleEvent</text><line style="stroke:#181818;stroke-width:1.0;" x1="171" x2="218" y1="879.7813" y2="879.7813"/><line style="stroke:#181818;stroke-width:1.0;" x1="218" x2="218" y1="879.7813" y2="892.7813"/><line style="stroke:#181818;stroke-width:1.0;" x1="177" x2="218" y1="892.7813" y2="892.7813"/><polygon fill="#181818" points="187,888.7813,177,892.7813,187,896.7813,183,892.7813" style="stroke:#181818;stroke-width:1.0;"/><text fill="#000000" font-family="sans-serif" font-size="13" lengthAdjust="spacing" textLength="173" x="183" y="874.7153">pointerRouter.route(event)</text><polygon fill="#181818" points="798,922.9141,808,926.9141,798,930.9141,802,926.9141" style="stroke:#181818;stroke-width:1.0;"/><line style="stroke:#181818;stroke-width:1.0;" x1="176" x2="804" y1="926.9141" y2="926.9141"/><text fill="#000000" font-family="sans-serif" font-size="13" lengthAdjust="spacing" textLength="80" x="183" y="921.8481">handleEvent</text><line style="stroke:#181818;stroke-width:1.0;" x1="820" x2="862" y1="991.3125" y2="991.3125"/><line style="stroke:#181818;stroke-width:1.0;" x1="862" x2="862" y1="991.3125" y2="1004.3125"/><line style="stroke:#181818;stroke-width:1.0;" x1="815" x2="862" y1="1004.3125" y2="1004.3125"/><polygon fill="#181818" points="825,1000.3125,815,1004.3125,825,1008.3125,821,1004.3125" style="stroke:#181818;stroke-width:1.0;"/><text fill="#000000" font-family="sans-serif" font-size="13" lengthAdjust="spacing" textLength="169" x="827" y="955.981">&#27491;&#24120;&#25353;&#38190;&#25353;&#19979;&#30340;&#24773;&#20917;&#26080;&#25805;&#20316;&#12290;</text><text fill="#000000" font-family="sans-serif" font-size="13" lengthAdjust="spacing" textLength="169" x="827" y="971.1138">&#22312;&#35302;&#25720;&#28857;&#31227;&#20986;&#25353;&#38190;&#21306;&#22495;&#31561;&#29305;&#27530;</text><text fill="#000000" font-family="sans-serif" font-size="13" lengthAdjust="spacing" textLength="117" x="827" y="986.2466">&#24773;&#20917;&#20250;&#20570;&#28165;&#29702;&#25805;&#20316;&#12290;</text><line style="stroke:#181818;stroke-width:1.0;" x1="171" x2="218" y1="1038.5781" y2="1038.5781"/><line style="stroke:#181818;stroke-width:1.0;" x1="218" x2="218" y1="1038.5781" y2="1051.5781"/><line style="stroke:#181818;stroke-width:1.0;" x1="177" x2="218" y1="1051.5781" y2="1051.5781"/><polygon fill="#181818" points="187,1047.5781,177,1051.5781,187,1055.5781,183,1051.5781" style="stroke:#181818;stroke-width:1.0;"/><text fill="#000000" font-family="sans-serif" font-size="13" lengthAdjust="spacing" textLength="124" x="183" y="1018.3794">gestureArena.close</text><text fill="#000000" font-family="sans-serif" font-size="13" lengthAdjust="spacing" textLength="130" x="183" y="1033.5122">&#38459;&#27490;&#26032;&#20107;&#20214;&#31454;&#20105;&#32773;&#21152;&#20837;</text><path d="M88.5,1071.5781 L287.5,1071.5781 L287.5,1078.7109 L277.5,1088.7109 L88.5,1088.7109 L88.5,1071.5781 " fill="#EEEEEE" style="stroke:#000000;stroke-width:1.5;"/><rect fill="none" height="218.0625" style="stroke:#000000;stroke-width:1.5;" width="896.5" x="88.5" y="1071.5781"/><text fill="#000000" font-family="sans-serif" font-size="13" font-weight="bold" lengthAdjust="spacing" textLength="154" x="103.5" y="1084.645">&#21482;&#26377;&#19968;&#20010;&#31454;&#20105;&#32773;&#25165;&#20250;&#25191;&#34892;</text><line style="stroke:#181818;stroke-width:1.0;stroke-dasharray:2.0,2.0;" x1="176" x2="223" y1="1104.8438" y2="1104.8438"/><line style="stroke:#181818;stroke-width:1.0;stroke-dasharray:2.0,2.0;" x1="223" x2="223" y1="1104.8438" y2="1117.8438"/><line style="stroke:#181818;stroke-width:1.0;stroke-dasharray:2.0,2.0;" x1="182" x2="223" y1="1117.8438" y2="1117.8438"/><polygon fill="#181818" points="192,1113.8438,182,1117.8438,192,1121.8438,188,1117.8438" style="stroke:#181818;stroke-width:1.0;"/><text fill="#000000" font-family="sans-serif" font-size="13" lengthAdjust="spacing" textLength="117" x="188" y="1099.7778">scheduleMicrotask</text><line style="stroke:#181818;stroke-width:1.0;" x1="181" x2="223" y1="1167.1094" y2="1167.1094"/><line style="stroke:#181818;stroke-width:1.0;" x1="223" x2="223" y1="1167.1094" y2="1180.1094"/><line style="stroke:#181818;stroke-width:1.0;" x1="182" x2="223" y1="1180.1094" y2="1180.1094"/><polygon fill="#181818" points="192,1176.1094,182,1180.1094,192,1184.1094,188,1180.1094" style="stroke:#181818;stroke-width:1.0;"/><text fill="#000000" font-family="sans-serif" font-size="13" lengthAdjust="spacing" textLength="144" x="188" y="1146.9106">GestureArenaManager</text><text fill="#000000" font-family="sans-serif" font-size="13" lengthAdjust="spacing" textLength="164" x="188" y="1162.0435">&#21024;&#38500;pointer id&#23545;&#24212;&#30340;&#31454;&#25216;&#22330;</text><polygon fill="#181818" points="798,1205.2422,808,1209.2422,798,1213.2422,802,1209.2422" style="stroke:#181818;stroke-width:1.0;"/><line style="stroke:#181818;stroke-width:1.0;stroke-dasharray:2.0,2.0;" x1="181" x2="804" y1="1209.2422" y2="1209.2422"/><text fill="#000000" font-family="sans-serif" font-size="13" lengthAdjust="spacing" textLength="169" x="188" y="1204.1763">&#160;&#160;&#160;&#160;&#160;acceptGesture(pointer)</text><line style="stroke:#181818;stroke-width:1.0;" x1="820" x2="862" y1="1273.6406" y2="1273.6406"/><line style="stroke:#181818;stroke-width:1.0;" x1="862" x2="862" y1="1273.6406" y2="1286.6406"/><line style="stroke:#181818;stroke-width:1.0;" x1="815" x2="862" y1="1286.6406" y2="1286.6406"/><polygon fill="#181818" points="825,1282.6406,815,1286.6406,825,1290.6406,821,1286.6406" style="stroke:#181818;stroke-width:1.0;"/><text fill="#000000" font-family="sans-serif" font-size="13" lengthAdjust="spacing" textLength="143" x="827" y="1238.3091">&#21807;&#19968;&#30340;&#31454;&#20105;&#32773;&#27492;&#26102;&#24182;&#19981;&#20250;</text><text fill="#000000" font-family="sans-serif" font-size="13" lengthAdjust="spacing" textLength="143" x="827" y="1253.4419">&#31435;&#21051;&#35302;&#21457;&#28857;&#20987;&#20107;&#20214;&#22238;&#35843;&#65292;</text><text fill="#000000" font-family="sans-serif" font-size="13" lengthAdjust="spacing" textLength="146" x="827" y="1268.5747">&#32780;&#26159;&#31561;&#24453;up&#20107;&#20214;&#30340;&#21040;&#26469;&#12290;</text><!--SRC=[fLLRJnf167tdLsnZqe1MOr_wO8EDraiVQj9GqvUID9lT2MpSp9BTGTe-uGK5nLjgrLBhfVKM3Q8FAXTjVqntPfUd_eKEkuC2Be8j9BCmEz-PC-SxtpTlbVRkGQ2Xi0fw9IXACC1rSK4UYZ9ufKWG0RL_543aXsxsjq-9G6lAuwg9Q-_cNaXec4xwW1QM4TVQIh4WYBXSNY-7bwxqR9gSpPgPprpGNiTvlGuWDJDjRLsSsmUW25IWiabF1qDeBborejz887A_E24eoUA3SemVaejJdD_JBzTmB5uScyFpKpYzIBQM6YdHnV6YwAvKe1XDcR-cZTIaVR1UvRt79G9UGD8eZq0DbuP2jxVREx3PVeZK3qmowz0eA6cUnlbo0AaEAGFTGRMKQcCyXwSB8ZMAdf_L2-SuFeKNbffEjYXf8Hu9GSjbJP0svo_mmagbkbHNnAi1W71yrTm-SC2mnM6MVYbf242WMhlRthVtTbvrPxW2A-haMOV0ox8RMENYXpYJm_bb7nzXVFe00W9IrDU82jdXX- -gwgu4K9_1C1zYA3uWA04eVMG4Q0hPShPlPR8SuHelSDoi0OaUMLOYe9RBlP4qcaWqhFB22CrS6InaF-l3tUfeBCAdXEdOGUbPlpWyiuLZkpX-ObvaZELJQg3c8GFsH0zjBdm9iSpg4MTL2KSk2YNu-8bT1CRH1fc9ulLyfTnEc_tt-uP5LctoEfNCjGmCzD9FSpLRhQzQUfHJVZk-Rh8hQTtBAQK6ID8_S3PBaedYyZ4TzUmiRGDa8eQdpiZg5laqfr-j_uwEqp9SFp3tzyXIblOfOx-0f_Ds44xcyUQcaKuOYHmvdg7jtWhMBrDuB4MoCMDnwXhbNitQGQygymYoeW4_BAuLIFexMRanZ9vFcD6ORLBE5Q2oXZYyS4ZMwUcYUlRmUWb9p56Q9B5lRYTl4N0oW2O4WHYMmP0ag0hYjP7wDdZUMVesuwh1YaCDyP0F09Mg7TygVjbX_k0aqMw2D3Kt1U50kAv57hOyVjBvjDx82m888HRPk4tKzH9Upb25RP9CuVGEMJt7kNCzMvBQ3usZMHmlK2FHgys-yDXbztN3F9duSvdqGpEQ96iPQYZyCnOEiQoc9cbB8DzsxpRHlxoXhVil]--></g></svg>