<?xml version="1.0" encoding="us-ascii" standalone="no"?><svg xmlns="http://www.w3.org/2000/svg" xmlns:xlink="http://www.w3.org/1999/xlink" contentStyleType="text/css" height="435px" preserveAspectRatio="none" style="width:839px;height:435px;background:#FFFFFF;" version="1.1" viewBox="0 0 839 435" width="839px" zoomAndPan="magnify"><defs/><g><!--class RealCall--><g id="elem_RealCall"><rect fill="#F1F1F1" height="48" id="RealCall" rx="2.5" ry="2.5" style="stroke:#181818;stroke-width:0.5;" width="89" x="407" y="7"/><ellipse cx="422" cy="23" fill="#ADD1B2" rx="11" ry="11" style="stroke:#181818;stroke-width:1.0;"/><path d="M424.3438,18.6719 C423.4063,18.2344 422.8125,18.0938 421.9375,18.0938 C419.3125,18.0938 417.3125,20.1719 417.3125,22.8906 L417.3125,24.0156 C417.3125,26.5938 419.4219,28.4844 422.3125,28.4844 C423.5313,28.4844 424.6875,28.1875 425.4375,27.6406 C426.0156,27.2344 426.3438,26.7813 426.3438,26.3906 C426.3438,25.9375 425.9531,25.5469 425.4844,25.5469 C425.2656,25.5469 425.0625,25.625 424.875,25.8125 C424.4219,26.2969 424.4219,26.2969 424.2344,26.3906 C423.8125,26.6563 423.125,26.7813 422.3594,26.7813 C420.3125,26.7813 419.0156,25.6875 419.0156,23.9844 L419.0156,22.8906 C419.0156,21.1094 420.2656,19.7969 422,19.7969 C422.5781,19.7969 423.1875,19.9531 423.6563,20.2031 C424.1406,20.4844 424.3125,20.7031 424.4063,21.1094 C424.4688,21.5156 424.5,21.6406 424.6406,21.7656 C424.7813,21.9063 425.0156,22.0156 425.2344,22.0156 C425.5,22.0156 425.7656,21.875 425.9375,21.6563 C426.0469,21.5 426.0781,21.3125 426.0781,20.8906 L426.0781,19.4688 C426.0781,19.0313 426.0625,18.9063 425.9688,18.75 C425.8125,18.4844 425.5313,18.3438 425.2344,18.3438 C424.9375,18.3438 424.7344,18.4375 424.5156,18.75 L424.3438,18.6719 Z " fill="#000000"/><text fill="#000000" font-family="sans-serif" font-size="14" lengthAdjust="spacing" textLength="57" x="436" y="27.8467">RealCall</text><line style="stroke:#181818;stroke-width:0.5;" x1="408" x2="495" y1="39" y2="39"/><line style="stroke:#181818;stroke-width:0.5;" x1="408" x2="495" y1="47" y2="47"/></g><!--class OkHttpClient--><g id="elem_OkHttpClient"><rect fill="#F1F1F1" height="48" id="OkHttpClient" rx="2.5" ry="2.5" style="stroke:#181818;stroke-width:0.5;" width="129" x="531" y="7"/><ellipse cx="546" cy="23" fill="#ADD1B2" rx="11" ry="11" style="stroke:#181818;stroke-width:1.0;"/><path d="M548.3438,18.6719 C547.4063,18.2344 546.8125,18.0938 545.9375,18.0938 C543.3125,18.0938 541.3125,20.1719 541.3125,22.8906 L541.3125,24.0156 C541.3125,26.5938 543.4219,28.4844 546.3125,28.4844 C547.5313,28.4844 548.6875,28.1875 549.4375,27.6406 C550.0156,27.2344 550.3438,26.7813 550.3438,26.3906 C550.3438,25.9375 549.9531,25.5469 549.4844,25.5469 C549.2656,25.5469 549.0625,25.625 548.875,25.8125 C548.4219,26.2969 548.4219,26.2969 548.2344,26.3906 C547.8125,26.6563 547.125,26.7813 546.3594,26.7813 C544.3125,26.7813 543.0156,25.6875 543.0156,23.9844 L543.0156,22.8906 C543.0156,21.1094 544.2656,19.7969 546,19.7969 C546.5781,19.7969 547.1875,19.9531 547.6563,20.2031 C548.1406,20.4844 548.3125,20.7031 548.4063,21.1094 C548.4688,21.5156 548.5,21.6406 548.6406,21.7656 C548.7813,21.9063 549.0156,22.0156 549.2344,22.0156 C549.5,22.0156 549.7656,21.875 549.9375,21.6563 C550.0469,21.5 550.0781,21.3125 550.0781,20.8906 L550.0781,19.4688 C550.0781,19.0313 550.0625,18.9063 549.9688,18.75 C549.8125,18.4844 549.5313,18.3438 549.2344,18.3438 C548.9375,18.3438 548.7344,18.4375 548.5156,18.75 L548.3438,18.6719 Z " fill="#000000"/><text fill="#000000" font-family="sans-serif" font-size="14" lengthAdjust="spacing" textLength="97" x="560" y="27.8467">OkHttpClient</text><line style="stroke:#181818;stroke-width:0.5;" x1="532" x2="659" y1="39" y2="39"/><line style="stroke:#181818;stroke-width:0.5;" x1="532" x2="659" y1="47" y2="47"/></g><!--class RealInterceptorChain--><g id="elem_RealInterceptorChain"><rect codeLine="10" fill="#F1F1F1" height="96.8906" id="RealInterceptorChain" rx="2.5" ry="2.5" style="stroke:#181818;stroke-width:0.5;" width="244" x="329.5" y="115"/><ellipse cx="370.15" cy="131" fill="#ADD1B2" rx="11" ry="11" style="stroke:#181818;stroke-width:1.0;"/><path d="M372.4938,126.6719 C371.5563,126.2344 370.9625,126.0938 370.0875,126.0938 C367.4625,126.0938 365.4625,128.1719 365.4625,130.8906 L365.4625,132.0156 C365.4625,134.5938 367.5719,136.4844 370.4625,136.4844 C371.6813,136.4844 372.8375,136.1875 373.5875,135.6406 C374.1656,135.2344 374.4938,134.7813 374.4938,134.3906 C374.4938,133.9375 374.1031,133.5469 373.6344,133.5469 C373.4156,133.5469 373.2125,133.625 373.025,133.8125 C372.5719,134.2969 372.5719,134.2969 372.3844,134.3906 C371.9625,134.6563 371.275,134.7813 370.5094,134.7813 C368.4625,134.7813 367.1656,133.6875 367.1656,131.9844 L367.1656,130.8906 C367.1656,129.1094 368.4156,127.7969 370.15,127.7969 C370.7281,127.7969 371.3375,127.9531 371.8063,128.2031 C372.2906,128.4844 372.4625,128.7031 372.5563,129.1094 C372.6188,129.5156 372.65,129.6406 372.7906,129.7656 C372.9313,129.9063 373.1656,130.0156 373.3844,130.0156 C373.65,130.0156 373.9156,129.875 374.0875,129.6563 C374.1969,129.5 374.2281,129.3125 374.2281,128.8906 L374.2281,127.4688 C374.2281,127.0313 374.2125,126.9063 374.1188,126.75 C373.9625,126.4844 373.6813,126.3438 373.3844,126.3438 C373.0875,126.3438 372.8844,126.4375 372.6656,126.75 L372.4938,126.6719 Z " fill="#000000"/><text fill="#000000" font-family="sans-serif" font-size="14" lengthAdjust="spacing" textLength="155" x="389.85" y="135.8467">RealInterceptorChain</text><line style="stroke:#181818;stroke-width:0.5;" x1="330.5" x2="572.5" y1="147" y2="147"/><text fill="#000000" font-family="sans-serif" font-size="14" lengthAdjust="spacing" textLength="68" x="335.5" y="163.9951">index: Int</text><text fill="#000000" font-family="sans-serif" font-size="14" lengthAdjust="spacing" textLength="232" x="335.5" y="180.292">interceptors: List&lt;Interceptor&gt;</text><line style="stroke:#181818;stroke-width:0.5;" x1="330.5" x2="572.5" y1="187.5938" y2="187.5938"/><text fill="#000000" font-family="sans-serif" font-size="14" lengthAdjust="spacing" textLength="213" x="335.5" y="204.5889">Response proceed(Request r)</text></g><!--class Interceptor--><g id="elem_Interceptor"><rect codeLine="9" fill="#F1F1F1" height="48" id="Interceptor" rx="2.5" ry="2.5" style="stroke:#181818;stroke-width:0.5;" width="111" x="231" y="272"/><ellipse cx="246" cy="288" fill="#B4A7E5" rx="11" ry="11" style="stroke:#181818;stroke-width:1.0;"/><path d="M246.9531,284.7813 L248.6719,284.7813 C249.0625,284.7813 249.25,284.75 249.375,284.6719 C249.6406,284.5156 249.7813,284.2344 249.7813,283.9375 C249.7813,283.6719 249.6719,283.4063 249.4375,283.2344 C249.2656,283.125 249.125,283.0938 248.6719,283.0938 L243.5313,283.0938 C243.0938,283.0938 242.9688,283.1094 242.8125,283.2031 C242.5625,283.3594 242.4063,283.6563 242.4063,283.9375 C242.4063,284.2188 242.5469,284.4688 242.7656,284.6406 C242.9219,284.75 243.1094,284.7813 243.5313,284.7813 L245.25,284.7813 L245.25,291.2969 L243.5313,291.2969 C243.0938,291.2969 242.9688,291.3125 242.8125,291.4219 C242.5625,291.5781 242.4063,291.8594 242.4063,292.1563 C242.4063,292.4063 242.5469,292.6719 242.7656,292.8281 C242.9219,292.9531 243.125,293 243.5313,293 L248.6719,293 C249.4219,293 249.7813,292.7188 249.7813,292.1563 C249.7813,291.875 249.6719,291.625 249.4375,291.4531 C249.2656,291.3281 249.125,291.2969 248.6719,291.2969 L246.9531,291.2969 L246.9531,284.7813 Z " fill="#000000"/><text fill="#000000" font-family="sans-serif" font-size="14" font-style="italic" lengthAdjust="spacing" textLength="79" x="260" y="292.8467">Interceptor</text><line style="stroke:#181818;stroke-width:0.5;" x1="232" x2="341" y1="304" y2="304"/><line style="stroke:#181818;stroke-width:0.5;" x1="232" x2="341" y1="312" y2="312"/></g><!--class ExchangeFinder--><g id="elem_ExchangeFinder"><rect fill="#F1F1F1" height="48" id="ExchangeFinder" rx="2.5" ry="2.5" style="stroke:#181818;stroke-width:0.5;" width="146" x="670.5" y="272"/><ellipse cx="685.5" cy="288" fill="#ADD1B2" rx="11" ry="11" style="stroke:#181818;stroke-width:1.0;"/><path d="M687.8438,283.6719 C686.9063,283.2344 686.3125,283.0938 685.4375,283.0938 C682.8125,283.0938 680.8125,285.1719 680.8125,287.8906 L680.8125,289.0156 C680.8125,291.5938 682.9219,293.4844 685.8125,293.4844 C687.0313,293.4844 688.1875,293.1875 688.9375,292.6406 C689.5156,292.2344 689.8438,291.7813 689.8438,291.3906 C689.8438,290.9375 689.4531,290.5469 688.9844,290.5469 C688.7656,290.5469 688.5625,290.625 688.375,290.8125 C687.9219,291.2969 687.9219,291.2969 687.7344,291.3906 C687.3125,291.6563 686.625,291.7813 685.8594,291.7813 C683.8125,291.7813 682.5156,290.6875 682.5156,288.9844 L682.5156,287.8906 C682.5156,286.1094 683.7656,284.7969 685.5,284.7969 C686.0781,284.7969 686.6875,284.9531 687.1563,285.2031 C687.6406,285.4844 687.8125,285.7031 687.9063,286.1094 C687.9688,286.5156 688,286.6406 688.1406,286.7656 C688.2813,286.9063 688.5156,287.0156 688.7344,287.0156 C689,287.0156 689.2656,286.875 689.4375,286.6563 C689.5469,286.5 689.5781,286.3125 689.5781,285.8906 L689.5781,284.4688 C689.5781,284.0313 689.5625,283.9063 689.4688,283.75 C689.3125,283.4844 689.0313,283.3438 688.7344,283.3438 C688.4375,283.3438 688.2344,283.4375 688.0156,283.75 L687.8438,283.6719 Z " fill="#000000"/><text fill="#000000" font-family="sans-serif" font-size="14" lengthAdjust="spacing" textLength="114" x="699.5" y="292.8467">ExchangeFinder</text><line style="stroke:#181818;stroke-width:0.5;" x1="671.5" x2="815.5" y1="304" y2="304"/><line style="stroke:#181818;stroke-width:0.5;" x1="671.5" x2="815.5" y1="312" y2="312"/></g><!--class RealConnectionPool--><g id="elem_RealConnectionPool"><rect fill="#F1F1F1" height="48" id="RealConnectionPool" rx="2.5" ry="2.5" style="stroke:#181818;stroke-width:0.5;" width="177" x="655" y="380"/><ellipse cx="670" cy="396" fill="#ADD1B2" rx="11" ry="11" style="stroke:#181818;stroke-width:1.0;"/><path d="M672.3438,391.6719 C671.4063,391.2344 670.8125,391.0938 669.9375,391.0938 C667.3125,391.0938 665.3125,393.1719 665.3125,395.8906 L665.3125,397.0156 C665.3125,399.5938 667.4219,401.4844 670.3125,401.4844 C671.5313,401.4844 672.6875,401.1875 673.4375,400.6406 C674.0156,400.2344 674.3438,399.7813 674.3438,399.3906 C674.3438,398.9375 673.9531,398.5469 673.4844,398.5469 C673.2656,398.5469 673.0625,398.625 672.875,398.8125 C672.4219,399.2969 672.4219,399.2969 672.2344,399.3906 C671.8125,399.6563 671.125,399.7813 670.3594,399.7813 C668.3125,399.7813 667.0156,398.6875 667.0156,396.9844 L667.0156,395.8906 C667.0156,394.1094 668.2656,392.7969 670,392.7969 C670.5781,392.7969 671.1875,392.9531 671.6563,393.2031 C672.1406,393.4844 672.3125,393.7031 672.4063,394.1094 C672.4688,394.5156 672.5,394.6406 672.6406,394.7656 C672.7813,394.9063 673.0156,395.0156 673.2344,395.0156 C673.5,395.0156 673.7656,394.875 673.9375,394.6563 C674.0469,394.5 674.0781,394.3125 674.0781,393.8906 L674.0781,392.4688 C674.0781,392.0313 674.0625,391.9063 673.9688,391.75 C673.8125,391.4844 673.5313,391.3438 673.2344,391.3438 C672.9375,391.3438 672.7344,391.4375 672.5156,391.75 L672.3438,391.6719 Z " fill="#000000"/><text fill="#000000" font-family="sans-serif" font-size="14" lengthAdjust="spacing" textLength="145" x="684" y="400.8467">RealConnectionPool</text><line style="stroke:#181818;stroke-width:0.5;" x1="656" x2="831" y1="412" y2="412"/><line style="stroke:#181818;stroke-width:0.5;" x1="656" x2="831" y1="420" y2="420"/></g><!--class Exchange--><g id="elem_Exchange"><rect fill="#F1F1F1" height="48" id="Exchange" rx="2.5" ry="2.5" style="stroke:#181818;stroke-width:0.5;" width="101" x="609" y="139.5"/><ellipse cx="624" cy="155.5" fill="#ADD1B2" rx="11" ry="11" style="stroke:#181818;stroke-width:1.0;"/><path d="M626.3438,151.1719 C625.4063,150.7344 624.8125,150.5938 623.9375,150.5938 C621.3125,150.5938 619.3125,152.6719 619.3125,155.3906 L619.3125,156.5156 C619.3125,159.0938 621.4219,160.9844 624.3125,160.9844 C625.5313,160.9844 626.6875,160.6875 627.4375,160.1406 C628.0156,159.7344 628.3438,159.2813 628.3438,158.8906 C628.3438,158.4375 627.9531,158.0469 627.4844,158.0469 C627.2656,158.0469 627.0625,158.125 626.875,158.3125 C626.4219,158.7969 626.4219,158.7969 626.2344,158.8906 C625.8125,159.1563 625.125,159.2813 624.3594,159.2813 C622.3125,159.2813 621.0156,158.1875 621.0156,156.4844 L621.0156,155.3906 C621.0156,153.6094 622.2656,152.2969 624,152.2969 C624.5781,152.2969 625.1875,152.4531 625.6563,152.7031 C626.1406,152.9844 626.3125,153.2031 626.4063,153.6094 C626.4688,154.0156 626.5,154.1406 626.6406,154.2656 C626.7813,154.4063 627.0156,154.5156 627.2344,154.5156 C627.5,154.5156 627.7656,154.375 627.9375,154.1563 C628.0469,154 628.0781,153.8125 628.0781,153.3906 L628.0781,151.9688 C628.0781,151.5313 628.0625,151.4063 627.9688,151.25 C627.8125,150.9844 627.5313,150.8438 627.2344,150.8438 C626.9375,150.8438 626.7344,150.9375 626.5156,151.25 L626.3438,151.1719 Z " fill="#000000"/><text fill="#000000" font-family="sans-serif" font-size="14" lengthAdjust="spacing" textLength="69" x="638" y="160.3467">Exchange</text><line style="stroke:#181818;stroke-width:0.5;" x1="610" x2="709" y1="171.5" y2="171.5"/><line style="stroke:#181818;stroke-width:0.5;" x1="610" x2="709" y1="179.5" y2="179.5"/></g><!--class RetryAndFollowUpInterceptor--><g id="elem_RetryAndFollowUpInterceptor"><rect fill="#F1F1F1" height="48" id="RetryAndFollowUpInterceptor" rx="2.5" ry="2.5" style="stroke:#181818;stroke-width:0.5;" width="248" x="377.5" y="272"/><ellipse cx="392.5" cy="288" fill="#ADD1B2" rx="11" ry="11" style="stroke:#181818;stroke-width:1.0;"/><path d="M394.8438,283.6719 C393.9063,283.2344 393.3125,283.0938 392.4375,283.0938 C389.8125,283.0938 387.8125,285.1719 387.8125,287.8906 L387.8125,289.0156 C387.8125,291.5938 389.9219,293.4844 392.8125,293.4844 C394.0313,293.4844 395.1875,293.1875 395.9375,292.6406 C396.5156,292.2344 396.8438,291.7813 396.8438,291.3906 C396.8438,290.9375 396.4531,290.5469 395.9844,290.5469 C395.7656,290.5469 395.5625,290.625 395.375,290.8125 C394.9219,291.2969 394.9219,291.2969 394.7344,291.3906 C394.3125,291.6563 393.625,291.7813 392.8594,291.7813 C390.8125,291.7813 389.5156,290.6875 389.5156,288.9844 L389.5156,287.8906 C389.5156,286.1094 390.7656,284.7969 392.5,284.7969 C393.0781,284.7969 393.6875,284.9531 394.1563,285.2031 C394.6406,285.4844 394.8125,285.7031 394.9063,286.1094 C394.9688,286.5156 395,286.6406 395.1406,286.7656 C395.2813,286.9063 395.5156,287.0156 395.7344,287.0156 C396,287.0156 396.2656,286.875 396.4375,286.6563 C396.5469,286.5 396.5781,286.3125 396.5781,285.8906 L396.5781,284.4688 C396.5781,284.0313 396.5625,283.9063 396.4688,283.75 C396.3125,283.4844 396.0313,283.3438 395.7344,283.3438 C395.4375,283.3438 395.2344,283.4375 395.0156,283.75 L394.8438,283.6719 Z " fill="#000000"/><text fill="#000000" font-family="sans-serif" font-size="14" lengthAdjust="spacing" textLength="216" x="406.5" y="292.8467">RetryAndFollowUpInterceptor</text><line style="stroke:#181818;stroke-width:0.5;" x1="378.5" x2="624.5" y1="304" y2="304"/><line style="stroke:#181818;stroke-width:0.5;" x1="378.5" x2="624.5" y1="312" y2="312"/></g><!--class BridgeInterceptor--><g id="elem_BridgeInterceptor"><rect fill="#F1F1F1" height="48" id="BridgeInterceptor" rx="2.5" ry="2.5" style="stroke:#181818;stroke-width:0.5;" width="163" x="8" y="380"/><ellipse cx="23" cy="396" fill="#ADD1B2" rx="11" ry="11" style="stroke:#181818;stroke-width:1.0;"/><path d="M25.3438,391.6719 C24.4063,391.2344 23.8125,391.0938 22.9375,391.0938 C20.3125,391.0938 18.3125,393.1719 18.3125,395.8906 L18.3125,397.0156 C18.3125,399.5938 20.4219,401.4844 23.3125,401.4844 C24.5313,401.4844 25.6875,401.1875 26.4375,400.6406 C27.0156,400.2344 27.3438,399.7813 27.3438,399.3906 C27.3438,398.9375 26.9531,398.5469 26.4844,398.5469 C26.2656,398.5469 26.0625,398.625 25.875,398.8125 C25.4219,399.2969 25.4219,399.2969 25.2344,399.3906 C24.8125,399.6563 24.125,399.7813 23.3594,399.7813 C21.3125,399.7813 20.0156,398.6875 20.0156,396.9844 L20.0156,395.8906 C20.0156,394.1094 21.2656,392.7969 23,392.7969 C23.5781,392.7969 24.1875,392.9531 24.6563,393.2031 C25.1406,393.4844 25.3125,393.7031 25.4063,394.1094 C25.4688,394.5156 25.5,394.6406 25.6406,394.7656 C25.7813,394.9063 26.0156,395.0156 26.2344,395.0156 C26.5,395.0156 26.7656,394.875 26.9375,394.6563 C27.0469,394.5 27.0781,394.3125 27.0781,393.8906 L27.0781,392.4688 C27.0781,392.0313 27.0625,391.9063 26.9688,391.75 C26.8125,391.4844 26.5313,391.3438 26.2344,391.3438 C25.9375,391.3438 25.7344,391.4375 25.5156,391.75 L25.3438,391.6719 Z " fill="#000000"/><text fill="#000000" font-family="sans-serif" font-size="14" lengthAdjust="spacing" textLength="131" x="37" y="400.8467">BridgeInterceptor</text><line style="stroke:#181818;stroke-width:0.5;" x1="9" x2="170" y1="412" y2="412"/><line style="stroke:#181818;stroke-width:0.5;" x1="9" x2="170" y1="420" y2="420"/></g><!--class CacheInterceptor--><g id="elem_CacheInterceptor"><rect fill="#F1F1F1" height="48" id="CacheInterceptor" rx="2.5" ry="2.5" style="stroke:#181818;stroke-width:0.5;" width="160" x="206.5" y="380"/><ellipse cx="221.5" cy="396" fill="#ADD1B2" rx="11" ry="11" style="stroke:#181818;stroke-width:1.0;"/><path d="M223.8438,391.6719 C222.9063,391.2344 222.3125,391.0938 221.4375,391.0938 C218.8125,391.0938 216.8125,393.1719 216.8125,395.8906 L216.8125,397.0156 C216.8125,399.5938 218.9219,401.4844 221.8125,401.4844 C223.0313,401.4844 224.1875,401.1875 224.9375,400.6406 C225.5156,400.2344 225.8438,399.7813 225.8438,399.3906 C225.8438,398.9375 225.4531,398.5469 224.9844,398.5469 C224.7656,398.5469 224.5625,398.625 224.375,398.8125 C223.9219,399.2969 223.9219,399.2969 223.7344,399.3906 C223.3125,399.6563 222.625,399.7813 221.8594,399.7813 C219.8125,399.7813 218.5156,398.6875 218.5156,396.9844 L218.5156,395.8906 C218.5156,394.1094 219.7656,392.7969 221.5,392.7969 C222.0781,392.7969 222.6875,392.9531 223.1563,393.2031 C223.6406,393.4844 223.8125,393.7031 223.9063,394.1094 C223.9688,394.5156 224,394.6406 224.1406,394.7656 C224.2813,394.9063 224.5156,395.0156 224.7344,395.0156 C225,395.0156 225.2656,394.875 225.4375,394.6563 C225.5469,394.5 225.5781,394.3125 225.5781,393.8906 L225.5781,392.4688 C225.5781,392.0313 225.5625,391.9063 225.4688,391.75 C225.3125,391.4844 225.0313,391.3438 224.7344,391.3438 C224.4375,391.3438 224.2344,391.4375 224.0156,391.75 L223.8438,391.6719 Z " fill="#000000"/><text fill="#000000" font-family="sans-serif" font-size="14" lengthAdjust="spacing" textLength="128" x="235.5" y="400.8467">CacheInterceptor</text><line style="stroke:#181818;stroke-width:0.5;" x1="207.5" x2="365.5" y1="412" y2="412"/><line style="stroke:#181818;stroke-width:0.5;" x1="207.5" x2="365.5" y1="420" y2="420"/></g><!--class ConnectInterceptor--><g id="elem_ConnectInterceptor"><rect fill="#F1F1F1" height="48" id="ConnectInterceptor" rx="2.5" ry="2.5" style="stroke:#181818;stroke-width:0.5;" width="177" x="402" y="380"/><ellipse cx="417" cy="396" fill="#ADD1B2" rx="11" ry="11" style="stroke:#181818;stroke-width:1.0;"/><path d="M419.3438,391.6719 C418.4063,391.2344 417.8125,391.0938 416.9375,391.0938 C414.3125,391.0938 412.3125,393.1719 412.3125,395.8906 L412.3125,397.0156 C412.3125,399.5938 414.4219,401.4844 417.3125,401.4844 C418.5313,401.4844 419.6875,401.1875 420.4375,400.6406 C421.0156,400.2344 421.3438,399.7813 421.3438,399.3906 C421.3438,398.9375 420.9531,398.5469 420.4844,398.5469 C420.2656,398.5469 420.0625,398.625 419.875,398.8125 C419.4219,399.2969 419.4219,399.2969 419.2344,399.3906 C418.8125,399.6563 418.125,399.7813 417.3594,399.7813 C415.3125,399.7813 414.0156,398.6875 414.0156,396.9844 L414.0156,395.8906 C414.0156,394.1094 415.2656,392.7969 417,392.7969 C417.5781,392.7969 418.1875,392.9531 418.6563,393.2031 C419.1406,393.4844 419.3125,393.7031 419.4063,394.1094 C419.4688,394.5156 419.5,394.6406 419.6406,394.7656 C419.7813,394.9063 420.0156,395.0156 420.2344,395.0156 C420.5,395.0156 420.7656,394.875 420.9375,394.6563 C421.0469,394.5 421.0781,394.3125 421.0781,393.8906 L421.0781,392.4688 C421.0781,392.0313 421.0625,391.9063 420.9688,391.75 C420.8125,391.4844 420.5313,391.3438 420.2344,391.3438 C419.9375,391.3438 419.7344,391.4375 419.5156,391.75 L419.3438,391.6719 Z " fill="#000000"/><text fill="#000000" font-family="sans-serif" font-size="14" lengthAdjust="spacing" textLength="145" x="431" y="400.8467">ConnectInterceptor</text><line style="stroke:#181818;stroke-width:0.5;" x1="403" x2="578" y1="412" y2="412"/><line style="stroke:#181818;stroke-width:0.5;" x1="403" x2="578" y1="420" y2="420"/></g><!--class CallServerInterceptor--><g id="elem_CallServerInterceptor"><rect fill="#F1F1F1" height="48" id="CallServerInterceptor" rx="2.5" ry="2.5" style="stroke:#181818;stroke-width:0.5;" width="189" x="7" y="272"/><ellipse cx="22" cy="288" fill="#ADD1B2" rx="11" ry="11" style="stroke:#181818;stroke-width:1.0;"/><path d="M24.3438,283.6719 C23.4063,283.2344 22.8125,283.0938 21.9375,283.0938 C19.3125,283.0938 17.3125,285.1719 17.3125,287.8906 L17.3125,289.0156 C17.3125,291.5938 19.4219,293.4844 22.3125,293.4844 C23.5313,293.4844 24.6875,293.1875 25.4375,292.6406 C26.0156,292.2344 26.3438,291.7813 26.3438,291.3906 C26.3438,290.9375 25.9531,290.5469 25.4844,290.5469 C25.2656,290.5469 25.0625,290.625 24.875,290.8125 C24.4219,291.2969 24.4219,291.2969 24.2344,291.3906 C23.8125,291.6563 23.125,291.7813 22.3594,291.7813 C20.3125,291.7813 19.0156,290.6875 19.0156,288.9844 L19.0156,287.8906 C19.0156,286.1094 20.2656,284.7969 22,284.7969 C22.5781,284.7969 23.1875,284.9531 23.6563,285.2031 C24.1406,285.4844 24.3125,285.7031 24.4063,286.1094 C24.4688,286.5156 24.5,286.6406 24.6406,286.7656 C24.7813,286.9063 25.0156,287.0156 25.2344,287.0156 C25.5,287.0156 25.7656,286.875 25.9375,286.6563 C26.0469,286.5 26.0781,286.3125 26.0781,285.8906 L26.0781,284.4688 C26.0781,284.0313 26.0625,283.9063 25.9688,283.75 C25.8125,283.4844 25.5313,283.3438 25.2344,283.3438 C24.9375,283.3438 24.7344,283.4375 24.5156,283.75 L24.3438,283.6719 Z " fill="#000000"/><text fill="#000000" font-family="sans-serif" font-size="14" lengthAdjust="spacing" textLength="157" x="36" y="292.8467">CallServerInterceptor</text><line style="stroke:#181818;stroke-width:0.5;" x1="8" x2="195" y1="304" y2="304"/><line style="stroke:#181818;stroke-width:0.5;" x1="8" x2="195" y1="312" y2="312"/></g><!--reverse link RealCall to OkHttpClient--><g id="link_RealCall_OkHttpClient"><path codeLine="1" d="M508.219,31 C519.724,31 519.229,31 530.734,31 " fill="none" id="RealCall-backto-OkHttpClient" style="stroke:#181818;stroke-width:1.0;"/><polygon fill="#181818" points="496.219,31,502.219,35,508.219,31,502.219,27,496.219,31" style="stroke:#181818;stroke-width:1.0;"/></g><!--link RealCall to RealInterceptorChain--><g id="link_RealCall_RealInterceptorChain"><path codeLine="2" d="M451.5,55.03 C451.5,71.567 451.5,88.444 451.5,108.843 " fill="none" id="RealCall-to-RealInterceptorChain" style="stroke:#181818;stroke-width:1.0;"/><polygon fill="#181818" points="451.5,114.843,455.5,105.843,451.5,109.843,447.5,105.843,451.5,114.843" style="stroke:#181818;stroke-width:1.0;"/></g><!--link RealCall to Interceptor--><g id="link_RealCall_Interceptor"><path codeLine="3" d="M406.826,46.572 C374.936,59.398 333.874,81.354 311.5,115 C279.355,163.34 279.9831,229.2027 283.1711,265.7877 " fill="none" id="RealCall-to-Interceptor" style="stroke:#181818;stroke-width:1.0;"/><polygon fill="#181818" points="283.692,271.765,286.8956,262.4517,283.2579,266.7839,278.9258,263.1462,283.692,271.765" style="stroke:#181818;stroke-width:1.0;"/></g><!--reverse link RealCall to ExchangeFinder--><g id="link_RealCall_ExchangeFinder"><path codeLine="4" d="M507.35,53.0588 C513.194,55.1458 507.822,53.154 513.5,55 C607.44,85.537 664.392,39.009 727.5,115 C764.681,159.771 756.38,234.17 748.988,271.752 " fill="none" id="RealCall-backto-ExchangeFinder" style="stroke:#181818;stroke-width:1.0;"/><polygon fill="#181818" points="496.049,49.023,500.3542,54.8079,507.35,53.0588,503.0448,47.2739,496.049,49.023" style="stroke:#181818;stroke-width:1.0;"/></g><!--reverse link ExchangeFinder to RealConnectionPool--><g id="link_ExchangeFinder_RealConnectionPool"><path codeLine="5" d="M743.5,332 C743.5,349.6584 743.5,361.9408 743.5,379.6784 " fill="none" id="ExchangeFinder-backto-RealConnectionPool" style="stroke:#181818;stroke-width:1.0;"/><polygon fill="#181818" points="743.5,320,739.5,326,743.5,332,747.5,326,743.5,320" style="stroke:#181818;stroke-width:1.0;"/></g><!--reverse link Exchange to ExchangeFinder--><g id="link_Exchange_ExchangeFinder"><path codeLine="6" d="M680.8189,197.6204 C696.0789,221.3284 713.232,247.977 728.541,271.761 " fill="none" id="Exchange-backto-ExchangeFinder" style="stroke:#181818;stroke-width:1.0;"/><polygon fill="#181818" points="674.324,187.53,674.2079,194.7402,680.8189,197.6204,680.9349,190.4103,674.324,187.53" style="stroke:#181818;stroke-width:1.0;"/></g><!--reverse link RealInterceptorChain to Exchange--><g id="link_RealInterceptorChain_Exchange"><path codeLine="7" d="M585.781,163.5 C597.501,163.5 597.22,163.5 608.939,163.5 " fill="none" id="RealInterceptorChain-backto-Exchange" style="stroke:#181818;stroke-width:1.0;"/><polygon fill="#181818" points="573.781,163.5,579.781,167.5,585.781,163.5,579.781,159.5,573.781,163.5" style="stroke:#181818;stroke-width:1.0;"/></g><!--reverse link RealInterceptorChain to Interceptor--><g id="link_RealInterceptorChain_Interceptor"><path codeLine="15" d="M381.585,219.7961 C356.016,240.0191 336.818,255.203 316.008,271.662 " fill="none" id="RealInterceptorChain-backto-Interceptor" style="stroke:#181818;stroke-width:1.0;"/><polygon fill="#181818" points="390.997,212.352,383.8096,212.9367,381.585,219.7961,388.7724,219.2114,390.997,212.352" style="stroke:#181818;stroke-width:1.0;"/><text fill="#000000" font-family="sans-serif" font-size="13" lengthAdjust="spacing" textLength="8" x="374.3294" y="232.0075">1</text><text fill="#000000" font-family="sans-serif" font-size="13" lengthAdjust="spacing" textLength="8" x="314.2256" y="260.9846">n</text></g><!--reverse link Interceptor to RetryAndFollowUpInterceptor--><g id="link_Interceptor_RetryAndFollowUpInterceptor"><path codeLine="17" d="M360.35,296 C372.058,296 365.766,296 377.475,296 " fill="none" id="Interceptor-backto-RetryAndFollowUpInterceptor" style="stroke:#181818;stroke-width:1.0;"/><polygon fill="none" points="342.35,296,360.35,302,360.35,290,342.35,296" style="stroke:#181818;stroke-width:1.0;"/></g><!--reverse link Interceptor to BridgeInterceptor--><g id="link_Interceptor_BridgeInterceptor"><path codeLine="18" d="M227.9031,328.5292 C194.9731,346.2485 165.497,362.1083 132.502,379.8617 " fill="none" id="Interceptor-backto-BridgeInterceptor" style="stroke:#181818;stroke-width:1.0;"/><polygon fill="none" points="243.754,320,225.06,323.2456,230.7461,333.8129,243.754,320" style="stroke:#181818;stroke-width:1.0;"/></g><!--reverse link Interceptor to CacheInterceptor--><g id="link_Interceptor_CacheInterceptor"><path codeLine="19" d="M286.5,338 C286.5,355.6584 286.5,361.9408 286.5,379.6784 " fill="none" id="Interceptor-backto-CacheInterceptor" style="stroke:#181818;stroke-width:1.0;"/><polygon fill="none" points="286.5,320,280.5,338,292.5,338,286.5,320" style="stroke:#181818;stroke-width:1.0;"/></g><!--reverse link Interceptor to ConnectInterceptor--><g id="link_Interceptor_ConnectInterceptor"><path codeLine="20" d="M346.7373,328.2997 C380.8373,346.019 411.803,362.1083 445.97,379.8617 " fill="none" id="Interceptor-backto-ConnectInterceptor" style="stroke:#181818;stroke-width:1.0;"/><polygon fill="none" points="330.765,320,343.9708,333.6238,349.5039,322.9756,330.765,320" style="stroke:#181818;stroke-width:1.0;"/></g><!--link CallServerInterceptor to Interceptor--><g id="link_CallServerInterceptor_Interceptor"><path codeLine="21" d="M196.168,296 C207.695,296 201.221,296 212.748,296 " fill="none" id="CallServerInterceptor-to-Interceptor" style="stroke:#181818;stroke-width:1.0;"/><polygon fill="none" points="230.748,296,212.748,290,212.748,302,230.748,296" style="stroke:#181818;stroke-width:1.0;"/></g><!--SRC=[XP51ImCn48Nl-HN3dbJ8mMif1Lqi2WLbnHyGijDkS9YaoQWLzR-xMRLcozBczdZVlBn96ZHK6oAuq73_V2iIQdB8efe_G-i5P777Wj5Y41_hpZWU4uNxR_IPDplR6TxWqd6BKOrb3-WXk_RCQCLvVl2UzjJW7oHCLIalKifbTsqiZafPCYbDBW8V2lgJutUpFFChzrIQmSebcHU3Yu5fC0NF2I54Rn7RimQtBvW4uhdwccvQNLR3LXLNetgg433_pCyYyVsAswKdyczFeOGFM0tNqRKRF8hKndOdY9zFEC8GhYKd4JrYVCLOsDy0]--></g></svg>