<?xml version="1.0" encoding="us-ascii" standalone="no"?><svg xmlns="http://www.w3.org/2000/svg" xmlns:xlink="http://www.w3.org/1999/xlink" contentStyleType="text/css" height="682px" preserveAspectRatio="none" style="width:900px;height:682px;background:#FFFFFF;" version="1.1" viewBox="0 0 900 682" width="900px" zoomAndPan="magnify"><defs/><g><!--class ReachabilityWatcher--><g id="elem_ReachabilityWatcher"><rect codeLine="1" fill="#F1F1F1" height="48" id="ReachabilityWatcher" rx="2.5" ry="2.5" style="stroke:#181818;stroke-width:0.5;" width="180" x="191.5" y="7"/><ellipse cx="206.5" cy="23" fill="#B4A7E5" rx="11" ry="11" style="stroke:#181818;stroke-width:1.0;"/><path d="M207.4531,19.7813 L209.1719,19.7813 C209.5625,19.7813 209.75,19.75 209.875,19.6719 C210.1406,19.5156 210.2813,19.2344 210.2813,18.9375 C210.2813,18.6719 210.1719,18.4063 209.9375,18.2344 C209.7656,18.125 209.625,18.0938 209.1719,18.0938 L204.0313,18.0938 C203.5938,18.0938 203.4688,18.1094 203.3125,18.2031 C203.0625,18.3594 202.9063,18.6563 202.9063,18.9375 C202.9063,19.2188 203.0469,19.4688 203.2656,19.6406 C203.4219,19.75 203.6094,19.7813 204.0313,19.7813 L205.75,19.7813 L205.75,26.2969 L204.0313,26.2969 C203.5938,26.2969 203.4688,26.3125 203.3125,26.4219 C203.0625,26.5781 202.9063,26.8594 202.9063,27.1563 C202.9063,27.4063 203.0469,27.6719 203.2656,27.8281 C203.4219,27.9531 203.625,28 204.0313,28 L209.1719,28 C209.9219,28 210.2813,27.7188 210.2813,27.1563 C210.2813,26.875 210.1719,26.625 209.9375,26.4531 C209.7656,26.3281 209.625,26.2969 209.1719,26.2969 L207.4531,26.2969 L207.4531,19.7813 Z " fill="#000000"/><text fill="#000000" font-family="sans-serif" font-size="14" font-style="italic" lengthAdjust="spacing" textLength="148" x="220.5" y="27.8467">ReachabilityWatcher</text><line style="stroke:#181818;stroke-width:0.5;" x1="192.5" x2="370.5" y1="39" y2="39"/><line style="stroke:#181818;stroke-width:0.5;" x1="192.5" x2="370.5" y1="47" y2="47"/></g><!--class ActivityWatcher--><g id="elem_ActivityWatcher"><rect fill="#F1F1F1" height="48" id="ActivityWatcher" rx="2.5" ry="2.5" style="stroke:#181818;stroke-width:0.5;" width="149" x="7" y="7"/><ellipse cx="22" cy="23" fill="#ADD1B2" rx="11" ry="11" style="stroke:#181818;stroke-width:1.0;"/><path d="M24.3438,18.6719 C23.4063,18.2344 22.8125,18.0938 21.9375,18.0938 C19.3125,18.0938 17.3125,20.1719 17.3125,22.8906 L17.3125,24.0156 C17.3125,26.5938 19.4219,28.4844 22.3125,28.4844 C23.5313,28.4844 24.6875,28.1875 25.4375,27.6406 C26.0156,27.2344 26.3438,26.7813 26.3438,26.3906 C26.3438,25.9375 25.9531,25.5469 25.4844,25.5469 C25.2656,25.5469 25.0625,25.625 24.875,25.8125 C24.4219,26.2969 24.4219,26.2969 24.2344,26.3906 C23.8125,26.6563 23.125,26.7813 22.3594,26.7813 C20.3125,26.7813 19.0156,25.6875 19.0156,23.9844 L19.0156,22.8906 C19.0156,21.1094 20.2656,19.7969 22,19.7969 C22.5781,19.7969 23.1875,19.9531 23.6563,20.2031 C24.1406,20.4844 24.3125,20.7031 24.4063,21.1094 C24.4688,21.5156 24.5,21.6406 24.6406,21.7656 C24.7813,21.9063 25.0156,22.0156 25.2344,22.0156 C25.5,22.0156 25.7656,21.875 25.9375,21.6563 C26.0469,21.5 26.0781,21.3125 26.0781,20.8906 L26.0781,19.4688 C26.0781,19.0313 26.0625,18.9063 25.9688,18.75 C25.8125,18.4844 25.5313,18.3438 25.2344,18.3438 C24.9375,18.3438 24.7344,18.4375 24.5156,18.75 L24.3438,18.6719 Z " fill="#000000"/><text fill="#000000" font-family="sans-serif" font-size="14" lengthAdjust="spacing" textLength="117" x="36" y="27.8467">ActivityWatcher</text><line style="stroke:#181818;stroke-width:0.5;" x1="8" x2="155" y1="39" y2="39"/><line style="stroke:#181818;stroke-width:0.5;" x1="8" x2="155" y1="47" y2="47"/></g><!--class ObjectWatcher--><g id="elem_ObjectWatcher"><rect fill="#F1F1F1" height="48" id="ObjectWatcher" rx="2.5" ry="2.5" style="stroke:#181818;stroke-width:0.5;" width="142" x="210.5" y="123"/><ellipse cx="225.5" cy="139" fill="#ADD1B2" rx="11" ry="11" style="stroke:#181818;stroke-width:1.0;"/><path d="M227.8438,134.6719 C226.9063,134.2344 226.3125,134.0938 225.4375,134.0938 C222.8125,134.0938 220.8125,136.1719 220.8125,138.8906 L220.8125,140.0156 C220.8125,142.5938 222.9219,144.4844 225.8125,144.4844 C227.0313,144.4844 228.1875,144.1875 228.9375,143.6406 C229.5156,143.2344 229.8438,142.7813 229.8438,142.3906 C229.8438,141.9375 229.4531,141.5469 228.9844,141.5469 C228.7656,141.5469 228.5625,141.625 228.375,141.8125 C227.9219,142.2969 227.9219,142.2969 227.7344,142.3906 C227.3125,142.6563 226.625,142.7813 225.8594,142.7813 C223.8125,142.7813 222.5156,141.6875 222.5156,139.9844 L222.5156,138.8906 C222.5156,137.1094 223.7656,135.7969 225.5,135.7969 C226.0781,135.7969 226.6875,135.9531 227.1563,136.2031 C227.6406,136.4844 227.8125,136.7031 227.9063,137.1094 C227.9688,137.5156 228,137.6406 228.1406,137.7656 C228.2813,137.9063 228.5156,138.0156 228.7344,138.0156 C229,138.0156 229.2656,137.875 229.4375,137.6563 C229.5469,137.5 229.5781,137.3125 229.5781,136.8906 L229.5781,135.4688 C229.5781,135.0313 229.5625,134.9063 229.4688,134.75 C229.3125,134.4844 229.0313,134.3438 228.7344,134.3438 C228.4375,134.3438 228.2344,134.4375 228.0156,134.75 L227.8438,134.6719 Z " fill="#000000"/><text fill="#000000" font-family="sans-serif" font-size="14" lengthAdjust="spacing" textLength="110" x="239.5" y="143.8467">ObjectWatcher</text><line style="stroke:#181818;stroke-width:0.5;" x1="211.5" x2="351.5" y1="155" y2="155"/><line style="stroke:#181818;stroke-width:0.5;" x1="211.5" x2="351.5" y1="163" y2="163"/></g><!--class KeyedWeakReference--><g id="elem_KeyedWeakReference"><rect fill="#F1F1F1" height="48" id="KeyedWeakReference" rx="2.5" ry="2.5" style="stroke:#181818;stroke-width:0.5;" width="192" x="180.5" y="255"/><ellipse cx="195.5" cy="271" fill="#ADD1B2" rx="11" ry="11" style="stroke:#181818;stroke-width:1.0;"/><path d="M197.8438,266.6719 C196.9063,266.2344 196.3125,266.0938 195.4375,266.0938 C192.8125,266.0938 190.8125,268.1719 190.8125,270.8906 L190.8125,272.0156 C190.8125,274.5938 192.9219,276.4844 195.8125,276.4844 C197.0313,276.4844 198.1875,276.1875 198.9375,275.6406 C199.5156,275.2344 199.8438,274.7813 199.8438,274.3906 C199.8438,273.9375 199.4531,273.5469 198.9844,273.5469 C198.7656,273.5469 198.5625,273.625 198.375,273.8125 C197.9219,274.2969 197.9219,274.2969 197.7344,274.3906 C197.3125,274.6563 196.625,274.7813 195.8594,274.7813 C193.8125,274.7813 192.5156,273.6875 192.5156,271.9844 L192.5156,270.8906 C192.5156,269.1094 193.7656,267.7969 195.5,267.7969 C196.0781,267.7969 196.6875,267.9531 197.1563,268.2031 C197.6406,268.4844 197.8125,268.7031 197.9063,269.1094 C197.9688,269.5156 198,269.6406 198.1406,269.7656 C198.2813,269.9063 198.5156,270.0156 198.7344,270.0156 C199,270.0156 199.2656,269.875 199.4375,269.6563 C199.5469,269.5 199.5781,269.3125 199.5781,268.8906 L199.5781,267.4688 C199.5781,267.0313 199.5625,266.9063 199.4688,266.75 C199.3125,266.4844 199.0313,266.3438 198.7344,266.3438 C198.4375,266.3438 198.2344,266.4375 198.0156,266.75 L197.8438,266.6719 Z " fill="#000000"/><text fill="#000000" font-family="sans-serif" font-size="14" lengthAdjust="spacing" textLength="160" x="209.5" y="275.8467">KeyedWeakReference</text><line style="stroke:#181818;stroke-width:0.5;" x1="181.5" x2="371.5" y1="287" y2="287"/><line style="stroke:#181818;stroke-width:0.5;" x1="181.5" x2="371.5" y1="295" y2="295"/></g><!--class OnObjectRetainedListener--><g id="elem_OnObjectRetainedListener"><rect codeLine="5" fill="#F1F1F1" height="64.2969" id="OnObjectRetainedListener" rx="2.5" ry="2.5" style="stroke:#181818;stroke-width:0.5;" width="219" x="390" y="115"/><ellipse cx="405" cy="131" fill="#B4A7E5" rx="11" ry="11" style="stroke:#181818;stroke-width:1.0;"/><path d="M405.9531,127.7813 L407.6719,127.7813 C408.0625,127.7813 408.25,127.75 408.375,127.6719 C408.6406,127.5156 408.7813,127.2344 408.7813,126.9375 C408.7813,126.6719 408.6719,126.4063 408.4375,126.2344 C408.2656,126.125 408.125,126.0938 407.6719,126.0938 L402.5313,126.0938 C402.0938,126.0938 401.9688,126.1094 401.8125,126.2031 C401.5625,126.3594 401.4063,126.6563 401.4063,126.9375 C401.4063,127.2188 401.5469,127.4688 401.7656,127.6406 C401.9219,127.75 402.1094,127.7813 402.5313,127.7813 L404.25,127.7813 L404.25,134.2969 L402.5313,134.2969 C402.0938,134.2969 401.9688,134.3125 401.8125,134.4219 C401.5625,134.5781 401.4063,134.8594 401.4063,135.1563 C401.4063,135.4063 401.5469,135.6719 401.7656,135.8281 C401.9219,135.9531 402.125,136 402.5313,136 L407.6719,136 C408.4219,136 408.7813,135.7188 408.7813,135.1563 C408.7813,134.875 408.6719,134.625 408.4375,134.4531 C408.2656,134.3281 408.125,134.2969 407.6719,134.2969 L405.9531,134.2969 L405.9531,127.7813 Z " fill="#000000"/><text fill="#000000" font-family="sans-serif" font-size="14" font-style="italic" lengthAdjust="spacing" textLength="187" x="419" y="135.8467">OnObjectRetainedListener</text><line style="stroke:#181818;stroke-width:0.5;" x1="391" x2="608" y1="147" y2="147"/><line style="stroke:#181818;stroke-width:0.5;" x1="391" x2="608" y1="155" y2="155"/><text fill="#000000" font-family="sans-serif" font-size="14" lengthAdjust="spacing" textLength="142" x="396" y="171.9951">onObjectRetained()</text></g><!--class InternalLeakCanary--><g id="elem_InternalLeakCanary"><rect codeLine="9" fill="#F1F1F1" height="72.5625" id="InternalLeakCanary" rx="2.5" ry="2.5" style="stroke:#181818;stroke-width:0.5;" width="174" x="415.5" y="243"/><ellipse cx="431.85" cy="263.1328" fill="#FF7700" rx="11" ry="11" style="stroke:#181818;stroke-width:1.0;"/><path d="M435.6313,259.1016 C435.6313,258.6641 435.6156,258.5234 435.5219,258.3672 C435.3813,258.1328 435.1,257.9766 434.8031,257.9766 C434.4594,257.9766 434.3188,258.1172 434.1469,258.5391 C433.5531,258.1641 432.8031,257.9766 431.9281,257.9766 C429.8188,257.9766 428.2406,259.2734 428.2406,260.9922 C428.2406,261.9609 428.7719,262.8672 429.6313,263.3516 C430.1781,263.6641 430.725,263.8359 431.8344,264.0234 C432.9906,264.2266 433.2563,264.2891 433.6156,264.4766 C433.9906,264.6797 434.225,265.0234 434.225,265.3828 C434.225,266.1172 433.2406,266.6641 431.9906,266.6641 C430.8656,266.6641 429.7875,266.1797 429.6156,265.5703 C429.4906,265.1016 429.4906,265.1016 429.3656,264.9922 C429.2094,264.8359 428.9906,264.7422 428.7563,264.7422 C428.475,264.7422 428.225,264.8672 428.0531,265.0859 C427.9438,265.2578 427.8969,265.4453 427.8969,265.8672 L427.8969,266.9922 C427.8969,267.7578 428.1781,268.1172 428.7719,268.1172 C429.0375,268.1172 429.1625,268.0547 429.4438,267.7109 C430.2875,268.1484 431.1781,268.3672 432.1,268.3672 C434.4281,268.3672 435.9906,267.1797 435.9906,265.4141 C435.9906,264.5234 435.6781,263.8359 434.9906,263.2891 C434.4594,262.8672 433.8188,262.6172 432.3344,262.3516 C431.0688,262.1172 430.975,262.0859 430.6469,261.9141 C430.2719,261.7266 430.0063,261.3359 430.0063,260.9766 C430.0063,260.2422 430.8656,259.6797 431.9281,259.6797 C432.9906,259.6797 433.8031,260.1484 433.9594,260.8203 C434.0688,261.3672 434.0688,261.3672 434.1938,261.5078 C434.3344,261.6328 434.5688,261.7422 434.8031,261.7422 C435.0688,261.7422 435.3188,261.6016 435.4906,261.3828 C435.6,261.2109 435.6313,261.0703 435.6313,260.6016 L435.6313,259.1016 Z " fill="#000000"/><text fill="#000000" font-family="sans-serif" font-size="12" font-style="italic" lengthAdjust="spacing" textLength="71" x="480.15" y="259.1387">&#171;Singleton&#187;</text><text fill="#000000" font-family="sans-serif" font-size="14" lengthAdjust="spacing" textLength="139" x="446.15" y="274.9639">InternalLeakCanary</text><line style="stroke:#181818;stroke-width:0.5;" x1="416.5" x2="588.5" y1="283.2656" y2="283.2656"/><line style="stroke:#181818;stroke-width:0.5;" x1="416.5" x2="588.5" y1="291.2656" y2="291.2656"/><text fill="#000000" font-family="sans-serif" font-size="14" lengthAdjust="spacing" textLength="162" x="421.5" y="308.2607">void sendEvent(Event)</text></g><!--class HeapDumpTrigger--><g id="elem_HeapDumpTrigger"><rect fill="#F1F1F1" height="48" id="HeapDumpTrigger" rx="2.5" ry="2.5" style="stroke:#181818;stroke-width:0.5;" width="164" x="329.5" y="387"/><ellipse cx="344.5" cy="403" fill="#ADD1B2" rx="11" ry="11" style="stroke:#181818;stroke-width:1.0;"/><path d="M346.8438,398.6719 C345.9063,398.2344 345.3125,398.0938 344.4375,398.0938 C341.8125,398.0938 339.8125,400.1719 339.8125,402.8906 L339.8125,404.0156 C339.8125,406.5938 341.9219,408.4844 344.8125,408.4844 C346.0313,408.4844 347.1875,408.1875 347.9375,407.6406 C348.5156,407.2344 348.8438,406.7813 348.8438,406.3906 C348.8438,405.9375 348.4531,405.5469 347.9844,405.5469 C347.7656,405.5469 347.5625,405.625 347.375,405.8125 C346.9219,406.2969 346.9219,406.2969 346.7344,406.3906 C346.3125,406.6563 345.625,406.7813 344.8594,406.7813 C342.8125,406.7813 341.5156,405.6875 341.5156,403.9844 L341.5156,402.8906 C341.5156,401.1094 342.7656,399.7969 344.5,399.7969 C345.0781,399.7969 345.6875,399.9531 346.1563,400.2031 C346.6406,400.4844 346.8125,400.7031 346.9063,401.1094 C346.9688,401.5156 347,401.6406 347.1406,401.7656 C347.2813,401.9063 347.5156,402.0156 347.7344,402.0156 C348,402.0156 348.2656,401.875 348.4375,401.6563 C348.5469,401.5 348.5781,401.3125 348.5781,400.8906 L348.5781,399.4688 C348.5781,399.0313 348.5625,398.9063 348.4688,398.75 C348.3125,398.4844 348.0313,398.3438 347.7344,398.3438 C347.4375,398.3438 347.2344,398.4375 347.0156,398.75 L346.8438,398.6719 Z " fill="#000000"/><text fill="#000000" font-family="sans-serif" font-size="14" lengthAdjust="spacing" textLength="132" x="358.5" y="407.8467">HeapDumpTrigger</text><line style="stroke:#181818;stroke-width:0.5;" x1="330.5" x2="492.5" y1="419" y2="419"/><line style="stroke:#181818;stroke-width:0.5;" x1="330.5" x2="492.5" y1="427" y2="427"/></g><!--class EventListener--><g id="elem_EventListener"><rect codeLine="14" fill="#F1F1F1" height="64.2969" id="EventListener" rx="2.5" ry="2.5" style="stroke:#181818;stroke-width:0.5;" width="129" x="529" y="379"/><ellipse cx="544" cy="395" fill="#B4A7E5" rx="11" ry="11" style="stroke:#181818;stroke-width:1.0;"/><path d="M544.9531,391.7813 L546.6719,391.7813 C547.0625,391.7813 547.25,391.75 547.375,391.6719 C547.6406,391.5156 547.7813,391.2344 547.7813,390.9375 C547.7813,390.6719 547.6719,390.4063 547.4375,390.2344 C547.2656,390.125 547.125,390.0938 546.6719,390.0938 L541.5313,390.0938 C541.0938,390.0938 540.9688,390.1094 540.8125,390.2031 C540.5625,390.3594 540.4063,390.6563 540.4063,390.9375 C540.4063,391.2188 540.5469,391.4688 540.7656,391.6406 C540.9219,391.75 541.1094,391.7813 541.5313,391.7813 L543.25,391.7813 L543.25,398.2969 L541.5313,398.2969 C541.0938,398.2969 540.9688,398.3125 540.8125,398.4219 C540.5625,398.5781 540.4063,398.8594 540.4063,399.1563 C540.4063,399.4063 540.5469,399.6719 540.7656,399.8281 C540.9219,399.9531 541.125,400 541.5313,400 L546.6719,400 C547.4219,400 547.7813,399.7188 547.7813,399.1563 C547.7813,398.875 547.6719,398.625 547.4375,398.4531 C547.2656,398.3281 547.125,398.2969 546.6719,398.2969 L544.9531,398.2969 L544.9531,391.7813 Z " fill="#000000"/><text fill="#000000" font-family="sans-serif" font-size="14" font-style="italic" lengthAdjust="spacing" textLength="97" x="558" y="399.8467">EventListener</text><line style="stroke:#181818;stroke-width:0.5;" x1="530" x2="657" y1="411" y2="411"/><line style="stroke:#181818;stroke-width:0.5;" x1="530" x2="657" y1="419" y2="419"/><text fill="#000000" font-family="sans-serif" font-size="14" lengthAdjust="spacing" textLength="70" x="535" y="435.9951">onEvent()</text></g><!--class BackgroundThreadHeapAnalyzer--><g id="elem_BackgroundThreadHeapAnalyzer"><rect codeLine="17" fill="#F1F1F1" height="56.2656" id="BackgroundThreadHeapAnalyzer" rx="2.5" ry="2.5" style="stroke:#181818;stroke-width:0.5;" width="266" x="201.5" y="503"/><ellipse cx="216.5" cy="523.1328" fill="#FF7700" rx="11" ry="11" style="stroke:#181818;stroke-width:1.0;"/><path d="M220.2813,519.1016 C220.2813,518.6641 220.2656,518.5234 220.1719,518.3672 C220.0313,518.1328 219.75,517.9766 219.4531,517.9766 C219.1094,517.9766 218.9688,518.1172 218.7969,518.5391 C218.2031,518.1641 217.4531,517.9766 216.5781,517.9766 C214.4688,517.9766 212.8906,519.2734 212.8906,520.9922 C212.8906,521.9609 213.4219,522.8672 214.2813,523.3516 C214.8281,523.6641 215.375,523.8359 216.4844,524.0234 C217.6406,524.2266 217.9063,524.2891 218.2656,524.4766 C218.6406,524.6797 218.875,525.0234 218.875,525.3828 C218.875,526.1172 217.8906,526.6641 216.6406,526.6641 C215.5156,526.6641 214.4375,526.1797 214.2656,525.5703 C214.1406,525.1016 214.1406,525.1016 214.0156,524.9922 C213.8594,524.8359 213.6406,524.7422 213.4063,524.7422 C213.125,524.7422 212.875,524.8672 212.7031,525.0859 C212.5938,525.2578 212.5469,525.4453 212.5469,525.8672 L212.5469,526.9922 C212.5469,527.7578 212.8281,528.1172 213.4219,528.1172 C213.6875,528.1172 213.8125,528.0547 214.0938,527.7109 C214.9375,528.1484 215.8281,528.3672 216.75,528.3672 C219.0781,528.3672 220.6406,527.1797 220.6406,525.4141 C220.6406,524.5234 220.3281,523.8359 219.6406,523.2891 C219.1094,522.8672 218.4688,522.6172 216.9844,522.3516 C215.7188,522.1172 215.625,522.0859 215.2969,521.9141 C214.9219,521.7266 214.6563,521.3359 214.6563,520.9766 C214.6563,520.2422 215.5156,519.6797 216.5781,519.6797 C217.6406,519.6797 218.4531,520.1484 218.6094,520.8203 C218.7188,521.3672 218.7188,521.3672 218.8438,521.5078 C218.9844,521.6328 219.2188,521.7422 219.4531,521.7422 C219.7188,521.7422 219.9688,521.6016 220.1406,521.3828 C220.25,521.2109 220.2813,521.0703 220.2813,520.6016 L220.2813,519.1016 Z " fill="#000000"/><text fill="#000000" font-family="sans-serif" font-size="12" font-style="italic" lengthAdjust="spacing" textLength="71" x="312" y="519.1387">&#171;Singleton&#187;</text><text fill="#000000" font-family="sans-serif" font-size="14" lengthAdjust="spacing" textLength="234" x="230.5" y="534.9639">BackgroundThreadHeapAnalyzer</text><line style="stroke:#181818;stroke-width:0.5;" x1="202.5" x2="466.5" y1="543.2656" y2="543.2656"/><line style="stroke:#181818;stroke-width:0.5;" x1="202.5" x2="466.5" y1="551.2656" y2="551.2656"/></g><!--class LogcatEventListener--><g id="elem_LogcatEventListener"><rect codeLine="18" fill="#F1F1F1" height="56.2656" id="LogcatEventListener" rx="2.5" ry="2.5" style="stroke:#181818;stroke-width:0.5;" width="182" x="502.5" y="503"/><ellipse cx="517.5" cy="523.1328" fill="#FF7700" rx="11" ry="11" style="stroke:#181818;stroke-width:1.0;"/><path d="M521.2813,519.1016 C521.2813,518.6641 521.2656,518.5234 521.1719,518.3672 C521.0313,518.1328 520.75,517.9766 520.4531,517.9766 C520.1094,517.9766 519.9688,518.1172 519.7969,518.5391 C519.2031,518.1641 518.4531,517.9766 517.5781,517.9766 C515.4688,517.9766 513.8906,519.2734 513.8906,520.9922 C513.8906,521.9609 514.4219,522.8672 515.2813,523.3516 C515.8281,523.6641 516.375,523.8359 517.4844,524.0234 C518.6406,524.2266 518.9063,524.2891 519.2656,524.4766 C519.6406,524.6797 519.875,525.0234 519.875,525.3828 C519.875,526.1172 518.8906,526.6641 517.6406,526.6641 C516.5156,526.6641 515.4375,526.1797 515.2656,525.5703 C515.1406,525.1016 515.1406,525.1016 515.0156,524.9922 C514.8594,524.8359 514.6406,524.7422 514.4063,524.7422 C514.125,524.7422 513.875,524.8672 513.7031,525.0859 C513.5938,525.2578 513.5469,525.4453 513.5469,525.8672 L513.5469,526.9922 C513.5469,527.7578 513.8281,528.1172 514.4219,528.1172 C514.6875,528.1172 514.8125,528.0547 515.0938,527.7109 C515.9375,528.1484 516.8281,528.3672 517.75,528.3672 C520.0781,528.3672 521.6406,527.1797 521.6406,525.4141 C521.6406,524.5234 521.3281,523.8359 520.6406,523.2891 C520.1094,522.8672 519.4688,522.6172 517.9844,522.3516 C516.7188,522.1172 516.625,522.0859 516.2969,521.9141 C515.9219,521.7266 515.6563,521.3359 515.6563,520.9766 C515.6563,520.2422 516.5156,519.6797 517.5781,519.6797 C518.6406,519.6797 519.4531,520.1484 519.6094,520.8203 C519.7188,521.3672 519.7188,521.3672 519.8438,521.5078 C519.9844,521.6328 520.2188,521.7422 520.4531,521.7422 C520.7188,521.7422 520.9688,521.6016 521.1406,521.3828 C521.25,521.2109 521.2813,521.0703 521.2813,520.6016 L521.2813,519.1016 Z " fill="#000000"/><text fill="#000000" font-family="sans-serif" font-size="12" font-style="italic" lengthAdjust="spacing" textLength="71" x="571" y="519.1387">&#171;Singleton&#187;</text><text fill="#000000" font-family="sans-serif" font-size="14" lengthAdjust="spacing" textLength="150" x="531.5" y="534.9639">LogcatEventListener</text><line style="stroke:#181818;stroke-width:0.5;" x1="503.5" x2="683.5" y1="543.2656" y2="543.2656"/><line style="stroke:#181818;stroke-width:0.5;" x1="503.5" x2="683.5" y1="551.2656" y2="551.2656"/></g><!--class ToastEventListener--><g id="elem_ToastEventListener"><rect codeLine="19" fill="#F1F1F1" height="56.2656" id="ToastEventListener" rx="2.5" ry="2.5" style="stroke:#181818;stroke-width:0.5;" width="173" x="720" y="503"/><ellipse cx="735" cy="523.1328" fill="#FF7700" rx="11" ry="11" style="stroke:#181818;stroke-width:1.0;"/><path d="M738.7813,519.1016 C738.7813,518.6641 738.7656,518.5234 738.6719,518.3672 C738.5313,518.1328 738.25,517.9766 737.9531,517.9766 C737.6094,517.9766 737.4688,518.1172 737.2969,518.5391 C736.7031,518.1641 735.9531,517.9766 735.0781,517.9766 C732.9688,517.9766 731.3906,519.2734 731.3906,520.9922 C731.3906,521.9609 731.9219,522.8672 732.7813,523.3516 C733.3281,523.6641 733.875,523.8359 734.9844,524.0234 C736.1406,524.2266 736.4063,524.2891 736.7656,524.4766 C737.1406,524.6797 737.375,525.0234 737.375,525.3828 C737.375,526.1172 736.3906,526.6641 735.1406,526.6641 C734.0156,526.6641 732.9375,526.1797 732.7656,525.5703 C732.6406,525.1016 732.6406,525.1016 732.5156,524.9922 C732.3594,524.8359 732.1406,524.7422 731.9063,524.7422 C731.625,524.7422 731.375,524.8672 731.2031,525.0859 C731.0938,525.2578 731.0469,525.4453 731.0469,525.8672 L731.0469,526.9922 C731.0469,527.7578 731.3281,528.1172 731.9219,528.1172 C732.1875,528.1172 732.3125,528.0547 732.5938,527.7109 C733.4375,528.1484 734.3281,528.3672 735.25,528.3672 C737.5781,528.3672 739.1406,527.1797 739.1406,525.4141 C739.1406,524.5234 738.8281,523.8359 738.1406,523.2891 C737.6094,522.8672 736.9688,522.6172 735.4844,522.3516 C734.2188,522.1172 734.125,522.0859 733.7969,521.9141 C733.4219,521.7266 733.1563,521.3359 733.1563,520.9766 C733.1563,520.2422 734.0156,519.6797 735.0781,519.6797 C736.1406,519.6797 736.9531,520.1484 737.1094,520.8203 C737.2188,521.3672 737.2188,521.3672 737.3438,521.5078 C737.4844,521.6328 737.7188,521.7422 737.9531,521.7422 C738.2188,521.7422 738.4688,521.6016 738.6406,521.3828 C738.75,521.2109 738.7813,521.0703 738.7813,520.6016 L738.7813,519.1016 Z " fill="#000000"/><text fill="#000000" font-family="sans-serif" font-size="12" font-style="italic" lengthAdjust="spacing" textLength="71" x="784" y="519.1387">&#171;Singleton&#187;</text><text fill="#000000" font-family="sans-serif" font-size="14" lengthAdjust="spacing" textLength="141" x="749" y="534.9639">ToastEventListener</text><line style="stroke:#181818;stroke-width:0.5;" x1="721" x2="892" y1="543.2656" y2="543.2656"/><line style="stroke:#181818;stroke-width:0.5;" x1="721" x2="892" y1="551.2656" y2="551.2656"/></g><!--class AndroidDebugHeapAnalyzer--><g id="elem_AndroidDebugHeapAnalyzer"><rect codeLine="25" fill="#F1F1F1" height="56.2656" id="AndroidDebugHeapAnalyzer" rx="2.5" ry="2.5" style="stroke:#181818;stroke-width:0.5;" width="234" x="217.5" y="619"/><ellipse cx="232.5" cy="639.1328" fill="#FF7700" rx="11" ry="11" style="stroke:#181818;stroke-width:1.0;"/><path d="M236.2813,635.1016 C236.2813,634.6641 236.2656,634.5234 236.1719,634.3672 C236.0313,634.1328 235.75,633.9766 235.4531,633.9766 C235.1094,633.9766 234.9688,634.1172 234.7969,634.5391 C234.2031,634.1641 233.4531,633.9766 232.5781,633.9766 C230.4688,633.9766 228.8906,635.2734 228.8906,636.9922 C228.8906,637.9609 229.4219,638.8672 230.2813,639.3516 C230.8281,639.6641 231.375,639.8359 232.4844,640.0234 C233.6406,640.2266 233.9063,640.2891 234.2656,640.4766 C234.6406,640.6797 234.875,641.0234 234.875,641.3828 C234.875,642.1172 233.8906,642.6641 232.6406,642.6641 C231.5156,642.6641 230.4375,642.1797 230.2656,641.5703 C230.1406,641.1016 230.1406,641.1016 230.0156,640.9922 C229.8594,640.8359 229.6406,640.7422 229.4063,640.7422 C229.125,640.7422 228.875,640.8672 228.7031,641.0859 C228.5938,641.2578 228.5469,641.4453 228.5469,641.8672 L228.5469,642.9922 C228.5469,643.7578 228.8281,644.1172 229.4219,644.1172 C229.6875,644.1172 229.8125,644.0547 230.0938,643.7109 C230.9375,644.1484 231.8281,644.3672 232.75,644.3672 C235.0781,644.3672 236.6406,643.1797 236.6406,641.4141 C236.6406,640.5234 236.3281,639.8359 235.6406,639.2891 C235.1094,638.8672 234.4688,638.6172 232.9844,638.3516 C231.7188,638.1172 231.625,638.0859 231.2969,637.9141 C230.9219,637.7266 230.6563,637.3359 230.6563,636.9766 C230.6563,636.2422 231.5156,635.6797 232.5781,635.6797 C233.6406,635.6797 234.4531,636.1484 234.6094,636.8203 C234.7188,637.3672 234.7188,637.3672 234.8438,637.5078 C234.9844,637.6328 235.2188,637.7422 235.4531,637.7422 C235.7188,637.7422 235.9688,637.6016 236.1406,637.3828 C236.25,637.2109 236.2813,637.0703 236.2813,636.6016 L236.2813,635.1016 Z " fill="#000000"/><text fill="#000000" font-family="sans-serif" font-size="12" font-style="italic" lengthAdjust="spacing" textLength="71" x="312" y="635.1387">&#171;Singleton&#187;</text><text fill="#000000" font-family="sans-serif" font-size="14" lengthAdjust="spacing" textLength="202" x="246.5" y="650.9639">AndroidDebugHeapAnalyzer</text><line style="stroke:#181818;stroke-width:0.5;" x1="218.5" x2="450.5" y1="659.2656" y2="659.2656"/><line style="stroke:#181818;stroke-width:0.5;" x1="218.5" x2="450.5" y1="667.2656" y2="667.2656"/></g><!--reverse link ActivityWatcher to ReachabilityWatcher--><g id="link_ActivityWatcher_ReachabilityWatcher"><path codeLine="2" d="M168.109,31 C179.865,31 179.62,31 191.375,31 " fill="none" id="ActivityWatcher-backto-ReachabilityWatcher" style="stroke:#181818;stroke-width:1.0;"/><polygon fill="#181818" points="156.109,31,162.109,35,168.109,31,162.109,27,156.109,31" style="stroke:#181818;stroke-width:1.0;"/></g><!--reverse link ReachabilityWatcher to ObjectWatcher--><g id="link_ReachabilityWatcher_ObjectWatcher"><path codeLine="3" d="M281.5,73.07 C281.5,92.848 281.5,103.196 281.5,122.965 " fill="none" id="ReachabilityWatcher-backto-ObjectWatcher" style="stroke:#181818;stroke-width:1.0;stroke-dasharray:7.0,7.0;"/><polygon fill="none" points="281.5,55.07,275.5,73.07,287.5,73.07,281.5,55.07" style="stroke:#181818;stroke-width:1.0;"/></g><!--reverse link ObjectWatcher to KeyedWeakReference--><g id="link_ObjectWatcher_KeyedWeakReference"><path codeLine="4" d="M280.1449,183.2321 C279.2349,206.8951 278.293,231.37 277.386,254.96 " fill="none" id="ObjectWatcher-backto-KeyedWeakReference" style="stroke:#181818;stroke-width:1.0;"/><polygon fill="#181818" points="280.606,171.241,276.3784,177.0829,280.1449,183.2321,284.3725,177.3903,280.606,171.241" style="stroke:#181818;stroke-width:1.0;"/><text fill="#000000" font-family="sans-serif" font-size="13" lengthAdjust="spacing" textLength="8" x="271.4131" y="191.0609">1</text><text fill="#000000" font-family="sans-serif" font-size="13" lengthAdjust="spacing" textLength="8" x="268.588" y="243.9618">n</text></g><!--reverse link ObjectWatcher to OnObjectRetainedListener--><g id="link_ObjectWatcher_OnObjectRetainedListener"><path codeLine="8" d="M364.605,147 C377.038,147 377.47,147 389.903,147 " fill="none" id="ObjectWatcher-backto-OnObjectRetainedListener" style="stroke:#181818;stroke-width:1.0;"/><polygon fill="#181818" points="352.605,147,358.605,151,364.605,147,358.605,143,352.605,147" style="stroke:#181818;stroke-width:1.0;"/><text fill="#000000" font-family="sans-serif" font-size="13" lengthAdjust="spacing" textLength="8" x="360.3502" y="143.3003">1</text><text fill="#000000" font-family="sans-serif" font-size="13" lengthAdjust="spacing" textLength="8" x="373.9157" y="143.5338">n</text></g><!--reverse link OnObjectRetainedListener to InternalLeakCanary--><g id="link_OnObjectRetainedListener_InternalLeakCanary"><path codeLine="12" d="M500.6337,197.1332 C501.0457,215.0112 501.153,219.635 501.594,238.724 " fill="none" id="OnObjectRetainedListener-backto-InternalLeakCanary" style="stroke:#181818;stroke-width:1.0;stroke-dasharray:7.0,7.0;"/><polygon fill="none" points="500.219,179.138,494.6353,197.2715,506.6321,196.995,500.219,179.138" style="stroke:#181818;stroke-width:1.0;"/></g><!--reverse link InternalLeakCanary to HeapDumpTrigger--><g id="link_InternalLeakCanary_HeapDumpTrigger"><path codeLine="13" d="M468.3156,328.8349 C452.8196,350.9729 440.833,368.096 427.671,386.899 " fill="none" id="InternalLeakCanary-backto-HeapDumpTrigger" style="stroke:#181818;stroke-width:1.0;"/><polygon fill="#181818" points="475.197,319.004,468.4793,321.6257,468.3156,328.8349,475.0333,326.2132,475.197,319.004" style="stroke:#181818;stroke-width:1.0;"/></g><!--reverse link EventListener to LogcatEventListener--><g id="link_EventListener_LogcatEventListener"><path codeLine="20" d="M593.5,461.003 C593.5,479.576 593.5,484.968 593.5,502.817 " fill="none" id="EventListener-backto-LogcatEventListener" style="stroke:#181818;stroke-width:1.0;stroke-dasharray:7.0,7.0;"/><polygon fill="none" points="593.5,443.003,587.5,461.003,599.5,461.003,593.5,443.003" style="stroke:#181818;stroke-width:1.0;"/></g><!--reverse link EventListener to ToastEventListener--><g id="link_EventListener_ToastEventListener"><path codeLine="21" d="M665.2083,451.7257 C698.7343,470.2987 725.214,484.968 757.433,502.817 " fill="none" id="EventListener-backto-ToastEventListener" style="stroke:#181818;stroke-width:1.0;stroke-dasharray:7.0,7.0;"/><polygon fill="none" points="649.463,443.003,662.3007,456.9741,668.1159,446.4773,649.463,443.003" style="stroke:#181818;stroke-width:1.0;"/></g><!--reverse link EventListener to BackgroundThreadHeapAnalyzer--><g id="link_EventListener_BackgroundThreadHeapAnalyzer"><path codeLine="23" d="M512.431,448.935 C471.078,467.776 434.224,484.566 393.935,502.921 " fill="none" id="EventListener-backto-BackgroundThreadHeapAnalyzer" style="stroke:#181818;stroke-width:1.0;stroke-dasharray:7.0,7.0;"/><polygon fill="none" points="528.811,441.472,509.9434,443.475,514.9187,454.395,528.811,441.472" style="stroke:#181818;stroke-width:1.0;"/></g><!--link InternalLeakCanary to EventListener--><g id="link_InternalLeakCanary_EventListener"><path codeLine="24" d="M590.5,303 C621.07,303 615.2788,341.423 606.0268,373.006 " fill="none" id="InternalLeakCanary-to-EventListener" style="stroke:#181818;stroke-width:1.0;"/><polygon fill="#181818" points="604.34,378.764,610.7088,371.2515,605.7456,373.9656,603.0315,369.0025,604.34,378.764" style="stroke:#181818;stroke-width:1.0;"/></g><!--link BackgroundThreadHeapAnalyzer to AndroidDebugHeapAnalyzer--><g id="link_BackgroundThreadHeapAnalyzer_AndroidDebugHeapAnalyzer"><path codeLine="26" d="M334.5,559.016 C334.5,577.0572 334.5,594.7002 334.5,612.7824 " fill="none" id="BackgroundThreadHeapAnalyzer-to-AndroidDebugHeapAnalyzer" style="stroke:#181818;stroke-width:1.0;"/><polygon fill="#181818" points="334.5,618.7824,338.5,609.7824,334.5,613.7824,330.5,609.7824,334.5,618.7824" style="stroke:#181818;stroke-width:1.0;"/></g><!--SRC=[bP91Jm8n48Nl_HMJzI0Qb-29X10I58b64X8WuJoqmr9PMz8jc4NzxxOBGe0kQ0zDkZlpljStbSgIcI8d613o6KvaAcq-HijdP5YRMxdQd-4s3fO5la7pgrg5_kIDkFqjEpX1T1yvlHWY5S4hvIJ6XFC1JScGuiJapbXVRHe7P54g4ZsPML9EuPE1M_heT-M6VGTH1QbCZF4KimnUF5LXsdDU7b6XoQ7PXChmxghRhTThjHiOIfMaPBM2LclhOAMbW8oKU5gHifLYBqoK6I-oEKMn0Dqdz4ouw2pV5oCZayHPtKTJe4xosDZm3ZQNUa0-JunUAZ6Q6KBXzTeEaw-zb_BhRTjxEk5e3r6NkqOQityq7LNwW0BSKDafY5r3I0xNULUR3pJ2WI_AdWijCAX6O_S088vRXmQsaRILCEwfT6YoJFuyWxF3ywGorHy0]--></g></svg>