<?xml version="1.0" encoding="us-ascii" standalone="no"?><svg xmlns="http://www.w3.org/2000/svg" xmlns:xlink="http://www.w3.org/1999/xlink" contentStyleType="text/css" height="471px" preserveAspectRatio="none" style="width:1107px;height:471px;background:#FFFFFF;" version="1.1" viewBox="0 0 1107 471" width="1107px" zoomAndPan="magnify"><defs/><g><!--cluster Bitmap????--><g id="cluster_Bitmap&#20869;&#23384;&#32531;&#23384;"><path d="M8.5,149 L128.5,149 A3.75,3.75 0 0 1 131,151.5 L138,171.2969 L421.5,171.2969 A2.5,2.5 0 0 1 424,173.7969 L424,461.5 A2.5,2.5 0 0 1 421.5,464 L8.5,464 A2.5,2.5 0 0 1 6,461.5 L6,151.5 A2.5,2.5 0 0 1 8.5,149 " fill="none" style="stroke:#000000;stroke-width:1.5;"/><line style="stroke:#000000;stroke-width:1.5;" x1="6" x2="138" y1="171.2969" y2="171.2969"/><text fill="#000000" font-family="sans-serif" font-size="14" font-weight="bold" lengthAdjust="spacing" textLength="119" x="10" y="163.9951">Bitmap&#20869;&#23384;&#32531;&#23384;</text></g><!--cluster ????????--><g id="cluster_&#21407;&#22987;&#22270;&#29255;&#20869;&#23384;&#32531;&#23384;"><path d="M450.5,149 L571.5,149 A3.75,3.75 0 0 1 574,151.5 L581,171.2969 L871.5,171.2969 A2.5,2.5 0 0 1 874,173.7969 L874,461.5 A2.5,2.5 0 0 1 871.5,464 L450.5,464 A2.5,2.5 0 0 1 448,461.5 L448,151.5 A2.5,2.5 0 0 1 450.5,149 " fill="none" style="stroke:#000000;stroke-width:1.5;"/><line style="stroke:#000000;stroke-width:1.5;" x1="448" x2="581" y1="171.2969" y2="171.2969"/><text fill="#000000" font-family="sans-serif" font-size="14" font-weight="bold" lengthAdjust="spacing" textLength="120" x="452" y="163.9951">&#21407;&#22987;&#22270;&#29255;&#20869;&#23384;&#32531;&#23384;</text></g><!--cluster ????--><g id="cluster_&#30913;&#30424;&#32531;&#23384;"><path d="M900.5,149 L961.5,149 A3.75,3.75 0 0 1 964,151.5 L971,171.2969 L1097.5,171.2969 A2.5,2.5 0 0 1 1100,173.7969 L1100,461.5 A2.5,2.5 0 0 1 1097.5,464 L900.5,464 A2.5,2.5 0 0 1 898,461.5 L898,151.5 A2.5,2.5 0 0 1 900.5,149 " fill="none" style="stroke:#000000;stroke-width:1.5;"/><line style="stroke:#000000;stroke-width:1.5;" x1="898" x2="971" y1="171.2969" y2="171.2969"/><text fill="#000000" font-family="sans-serif" font-size="14" font-weight="bold" lengthAdjust="spacing" textLength="60" x="902" y="163.9951">&#30913;&#30424;&#32531;&#23384;</text></g><!--class MemoryCache--><g id="elem_MemoryCache"><rect codeLine="9" fill="#F1F1F1" height="48" id="MemoryCache" rx="2.5" ry="2.5" style="stroke:#181818;stroke-width:0.5;" width="300" x="87" y="184"/><ellipse cx="102" cy="200" fill="#B4A7E5" rx="11" ry="11" style="stroke:#181818;stroke-width:1.0;"/><path d="M102.9531,196.7813 L104.6719,196.7813 C105.0625,196.7813 105.25,196.75 105.375,196.6719 C105.6406,196.5156 105.7813,196.2344 105.7813,195.9375 C105.7813,195.6719 105.6719,195.4063 105.4375,195.2344 C105.2656,195.125 105.125,195.0938 104.6719,195.0938 L99.5313,195.0938 C99.0938,195.0938 98.9688,195.1094 98.8125,195.2031 C98.5625,195.3594 98.4063,195.6563 98.4063,195.9375 C98.4063,196.2188 98.5469,196.4688 98.7656,196.6406 C98.9219,196.75 99.1094,196.7813 99.5313,196.7813 L101.25,196.7813 L101.25,203.2969 L99.5313,203.2969 C99.0938,203.2969 98.9688,203.3125 98.8125,203.4219 C98.5625,203.5781 98.4063,203.8594 98.4063,204.1563 C98.4063,204.4063 98.5469,204.6719 98.7656,204.8281 C98.9219,204.9531 99.125,205 99.5313,205 L104.6719,205 C105.4219,205 105.7813,204.7188 105.7813,204.1563 C105.7813,203.875 105.6719,203.625 105.4375,203.4531 C105.2656,203.3281 105.125,203.2969 104.6719,203.2969 L102.9531,203.2969 L102.9531,196.7813 Z " fill="#000000"/><text fill="#000000" font-family="sans-serif" font-size="14" font-style="italic" lengthAdjust="spacing" textLength="103" x="116" y="204.8467">MemoryCache</text><rect fill="#FFFFFF" height="15.9688" style="stroke:#181818;stroke-width:1.0;stroke-dasharray:2.0,2.0;" width="163" x="227" y="181"/><text fill="#000000" font-family="sans-serif" font-size="12" font-style="italic" lengthAdjust="spacing" textLength="161" x="228" y="193.1387">CacheKey, CloseableImage</text><line style="stroke:#181818;stroke-width:0.5;" x1="88" x2="386" y1="216" y2="216"/><line style="stroke:#181818;stroke-width:0.5;" x1="88" x2="386" y1="224" y2="224"/></g><!--class CountingMemoryCache--><g id="elem_CountingMemoryCache"><rect codeLine="10" fill="#F1F1F1" height="48" id="CountingMemoryCache" rx="2.5" ry="2.5" style="stroke:#181818;stroke-width:0.5;" width="364" x="38" y="292"/><ellipse cx="53" cy="308" fill="#B4A7E5" rx="11" ry="11" style="stroke:#181818;stroke-width:1.0;"/><path d="M53.9531,304.7813 L55.6719,304.7813 C56.0625,304.7813 56.25,304.75 56.375,304.6719 C56.6406,304.5156 56.7813,304.2344 56.7813,303.9375 C56.7813,303.6719 56.6719,303.4063 56.4375,303.2344 C56.2656,303.125 56.125,303.0938 55.6719,303.0938 L50.5313,303.0938 C50.0938,303.0938 49.9688,303.1094 49.8125,303.2031 C49.5625,303.3594 49.4063,303.6563 49.4063,303.9375 C49.4063,304.2188 49.5469,304.4688 49.7656,304.6406 C49.9219,304.75 50.1094,304.7813 50.5313,304.7813 L52.25,304.7813 L52.25,311.2969 L50.5313,311.2969 C50.0938,311.2969 49.9688,311.3125 49.8125,311.4219 C49.5625,311.5781 49.4063,311.8594 49.4063,312.1563 C49.4063,312.4063 49.5469,312.6719 49.7656,312.8281 C49.9219,312.9531 50.125,313 50.5313,313 L55.6719,313 C56.4219,313 56.7813,312.7188 56.7813,312.1563 C56.7813,311.875 56.6719,311.625 56.4375,311.4531 C56.2656,311.3281 56.125,311.2969 55.6719,311.2969 L53.9531,311.2969 L53.9531,304.7813 Z " fill="#000000"/><text fill="#000000" font-family="sans-serif" font-size="14" font-style="italic" lengthAdjust="spacing" textLength="167" x="67" y="312.8467">CountingMemoryCache</text><rect fill="#FFFFFF" height="15.9688" style="stroke:#181818;stroke-width:1.0;stroke-dasharray:2.0,2.0;" width="163" x="242" y="289"/><text fill="#000000" font-family="sans-serif" font-size="12" font-style="italic" lengthAdjust="spacing" textLength="161" x="243" y="301.1387">CacheKey, CloseableImage</text><line style="stroke:#181818;stroke-width:0.5;" x1="39" x2="401" y1="324" y2="324"/><line style="stroke:#181818;stroke-width:0.5;" x1="39" x2="401" y1="332" y2="332"/></g><!--class LruCountingMemoryCache--><g id="elem_LruCountingMemoryCache"><rect codeLine="11" fill="#F1F1F1" height="48" id="LruCountingMemoryCache" rx="2.5" ry="2.5" style="stroke:#181818;stroke-width:0.5;" width="386" x="22" y="400"/><ellipse cx="37" cy="416" fill="#ADD1B2" rx="11" ry="11" style="stroke:#181818;stroke-width:1.0;"/><path d="M39.3438,411.6719 C38.4063,411.2344 37.8125,411.0938 36.9375,411.0938 C34.3125,411.0938 32.3125,413.1719 32.3125,415.8906 L32.3125,417.0156 C32.3125,419.5938 34.4219,421.4844 37.3125,421.4844 C38.5313,421.4844 39.6875,421.1875 40.4375,420.6406 C41.0156,420.2344 41.3438,419.7813 41.3438,419.3906 C41.3438,418.9375 40.9531,418.5469 40.4844,418.5469 C40.2656,418.5469 40.0625,418.625 39.875,418.8125 C39.4219,419.2969 39.4219,419.2969 39.2344,419.3906 C38.8125,419.6563 38.125,419.7813 37.3594,419.7813 C35.3125,419.7813 34.0156,418.6875 34.0156,416.9844 L34.0156,415.8906 C34.0156,414.1094 35.2656,412.7969 37,412.7969 C37.5781,412.7969 38.1875,412.9531 38.6563,413.2031 C39.1406,413.4844 39.3125,413.7031 39.4063,414.1094 C39.4688,414.5156 39.5,414.6406 39.6406,414.7656 C39.7813,414.9063 40.0156,415.0156 40.2344,415.0156 C40.5,415.0156 40.7656,414.875 40.9375,414.6563 C41.0469,414.5 41.0781,414.3125 41.0781,413.8906 L41.0781,412.4688 C41.0781,412.0313 41.0625,411.9063 40.9688,411.75 C40.8125,411.4844 40.5313,411.3438 40.2344,411.3438 C39.9375,411.3438 39.7344,411.4375 39.5156,411.75 L39.3438,411.6719 Z " fill="#000000"/><text fill="#000000" font-family="sans-serif" font-size="14" lengthAdjust="spacing" textLength="189" x="51" y="420.8467">LruCountingMemoryCache</text><rect fill="#FFFFFF" height="15.9688" style="stroke:#181818;stroke-width:1.0;stroke-dasharray:2.0,2.0;" width="163" x="248" y="397"/><text fill="#000000" font-family="sans-serif" font-size="12" font-style="italic" lengthAdjust="spacing" textLength="161" x="249" y="409.1387">CacheKey, CloseableImage</text><line style="stroke:#181818;stroke-width:0.5;" x1="23" x2="407" y1="432" y2="432"/><line style="stroke:#181818;stroke-width:0.5;" x1="23" x2="407" y1="440" y2="440"/></g><!--class MemoryCache2--><g id="elem_MemoryCache2"><rect codeLine="15" fill="#F1F1F1" height="48" id="MemoryCache2" rx="2.5" ry="2.5" style="stroke:#181818;stroke-width:0.5;" width="308" x="533" y="184"/><ellipse cx="548" cy="200" fill="#B4A7E5" rx="11" ry="11" style="stroke:#181818;stroke-width:1.0;"/><path d="M548.9531,196.7813 L550.6719,196.7813 C551.0625,196.7813 551.25,196.75 551.375,196.6719 C551.6406,196.5156 551.7813,196.2344 551.7813,195.9375 C551.7813,195.6719 551.6719,195.4063 551.4375,195.2344 C551.2656,195.125 551.125,195.0938 550.6719,195.0938 L545.5313,195.0938 C545.0938,195.0938 544.9688,195.1094 544.8125,195.2031 C544.5625,195.3594 544.4063,195.6563 544.4063,195.9375 C544.4063,196.2188 544.5469,196.4688 544.7656,196.6406 C544.9219,196.75 545.1094,196.7813 545.5313,196.7813 L547.25,196.7813 L547.25,203.2969 L545.5313,203.2969 C545.0938,203.2969 544.9688,203.3125 544.8125,203.4219 C544.5625,203.5781 544.4063,203.8594 544.4063,204.1563 C544.4063,204.4063 544.5469,204.6719 544.7656,204.8281 C544.9219,204.9531 545.125,205 545.5313,205 L550.6719,205 C551.4219,205 551.7813,204.7188 551.7813,204.1563 C551.7813,203.875 551.6719,203.625 551.4375,203.4531 C551.2656,203.3281 551.125,203.2969 550.6719,203.2969 L548.9531,203.2969 L548.9531,196.7813 Z " fill="#000000"/><text fill="#000000" font-family="sans-serif" font-size="14" font-style="italic" lengthAdjust="spacing" textLength="103" x="562" y="204.8467">MemoryCache</text><rect fill="#FFFFFF" height="15.9688" style="stroke:#181818;stroke-width:1.0;stroke-dasharray:2.0,2.0;" width="171" x="673" y="181"/><text fill="#000000" font-family="sans-serif" font-size="12" font-style="italic" lengthAdjust="spacing" textLength="169" x="674" y="193.1387">CacheKey, PooledByteBuffer</text><line style="stroke:#181818;stroke-width:0.5;" x1="534" x2="840" y1="216" y2="216"/><line style="stroke:#181818;stroke-width:0.5;" x1="534" x2="840" y1="224" y2="224"/></g><!--class CountingMemoryCache2--><g id="elem_CountingMemoryCache2"><rect codeLine="16" fill="#F1F1F1" height="48" id="CountingMemoryCache2" rx="2.5" ry="2.5" style="stroke:#181818;stroke-width:0.5;" width="372" x="480" y="292"/><ellipse cx="495" cy="308" fill="#B4A7E5" rx="11" ry="11" style="stroke:#181818;stroke-width:1.0;"/><path d="M495.9531,304.7813 L497.6719,304.7813 C498.0625,304.7813 498.25,304.75 498.375,304.6719 C498.6406,304.5156 498.7813,304.2344 498.7813,303.9375 C498.7813,303.6719 498.6719,303.4063 498.4375,303.2344 C498.2656,303.125 498.125,303.0938 497.6719,303.0938 L492.5313,303.0938 C492.0938,303.0938 491.9688,303.1094 491.8125,303.2031 C491.5625,303.3594 491.4063,303.6563 491.4063,303.9375 C491.4063,304.2188 491.5469,304.4688 491.7656,304.6406 C491.9219,304.75 492.1094,304.7813 492.5313,304.7813 L494.25,304.7813 L494.25,311.2969 L492.5313,311.2969 C492.0938,311.2969 491.9688,311.3125 491.8125,311.4219 C491.5625,311.5781 491.4063,311.8594 491.4063,312.1563 C491.4063,312.4063 491.5469,312.6719 491.7656,312.8281 C491.9219,312.9531 492.125,313 492.5313,313 L497.6719,313 C498.4219,313 498.7813,312.7188 498.7813,312.1563 C498.7813,311.875 498.6719,311.625 498.4375,311.4531 C498.2656,311.3281 498.125,311.2969 497.6719,311.2969 L495.9531,311.2969 L495.9531,304.7813 Z " fill="#000000"/><text fill="#000000" font-family="sans-serif" font-size="14" font-style="italic" lengthAdjust="spacing" textLength="167" x="509" y="312.8467">CountingMemoryCache</text><rect fill="#FFFFFF" height="15.9688" style="stroke:#181818;stroke-width:1.0;stroke-dasharray:2.0,2.0;" width="171" x="684" y="289"/><text fill="#000000" font-family="sans-serif" font-size="12" font-style="italic" lengthAdjust="spacing" textLength="169" x="685" y="301.1387">CacheKey, PooledByteBuffer</text><line style="stroke:#181818;stroke-width:0.5;" x1="481" x2="851" y1="324" y2="324"/><line style="stroke:#181818;stroke-width:0.5;" x1="481" x2="851" y1="332" y2="332"/></g><!--class LruCountingMemoryCache2--><g id="elem_LruCountingMemoryCache2"><rect codeLine="17" fill="#F1F1F1" height="48" id="LruCountingMemoryCache2" rx="2.5" ry="2.5" style="stroke:#181818;stroke-width:0.5;" width="394" x="464" y="400"/><ellipse cx="479" cy="416" fill="#ADD1B2" rx="11" ry="11" style="stroke:#181818;stroke-width:1.0;"/><path d="M481.3438,411.6719 C480.4063,411.2344 479.8125,411.0938 478.9375,411.0938 C476.3125,411.0938 474.3125,413.1719 474.3125,415.8906 L474.3125,417.0156 C474.3125,419.5938 476.4219,421.4844 479.3125,421.4844 C480.5313,421.4844 481.6875,421.1875 482.4375,420.6406 C483.0156,420.2344 483.3438,419.7813 483.3438,419.3906 C483.3438,418.9375 482.9531,418.5469 482.4844,418.5469 C482.2656,418.5469 482.0625,418.625 481.875,418.8125 C481.4219,419.2969 481.4219,419.2969 481.2344,419.3906 C480.8125,419.6563 480.125,419.7813 479.3594,419.7813 C477.3125,419.7813 476.0156,418.6875 476.0156,416.9844 L476.0156,415.8906 C476.0156,414.1094 477.2656,412.7969 479,412.7969 C479.5781,412.7969 480.1875,412.9531 480.6563,413.2031 C481.1406,413.4844 481.3125,413.7031 481.4063,414.1094 C481.4688,414.5156 481.5,414.6406 481.6406,414.7656 C481.7813,414.9063 482.0156,415.0156 482.2344,415.0156 C482.5,415.0156 482.7656,414.875 482.9375,414.6563 C483.0469,414.5 483.0781,414.3125 483.0781,413.8906 L483.0781,412.4688 C483.0781,412.0313 483.0625,411.9063 482.9688,411.75 C482.8125,411.4844 482.5313,411.3438 482.2344,411.3438 C481.9375,411.3438 481.7344,411.4375 481.5156,411.75 L481.3438,411.6719 Z " fill="#000000"/><text fill="#000000" font-family="sans-serif" font-size="14" lengthAdjust="spacing" textLength="189" x="493" y="420.8467">LruCountingMemoryCache</text><rect fill="#FFFFFF" height="15.9688" style="stroke:#181818;stroke-width:1.0;stroke-dasharray:2.0,2.0;" width="171" x="690" y="397"/><text fill="#000000" font-family="sans-serif" font-size="12" font-style="italic" lengthAdjust="spacing" textLength="169" x="691" y="409.1387">CacheKey, PooledByteBuffer</text><line style="stroke:#181818;stroke-width:0.5;" x1="465" x2="857" y1="432" y2="432"/><line style="stroke:#181818;stroke-width:0.5;" x1="465" x2="857" y1="440" y2="440"/></g><!--class BufferedDiskCache--><g id="elem_BufferedDiskCache"><rect fill="#F1F1F1" height="48" id="BufferedDiskCache" rx="2.5" ry="2.5" style="stroke:#181818;stroke-width:0.5;" width="170" x="914" y="184"/><ellipse cx="929" cy="200" fill="#ADD1B2" rx="11" ry="11" style="stroke:#181818;stroke-width:1.0;"/><path d="M931.3438,195.6719 C930.4063,195.2344 929.8125,195.0938 928.9375,195.0938 C926.3125,195.0938 924.3125,197.1719 924.3125,199.8906 L924.3125,201.0156 C924.3125,203.5938 926.4219,205.4844 929.3125,205.4844 C930.5313,205.4844 931.6875,205.1875 932.4375,204.6406 C933.0156,204.2344 933.3438,203.7813 933.3438,203.3906 C933.3438,202.9375 932.9531,202.5469 932.4844,202.5469 C932.2656,202.5469 932.0625,202.625 931.875,202.8125 C931.4219,203.2969 931.4219,203.2969 931.2344,203.3906 C930.8125,203.6563 930.125,203.7813 929.3594,203.7813 C927.3125,203.7813 926.0156,202.6875 926.0156,200.9844 L926.0156,199.8906 C926.0156,198.1094 927.2656,196.7969 929,196.7969 C929.5781,196.7969 930.1875,196.9531 930.6563,197.2031 C931.1406,197.4844 931.3125,197.7031 931.4063,198.1094 C931.4688,198.5156 931.5,198.6406 931.6406,198.7656 C931.7813,198.9063 932.0156,199.0156 932.2344,199.0156 C932.5,199.0156 932.7656,198.875 932.9375,198.6563 C933.0469,198.5 933.0781,198.3125 933.0781,197.8906 L933.0781,196.4688 C933.0781,196.0313 933.0625,195.9063 932.9688,195.75 C932.8125,195.4844 932.5313,195.3438 932.2344,195.3438 C931.9375,195.3438 931.7344,195.4375 931.5156,195.75 L931.3438,195.6719 Z " fill="#000000"/><text fill="#000000" font-family="sans-serif" font-size="14" lengthAdjust="spacing" textLength="138" x="943" y="204.8467">BufferedDiskCache</text><line style="stroke:#181818;stroke-width:0.5;" x1="915" x2="1083" y1="216" y2="216"/><line style="stroke:#181818;stroke-width:0.5;" x1="915" x2="1083" y1="224" y2="224"/></g><!--class FileCache--><g id="elem_FileCache"><rect codeLine="28" fill="#F1F1F1" height="48" id="FileCache" rx="2.5" ry="2.5" style="stroke:#181818;stroke-width:0.5;" width="102" x="948" y="292"/><ellipse cx="963" cy="308" fill="#B4A7E5" rx="11" ry="11" style="stroke:#181818;stroke-width:1.0;"/><path d="M963.9531,304.7813 L965.6719,304.7813 C966.0625,304.7813 966.25,304.75 966.375,304.6719 C966.6406,304.5156 966.7813,304.2344 966.7813,303.9375 C966.7813,303.6719 966.6719,303.4063 966.4375,303.2344 C966.2656,303.125 966.125,303.0938 965.6719,303.0938 L960.5313,303.0938 C960.0938,303.0938 959.9688,303.1094 959.8125,303.2031 C959.5625,303.3594 959.4063,303.6563 959.4063,303.9375 C959.4063,304.2188 959.5469,304.4688 959.7656,304.6406 C959.9219,304.75 960.1094,304.7813 960.5313,304.7813 L962.25,304.7813 L962.25,311.2969 L960.5313,311.2969 C960.0938,311.2969 959.9688,311.3125 959.8125,311.4219 C959.5625,311.5781 959.4063,311.8594 959.4063,312.1563 C959.4063,312.4063 959.5469,312.6719 959.7656,312.8281 C959.9219,312.9531 960.125,313 960.5313,313 L965.6719,313 C966.4219,313 966.7813,312.7188 966.7813,312.1563 C966.7813,311.875 966.6719,311.625 966.4375,311.4531 C966.2656,311.3281 966.125,311.2969 965.6719,311.2969 L963.9531,311.2969 L963.9531,304.7813 Z " fill="#000000"/><text fill="#000000" font-family="sans-serif" font-size="14" font-style="italic" lengthAdjust="spacing" textLength="70" x="977" y="312.8467">FileCache</text><line style="stroke:#181818;stroke-width:0.5;" x1="949" x2="1049" y1="324" y2="324"/><line style="stroke:#181818;stroke-width:0.5;" x1="949" x2="1049" y1="332" y2="332"/></g><!--class DiskStorageCache--><g id="elem_DiskStorageCache"><rect fill="#F1F1F1" height="48" id="DiskStorageCache" rx="2.5" ry="2.5" style="stroke:#181818;stroke-width:0.5;" width="164" x="917" y="400"/><ellipse cx="932" cy="416" fill="#ADD1B2" rx="11" ry="11" style="stroke:#181818;stroke-width:1.0;"/><path d="M934.3438,411.6719 C933.4063,411.2344 932.8125,411.0938 931.9375,411.0938 C929.3125,411.0938 927.3125,413.1719 927.3125,415.8906 L927.3125,417.0156 C927.3125,419.5938 929.4219,421.4844 932.3125,421.4844 C933.5313,421.4844 934.6875,421.1875 935.4375,420.6406 C936.0156,420.2344 936.3438,419.7813 936.3438,419.3906 C936.3438,418.9375 935.9531,418.5469 935.4844,418.5469 C935.2656,418.5469 935.0625,418.625 934.875,418.8125 C934.4219,419.2969 934.4219,419.2969 934.2344,419.3906 C933.8125,419.6563 933.125,419.7813 932.3594,419.7813 C930.3125,419.7813 929.0156,418.6875 929.0156,416.9844 L929.0156,415.8906 C929.0156,414.1094 930.2656,412.7969 932,412.7969 C932.5781,412.7969 933.1875,412.9531 933.6563,413.2031 C934.1406,413.4844 934.3125,413.7031 934.4063,414.1094 C934.4688,414.5156 934.5,414.6406 934.6406,414.7656 C934.7813,414.9063 935.0156,415.0156 935.2344,415.0156 C935.5,415.0156 935.7656,414.875 935.9375,414.6563 C936.0469,414.5 936.0781,414.3125 936.0781,413.8906 L936.0781,412.4688 C936.0781,412.0313 936.0625,411.9063 935.9688,411.75 C935.8125,411.4844 935.5313,411.3438 935.2344,411.3438 C934.9375,411.3438 934.7344,411.4375 934.5156,411.75 L934.3438,411.6719 Z " fill="#000000"/><text fill="#000000" font-family="sans-serif" font-size="14" lengthAdjust="spacing" textLength="132" x="946" y="420.8467">DiskStorageCache</text><line style="stroke:#181818;stroke-width:0.5;" x1="918" x2="1080" y1="432" y2="432"/><line style="stroke:#181818;stroke-width:0.5;" x1="918" x2="1080" y1="440" y2="440"/></g><!--class ImagePipeline--><g id="elem_ImagePipeline"><rect codeLine="1" fill="#F1F1F1" height="113.1875" id="ImagePipeline" rx="2.5" ry="2.5" style="stroke:#181818;stroke-width:0.5;" width="247" x="718.5" y="7"/><ellipse cx="786.75" cy="23" fill="#ADD1B2" rx="11" ry="11" style="stroke:#181818;stroke-width:1.0;"/><path d="M789.0938,18.6719 C788.1563,18.2344 787.5625,18.0938 786.6875,18.0938 C784.0625,18.0938 782.0625,20.1719 782.0625,22.8906 L782.0625,24.0156 C782.0625,26.5938 784.1719,28.4844 787.0625,28.4844 C788.2813,28.4844 789.4375,28.1875 790.1875,27.6406 C790.7656,27.2344 791.0938,26.7813 791.0938,26.3906 C791.0938,25.9375 790.7031,25.5469 790.2344,25.5469 C790.0156,25.5469 789.8125,25.625 789.625,25.8125 C789.1719,26.2969 789.1719,26.2969 788.9844,26.3906 C788.5625,26.6563 787.875,26.7813 787.1094,26.7813 C785.0625,26.7813 783.7656,25.6875 783.7656,23.9844 L783.7656,22.8906 C783.7656,21.1094 785.0156,19.7969 786.75,19.7969 C787.3281,19.7969 787.9375,19.9531 788.4063,20.2031 C788.8906,20.4844 789.0625,20.7031 789.1563,21.1094 C789.2188,21.5156 789.25,21.6406 789.3906,21.7656 C789.5313,21.9063 789.7656,22.0156 789.9844,22.0156 C790.25,22.0156 790.5156,21.875 790.6875,21.6563 C790.7969,21.5 790.8281,21.3125 790.8281,20.8906 L790.8281,19.4688 C790.8281,19.0313 790.8125,18.9063 790.7188,18.75 C790.5625,18.4844 790.2813,18.3438 789.9844,18.3438 C789.6875,18.3438 789.4844,18.4375 789.2656,18.75 L789.0938,18.6719 Z " fill="#000000"/><text fill="#000000" font-family="sans-serif" font-size="14" lengthAdjust="spacing" textLength="102" x="807.25" y="27.8467">ImagePipeline</text><line style="stroke:#181818;stroke-width:0.5;" x1="719.5" x2="964.5" y1="39" y2="39"/><text fill="#000000" font-family="sans-serif" font-size="14" lengthAdjust="spacing" textLength="169" x="724.5" y="55.9951">mBitmapMemoryCache</text><text fill="#000000" font-family="sans-serif" font-size="14" lengthAdjust="spacing" textLength="178" x="724.5" y="72.292">mEncodedMemoryCache</text><text fill="#000000" font-family="sans-serif" font-size="14" lengthAdjust="spacing" textLength="185" x="724.5" y="88.5889">mMainBufferedDiskCache</text><text fill="#000000" font-family="sans-serif" font-size="14" lengthAdjust="spacing" textLength="235" x="724.5" y="104.8857">mSmallImageBufferedDiskCache</text><line style="stroke:#181818;stroke-width:0.5;" x1="719.5" x2="964.5" y1="112.1875" y2="112.1875"/></g><!--reverse link MemoryCache2 to CountingMemoryCache2--><g id="link_MemoryCache2_CountingMemoryCache2"><path codeLine="19" d="M678.9452,249.6569 C675.4472,267.3149 674.134,273.941 670.62,291.678 " fill="none" id="MemoryCache2-backto-CountingMemoryCache2" style="stroke:#181818;stroke-width:1.0;"/><polygon fill="none" points="682.443,232,673.0596,248.491,684.8308,250.8228,682.443,232" style="stroke:#181818;stroke-width:1.0;"/></g><!--reverse link CountingMemoryCache2 to LruCountingMemoryCache2--><g id="link_CountingMemoryCache2_LruCountingMemoryCache2"><path codeLine="20" d="M664.0668,357.98 C663.2338,375.638 662.937,381.9408 662.1,399.6784 " fill="none" id="CountingMemoryCache2-backto-LruCountingMemoryCache2" style="stroke:#181818;stroke-width:1.0;"/><polygon fill="none" points="664.915,340,658.0735,357.6973,670.0601,358.2627,664.915,340" style="stroke:#181818;stroke-width:1.0;"/></g><!--link ImagePipeline to MemoryCache--><g id="link_ImagePipeline_MemoryCache"><path codeLine="21" d="M718,51.5 C547.961,51.5 365.0855,137.7529 283.6265,181.0709 " fill="none" id="ImagePipeline-to-MemoryCache" style="stroke:#181818;stroke-width:1.0;"/><polygon fill="#181818" points="278.329,183.888,288.1534,183.194,282.7436,181.5404,284.3972,176.1306,278.329,183.888" style="stroke:#181818;stroke-width:1.0;"/></g><!--link ImagePipeline to MemoryCache2--><g id="link_ImagePipeline_MemoryCache2"><path codeLine="22" d="M718,67.5 C670.862,67.5 675.7047,138.4119 681.8067,178.0339 " fill="none" id="ImagePipeline-to-MemoryCache2" style="stroke:#181818;stroke-width:1.0;"/><polygon fill="#181818" points="682.72,183.964,685.3035,174.46,681.9589,179.0223,677.3967,175.6777,682.72,183.964" style="stroke:#181818;stroke-width:1.0;"/></g><!--reverse link MemoryCache to CountingMemoryCache--><g id="link_MemoryCache_CountingMemoryCache"><path codeLine="23" d="M230.4606,249.7729 C227.6286,267.4309 226.585,273.941 223.74,291.678 " fill="none" id="MemoryCache-backto-CountingMemoryCache" style="stroke:#181818;stroke-width:1.0;"/><polygon fill="none" points="233.311,232,224.5363,248.8227,236.3849,250.723,233.311,232" style="stroke:#181818;stroke-width:1.0;"/></g><!--reverse link CountingMemoryCache to LruCountingMemoryCache--><g id="link_CountingMemoryCache_LruCountingMemoryCache"><path codeLine="24" d="M218.0668,357.98 C217.2338,375.638 216.937,381.9408 216.1,399.6784 " fill="none" id="CountingMemoryCache-backto-LruCountingMemoryCache" style="stroke:#181818;stroke-width:1.0;"/><polygon fill="none" points="218.915,340,212.0735,357.6973,224.0601,358.2627,218.915,340" style="stroke:#181818;stroke-width:1.0;"/></g><!--link ImagePipeline to BufferedDiskCache--><g id="link_ImagePipeline_BufferedDiskCache"><path codeLine="26" d="M967,83.5 C1007.98,83.5 1007.1067,142.0332 1003.1067,177.8082 " fill="none" id="ImagePipeline-to-BufferedDiskCache" style="stroke:#181818;stroke-width:1.0;"/><polygon fill="#181818" points="1002.44,183.771,1007.4153,175.2712,1002.9956,178.802,999.4648,174.3823,1002.44,183.771" style="stroke:#181818;stroke-width:1.0;"/></g><!--link ImagePipeline to BufferedDiskCache--><g id="link_ImagePipeline_BufferedDiskCache"><path codeLine="27" d="M967,99.5 C1001.95,99.5 1004.0218,146.3655 1001.9018,177.9525 " fill="none" id="ImagePipeline-to-BufferedDiskCache-1" style="stroke:#181818;stroke-width:1.0;"/><polygon fill="#181818" points="1001.5,183.939,1006.0937,175.2271,1001.8348,178.9502,998.1117,174.6913,1001.5,183.939" style="stroke:#181818;stroke-width:1.0;"/></g><!--reverse link FileCache to DiskStorageCache--><g id="link_FileCache_DiskStorageCache"><path codeLine="29" d="M999,358 C999,375.658 999,381.9408 999,399.6784 " fill="none" id="FileCache-backto-DiskStorageCache" style="stroke:#181818;stroke-width:1.0;"/><polygon fill="none" points="999,340,993,358,1005,358,999,340" style="stroke:#181818;stroke-width:1.0;"/></g><!--reverse link BufferedDiskCache to FileCache--><g id="link_BufferedDiskCache_FileCache"><path codeLine="30" d="M999,244 C999,261.658 999,273.941 999,291.678 " fill="none" id="BufferedDiskCache-backto-FileCache" style="stroke:#181818;stroke-width:1.0;"/><polygon fill="#181818" points="999,232,995,238,999,244,1003,238,999,232" style="stroke:#181818;stroke-width:1.0;"/></g><!--SRC=[bLEzJiCm4Dxp55P6H9QCLPKX0IG4bIhr2OnpALOTEyhF44471a08YOK5gGC30nDlW7YRAA-1cz36IPm06QpuVDztttUw8mmd2JeDyHBcD096EQ0h0yalT6aQucW6eOXp3vDBgCF7d0WV_5vyXYbtio206FmZcgoKfqM86Qjgz1FMXX5Xif9loAmh5dUtnSTB-VaiJxCIGtaASO098ANgj3hF83z47XC9u0i6LGsdXV14nbFAbtz5ageXvt7sFw1getXwBTuVYyrN-N0_PiRKKy-5OE2xUVhJBST4E56TsssMSQ5wDWt6tfitVtMl9zN3RDaRzOgcrvQb5w0Brkb3rAt1dKpwCuiior5xrqFqnxaBiLNvW-fruiUqD-DIljsKczQ8T3LgLwkIgLkuBdfa-mOvcl4weGnsqVr_RMmBMAGYbioxZ7w50vdOSAo_0G00]--></g></svg>