<?xml version="1.0" encoding="us-ascii" standalone="no"?><svg xmlns="http://www.w3.org/2000/svg" xmlns:xlink="http://www.w3.org/1999/xlink" contentStyleType="text/css" height="165px" preserveAspectRatio="none" style="width:146px;height:165px;background:#FFFFFF;" version="1.1" viewBox="0 0 146 165" width="146px" zoomAndPan="magnify"><defs/><g><!--entity a--><g id="elem_a"><rect fill="#F1F1F1" height="46.2969" rx="2.5" ry="2.5" style="stroke:#181818;stroke-width:0.5;" width="48" x="8" y="7"/><rect fill="#F1F1F1" height="10" style="stroke:#181818;stroke-width:0.5;" width="15" x="36" y="12"/><rect fill="#F1F1F1" height="2" style="stroke:#181818;stroke-width:0.5;" width="4" x="34" y="14"/><rect fill="#F1F1F1" height="2" style="stroke:#181818;stroke-width:0.5;" width="4" x="34" y="18"/><text fill="#000000" font-family="sans-serif" font-size="14" lengthAdjust="spacing" textLength="8" x="23" y="39.9951">a</text></g><!--entity b--><g id="elem_b"><rect fill="#F1F1F1" height="46.2969" rx="2.5" ry="2.5" style="stroke:#181818;stroke-width:0.5;" width="50" x="7" y="113"/><rect fill="#F1F1F1" height="10" style="stroke:#181818;stroke-width:0.5;" width="15" x="37" y="118"/><rect fill="#F1F1F1" height="2" style="stroke:#181818;stroke-width:0.5;" width="4" x="35" y="120"/><rect fill="#F1F1F1" height="2" style="stroke:#181818;stroke-width:0.5;" width="4" x="35" y="124"/><text fill="#000000" font-family="sans-serif" font-size="14" lengthAdjust="spacing" textLength="10" x="22" y="145.9951">b</text></g><!--entity c--><g id="elem_c"><rect fill="#F1F1F1" height="46.2969" rx="2.5" ry="2.5" style="stroke:#181818;stroke-width:0.5;" width="48" x="92" y="113"/><rect fill="#F1F1F1" height="10" style="stroke:#181818;stroke-width:0.5;" width="15" x="120" y="118"/><rect fill="#F1F1F1" height="2" style="stroke:#181818;stroke-width:0.5;" width="4" x="118" y="120"/><rect fill="#F1F1F1" height="2" style="stroke:#181818;stroke-width:0.5;" width="4" x="118" y="124"/><text fill="#000000" font-family="sans-serif" font-size="14" lengthAdjust="spacing" textLength="8" x="107" y="145.9951">c</text></g><!--link a to b--><g id="link_a_b"><path d="M32,53.056 C32,70.705 32,95.3353 32,112.9761 " fill="none" id="a-b" style="stroke:#181818;stroke-width:1.0;"/></g><!--link a to c--><g id="link_a_c"><path d="M49.8142,53.056 C64.0693,70.705 83.9631,95.3353 98.211,112.9761 " fill="none" id="a-c" style="stroke:#181818;stroke-width:1.0;"/></g><!--SRC=[AybFJot9I2rIgEPIK8XEZ0MHIR5SjLpHoR5SYGgwkWf942eP0000]--></g></svg>