<?xml version="1.0" encoding="us-ascii" standalone="no"?><svg xmlns="http://www.w3.org/2000/svg" xmlns:xlink="http://www.w3.org/1999/xlink" contentStyleType="text/css" height="451px" preserveAspectRatio="none" style="width:319px;height:451px;background:#FFFFFF;" version="1.1" viewBox="0 0 319 451" width="319px" zoomAndPan="magnify"><defs/><g><!--class ViewGroup--><g id="elem_ViewGroup"><rect fill="#F1F1F1" height="48" id="ViewGroup" rx="2.5" ry="2.5" style="stroke:#181818;stroke-width:0.5;" width="110" x="27.5" y="7"/><ellipse cx="42.5" cy="23" fill="#ADD1B2" rx="11" ry="11" style="stroke:#181818;stroke-width:1.0;"/><path d="M44.8438,18.6719 C43.9063,18.2344 43.3125,18.0938 42.4375,18.0938 C39.8125,18.0938 37.8125,20.1719 37.8125,22.8906 L37.8125,24.0156 C37.8125,26.5938 39.9219,28.4844 42.8125,28.4844 C44.0313,28.4844 45.1875,28.1875 45.9375,27.6406 C46.5156,27.2344 46.8438,26.7813 46.8438,26.3906 C46.8438,25.9375 46.4531,25.5469 45.9844,25.5469 C45.7656,25.5469 45.5625,25.625 45.375,25.8125 C44.9219,26.2969 44.9219,26.2969 44.7344,26.3906 C44.3125,26.6563 43.625,26.7813 42.8594,26.7813 C40.8125,26.7813 39.5156,25.6875 39.5156,23.9844 L39.5156,22.8906 C39.5156,21.1094 40.7656,19.7969 42.5,19.7969 C43.0781,19.7969 43.6875,19.9531 44.1563,20.2031 C44.6406,20.4844 44.8125,20.7031 44.9063,21.1094 C44.9688,21.5156 45,21.6406 45.1406,21.7656 C45.2813,21.9063 45.5156,22.0156 45.7344,22.0156 C46,22.0156 46.2656,21.875 46.4375,21.6563 C46.5469,21.5 46.5781,21.3125 46.5781,20.8906 L46.5781,19.4688 C46.5781,19.0313 46.5625,18.9063 46.4688,18.75 C46.3125,18.4844 46.0313,18.3438 45.7344,18.3438 C45.4375,18.3438 45.2344,18.4375 45.0156,18.75 L44.8438,18.6719 Z " fill="#000000"/><text fill="#000000" font-family="sans-serif" font-size="14" lengthAdjust="spacing" textLength="78" x="56.5" y="27.8467">ViewGroup</text><line style="stroke:#181818;stroke-width:0.5;" x1="28.5" x2="136.5" y1="39" y2="39"/><line style="stroke:#181818;stroke-width:0.5;" x1="28.5" x2="136.5" y1="47" y2="47"/></g><!--class RecyclerView--><g id="elem_RecyclerView"><rect fill="#F1F1F1" height="48" id="RecyclerView" rx="2.5" ry="2.5" style="stroke:#181818;stroke-width:0.5;" width="128" x="95.5" y="115"/><ellipse cx="110.5" cy="131" fill="#ADD1B2" rx="11" ry="11" style="stroke:#181818;stroke-width:1.0;"/><path d="M112.8438,126.6719 C111.9063,126.2344 111.3125,126.0938 110.4375,126.0938 C107.8125,126.0938 105.8125,128.1719 105.8125,130.8906 L105.8125,132.0156 C105.8125,134.5938 107.9219,136.4844 110.8125,136.4844 C112.0313,136.4844 113.1875,136.1875 113.9375,135.6406 C114.5156,135.2344 114.8438,134.7813 114.8438,134.3906 C114.8438,133.9375 114.4531,133.5469 113.9844,133.5469 C113.7656,133.5469 113.5625,133.625 113.375,133.8125 C112.9219,134.2969 112.9219,134.2969 112.7344,134.3906 C112.3125,134.6563 111.625,134.7813 110.8594,134.7813 C108.8125,134.7813 107.5156,133.6875 107.5156,131.9844 L107.5156,130.8906 C107.5156,129.1094 108.7656,127.7969 110.5,127.7969 C111.0781,127.7969 111.6875,127.9531 112.1563,128.2031 C112.6406,128.4844 112.8125,128.7031 112.9063,129.1094 C112.9688,129.5156 113,129.6406 113.1406,129.7656 C113.2813,129.9063 113.5156,130.0156 113.7344,130.0156 C114,130.0156 114.2656,129.875 114.4375,129.6563 C114.5469,129.5 114.5781,129.3125 114.5781,128.8906 L114.5781,127.4688 C114.5781,127.0313 114.5625,126.9063 114.4688,126.75 C114.3125,126.4844 114.0313,126.3438 113.7344,126.3438 C113.4375,126.3438 113.2344,126.4375 113.0156,126.75 L112.8438,126.6719 Z " fill="#000000"/><text fill="#000000" font-family="sans-serif" font-size="14" lengthAdjust="spacing" textLength="96" x="124.5" y="135.8467">RecyclerView</text><line style="stroke:#181818;stroke-width:0.5;" x1="96.5" x2="222.5" y1="147" y2="147"/><line style="stroke:#181818;stroke-width:0.5;" x1="96.5" x2="222.5" y1="155" y2="155"/></g><!--class ScrollingView--><g id="elem_ScrollingView"><rect codeLine="2" fill="#F1F1F1" height="48" id="ScrollingView" rx="2.5" ry="2.5" style="stroke:#181818;stroke-width:0.5;" width="128" x="172.5" y="7"/><ellipse cx="187.5" cy="23" fill="#B4A7E5" rx="11" ry="11" style="stroke:#181818;stroke-width:1.0;"/><path d="M188.4531,19.7813 L190.1719,19.7813 C190.5625,19.7813 190.75,19.75 190.875,19.6719 C191.1406,19.5156 191.2813,19.2344 191.2813,18.9375 C191.2813,18.6719 191.1719,18.4063 190.9375,18.2344 C190.7656,18.125 190.625,18.0938 190.1719,18.0938 L185.0313,18.0938 C184.5938,18.0938 184.4688,18.1094 184.3125,18.2031 C184.0625,18.3594 183.9063,18.6563 183.9063,18.9375 C183.9063,19.2188 184.0469,19.4688 184.2656,19.6406 C184.4219,19.75 184.6094,19.7813 185.0313,19.7813 L186.75,19.7813 L186.75,26.2969 L185.0313,26.2969 C184.5938,26.2969 184.4688,26.3125 184.3125,26.4219 C184.0625,26.5781 183.9063,26.8594 183.9063,27.1563 C183.9063,27.4063 184.0469,27.6719 184.2656,27.8281 C184.4219,27.9531 184.625,28 185.0313,28 L190.1719,28 C190.9219,28 191.2813,27.7188 191.2813,27.1563 C191.2813,26.875 191.1719,26.625 190.9375,26.4531 C190.7656,26.3281 190.625,26.2969 190.1719,26.2969 L188.4531,26.2969 L188.4531,19.7813 Z " fill="#000000"/><text fill="#000000" font-family="sans-serif" font-size="14" font-style="italic" lengthAdjust="spacing" textLength="96" x="201.5" y="27.8467">ScrollingView</text><line style="stroke:#181818;stroke-width:0.5;" x1="173.5" x2="299.5" y1="39" y2="39"/><line style="stroke:#181818;stroke-width:0.5;" x1="173.5" x2="299.5" y1="47" y2="47"/></g><!--class Recycler--><g id="elem_Recycler"><rect codeLine="4" fill="#F1F1F1" height="113.1875" id="Recycler" rx="2.5" ry="2.5" style="stroke:#181818;stroke-width:0.5;" width="305" x="7" y="223"/><ellipse cx="124.25" cy="239" fill="#ADD1B2" rx="11" ry="11" style="stroke:#181818;stroke-width:1.0;"/><path d="M126.5938,234.6719 C125.6563,234.2344 125.0625,234.0938 124.1875,234.0938 C121.5625,234.0938 119.5625,236.1719 119.5625,238.8906 L119.5625,240.0156 C119.5625,242.5938 121.6719,244.4844 124.5625,244.4844 C125.7813,244.4844 126.9375,244.1875 127.6875,243.6406 C128.2656,243.2344 128.5938,242.7813 128.5938,242.3906 C128.5938,241.9375 128.2031,241.5469 127.7344,241.5469 C127.5156,241.5469 127.3125,241.625 127.125,241.8125 C126.6719,242.2969 126.6719,242.2969 126.4844,242.3906 C126.0625,242.6563 125.375,242.7813 124.6094,242.7813 C122.5625,242.7813 121.2656,241.6875 121.2656,239.9844 L121.2656,238.8906 C121.2656,237.1094 122.5156,235.7969 124.25,235.7969 C124.8281,235.7969 125.4375,235.9531 125.9063,236.2031 C126.3906,236.4844 126.5625,236.7031 126.6563,237.1094 C126.7188,237.5156 126.75,237.6406 126.8906,237.7656 C127.0313,237.9063 127.2656,238.0156 127.4844,238.0156 C127.75,238.0156 128.0156,237.875 128.1875,237.6563 C128.2969,237.5 128.3281,237.3125 128.3281,236.8906 L128.3281,235.4688 C128.3281,235.0313 128.3125,234.9063 128.2188,234.75 C128.0625,234.4844 127.7813,234.3438 127.4844,234.3438 C127.1875,234.3438 126.9844,234.4375 126.7656,234.75 L126.5938,234.6719 Z " fill="#000000"/><text fill="#000000" font-family="sans-serif" font-size="14" lengthAdjust="spacing" textLength="62" x="144.75" y="243.8467">Recycler</text><line style="stroke:#181818;stroke-width:0.5;" x1="8" x2="311" y1="255" y2="255"/><text fill="#000000" font-family="sans-serif" font-size="14" lengthAdjust="spacing" textLength="293" x="13" y="271.9951">ArrayList&lt;ViewHolder&gt; mAttachedScrap</text><text fill="#000000" font-family="sans-serif" font-size="14" lengthAdjust="spacing" textLength="289" x="13" y="288.292">ArrayList&lt;ViewHolder&gt; mChangedScrap</text><text fill="#000000" font-family="sans-serif" font-size="14" lengthAdjust="spacing" textLength="279" x="13" y="304.5889">ArrayList&lt;ViewHolder&gt; mCachedViews</text><text fill="#000000" font-family="sans-serif" font-size="14" lengthAdjust="spacing" textLength="241" x="13" y="320.8857">RecycledViewPool mRecyclerPool</text><line style="stroke:#181818;stroke-width:0.5;" x1="8" x2="311" y1="328.1875" y2="328.1875"/></g><!--class RecycledViewPool--><g id="elem_RecycledViewPool"><rect fill="#F1F1F1" height="48" id="RecycledViewPool" rx="2.5" ry="2.5" style="stroke:#181818;stroke-width:0.5;" width="162" x="78.5" y="396"/><ellipse cx="93.5" cy="412" fill="#ADD1B2" rx="11" ry="11" style="stroke:#181818;stroke-width:1.0;"/><path d="M95.8438,407.6719 C94.9063,407.2344 94.3125,407.0938 93.4375,407.0938 C90.8125,407.0938 88.8125,409.1719 88.8125,411.8906 L88.8125,413.0156 C88.8125,415.5938 90.9219,417.4844 93.8125,417.4844 C95.0313,417.4844 96.1875,417.1875 96.9375,416.6406 C97.5156,416.2344 97.8438,415.7813 97.8438,415.3906 C97.8438,414.9375 97.4531,414.5469 96.9844,414.5469 C96.7656,414.5469 96.5625,414.625 96.375,414.8125 C95.9219,415.2969 95.9219,415.2969 95.7344,415.3906 C95.3125,415.6563 94.625,415.7813 93.8594,415.7813 C91.8125,415.7813 90.5156,414.6875 90.5156,412.9844 L90.5156,411.8906 C90.5156,410.1094 91.7656,408.7969 93.5,408.7969 C94.0781,408.7969 94.6875,408.9531 95.1563,409.2031 C95.6406,409.4844 95.8125,409.7031 95.9063,410.1094 C95.9688,410.5156 96,410.6406 96.1406,410.7656 C96.2813,410.9063 96.5156,411.0156 96.7344,411.0156 C97,411.0156 97.2656,410.875 97.4375,410.6563 C97.5469,410.5 97.5781,410.3125 97.5781,409.8906 L97.5781,408.4688 C97.5781,408.0313 97.5625,407.9063 97.4688,407.75 C97.3125,407.4844 97.0313,407.3438 96.7344,407.3438 C96.4375,407.3438 96.2344,407.4375 96.0156,407.75 L95.8438,407.6719 Z " fill="#000000"/><text fill="#000000" font-family="sans-serif" font-size="14" lengthAdjust="spacing" textLength="130" x="107.5" y="416.8467">RecycledViewPool</text><line style="stroke:#181818;stroke-width:0.5;" x1="79.5" x2="239.5" y1="428" y2="428"/><line style="stroke:#181818;stroke-width:0.5;" x1="79.5" x2="239.5" y1="436" y2="436"/></g><!--reverse link ViewGroup to RecyclerView--><g id="link_ViewGroup_RecyclerView"><path codeLine="1" d="M109.7869,69.5632 C122.614,87.2212 129.674,96.941 142.559,114.678 " fill="none" id="ViewGroup-backto-RecyclerView" style="stroke:#181818;stroke-width:1.0;"/><polygon fill="none" points="99.2079,55,104.9325,73.0895,114.6412,66.0368,99.2079,55" style="stroke:#181818;stroke-width:1.0;"/></g><!--reverse link ScrollingView to RecyclerView--><g id="link_ScrollingView_RecyclerView"><path codeLine="3" d="M209.2131,69.5632 C196.3861,87.2212 189.326,96.941 176.441,114.678 " fill="none" id="ScrollingView-backto-RecyclerView" style="stroke:#181818;stroke-width:1.0;stroke-dasharray:7.0,7.0;"/><polygon fill="none" points="219.792,55,204.3587,66.0369,214.0675,73.0895,219.792,55" style="stroke:#181818;stroke-width:1.0;"/></g><!--reverse link RecyclerView to Recycler--><g id="link_RecyclerView_Recycler"><path codeLine="10" d="M159.5,175.182 C159.5,191.507 159.5,202.084 159.5,222.937 " fill="none" id="RecyclerView-backto-Recycler" style="stroke:#181818;stroke-width:1.0;"/><polygon fill="#181818" points="159.5,163.182,155.5,169.182,159.5,175.182,163.5,169.182,159.5,163.182" style="stroke:#181818;stroke-width:1.0;"/></g><!--reverse link Recycler to RecycledViewPool--><g id="link_Recycler_RecycledViewPool"><path codeLine="11" d="M159.5,348.035 C159.5,368.9568 159.5,379.6181 159.5,395.9619 " fill="none" id="Recycler-backto-RecycledViewPool" style="stroke:#181818;stroke-width:1.0;"/><polygon fill="#181818" points="159.5,336.035,155.5,342.035,159.5,348.035,163.5,342.035,159.5,336.035" style="stroke:#181818;stroke-width:1.0;"/></g><!--SRC=[2yjCBNSloYyjKB2fqTLL24fDhapEIIqA0mfpPUQLf1Qb9IQdAWGd5-Ndv6JcfOF5KNX0VNfwgFgISnABY-522jLS2a3WM5IKMEcJMLnY0rBZaP-Jabfafv3hM5AIc9oHcW8qCx40dqBdZCIyT6BKWOq32HM3bK6T0HO9oC_FKSY5EGp4uwhbGdQwWXPI6C1ba4NXvW00]--></g></svg>