<?xml version="1.0" encoding="us-ascii" standalone="no"?><svg xmlns="http://www.w3.org/2000/svg" xmlns:xlink="http://www.w3.org/1999/xlink" contentStyleType="text/css" height="448px" preserveAspectRatio="none" style="width:830px;height:448px;background:#FFFFFF;" version="1.1" viewBox="0 0 830 448" width="830px" zoomAndPan="magnify"><defs/><g><!--class PipelineDraweeControllerBuilderSupplier--><g id="elem_PipelineDraweeControllerBuilderSupplier"><rect codeLine="1" fill="#F1F1F1" height="64.2969" id="PipelineDraweeControllerBuilderSupplier" rx="2.5" ry="2.5" style="stroke:#181818;stroke-width:0.5;" width="327" x="88" y="268"/><ellipse cx="103" cy="284" fill="#ADD1B2" rx="11" ry="11" style="stroke:#181818;stroke-width:1.0;"/><path d="M105.3438,279.6719 C104.4063,279.2344 103.8125,279.0938 102.9375,279.0938 C100.3125,279.0938 98.3125,281.1719 98.3125,283.8906 L98.3125,285.0156 C98.3125,287.5938 100.4219,289.4844 103.3125,289.4844 C104.5313,289.4844 105.6875,289.1875 106.4375,288.6406 C107.0156,288.2344 107.3438,287.7813 107.3438,287.3906 C107.3438,286.9375 106.9531,286.5469 106.4844,286.5469 C106.2656,286.5469 106.0625,286.625 105.875,286.8125 C105.4219,287.2969 105.4219,287.2969 105.2344,287.3906 C104.8125,287.6563 104.125,287.7813 103.3594,287.7813 C101.3125,287.7813 100.0156,286.6875 100.0156,284.9844 L100.0156,283.8906 C100.0156,282.1094 101.2656,280.7969 103,280.7969 C103.5781,280.7969 104.1875,280.9531 104.6563,281.2031 C105.1406,281.4844 105.3125,281.7031 105.4063,282.1094 C105.4688,282.5156 105.5,282.6406 105.6406,282.7656 C105.7813,282.9063 106.0156,283.0156 106.2344,283.0156 C106.5,283.0156 106.7656,282.875 106.9375,282.6563 C107.0469,282.5 107.0781,282.3125 107.0781,281.8906 L107.0781,280.4688 C107.0781,280.0313 107.0625,279.9063 106.9688,279.75 C106.8125,279.4844 106.5313,279.3438 106.2344,279.3438 C105.9375,279.3438 105.7344,279.4375 105.5156,279.75 L105.3438,279.6719 Z " fill="#000000"/><text fill="#000000" font-family="sans-serif" font-size="14" lengthAdjust="spacing" textLength="295" x="117" y="288.8467">PipelineDraweeControllerBuilderSupplier</text><line style="stroke:#181818;stroke-width:0.5;" x1="89" x2="414" y1="300" y2="300"/><line style="stroke:#181818;stroke-width:0.5;" x1="89" x2="414" y1="308" y2="308"/><text fill="#000000" font-family="sans-serif" font-size="14" lengthAdjust="spacing" textLength="274" x="94" y="324.9951">PipelineDraweeControllerBuilder get()</text></g><g id="elem_GMN3"><path d="M6,287.5 L6,312.6328 A0,0 0 0 0 6,312.6328 L53,312.6328 A0,0 0 0 0 53,312.6328 L53,305.5 L87.7921,300 L53,297.5 L53,297.5 L43,287.5 L6,287.5 A0,0 0 0 0 6,287.5 " fill="#FEFFDD" style="stroke:#181818;stroke-width:0.5;"/><path d="M43,287.5 L43,297.5 L53,297.5 L43,287.5 " fill="#FEFFDD" style="stroke:#181818;stroke-width:0.5;"/><text fill="#000000" font-family="sans-serif" font-size="13" lengthAdjust="spacing" textLength="26" x="12" y="304.5669">&#21333;&#20363;</text></g><!--class ImagePipeline--><g id="elem_ImagePipeline"><rect fill="#F1F1F1" height="48" id="ImagePipeline" rx="2.5" ry="2.5" style="stroke:#181818;stroke-width:0.5;" width="134" x="222.5" y="393"/><ellipse cx="237.5" cy="409" fill="#ADD1B2" rx="11" ry="11" style="stroke:#181818;stroke-width:1.0;"/><path d="M239.8438,404.6719 C238.9063,404.2344 238.3125,404.0938 237.4375,404.0938 C234.8125,404.0938 232.8125,406.1719 232.8125,408.8906 L232.8125,410.0156 C232.8125,412.5938 234.9219,414.4844 237.8125,414.4844 C239.0313,414.4844 240.1875,414.1875 240.9375,413.6406 C241.5156,413.2344 241.8438,412.7813 241.8438,412.3906 C241.8438,411.9375 241.4531,411.5469 240.9844,411.5469 C240.7656,411.5469 240.5625,411.625 240.375,411.8125 C239.9219,412.2969 239.9219,412.2969 239.7344,412.3906 C239.3125,412.6563 238.625,412.7813 237.8594,412.7813 C235.8125,412.7813 234.5156,411.6875 234.5156,409.9844 L234.5156,408.8906 C234.5156,407.1094 235.7656,405.7969 237.5,405.7969 C238.0781,405.7969 238.6875,405.9531 239.1563,406.2031 C239.6406,406.4844 239.8125,406.7031 239.9063,407.1094 C239.9688,407.5156 240,407.6406 240.1406,407.7656 C240.2813,407.9063 240.5156,408.0156 240.7344,408.0156 C241,408.0156 241.2656,407.875 241.4375,407.6563 C241.5469,407.5 241.5781,407.3125 241.5781,406.8906 L241.5781,405.4688 C241.5781,405.0313 241.5625,404.9063 241.4688,404.75 C241.3125,404.4844 241.0313,404.3438 240.7344,404.3438 C240.4375,404.3438 240.2344,404.4375 240.0156,404.75 L239.8438,404.6719 Z " fill="#000000"/><text fill="#000000" font-family="sans-serif" font-size="14" lengthAdjust="spacing" textLength="102" x="251.5" y="413.8467">ImagePipeline</text><line style="stroke:#181818;stroke-width:0.5;" x1="223.5" x2="355.5" y1="425" y2="425"/><line style="stroke:#181818;stroke-width:0.5;" x1="223.5" x2="355.5" y1="433" y2="433"/></g><!--class PipelineDraweeControllerBuilder--><g id="elem_PipelineDraweeControllerBuilder"><rect fill="#F1F1F1" height="48" id="PipelineDraweeControllerBuilder" rx="2.5" ry="2.5" style="stroke:#181818;stroke-width:0.5;" width="267" x="478" y="276"/><ellipse cx="493" cy="292" fill="#ADD1B2" rx="11" ry="11" style="stroke:#181818;stroke-width:1.0;"/><path d="M495.3438,287.6719 C494.4063,287.2344 493.8125,287.0938 492.9375,287.0938 C490.3125,287.0938 488.3125,289.1719 488.3125,291.8906 L488.3125,293.0156 C488.3125,295.5938 490.4219,297.4844 493.3125,297.4844 C494.5313,297.4844 495.6875,297.1875 496.4375,296.6406 C497.0156,296.2344 497.3438,295.7813 497.3438,295.3906 C497.3438,294.9375 496.9531,294.5469 496.4844,294.5469 C496.2656,294.5469 496.0625,294.625 495.875,294.8125 C495.4219,295.2969 495.4219,295.2969 495.2344,295.3906 C494.8125,295.6563 494.125,295.7813 493.3594,295.7813 C491.3125,295.7813 490.0156,294.6875 490.0156,292.9844 L490.0156,291.8906 C490.0156,290.1094 491.2656,288.7969 493,288.7969 C493.5781,288.7969 494.1875,288.9531 494.6563,289.2031 C495.1406,289.4844 495.3125,289.7031 495.4063,290.1094 C495.4688,290.5156 495.5,290.6406 495.6406,290.7656 C495.7813,290.9063 496.0156,291.0156 496.2344,291.0156 C496.5,291.0156 496.7656,290.875 496.9375,290.6563 C497.0469,290.5 497.0781,290.3125 497.0781,289.8906 L497.0781,288.4688 C497.0781,288.0313 497.0625,287.9063 496.9688,287.75 C496.8125,287.4844 496.5313,287.3438 496.2344,287.3438 C495.9375,287.3438 495.7344,287.4375 495.5156,287.75 L495.3438,287.6719 Z " fill="#000000"/><text fill="#000000" font-family="sans-serif" font-size="14" lengthAdjust="spacing" textLength="235" x="507" y="296.8467">PipelineDraweeControllerBuilder</text><line style="stroke:#181818;stroke-width:0.5;" x1="479" x2="744" y1="308" y2="308"/><line style="stroke:#181818;stroke-width:0.5;" x1="479" x2="744" y1="316" y2="316"/></g><!--class PipelineDraweeControllerFactory--><g id="elem_PipelineDraweeControllerFactory"><rect fill="#F1F1F1" height="48" id="PipelineDraweeControllerFactory" rx="2.5" ry="2.5" style="stroke:#181818;stroke-width:0.5;" width="271" x="407" y="393"/><ellipse cx="422" cy="409" fill="#ADD1B2" rx="11" ry="11" style="stroke:#181818;stroke-width:1.0;"/><path d="M424.3438,404.6719 C423.4063,404.2344 422.8125,404.0938 421.9375,404.0938 C419.3125,404.0938 417.3125,406.1719 417.3125,408.8906 L417.3125,410.0156 C417.3125,412.5938 419.4219,414.4844 422.3125,414.4844 C423.5313,414.4844 424.6875,414.1875 425.4375,413.6406 C426.0156,413.2344 426.3438,412.7813 426.3438,412.3906 C426.3438,411.9375 425.9531,411.5469 425.4844,411.5469 C425.2656,411.5469 425.0625,411.625 424.875,411.8125 C424.4219,412.2969 424.4219,412.2969 424.2344,412.3906 C423.8125,412.6563 423.125,412.7813 422.3594,412.7813 C420.3125,412.7813 419.0156,411.6875 419.0156,409.9844 L419.0156,408.8906 C419.0156,407.1094 420.2656,405.7969 422,405.7969 C422.5781,405.7969 423.1875,405.9531 423.6563,406.2031 C424.1406,406.4844 424.3125,406.7031 424.4063,407.1094 C424.4688,407.5156 424.5,407.6406 424.6406,407.7656 C424.7813,407.9063 425.0156,408.0156 425.2344,408.0156 C425.5,408.0156 425.7656,407.875 425.9375,407.6563 C426.0469,407.5 426.0781,407.3125 426.0781,406.8906 L426.0781,405.4688 C426.0781,405.0313 426.0625,404.9063 425.9688,404.75 C425.8125,404.4844 425.5313,404.3438 425.2344,404.3438 C424.9375,404.3438 424.7344,404.4375 424.5156,404.75 L424.3438,404.6719 Z " fill="#000000"/><text fill="#000000" font-family="sans-serif" font-size="14" lengthAdjust="spacing" textLength="239" x="436" y="413.8467">PipelineDraweeControllerFactory</text><line style="stroke:#181818;stroke-width:0.5;" x1="408" x2="677" y1="425" y2="425"/><line style="stroke:#181818;stroke-width:0.5;" x1="408" x2="677" y1="433" y2="433"/></g><!--class AbstractDraweeControllerBuilder--><g id="elem_AbstractDraweeControllerBuilder"><rect codeLine="12" fill="#F1F1F1" height="64.2969" id="AbstractDraweeControllerBuilder" rx="2.5" ry="2.5" style="stroke:#181818;stroke-width:0.5;" width="272" x="475.5" y="139"/><ellipse cx="492.3" cy="155" fill="#A9DCDF" rx="11" ry="11" style="stroke:#181818;stroke-width:1.0;"/><path d="M494.3781,156.8125 L494.7688,157.7969 L494.3781,157.7969 C493.925,157.7969 493.8156,157.8125 493.6594,157.9219 C493.4094,158.0781 493.2531,158.3594 493.2531,158.6563 C493.2531,158.9219 493.3938,159.1719 493.6125,159.3281 C493.7531,159.4531 493.9563,159.5 494.3781,159.5 L496.7375,159.5 C497.0969,159.5 497.3156,159.4688 497.4563,159.375 C497.7063,159.2344 497.8625,158.9375 497.8625,158.6563 C497.8625,158.375 497.7219,158.125 497.5031,157.9688 C497.3313,157.8281 497.175,157.7969 496.7063,157.7969 L493.3156,149.5938 L489.6438,149.5938 C489.1906,149.5938 489.0656,149.6094 488.9094,149.7031 C488.6594,149.875 488.5031,150.1563 488.5031,150.4375 C488.5031,150.7188 488.6438,150.9688 488.8625,151.1406 C489.0344,151.25 489.2063,151.2813 489.6438,151.2813 L490.7219,151.2813 L488.0813,157.7969 C487.6594,157.7969 487.5031,157.8125 487.3469,157.9219 C487.0969,158.0781 486.9406,158.3594 486.9406,158.6563 C486.9406,159.2188 487.3156,159.5 488.0656,159.5 L490.3313,159.5 C490.6906,159.5 490.9094,159.4688 491.0344,159.375 C491.3,159.2344 491.4406,158.9375 491.4406,158.6563 C491.4406,158.375 491.3156,158.125 491.0969,157.9531 C490.925,157.8281 490.7844,157.7969 490.3313,157.7969 L489.9406,157.7969 L490.3313,156.8125 L494.3781,156.8125 Z M493.675,155.1094 L491.0031,155.1094 L492.3469,151.8438 L493.675,155.1094 Z " fill="#000000"/><text fill="#000000" font-family="sans-serif" font-size="14" font-style="italic" lengthAdjust="spacing" textLength="236" x="506.7" y="159.8467">AbstractDraweeControllerBuilder</text><line style="stroke:#181818;stroke-width:0.5;" x1="476.5" x2="746.5" y1="171" y2="171"/><line style="stroke:#181818;stroke-width:0.5;" x1="476.5" x2="746.5" y1="179" y2="179"/><text fill="#000000" font-family="sans-serif" font-size="14" lengthAdjust="spacing" textLength="260" x="481.5" y="195.9951">getDataSourceSupplierForRequest()</text></g><!--class Supplier--><g id="elem_Supplier"><rect codeLine="11" fill="#F1F1F1" height="48" id="Supplier" rx="2.5" ry="2.5" style="stroke:#181818;stroke-width:0.5;" width="416" x="403.5" y="10"/><ellipse cx="418.5" cy="26" fill="#ADD1B2" rx="11" ry="11" style="stroke:#181818;stroke-width:1.0;"/><path d="M420.8438,21.6719 C419.9063,21.2344 419.3125,21.0938 418.4375,21.0938 C415.8125,21.0938 413.8125,23.1719 413.8125,25.8906 L413.8125,27.0156 C413.8125,29.5938 415.9219,31.4844 418.8125,31.4844 C420.0313,31.4844 421.1875,31.1875 421.9375,30.6406 C422.5156,30.2344 422.8438,29.7813 422.8438,29.3906 C422.8438,28.9375 422.4531,28.5469 421.9844,28.5469 C421.7656,28.5469 421.5625,28.625 421.375,28.8125 C420.9219,29.2969 420.9219,29.2969 420.7344,29.3906 C420.3125,29.6563 419.625,29.7813 418.8594,29.7813 C416.8125,29.7813 415.5156,28.6875 415.5156,26.9844 L415.5156,25.8906 C415.5156,24.1094 416.7656,22.7969 418.5,22.7969 C419.0781,22.7969 419.6875,22.9531 420.1563,23.2031 C420.6406,23.4844 420.8125,23.7031 420.9063,24.1094 C420.9688,24.5156 421,24.6406 421.1406,24.7656 C421.2813,24.9063 421.5156,25.0156 421.7344,25.0156 C422,25.0156 422.2656,24.875 422.4375,24.6563 C422.5469,24.5 422.5781,24.3125 422.5781,23.8906 L422.5781,22.4688 C422.5781,22.0313 422.5625,21.9063 422.4688,21.75 C422.3125,21.4844 422.0313,21.3438 421.7344,21.3438 C421.4375,21.3438 421.2344,21.4375 421.0156,21.75 L420.8438,21.6719 Z " fill="#000000"/><text fill="#000000" font-family="sans-serif" font-size="14" lengthAdjust="spacing" textLength="60" x="432.5" y="30.8467">Supplier</text><rect fill="#FFFFFF" height="15.9688" style="stroke:#181818;stroke-width:1.0;stroke-dasharray:2.0,2.0;" width="322" x="500.5" y="7"/><text fill="#000000" font-family="sans-serif" font-size="12" font-style="italic" lengthAdjust="spacing" textLength="320" x="501.5" y="19.1387">DataSource&lt;CloseableReference&lt;CloseableImage&gt;&gt;</text><line style="stroke:#181818;stroke-width:0.5;" x1="404.5" x2="818.5" y1="42" y2="42"/><line style="stroke:#181818;stroke-width:0.5;" x1="404.5" x2="818.5" y1="50" y2="50"/></g><!--reverse link PipelineDraweeControllerBuilderSupplier to ImagePipeline--><g id="link_PipelineDraweeControllerBuilderSupplier_ImagePipeline"><path codeLine="5" d="M265.5484,343.5149 C271.8794,362.672 276.092,375.4234 281.862,392.8836 " fill="none" id="PipelineDraweeControllerBuilderSupplier-backto-ImagePipeline" style="stroke:#181818;stroke-width:1.0;"/><polygon fill="#181818" points="261.783,332.121,259.8677,339.0731,265.5484,343.5149,267.4637,336.5628,261.783,332.121" style="stroke:#181818;stroke-width:1.0;"/></g><!--link PipelineDraweeControllerBuilderSupplier to PipelineDraweeControllerBuilder--><g id="link_PipelineDraweeControllerBuilderSupplier_PipelineDraweeControllerBuilder"><path codeLine="6" d="M415.172,300 C436.161,300 451.448,300 471.88,300 " fill="none" id="PipelineDraweeControllerBuilderSupplier-to-PipelineDraweeControllerBuilder" style="stroke:#181818;stroke-width:1.0;"/><polygon fill="#181818" points="477.88,300,468.88,296,472.88,300,468.88,304,477.88,300" style="stroke:#181818;stroke-width:1.0;"/><text fill="#000000" font-family="sans-serif" font-size="13" lengthAdjust="spacing" textLength="26" x="433.5" y="293.0669">&#26500;&#36896;</text></g><!--reverse link PipelineDraweeControllerBuilder to ImagePipeline--><g id="link_PipelineDraweeControllerBuilder_ImagePipeline"><path codeLine="7" d="M535.4251,328.1699 C479.4111,348.1744 410.154,372.9093 354.171,392.9033 " fill="none" id="PipelineDraweeControllerBuilder-backto-ImagePipeline" style="stroke:#181818;stroke-width:1.0;"/><polygon fill="#181818" points="546.726,324.134,539.7302,322.385,535.4251,328.1699,542.4208,329.919,546.726,324.134" style="stroke:#181818;stroke-width:1.0;"/></g><!--reverse link PipelineDraweeControllerBuilderSupplier to PipelineDraweeControllerFactory--><g id="link_PipelineDraweeControllerBuilderSupplier_PipelineDraweeControllerFactory"><path codeLine="8" d="M341.4092,336.5313 C389.8862,355.6884 439.824,375.4234 484.006,392.8836 " fill="none" id="PipelineDraweeControllerBuilderSupplier-backto-PipelineDraweeControllerFactory" style="stroke:#181818;stroke-width:1.0;"/><polygon fill="#181818" points="330.249,332.121,334.359,338.0462,341.4092,336.5313,337.2992,330.6061,330.249,332.121" style="stroke:#181818;stroke-width:1.0;"/></g><!--reverse link PipelineDraweeControllerBuilder to PipelineDraweeControllerFactory--><g id="link_PipelineDraweeControllerBuilder_PipelineDraweeControllerFactory"><path codeLine="9" d="M591.3631,334.5619 C579.3921,354.5138 568.408,372.8207 556.442,392.7626 " fill="none" id="PipelineDraweeControllerBuilder-backto-PipelineDraweeControllerFactory" style="stroke:#181818;stroke-width:1.0;"/><polygon fill="#181818" points="597.537,324.272,591.0201,327.359,591.3631,334.5619,597.88,331.4749,597.537,324.272" style="stroke:#181818;stroke-width:1.0;"/></g><!--reverse link AbstractDraweeControllerBuilder to PipelineDraweeControllerBuilder--><g id="link_AbstractDraweeControllerBuilder_PipelineDraweeControllerBuilder"><path codeLine="10" d="M611.5,225.039 C611.5,246.919 611.5,256.482 611.5,275.7 " fill="none" id="AbstractDraweeControllerBuilder-backto-PipelineDraweeControllerBuilder" style="stroke:#181818;stroke-width:1.0;"/><polygon fill="none" points="611.5,207.039,605.5,225.039,617.5,225.039,611.5,207.039" style="stroke:#181818;stroke-width:1.0;"/></g><!--reverse link Supplier to AbstractDraweeControllerBuilder--><g id="link_Supplier_AbstractDraweeControllerBuilder"><path codeLine="15" d="M668.3825,60.9716 C698.8505,77.6166 729.594,100.378 747.5,135 C758.936,157.111 773.393,191 748.5,191 " fill="none" id="Supplier-backto-AbstractDraweeControllerBuilder" style="stroke:#181818;stroke-width:1.0;stroke-dasharray:7.0,7.0;"/><polygon fill="#181818" points="663.117,58.095,669.0975,65.9202,667.5049,60.4922,672.9329,58.8996,663.117,58.095" style="stroke:#181818;stroke-width:1.0;"/><text fill="#000000" font-family="sans-serif" font-size="13" lengthAdjust="spacing" textLength="91" x="724.5" y="101.0669">&#26500;&#36896;&#20869;&#37096;&#31867;&#36820;&#22238;</text></g><!--SRC=[Iyv9B2vM2CWiICt9p4jrAKeiJqrrpiyhAShFoKajSYhDp4b9BGekBIZ8oKmjKgZcKW020geLqbDBD3IvQhdoyajI5N9IqqeKyjE8ji9AuMdlr2Vxkhc8rQ2bgwlWcPkOdWhJGBHENJk2Nh5IU3QlvMN30a9cKk0Aa4vSQjqIaqloYog9ifsG6Ov9nIL5G3OkCsngy1W2LSIL34ukCBVRk2IM90RdbnObfzeuv-GNfoOcvQG6fQQb5gNc8Gk10yREpeuh4Ue61OWvX9m4IMx0v8Im1sQrMtvHK6fXQMen9AaHCCdAYe0X2dgb1Nfs2aYf41BlJzjQNpQlUBvnzulzKvxEdWS0]--></g></svg>