<?xml version="1.0" encoding="us-ascii" standalone="no"?><svg xmlns="http://www.w3.org/2000/svg" xmlns:xlink="http://www.w3.org/1999/xlink" contentStyleType="text/css" height="777px" preserveAspectRatio="none" style="width:837px;height:777px;background:#FFFFFF;" version="1.1" viewBox="0 0 837 777" width="837px" zoomAndPan="magnify"><defs/><g><rect fill="#FFFFFF" height="629.125" style="stroke:#181818;stroke-width:1.0;" width="10" x="48" y="104.5625"/><rect fill="#FFFFFF" height="415.4609" style="stroke:#181818;stroke-width:1.0;" width="10" x="53" y="146.6953"/><rect fill="#FFFFFF" height="127.3984" style="stroke:#181818;stroke-width:1.0;" width="10" x="53" y="606.2891"/><rect fill="#FFFFFF" height="85.2656" style="stroke:#181818;stroke-width:1.0;" width="10" x="58" y="648.4219"/><rect fill="#FFFFFF" height="43.1328" style="stroke:#181818;stroke-width:1.0;" width="10" x="63" y="690.5547"/><rect fill="#FFFFFF" height="116.3984" style="stroke:#181818;stroke-width:1.0;" width="10" x="373" y="180.8281"/><rect fill="#FFFFFF" height="122.3984" style="stroke:#181818;stroke-width:1.0;" width="10" x="373" y="368.4922"/><rect fill="#FFFFFF" height="131.2656" style="stroke:#181818;stroke-width:1.0;" width="10" x="610" y="267.2266"/><line style="stroke:#181818;stroke-width:0.5;stroke-dasharray:5.0,5.0;" x1="53" x2="53" y1="36.2969" y2="742.6875"/><line style="stroke:#181818;stroke-width:0.5;stroke-dasharray:5.0,5.0;" x1="377.5" x2="377.5" y1="36.2969" y2="742.6875"/><line style="stroke:#181818;stroke-width:0.5;stroke-dasharray:5.0,5.0;" x1="614.5" x2="614.5" y1="36.2969" y2="742.6875"/><line style="stroke:#181818;stroke-width:0.5;stroke-dasharray:5.0,5.0;" x1="793" x2="793" y1="36.2969" y2="742.6875"/><rect fill="#E2E2F0" height="30.2969" rx="2.5" ry="2.5" style="stroke:#181818;stroke-width:0.5;" width="96" x="5" y="5"/><text fill="#000000" font-family="sans-serif" font-size="14" lengthAdjust="spacing" textLength="82" x="12" y="24.9951">GapWorker</text><rect fill="#E2E2F0" height="30.2969" rx="2.5" ry="2.5" style="stroke:#181818;stroke-width:0.5;" width="96" x="5" y="741.6875"/><text fill="#000000" font-family="sans-serif" font-size="14" lengthAdjust="spacing" textLength="82" x="12" y="761.6826">GapWorker</text><rect fill="#E2E2F0" height="30.2969" rx="2.5" ry="2.5" style="stroke:#181818;stroke-width:0.5;" width="217" x="269.5" y="5"/><text fill="#000000" font-family="sans-serif" font-size="14" lengthAdjust="spacing" textLength="203" x="276.5" y="24.9951">LayoutPrefetchRegistryImpl</text><rect fill="#E2E2F0" height="30.2969" rx="2.5" ry="2.5" style="stroke:#181818;stroke-width:0.5;" width="217" x="269.5" y="741.6875"/><text fill="#000000" font-family="sans-serif" font-size="14" lengthAdjust="spacing" textLength="203" x="276.5" y="761.6826">LayoutPrefetchRegistryImpl</text><rect fill="#E2E2F0" height="30.2969" rx="2.5" ry="2.5" style="stroke:#181818;stroke-width:0.5;" width="167" x="531.5" y="5"/><text fill="#000000" font-family="sans-serif" font-size="14" lengthAdjust="spacing" textLength="153" x="538.5" y="24.9951">LinearLayoutManager</text><rect fill="#E2E2F0" height="30.2969" rx="2.5" ry="2.5" style="stroke:#181818;stroke-width:0.5;" width="167" x="531.5" y="741.6875"/><text fill="#000000" font-family="sans-serif" font-size="14" lengthAdjust="spacing" textLength="153" x="538.5" y="761.6826">LinearLayoutManager</text><rect fill="#E2E2F0" height="30.2969" rx="2.5" ry="2.5" style="stroke:#181818;stroke-width:0.5;" width="76" x="755" y="5"/><text fill="#000000" font-family="sans-serif" font-size="14" lengthAdjust="spacing" textLength="62" x="762" y="24.9951">Recycler</text><rect fill="#E2E2F0" height="30.2969" rx="2.5" ry="2.5" style="stroke:#181818;stroke-width:0.5;" width="76" x="755" y="741.6875"/><text fill="#000000" font-family="sans-serif" font-size="14" lengthAdjust="spacing" textLength="62" x="762" y="761.6826">Recycler</text><rect fill="#FFFFFF" height="629.125" style="stroke:#181818;stroke-width:1.0;" width="10" x="48" y="104.5625"/><rect fill="#FFFFFF" height="415.4609" style="stroke:#181818;stroke-width:1.0;" width="10" x="53" y="146.6953"/><rect fill="#FFFFFF" height="127.3984" style="stroke:#181818;stroke-width:1.0;" width="10" x="53" y="606.2891"/><rect fill="#FFFFFF" height="85.2656" style="stroke:#181818;stroke-width:1.0;" width="10" x="58" y="648.4219"/><rect fill="#FFFFFF" height="43.1328" style="stroke:#181818;stroke-width:1.0;" width="10" x="63" y="690.5547"/><rect fill="#FFFFFF" height="116.3984" style="stroke:#181818;stroke-width:1.0;" width="10" x="373" y="180.8281"/><rect fill="#FFFFFF" height="122.3984" style="stroke:#181818;stroke-width:1.0;" width="10" x="373" y="368.4922"/><rect fill="#FFFFFF" height="131.2656" style="stroke:#181818;stroke-width:1.0;" width="10" x="610" y="267.2266"/><ellipse cx="7.5" cy="66.6797" fill="none" rx="4" ry="4" style="stroke:#181818;stroke-width:1.5;"/><polygon fill="#181818" points="41,63.4297,51,67.4297,41,71.4297,45,67.4297" style="stroke:#181818;stroke-width:1.0;"/><line style="stroke:#181818;stroke-width:1.0;" x1="12" x2="47" y1="67.4297" y2="67.4297"/><text fill="#000000" font-family="sans-serif" font-size="13" lengthAdjust="spacing" textLength="21" x="15" y="62.3638">run</text><line style="stroke:#181818;stroke-width:1.0;" x1="53" x2="100" y1="91.5625" y2="91.5625"/><line style="stroke:#181818;stroke-width:1.0;" x1="100" x2="100" y1="91.5625" y2="104.5625"/><line style="stroke:#181818;stroke-width:1.0;" x1="59" x2="100" y1="104.5625" y2="104.5625"/><polygon fill="#181818" points="69,100.5625,59,104.5625,69,108.5625,65,104.5625" style="stroke:#181818;stroke-width:1.0;"/><text fill="#000000" font-family="sans-serif" font-size="13" lengthAdjust="spacing" textLength="54" x="65" y="86.4966">prefetch</text><line style="stroke:#181818;stroke-width:1.0;" x1="58" x2="105" y1="133.6953" y2="133.6953"/><line style="stroke:#181818;stroke-width:1.0;" x1="105" x2="105" y1="133.6953" y2="146.6953"/><line style="stroke:#181818;stroke-width:1.0;" x1="64" x2="105" y1="146.6953" y2="146.6953"/><polygon fill="#181818" points="74,142.6953,64,146.6953,74,150.6953,70,146.6953" style="stroke:#181818;stroke-width:1.0;"/><text fill="#000000" font-family="sans-serif" font-size="13" lengthAdjust="spacing" textLength="82" x="70" y="128.6294">buildTaskList</text><polygon fill="#181818" points="361,176.8281,371,180.8281,361,184.8281,365,180.8281" style="stroke:#181818;stroke-width:1.0;"/><line style="stroke:#181818;stroke-width:1.0;" x1="63" x2="367" y1="180.8281" y2="180.8281"/><text fill="#000000" font-family="sans-serif" font-size="13" lengthAdjust="spacing" textLength="216" x="70" y="175.7622">collectPrefetchPositionsFromView</text><line style="stroke:#181818;stroke-width:1.0;" x1="383" x2="425" y1="209.9609" y2="209.9609"/><line style="stroke:#181818;stroke-width:1.0;" x1="425" x2="425" y1="209.9609" y2="222.9609"/><line style="stroke:#181818;stroke-width:1.0;" x1="384" x2="425" y1="222.9609" y2="222.9609"/><polygon fill="#181818" points="394,218.9609,384,222.9609,394,226.9609,390,222.9609" style="stroke:#181818;stroke-width:1.0;"/><text fill="#000000" font-family="sans-serif" font-size="13" lengthAdjust="spacing" textLength="81" x="390" y="204.895">mCount &#28165;&#38646;</text><polygon fill="#181818" points="598,263.2266,608,267.2266,598,271.2266,602,267.2266" style="stroke:#181818;stroke-width:1.0;"/><line style="stroke:#181818;stroke-width:1.0;" x1="383" x2="604" y1="267.2266" y2="267.2266"/><text fill="#000000" font-family="sans-serif" font-size="13" lengthAdjust="spacing" textLength="208" x="390" y="247.0278">collectAdjacentPrefetchPositions</text><text fill="#000000" font-family="sans-serif" font-size="13" lengthAdjust="spacing" textLength="91" x="390" y="262.1606">&#39044;&#21152;&#36733;&#20020;&#36817;&#20803;&#32032;</text><line style="stroke:#181818;stroke-width:1.0;" x1="620" x2="662" y1="326.3594" y2="326.3594"/><line style="stroke:#181818;stroke-width:1.0;" x1="662" x2="662" y1="326.3594" y2="339.3594"/><line style="stroke:#181818;stroke-width:1.0;" x1="621" x2="662" y1="339.3594" y2="339.3594"/><polygon fill="#181818" points="631,335.3594,621,339.3594,631,343.3594,627,339.3594" style="stroke:#181818;stroke-width:1.0;"/><text fill="#000000" font-family="sans-serif" font-size="13" lengthAdjust="spacing" textLength="154" x="627" y="321.2935">&#33719;&#21462;&#19979;&#19968;&#20010;&#20803;&#32032;&#30340;position</text><polygon fill="#181818" points="394,364.4922,384,368.4922,394,372.4922,390,368.4922" style="stroke:#181818;stroke-width:1.0;"/><line style="stroke:#181818;stroke-width:1.0;" x1="388" x2="609" y1="368.4922" y2="368.4922"/><text fill="#000000" font-family="sans-serif" font-size="13" lengthAdjust="spacing" textLength="74" x="400" y="363.4263">addPosition</text><line style="stroke:#181818;stroke-width:1.0;" x1="383" x2="425" y1="442.7578" y2="442.7578"/><line style="stroke:#181818;stroke-width:1.0;" x1="425" x2="425" y1="442.7578" y2="455.7578"/><line style="stroke:#181818;stroke-width:1.0;" x1="384" x2="425" y1="455.7578" y2="455.7578"/><polygon fill="#181818" points="394,451.7578,384,455.7578,394,459.7578,390,455.7578" style="stroke:#181818;stroke-width:1.0;"/><text fill="#000000" font-family="sans-serif" font-size="13" lengthAdjust="spacing" textLength="141" x="390" y="422.5591">&#39044;&#21152;&#36733;&#30340;position&#20445;&#23384;&#21040;</text><text fill="#000000" font-family="sans-serif" font-size="13" lengthAdjust="spacing" textLength="141" x="390" y="437.6919">mPrefetchArray&#25968;&#32452;&#20013;</text><line style="stroke:#181818;stroke-width:1.0;" x1="383" x2="425" y1="489.8906" y2="489.8906"/><line style="stroke:#181818;stroke-width:1.0;" x1="425" x2="425" y1="489.8906" y2="502.8906"/><line style="stroke:#181818;stroke-width:1.0;" x1="378" x2="425" y1="502.8906" y2="502.8906"/><polygon fill="#181818" points="388,498.8906,378,502.8906,388,506.8906,384,502.8906" style="stroke:#181818;stroke-width:1.0;"/><text fill="#000000" font-family="sans-serif" font-size="13" lengthAdjust="spacing" textLength="81" x="390" y="484.8247">mCount &#21152;&#19968;</text><polygon fill="#181818" points="74,523.0234,64,527.0234,74,531.0234,70,527.0234" style="stroke:#181818;stroke-width:1.0;"/><line style="stroke:#181818;stroke-width:1.0;stroke-dasharray:2.0,2.0;" x1="68" x2="377" y1="527.0234" y2="527.0234"/><text fill="#000000" font-family="sans-serif" font-size="13" lengthAdjust="spacing" textLength="39" x="80" y="521.9575">return</text><line style="stroke:#181818;stroke-width:1.0;" x1="63" x2="105" y1="561.1563" y2="561.1563"/><line style="stroke:#181818;stroke-width:1.0;" x1="105" x2="105" y1="561.1563" y2="574.1563"/><line style="stroke:#181818;stroke-width:1.0;" x1="58" x2="105" y1="574.1563" y2="574.1563"/><polygon fill="#181818" points="68,570.1563,58,574.1563,68,578.1563,64,574.1563" style="stroke:#181818;stroke-width:1.0;"/><text fill="#000000" font-family="sans-serif" font-size="13" lengthAdjust="spacing" textLength="296" x="70" y="556.0903">&#26681;&#25454;mCount&#25968;&#37327;&#28155;&#21152;&#39044;&#21152;&#36733;&#20219;&#21153;&#21040;mTasks&#21015;&#34920;&#20013;</text><line style="stroke:#181818;stroke-width:1.0;" x1="58" x2="105" y1="593.2891" y2="593.2891"/><line style="stroke:#181818;stroke-width:1.0;" x1="105" x2="105" y1="593.2891" y2="606.2891"/><line style="stroke:#181818;stroke-width:1.0;" x1="64" x2="105" y1="606.2891" y2="606.2891"/><polygon fill="#181818" points="74,602.2891,64,606.2891,74,610.2891,70,606.2891" style="stroke:#181818;stroke-width:1.0;"/><text fill="#000000" font-family="sans-serif" font-size="13" lengthAdjust="spacing" textLength="153" x="70" y="588.2231">flushTasksWithDeadline</text><line style="stroke:#181818;stroke-width:1.0;" x1="63" x2="110" y1="635.4219" y2="635.4219"/><line style="stroke:#181818;stroke-width:1.0;" x1="110" x2="110" y1="635.4219" y2="648.4219"/><line style="stroke:#181818;stroke-width:1.0;" x1="69" x2="110" y1="648.4219" y2="648.4219"/><polygon fill="#181818" points="79,644.4219,69,648.4219,79,652.4219,75,648.4219" style="stroke:#181818;stroke-width:1.0;"/><text fill="#000000" font-family="sans-serif" font-size="13" lengthAdjust="spacing" textLength="146" x="75" y="630.356">flushTaskWithDeadline</text><line style="stroke:#181818;stroke-width:1.0;" x1="68" x2="115" y1="677.5547" y2="677.5547"/><line style="stroke:#181818;stroke-width:1.0;" x1="115" x2="115" y1="677.5547" y2="690.5547"/><line style="stroke:#181818;stroke-width:1.0;" x1="74" x2="115" y1="690.5547" y2="690.5547"/><polygon fill="#181818" points="84,686.5547,74,690.5547,84,694.5547,80,690.5547" style="stroke:#181818;stroke-width:1.0;"/><text fill="#000000" font-family="sans-serif" font-size="13" lengthAdjust="spacing" textLength="189" x="80" y="672.4888">prefetchPositionWithDeadline</text><polygon fill="#181818" points="781,720.6875,791,724.6875,781,728.6875,785,724.6875" style="stroke:#181818;stroke-width:1.0;"/><line style="stroke:#181818;stroke-width:1.0;" x1="73" x2="787" y1="724.6875" y2="724.6875"/><text fill="#000000" font-family="sans-serif" font-size="13" lengthAdjust="spacing" textLength="255" x="80" y="719.6216">tryGetViewHolderForPositionByDeadline</text><!--SRC=[dPDTIy9G6CVl_HIx5x_0BW8hjC109F8YRqxRKPTdE-FihDXTa98K9LtqGX5eLn4ONaWkHFmosvpVehEfCwqjyVBmFF_VytzUpY5ER71feEOngK32yHpHbTZylH2CntbE9R08gL2EoZdI9IJk0wsIaJIwc9W11jPfTWh9mHBB8CQkh29VAM24e134irYJg8GLBKMmV231qrY4FfhES_8MrXNAEMPj_Fpv7qXI822Jd3sWW9BVMI8HE4oAnq20oc-d1MNyMhKlc-vWO9bTTtXhryv7tMRiBs988PvpRtfsuzuohoppp3BV9uZHKrMTLWcbHKtNSmz4CHimrXzbqE8FJzRmnMu_slLEGP5diYGXm73kEgD-rJBRwrVqh4_Nn-goeKIYbWyQKfs4tZJFESqlv_fZWcTUnnSDfzTdPUPxxBDdYtKcUpUjsVK7j_NczID2853f150u1qRzYoBIjRBFo4kql0s1YDWULrAiAb2NxZ5SbuE28I1_0cnoQKYz_xM3aGX92fEPVjEOgRy1]--></g></svg>