<?xml version="1.0" encoding="us-ascii" standalone="no"?><svg xmlns="http://www.w3.org/2000/svg" xmlns:xlink="http://www.w3.org/1999/xlink" contentStyleType="text/css" height="504px" preserveAspectRatio="none" style="width:583px;height:504px;background:#FFFFFF;" version="1.1" viewBox="0 0 583 504" width="583px" zoomAndPan="magnify"><defs/><g><!--class CloseableReference--><g id="elem_CloseableReference"><rect codeLine="1" fill="#F1F1F1" height="64.2969" id="CloseableReference" rx="2.5" ry="2.5" style="stroke:#181818;stroke-width:0.5;" width="223" x="155" y="10"/><ellipse cx="170" cy="26" fill="#A9DCDF" rx="11" ry="11" style="stroke:#181818;stroke-width:1.0;"/><path d="M172.0781,27.8125 L172.4688,28.7969 L172.0781,28.7969 C171.625,28.7969 171.5156,28.8125 171.3594,28.9219 C171.1094,29.0781 170.9531,29.3594 170.9531,29.6563 C170.9531,29.9219 171.0938,30.1719 171.3125,30.3281 C171.4531,30.4531 171.6563,30.5 172.0781,30.5 L174.4375,30.5 C174.7969,30.5 175.0156,30.4688 175.1563,30.375 C175.4063,30.2344 175.5625,29.9375 175.5625,29.6563 C175.5625,29.375 175.4219,29.125 175.2031,28.9688 C175.0313,28.8281 174.875,28.7969 174.4063,28.7969 L171.0156,20.5938 L167.3438,20.5938 C166.8906,20.5938 166.7656,20.6094 166.6094,20.7031 C166.3594,20.875 166.2031,21.1563 166.2031,21.4375 C166.2031,21.7188 166.3438,21.9688 166.5625,22.1406 C166.7344,22.25 166.9063,22.2813 167.3438,22.2813 L168.4219,22.2813 L165.7813,28.7969 C165.3594,28.7969 165.2031,28.8125 165.0469,28.9219 C164.7969,29.0781 164.6406,29.3594 164.6406,29.6563 C164.6406,30.2188 165.0156,30.5 165.7656,30.5 L168.0313,30.5 C168.3906,30.5 168.6094,30.4688 168.7344,30.375 C169,30.2344 169.1406,29.9375 169.1406,29.6563 C169.1406,29.375 169.0156,29.125 168.7969,28.9531 C168.625,28.8281 168.4844,28.7969 168.0313,28.7969 L167.6406,28.7969 L168.0313,27.8125 L172.0781,27.8125 Z M171.375,26.1094 L168.7031,26.1094 L170.0469,22.8438 L171.375,26.1094 Z " fill="#000000"/><text fill="#000000" font-family="sans-serif" font-size="14" font-style="italic" lengthAdjust="spacing" textLength="144" x="184" y="30.8467">CloseableReference</text><rect fill="#FFFFFF" height="15.9688" style="stroke:#181818;stroke-width:1.0;stroke-dasharray:2.0,2.0;" width="45" x="336" y="7"/><text fill="#000000" font-family="sans-serif" font-size="12" font-style="italic" lengthAdjust="spacing" textLength="43" x="337" y="19.1387">Bitmap</text><line style="stroke:#181818;stroke-width:0.5;" x1="156" x2="377" y1="42" y2="42"/><line style="stroke:#181818;stroke-width:0.5;" x1="156" x2="377" y1="50" y2="50"/><text fill="#000000" font-family="sans-serif" font-size="14" lengthAdjust="spacing" textLength="81" x="161" y="66.9951">void close()</text></g><!--class SharedReference--><g id="elem_SharedReference"><rect codeLine="4" fill="#F1F1F1" height="80.5938" id="SharedReference" rx="2.5" ry="2.5" style="stroke:#181818;stroke-width:0.5;" width="204" x="165.5" y="159"/><ellipse cx="180.5" cy="175" fill="#ADD1B2" rx="11" ry="11" style="stroke:#181818;stroke-width:1.0;"/><path d="M182.8438,170.6719 C181.9063,170.2344 181.3125,170.0938 180.4375,170.0938 C177.8125,170.0938 175.8125,172.1719 175.8125,174.8906 L175.8125,176.0156 C175.8125,178.5938 177.9219,180.4844 180.8125,180.4844 C182.0313,180.4844 183.1875,180.1875 183.9375,179.6406 C184.5156,179.2344 184.8438,178.7813 184.8438,178.3906 C184.8438,177.9375 184.4531,177.5469 183.9844,177.5469 C183.7656,177.5469 183.5625,177.625 183.375,177.8125 C182.9219,178.2969 182.9219,178.2969 182.7344,178.3906 C182.3125,178.6563 181.625,178.7813 180.8594,178.7813 C178.8125,178.7813 177.5156,177.6875 177.5156,175.9844 L177.5156,174.8906 C177.5156,173.1094 178.7656,171.7969 180.5,171.7969 C181.0781,171.7969 181.6875,171.9531 182.1563,172.2031 C182.6406,172.4844 182.8125,172.7031 182.9063,173.1094 C182.9688,173.5156 183,173.6406 183.1406,173.7656 C183.2813,173.9063 183.5156,174.0156 183.7344,174.0156 C184,174.0156 184.2656,173.875 184.4375,173.6563 C184.5469,173.5 184.5781,173.3125 184.5781,172.8906 L184.5781,171.4688 C184.5781,171.0313 184.5625,170.9063 184.4688,170.75 C184.3125,170.4844 184.0313,170.3438 183.7344,170.3438 C183.4375,170.3438 183.2344,170.4375 183.0156,170.75 L182.8438,170.6719 Z " fill="#000000"/><text fill="#000000" font-family="sans-serif" font-size="14" lengthAdjust="spacing" textLength="125" x="194.5" y="179.8467">SharedReference</text><rect fill="#FFFFFF" height="15.9688" style="stroke:#181818;stroke-width:1.0;stroke-dasharray:2.0,2.0;" width="45" x="327.5" y="156"/><text fill="#000000" font-family="sans-serif" font-size="12" font-style="italic" lengthAdjust="spacing" textLength="43" x="328.5" y="168.1387">Bitmap</text><line style="stroke:#181818;stroke-width:0.5;" x1="166.5" x2="368.5" y1="191" y2="191"/><text fill="#000000" font-family="sans-serif" font-size="14" lengthAdjust="spacing" textLength="176" x="171.5" y="207.9951">int mRefCount //&#24341;&#29992;&#35745;&#25968;</text><line style="stroke:#181818;stroke-width:0.5;" x1="166.5" x2="368.5" y1="215.2969" y2="215.2969"/><text fill="#000000" font-family="sans-serif" font-size="14" lengthAdjust="spacing" textLength="132" x="171.5" y="232.292">deleteReference()</text></g><!--class ResourceReleaser--><g id="elem_ResourceReleaser"><rect codeLine="10" fill="#F1F1F1" height="64.2969" id="ResourceReleaser" rx="2.5" ry="2.5" style="stroke:#181818;stroke-width:0.5;" width="209" x="163" y="304"/><ellipse cx="178" cy="320" fill="#B4A7E5" rx="11" ry="11" style="stroke:#181818;stroke-width:1.0;"/><path d="M178.9531,316.7813 L180.6719,316.7813 C181.0625,316.7813 181.25,316.75 181.375,316.6719 C181.6406,316.5156 181.7813,316.2344 181.7813,315.9375 C181.7813,315.6719 181.6719,315.4063 181.4375,315.2344 C181.2656,315.125 181.125,315.0938 180.6719,315.0938 L175.5313,315.0938 C175.0938,315.0938 174.9688,315.1094 174.8125,315.2031 C174.5625,315.3594 174.4063,315.6563 174.4063,315.9375 C174.4063,316.2188 174.5469,316.4688 174.7656,316.6406 C174.9219,316.75 175.1094,316.7813 175.5313,316.7813 L177.25,316.7813 L177.25,323.2969 L175.5313,323.2969 C175.0938,323.2969 174.9688,323.3125 174.8125,323.4219 C174.5625,323.5781 174.4063,323.8594 174.4063,324.1563 C174.4063,324.4063 174.5469,324.6719 174.7656,324.8281 C174.9219,324.9531 175.125,325 175.5313,325 L180.6719,325 C181.4219,325 181.7813,324.7188 181.7813,324.1563 C181.7813,323.875 181.6719,323.625 181.4375,323.4531 C181.2656,323.3281 181.125,323.2969 180.6719,323.2969 L178.9531,323.2969 L178.9531,316.7813 Z " fill="#000000"/><text fill="#000000" font-family="sans-serif" font-size="14" font-style="italic" lengthAdjust="spacing" textLength="130" x="192" y="324.8467">ResourceReleaser</text><rect fill="#FFFFFF" height="15.9688" style="stroke:#181818;stroke-width:1.0;stroke-dasharray:2.0,2.0;" width="45" x="330" y="301"/><text fill="#000000" font-family="sans-serif" font-size="12" font-style="italic" lengthAdjust="spacing" textLength="43" x="331" y="313.1387">Bitmap</text><line style="stroke:#181818;stroke-width:0.5;" x1="164" x2="371" y1="336" y2="336"/><line style="stroke:#181818;stroke-width:0.5;" x1="164" x2="371" y1="344" y2="344"/><text fill="#000000" font-family="sans-serif" font-size="14" lengthAdjust="spacing" textLength="161" x="169" y="360.9951">void release(Bitmap v)</text></g><!--class BitmapPool--><g id="elem_BitmapPool"><rect codeLine="13" fill="#F1F1F1" height="64.2969" id="BitmapPool" rx="2.5" ry="2.5" style="stroke:#181818;stroke-width:0.5;" width="173" x="181" y="433"/><ellipse cx="223" cy="449" fill="#B4A7E5" rx="11" ry="11" style="stroke:#181818;stroke-width:1.0;"/><path d="M223.9531,445.7813 L225.6719,445.7813 C226.0625,445.7813 226.25,445.75 226.375,445.6719 C226.6406,445.5156 226.7813,445.2344 226.7813,444.9375 C226.7813,444.6719 226.6719,444.4063 226.4375,444.2344 C226.2656,444.125 226.125,444.0938 225.6719,444.0938 L220.5313,444.0938 C220.0938,444.0938 219.9688,444.1094 219.8125,444.2031 C219.5625,444.3594 219.4063,444.6563 219.4063,444.9375 C219.4063,445.2188 219.5469,445.4688 219.7656,445.6406 C219.9219,445.75 220.1094,445.7813 220.5313,445.7813 L222.25,445.7813 L222.25,452.2969 L220.5313,452.2969 C220.0938,452.2969 219.9688,452.3125 219.8125,452.4219 C219.5625,452.5781 219.4063,452.8594 219.4063,453.1563 C219.4063,453.4063 219.5469,453.6719 219.7656,453.8281 C219.9219,453.9531 220.125,454 220.5313,454 L225.6719,454 C226.4219,454 226.7813,453.7188 226.7813,453.1563 C226.7813,452.875 226.6719,452.625 226.4375,452.4531 C226.2656,452.3281 226.125,452.2969 225.6719,452.2969 L223.9531,452.2969 L223.9531,445.7813 Z " fill="#000000"/><text fill="#000000" font-family="sans-serif" font-size="14" font-style="italic" lengthAdjust="spacing" textLength="81" x="243" y="453.8467">BitmapPool</text><line style="stroke:#181818;stroke-width:0.5;" x1="182" x2="353" y1="465" y2="465"/><line style="stroke:#181818;stroke-width:0.5;" x1="182" x2="353" y1="473" y2="473"/><text fill="#000000" font-family="sans-serif" font-size="14" lengthAdjust="spacing" textLength="161" x="187" y="489.9951">void release(Bitmap v)</text></g><!--class Bitmap--><g id="elem_Bitmap"><rect fill="#F1F1F1" height="48" id="Bitmap" rx="2.5" ry="2.5" style="stroke:#181818;stroke-width:0.5;" width="85" x="7" y="175"/><ellipse cx="22" cy="191" fill="#ADD1B2" rx="11" ry="11" style="stroke:#181818;stroke-width:1.0;"/><path d="M24.3438,186.6719 C23.4063,186.2344 22.8125,186.0938 21.9375,186.0938 C19.3125,186.0938 17.3125,188.1719 17.3125,190.8906 L17.3125,192.0156 C17.3125,194.5938 19.4219,196.4844 22.3125,196.4844 C23.5313,196.4844 24.6875,196.1875 25.4375,195.6406 C26.0156,195.2344 26.3438,194.7813 26.3438,194.3906 C26.3438,193.9375 25.9531,193.5469 25.4844,193.5469 C25.2656,193.5469 25.0625,193.625 24.875,193.8125 C24.4219,194.2969 24.4219,194.2969 24.2344,194.3906 C23.8125,194.6563 23.125,194.7813 22.3594,194.7813 C20.3125,194.7813 19.0156,193.6875 19.0156,191.9844 L19.0156,190.8906 C19.0156,189.1094 20.2656,187.7969 22,187.7969 C22.5781,187.7969 23.1875,187.9531 23.6563,188.2031 C24.1406,188.4844 24.3125,188.7031 24.4063,189.1094 C24.4688,189.5156 24.5,189.6406 24.6406,189.7656 C24.7813,189.9063 25.0156,190.0156 25.2344,190.0156 C25.5,190.0156 25.7656,189.875 25.9375,189.6563 C26.0469,189.5 26.0781,189.3125 26.0781,188.8906 L26.0781,187.4688 C26.0781,187.0313 26.0625,186.9063 25.9688,186.75 C25.8125,186.4844 25.5313,186.3438 25.2344,186.3438 C24.9375,186.3438 24.7344,186.4375 24.5156,186.75 L24.3438,186.6719 Z " fill="#000000"/><text fill="#000000" font-family="sans-serif" font-size="14" lengthAdjust="spacing" textLength="53" x="36" y="195.8467">Bitmap</text><line style="stroke:#181818;stroke-width:0.5;" x1="8" x2="91" y1="207" y2="207"/><line style="stroke:#181818;stroke-width:0.5;" x1="8" x2="91" y1="215" y2="215"/></g><!--reverse link CloseableReference to SharedReference--><g id="link_CloseableReference_SharedReference"><path codeLine="8" d="M261.5641,89.9909 C260.6671,99.6829 260.948,98.264 260.5,108 C259.801,123.186 260.636,139.785 261.944,154.546 " fill="none" id="CloseableReference-backto-SharedReference" style="stroke:#181818;stroke-width:1.0;"/><polygon fill="#181818" points="262.67,78.042,258.1341,83.6478,261.5641,89.9909,266.1,84.3851,262.67,78.042" style="stroke:#181818;stroke-width:1.0;"/></g><!--link CloseableReference to SharedReference--><g id="link_CloseableReference_SharedReference"><path codeLine="9" d="M379.5,62 C452.942,62 449.942,227 376.5,227 " fill="none" id="CloseableReference-to-SharedReference" style="stroke:#008000;stroke-width:1.0;stroke-dasharray:7.0,7.0;"/><polygon fill="#008000" points="370.5,227,379.5,231,375.5,227,379.5,223,370.5,227" style="stroke:#008000;stroke-width:1.0;"/><text fill="#008000" font-family="sans-serif" font-size="13" lengthAdjust="spacing" textLength="26" x="430.5" y="121.0669">&#35843;&#29992;</text></g><!--reverse link ResourceReleaser to BitmapPool--><g id="link_ResourceReleaser_BitmapPool"><path codeLine="16" d="M267.5,386.068 C267.5,404.426 267.5,409.7285 267.5,428.7697 " fill="none" id="ResourceReleaser-backto-BitmapPool" style="stroke:#181818;stroke-width:1.0;"/><polygon fill="none" points="267.5,368.068,261.5,386.068,273.5,386.068,267.5,368.068" style="stroke:#181818;stroke-width:1.0;"/></g><!--link Bitmap to SharedReference--><g id="link_Bitmap_SharedReference"><path codeLine="17" d="M92.0781,199 C113.777,199 123.477,199 145.176,199 " fill="none" id="Bitmap-to-SharedReference" style="stroke:#181818;stroke-width:1.0;"/><polygon fill="#181818" points="157.176,199,151.176,195,145.176,199,151.176,203,157.176,199" style="stroke:#181818;stroke-width:1.0;"/></g><!--reverse link SharedReference to ResourceReleaser--><g id="link_SharedReference_ResourceReleaser"><path codeLine="18" d="M267.5,255.086 C267.5,274.84 267.5,285.819 267.5,303.859 " fill="none" id="SharedReference-backto-ResourceReleaser" style="stroke:#181818;stroke-width:1.0;"/><polygon fill="#181818" points="267.5,243.086,263.5,249.086,267.5,255.086,271.5,249.086,267.5,243.086" style="stroke:#181818;stroke-width:1.0;"/></g><!--link SharedReference to BitmapPool--><g id="link_SharedReference_BitmapPool"><path codeLine="19" d="M370.5,227 C485.36,227 476.36,485 361.5,485 " fill="none" id="SharedReference-to-BitmapPool" style="stroke:#0000FF;stroke-width:1.0;stroke-dasharray:1.0,3.0;"/><polygon fill="#0000FF" points="355.5,485,364.5,489,360.5,485,364.5,481,355.5,485" style="stroke:#0000FF;stroke-width:1.0;"/><text fill="#0000FF" font-family="sans-serif" font-size="13" lengthAdjust="spacing" textLength="125" x="450.5" y="340.5669">&#24403;&#24341;&#29992;&#35745;&#25968;&#20026;0&#26102;&#35843;&#29992;</text></g><!--link Bitmap to BitmapPool--><g id="link_Bitmap_BitmapPool"><path codeLine="20" d="M41.2317,223.047 C30.6095,256.691 16.0516,320.417 38.5,368 C73.3909,441.957 92.7258,485 174.5,485 " fill="none" id="Bitmap-to-BitmapPool" style="stroke:#FF0000;stroke-width:1.0;stroke-dasharray:7.0,7.0;"/><polygon fill="#FF0000" points="180.5,485,171.5,481,175.5,485,171.5,489,180.5,485" style="stroke:#FF0000;stroke-width:1.0;"/><text fill="#FF0000" font-family="sans-serif" font-size="13" lengthAdjust="spacing" textLength="105" x="39.5" y="333.0669">release&#25226;Bitmap</text><text fill="#FF0000" font-family="sans-serif" font-size="13" lengthAdjust="spacing" textLength="91" x="46.5" y="348.1997">&#37322;&#25918;&#21040;&#32531;&#23384;&#27744;&#20013;</text></g><!--SRC=[XL7DJi904BxtAIRXWYO5pmlX82zWyEfbQGTfidJDxa9Cr9C7JQz0zAWtBnYy66BGfw45tyBf3wbf8VJKp7n_yotlQgEuOy0HN6je2wcHTmLsi8SAVGURfvuPyAiMt5X0tqXwBc49LJsoxgoKTTxd2jrz5CytCA1bMmxfhruFbzFrv6tp_XfDvmd0HO4cTqo4oq7WsBQBJZjWZ2NfmBPRHJHZ1IUeN2f4lo4y7sikrtrq6mQl3Kl6m60plwUe5bs0giU9q44jXyeX2O5SezhLZaftrNG5e_YSN26Tdaaf3d6ANj2yfGPolbKuZmeIs3DRo8wrNSfl7QmexZ7tP2nB2fMk66BMd3HcsrmyfUB2x_7_PrujlawYfy-ipkp8McsFCWKgFmaDIJV3H46GCY_ytuSWclo4Z_FrSXpEdgEFbzLYzWS0]--></g></svg>