<?xml version="1.0" encoding="us-ascii" standalone="no"?><svg xmlns="http://www.w3.org/2000/svg" xmlns:xlink="http://www.w3.org/1999/xlink" contentStyleType="text/css" height="228px" preserveAspectRatio="none" style="width:580px;height:228px;background:#FFFFFF;" version="1.1" viewBox="0 0 580 228" width="580px" zoomAndPan="magnify"><defs/><g><rect fill="#F1F1F1" height="33.9688" rx="12.5" ry="12.5" style="stroke:#181818;stroke-width:0.5;" width="80" x="237" y="11"/><text fill="#000000" font-family="sans-serif" font-size="12" lengthAdjust="spacing" textLength="60" x="247" y="32.1387">&#28155;&#21152;&#26032;&#20219;&#21153;</text><polygon fill="#F1F1F1" points="48,64.9688,114,64.9688,126,76.9688,114,88.9688,48,88.9688,36,76.9688,48,64.9688" style="stroke:#181818;stroke-width:0.5;"/><text fill="#000000" font-family="sans-serif" font-size="11" lengthAdjust="spacing" textLength="14" x="85" y="99.1792">no</text><text fill="#000000" font-family="sans-serif" font-size="11" lengthAdjust="spacing" textLength="66" x="48" y="80.7769">&#26680;&#24515;&#32447;&#31243;&#24050;&#28385;</text><rect fill="#F1F1F1" height="33.9688" rx="12.5" ry="12.5" style="stroke:#181818;stroke-width:0.5;" width="140" x="11" y="121.7734"/><text fill="#000000" font-family="sans-serif" font-size="12" lengthAdjust="spacing" textLength="120" x="21" y="142.9121">&#21019;&#24314;&#26680;&#24515;&#32447;&#31243;&#25191;&#34892;&#20219;&#21153;</text><polygon fill="#F1F1F1" points="194,64.9688,260,64.9688,272,76.9688,260,88.9688,194,88.9688,182,76.9688,194,64.9688" style="stroke:#181818;stroke-width:0.5;"/><text fill="#000000" font-family="sans-serif" font-size="11" lengthAdjust="spacing" textLength="14" x="231" y="99.1792">no</text><text fill="#000000" font-family="sans-serif" font-size="11" lengthAdjust="spacing" textLength="66" x="194" y="80.7769">&#20219;&#21153;&#38431;&#21015;&#24050;&#28385;</text><text fill="#000000" font-family="sans-serif" font-size="11" lengthAdjust="spacing" textLength="21" x="161" y="74.3745">yes</text><rect fill="#F1F1F1" height="33.9688" rx="12.5" ry="12.5" style="stroke:#181818;stroke-width:0.5;" width="128" x="163" y="121.7734"/><text fill="#000000" font-family="sans-serif" font-size="12" lengthAdjust="spacing" textLength="108" x="173" y="142.9121">&#28155;&#21152;&#21040;&#38431;&#21015;&#31561;&#24453;&#25191;&#34892;</text><polygon fill="#F1F1F1" points="357.5,64.9688,434.5,64.9688,446.5,76.9688,434.5,88.9688,357.5,88.9688,345.5,76.9688,357.5,64.9688" style="stroke:#181818;stroke-width:0.5;"/><text fill="#000000" font-family="sans-serif" font-size="11" lengthAdjust="spacing" textLength="14" x="400" y="99.1792">no</text><text fill="#000000" font-family="sans-serif" font-size="11" lengthAdjust="spacing" textLength="77" x="357.5" y="80.7769">&#36798;&#21040;&#26368;&#22823;&#32447;&#31243;&#25968;</text><text fill="#000000" font-family="sans-serif" font-size="11" lengthAdjust="spacing" textLength="21" x="324.5" y="74.3745">yes</text><text fill="#000000" font-family="sans-serif" font-size="11" lengthAdjust="spacing" textLength="21" x="446.5" y="74.3745">yes</text><rect fill="#F1F1F1" height="33.9688" rx="12.5" ry="12.5" style="stroke:#181818;stroke-width:0.5;" width="128" x="332" y="121.7734"/><text fill="#000000" font-family="sans-serif" font-size="12" lengthAdjust="spacing" textLength="108" x="342" y="142.9121">&#21019;&#26032;&#26032;&#32447;&#31243;&#25191;&#34892;&#20219;&#21153;</text><rect fill="#F1F1F1" height="33.9688" rx="12.5" ry="12.5" style="stroke:#181818;stroke-width:0.5;" width="92" x="477.5" y="118.3711"/><text fill="#000000" font-family="sans-serif" font-size="12" lengthAdjust="spacing" textLength="72" x="487.5" y="139.5098">&#25191;&#34892;&#25298;&#32477;&#31574;&#30053;</text><ellipse cx="277" cy="206.7422" fill="none" rx="11" ry="11" style="stroke:#222222;stroke-width:1.0;"/><ellipse cx="277" cy="206.7422" fill="#222222" rx="6" ry="6" style="stroke:#222222;stroke-width:1.0;"/><line style="stroke:#181818;stroke-width:1.0;" x1="81" x2="81" y1="88.9688" y2="121.7734"/><polygon fill="#181818" points="77,111.7734,81,121.7734,85,111.7734,81,115.7734" style="stroke:#181818;stroke-width:1.0;"/><line style="stroke:#181818;stroke-width:1.0;" x1="81" x2="81" y1="155.7422" y2="175.7422"/><polygon fill="#181818" points="77,165.7422,81,175.7422,85,165.7422,81,169.7422" style="stroke:#181818;stroke-width:1.0;"/><line style="stroke:#181818;stroke-width:1.0;" x1="227" x2="227" y1="88.9688" y2="121.7734"/><polygon fill="#181818" points="223,111.7734,227,121.7734,231,111.7734,227,115.7734" style="stroke:#181818;stroke-width:1.0;"/><line style="stroke:#181818;stroke-width:1.0;" x1="227" x2="227" y1="155.7422" y2="175.7422"/><polygon fill="#181818" points="223,165.7422,227,175.7422,231,165.7422,227,169.7422" style="stroke:#181818;stroke-width:1.0;"/><line style="stroke:#181818;stroke-width:1.0;" x1="396" x2="396" y1="88.9688" y2="121.7734"/><polygon fill="#181818" points="392,111.7734,396,121.7734,400,111.7734,396,115.7734" style="stroke:#181818;stroke-width:1.0;"/><line style="stroke:#181818;stroke-width:1.0;" x1="396" x2="396" y1="155.7422" y2="175.7422"/><polygon fill="#181818" points="392,165.7422,396,175.7422,400,165.7422,396,169.7422" style="stroke:#181818;stroke-width:1.0;"/><line style="stroke:#181818;stroke-width:1.0;" x1="126" x2="182" y1="76.9688" y2="76.9688"/><polygon fill="#181818" points="172,72.9688,182,76.9688,172,80.9688,176,76.9688" style="stroke:#181818;stroke-width:1.0;"/><line style="stroke:#181818;stroke-width:1.0;" x1="272" x2="345.5" y1="76.9688" y2="76.9688"/><polygon fill="#181818" points="335.5,72.9688,345.5,76.9688,335.5,80.9688,339.5,76.9688" style="stroke:#181818;stroke-width:1.0;"/><line style="stroke:#181818;stroke-width:1.0;" x1="277" x2="277" y1="44.9688" y2="49.9688"/><line style="stroke:#181818;stroke-width:1.0;" x1="277" x2="81" y1="49.9688" y2="49.9688"/><line style="stroke:#181818;stroke-width:1.0;" x1="81" x2="81" y1="49.9688" y2="64.9688"/><polygon fill="#181818" points="77,54.9688,81,64.9688,85,54.9688,81,58.9688" style="stroke:#181818;stroke-width:1.0;"/><line style="stroke:#181818;stroke-width:1.0;" x1="446.5" x2="523.5" y1="76.9688" y2="76.9688"/><line style="stroke:#181818;stroke-width:1.0;" x1="523.5" x2="523.5" y1="76.9688" y2="118.3711"/><polygon fill="#181818" points="519.5,108.3711,523.5,118.3711,527.5,108.3711,523.5,112.3711" style="stroke:#181818;stroke-width:1.0;"/><line style="stroke:#181818;stroke-width:1.0;" x1="523.5" x2="523.5" y1="152.3398" y2="175.7422"/><polygon fill="#181818" points="519.5,165.7422,523.5,175.7422,527.5,165.7422,523.5,169.7422" style="stroke:#181818;stroke-width:1.0;"/><line style="stroke:#181818;stroke-width:1.0;" x1="81" x2="523.5" y1="175.7422" y2="175.7422"/><line style="stroke:#181818;stroke-width:1.0;" x1="277" x2="277" y1="175.7422" y2="195.7422"/><polygon fill="#181818" points="273,185.7422,277,195.7422,281,185.7422,277,189.7422" style="stroke:#181818;stroke-width:1.0;"/><!--SRC=[itgsVVVJhWNFfcruiXl8M6ZDbPcceF5imOwd-vkVxzh_V4Ntq-sRdkrUgAbGaf6Qfw2Hbw_9fQ1WzRHZzjFTkv2LFUjS_c9X3ymGZShKOas5r9pYL91n4D6NC-O_xPYER1pCD8WRddPiW2XvlhRpwRvMY87eHhtOjm-exjcSXgTBbaCjdhe1rJIWsu3U0I9i3WEPem0s4cmnMEvPzwJdk-S-Nplj-TIbG1LvAPbfNCKb-GK0]--></g></svg>