<?xml version="1.0" encoding="us-ascii" standalone="no"?><svg xmlns="http://www.w3.org/2000/svg" xmlns:xlink="http://www.w3.org/1999/xlink" contentStyleType="text/css" height="822px" preserveAspectRatio="none" style="width:867px;height:822px;background:#FFFFFF;" version="1.1" viewBox="0 0 867 822" width="867px" zoomAndPan="magnify"><defs/><g><rect fill="#FFFFFF" height="14" style="stroke:#181818;stroke-width:1.0;" width="10" x="84" y="67.4297"/><rect fill="#FFFFFF" height="23" style="stroke:#181818;stroke-width:1.0;" width="10" x="84" y="754.9531"/><rect fill="#FFFFFF" height="95.3984" style="stroke:#181818;stroke-width:1.0;" width="10" x="199" y="81.4297"/><rect fill="#FFFFFF" height="101.5313" style="stroke:#181818;stroke-width:1.0;" width="10" x="199" y="653.4219"/><rect fill="#FFFFFF" height="71.2656" style="stroke:#181818;stroke-width:1.0;" width="10" x="325" y="176.8281"/><rect fill="#FFFFFF" height="78.2656" style="stroke:#181818;stroke-width:1.0;" width="10" x="325" y="575.1563"/><rect fill="#FFFFFF" height="56.1328" style="stroke:#181818;stroke-width:1.0;" width="10" x="442" y="248.0938"/><rect fill="#FFFFFF" height="56.1328" style="stroke:#181818;stroke-width:1.0;" width="10" x="442" y="519.0234"/><rect fill="#FFFFFF" height="101.5313" style="stroke:#181818;stroke-width:1.0;" width="10" x="544" y="304.2266"/><rect fill="#FFFFFF" height="14" style="stroke:#181818;stroke-width:1.0;" width="10" x="544" y="505.0234"/><rect fill="#FFFFFF" height="14" style="stroke:#181818;stroke-width:1.0;" width="10" x="672" y="405.7578"/><rect fill="#FFFFFF" height="14" style="stroke:#181818;stroke-width:1.0;" width="10" x="672" y="491.0234"/><rect fill="#FFFFFF" height="71.2656" style="stroke:#181818;stroke-width:1.0;" width="10" x="780" y="419.7578"/><rect fill="none" height="486.7266" style="stroke:#000000;stroke-width:1.5;" width="730" x="131" y="153.6953"/><line style="stroke:#181818;stroke-width:0.5;stroke-dasharray:5.0,5.0;" x1="89" x2="89" y1="36.2969" y2="786.9531"/><line style="stroke:#181818;stroke-width:0.5;stroke-dasharray:5.0,5.0;" x1="204" x2="204" y1="36.2969" y2="786.9531"/><line style="stroke:#181818;stroke-width:0.5;stroke-dasharray:5.0,5.0;" x1="330" x2="330" y1="36.2969" y2="786.9531"/><line style="stroke:#181818;stroke-width:0.5;stroke-dasharray:5.0,5.0;" x1="447" x2="447" y1="36.2969" y2="786.9531"/><line style="stroke:#181818;stroke-width:0.5;stroke-dasharray:5.0,5.0;" x1="549" x2="549" y1="36.2969" y2="786.9531"/><line style="stroke:#181818;stroke-width:0.5;stroke-dasharray:5.0,5.0;" x1="677" x2="677" y1="36.2969" y2="786.9531"/><line style="stroke:#181818;stroke-width:0.5;stroke-dasharray:5.0,5.0;" x1="785" x2="785" y1="36.2969" y2="786.9531"/><rect fill="#FFFFFF" height="30.2969" rx="2.5" ry="2.5" style="stroke:#181818;stroke-width:0.5;" width="84" x="47" y="5"/><text fill="#000000" font-family="sans-serif" font-size="14" lengthAdjust="spacing" textLength="70" x="54" y="24.9951">&#24212;&#29992;&#25318;&#25130;&#22120;</text><rect fill="#FFFFFF" height="30.2969" rx="2.5" ry="2.5" style="stroke:#181818;stroke-width:0.5;" width="84" x="47" y="785.9531"/><text fill="#000000" font-family="sans-serif" font-size="14" lengthAdjust="spacing" textLength="70" x="54" y="805.9482">&#24212;&#29992;&#25318;&#25130;&#22120;</text><rect fill="#E2E2F0" height="30.2969" rx="2.5" ry="2.5" style="stroke:#181818;stroke-width:0.5;" width="126" x="141" y="5"/><text fill="#000000" font-family="sans-serif" font-size="14" lengthAdjust="spacing" textLength="112" x="148" y="24.9951">&#37325;&#35797;&#37325;&#23450;&#21521;&#25318;&#25130;&#22120;</text><rect fill="#E2E2F0" height="30.2969" rx="2.5" ry="2.5" style="stroke:#181818;stroke-width:0.5;" width="126" x="141" y="785.9531"/><text fill="#000000" font-family="sans-serif" font-size="14" lengthAdjust="spacing" textLength="112" x="148" y="805.9482">&#37325;&#35797;&#37325;&#23450;&#21521;&#25318;&#25130;&#22120;</text><rect fill="#E2E2F0" height="30.2969" rx="2.5" ry="2.5" style="stroke:#181818;stroke-width:0.5;" width="84" x="288" y="5"/><text fill="#000000" font-family="sans-serif" font-size="14" lengthAdjust="spacing" textLength="70" x="295" y="24.9951">&#26725;&#25509;&#25318;&#25130;&#22120;</text><rect fill="#E2E2F0" height="30.2969" rx="2.5" ry="2.5" style="stroke:#181818;stroke-width:0.5;" width="84" x="288" y="785.9531"/><text fill="#000000" font-family="sans-serif" font-size="14" lengthAdjust="spacing" textLength="70" x="295" y="805.9482">&#26725;&#25509;&#25318;&#25130;&#22120;</text><rect fill="#E2E2F0" height="30.2969" rx="2.5" ry="2.5" style="stroke:#181818;stroke-width:0.5;" width="84" x="405" y="5"/><text fill="#000000" font-family="sans-serif" font-size="14" lengthAdjust="spacing" textLength="70" x="412" y="24.9951">&#32531;&#23384;&#25318;&#25130;&#22120;</text><rect fill="#E2E2F0" height="30.2969" rx="2.5" ry="2.5" style="stroke:#181818;stroke-width:0.5;" width="84" x="405" y="785.9531"/><text fill="#000000" font-family="sans-serif" font-size="14" lengthAdjust="spacing" textLength="70" x="412" y="805.9482">&#32531;&#23384;&#25318;&#25130;&#22120;</text><rect fill="#E2E2F0" height="30.2969" rx="2.5" ry="2.5" style="stroke:#181818;stroke-width:0.5;" width="84" x="507" y="5"/><text fill="#000000" font-family="sans-serif" font-size="14" lengthAdjust="spacing" textLength="70" x="514" y="24.9951">&#36830;&#25509;&#25318;&#25130;&#22120;</text><rect fill="#E2E2F0" height="30.2969" rx="2.5" ry="2.5" style="stroke:#181818;stroke-width:0.5;" width="84" x="507" y="785.9531"/><text fill="#000000" font-family="sans-serif" font-size="14" lengthAdjust="spacing" textLength="70" x="514" y="805.9482">&#36830;&#25509;&#25318;&#25130;&#22120;</text><rect fill="#FFFFFF" height="30.2969" rx="2.5" ry="2.5" style="stroke:#181818;stroke-width:0.5;" width="84" x="635" y="5"/><text fill="#000000" font-family="sans-serif" font-size="14" lengthAdjust="spacing" textLength="70" x="642" y="24.9951">&#32593;&#32476;&#25318;&#25130;&#22120;</text><rect fill="#FFFFFF" height="30.2969" rx="2.5" ry="2.5" style="stroke:#181818;stroke-width:0.5;" width="84" x="635" y="785.9531"/><text fill="#000000" font-family="sans-serif" font-size="14" lengthAdjust="spacing" textLength="70" x="642" y="805.9482">&#32593;&#32476;&#25318;&#25130;&#22120;</text><rect fill="#E2E2F0" height="30.2969" rx="2.5" ry="2.5" style="stroke:#181818;stroke-width:0.5;" width="112" x="729" y="5"/><text fill="#000000" font-family="sans-serif" font-size="14" lengthAdjust="spacing" textLength="98" x="736" y="24.9951">&#26381;&#21153;&#35831;&#27714;&#25318;&#25130;&#22120;</text><rect fill="#E2E2F0" height="30.2969" rx="2.5" ry="2.5" style="stroke:#181818;stroke-width:0.5;" width="112" x="729" y="785.9531"/><text fill="#000000" font-family="sans-serif" font-size="14" lengthAdjust="spacing" textLength="98" x="736" y="805.9482">&#26381;&#21153;&#35831;&#27714;&#25318;&#25130;&#22120;</text><rect fill="#FFFFFF" height="14" style="stroke:#181818;stroke-width:1.0;" width="10" x="84" y="67.4297"/><rect fill="#FFFFFF" height="23" style="stroke:#181818;stroke-width:1.0;" width="10" x="84" y="754.9531"/><rect fill="#FFFFFF" height="95.3984" style="stroke:#181818;stroke-width:1.0;" width="10" x="199" y="81.4297"/><rect fill="#FFFFFF" height="101.5313" style="stroke:#181818;stroke-width:1.0;" width="10" x="199" y="653.4219"/><rect fill="#FFFFFF" height="71.2656" style="stroke:#181818;stroke-width:1.0;" width="10" x="325" y="176.8281"/><rect fill="#FFFFFF" height="78.2656" style="stroke:#181818;stroke-width:1.0;" width="10" x="325" y="575.1563"/><rect fill="#FFFFFF" height="56.1328" style="stroke:#181818;stroke-width:1.0;" width="10" x="442" y="248.0938"/><rect fill="#FFFFFF" height="56.1328" style="stroke:#181818;stroke-width:1.0;" width="10" x="442" y="519.0234"/><rect fill="#FFFFFF" height="101.5313" style="stroke:#181818;stroke-width:1.0;" width="10" x="544" y="304.2266"/><rect fill="#FFFFFF" height="14" style="stroke:#181818;stroke-width:1.0;" width="10" x="544" y="505.0234"/><rect fill="#FFFFFF" height="14" style="stroke:#181818;stroke-width:1.0;" width="10" x="672" y="405.7578"/><rect fill="#FFFFFF" height="14" style="stroke:#181818;stroke-width:1.0;" width="10" x="672" y="491.0234"/><rect fill="#FFFFFF" height="71.2656" style="stroke:#181818;stroke-width:1.0;" width="10" x="780" y="419.7578"/><ellipse cx="7.5" cy="66.6797" fill="none" rx="4" ry="4" style="stroke:#181818;stroke-width:1.5;"/><polygon fill="#181818" points="72,63.4297,82,67.4297,72,71.4297,76,67.4297" style="stroke:#181818;stroke-width:1.0;"/><line style="stroke:#181818;stroke-width:1.0;" x1="12" x2="78" y1="67.4297" y2="67.4297"/><text fill="#000000" font-family="sans-serif" font-size="13" lengthAdjust="spacing" textLength="57" x="15" y="62.3638">intercept</text><polygon fill="#181818" points="187,77.4297,197,81.4297,187,85.4297,191,81.4297" style="stroke:#181818;stroke-width:1.0;"/><line style="stroke:#181818;stroke-width:1.0;" x1="89" x2="193" y1="81.4297" y2="81.4297"/><line style="stroke:#181818;stroke-width:1.0;" x1="209" x2="251" y1="125.6953" y2="125.6953"/><line style="stroke:#181818;stroke-width:1.0;" x1="251" x2="251" y1="125.6953" y2="138.6953"/><line style="stroke:#181818;stroke-width:1.0;" x1="210" x2="251" y1="138.6953" y2="138.6953"/><polygon fill="#181818" points="220,134.6953,210,138.6953,220,142.6953,216,138.6953" style="stroke:#181818;stroke-width:1.0;"/><text fill="#000000" font-family="sans-serif" font-size="13" lengthAdjust="spacing" textLength="39" x="216" y="105.4966">&#21021;&#22987;&#21270;</text><text fill="#000000" font-family="sans-serif" font-size="13" lengthAdjust="spacing" textLength="102" x="216" y="120.6294">ExchangeFinder</text><path d="M131,153.6953 L344,153.6953 L344,160.8281 L334,170.8281 L131,170.8281 L131,153.6953 " fill="#EEEEEE" style="stroke:#000000;stroke-width:1.5;"/><rect fill="none" height="486.7266" style="stroke:#000000;stroke-width:1.5;" width="730" x="131" y="153.6953"/><text fill="#000000" font-family="sans-serif" font-size="13" font-weight="bold" lengthAdjust="spacing" textLength="168" x="146" y="166.7622">&#37325;&#35797;&#21644;&#37325;&#23450;&#21521;&#22330;&#26223;&#36816;&#34892;&#22810;&#27425;</text><polygon fill="#181818" points="313,172.8281,323,176.8281,313,180.8281,317,176.8281" style="stroke:#181818;stroke-width:1.0;"/><line style="stroke:#181818;stroke-width:1.0;" x1="204" x2="319" y1="176.8281" y2="176.8281"/><line style="stroke:#181818;stroke-width:1.0;" x1="335" x2="377" y1="221.0938" y2="221.0938"/><line style="stroke:#181818;stroke-width:1.0;" x1="377" x2="377" y1="221.0938" y2="234.0938"/><line style="stroke:#181818;stroke-width:1.0;" x1="336" x2="377" y1="234.0938" y2="234.0938"/><polygon fill="#181818" points="346,230.0938,336,234.0938,346,238.0938,342,234.0938" style="stroke:#181818;stroke-width:1.0;"/><text fill="#000000" font-family="sans-serif" font-size="13" lengthAdjust="spacing" textLength="78" x="342" y="200.895">&#22788;&#29702;&#35831;&#27714;&#22836;&#65292;</text><text fill="#000000" font-family="sans-serif" font-size="13" lengthAdjust="spacing" textLength="93" x="342" y="216.0278">&#21253;&#25324;&#21152;&#36733;cookie</text><polygon fill="#181818" points="430,244.0938,440,248.0938,430,252.0938,434,248.0938" style="stroke:#181818;stroke-width:1.0;"/><line style="stroke:#181818;stroke-width:1.0;" x1="330" x2="436" y1="248.0938" y2="248.0938"/><line style="stroke:#181818;stroke-width:1.0;" x1="452" x2="494" y1="277.2266" y2="277.2266"/><line style="stroke:#181818;stroke-width:1.0;" x1="494" x2="494" y1="277.2266" y2="290.2266"/><line style="stroke:#181818;stroke-width:1.0;" x1="453" x2="494" y1="290.2266" y2="290.2266"/><polygon fill="#181818" points="463,286.2266,453,290.2266,463,294.2266,459,290.2266" style="stroke:#181818;stroke-width:1.0;"/><text fill="#000000" font-family="sans-serif" font-size="13" lengthAdjust="spacing" textLength="78" x="459" y="272.1606">&#21152;&#36733;&#26412;&#22320;&#32531;&#23384;</text><polygon fill="#181818" points="532,300.2266,542,304.2266,532,308.2266,536,304.2266" style="stroke:#181818;stroke-width:1.0;"/><line style="stroke:#181818;stroke-width:1.0;" x1="447" x2="538" y1="304.2266" y2="304.2266"/><line style="stroke:#181818;stroke-width:1.0;" x1="554" x2="596" y1="378.7578" y2="378.7578"/><line style="stroke:#181818;stroke-width:1.0;" x1="596" x2="596" y1="378.7578" y2="391.7578"/><line style="stroke:#181818;stroke-width:1.0;" x1="555" x2="596" y1="391.7578" y2="391.7578"/><polygon fill="#181818" points="565,387.7578,555,391.7578,565,395.7578,561,391.7578" style="stroke:#181818;stroke-width:1.0;"/><text fill="#000000" font-family="sans-serif" font-size="13" lengthAdjust="spacing" textLength="104" x="561" y="328.2935">&#32531;&#23384;&#27744;&#33719;&#21462;&#21487;&#29992;&#36830;</text><text fill="#000000" font-family="sans-serif" font-size="13" lengthAdjust="spacing" textLength="104" x="561" y="343.4263">&#25509;&#25110;&#21019;&#26032;&#26032;&#36830;&#25509;&#65292;</text><text fill="#000000" font-family="sans-serif" font-size="13" lengthAdjust="spacing" textLength="102" x="561" y="358.5591">&#21019;&#24314;Exchange&#21644;</text><text fill="#000000" font-family="sans-serif" font-size="13" lengthAdjust="spacing" textLength="72" x="561" y="373.6919">HTTP&#35299;&#30721;&#22120;</text><polygon fill="#181818" points="660,401.7578,670,405.7578,660,409.7578,664,405.7578" style="stroke:#181818;stroke-width:1.0;"/><line style="stroke:#181818;stroke-width:1.0;" x1="549" x2="666" y1="405.7578" y2="405.7578"/><polygon fill="#181818" points="768,415.7578,778,419.7578,768,423.7578,772,419.7578" style="stroke:#181818;stroke-width:1.0;"/><line style="stroke:#181818;stroke-width:1.0;" x1="677" x2="774" y1="419.7578" y2="419.7578"/><line style="stroke:#181818;stroke-width:1.0;" x1="790" x2="832" y1="464.0234" y2="464.0234"/><line style="stroke:#181818;stroke-width:1.0;" x1="832" x2="832" y1="464.0234" y2="477.0234"/><line style="stroke:#181818;stroke-width:1.0;" x1="791" x2="832" y1="477.0234" y2="477.0234"/><polygon fill="#181818" points="801,473.0234,791,477.0234,801,481.0234,797,477.0234" style="stroke:#181818;stroke-width:1.0;"/><text fill="#000000" font-family="sans-serif" font-size="13" lengthAdjust="spacing" textLength="52" x="797" y="443.8247">&#21457;&#36865;&#35831;&#27714;</text><text fill="#000000" font-family="sans-serif" font-size="13" lengthAdjust="spacing" textLength="52" x="797" y="458.9575">&#35299;&#26512;&#21709;&#24212;</text><polygon fill="#181818" points="693,487.0234,683,491.0234,693,495.0234,689,491.0234" style="stroke:#181818;stroke-width:1.0;"/><line style="stroke:#181818;stroke-width:1.0;stroke-dasharray:2.0,2.0;" x1="687" x2="784" y1="491.0234" y2="491.0234"/><polygon fill="#181818" points="565,501.0234,555,505.0234,565,509.0234,561,505.0234" style="stroke:#181818;stroke-width:1.0;"/><line style="stroke:#181818;stroke-width:1.0;stroke-dasharray:2.0,2.0;" x1="559" x2="676" y1="505.0234" y2="505.0234"/><polygon fill="#181818" points="463,515.0234,453,519.0234,463,523.0234,459,519.0234" style="stroke:#181818;stroke-width:1.0;"/><line style="stroke:#181818;stroke-width:1.0;stroke-dasharray:2.0,2.0;" x1="457" x2="548" y1="519.0234" y2="519.0234"/><line style="stroke:#181818;stroke-width:1.0;" x1="452" x2="494" y1="548.1563" y2="548.1563"/><line style="stroke:#181818;stroke-width:1.0;" x1="494" x2="494" y1="548.1563" y2="561.1563"/><line style="stroke:#181818;stroke-width:1.0;" x1="453" x2="494" y1="561.1563" y2="561.1563"/><polygon fill="#181818" points="463,557.1563,453,561.1563,463,565.1563,459,561.1563" style="stroke:#181818;stroke-width:1.0;"/><text fill="#000000" font-family="sans-serif" font-size="13" lengthAdjust="spacing" textLength="52" x="459" y="543.0903">&#20445;&#23384;&#32531;&#23384;</text><polygon fill="#181818" points="346,571.1563,336,575.1563,346,579.1563,342,575.1563" style="stroke:#181818;stroke-width:1.0;"/><line style="stroke:#181818;stroke-width:1.0;stroke-dasharray:2.0,2.0;" x1="340" x2="446" y1="575.1563" y2="575.1563"/><line style="stroke:#181818;stroke-width:1.0;" x1="335" x2="377" y1="619.4219" y2="619.4219"/><line style="stroke:#181818;stroke-width:1.0;" x1="377" x2="377" y1="619.4219" y2="632.4219"/><line style="stroke:#181818;stroke-width:1.0;" x1="336" x2="377" y1="632.4219" y2="632.4219"/><polygon fill="#181818" points="346,628.4219,336,632.4219,346,636.4219,342,632.4219" style="stroke:#181818;stroke-width:1.0;"/><text fill="#000000" font-family="sans-serif" font-size="13" lengthAdjust="spacing" textLength="67" x="342" y="599.2231">&#20445;&#23384;cookie</text><text fill="#000000" font-family="sans-serif" font-size="13" lengthAdjust="spacing" textLength="52" x="342" y="614.356">gzip&#35299;&#21387;</text><polygon fill="#181818" points="220,649.4219,210,653.4219,220,657.4219,216,653.4219" style="stroke:#181818;stroke-width:1.0;"/><line style="stroke:#181818;stroke-width:1.0;stroke-dasharray:2.0,2.0;" x1="214" x2="329" y1="653.4219" y2="653.4219"/><line style="stroke:#181818;stroke-width:1.0;" x1="209" x2="251" y1="727.9531" y2="727.9531"/><line style="stroke:#181818;stroke-width:1.0;" x1="251" x2="251" y1="727.9531" y2="740.9531"/><line style="stroke:#181818;stroke-width:1.0;" x1="210" x2="251" y1="740.9531" y2="740.9531"/><polygon fill="#181818" points="220,736.9531,210,740.9531,220,744.9531,216,740.9531" style="stroke:#181818;stroke-width:1.0;"/><text fill="#000000" font-family="sans-serif" font-size="13" lengthAdjust="spacing" textLength="65" x="216" y="677.4888">&#22788;&#29702;&#24322;&#24120;&#21644;</text><text fill="#000000" font-family="sans-serif" font-size="13" lengthAdjust="spacing" textLength="65" x="216" y="692.6216">&#36820;&#22238;&#30721;&#20915;&#23450;</text><text fill="#000000" font-family="sans-serif" font-size="13" lengthAdjust="spacing" textLength="65" x="216" y="707.7544">&#26159;&#21542;&#37325;&#35797;&#12289;</text><text fill="#000000" font-family="sans-serif" font-size="13" lengthAdjust="spacing" textLength="39" x="216" y="722.8872">&#37325;&#23450;&#21521;</text><polygon fill="#181818" points="105,750.9531,95,754.9531,105,758.9531,101,754.9531" style="stroke:#181818;stroke-width:1.0;"/><line style="stroke:#181818;stroke-width:1.0;stroke-dasharray:2.0,2.0;" x1="99" x2="203" y1="754.9531" y2="754.9531"/><ellipse cx="7.5" cy="768.2031" fill="none" rx="4" ry="4" style="stroke:#181818;stroke-width:1.5;"/><polygon fill="#181818" points="24.5,764.9531,14.5,768.9531,24.5,772.9531,20.5,768.9531" style="stroke:#181818;stroke-width:1.0;"/><line style="stroke:#181818;stroke-width:1.0;" x1="22.5" x2="83" y1="768.9531" y2="768.9531"/><!--SRC=[jLHDIm9H5DtFhn1QYdz0ebtHiaMxPYCss12y6MIYQ9NInv2ZZcLIEOcIbOGrIa5XYZ-cxflNgh_GrPSYyqO98XXcSS-vvzxtpfdHOqb3ZQjwZ1WXw1IzOeDcRgbv3nUDqDpsXceeqfeMMH2mS3WQKecX9EEARaX-51i-ZxBCFSCtF5w2NPZ08k6mD1sTqHaDWNa5TncmIZ9Pt8bln4X2MLB9kfAK4abjI_zfXHDht0rEXrwuh6-pcWNrIzgipPnDQpSqT-DRLYYAF5ojlk_PXynzeUqqr9-_kfPCm3gWcIOSLrcl5zUqJLK9qlAwf_1mxfif54KUpXmgKwS9JekZGNsiNn7F91H5NdGqiLrbkHV8bo3leij8ayc0Q9R0BDDI2n_Uoizibk6jCt87hP39ykhg2hkxzgefb9NqYSHvlOBtvWY92rZEp-INv2-YCKuMZclS1h-DmT2q7hpUVE5pByNhCi4Jq8eDfraC-pIjNo_wQrl-b8-F_XLMfYNZJt7dqZpKCadigZhU3-GoaaBMHOL_-nyCFphefk7rTHWrrYz2kJ98sk4JqZ6evoxOjrpYVIybax7EZ9a1_xlXbclQVCIFV0C0]--></g></svg>