<?xml version="1.0" encoding="us-ascii" standalone="no"?><svg xmlns="http://www.w3.org/2000/svg" xmlns:xlink="http://www.w3.org/1999/xlink" contentStyleType="text/css" height="250px" preserveAspectRatio="none" style="width:366px;height:250px;background:#FFFFFF;" version="1.1" viewBox="0 0 366 250" width="366px" zoomAndPan="magnify"><defs/><g><rect fill="#FFFFFF" height="138.5313" style="stroke:#181818;stroke-width:1.0;" width="10" x="46" y="67.4297"/><rect fill="#FFFFFF" height="29.1328" style="stroke:#181818;stroke-width:1.0;" width="10" x="132.5" y="96.5625"/><rect fill="#FFFFFF" height="80.2656" style="stroke:#181818;stroke-width:1.0;" width="10" x="246" y="125.6953"/><line style="stroke:#181818;stroke-width:0.5;stroke-dasharray:5.0,5.0;" x1="50.5" x2="50.5" y1="36.2969" y2="214.9609"/><line style="stroke:#181818;stroke-width:0.5;stroke-dasharray:5.0,5.0;" x1="137.5" x2="137.5" y1="36.2969" y2="214.9609"/><line style="stroke:#181818;stroke-width:0.5;stroke-dasharray:5.0,5.0;" x1="250.5" x2="250.5" y1="36.2969" y2="214.9609"/><rect fill="#E2E2F0" height="30.2969" rx="2.5" ry="2.5" style="stroke:#181818;stroke-width:0.5;" width="73" x="14.5" y="5"/><text fill="#000000" font-family="sans-serif" font-size="14" lengthAdjust="spacing" textLength="59" x="21.5" y="24.9951">ARouter</text><rect fill="#E2E2F0" height="30.2969" rx="2.5" ry="2.5" style="stroke:#181818;stroke-width:0.5;" width="73" x="14.5" y="213.9609"/><text fill="#000000" font-family="sans-serif" font-size="14" lengthAdjust="spacing" textLength="59" x="21.5" y="233.9561">ARouter</text><rect fill="#E2E2F0" height="30.2969" rx="2.5" ry="2.5" style="stroke:#181818;stroke-width:0.5;" width="80" x="97.5" y="5"/><text fill="#000000" font-family="sans-serif" font-size="14" lengthAdjust="spacing" textLength="66" x="104.5" y="24.9951">_ARouter</text><rect fill="#E2E2F0" height="30.2969" rx="2.5" ry="2.5" style="stroke:#181818;stroke-width:0.5;" width="80" x="97.5" y="213.9609"/><text fill="#000000" font-family="sans-serif" font-size="14" lengthAdjust="spacing" textLength="66" x="104.5" y="233.9561">_ARouter</text><rect fill="#E2E2F0" height="30.2969" rx="2.5" ry="2.5" style="stroke:#181818;stroke-width:0.5;" width="127" x="187.5" y="5"/><text fill="#000000" font-family="sans-serif" font-size="14" lengthAdjust="spacing" textLength="113" x="194.5" y="24.9951">LogisticsCenter</text><rect fill="#E2E2F0" height="30.2969" rx="2.5" ry="2.5" style="stroke:#181818;stroke-width:0.5;" width="127" x="187.5" y="213.9609"/><text fill="#000000" font-family="sans-serif" font-size="14" lengthAdjust="spacing" textLength="113" x="194.5" y="233.9561">LogisticsCenter</text><rect fill="#FFFFFF" height="138.5313" style="stroke:#181818;stroke-width:1.0;" width="10" x="46" y="67.4297"/><rect fill="#FFFFFF" height="29.1328" style="stroke:#181818;stroke-width:1.0;" width="10" x="132.5" y="96.5625"/><rect fill="#FFFFFF" height="80.2656" style="stroke:#181818;stroke-width:1.0;" width="10" x="246" y="125.6953"/><ellipse cx="7.5" cy="66.6797" fill="none" rx="4" ry="4" style="stroke:#181818;stroke-width:1.5;"/><polygon fill="#181818" points="34,63.4297,44,67.4297,34,71.4297,38,67.4297" style="stroke:#181818;stroke-width:1.0;"/><line style="stroke:#181818;stroke-width:1.0;" x1="12" x2="40" y1="67.4297" y2="67.4297"/><text fill="#000000" font-family="sans-serif" font-size="13" lengthAdjust="spacing" textLength="19" x="15" y="62.3638">init</text><polygon fill="#181818" points="120.5,92.5625,130.5,96.5625,120.5,100.5625,124.5,96.5625" style="stroke:#181818;stroke-width:1.0;"/><line style="stroke:#181818;stroke-width:1.0;" x1="56" x2="126.5" y1="96.5625" y2="96.5625"/><text fill="#000000" font-family="sans-serif" font-size="13" lengthAdjust="spacing" textLength="19" x="63" y="91.4966">init</text><polygon fill="#181818" points="234,121.6953,244,125.6953,234,129.6953,238,125.6953" style="stroke:#181818;stroke-width:1.0;"/><line style="stroke:#181818;stroke-width:1.0;" x1="137.5" x2="240" y1="125.6953" y2="125.6953"/><text fill="#000000" font-family="sans-serif" font-size="13" lengthAdjust="spacing" textLength="19" x="144.5" y="120.6294">init</text><line style="stroke:#181818;stroke-width:1.0;" x1="256" x2="298" y1="154.8281" y2="154.8281"/><line style="stroke:#181818;stroke-width:1.0;" x1="298" x2="298" y1="154.8281" y2="167.8281"/><line style="stroke:#181818;stroke-width:1.0;" x1="257" x2="298" y1="167.8281" y2="167.8281"/><polygon fill="#181818" points="267,163.8281,257,167.8281,267,171.8281,263,167.8281" style="stroke:#181818;stroke-width:1.0;"/><text fill="#000000" font-family="sans-serif" font-size="13" lengthAdjust="spacing" textLength="96" x="263" y="149.7622">loadRouterMap</text><polygon fill="#181818" points="125.5,192.9609,135.5,196.9609,125.5,200.9609,129.5,196.9609" style="stroke:#181818;stroke-width:1.0;"/><line style="stroke:#181818;stroke-width:1.0;" x1="56" x2="131.5" y1="196.9609" y2="196.9609"/><text fill="#000000" font-family="sans-serif" font-size="13" lengthAdjust="spacing" textLength="50" x="63" y="191.895">afterInit</text><!--SRC=[YyxNjLDm3CelBKajKj3MjbB8pCiiuO890ENYCIJZaMHzyjCpYqioaukTK_F0GhfmPHXIcAgj57Bo4rCWflac5c2praeXCGr8UG9D1000]--></g></svg>