<?xml version="1.0" encoding="us-ascii" standalone="no"?><svg xmlns="http://www.w3.org/2000/svg" xmlns:xlink="http://www.w3.org/1999/xlink" contentStyleType="text/css" height="677px" preserveAspectRatio="none" style="width:1018px;height:677px;background:#FFFFFF;" version="1.1" viewBox="0 0 1018 677" width="1018px" zoomAndPan="magnify"><defs/><g><rect fill="#F0F8FF" height="665.9844" style="stroke:#181818;stroke-width:0.5;" width="513" x="81.5" y="6"/><text fill="#000000" font-family="sans-serif" font-size="13" font-weight="bold" lengthAdjust="spacing" textLength="32" x="319.5" y="18.0669">AMS</text><rect fill="#F0F0F0" height="665.9844" style="stroke:#181818;stroke-width:0.5;" width="302.5" x="603.5" y="6"/><text fill="#000000" font-family="sans-serif" font-size="13" font-weight="bold" lengthAdjust="spacing" textLength="30" x="737.25" y="18.0669">APP</text><rect fill="#FFFFFF" height="541.125" style="stroke:#181818;stroke-width:1.0;" width="10" x="170" y="87.5625"/><rect fill="#FFFFFF" height="322.1953" style="stroke:#181818;stroke-width:1.0;" width="10" x="175" y="124.6953"/><rect fill="#FFFFFF" height="64.1328" style="stroke:#181818;stroke-width:1.0;" width="10" x="180" y="382.7578"/><rect fill="#FFFFFF" height="59.1328" style="stroke:#181818;stroke-width:1.0;" width="10" x="515" y="416.8906"/><rect fill="#FFFFFF" height="29.1328" style="stroke:#181818;stroke-width:1.0;" width="10" x="676" y="476.0234"/><rect fill="#FFFFFF" height="50.2656" style="stroke:#181818;stroke-width:1.0;" width="10" x="837" y="505.1563"/><line style="stroke:#181818;stroke-width:0.5;stroke-dasharray:5.0,5.0;" x1="174.5" x2="174.5" y1="56.4297" y2="637.6875"/><line style="stroke:#181818;stroke-width:0.5;stroke-dasharray:5.0,5.0;" x1="378.5" x2="378.5" y1="56.4297" y2="637.6875"/><line style="stroke:#181818;stroke-width:0.5;stroke-dasharray:5.0,5.0;" x1="519.5" x2="519.5" y1="56.4297" y2="637.6875"/><line style="stroke:#181818;stroke-width:0.5;stroke-dasharray:5.0,5.0;" x1="680.5" x2="680.5" y1="56.4297" y2="637.6875"/><line style="stroke:#181818;stroke-width:0.5;stroke-dasharray:5.0,5.0;" x1="842" x2="842" y1="56.4297" y2="637.6875"/><rect fill="#E2E2F0" height="30.2969" rx="2.5" ry="2.5" style="stroke:#181818;stroke-width:0.5;" width="179" x="85.5" y="25.1328"/><text fill="#000000" font-family="sans-serif" font-size="14" lengthAdjust="spacing" textLength="165" x="92.5" y="45.1279">ActivityTaskSupervisor</text><rect fill="#E2E2F0" height="30.2969" rx="2.5" ry="2.5" style="stroke:#181818;stroke-width:0.5;" width="179" x="85.5" y="636.6875"/><text fill="#000000" font-family="sans-serif" font-size="14" lengthAdjust="spacing" textLength="165" x="92.5" y="656.6826">ActivityTaskSupervisor</text><rect fill="#E2E2F0" height="30.2969" rx="2.5" ry="2.5" style="stroke:#181818;stroke-width:0.5;" width="121" x="318.5" y="25.1328"/><text fill="#000000" font-family="sans-serif" font-size="14" lengthAdjust="spacing" textLength="107" x="325.5" y="45.1279">ActivityRecord</text><rect fill="#E2E2F0" height="30.2969" rx="2.5" ry="2.5" style="stroke:#181818;stroke-width:0.5;" width="121" x="318.5" y="636.6875"/><text fill="#000000" font-family="sans-serif" font-size="14" lengthAdjust="spacing" textLength="107" x="325.5" y="656.6826">ActivityRecord</text><rect fill="#E2E2F0" height="30.2969" rx="2.5" ry="2.5" style="stroke:#181818;stroke-width:0.5;" width="141" x="449.5" y="25.1328"/><text fill="#000000" font-family="sans-serif" font-size="14" lengthAdjust="spacing" textLength="127" x="456.5" y="45.1279">ClientTransaction</text><rect fill="#E2E2F0" height="30.2969" rx="2.5" ry="2.5" style="stroke:#181818;stroke-width:0.5;" width="141" x="449.5" y="636.6875"/><text fill="#000000" font-family="sans-serif" font-size="14" lengthAdjust="spacing" textLength="127" x="456.5" y="656.6826">ClientTransaction</text><rect fill="#E2E2F0" height="30.2969" rx="2.5" ry="2.5" style="stroke:#181818;stroke-width:0.5;" width="147" x="607.5" y="25.1328"/><text fill="#000000" font-family="sans-serif" font-size="14" lengthAdjust="spacing" textLength="133" x="614.5" y="45.1279">ApplicationThread</text><rect fill="#E2E2F0" height="30.2969" rx="2.5" ry="2.5" style="stroke:#181818;stroke-width:0.5;" width="147" x="607.5" y="636.6875"/><text fill="#000000" font-family="sans-serif" font-size="14" lengthAdjust="spacing" textLength="133" x="614.5" y="656.6826">ApplicationThread</text><rect fill="#E2E2F0" height="30.2969" rx="2.5" ry="2.5" style="stroke:#181818;stroke-width:0.5;" width="120" x="782" y="25.1328"/><text fill="#000000" font-family="sans-serif" font-size="14" lengthAdjust="spacing" textLength="106" x="789" y="45.1279">ActivityThread</text><rect fill="#E2E2F0" height="30.2969" rx="2.5" ry="2.5" style="stroke:#181818;stroke-width:0.5;" width="120" x="782" y="636.6875"/><text fill="#000000" font-family="sans-serif" font-size="14" lengthAdjust="spacing" textLength="106" x="789" y="656.6826">ActivityThread</text><rect fill="#FFFFFF" height="541.125" style="stroke:#181818;stroke-width:1.0;" width="10" x="170" y="87.5625"/><rect fill="#FFFFFF" height="322.1953" style="stroke:#181818;stroke-width:1.0;" width="10" x="175" y="124.6953"/><rect fill="#FFFFFF" height="64.1328" style="stroke:#181818;stroke-width:1.0;" width="10" x="180" y="382.7578"/><rect fill="#FFFFFF" height="59.1328" style="stroke:#181818;stroke-width:1.0;" width="10" x="515" y="416.8906"/><rect fill="#FFFFFF" height="29.1328" style="stroke:#181818;stroke-width:1.0;" width="10" x="676" y="476.0234"/><rect fill="#FFFFFF" height="50.2656" style="stroke:#181818;stroke-width:1.0;" width="10" x="837" y="505.1563"/><ellipse cx="7.5" cy="86.8125" fill="none" rx="4" ry="4" style="stroke:#181818;stroke-width:1.5;"/><polygon fill="#181818" points="158,83.5625,168,87.5625,158,91.5625,162,87.5625" style="stroke:#181818;stroke-width:1.0;"/><line style="stroke:#181818;stroke-width:1.0;" x1="12" x2="164" y1="87.5625" y2="87.5625"/><text fill="#000000" font-family="sans-serif" font-size="13" lengthAdjust="spacing" textLength="143" x="15" y="82.4966">&#9315; startSpecificActivity</text><line style="stroke:#181818;stroke-width:1.0;" x1="180" x2="227" y1="111.6953" y2="111.6953"/><line style="stroke:#181818;stroke-width:1.0;" x1="227" x2="227" y1="111.6953" y2="124.6953"/><line style="stroke:#181818;stroke-width:1.0;" x1="186" x2="227" y1="124.6953" y2="124.6953"/><polygon fill="#181818" points="196,120.6953,186,124.6953,196,128.6953,192,124.6953" style="stroke:#181818;stroke-width:1.0;"/><text fill="#000000" font-family="sans-serif" font-size="13" lengthAdjust="spacing" textLength="148" x="192" y="106.6294">realStartActivityLocked</text><polygon fill="#181818" points="367,154.8281,377,158.8281,367,162.8281,371,158.8281" style="stroke:#181818;stroke-width:1.0;"/><line style="stroke:#181818;stroke-width:1.0;" x1="185" x2="373" y1="158.8281" y2="158.8281"/><text fill="#000000" font-family="sans-serif" font-size="13" lengthAdjust="spacing" textLength="70" x="192" y="153.7622">setProcess</text><polygon fill="#181818" points="508,183.9609,518,187.9609,508,191.9609,512,187.9609" style="stroke:#181818;stroke-width:1.0;"/><line style="stroke:#181818;stroke-width:1.0;" x1="185" x2="514" y1="187.9609" y2="187.9609"/><text fill="#000000" font-family="sans-serif" font-size="13" lengthAdjust="spacing" textLength="40" x="192" y="182.895">obtain</text><line style="stroke:#181818;stroke-width:1.0;" x1="185" x2="227" y1="217.0938" y2="217.0938"/><line style="stroke:#181818;stroke-width:1.0;" x1="227" x2="227" y1="217.0938" y2="230.0938"/><line style="stroke:#181818;stroke-width:1.0;" x1="186" x2="227" y1="230.0938" y2="230.0938"/><polygon fill="#181818" points="196,226.0938,186,230.0938,196,234.0938,192,230.0938" style="stroke:#181818;stroke-width:1.0;"/><text fill="#000000" font-family="sans-serif" font-size="13" lengthAdjust="spacing" textLength="167" x="192" y="212.0278">LaunchActivityItem.obtain</text><polygon fill="#181818" points="508,255.2266,518,259.2266,508,263.2266,512,259.2266" style="stroke:#181818;stroke-width:1.0;"/><line style="stroke:#181818;stroke-width:1.0;" x1="185" x2="514" y1="259.2266" y2="259.2266"/><text fill="#000000" font-family="sans-serif" font-size="13" lengthAdjust="spacing" textLength="210" x="192" y="254.1606">addCallback(LaunchActivityItem)</text><line style="stroke:#181818;stroke-width:1.0;" x1="185" x2="227" y1="288.3594" y2="288.3594"/><line style="stroke:#181818;stroke-width:1.0;" x1="227" x2="227" y1="288.3594" y2="301.3594"/><line style="stroke:#181818;stroke-width:1.0;" x1="186" x2="227" y1="301.3594" y2="301.3594"/><polygon fill="#181818" points="196,297.3594,186,301.3594,196,305.3594,192,301.3594" style="stroke:#181818;stroke-width:1.0;"/><text fill="#000000" font-family="sans-serif" font-size="13" lengthAdjust="spacing" textLength="174" x="192" y="283.2935">ResumeActivityItem.obtain</text><polygon fill="#181818" points="508,326.4922,518,330.4922,508,334.4922,512,330.4922" style="stroke:#181818;stroke-width:1.0;"/><line style="stroke:#181818;stroke-width:1.0;" x1="185" x2="514" y1="330.4922" y2="330.4922"/><text fill="#000000" font-family="sans-serif" font-size="13" lengthAdjust="spacing" textLength="303" x="192" y="325.4263">setLifecycleStateRequest(ResumeActivityItem)</text><line style="stroke:#181818;stroke-width:1.0;" x1="185" x2="232" y1="369.7578" y2="369.7578"/><line style="stroke:#181818;stroke-width:1.0;" x1="232" x2="232" y1="369.7578" y2="382.7578"/><line style="stroke:#181818;stroke-width:1.0;" x1="191" x2="232" y1="382.7578" y2="382.7578"/><polygon fill="#181818" points="201,378.7578,191,382.7578,201,386.7578,197,382.7578" style="stroke:#181818;stroke-width:1.0;"/><text fill="#000000" font-family="sans-serif" font-size="13" lengthAdjust="spacing" textLength="157" x="197" y="349.5591">[ClientLifecycleManager]</text><text fill="#000000" font-family="sans-serif" font-size="13" lengthAdjust="spacing" textLength="143" x="197" y="364.6919">&#8594;scheduleTransaction</text><polygon fill="#181818" points="503,412.8906,513,416.8906,503,420.8906,507,416.8906" style="stroke:#181818;stroke-width:1.0;"/><line style="stroke:#181818;stroke-width:1.0;" x1="190" x2="509" y1="416.8906" y2="416.8906"/><text fill="#000000" font-family="sans-serif" font-size="13" lengthAdjust="spacing" textLength="65" x="197" y="411.8247">&#160;&#160;schedule</text><polygon fill="#181818" points="664,472.0234,674,476.0234,664,480.0234,668,476.0234" style="stroke:#181818;stroke-width:1.0;"/><line style="stroke:#181818;stroke-width:1.0;" x1="520" x2="670" y1="476.0234" y2="476.0234"/><text fill="#000000" font-family="sans-serif" font-size="13" lengthAdjust="spacing" textLength="132" x="527" y="470.9575">scheduleTransaction</text><polygon fill="#181818" points="825,501.1563,835,505.1563,825,509.1563,829,505.1563" style="stroke:#181818;stroke-width:1.0;"/><line style="stroke:#181818;stroke-width:1.0;" x1="681" x2="831" y1="505.1563" y2="505.1563"/><text fill="#000000" font-family="sans-serif" font-size="13" lengthAdjust="spacing" textLength="132" x="688" y="500.0903">scheduleTransaction</text><line style="stroke:#181818;stroke-width:1.0;" x1="847" x2="889" y1="554.4219" y2="554.4219"/><line style="stroke:#181818;stroke-width:1.0;" x1="889" x2="889" y1="554.4219" y2="567.4219"/><line style="stroke:#181818;stroke-width:1.0;" x1="842" x2="889" y1="567.4219" y2="567.4219"/><polygon fill="#181818" points="852,563.4219,842,567.4219,852,571.4219,848,567.4219" style="stroke:#181818;stroke-width:1.0;"/><text fill="#000000" font-family="sans-serif" font-size="13" lengthAdjust="spacing" textLength="108" x="854" y="534.2231">&#9316; sendMessage:</text><text fill="#000000" font-family="sans-serif" font-size="13" lengthAdjust="spacing" textLength="157" x="854" y="549.356">EXECUTE_TRANSACTION</text><line style="stroke:#181818;stroke-width:1.0;" x1="180" x2="222" y1="606.6875" y2="606.6875"/><line style="stroke:#181818;stroke-width:1.0;" x1="222" x2="222" y1="606.6875" y2="619.6875"/><line style="stroke:#181818;stroke-width:1.0;" x1="181" x2="222" y1="619.6875" y2="619.6875"/><polygon fill="#181818" points="191,615.6875,181,619.6875,191,623.6875,187,619.6875" style="stroke:#181818;stroke-width:1.0;"/><text fill="#000000" font-family="sans-serif" font-size="13" lengthAdjust="spacing" textLength="180" x="187" y="586.4888">ActivityTaskManagerService</text><text fill="#000000" font-family="sans-serif" font-size="13" lengthAdjust="spacing" textLength="123" x="187" y="601.6216">.startProcessAsync</text><!--SRC=[fLJjQi8m5FtVfmW8Gn75_HcZWq4f5WHrqdOmq37Iv3g3DUcQLFG5zdzxXUt9V98bQZUt-ZqAXJRdd7lkFRsDn0mvdG2Ll8PtxNbMNzHkaKCKcp8r3x4S1ra2wPH9aQ9grKQBjmya5KvLa01XGqPohBM3j5yk1Hm7HYx7j0KP0pr2p0SYKefi947rKa50oZqiDsR0LPXYBh462Qw98bAOyTDzswYDCqv6-N5BmQH-K6oR0qofY-CumcHSBcfMph7cWymcy7zhUgfjDWGo9p7eW1Juy9A1LELYWSfvqVTNPR-hT337pv0-3lZYzLsI4T0iXWrJ9pLW2boKBgyQDwjxhcTP50nagZlQOUu8172A8Z6phCXiJw-tt1vzMKKZPWP94ZE2pMCuqXyyHRMQyRUrno9sOuW7sN-0MwXcWpzrkfnszCReWTi3tdneklTXyodqdMxWk67hhllJugdPsh_UhqCDp2610Qyl_nthVNNad9Cl]--></g></svg>