<?xml version="1.0" encoding="us-ascii" standalone="no"?><svg xmlns="http://www.w3.org/2000/svg" xmlns:xlink="http://www.w3.org/1999/xlink" contentStyleType="text/css" height="678px" preserveAspectRatio="none" style="width:989px;height:678px;background:#FFFFFF;" version="1.1" viewBox="0 0 989 678" width="989px" zoomAndPan="magnify"><defs/><g><rect fill="#FFFFFF" height="181.3984" style="stroke:#181818;stroke-width:1.0;" width="10" x="209.5" y="67.4297"/><rect fill="#FFFFFF" height="123.2656" style="stroke:#181818;stroke-width:1.0;" width="10" x="214.5" y="104.5625"/><rect fill="#FFFFFF" height="54.1328" style="stroke:#181818;stroke-width:1.0;" width="10" x="219.5" y="146.6953"/><rect fill="#FFFFFF" height="101.2656" style="stroke:#181818;stroke-width:1.0;" width="10" x="358.5" y="277.9609"/><rect fill="#FFFFFF" height="89.1328" style="stroke:#181818;stroke-width:1.0;" width="10" x="547.5" y="349.2266"/><rect fill="#FFFFFF" height="89.1328" style="stroke:#181818;stroke-width:1.0;" width="10" x="672" y="408.3594"/><rect fill="#FFFFFF" height="194.5313" style="stroke:#181818;stroke-width:1.0;" width="10" x="786" y="467.4922"/><rect fill="#FFFFFF" height="85.2656" style="stroke:#181818;stroke-width:1.0;" width="10" x="791" y="576.7578"/><rect fill="#FFFFFF" height="43.1328" style="stroke:#181818;stroke-width:1.0;" width="10" x="796" y="618.8906"/><line style="stroke:#181818;stroke-width:0.5;stroke-dasharray:5.0,5.0;" x1="77" x2="77" y1="36.2969" y2="671.0234"/><line style="stroke:#181818;stroke-width:0.5;stroke-dasharray:5.0,5.0;" x1="214" x2="214" y1="36.2969" y2="671.0234"/><line style="stroke:#181818;stroke-width:0.5;stroke-dasharray:5.0,5.0;" x1="363" x2="363" y1="36.2969" y2="671.0234"/><line style="stroke:#181818;stroke-width:0.5;stroke-dasharray:5.0,5.0;" x1="552.5" x2="552.5" y1="36.2969" y2="671.0234"/><line style="stroke:#181818;stroke-width:0.5;stroke-dasharray:5.0,5.0;" x1="676.5" x2="676.5" y1="36.2969" y2="671.0234"/><line style="stroke:#181818;stroke-width:0.5;stroke-dasharray:5.0,5.0;" x1="790.5" x2="790.5" y1="36.2969" y2="671.0234"/><line style="stroke:#181818;stroke-width:0.5;stroke-dasharray:5.0,5.0;" x1="952.5" x2="952.5" y1="36.2969" y2="671.0234"/><rect fill="#E2E2F0" height="30.2969" rx="2.5" ry="2.5" style="stroke:#181818;stroke-width:0.5;" width="145" x="5" y="5"/><text fill="#000000" font-family="sans-serif" font-size="14" lengthAdjust="spacing" textLength="131" x="12" y="24.9951">main_mediaserver</text><rect fill="#E2E2F0" height="30.2969" rx="2.5" ry="2.5" style="stroke:#181818;stroke-width:0.5;" width="109" x="160" y="5"/><text fill="#000000" font-family="sans-serif" font-size="14" lengthAdjust="spacing" textLength="95" x="167" y="24.9951">ProcessState</text><rect fill="#E2E2F0" height="30.2969" rx="2.5" ry="2.5" style="stroke:#181818;stroke-width:0.5;" width="153" x="287" y="5"/><text fill="#000000" font-family="sans-serif" font-size="14" lengthAdjust="spacing" textLength="139" x="294" y="24.9951">MediaPlayerService</text><rect fill="#E2E2F0" height="30.2969" rx="2.5" ry="2.5" style="stroke:#181818;stroke-width:0.5;" width="148" x="478.5" y="5"/><text fill="#000000" font-family="sans-serif" font-size="14" lengthAdjust="spacing" textLength="134" x="485.5" y="24.9951">BpServiceManager</text><rect fill="#E2E2F0" height="30.2969" rx="2.5" ry="2.5" style="stroke:#181818;stroke-width:0.5;" width="81" x="636.5" y="5"/><text fill="#000000" font-family="sans-serif" font-size="14" lengthAdjust="spacing" textLength="67" x="643.5" y="24.9951">BpBinder</text><rect fill="#E2E2F0" height="30.2969" rx="2.5" ry="2.5" style="stroke:#181818;stroke-width:0.5;" width="127" x="727.5" y="5"/><text fill="#000000" font-family="sans-serif" font-size="14" lengthAdjust="spacing" textLength="113" x="734.5" y="24.9951">IPCThreadState</text><rect fill="#E2E2F0" height="30.2969" rx="2.5" ry="2.5" style="stroke:#181818;stroke-width:0.5;" width="61" x="922.5" y="5"/><text fill="#000000" font-family="sans-serif" font-size="14" lengthAdjust="spacing" textLength="47" x="929.5" y="24.9951">binder</text><rect fill="#FFFFFF" height="181.3984" style="stroke:#181818;stroke-width:1.0;" width="10" x="209.5" y="67.4297"/><rect fill="#FFFFFF" height="123.2656" style="stroke:#181818;stroke-width:1.0;" width="10" x="214.5" y="104.5625"/><rect fill="#FFFFFF" height="54.1328" style="stroke:#181818;stroke-width:1.0;" width="10" x="219.5" y="146.6953"/><rect fill="#FFFFFF" height="101.2656" style="stroke:#181818;stroke-width:1.0;" width="10" x="358.5" y="277.9609"/><rect fill="#FFFFFF" height="89.1328" style="stroke:#181818;stroke-width:1.0;" width="10" x="547.5" y="349.2266"/><rect fill="#FFFFFF" height="89.1328" style="stroke:#181818;stroke-width:1.0;" width="10" x="672" y="408.3594"/><rect fill="#FFFFFF" height="194.5313" style="stroke:#181818;stroke-width:1.0;" width="10" x="786" y="467.4922"/><rect fill="#FFFFFF" height="85.2656" style="stroke:#181818;stroke-width:1.0;" width="10" x="791" y="576.7578"/><rect fill="#FFFFFF" height="43.1328" style="stroke:#181818;stroke-width:1.0;" width="10" x="796" y="618.8906"/><polygon fill="#181818" points="197.5,63.4297,207.5,67.4297,197.5,71.4297,201.5,67.4297" style="stroke:#181818;stroke-width:1.0;"/><line style="stroke:#181818;stroke-width:1.0;" x1="77.5" x2="203.5" y1="67.4297" y2="67.4297"/><text fill="#000000" font-family="sans-serif" font-size="13" lengthAdjust="spacing" textLength="33" x="84.5" y="62.3638">self()</text><line style="stroke:#181818;stroke-width:1.0;" x1="219.5" x2="266.5" y1="91.5625" y2="91.5625"/><line style="stroke:#181818;stroke-width:1.0;" x1="266.5" x2="266.5" y1="91.5625" y2="104.5625"/><line style="stroke:#181818;stroke-width:1.0;" x1="225.5" x2="266.5" y1="104.5625" y2="104.5625"/><polygon fill="#181818" points="235.5,100.5625,225.5,104.5625,235.5,108.5625,231.5,104.5625" style="stroke:#181818;stroke-width:1.0;"/><text fill="#000000" font-family="sans-serif" font-size="13" lengthAdjust="spacing" textLength="125" x="231.5" y="86.4966">new ProcessState()</text><line style="stroke:#181818;stroke-width:1.0;" x1="224.5" x2="271.5" y1="133.6953" y2="133.6953"/><line style="stroke:#181818;stroke-width:1.0;" x1="271.5" x2="271.5" y1="133.6953" y2="146.6953"/><line style="stroke:#181818;stroke-width:1.0;" x1="230.5" x2="271.5" y1="146.6953" y2="146.6953"/><polygon fill="#181818" points="240.5,142.6953,230.5,146.6953,240.5,150.6953,236.5,146.6953" style="stroke:#181818;stroke-width:1.0;"/><text fill="#000000" font-family="sans-serif" font-size="13" lengthAdjust="spacing" textLength="76" x="236.5" y="128.6294">open_driver</text><polygon fill="#181818" points="941,176.8281,951,180.8281,941,184.8281,945,180.8281" style="stroke:#181818;stroke-width:1.0;"/><line style="stroke:#181818;stroke-width:1.0;" x1="229.5" x2="947" y1="180.8281" y2="180.8281"/><text fill="#000000" font-family="sans-serif" font-size="13" lengthAdjust="spacing" textLength="32" x="236.5" y="175.7622">open</text><line style="stroke:#181818;stroke-width:1.0;stroke-dasharray:2.0,2.0;" x1="229.5" x2="271.5" y1="199.8281" y2="199.8281"/><line style="stroke:#181818;stroke-width:1.0;stroke-dasharray:2.0,2.0;" x1="271.5" x2="271.5" y1="199.8281" y2="212.8281"/><line style="stroke:#181818;stroke-width:1.0;stroke-dasharray:2.0,2.0;" x1="224.5" x2="271.5" y1="212.8281" y2="212.8281"/><polygon fill="#181818" points="234.5,208.8281,224.5,212.8281,234.5,216.8281,230.5,212.8281" style="stroke:#181818;stroke-width:1.0;"/><line style="stroke:#181818;stroke-width:1.0;stroke-dasharray:2.0,2.0;" x1="224.5" x2="266.5" y1="226.8281" y2="226.8281"/><line style="stroke:#181818;stroke-width:1.0;stroke-dasharray:2.0,2.0;" x1="266.5" x2="266.5" y1="226.8281" y2="239.8281"/><line style="stroke:#181818;stroke-width:1.0;stroke-dasharray:2.0,2.0;" x1="219.5" x2="266.5" y1="239.8281" y2="239.8281"/><polygon fill="#181818" points="229.5,235.8281,219.5,239.8281,229.5,243.8281,225.5,239.8281" style="stroke:#181818;stroke-width:1.0;"/><polygon fill="#181818" points="88.5,244.8281,78.5,248.8281,88.5,252.8281,84.5,248.8281" style="stroke:#181818;stroke-width:1.0;"/><line style="stroke:#181818;stroke-width:1.0;stroke-dasharray:2.0,2.0;" x1="82.5" x2="213.5" y1="248.8281" y2="248.8281"/><polygon fill="#181818" points="346.5,273.9609,356.5,277.9609,346.5,281.9609,350.5,277.9609" style="stroke:#181818;stroke-width:1.0;"/><line style="stroke:#181818;stroke-width:1.0;" x1="77.5" x2="352.5" y1="277.9609" y2="277.9609"/><text fill="#000000" font-family="sans-serif" font-size="13" lengthAdjust="spacing" textLength="68" x="84.5" y="272.895">instantiate</text><line style="stroke:#181818;stroke-width:1.0;" x1="368.5" x2="410.5" y1="307.0938" y2="307.0938"/><line style="stroke:#181818;stroke-width:1.0;" x1="410.5" x2="410.5" y1="307.0938" y2="320.0938"/><line style="stroke:#181818;stroke-width:1.0;" x1="369.5" x2="410.5" y1="320.0938" y2="320.0938"/><polygon fill="#181818" points="379.5,316.0938,369.5,320.0938,379.5,324.0938,375.5,320.0938" style="stroke:#181818;stroke-width:1.0;"/><text fill="#000000" font-family="sans-serif" font-size="13" lengthAdjust="spacing" textLength="165" x="375.5" y="302.0278">new MediaPlayerService()</text><polygon fill="#181818" points="535.5,345.2266,545.5,349.2266,535.5,353.2266,539.5,349.2266" style="stroke:#181818;stroke-width:1.0;"/><line style="stroke:#181818;stroke-width:1.0;" x1="368.5" x2="541.5" y1="349.2266" y2="349.2266"/><text fill="#000000" font-family="sans-serif" font-size="13" lengthAdjust="spacing" textLength="71" x="375.5" y="344.1606">addService</text><polygon fill="#181818" points="660,404.3594,670,408.3594,660,412.3594,664,408.3594" style="stroke:#181818;stroke-width:1.0;"/><line style="stroke:#181818;stroke-width:1.0;" x1="557.5" x2="666" y1="408.3594" y2="408.3594"/><text fill="#000000" font-family="sans-serif" font-size="13" lengthAdjust="spacing" textLength="53" x="564.5" y="403.2935">transact</text><polygon fill="#181818" points="774,463.4922,784,467.4922,774,471.4922,778,467.4922" style="stroke:#181818;stroke-width:1.0;"/><line style="stroke:#181818;stroke-width:1.0;" x1="682" x2="780" y1="467.4922" y2="467.4922"/><text fill="#000000" font-family="sans-serif" font-size="13" lengthAdjust="spacing" textLength="53" x="689" y="462.4263">transact</text><line style="stroke:#181818;stroke-width:1.0;" x1="796" x2="838" y1="526.625" y2="526.625"/><line style="stroke:#181818;stroke-width:1.0;" x1="838" x2="838" y1="526.625" y2="539.625"/><line style="stroke:#181818;stroke-width:1.0;" x1="797" x2="838" y1="539.625" y2="539.625"/><polygon fill="#181818" points="807,535.625,797,539.625,807,543.625,803,539.625" style="stroke:#181818;stroke-width:1.0;"/><text fill="#000000" font-family="sans-serif" font-size="13" lengthAdjust="spacing" textLength="138" x="803" y="521.5591">writeTransactionData</text><line style="stroke:#181818;stroke-width:1.0;" x1="796" x2="843" y1="563.7578" y2="563.7578"/><line style="stroke:#181818;stroke-width:1.0;" x1="843" x2="843" y1="563.7578" y2="576.7578"/><line style="stroke:#181818;stroke-width:1.0;" x1="802" x2="843" y1="576.7578" y2="576.7578"/><polygon fill="#181818" points="812,572.7578,802,576.7578,812,580.7578,808,576.7578" style="stroke:#181818;stroke-width:1.0;"/><text fill="#000000" font-family="sans-serif" font-size="13" lengthAdjust="spacing" textLength="110" x="808" y="558.6919">waitForResponse</text><line style="stroke:#181818;stroke-width:1.0;" x1="801" x2="848" y1="605.8906" y2="605.8906"/><line style="stroke:#181818;stroke-width:1.0;" x1="848" x2="848" y1="605.8906" y2="618.8906"/><line style="stroke:#181818;stroke-width:1.0;" x1="807" x2="848" y1="618.8906" y2="618.8906"/><polygon fill="#181818" points="817,614.8906,807,618.8906,817,622.8906,813,618.8906" style="stroke:#181818;stroke-width:1.0;"/><text fill="#000000" font-family="sans-serif" font-size="13" lengthAdjust="spacing" textLength="91" x="813" y="600.8247">talkWithDriver</text><polygon fill="#181818" points="941,649.0234,951,653.0234,941,657.0234,945,653.0234" style="stroke:#181818;stroke-width:1.0;"/><line style="stroke:#181818;stroke-width:1.0;" x1="806" x2="947" y1="653.0234" y2="653.0234"/><text fill="#000000" font-family="sans-serif" font-size="13" lengthAdjust="spacing" textLength="26" x="813" y="647.9575">ioctl</text><!--SRC=[ZPAzJiCm481tFuKtG1LIMJCmb0g9eL94Ap5Mr_XAJgHsT3uQU0f61jw3WO6tAS-1ywFInf7A4ilsVT_zn6SQZ9aZRod3d_VFtTVRxkDRvMHGhvsJbNjH9R1GHYLOqIko1baxhhzNux7Q0Ddb1Ws13v9mU7cjKtOPUZyN4DIZaKwqns9zVg6EBkB0H5kiZWvFCq7kIhHBmnIoHz5TlMsGOfHdxY-3BSpgRLh0At8tdAO-ibx262ZOrK38CDYs5L-4veOTaxBRpC32OoYeJlttcvH1o8IsTOknG4LqOvoqWsW69WpM1yMXg4-fFHBmk_HcaJE2EPZwiAHbL0-85Ockc0GNdOISdOB0QQv9NG79hUDxzAMp7lz92HHF3oJvj7qfCRH_A-GoANu1]--></g></svg>