<?xml version="1.0" encoding="us-ascii" standalone="no"?><svg xmlns="http://www.w3.org/2000/svg" xmlns:xlink="http://www.w3.org/1999/xlink" contentStyleType="text/css" height="278px" preserveAspectRatio="none" style="width:993px;height:278px;background:#FFFFFF;" version="1.1" viewBox="0 0 993 278" width="993px" zoomAndPan="magnify"><defs/><g><!--class FragmentAndViewModelWatcher--><g id="elem_FragmentAndViewModelWatcher"><rect fill="#F1F1F1" height="48" id="FragmentAndViewModelWatcher" rx="2.5" ry="2.5" style="stroke:#181818;stroke-width:0.5;" width="268" x="338.5" y="7"/><ellipse cx="353.5" cy="23" fill="#ADD1B2" rx="11" ry="11" style="stroke:#181818;stroke-width:1.0;"/><path d="M355.8438,18.6719 C354.9063,18.2344 354.3125,18.0938 353.4375,18.0938 C350.8125,18.0938 348.8125,20.1719 348.8125,22.8906 L348.8125,24.0156 C348.8125,26.5938 350.9219,28.4844 353.8125,28.4844 C355.0313,28.4844 356.1875,28.1875 356.9375,27.6406 C357.5156,27.2344 357.8438,26.7813 357.8438,26.3906 C357.8438,25.9375 357.4531,25.5469 356.9844,25.5469 C356.7656,25.5469 356.5625,25.625 356.375,25.8125 C355.9219,26.2969 355.9219,26.2969 355.7344,26.3906 C355.3125,26.6563 354.625,26.7813 353.8594,26.7813 C351.8125,26.7813 350.5156,25.6875 350.5156,23.9844 L350.5156,22.8906 C350.5156,21.1094 351.7656,19.7969 353.5,19.7969 C354.0781,19.7969 354.6875,19.9531 355.1563,20.2031 C355.6406,20.4844 355.8125,20.7031 355.9063,21.1094 C355.9688,21.5156 356,21.6406 356.1406,21.7656 C356.2813,21.9063 356.5156,22.0156 356.7344,22.0156 C357,22.0156 357.2656,21.875 357.4375,21.6563 C357.5469,21.5 357.5781,21.3125 357.5781,20.8906 L357.5781,19.4688 C357.5781,19.0313 357.5625,18.9063 357.4688,18.75 C357.3125,18.4844 357.0313,18.3438 356.7344,18.3438 C356.4375,18.3438 356.2344,18.4375 356.0156,18.75 L355.8438,18.6719 Z " fill="#000000"/><text fill="#000000" font-family="sans-serif" font-size="14" lengthAdjust="spacing" textLength="236" x="367.5" y="27.8467">FragmentAndViewModelWatcher</text><line style="stroke:#181818;stroke-width:0.5;" x1="339.5" x2="605.5" y1="39" y2="39"/><line style="stroke:#181818;stroke-width:0.5;" x1="339.5" x2="605.5" y1="47" y2="47"/></g><!--class AndroidOFragmentDestroyWatcher--><g id="elem_AndroidOFragmentDestroyWatcher"><rect fill="#F1F1F1" height="48" id="AndroidOFragmentDestroyWatcher" rx="2.5" ry="2.5" style="stroke:#181818;stroke-width:0.5;" width="287" x="7" y="115"/><ellipse cx="22" cy="131" fill="#ADD1B2" rx="11" ry="11" style="stroke:#181818;stroke-width:1.0;"/><path d="M24.3438,126.6719 C23.4063,126.2344 22.8125,126.0938 21.9375,126.0938 C19.3125,126.0938 17.3125,128.1719 17.3125,130.8906 L17.3125,132.0156 C17.3125,134.5938 19.4219,136.4844 22.3125,136.4844 C23.5313,136.4844 24.6875,136.1875 25.4375,135.6406 C26.0156,135.2344 26.3438,134.7813 26.3438,134.3906 C26.3438,133.9375 25.9531,133.5469 25.4844,133.5469 C25.2656,133.5469 25.0625,133.625 24.875,133.8125 C24.4219,134.2969 24.4219,134.2969 24.2344,134.3906 C23.8125,134.6563 23.125,134.7813 22.3594,134.7813 C20.3125,134.7813 19.0156,133.6875 19.0156,131.9844 L19.0156,130.8906 C19.0156,129.1094 20.2656,127.7969 22,127.7969 C22.5781,127.7969 23.1875,127.9531 23.6563,128.2031 C24.1406,128.4844 24.3125,128.7031 24.4063,129.1094 C24.4688,129.5156 24.5,129.6406 24.6406,129.7656 C24.7813,129.9063 25.0156,130.0156 25.2344,130.0156 C25.5,130.0156 25.7656,129.875 25.9375,129.6563 C26.0469,129.5 26.0781,129.3125 26.0781,128.8906 L26.0781,127.4688 C26.0781,127.0313 26.0625,126.9063 25.9688,126.75 C25.8125,126.4844 25.5313,126.3438 25.2344,126.3438 C24.9375,126.3438 24.7344,126.4375 24.5156,126.75 L24.3438,126.6719 Z " fill="#000000"/><text fill="#000000" font-family="sans-serif" font-size="14" lengthAdjust="spacing" textLength="255" x="36" y="135.8467">AndroidOFragmentDestroyWatcher</text><line style="stroke:#181818;stroke-width:0.5;" x1="8" x2="293" y1="147" y2="147"/><line style="stroke:#181818;stroke-width:0.5;" x1="8" x2="293" y1="155" y2="155"/></g><g id="elem_GMN5"><path d="M84,234.5 L84,259.6328 A0,0 0 0 0 84,259.6328 L217,259.6328 A0,0 0 0 0 217,259.6328 L217,244.5 L207,234.5 L154.5,234.5 L150.5,163 L146.5,234.5 L84,234.5 A0,0 0 0 0 84,234.5 " fill="#FEFFDD" style="stroke:#181818;stroke-width:0.5;"/><path d="M207,234.5 L207,244.5 L217,244.5 L207,234.5 " fill="#FEFFDD" style="stroke:#181818;stroke-width:0.5;"/><text fill="#000000" font-family="sans-serif" font-size="13" lengthAdjust="spacing" textLength="112" x="90" y="251.5669">Android 8.0&#21450;&#20197;&#19978;</text></g><!--class AndroidXFragmentDestroyWatcher--><g id="elem_AndroidXFragmentDestroyWatcher"><rect fill="#F1F1F1" height="48" id="AndroidXFragmentDestroyWatcher" rx="2.5" ry="2.5" style="stroke:#181818;stroke-width:0.5;" width="286" x="329.5" y="115"/><ellipse cx="344.5" cy="131" fill="#ADD1B2" rx="11" ry="11" style="stroke:#181818;stroke-width:1.0;"/><path d="M346.8438,126.6719 C345.9063,126.2344 345.3125,126.0938 344.4375,126.0938 C341.8125,126.0938 339.8125,128.1719 339.8125,130.8906 L339.8125,132.0156 C339.8125,134.5938 341.9219,136.4844 344.8125,136.4844 C346.0313,136.4844 347.1875,136.1875 347.9375,135.6406 C348.5156,135.2344 348.8438,134.7813 348.8438,134.3906 C348.8438,133.9375 348.4531,133.5469 347.9844,133.5469 C347.7656,133.5469 347.5625,133.625 347.375,133.8125 C346.9219,134.2969 346.9219,134.2969 346.7344,134.3906 C346.3125,134.6563 345.625,134.7813 344.8594,134.7813 C342.8125,134.7813 341.5156,133.6875 341.5156,131.9844 L341.5156,130.8906 C341.5156,129.1094 342.7656,127.7969 344.5,127.7969 C345.0781,127.7969 345.6875,127.9531 346.1563,128.2031 C346.6406,128.4844 346.8125,128.7031 346.9063,129.1094 C346.9688,129.5156 347,129.6406 347.1406,129.7656 C347.2813,129.9063 347.5156,130.0156 347.7344,130.0156 C348,130.0156 348.2656,129.875 348.4375,129.6563 C348.5469,129.5 348.5781,129.3125 348.5781,128.8906 L348.5781,127.4688 C348.5781,127.0313 348.5625,126.9063 348.4688,126.75 C348.3125,126.4844 348.0313,126.3438 347.7344,126.3438 C347.4375,126.3438 347.2344,126.4375 347.0156,126.75 L346.8438,126.6719 Z " fill="#000000"/><text fill="#000000" font-family="sans-serif" font-size="14" lengthAdjust="spacing" textLength="254" x="358.5" y="135.8467">AndroidXFragmentDestroyWatcher</text><line style="stroke:#181818;stroke-width:0.5;" x1="330.5" x2="614.5" y1="147" y2="147"/><line style="stroke:#181818;stroke-width:0.5;" x1="330.5" x2="614.5" y1="155" y2="155"/></g><g id="elem_GMN10"><path d="M298.5,234.5 L298.5,259.6328 A0,0 0 0 0 298.5,259.6328 L430.5,259.6328 A0,0 0 0 0 430.5,259.6328 L430.5,244.5 L420.5,234.5 L380.239,234.5 L449.066,163 L372.239,234.5 L298.5,234.5 A0,0 0 0 0 298.5,234.5 " fill="#FEFFDD" style="stroke:#181818;stroke-width:0.5;"/><path d="M420.5,234.5 L420.5,244.5 L430.5,244.5 L420.5,234.5 " fill="#FEFFDD" style="stroke:#181818;stroke-width:0.5;"/><text fill="#000000" font-family="sans-serif" font-size="13" lengthAdjust="spacing" textLength="111" x="304.5" y="251.5669">AndroidX support</text></g><!--class ViewModelClearedWatcher--><g id="elem_ViewModelClearedWatcher"><rect fill="#F1F1F1" height="48" id="ViewModelClearedWatcher" rx="2.5" ry="2.5" style="stroke:#181818;stroke-width:0.5;" width="225" x="466" y="223"/><ellipse cx="481" cy="239" fill="#ADD1B2" rx="11" ry="11" style="stroke:#181818;stroke-width:1.0;"/><path d="M483.3438,234.6719 C482.4063,234.2344 481.8125,234.0938 480.9375,234.0938 C478.3125,234.0938 476.3125,236.1719 476.3125,238.8906 L476.3125,240.0156 C476.3125,242.5938 478.4219,244.4844 481.3125,244.4844 C482.5313,244.4844 483.6875,244.1875 484.4375,243.6406 C485.0156,243.2344 485.3438,242.7813 485.3438,242.3906 C485.3438,241.9375 484.9531,241.5469 484.4844,241.5469 C484.2656,241.5469 484.0625,241.625 483.875,241.8125 C483.4219,242.2969 483.4219,242.2969 483.2344,242.3906 C482.8125,242.6563 482.125,242.7813 481.3594,242.7813 C479.3125,242.7813 478.0156,241.6875 478.0156,239.9844 L478.0156,238.8906 C478.0156,237.1094 479.2656,235.7969 481,235.7969 C481.5781,235.7969 482.1875,235.9531 482.6563,236.2031 C483.1406,236.4844 483.3125,236.7031 483.4063,237.1094 C483.4688,237.5156 483.5,237.6406 483.6406,237.7656 C483.7813,237.9063 484.0156,238.0156 484.2344,238.0156 C484.5,238.0156 484.7656,237.875 484.9375,237.6563 C485.0469,237.5 485.0781,237.3125 485.0781,236.8906 L485.0781,235.4688 C485.0781,235.0313 485.0625,234.9063 484.9688,234.75 C484.8125,234.4844 484.5313,234.3438 484.2344,234.3438 C483.9375,234.3438 483.7344,234.4375 483.5156,234.75 L483.3438,234.6719 Z " fill="#000000"/><text fill="#000000" font-family="sans-serif" font-size="14" lengthAdjust="spacing" textLength="193" x="495" y="243.8467">ViewModelClearedWatcher</text><line style="stroke:#181818;stroke-width:0.5;" x1="467" x2="690" y1="255" y2="255"/><line style="stroke:#181818;stroke-width:0.5;" x1="467" x2="690" y1="263" y2="263"/></g><!--class AndroidSupportFragmentDestroyWatcher--><g id="elem_AndroidSupportFragmentDestroyWatcher"><rect fill="#F1F1F1" height="48" id="AndroidSupportFragmentDestroyWatcher" rx="2.5" ry="2.5" style="stroke:#181818;stroke-width:0.5;" width="335" x="651" y="115"/><ellipse cx="666" cy="131" fill="#ADD1B2" rx="11" ry="11" style="stroke:#181818;stroke-width:1.0;"/><path d="M668.3438,126.6719 C667.4063,126.2344 666.8125,126.0938 665.9375,126.0938 C663.3125,126.0938 661.3125,128.1719 661.3125,130.8906 L661.3125,132.0156 C661.3125,134.5938 663.4219,136.4844 666.3125,136.4844 C667.5313,136.4844 668.6875,136.1875 669.4375,135.6406 C670.0156,135.2344 670.3438,134.7813 670.3438,134.3906 C670.3438,133.9375 669.9531,133.5469 669.4844,133.5469 C669.2656,133.5469 669.0625,133.625 668.875,133.8125 C668.4219,134.2969 668.4219,134.2969 668.2344,134.3906 C667.8125,134.6563 667.125,134.7813 666.3594,134.7813 C664.3125,134.7813 663.0156,133.6875 663.0156,131.9844 L663.0156,130.8906 C663.0156,129.1094 664.2656,127.7969 666,127.7969 C666.5781,127.7969 667.1875,127.9531 667.6563,128.2031 C668.1406,128.4844 668.3125,128.7031 668.4063,129.1094 C668.4688,129.5156 668.5,129.6406 668.6406,129.7656 C668.7813,129.9063 669.0156,130.0156 669.2344,130.0156 C669.5,130.0156 669.7656,129.875 669.9375,129.6563 C670.0469,129.5 670.0781,129.3125 670.0781,128.8906 L670.0781,127.4688 C670.0781,127.0313 670.0625,126.9063 669.9688,126.75 C669.8125,126.4844 669.5313,126.3438 669.2344,126.3438 C668.9375,126.3438 668.7344,126.4375 668.5156,126.75 L668.3438,126.6719 Z " fill="#000000"/><text fill="#000000" font-family="sans-serif" font-size="14" lengthAdjust="spacing" textLength="303" x="680" y="135.8467">AndroidSupportFragmentDestroyWatcher</text><line style="stroke:#181818;stroke-width:0.5;" x1="652" x2="985" y1="147" y2="147"/><line style="stroke:#181818;stroke-width:0.5;" x1="652" x2="985" y1="155" y2="155"/></g><g id="elem_GMN17"><path d="M773.5,234.5 L773.5,259.6328 A0,0 0 0 0 773.5,259.6328 L863.5,259.6328 A0,0 0 0 0 863.5,259.6328 L863.5,244.5 L853.5,234.5 L822.5,234.5 L818.5,163 L814.5,234.5 L773.5,234.5 A0,0 0 0 0 773.5,234.5 " fill="#FEFFDD" style="stroke:#181818;stroke-width:0.5;"/><path d="M853.5,234.5 L853.5,244.5 L863.5,244.5 L853.5,234.5 " fill="#FEFFDD" style="stroke:#181818;stroke-width:0.5;"/><text fill="#000000" font-family="sans-serif" font-size="13" lengthAdjust="spacing" textLength="69" x="779.5" y="251.5669">support.v4</text></g><!--reverse link FragmentAndViewModelWatcher to AndroidOFragmentDestroyWatcher--><g id="link_FragmentAndViewModelWatcher_AndroidOFragmentDestroyWatcher"><path codeLine="1" d="M391.2328,58.7523 C337.3148,76.5023 274.463,97.192 220.51,114.953 " fill="none" id="FragmentAndViewModelWatcher-backto-AndroidOFragmentDestroyWatcher" style="stroke:#181818;stroke-width:1.0;"/><polygon fill="#181818" points="402.631,55,395.6811,53.0768,391.2328,58.7523,398.1827,60.6756,402.631,55" style="stroke:#181818;stroke-width:1.0;"/></g><!--reverse link FragmentAndViewModelWatcher to AndroidXFragmentDestroyWatcher--><g id="link_FragmentAndViewModelWatcher_AndroidXFragmentDestroyWatcher"><path codeLine="3" d="M472.5,67 C472.5,84.658 472.5,96.941 472.5,114.678 " fill="none" id="FragmentAndViewModelWatcher-backto-AndroidXFragmentDestroyWatcher" style="stroke:#181818;stroke-width:1.0;"/><polygon fill="#181818" points="472.5,55,468.5,61,472.5,67,476.5,61,472.5,55" style="stroke:#181818;stroke-width:1.0;"/></g><!--link AndroidXFragmentDestroyWatcher to ViewModelClearedWatcher--><g id="link_AndroidXFragmentDestroyWatcher_ViewModelClearedWatcher"><path codeLine="5" d="M495.5,163 C513.158,180.6584 533.1984,200.6981 550.9354,218.4357 " fill="none" id="AndroidXFragmentDestroyWatcher-to-ViewModelClearedWatcher" style="stroke:#181818;stroke-width:1.0;"/><polygon fill="#181818" points="555.178,222.6784,551.6426,213.486,551.6425,219.1428,545.9857,219.1427,555.178,222.6784" style="stroke:#181818;stroke-width:1.0;"/></g><!--reverse link FragmentAndViewModelWatcher to AndroidSupportFragmentDestroyWatcher--><g id="link_FragmentAndViewModelWatcher_AndroidSupportFragmentDestroyWatcher"><path codeLine="6" d="M559.0506,58.5152 C616.9866,76.2652 685.297,97.192 743.272,114.953 " fill="none" id="FragmentAndViewModelWatcher-backto-AndroidSupportFragmentDestroyWatcher" style="stroke:#181818;stroke-width:1.0;"/><polygon fill="#181818" points="547.577,55,552.1421,60.5821,559.0506,58.5152,554.4855,52.9331,547.577,55" style="stroke:#181818;stroke-width:1.0;"/></g><!--SRC=[SojAJCzDpIjnp4i9oqmjzyrFISq9Jon9paWjKj3IrLK0YXVbPwRukq7LkQGMbnJbLqALSENbbwGg9EMNbEJdAkId4L1j1PDNiD0pUDhVzMJtqYSxkhZSY7D214bEY23WX0Y5ujA2WloY4Yxy6XHqTUqKuCvopabDB4fDWLbDfCk38JQHv7wyUXIiOAxNApC10000]--></g></svg>