<?xml version="1.0" encoding="us-ascii" standalone="no"?><svg xmlns="http://www.w3.org/2000/svg" xmlns:xlink="http://www.w3.org/1999/xlink" contentStyleType="text/css" height="281px" preserveAspectRatio="none" style="width:452px;height:281px;background:#FFFFFF;" version="1.1" viewBox="0 0 452 281" width="452px" zoomAndPan="magnify"><defs/><g><!--class Producer--><g id="elem_Producer"><rect codeLine="1" fill="#F1F1F1" height="48" id="Producer" rx="2.5" ry="2.5" style="stroke:#181818;stroke-width:0.5;" width="330" x="80.5" y="10"/><ellipse cx="95.5" cy="26" fill="#B4A7E5" rx="11" ry="11" style="stroke:#181818;stroke-width:1.0;"/><path d="M96.4531,22.7813 L98.1719,22.7813 C98.5625,22.7813 98.75,22.75 98.875,22.6719 C99.1406,22.5156 99.2813,22.2344 99.2813,21.9375 C99.2813,21.6719 99.1719,21.4063 98.9375,21.2344 C98.7656,21.125 98.625,21.0938 98.1719,21.0938 L93.0313,21.0938 C92.5938,21.0938 92.4688,21.1094 92.3125,21.2031 C92.0625,21.3594 91.9063,21.6563 91.9063,21.9375 C91.9063,22.2188 92.0469,22.4688 92.2656,22.6406 C92.4219,22.75 92.6094,22.7813 93.0313,22.7813 L94.75,22.7813 L94.75,29.2969 L93.0313,29.2969 C92.5938,29.2969 92.4688,29.3125 92.3125,29.4219 C92.0625,29.5781 91.9063,29.8594 91.9063,30.1563 C91.9063,30.4063 92.0469,30.6719 92.2656,30.8281 C92.4219,30.9531 92.625,31 93.0313,31 L98.1719,31 C98.9219,31 99.2813,30.7188 99.2813,30.1563 C99.2813,29.875 99.1719,29.625 98.9375,29.4531 C98.7656,29.3281 98.625,29.2969 98.1719,29.2969 L96.4531,29.2969 L96.4531,22.7813 Z " fill="#000000"/><text fill="#000000" font-family="sans-serif" font-size="14" font-style="italic" lengthAdjust="spacing" textLength="64" x="109.5" y="30.8467">Producer</text><rect fill="#FFFFFF" height="15.9688" style="stroke:#181818;stroke-width:1.0;stroke-dasharray:2.0,2.0;" width="232" x="181.5" y="7"/><text fill="#000000" font-family="sans-serif" font-size="12" font-style="italic" lengthAdjust="spacing" textLength="230" x="182.5" y="19.1387">CloseableReference&lt;CloseableImage&gt;</text><line style="stroke:#181818;stroke-width:0.5;" x1="81.5" x2="409.5" y1="42" y2="42"/><line style="stroke:#181818;stroke-width:0.5;" x1="81.5" x2="409.5" y1="50" y2="50"/></g><!--class DecodeProducer--><g id="elem_DecodeProducer"><rect fill="#F1F1F1" height="48" id="DecodeProducer" rx="2.5" ry="2.5" style="stroke:#181818;stroke-width:0.5;" width="151" x="170" y="118"/><ellipse cx="185" cy="134" fill="#ADD1B2" rx="11" ry="11" style="stroke:#181818;stroke-width:1.0;"/><path d="M187.3438,129.6719 C186.4063,129.2344 185.8125,129.0938 184.9375,129.0938 C182.3125,129.0938 180.3125,131.1719 180.3125,133.8906 L180.3125,135.0156 C180.3125,137.5938 182.4219,139.4844 185.3125,139.4844 C186.5313,139.4844 187.6875,139.1875 188.4375,138.6406 C189.0156,138.2344 189.3438,137.7813 189.3438,137.3906 C189.3438,136.9375 188.9531,136.5469 188.4844,136.5469 C188.2656,136.5469 188.0625,136.625 187.875,136.8125 C187.4219,137.2969 187.4219,137.2969 187.2344,137.3906 C186.8125,137.6563 186.125,137.7813 185.3594,137.7813 C183.3125,137.7813 182.0156,136.6875 182.0156,134.9844 L182.0156,133.8906 C182.0156,132.1094 183.2656,130.7969 185,130.7969 C185.5781,130.7969 186.1875,130.9531 186.6563,131.2031 C187.1406,131.4844 187.3125,131.7031 187.4063,132.1094 C187.4688,132.5156 187.5,132.6406 187.6406,132.7656 C187.7813,132.9063 188.0156,133.0156 188.2344,133.0156 C188.5,133.0156 188.7656,132.875 188.9375,132.6563 C189.0469,132.5 189.0781,132.3125 189.0781,131.8906 L189.0781,130.4688 C189.0781,130.0313 189.0625,129.9063 188.9688,129.75 C188.8125,129.4844 188.5313,129.3438 188.2344,129.3438 C187.9375,129.3438 187.7344,129.4375 187.5156,129.75 L187.3438,129.6719 Z " fill="#000000"/><text fill="#000000" font-family="sans-serif" font-size="14" lengthAdjust="spacing" textLength="119" x="199" y="138.8467">DecodeProducer</text><line style="stroke:#181818;stroke-width:0.5;" x1="171" x2="320" y1="150" y2="150"/><line style="stroke:#181818;stroke-width:0.5;" x1="171" x2="320" y1="158" y2="158"/></g><!--class ByteArrayPool--><g id="elem_ByteArrayPool"><rect fill="#F1F1F1" height="48" id="ByteArrayPool" rx="2.5" ry="2.5" style="stroke:#181818;stroke-width:0.5;" width="135" x="7" y="226"/><ellipse cx="22" cy="242" fill="#ADD1B2" rx="11" ry="11" style="stroke:#181818;stroke-width:1.0;"/><path d="M24.3438,237.6719 C23.4063,237.2344 22.8125,237.0938 21.9375,237.0938 C19.3125,237.0938 17.3125,239.1719 17.3125,241.8906 L17.3125,243.0156 C17.3125,245.5938 19.4219,247.4844 22.3125,247.4844 C23.5313,247.4844 24.6875,247.1875 25.4375,246.6406 C26.0156,246.2344 26.3438,245.7813 26.3438,245.3906 C26.3438,244.9375 25.9531,244.5469 25.4844,244.5469 C25.2656,244.5469 25.0625,244.625 24.875,244.8125 C24.4219,245.2969 24.4219,245.2969 24.2344,245.3906 C23.8125,245.6563 23.125,245.7813 22.3594,245.7813 C20.3125,245.7813 19.0156,244.6875 19.0156,242.9844 L19.0156,241.8906 C19.0156,240.1094 20.2656,238.7969 22,238.7969 C22.5781,238.7969 23.1875,238.9531 23.6563,239.2031 C24.1406,239.4844 24.3125,239.7031 24.4063,240.1094 C24.4688,240.5156 24.5,240.6406 24.6406,240.7656 C24.7813,240.9063 25.0156,241.0156 25.2344,241.0156 C25.5,241.0156 25.7656,240.875 25.9375,240.6563 C26.0469,240.5 26.0781,240.3125 26.0781,239.8906 L26.0781,238.4688 C26.0781,238.0313 26.0625,237.9063 25.9688,237.75 C25.8125,237.4844 25.5313,237.3438 25.2344,237.3438 C24.9375,237.3438 24.7344,237.4375 24.5156,237.75 L24.3438,237.6719 Z " fill="#000000"/><text fill="#000000" font-family="sans-serif" font-size="14" lengthAdjust="spacing" textLength="103" x="36" y="246.8467">ByteArrayPool</text><line style="stroke:#181818;stroke-width:0.5;" x1="8" x2="141" y1="258" y2="258"/><line style="stroke:#181818;stroke-width:0.5;" x1="8" x2="141" y1="266" y2="266"/></g><!--class ImageDecoder--><g id="elem_ImageDecoder"><rect fill="#F1F1F1" height="48" id="ImageDecoder" rx="2.5" ry="2.5" style="stroke:#181818;stroke-width:0.5;" width="137" x="177" y="226"/><ellipse cx="192" cy="242" fill="#ADD1B2" rx="11" ry="11" style="stroke:#181818;stroke-width:1.0;"/><path d="M194.3438,237.6719 C193.4063,237.2344 192.8125,237.0938 191.9375,237.0938 C189.3125,237.0938 187.3125,239.1719 187.3125,241.8906 L187.3125,243.0156 C187.3125,245.5938 189.4219,247.4844 192.3125,247.4844 C193.5313,247.4844 194.6875,247.1875 195.4375,246.6406 C196.0156,246.2344 196.3438,245.7813 196.3438,245.3906 C196.3438,244.9375 195.9531,244.5469 195.4844,244.5469 C195.2656,244.5469 195.0625,244.625 194.875,244.8125 C194.4219,245.2969 194.4219,245.2969 194.2344,245.3906 C193.8125,245.6563 193.125,245.7813 192.3594,245.7813 C190.3125,245.7813 189.0156,244.6875 189.0156,242.9844 L189.0156,241.8906 C189.0156,240.1094 190.2656,238.7969 192,238.7969 C192.5781,238.7969 193.1875,238.9531 193.6563,239.2031 C194.1406,239.4844 194.3125,239.7031 194.4063,240.1094 C194.4688,240.5156 194.5,240.6406 194.6406,240.7656 C194.7813,240.9063 195.0156,241.0156 195.2344,241.0156 C195.5,241.0156 195.7656,240.875 195.9375,240.6563 C196.0469,240.5 196.0781,240.3125 196.0781,239.8906 L196.0781,238.4688 C196.0781,238.0313 196.0625,237.9063 195.9688,237.75 C195.8125,237.4844 195.5313,237.3438 195.2344,237.3438 C194.9375,237.3438 194.7344,237.4375 194.5156,237.75 L194.3438,237.6719 Z " fill="#000000"/><text fill="#000000" font-family="sans-serif" font-size="14" lengthAdjust="spacing" textLength="105" x="206" y="246.8467">ImageDecoder</text><line style="stroke:#181818;stroke-width:0.5;" x1="178" x2="313" y1="258" y2="258"/><line style="stroke:#181818;stroke-width:0.5;" x1="178" x2="313" y1="266" y2="266"/></g><!--class Executor--><g id="elem_Executor"><rect fill="#F1F1F1" height="48" id="Executor" rx="2.5" ry="2.5" style="stroke:#181818;stroke-width:0.5;" width="96" x="349.5" y="226"/><ellipse cx="364.5" cy="242" fill="#ADD1B2" rx="11" ry="11" style="stroke:#181818;stroke-width:1.0;"/><path d="M366.8438,237.6719 C365.9063,237.2344 365.3125,237.0938 364.4375,237.0938 C361.8125,237.0938 359.8125,239.1719 359.8125,241.8906 L359.8125,243.0156 C359.8125,245.5938 361.9219,247.4844 364.8125,247.4844 C366.0313,247.4844 367.1875,247.1875 367.9375,246.6406 C368.5156,246.2344 368.8438,245.7813 368.8438,245.3906 C368.8438,244.9375 368.4531,244.5469 367.9844,244.5469 C367.7656,244.5469 367.5625,244.625 367.375,244.8125 C366.9219,245.2969 366.9219,245.2969 366.7344,245.3906 C366.3125,245.6563 365.625,245.7813 364.8594,245.7813 C362.8125,245.7813 361.5156,244.6875 361.5156,242.9844 L361.5156,241.8906 C361.5156,240.1094 362.7656,238.7969 364.5,238.7969 C365.0781,238.7969 365.6875,238.9531 366.1563,239.2031 C366.6406,239.4844 366.8125,239.7031 366.9063,240.1094 C366.9688,240.5156 367,240.6406 367.1406,240.7656 C367.2813,240.9063 367.5156,241.0156 367.7344,241.0156 C368,241.0156 368.2656,240.875 368.4375,240.6563 C368.5469,240.5 368.5781,240.3125 368.5781,239.8906 L368.5781,238.4688 C368.5781,238.0313 368.5625,237.9063 368.4688,237.75 C368.3125,237.4844 368.0313,237.3438 367.7344,237.3438 C367.4375,237.3438 367.2344,237.4375 367.0156,237.75 L366.8438,237.6719 Z " fill="#000000"/><text fill="#000000" font-family="sans-serif" font-size="14" lengthAdjust="spacing" textLength="64" x="378.5" y="246.8467">Executor</text><line style="stroke:#181818;stroke-width:0.5;" x1="350.5" x2="444.5" y1="258" y2="258"/><line style="stroke:#181818;stroke-width:0.5;" x1="350.5" x2="444.5" y1="266" y2="266"/></g><!--reverse link Producer to DecodeProducer--><g id="link_Producer_DecodeProducer"><path codeLine="2" d="M245.5,76 C245.5,93.658 245.5,99.941 245.5,117.678 " fill="none" id="Producer-backto-DecodeProducer" style="stroke:#181818;stroke-width:1.0;"/><polygon fill="none" points="245.5,58,239.5,76,251.5,76,245.5,58" style="stroke:#181818;stroke-width:1.0;"/></g><!--reverse link DecodeProducer to ByteArrayPool--><g id="link_DecodeProducer_ByteArrayPool"><path codeLine="3" d="M198.1966,172.3224 C169.6116,190.0417 140.467,208.1083 111.827,225.8617 " fill="none" id="DecodeProducer-backto-ByteArrayPool" style="stroke:#181818;stroke-width:1.0;"/><polygon fill="#181818" points="208.396,166,201.1888,165.7614,198.1966,172.3224,205.4038,172.561,208.396,166" style="stroke:#181818;stroke-width:1.0;"/></g><!--reverse link DecodeProducer to ImageDecoder--><g id="link_DecodeProducer_ImageDecoder"><path codeLine="4" d="M245.5,178 C245.5,195.6584 245.5,207.9408 245.5,225.6784 " fill="none" id="DecodeProducer-backto-ImageDecoder" style="stroke:#181818;stroke-width:1.0;"/><polygon fill="#181818" points="245.5,166,241.5,172,245.5,178,249.5,172,245.5,166" style="stroke:#181818;stroke-width:1.0;"/></g><!--reverse link DecodeProducer to Executor--><g id="link_DecodeProducer_Executor"><path codeLine="5" d="M288.3248,172.8643 C313.7328,190.5836 338.863,208.1083 364.321,225.8617 " fill="none" id="DecodeProducer-backto-Executor" style="stroke:#181818;stroke-width:1.0;"/><polygon fill="#181818" points="278.482,166,281.1153,172.7131,288.3248,172.8643,285.6915,166.1512,278.482,166" style="stroke:#181818;stroke-width:1.0;"/></g><!--SRC=[oymhIIrAIqnELGWeoayfJKujid7EoIzEJKpAIGrAJKijIirBJaK8UUOcfgVQsN7152lOrEZgAhYa9kUdfCB4k52v2bf05KwL9QcEHKM9bG7v-JdO580DXeXZDS2r8ZMvj2I_2000]--></g></svg>