<?xml version="1.0" encoding="us-ascii" standalone="no"?><svg xmlns="http://www.w3.org/2000/svg" xmlns:xlink="http://www.w3.org/1999/xlink" contentStyleType="text/css" height="402px" preserveAspectRatio="none" style="width:643px;height:402px;background:#FFFFFF;" version="1.1" viewBox="0 0 643 402" width="643px" zoomAndPan="magnify"><defs/><g><!--class MemoryCache--><g id="elem_MemoryCache"><rect codeLine="1" fill="#F1F1F1" height="48" id="MemoryCache" rx="2.5" ry="2.5" style="stroke:#181818;stroke-width:0.5;" width="300" x="332" y="123"/><ellipse cx="347" cy="139" fill="#B4A7E5" rx="11" ry="11" style="stroke:#181818;stroke-width:1.0;"/><path d="M347.9531,135.7813 L349.6719,135.7813 C350.0625,135.7813 350.25,135.75 350.375,135.6719 C350.6406,135.5156 350.7813,135.2344 350.7813,134.9375 C350.7813,134.6719 350.6719,134.4063 350.4375,134.2344 C350.2656,134.125 350.125,134.0938 349.6719,134.0938 L344.5313,134.0938 C344.0938,134.0938 343.9688,134.1094 343.8125,134.2031 C343.5625,134.3594 343.4063,134.6563 343.4063,134.9375 C343.4063,135.2188 343.5469,135.4688 343.7656,135.6406 C343.9219,135.75 344.1094,135.7813 344.5313,135.7813 L346.25,135.7813 L346.25,142.2969 L344.5313,142.2969 C344.0938,142.2969 343.9688,142.3125 343.8125,142.4219 C343.5625,142.5781 343.4063,142.8594 343.4063,143.1563 C343.4063,143.4063 343.5469,143.6719 343.7656,143.8281 C343.9219,143.9531 344.125,144 344.5313,144 L349.6719,144 C350.4219,144 350.7813,143.7188 350.7813,143.1563 C350.7813,142.875 350.6719,142.625 350.4375,142.4531 C350.2656,142.3281 350.125,142.2969 349.6719,142.2969 L347.9531,142.2969 L347.9531,135.7813 Z " fill="#000000"/><text fill="#000000" font-family="sans-serif" font-size="14" font-style="italic" lengthAdjust="spacing" textLength="103" x="361" y="143.8467">MemoryCache</text><rect fill="#FFFFFF" height="15.9688" style="stroke:#181818;stroke-width:1.0;stroke-dasharray:2.0,2.0;" width="163" x="472" y="120"/><text fill="#000000" font-family="sans-serif" font-size="12" font-style="italic" lengthAdjust="spacing" textLength="161" x="473" y="132.1387">CacheKey, CloseableImage</text><line style="stroke:#181818;stroke-width:0.5;" x1="333" x2="631" y1="155" y2="155"/><line style="stroke:#181818;stroke-width:0.5;" x1="333" x2="631" y1="163" y2="163"/></g><!--class CountingMemoryCache--><g id="elem_CountingMemoryCache"><rect codeLine="2" fill="#F1F1F1" height="48" id="CountingMemoryCache" rx="2.5" ry="2.5" style="stroke:#181818;stroke-width:0.5;" width="364" x="65" y="239"/><ellipse cx="80" cy="255" fill="#B4A7E5" rx="11" ry="11" style="stroke:#181818;stroke-width:1.0;"/><path d="M80.9531,251.7813 L82.6719,251.7813 C83.0625,251.7813 83.25,251.75 83.375,251.6719 C83.6406,251.5156 83.7813,251.2344 83.7813,250.9375 C83.7813,250.6719 83.6719,250.4063 83.4375,250.2344 C83.2656,250.125 83.125,250.0938 82.6719,250.0938 L77.5313,250.0938 C77.0938,250.0938 76.9688,250.1094 76.8125,250.2031 C76.5625,250.3594 76.4063,250.6563 76.4063,250.9375 C76.4063,251.2188 76.5469,251.4688 76.7656,251.6406 C76.9219,251.75 77.1094,251.7813 77.5313,251.7813 L79.25,251.7813 L79.25,258.2969 L77.5313,258.2969 C77.0938,258.2969 76.9688,258.3125 76.8125,258.4219 C76.5625,258.5781 76.4063,258.8594 76.4063,259.1563 C76.4063,259.4063 76.5469,259.6719 76.7656,259.8281 C76.9219,259.9531 77.125,260 77.5313,260 L82.6719,260 C83.4219,260 83.7813,259.7188 83.7813,259.1563 C83.7813,258.875 83.6719,258.625 83.4375,258.4531 C83.2656,258.3281 83.125,258.2969 82.6719,258.2969 L80.9531,258.2969 L80.9531,251.7813 Z " fill="#000000"/><text fill="#000000" font-family="sans-serif" font-size="14" font-style="italic" lengthAdjust="spacing" textLength="167" x="94" y="259.8467">CountingMemoryCache</text><rect fill="#FFFFFF" height="15.9688" style="stroke:#181818;stroke-width:1.0;stroke-dasharray:2.0,2.0;" width="163" x="269" y="236"/><text fill="#000000" font-family="sans-serif" font-size="12" font-style="italic" lengthAdjust="spacing" textLength="161" x="270" y="248.1387">CacheKey, CloseableImage</text><line style="stroke:#181818;stroke-width:0.5;" x1="66" x2="428" y1="271" y2="271"/><line style="stroke:#181818;stroke-width:0.5;" x1="66" x2="428" y1="279" y2="279"/></g><!--class LruCountingMemoryCache--><g id="elem_LruCountingMemoryCache"><rect codeLine="3" fill="#F1F1F1" height="48" id="LruCountingMemoryCache" rx="2.5" ry="2.5" style="stroke:#181818;stroke-width:0.5;" width="386" x="171" y="347"/><ellipse cx="186" cy="363" fill="#ADD1B2" rx="11" ry="11" style="stroke:#181818;stroke-width:1.0;"/><path d="M188.3438,358.6719 C187.4063,358.2344 186.8125,358.0938 185.9375,358.0938 C183.3125,358.0938 181.3125,360.1719 181.3125,362.8906 L181.3125,364.0156 C181.3125,366.5938 183.4219,368.4844 186.3125,368.4844 C187.5313,368.4844 188.6875,368.1875 189.4375,367.6406 C190.0156,367.2344 190.3438,366.7813 190.3438,366.3906 C190.3438,365.9375 189.9531,365.5469 189.4844,365.5469 C189.2656,365.5469 189.0625,365.625 188.875,365.8125 C188.4219,366.2969 188.4219,366.2969 188.2344,366.3906 C187.8125,366.6563 187.125,366.7813 186.3594,366.7813 C184.3125,366.7813 183.0156,365.6875 183.0156,363.9844 L183.0156,362.8906 C183.0156,361.1094 184.2656,359.7969 186,359.7969 C186.5781,359.7969 187.1875,359.9531 187.6563,360.2031 C188.1406,360.4844 188.3125,360.7031 188.4063,361.1094 C188.4688,361.5156 188.5,361.6406 188.6406,361.7656 C188.7813,361.9063 189.0156,362.0156 189.2344,362.0156 C189.5,362.0156 189.7656,361.875 189.9375,361.6563 C190.0469,361.5 190.0781,361.3125 190.0781,360.8906 L190.0781,359.4688 C190.0781,359.0313 190.0625,358.9063 189.9688,358.75 C189.8125,358.4844 189.5313,358.3438 189.2344,358.3438 C188.9375,358.3438 188.7344,358.4375 188.5156,358.75 L188.3438,358.6719 Z " fill="#000000"/><text fill="#000000" font-family="sans-serif" font-size="14" lengthAdjust="spacing" textLength="189" x="200" y="367.8467">LruCountingMemoryCache</text><rect fill="#FFFFFF" height="15.9688" style="stroke:#181818;stroke-width:1.0;stroke-dasharray:2.0,2.0;" width="163" x="397" y="344"/><text fill="#000000" font-family="sans-serif" font-size="12" font-style="italic" lengthAdjust="spacing" textLength="161" x="398" y="356.1387">CacheKey, CloseableImage</text><line style="stroke:#181818;stroke-width:0.5;" x1="172" x2="556" y1="379" y2="379"/><line style="stroke:#181818;stroke-width:0.5;" x1="172" x2="556" y1="387" y2="387"/></g><!--class BitmapMemoryCacheProducer--><g id="elem_BitmapMemoryCacheProducer"><rect fill="#F1F1F1" height="48" id="BitmapMemoryCacheProducer" rx="2.5" ry="2.5" style="stroke:#181818;stroke-width:0.5;" width="251" x="356.5" y="7"/><ellipse cx="371.5" cy="23" fill="#ADD1B2" rx="11" ry="11" style="stroke:#181818;stroke-width:1.0;"/><path d="M373.8438,18.6719 C372.9063,18.2344 372.3125,18.0938 371.4375,18.0938 C368.8125,18.0938 366.8125,20.1719 366.8125,22.8906 L366.8125,24.0156 C366.8125,26.5938 368.9219,28.4844 371.8125,28.4844 C373.0313,28.4844 374.1875,28.1875 374.9375,27.6406 C375.5156,27.2344 375.8438,26.7813 375.8438,26.3906 C375.8438,25.9375 375.4531,25.5469 374.9844,25.5469 C374.7656,25.5469 374.5625,25.625 374.375,25.8125 C373.9219,26.2969 373.9219,26.2969 373.7344,26.3906 C373.3125,26.6563 372.625,26.7813 371.8594,26.7813 C369.8125,26.7813 368.5156,25.6875 368.5156,23.9844 L368.5156,22.8906 C368.5156,21.1094 369.7656,19.7969 371.5,19.7969 C372.0781,19.7969 372.6875,19.9531 373.1563,20.2031 C373.6406,20.4844 373.8125,20.7031 373.9063,21.1094 C373.9688,21.5156 374,21.6406 374.1406,21.7656 C374.2813,21.9063 374.5156,22.0156 374.7344,22.0156 C375,22.0156 375.2656,21.875 375.4375,21.6563 C375.5469,21.5 375.5781,21.3125 375.5781,20.8906 L375.5781,19.4688 C375.5781,19.0313 375.5625,18.9063 375.4688,18.75 C375.3125,18.4844 375.0313,18.3438 374.7344,18.3438 C374.4375,18.3438 374.2344,18.4375 374.0156,18.75 L373.8438,18.6719 Z " fill="#000000"/><text fill="#000000" font-family="sans-serif" font-size="14" lengthAdjust="spacing" textLength="219" x="385.5" y="27.8467">BitmapMemoryCacheProducer</text><line style="stroke:#181818;stroke-width:0.5;" x1="357.5" x2="606.5" y1="39" y2="39"/><line style="stroke:#181818;stroke-width:0.5;" x1="357.5" x2="606.5" y1="47" y2="47"/></g><!--class MemoryTrimmable--><g id="elem_MemoryTrimmable"><rect codeLine="8" fill="#F1F1F1" height="64.2969" id="MemoryTrimmable" rx="2.5" ry="2.5" style="stroke:#181818;stroke-width:0.5;" width="290" x="7" y="115"/><ellipse cx="79.75" cy="131" fill="#B4A7E5" rx="11" ry="11" style="stroke:#181818;stroke-width:1.0;"/><path d="M80.7031,127.7813 L82.4219,127.7813 C82.8125,127.7813 83,127.75 83.125,127.6719 C83.3906,127.5156 83.5313,127.2344 83.5313,126.9375 C83.5313,126.6719 83.4219,126.4063 83.1875,126.2344 C83.0156,126.125 82.875,126.0938 82.4219,126.0938 L77.2813,126.0938 C76.8438,126.0938 76.7188,126.1094 76.5625,126.2031 C76.3125,126.3594 76.1563,126.6563 76.1563,126.9375 C76.1563,127.2188 76.2969,127.4688 76.5156,127.6406 C76.6719,127.75 76.8594,127.7813 77.2813,127.7813 L79,127.7813 L79,134.2969 L77.2813,134.2969 C76.8438,134.2969 76.7188,134.3125 76.5625,134.4219 C76.3125,134.5781 76.1563,134.8594 76.1563,135.1563 C76.1563,135.4063 76.2969,135.6719 76.5156,135.8281 C76.6719,135.9531 76.875,136 77.2813,136 L82.4219,136 C83.1719,136 83.5313,135.7188 83.5313,135.1563 C83.5313,134.875 83.4219,134.625 83.1875,134.4531 C83.0156,134.3281 82.875,134.2969 82.4219,134.2969 L80.7031,134.2969 L80.7031,127.7813 Z " fill="#000000"/><text fill="#000000" font-family="sans-serif" font-size="14" font-style="italic" lengthAdjust="spacing" textLength="136" x="100.25" y="135.8467">MemoryTrimmable</text><line style="stroke:#181818;stroke-width:0.5;" x1="8" x2="296" y1="147" y2="147"/><line style="stroke:#181818;stroke-width:0.5;" x1="8" x2="296" y1="155" y2="155"/><text fill="#000000" font-family="sans-serif" font-size="14" lengthAdjust="spacing" textLength="278" x="13" y="171.9951">void trim(MemoryTrimType trimType);</text></g><!--reverse link BitmapMemoryCacheProducer to MemoryCache--><g id="link_BitmapMemoryCacheProducer_MemoryCache"><path codeLine="4" d="M482,67.07 C482,86.848 482,103.196 482,122.965 " fill="none" id="BitmapMemoryCacheProducer-backto-MemoryCache" style="stroke:#181818;stroke-width:1.0;"/><polygon fill="#181818" points="482,55.07,478,61.07,482,67.07,486,61.07,482,55.07" style="stroke:#181818;stroke-width:1.0;"/></g><!--reverse link MemoryCache to LruCountingMemoryCache--><g id="link_MemoryCache_LruCountingMemoryCache"><path codeLine="5" d="M477.9205,188.9316 C474.5905,217.7026 468.12,249.771 447,287 C433.727,310.3967 412.074,331.7327 394.213,346.9126 " fill="none" id="MemoryCache-backto-LruCountingMemoryCache" style="stroke:#181818;stroke-width:1.0;stroke-dasharray:7.0,7.0;"/><polygon fill="none" points="479.99,171.051,471.9603,188.2418,483.8807,189.6215,479.99,171.051" style="stroke:#181818;stroke-width:1.0;"/></g><!--reverse link CountingMemoryCache to LruCountingMemoryCache--><g id="link_CountingMemoryCache_LruCountingMemoryCache"><path codeLine="6" d="M285.7266,299.0854 C305.2176,316.7438 318.68,328.9408 338.258,346.6784 " fill="none" id="CountingMemoryCache-backto-LruCountingMemoryCache" style="stroke:#181818;stroke-width:1.0;stroke-dasharray:7.0,7.0;"/><polygon fill="none" points="272.387,287,281.6981,303.5319,289.755,294.6388,272.387,287" style="stroke:#181818;stroke-width:1.0;"/></g><!--reverse link MemoryCache to CountingMemoryCache--><g id="link_MemoryCache_CountingMemoryCache"><path codeLine="7" d="M418.2489,178.9262 C377.4779,198.7042 335.236,219.196 294.485,238.965 " fill="none" id="MemoryCache-backto-CountingMemoryCache" style="stroke:#181818;stroke-width:1.0;"/><polygon fill="none" points="434.444,171.07,415.6302,173.5279,420.8677,184.3246,434.444,171.07" style="stroke:#181818;stroke-width:1.0;"/></g><!--reverse link MemoryTrimmable to CountingMemoryCache--><g id="link_MemoryTrimmable_CountingMemoryCache"><path codeLine="11" d="M189.4825,192.9789 C205.1945,211.8329 213.373,221.647 227.704,238.845 " fill="none" id="MemoryTrimmable-backto-CountingMemoryCache" style="stroke:#181818;stroke-width:1.0;"/><polygon fill="none" points="177.959,179.151,184.8732,196.82,194.0918,189.1377,177.959,179.151" style="stroke:#181818;stroke-width:1.0;"/></g><!--SRC=[oymhIIrAIqnELV1DpSqlgdHEJCv8jG6JtgcLEWhEEVd5gOb9EQcUkOdfgNPScN3rplcbUIMPUUd4wKlEIImkLl0fAYLDcrDcIMvY0PBQWABybDBar285BLrTP2Tp8R4LR6hqz73OnOL53AzwL7L0Ix4foaGBnP2YpDnSa3SKghaKWA0iFpD5eGGeg86G3waiI0MBWHYQrborNEXwSLa70000]--></g></svg>