<?xml version="1.0" encoding="us-ascii" standalone="no"?><svg xmlns="http://www.w3.org/2000/svg" xmlns:xlink="http://www.w3.org/1999/xlink" contentStyleType="text/css" height="623px" preserveAspectRatio="none" style="width:939px;height:623px;background:#FFFFFF;" version="1.1" viewBox="0 0 939 623" width="939px" zoomAndPan="magnify"><defs/><g><!--class RenderProxy--><g id="elem_RenderProxy"><rect fill="#F1F1F1" height="48" id="RenderProxy" rx="2.5" ry="2.5" style="stroke:#181818;stroke-width:0.5;" width="124" x="479.5" y="7"/><ellipse cx="494.5" cy="23" fill="#ADD1B2" rx="11" ry="11" style="stroke:#181818;stroke-width:1.0;"/><path d="M496.8438,18.6719 C495.9063,18.2344 495.3125,18.0938 494.4375,18.0938 C491.8125,18.0938 489.8125,20.1719 489.8125,22.8906 L489.8125,24.0156 C489.8125,26.5938 491.9219,28.4844 494.8125,28.4844 C496.0313,28.4844 497.1875,28.1875 497.9375,27.6406 C498.5156,27.2344 498.8438,26.7813 498.8438,26.3906 C498.8438,25.9375 498.4531,25.5469 497.9844,25.5469 C497.7656,25.5469 497.5625,25.625 497.375,25.8125 C496.9219,26.2969 496.9219,26.2969 496.7344,26.3906 C496.3125,26.6563 495.625,26.7813 494.8594,26.7813 C492.8125,26.7813 491.5156,25.6875 491.5156,23.9844 L491.5156,22.8906 C491.5156,21.1094 492.7656,19.7969 494.5,19.7969 C495.0781,19.7969 495.6875,19.9531 496.1563,20.2031 C496.6406,20.4844 496.8125,20.7031 496.9063,21.1094 C496.9688,21.5156 497,21.6406 497.1406,21.7656 C497.2813,21.9063 497.5156,22.0156 497.7344,22.0156 C498,22.0156 498.2656,21.875 498.4375,21.6563 C498.5469,21.5 498.5781,21.3125 498.5781,20.8906 L498.5781,19.4688 C498.5781,19.0313 498.5625,18.9063 498.4688,18.75 C498.3125,18.4844 498.0313,18.3438 497.7344,18.3438 C497.4375,18.3438 497.2344,18.4375 497.0156,18.75 L496.8438,18.6719 Z " fill="#000000"/><text fill="#000000" font-family="sans-serif" font-size="14" lengthAdjust="spacing" textLength="92" x="508.5" y="27.8467">RenderProxy</text><line style="stroke:#181818;stroke-width:0.5;" x1="480.5" x2="602.5" y1="39" y2="39"/><line style="stroke:#181818;stroke-width:0.5;" x1="480.5" x2="602.5" y1="47" y2="47"/></g><!--class DrawFrameTask--><g id="elem_DrawFrameTask"><rect fill="#F1F1F1" height="48" id="DrawFrameTask" rx="2.5" ry="2.5" style="stroke:#181818;stroke-width:0.5;" width="146" x="468.5" y="132"/><ellipse cx="483.5" cy="148" fill="#ADD1B2" rx="11" ry="11" style="stroke:#181818;stroke-width:1.0;"/><path d="M485.8438,143.6719 C484.9063,143.2344 484.3125,143.0938 483.4375,143.0938 C480.8125,143.0938 478.8125,145.1719 478.8125,147.8906 L478.8125,149.0156 C478.8125,151.5938 480.9219,153.4844 483.8125,153.4844 C485.0313,153.4844 486.1875,153.1875 486.9375,152.6406 C487.5156,152.2344 487.8438,151.7813 487.8438,151.3906 C487.8438,150.9375 487.4531,150.5469 486.9844,150.5469 C486.7656,150.5469 486.5625,150.625 486.375,150.8125 C485.9219,151.2969 485.9219,151.2969 485.7344,151.3906 C485.3125,151.6563 484.625,151.7813 483.8594,151.7813 C481.8125,151.7813 480.5156,150.6875 480.5156,148.9844 L480.5156,147.8906 C480.5156,146.1094 481.7656,144.7969 483.5,144.7969 C484.0781,144.7969 484.6875,144.9531 485.1563,145.2031 C485.6406,145.4844 485.8125,145.7031 485.9063,146.1094 C485.9688,146.5156 486,146.6406 486.1406,146.7656 C486.2813,146.9063 486.5156,147.0156 486.7344,147.0156 C487,147.0156 487.2656,146.875 487.4375,146.6563 C487.5469,146.5 487.5781,146.3125 487.5781,145.8906 L487.5781,144.4688 C487.5781,144.0313 487.5625,143.9063 487.4688,143.75 C487.3125,143.4844 487.0313,143.3438 486.7344,143.3438 C486.4375,143.3438 486.2344,143.4375 486.0156,143.75 L485.8438,143.6719 Z " fill="#000000"/><text fill="#000000" font-family="sans-serif" font-size="14" lengthAdjust="spacing" textLength="114" x="497.5" y="152.8467">DrawFrameTask</text><line style="stroke:#181818;stroke-width:0.5;" x1="469.5" x2="613.5" y1="164" y2="164"/><line style="stroke:#181818;stroke-width:0.5;" x1="469.5" x2="613.5" y1="172" y2="172"/></g><!--class RenderThread--><g id="elem_RenderThread"><rect fill="#F1F1F1" height="48" id="RenderThread" rx="2.5" ry="2.5" style="stroke:#181818;stroke-width:0.5;" width="134" x="275.5" y="241"/><ellipse cx="290.5" cy="257" fill="#ADD1B2" rx="11" ry="11" style="stroke:#181818;stroke-width:1.0;"/><path d="M292.8438,252.6719 C291.9063,252.2344 291.3125,252.0938 290.4375,252.0938 C287.8125,252.0938 285.8125,254.1719 285.8125,256.8906 L285.8125,258.0156 C285.8125,260.5938 287.9219,262.4844 290.8125,262.4844 C292.0313,262.4844 293.1875,262.1875 293.9375,261.6406 C294.5156,261.2344 294.8438,260.7813 294.8438,260.3906 C294.8438,259.9375 294.4531,259.5469 293.9844,259.5469 C293.7656,259.5469 293.5625,259.625 293.375,259.8125 C292.9219,260.2969 292.9219,260.2969 292.7344,260.3906 C292.3125,260.6563 291.625,260.7813 290.8594,260.7813 C288.8125,260.7813 287.5156,259.6875 287.5156,257.9844 L287.5156,256.8906 C287.5156,255.1094 288.7656,253.7969 290.5,253.7969 C291.0781,253.7969 291.6875,253.9531 292.1563,254.2031 C292.6406,254.4844 292.8125,254.7031 292.9063,255.1094 C292.9688,255.5156 293,255.6406 293.1406,255.7656 C293.2813,255.9063 293.5156,256.0156 293.7344,256.0156 C294,256.0156 294.2656,255.875 294.4375,255.6563 C294.5469,255.5 294.5781,255.3125 294.5781,254.8906 L294.5781,253.4688 C294.5781,253.0313 294.5625,252.9063 294.4688,252.75 C294.3125,252.4844 294.0313,252.3438 293.7344,252.3438 C293.4375,252.3438 293.2344,252.4375 293.0156,252.75 L292.8438,252.6719 Z " fill="#000000"/><text fill="#000000" font-family="sans-serif" font-size="14" lengthAdjust="spacing" textLength="102" x="304.5" y="261.8467">RenderThread</text><line style="stroke:#181818;stroke-width:0.5;" x1="276.5" x2="408.5" y1="273" y2="273"/><line style="stroke:#181818;stroke-width:0.5;" x1="276.5" x2="408.5" y1="281" y2="281"/></g><!--class CanvasContext--><g id="elem_CanvasContext"><rect fill="#F1F1F1" height="48" id="CanvasContext" rx="2.5" ry="2.5" style="stroke:#181818;stroke-width:0.5;" width="141" x="674" y="241"/><ellipse cx="689" cy="257" fill="#ADD1B2" rx="11" ry="11" style="stroke:#181818;stroke-width:1.0;"/><path d="M691.3438,252.6719 C690.4063,252.2344 689.8125,252.0938 688.9375,252.0938 C686.3125,252.0938 684.3125,254.1719 684.3125,256.8906 L684.3125,258.0156 C684.3125,260.5938 686.4219,262.4844 689.3125,262.4844 C690.5313,262.4844 691.6875,262.1875 692.4375,261.6406 C693.0156,261.2344 693.3438,260.7813 693.3438,260.3906 C693.3438,259.9375 692.9531,259.5469 692.4844,259.5469 C692.2656,259.5469 692.0625,259.625 691.875,259.8125 C691.4219,260.2969 691.4219,260.2969 691.2344,260.3906 C690.8125,260.6563 690.125,260.7813 689.3594,260.7813 C687.3125,260.7813 686.0156,259.6875 686.0156,257.9844 L686.0156,256.8906 C686.0156,255.1094 687.2656,253.7969 689,253.7969 C689.5781,253.7969 690.1875,253.9531 690.6563,254.2031 C691.1406,254.4844 691.3125,254.7031 691.4063,255.1094 C691.4688,255.5156 691.5,255.6406 691.6406,255.7656 C691.7813,255.9063 692.0156,256.0156 692.2344,256.0156 C692.5,256.0156 692.7656,255.875 692.9375,255.6563 C693.0469,255.5 693.0781,255.3125 693.0781,254.8906 L693.0781,253.4688 C693.0781,253.0313 693.0625,252.9063 692.9688,252.75 C692.8125,252.4844 692.5313,252.3438 692.2344,252.3438 C691.9375,252.3438 691.7344,252.4375 691.5156,252.75 L691.3438,252.6719 Z " fill="#000000"/><text fill="#000000" font-family="sans-serif" font-size="14" lengthAdjust="spacing" textLength="109" x="703" y="261.8467">CanvasContext</text><line style="stroke:#181818;stroke-width:0.5;" x1="675" x2="814" y1="273" y2="273"/><line style="stroke:#181818;stroke-width:0.5;" x1="675" x2="814" y1="281" y2="281"/></g><!--class IRenderPipeline--><g id="elem_IRenderPipeline"><rect codeLine="5" fill="#F1F1F1" height="48" id="IRenderPipeline" rx="2.5" ry="2.5" style="stroke:#181818;stroke-width:0.5;" width="144" x="672.5" y="350"/><ellipse cx="687.5" cy="366" fill="#B4A7E5" rx="11" ry="11" style="stroke:#181818;stroke-width:1.0;"/><path d="M688.4531,362.7813 L690.1719,362.7813 C690.5625,362.7813 690.75,362.75 690.875,362.6719 C691.1406,362.5156 691.2813,362.2344 691.2813,361.9375 C691.2813,361.6719 691.1719,361.4063 690.9375,361.2344 C690.7656,361.125 690.625,361.0938 690.1719,361.0938 L685.0313,361.0938 C684.5938,361.0938 684.4688,361.1094 684.3125,361.2031 C684.0625,361.3594 683.9063,361.6563 683.9063,361.9375 C683.9063,362.2188 684.0469,362.4688 684.2656,362.6406 C684.4219,362.75 684.6094,362.7813 685.0313,362.7813 L686.75,362.7813 L686.75,369.2969 L685.0313,369.2969 C684.5938,369.2969 684.4688,369.3125 684.3125,369.4219 C684.0625,369.5781 683.9063,369.8594 683.9063,370.1563 C683.9063,370.4063 684.0469,370.6719 684.2656,370.8281 C684.4219,370.9531 684.625,371 685.0313,371 L690.1719,371 C690.9219,371 691.2813,370.7188 691.2813,370.1563 C691.2813,369.875 691.1719,369.625 690.9375,369.4531 C690.7656,369.3281 690.625,369.2969 690.1719,369.2969 L688.4531,369.2969 L688.4531,362.7813 Z " fill="#000000"/><text fill="#000000" font-family="sans-serif" font-size="14" font-style="italic" lengthAdjust="spacing" textLength="112" x="701.5" y="370.8467">IRenderPipeline</text><line style="stroke:#181818;stroke-width:0.5;" x1="673.5" x2="815.5" y1="382" y2="382"/><line style="stroke:#181818;stroke-width:0.5;" x1="673.5" x2="815.5" y1="390" y2="390"/></g><!--class SkiaPipeline--><g id="elem_SkiaPipeline"><rect fill="#F1F1F1" height="48" id="SkiaPipeline" rx="2.5" ry="2.5" style="stroke:#181818;stroke-width:0.5;" width="120" x="684.5" y="459"/><ellipse cx="699.5" cy="475" fill="#ADD1B2" rx="11" ry="11" style="stroke:#181818;stroke-width:1.0;"/><path d="M701.8438,470.6719 C700.9063,470.2344 700.3125,470.0938 699.4375,470.0938 C696.8125,470.0938 694.8125,472.1719 694.8125,474.8906 L694.8125,476.0156 C694.8125,478.5938 696.9219,480.4844 699.8125,480.4844 C701.0313,480.4844 702.1875,480.1875 702.9375,479.6406 C703.5156,479.2344 703.8438,478.7813 703.8438,478.3906 C703.8438,477.9375 703.4531,477.5469 702.9844,477.5469 C702.7656,477.5469 702.5625,477.625 702.375,477.8125 C701.9219,478.2969 701.9219,478.2969 701.7344,478.3906 C701.3125,478.6563 700.625,478.7813 699.8594,478.7813 C697.8125,478.7813 696.5156,477.6875 696.5156,475.9844 L696.5156,474.8906 C696.5156,473.1094 697.7656,471.7969 699.5,471.7969 C700.0781,471.7969 700.6875,471.9531 701.1563,472.2031 C701.6406,472.4844 701.8125,472.7031 701.9063,473.1094 C701.9688,473.5156 702,473.6406 702.1406,473.7656 C702.2813,473.9063 702.5156,474.0156 702.7344,474.0156 C703,474.0156 703.2656,473.875 703.4375,473.6563 C703.5469,473.5 703.5781,473.3125 703.5781,472.8906 L703.5781,471.4688 C703.5781,471.0313 703.5625,470.9063 703.4688,470.75 C703.3125,470.4844 703.0313,470.3438 702.7344,470.3438 C702.4375,470.3438 702.2344,470.4375 702.0156,470.75 L701.8438,470.6719 Z " fill="#000000"/><text fill="#000000" font-family="sans-serif" font-size="14" lengthAdjust="spacing" textLength="88" x="713.5" y="479.8467">SkiaPipeline</text><line style="stroke:#181818;stroke-width:0.5;" x1="685.5" x2="803.5" y1="491" y2="491"/><line style="stroke:#181818;stroke-width:0.5;" x1="685.5" x2="803.5" y1="499" y2="499"/></g><!--class SkiaOpenGLPipeline--><g id="elem_SkiaOpenGLPipeline"><rect fill="#F1F1F1" height="48" id="SkiaOpenGLPipeline" rx="2.5" ry="2.5" style="stroke:#181818;stroke-width:0.5;" width="178" x="551.5" y="568"/><ellipse cx="566.5" cy="584" fill="#ADD1B2" rx="11" ry="11" style="stroke:#181818;stroke-width:1.0;"/><path d="M568.8438,579.6719 C567.9063,579.2344 567.3125,579.0938 566.4375,579.0938 C563.8125,579.0938 561.8125,581.1719 561.8125,583.8906 L561.8125,585.0156 C561.8125,587.5938 563.9219,589.4844 566.8125,589.4844 C568.0313,589.4844 569.1875,589.1875 569.9375,588.6406 C570.5156,588.2344 570.8438,587.7813 570.8438,587.3906 C570.8438,586.9375 570.4531,586.5469 569.9844,586.5469 C569.7656,586.5469 569.5625,586.625 569.375,586.8125 C568.9219,587.2969 568.9219,587.2969 568.7344,587.3906 C568.3125,587.6563 567.625,587.7813 566.8594,587.7813 C564.8125,587.7813 563.5156,586.6875 563.5156,584.9844 L563.5156,583.8906 C563.5156,582.1094 564.7656,580.7969 566.5,580.7969 C567.0781,580.7969 567.6875,580.9531 568.1563,581.2031 C568.6406,581.4844 568.8125,581.7031 568.9063,582.1094 C568.9688,582.5156 569,582.6406 569.1406,582.7656 C569.2813,582.9063 569.5156,583.0156 569.7344,583.0156 C570,583.0156 570.2656,582.875 570.4375,582.6563 C570.5469,582.5 570.5781,582.3125 570.5781,581.8906 L570.5781,580.4688 C570.5781,580.0313 570.5625,579.9063 570.4688,579.75 C570.3125,579.4844 570.0313,579.3438 569.7344,579.3438 C569.4375,579.3438 569.2344,579.4375 569.0156,579.75 L568.8438,579.6719 Z " fill="#000000"/><text fill="#000000" font-family="sans-serif" font-size="14" lengthAdjust="spacing" textLength="146" x="580.5" y="588.8467">SkiaOpenGLPipeline</text><line style="stroke:#181818;stroke-width:0.5;" x1="552.5" x2="728.5" y1="600" y2="600"/><line style="stroke:#181818;stroke-width:0.5;" x1="552.5" x2="728.5" y1="608" y2="608"/></g><!--class SkiaVulkanPipeline--><g id="elem_SkiaVulkanPipeline"><rect fill="#F1F1F1" height="48" id="SkiaVulkanPipeline" rx="2.5" ry="2.5" style="stroke:#181818;stroke-width:0.5;" width="168" x="764.5" y="568"/><ellipse cx="779.5" cy="584" fill="#ADD1B2" rx="11" ry="11" style="stroke:#181818;stroke-width:1.0;"/><path d="M781.8438,579.6719 C780.9063,579.2344 780.3125,579.0938 779.4375,579.0938 C776.8125,579.0938 774.8125,581.1719 774.8125,583.8906 L774.8125,585.0156 C774.8125,587.5938 776.9219,589.4844 779.8125,589.4844 C781.0313,589.4844 782.1875,589.1875 782.9375,588.6406 C783.5156,588.2344 783.8438,587.7813 783.8438,587.3906 C783.8438,586.9375 783.4531,586.5469 782.9844,586.5469 C782.7656,586.5469 782.5625,586.625 782.375,586.8125 C781.9219,587.2969 781.9219,587.2969 781.7344,587.3906 C781.3125,587.6563 780.625,587.7813 779.8594,587.7813 C777.8125,587.7813 776.5156,586.6875 776.5156,584.9844 L776.5156,583.8906 C776.5156,582.1094 777.7656,580.7969 779.5,580.7969 C780.0781,580.7969 780.6875,580.9531 781.1563,581.2031 C781.6406,581.4844 781.8125,581.7031 781.9063,582.1094 C781.9688,582.5156 782,582.6406 782.1406,582.7656 C782.2813,582.9063 782.5156,583.0156 782.7344,583.0156 C783,583.0156 783.2656,582.875 783.4375,582.6563 C783.5469,582.5 783.5781,582.3125 783.5781,581.8906 L783.5781,580.4688 C783.5781,580.0313 783.5625,579.9063 783.4688,579.75 C783.3125,579.4844 783.0313,579.3438 782.7344,579.3438 C782.4375,579.3438 782.2344,579.4375 782.0156,579.75 L781.8438,579.6719 Z " fill="#000000"/><text fill="#000000" font-family="sans-serif" font-size="14" lengthAdjust="spacing" textLength="136" x="793.5" y="588.8467">SkiaVulkanPipeline</text><line style="stroke:#181818;stroke-width:0.5;" x1="765.5" x2="931.5" y1="600" y2="600"/><line style="stroke:#181818;stroke-width:0.5;" x1="765.5" x2="931.5" y1="608" y2="608"/></g><!--class DeferredLayerUpdater--><g id="elem_DeferredLayerUpdater"><rect fill="#F1F1F1" height="48" id="DeferredLayerUpdater" rx="2.5" ry="2.5" style="stroke:#181818;stroke-width:0.5;" width="194" x="444.5" y="241"/><ellipse cx="459.5" cy="257" fill="#ADD1B2" rx="11" ry="11" style="stroke:#181818;stroke-width:1.0;"/><path d="M461.8438,252.6719 C460.9063,252.2344 460.3125,252.0938 459.4375,252.0938 C456.8125,252.0938 454.8125,254.1719 454.8125,256.8906 L454.8125,258.0156 C454.8125,260.5938 456.9219,262.4844 459.8125,262.4844 C461.0313,262.4844 462.1875,262.1875 462.9375,261.6406 C463.5156,261.2344 463.8438,260.7813 463.8438,260.3906 C463.8438,259.9375 463.4531,259.5469 462.9844,259.5469 C462.7656,259.5469 462.5625,259.625 462.375,259.8125 C461.9219,260.2969 461.9219,260.2969 461.7344,260.3906 C461.3125,260.6563 460.625,260.7813 459.8594,260.7813 C457.8125,260.7813 456.5156,259.6875 456.5156,257.9844 L456.5156,256.8906 C456.5156,255.1094 457.7656,253.7969 459.5,253.7969 C460.0781,253.7969 460.6875,253.9531 461.1563,254.2031 C461.6406,254.4844 461.8125,254.7031 461.9063,255.1094 C461.9688,255.5156 462,255.6406 462.1406,255.7656 C462.2813,255.9063 462.5156,256.0156 462.7344,256.0156 C463,256.0156 463.2656,255.875 463.4375,255.6563 C463.5469,255.5 463.5781,255.3125 463.5781,254.8906 L463.5781,253.4688 C463.5781,253.0313 463.5625,252.9063 463.4688,252.75 C463.3125,252.4844 463.0313,252.3438 462.7344,252.3438 C462.4375,252.3438 462.2344,252.4375 462.0156,252.75 L461.8438,252.6719 Z " fill="#000000"/><text fill="#000000" font-family="sans-serif" font-size="14" lengthAdjust="spacing" textLength="162" x="473.5" y="261.8467">DeferredLayerUpdater</text><line style="stroke:#181818;stroke-width:0.5;" x1="445.5" x2="637.5" y1="273" y2="273"/><line style="stroke:#181818;stroke-width:0.5;" x1="445.5" x2="637.5" y1="281" y2="281"/></g><!--class ThreadBase--><g id="elem_ThreadBase"><rect fill="#F1F1F1" height="48" id="ThreadBase" rx="2.5" ry="2.5" style="stroke:#181818;stroke-width:0.5;" width="116" x="140.5" y="132"/><ellipse cx="155.5" cy="148" fill="#ADD1B2" rx="11" ry="11" style="stroke:#181818;stroke-width:1.0;"/><path d="M157.8438,143.6719 C156.9063,143.2344 156.3125,143.0938 155.4375,143.0938 C152.8125,143.0938 150.8125,145.1719 150.8125,147.8906 L150.8125,149.0156 C150.8125,151.5938 152.9219,153.4844 155.8125,153.4844 C157.0313,153.4844 158.1875,153.1875 158.9375,152.6406 C159.5156,152.2344 159.8438,151.7813 159.8438,151.3906 C159.8438,150.9375 159.4531,150.5469 158.9844,150.5469 C158.7656,150.5469 158.5625,150.625 158.375,150.8125 C157.9219,151.2969 157.9219,151.2969 157.7344,151.3906 C157.3125,151.6563 156.625,151.7813 155.8594,151.7813 C153.8125,151.7813 152.5156,150.6875 152.5156,148.9844 L152.5156,147.8906 C152.5156,146.1094 153.7656,144.7969 155.5,144.7969 C156.0781,144.7969 156.6875,144.9531 157.1563,145.2031 C157.6406,145.4844 157.8125,145.7031 157.9063,146.1094 C157.9688,146.5156 158,146.6406 158.1406,146.7656 C158.2813,146.9063 158.5156,147.0156 158.7344,147.0156 C159,147.0156 159.2656,146.875 159.4375,146.6563 C159.5469,146.5 159.5781,146.3125 159.5781,145.8906 L159.5781,144.4688 C159.5781,144.0313 159.5625,143.9063 159.4688,143.75 C159.3125,143.4844 159.0313,143.3438 158.7344,143.3438 C158.4375,143.3438 158.2344,143.4375 158.0156,143.75 L157.8438,143.6719 Z " fill="#000000"/><text fill="#000000" font-family="sans-serif" font-size="14" lengthAdjust="spacing" textLength="84" x="169.5" y="152.8467">ThreadBase</text><line style="stroke:#181818;stroke-width:0.5;" x1="141.5" x2="255.5" y1="164" y2="164"/><line style="stroke:#181818;stroke-width:0.5;" x1="141.5" x2="255.5" y1="172" y2="172"/></g><!--class WorkQueue--><g id="elem_WorkQueue"><rect fill="#F1F1F1" height="48" id="WorkQueue" rx="2.5" ry="2.5" style="stroke:#181818;stroke-width:0.5;" width="115" x="7" y="241"/><ellipse cx="22" cy="257" fill="#ADD1B2" rx="11" ry="11" style="stroke:#181818;stroke-width:1.0;"/><path d="M24.3438,252.6719 C23.4063,252.2344 22.8125,252.0938 21.9375,252.0938 C19.3125,252.0938 17.3125,254.1719 17.3125,256.8906 L17.3125,258.0156 C17.3125,260.5938 19.4219,262.4844 22.3125,262.4844 C23.5313,262.4844 24.6875,262.1875 25.4375,261.6406 C26.0156,261.2344 26.3438,260.7813 26.3438,260.3906 C26.3438,259.9375 25.9531,259.5469 25.4844,259.5469 C25.2656,259.5469 25.0625,259.625 24.875,259.8125 C24.4219,260.2969 24.4219,260.2969 24.2344,260.3906 C23.8125,260.6563 23.125,260.7813 22.3594,260.7813 C20.3125,260.7813 19.0156,259.6875 19.0156,257.9844 L19.0156,256.8906 C19.0156,255.1094 20.2656,253.7969 22,253.7969 C22.5781,253.7969 23.1875,253.9531 23.6563,254.2031 C24.1406,254.4844 24.3125,254.7031 24.4063,255.1094 C24.4688,255.5156 24.5,255.6406 24.6406,255.7656 C24.7813,255.9063 25.0156,256.0156 25.2344,256.0156 C25.5,256.0156 25.7656,255.875 25.9375,255.6563 C26.0469,255.5 26.0781,255.3125 26.0781,254.8906 L26.0781,253.4688 C26.0781,253.0313 26.0625,252.9063 25.9688,252.75 C25.8125,252.4844 25.5313,252.3438 25.2344,252.3438 C24.9375,252.3438 24.7344,252.4375 24.5156,252.75 L24.3438,252.6719 Z " fill="#000000"/><text fill="#000000" font-family="sans-serif" font-size="14" lengthAdjust="spacing" textLength="83" x="36" y="261.8467">WorkQueue</text><line style="stroke:#181818;stroke-width:0.5;" x1="8" x2="121" y1="273" y2="273"/><line style="stroke:#181818;stroke-width:0.5;" x1="8" x2="121" y1="281" y2="281"/></g><!--class Looper--><g id="elem_Looper"><rect fill="#F1F1F1" height="48" id="Looper" rx="2.5" ry="2.5" style="stroke:#181818;stroke-width:0.5;" width="83" x="157" y="241"/><ellipse cx="172" cy="257" fill="#ADD1B2" rx="11" ry="11" style="stroke:#181818;stroke-width:1.0;"/><path d="M174.3438,252.6719 C173.4063,252.2344 172.8125,252.0938 171.9375,252.0938 C169.3125,252.0938 167.3125,254.1719 167.3125,256.8906 L167.3125,258.0156 C167.3125,260.5938 169.4219,262.4844 172.3125,262.4844 C173.5313,262.4844 174.6875,262.1875 175.4375,261.6406 C176.0156,261.2344 176.3438,260.7813 176.3438,260.3906 C176.3438,259.9375 175.9531,259.5469 175.4844,259.5469 C175.2656,259.5469 175.0625,259.625 174.875,259.8125 C174.4219,260.2969 174.4219,260.2969 174.2344,260.3906 C173.8125,260.6563 173.125,260.7813 172.3594,260.7813 C170.3125,260.7813 169.0156,259.6875 169.0156,257.9844 L169.0156,256.8906 C169.0156,255.1094 170.2656,253.7969 172,253.7969 C172.5781,253.7969 173.1875,253.9531 173.6563,254.2031 C174.1406,254.4844 174.3125,254.7031 174.4063,255.1094 C174.4688,255.5156 174.5,255.6406 174.6406,255.7656 C174.7813,255.9063 175.0156,256.0156 175.2344,256.0156 C175.5,256.0156 175.7656,255.875 175.9375,255.6563 C176.0469,255.5 176.0781,255.3125 176.0781,254.8906 L176.0781,253.4688 C176.0781,253.0313 176.0625,252.9063 175.9688,252.75 C175.8125,252.4844 175.5313,252.3438 175.2344,252.3438 C174.9375,252.3438 174.7344,252.4375 174.5156,252.75 L174.3438,252.6719 Z " fill="#000000"/><text fill="#000000" font-family="sans-serif" font-size="14" lengthAdjust="spacing" textLength="51" x="186" y="261.8467">Looper</text><line style="stroke:#181818;stroke-width:0.5;" x1="158" x2="239" y1="273" y2="273"/><line style="stroke:#181818;stroke-width:0.5;" x1="158" x2="239" y1="281" y2="281"/></g><!--reverse link RenderProxy to DrawFrameTask--><g id="link_RenderProxy_DrawFrameTask"><path codeLine="1" d="M541.5,67.135 C541.5,89.126 541.5,110.012 541.5,131.968 " fill="none" id="RenderProxy-backto-DrawFrameTask" style="stroke:#181818;stroke-width:1.0;"/><polygon fill="#181818" points="541.5,55.135,537.5,61.135,541.5,67.135,545.5,61.135,541.5,55.135" style="stroke:#181818;stroke-width:1.0;"/><text fill="#000000" font-family="sans-serif" font-size="13" lengthAdjust="spacing" textLength="27" x="542.5" y="98.0669">new</text></g><!--reverse link RenderProxy to RenderThread--><g id="link_RenderProxy_RenderThread"><path codeLine="2" d="M484.1953,60.8389 C452.8293,78.2729 423.055,99.006 396.5,132 C369.953,164.984 354.778,212.799 347.626,240.916 " fill="none" id="RenderProxy-backto-RenderThread" style="stroke:#181818;stroke-width:1.0;"/><polygon fill="#181818" points="494.684,55.009,487.4964,54.4277,484.1953,60.8389,491.3829,61.4202,494.684,55.009" style="stroke:#181818;stroke-width:1.0;"/><text fill="#000000" font-family="sans-serif" font-size="13" lengthAdjust="spacing" textLength="52" x="397.5" y="160.5669">&#33719;&#21462;&#21333;&#20363;</text></g><!--reverse link RenderProxy to CanvasContext--><g id="link_RenderProxy_CanvasContext"><path codeLine="3" d="M571.1991,64.0489 C589.7851,84.1849 609.102,105.375 632.5,132 C665.631,169.702 703.198,214.387 725.315,240.901 " fill="none" id="RenderProxy-backto-CanvasContext" style="stroke:#181818;stroke-width:1.0;"/><polygon fill="#181818" points="563.06,55.231,564.1903,62.353,571.1991,64.0489,570.0688,56.9269,563.06,55.231" style="stroke:#181818;stroke-width:1.0;"/><text fill="#000000" font-family="sans-serif" font-size="13" lengthAdjust="spacing" textLength="27" x="672.5" y="160.5669">new</text></g><!--reverse link CanvasContext to IRenderPipeline--><g id="link_CanvasContext_IRenderPipeline"><path codeLine="4" d="M744.5,301.217 C744.5,319.165 744.5,331.892 744.5,349.828 " fill="none" id="CanvasContext-backto-IRenderPipeline" style="stroke:#181818;stroke-width:1.0;"/><polygon fill="#181818" points="744.5,289.217,740.5,295.217,744.5,301.217,748.5,295.217,744.5,289.217" style="stroke:#181818;stroke-width:1.0;"/></g><!--reverse link IRenderPipeline to SkiaPipeline--><g id="link_IRenderPipeline_SkiaPipeline"><path codeLine="6" d="M744.5,416.217 C744.5,434.165 744.5,440.892 744.5,458.828 " fill="none" id="IRenderPipeline-backto-SkiaPipeline" style="stroke:#181818;stroke-width:1.0;"/><polygon fill="none" points="744.5,398.217,738.5,416.217,750.5,416.217,744.5,398.217" style="stroke:#181818;stroke-width:1.0;"/></g><!--reverse link SkiaPipeline to SkiaOpenGLPipeline--><g id="link_SkiaPipeline_SkiaOpenGLPipeline"><path codeLine="7" d="M709.3882,520.1245 C691.9432,538.0724 680.456,549.8918 663.022,567.8279 " fill="none" id="SkiaPipeline-backto-SkiaOpenGLPipeline" style="stroke:#181818;stroke-width:1.0;"/><polygon fill="none" points="721.934,507.217,705.0857,515.9425,713.6907,524.3064,721.934,507.217" style="stroke:#181818;stroke-width:1.0;"/></g><!--reverse link SkiaPipeline to SkiaVulkanPipeline--><g id="link_SkiaPipeline_SkiaVulkanPipeline"><path codeLine="8" d="M779.6118,520.1245 C797.0568,538.0724 808.544,549.8918 825.978,567.8279 " fill="none" id="SkiaPipeline-backto-SkiaVulkanPipeline" style="stroke:#181818;stroke-width:1.0;"/><polygon fill="none" points="767.066,507.217,775.3093,524.3064,783.9143,515.9425,767.066,507.217" style="stroke:#181818;stroke-width:1.0;"/></g><!--reverse link DrawFrameTask to CanvasContext--><g id="link_DrawFrameTask_CanvasContext"><path codeLine="9" d="M596.1636,185.8125 C630.2136,203.7605 666.51,222.892 700.538,240.828 " fill="none" id="DrawFrameTask-backto-CanvasContext" style="stroke:#181818;stroke-width:1.0;"/><polygon fill="#181818" points="585.548,180.217,588.9906,186.5533,596.1636,185.8125,592.721,179.4762,585.548,180.217" style="stroke:#181818;stroke-width:1.0;"/></g><!--reverse link DrawFrameTask to RenderThread--><g id="link_DrawFrameTask_RenderThread"><path codeLine="10" d="M487.751,185.9 C454.372,203.848 418.953,222.892 385.596,240.828 " fill="none" id="DrawFrameTask-backto-RenderThread" style="stroke:#181818;stroke-width:1.0;"/><polygon fill="#181818" points="498.32,180.217,491.1412,179.5355,487.751,185.9,494.9298,186.5815,498.32,180.217" style="stroke:#181818;stroke-width:1.0;"/></g><!--reverse link DrawFrameTask to DeferredLayerUpdater--><g id="link_DrawFrameTask_DeferredLayerUpdater"><path codeLine="11" d="M541.5,192.217 C541.5,210.165 541.5,222.892 541.5,240.828 " fill="none" id="DrawFrameTask-backto-DeferredLayerUpdater" style="stroke:#181818;stroke-width:1.0;"/><polygon fill="#181818" points="541.5,180.217,537.5,186.217,541.5,192.217,545.5,186.217,541.5,180.217" style="stroke:#181818;stroke-width:1.0;"/><text fill="#000000" font-family="sans-serif" font-size="13" lengthAdjust="spacing" textLength="8" x="532.525" y="200.0311">1</text><text fill="#000000" font-family="sans-serif" font-size="13" lengthAdjust="spacing" textLength="8" x="532.475" y="229.796">n</text></g><!--reverse link ThreadBase to RenderThread--><g id="link_ThreadBase_RenderThread"><path codeLine="13" d="M244.1937,190.9531 C268.3467,208.9011 287.177,222.892 311.315,240.828 " fill="none" id="ThreadBase-backto-RenderThread" style="stroke:#181818;stroke-width:1.0;"/><polygon fill="none" points="229.746,180.217,240.6151,195.769,247.7724,186.1371,229.746,180.217" style="stroke:#181818;stroke-width:1.0;"/></g><!--reverse link ThreadBase to WorkQueue--><g id="link_ThreadBase_WorkQueue"><path codeLine="14" d="M160.0469,187.705 C137.5709,205.653 115.981,222.892 93.5193,240.828 " fill="none" id="ThreadBase-backto-WorkQueue" style="stroke:#181818;stroke-width:1.0;"/><polygon fill="#181818" points="169.424,180.217,162.2395,180.8353,160.0469,187.705,167.2314,187.0867,169.424,180.217" style="stroke:#181818;stroke-width:1.0;"/></g><!--reverse link ThreadBase to Looper--><g id="link_ThreadBase_Looper"><path codeLine="15" d="M198.5,192.217 C198.5,210.165 198.5,222.892 198.5,240.828 " fill="none" id="ThreadBase-backto-Looper" style="stroke:#181818;stroke-width:1.0;"/><polygon fill="#181818" points="198.5,180.217,194.5,186.217,198.5,192.217,202.5,186.217,198.5,180.217" style="stroke:#181818;stroke-width:1.0;"/></g><!--SRC=[XP2x2i9044NxVCMIKaXXArOQ527WM-l1N354TyF4-03_GDHAVyNEhp7WPnWrn3m4ozbpxcLdUf0skCDginKbmn0cqxh1jC20V5TKXCHQw-MSppoOCSYEbCVn6fukuU5yl-qBRftaYlowaajibd5VzkrbjUAOus7kI6XEX7XA4nH8RXRLNHJlkmubHdhuuhO7sRJ-IADWxf9CfEmj2jlyuEdBvB1Urj-ABdLXOWfcs1PjmKFFfcXRJVl4QkJ7FygKfU2hPQpOxGO8a0UMKXxu2G00]--></g></svg>