<?xml version="1.0" encoding="us-ascii" standalone="no"?><svg xmlns="http://www.w3.org/2000/svg" xmlns:xlink="http://www.w3.org/1999/xlink" contentStyleType="text/css" height="311px" preserveAspectRatio="none" style="width:499px;height:311px;background:#FFFFFF;" version="1.1" viewBox="0 0 499 311" width="499px" zoomAndPan="magnify"><defs/><g><!--class Cache--><g id="elem_Cache"><rect codeLine="1" fill="#F1F1F1" height="80.5938" id="Cache" rx="2.5" ry="2.5" style="stroke:#181818;stroke-width:0.5;" width="311" x="7" y="115"/><ellipse cx="136.25" cy="131" fill="#ADD1B2" rx="11" ry="11" style="stroke:#181818;stroke-width:1.0;"/><path d="M138.5938,126.6719 C137.6563,126.2344 137.0625,126.0938 136.1875,126.0938 C133.5625,126.0938 131.5625,128.1719 131.5625,130.8906 L131.5625,132.0156 C131.5625,134.5938 133.6719,136.4844 136.5625,136.4844 C137.7813,136.4844 138.9375,136.1875 139.6875,135.6406 C140.2656,135.2344 140.5938,134.7813 140.5938,134.3906 C140.5938,133.9375 140.2031,133.5469 139.7344,133.5469 C139.5156,133.5469 139.3125,133.625 139.125,133.8125 C138.6719,134.2969 138.6719,134.2969 138.4844,134.3906 C138.0625,134.6563 137.375,134.7813 136.6094,134.7813 C134.5625,134.7813 133.2656,133.6875 133.2656,131.9844 L133.2656,130.8906 C133.2656,129.1094 134.5156,127.7969 136.25,127.7969 C136.8281,127.7969 137.4375,127.9531 137.9063,128.2031 C138.3906,128.4844 138.5625,128.7031 138.6563,129.1094 C138.7188,129.5156 138.75,129.6406 138.8906,129.7656 C139.0313,129.9063 139.2656,130.0156 139.4844,130.0156 C139.75,130.0156 140.0156,129.875 140.1875,129.6563 C140.2969,129.5 140.3281,129.3125 140.3281,128.8906 L140.3281,127.4688 C140.3281,127.0313 140.3125,126.9063 140.2188,126.75 C140.0625,126.4844 139.7813,126.3438 139.4844,126.3438 C139.1875,126.3438 138.9844,126.4375 138.7656,126.75 L138.5938,126.6719 Z " fill="#000000"/><text fill="#000000" font-family="sans-serif" font-size="14" lengthAdjust="spacing" textLength="44" x="156.75" y="135.8467">Cache</text><line style="stroke:#181818;stroke-width:0.5;" x1="8" x2="317" y1="147" y2="147"/><line style="stroke:#181818;stroke-width:0.5;" x1="8" x2="317" y1="155" y2="155"/><text fill="#000000" font-family="sans-serif" font-size="14" lengthAdjust="spacing" textLength="244" x="13" y="171.9951">get(request: Request): Response?</text><text fill="#000000" font-family="sans-serif" font-size="14" lengthAdjust="spacing" textLength="299" x="13" y="188.292">put(response: Response): CacheRequest?</text></g><!--class CacheInterceptor--><g id="elem_CacheInterceptor"><rect fill="#F1F1F1" height="48" id="CacheInterceptor" rx="2.5" ry="2.5" style="stroke:#181818;stroke-width:0.5;" width="160" x="212.5" y="7"/><ellipse cx="227.5" cy="23" fill="#ADD1B2" rx="11" ry="11" style="stroke:#181818;stroke-width:1.0;"/><path d="M229.8438,18.6719 C228.9063,18.2344 228.3125,18.0938 227.4375,18.0938 C224.8125,18.0938 222.8125,20.1719 222.8125,22.8906 L222.8125,24.0156 C222.8125,26.5938 224.9219,28.4844 227.8125,28.4844 C229.0313,28.4844 230.1875,28.1875 230.9375,27.6406 C231.5156,27.2344 231.8438,26.7813 231.8438,26.3906 C231.8438,25.9375 231.4531,25.5469 230.9844,25.5469 C230.7656,25.5469 230.5625,25.625 230.375,25.8125 C229.9219,26.2969 229.9219,26.2969 229.7344,26.3906 C229.3125,26.6563 228.625,26.7813 227.8594,26.7813 C225.8125,26.7813 224.5156,25.6875 224.5156,23.9844 L224.5156,22.8906 C224.5156,21.1094 225.7656,19.7969 227.5,19.7969 C228.0781,19.7969 228.6875,19.9531 229.1563,20.2031 C229.6406,20.4844 229.8125,20.7031 229.9063,21.1094 C229.9688,21.5156 230,21.6406 230.1406,21.7656 C230.2813,21.9063 230.5156,22.0156 230.7344,22.0156 C231,22.0156 231.2656,21.875 231.4375,21.6563 C231.5469,21.5 231.5781,21.3125 231.5781,20.8906 L231.5781,19.4688 C231.5781,19.0313 231.5625,18.9063 231.4688,18.75 C231.3125,18.4844 231.0313,18.3438 230.7344,18.3438 C230.4375,18.3438 230.2344,18.4375 230.0156,18.75 L229.8438,18.6719 Z " fill="#000000"/><text fill="#000000" font-family="sans-serif" font-size="14" lengthAdjust="spacing" textLength="128" x="241.5" y="27.8467">CacheInterceptor</text><line style="stroke:#181818;stroke-width:0.5;" x1="213.5" x2="371.5" y1="39" y2="39"/><line style="stroke:#181818;stroke-width:0.5;" x1="213.5" x2="371.5" y1="47" y2="47"/></g><!--class DiskLruCache--><g id="elem_DiskLruCache"><rect fill="#F1F1F1" height="48" id="DiskLruCache" rx="2.5" ry="2.5" style="stroke:#181818;stroke-width:0.5;" width="129" x="98" y="256"/><ellipse cx="113" cy="272" fill="#ADD1B2" rx="11" ry="11" style="stroke:#181818;stroke-width:1.0;"/><path d="M115.3438,267.6719 C114.4063,267.2344 113.8125,267.0938 112.9375,267.0938 C110.3125,267.0938 108.3125,269.1719 108.3125,271.8906 L108.3125,273.0156 C108.3125,275.5938 110.4219,277.4844 113.3125,277.4844 C114.5313,277.4844 115.6875,277.1875 116.4375,276.6406 C117.0156,276.2344 117.3438,275.7813 117.3438,275.3906 C117.3438,274.9375 116.9531,274.5469 116.4844,274.5469 C116.2656,274.5469 116.0625,274.625 115.875,274.8125 C115.4219,275.2969 115.4219,275.2969 115.2344,275.3906 C114.8125,275.6563 114.125,275.7813 113.3594,275.7813 C111.3125,275.7813 110.0156,274.6875 110.0156,272.9844 L110.0156,271.8906 C110.0156,270.1094 111.2656,268.7969 113,268.7969 C113.5781,268.7969 114.1875,268.9531 114.6563,269.2031 C115.1406,269.4844 115.3125,269.7031 115.4063,270.1094 C115.4688,270.5156 115.5,270.6406 115.6406,270.7656 C115.7813,270.9063 116.0156,271.0156 116.2344,271.0156 C116.5,271.0156 116.7656,270.875 116.9375,270.6563 C117.0469,270.5 117.0781,270.3125 117.0781,269.8906 L117.0781,268.4688 C117.0781,268.0313 117.0625,267.9063 116.9688,267.75 C116.8125,267.4844 116.5313,267.3438 116.2344,267.3438 C115.9375,267.3438 115.7344,267.4375 115.5156,267.75 L115.3438,267.6719 Z " fill="#000000"/><text fill="#000000" font-family="sans-serif" font-size="14" lengthAdjust="spacing" textLength="97" x="127" y="276.8467">DiskLruCache</text><line style="stroke:#181818;stroke-width:0.5;" x1="99" x2="226" y1="288" y2="288"/><line style="stroke:#181818;stroke-width:0.5;" x1="99" x2="226" y1="296" y2="296"/></g><!--class CacheStrategy--><g id="elem_CacheStrategy"><rect fill="#F1F1F1" height="48" id="CacheStrategy" rx="2.5" ry="2.5" style="stroke:#181818;stroke-width:0.5;" width="139" x="353" y="131.5"/><ellipse cx="368" cy="147.5" fill="#ADD1B2" rx="11" ry="11" style="stroke:#181818;stroke-width:1.0;"/><path d="M370.3438,143.1719 C369.4063,142.7344 368.8125,142.5938 367.9375,142.5938 C365.3125,142.5938 363.3125,144.6719 363.3125,147.3906 L363.3125,148.5156 C363.3125,151.0938 365.4219,152.9844 368.3125,152.9844 C369.5313,152.9844 370.6875,152.6875 371.4375,152.1406 C372.0156,151.7344 372.3438,151.2813 372.3438,150.8906 C372.3438,150.4375 371.9531,150.0469 371.4844,150.0469 C371.2656,150.0469 371.0625,150.125 370.875,150.3125 C370.4219,150.7969 370.4219,150.7969 370.2344,150.8906 C369.8125,151.1563 369.125,151.2813 368.3594,151.2813 C366.3125,151.2813 365.0156,150.1875 365.0156,148.4844 L365.0156,147.3906 C365.0156,145.6094 366.2656,144.2969 368,144.2969 C368.5781,144.2969 369.1875,144.4531 369.6563,144.7031 C370.1406,144.9844 370.3125,145.2031 370.4063,145.6094 C370.4688,146.0156 370.5,146.1406 370.6406,146.2656 C370.7813,146.4063 371.0156,146.5156 371.2344,146.5156 C371.5,146.5156 371.7656,146.375 371.9375,146.1563 C372.0469,146 372.0781,145.8125 372.0781,145.3906 L372.0781,143.9688 C372.0781,143.5313 372.0625,143.4063 371.9688,143.25 C371.8125,142.9844 371.5313,142.8438 371.2344,142.8438 C370.9375,142.8438 370.7344,142.9375 370.5156,143.25 L370.3438,143.1719 Z " fill="#000000"/><text fill="#000000" font-family="sans-serif" font-size="14" lengthAdjust="spacing" textLength="107" x="382" y="152.3467">CacheStrategy</text><line style="stroke:#181818;stroke-width:0.5;" x1="354" x2="491" y1="163.5" y2="163.5"/><line style="stroke:#181818;stroke-width:0.5;" x1="354" x2="491" y1="171.5" y2="171.5"/></g><!--class CacheControl--><g id="elem_CacheControl"><rect fill="#F1F1F1" height="48" id="CacheControl" rx="2.5" ry="2.5" style="stroke:#181818;stroke-width:0.5;" width="130" x="357.5" y="256"/><ellipse cx="372.5" cy="272" fill="#ADD1B2" rx="11" ry="11" style="stroke:#181818;stroke-width:1.0;"/><path d="M374.8438,267.6719 C373.9063,267.2344 373.3125,267.0938 372.4375,267.0938 C369.8125,267.0938 367.8125,269.1719 367.8125,271.8906 L367.8125,273.0156 C367.8125,275.5938 369.9219,277.4844 372.8125,277.4844 C374.0313,277.4844 375.1875,277.1875 375.9375,276.6406 C376.5156,276.2344 376.8438,275.7813 376.8438,275.3906 C376.8438,274.9375 376.4531,274.5469 375.9844,274.5469 C375.7656,274.5469 375.5625,274.625 375.375,274.8125 C374.9219,275.2969 374.9219,275.2969 374.7344,275.3906 C374.3125,275.6563 373.625,275.7813 372.8594,275.7813 C370.8125,275.7813 369.5156,274.6875 369.5156,272.9844 L369.5156,271.8906 C369.5156,270.1094 370.7656,268.7969 372.5,268.7969 C373.0781,268.7969 373.6875,268.9531 374.1563,269.2031 C374.6406,269.4844 374.8125,269.7031 374.9063,270.1094 C374.9688,270.5156 375,270.6406 375.1406,270.7656 C375.2813,270.9063 375.5156,271.0156 375.7344,271.0156 C376,271.0156 376.2656,270.875 376.4375,270.6563 C376.5469,270.5 376.5781,270.3125 376.5781,269.8906 L376.5781,268.4688 C376.5781,268.0313 376.5625,267.9063 376.4688,267.75 C376.3125,267.4844 376.0313,267.3438 375.7344,267.3438 C375.4375,267.3438 375.2344,267.4375 375.0156,267.75 L374.8438,267.6719 Z " fill="#000000"/><text fill="#000000" font-family="sans-serif" font-size="14" lengthAdjust="spacing" textLength="98" x="386.5" y="276.8467">CacheControl</text><line style="stroke:#181818;stroke-width:0.5;" x1="358.5" x2="486.5" y1="288" y2="288"/><line style="stroke:#181818;stroke-width:0.5;" x1="358.5" x2="486.5" y1="296" y2="296"/></g><!--reverse link CacheInterceptor to Cache--><g id="link_CacheInterceptor_Cache"><path codeLine="5" d="M259.3146,63.2706 C241.4416,80.1126 225.493,95.142 204.49,114.933 " fill="none" id="CacheInterceptor-backto-Cache" style="stroke:#181818;stroke-width:1.0;"/><polygon fill="#181818" points="268.048,55.041,260.9381,56.2447,259.3146,63.2706,266.4245,62.067,268.048,55.041" style="stroke:#181818;stroke-width:1.0;"/></g><!--reverse link Cache to DiskLruCache--><g id="link_Cache_DiskLruCache"><path codeLine="6" d="M162.5,208.272 C162.5,227.9732 162.5,239.0687 162.5,255.8428 " fill="none" id="Cache-backto-DiskLruCache" style="stroke:#181818;stroke-width:1.0;"/><polygon fill="#181818" points="162.5,196.272,158.5,202.272,162.5,208.272,166.5,202.272,162.5,196.272" style="stroke:#181818;stroke-width:1.0;"/></g><!--link CacheInterceptor to CacheStrategy--><g id="link_CacheInterceptor_CacheStrategy"><path codeLine="7" d="M316.952,55.041 C340.047,76.804 370.1452,105.1662 393.3492,127.0312 " fill="none" id="CacheInterceptor-to-CacheStrategy" style="stroke:#181818;stroke-width:1.0;"/><polygon fill="#181818" points="397.716,131.146,393.909,122.0627,394.077,127.717,388.4227,127.885,397.716,131.146" style="stroke:#181818;stroke-width:1.0;"/></g><!--link CacheStrategy to CacheControl--><g id="link_CacheStrategy_CacheControl"><path codeLine="8" d="M422.5,179.541 C422.5,201.304 422.5,227.781 422.5,249.6455 " fill="none" id="CacheStrategy-to-CacheControl" style="stroke:#181818;stroke-width:1.0;"/><polygon fill="#181818" points="422.5,255.6455,426.5,246.6455,422.5,250.6455,418.5,246.6455,422.5,255.6455" style="stroke:#181818;stroke-width:1.0;"/></g><!--SRC=[Iyv9B2vMS4vCpaXLgEPI08Bqr1ADejJ2qjJY4Yk580X34yGgBiZFAqwr1oigA0KfWeWWv83Am2P1TTbprNA1-Pvv9Qb5oQa59Vb52bgwkX1542amtoMpEDkdg1H965c7hguTH4TmIL5YIMfw9HSA3o7ld9zNKfIV0m00]--></g></svg>