<?xml version="1.0" encoding="us-ascii" standalone="no"?><svg xmlns="http://www.w3.org/2000/svg" xmlns:xlink="http://www.w3.org/1999/xlink" contentStyleType="text/css" height="94px" preserveAspectRatio="none" style="width:474px;height:94px;background:#FFFFFF;" version="1.1" viewBox="0 0 474 94" width="474px" zoomAndPan="magnify"><defs/><g><!--class DiskCacheReadProducer--><g id="elem_DiskCacheReadProducer"><rect codeLine="1" fill="#F1F1F1" height="80.5938" id="DiskCacheReadProducer" rx="2.5" ry="2.5" style="stroke:#181818;stroke-width:0.5;" width="247" x="7" y="7"/><ellipse cx="40" cy="23" fill="#ADD1B2" rx="11" ry="11" style="stroke:#181818;stroke-width:1.0;"/><path d="M42.3438,18.6719 C41.4063,18.2344 40.8125,18.0938 39.9375,18.0938 C37.3125,18.0938 35.3125,20.1719 35.3125,22.8906 L35.3125,24.0156 C35.3125,26.5938 37.4219,28.4844 40.3125,28.4844 C41.5313,28.4844 42.6875,28.1875 43.4375,27.6406 C44.0156,27.2344 44.3438,26.7813 44.3438,26.3906 C44.3438,25.9375 43.9531,25.5469 43.4844,25.5469 C43.2656,25.5469 43.0625,25.625 42.875,25.8125 C42.4219,26.2969 42.4219,26.2969 42.2344,26.3906 C41.8125,26.6563 41.125,26.7813 40.3594,26.7813 C38.3125,26.7813 37.0156,25.6875 37.0156,23.9844 L37.0156,22.8906 C37.0156,21.1094 38.2656,19.7969 40,19.7969 C40.5781,19.7969 41.1875,19.9531 41.6563,20.2031 C42.1406,20.4844 42.3125,20.7031 42.4063,21.1094 C42.4688,21.5156 42.5,21.6406 42.6406,21.7656 C42.7813,21.9063 43.0156,22.0156 43.2344,22.0156 C43.5,22.0156 43.7656,21.875 43.9375,21.6563 C44.0469,21.5 44.0781,21.3125 44.0781,20.8906 L44.0781,19.4688 C44.0781,19.0313 44.0625,18.9063 43.9688,18.75 C43.8125,18.4844 43.5313,18.3438 43.2344,18.3438 C42.9375,18.3438 42.7344,18.4375 42.5156,18.75 L42.3438,18.6719 Z " fill="#000000"/><text fill="#000000" font-family="sans-serif" font-size="14" lengthAdjust="spacing" textLength="175" x="58" y="27.8467">DiskCacheReadProducer</text><line style="stroke:#181818;stroke-width:0.5;" x1="8" x2="253" y1="39" y2="39"/><text fill="#000000" font-family="sans-serif" font-size="14" lengthAdjust="spacing" textLength="205" x="13" y="55.9951">mDefaultBufferedDiskCache</text><text fill="#000000" font-family="sans-serif" font-size="14" lengthAdjust="spacing" textLength="235" x="13" y="72.292">mSmallImageBufferedDiskCache</text><line style="stroke:#181818;stroke-width:0.5;" x1="8" x2="253" y1="79.5938" y2="79.5938"/></g><!--class BufferedDiskCache--><g id="elem_BufferedDiskCache"><rect fill="#F1F1F1" height="48" id="BufferedDiskCache" rx="2.5" ry="2.5" style="stroke:#181818;stroke-width:0.5;" width="170" x="297.5" y="23"/><ellipse cx="312.5" cy="39" fill="#ADD1B2" rx="11" ry="11" style="stroke:#181818;stroke-width:1.0;"/><path d="M314.8438,34.6719 C313.9063,34.2344 313.3125,34.0938 312.4375,34.0938 C309.8125,34.0938 307.8125,36.1719 307.8125,38.8906 L307.8125,40.0156 C307.8125,42.5938 309.9219,44.4844 312.8125,44.4844 C314.0313,44.4844 315.1875,44.1875 315.9375,43.6406 C316.5156,43.2344 316.8438,42.7813 316.8438,42.3906 C316.8438,41.9375 316.4531,41.5469 315.9844,41.5469 C315.7656,41.5469 315.5625,41.625 315.375,41.8125 C314.9219,42.2969 314.9219,42.2969 314.7344,42.3906 C314.3125,42.6563 313.625,42.7813 312.8594,42.7813 C310.8125,42.7813 309.5156,41.6875 309.5156,39.9844 L309.5156,38.8906 C309.5156,37.1094 310.7656,35.7969 312.5,35.7969 C313.0781,35.7969 313.6875,35.9531 314.1563,36.2031 C314.6406,36.4844 314.8125,36.7031 314.9063,37.1094 C314.9688,37.5156 315,37.6406 315.1406,37.7656 C315.2813,37.9063 315.5156,38.0156 315.7344,38.0156 C316,38.0156 316.2656,37.875 316.4375,37.6563 C316.5469,37.5 316.5781,37.3125 316.5781,36.8906 L316.5781,35.4688 C316.5781,35.0313 316.5625,34.9063 316.4688,34.75 C316.3125,34.4844 316.0313,34.3438 315.7344,34.3438 C315.4375,34.3438 315.2344,34.4375 315.0156,34.75 L314.8438,34.6719 Z " fill="#000000"/><text fill="#000000" font-family="sans-serif" font-size="14" lengthAdjust="spacing" textLength="138" x="326.5" y="43.8467">BufferedDiskCache</text><line style="stroke:#181818;stroke-width:0.5;" x1="298.5" x2="466.5" y1="55" y2="55"/><line style="stroke:#181818;stroke-width:0.5;" x1="298.5" x2="466.5" y1="63" y2="63"/></g><!--reverse link DiskCacheReadProducer to BufferedDiskCache--><g id="link_DiskCacheReadProducer_BufferedDiskCache"><path codeLine="5" d="M267.5,51 C281.069,51 283.457,50.7654 297.47,50.4098 " fill="none" id="DiskCacheReadProducer-backto-BufferedDiskCache" style="stroke:#181818;stroke-width:1.0;"/><polygon fill="#181818" points="255.5,51,261.5,55,267.5,51,261.5,47,255.5,51" style="stroke:#181818;stroke-width:1.0;"/></g><!--reverse link DiskCacheReadProducer to BufferedDiskCache--><g id="link_DiskCacheReadProducer_BufferedDiskCache"><path codeLine="6" d="M267.5,67 C281.122,67 283.47,65.8457 297.41,64.0918 " fill="none" id="DiskCacheReadProducer-backto-BufferedDiskCache-1" style="stroke:#181818;stroke-width:1.0;"/><polygon fill="#181818" points="255.5,67,261.5,71,267.5,67,261.5,63,255.5,67" style="stroke:#181818;stroke-width:1.0;"/></g><!--SRC=[Iyv9B2vMSCaipdPEJCv83KfDJ0aeoayfJKujKgZcKW22N9VKjCJId1AdqhIqrABK5BXQY6nmRc9EZcTkOdegfe9QBgm6MrdXD5D1IrS1qnnSfk2n6wj10000]--></g></svg>