<?xml version="1.0" encoding="us-ascii" standalone="no"?><svg xmlns="http://www.w3.org/2000/svg" xmlns:xlink="http://www.w3.org/1999/xlink" contentStyleType="text/css" height="608px" preserveAspectRatio="none" style="width:977px;height:608px;background:#FFFFFF;" version="1.1" viewBox="0 0 977 608" width="977px" zoomAndPan="magnify"><defs/><g><!--class MemoryChunkPool--><g id="elem_MemoryChunkPool"><rect codeLine="1" fill="#F1F1F1" height="48" id="MemoryChunkPool" rx="2.5" ry="2.5" style="stroke:#181818;stroke-width:0.5;" width="165" x="386" y="139"/><ellipse cx="401" cy="155" fill="#A9DCDF" rx="11" ry="11" style="stroke:#181818;stroke-width:1.0;"/><path d="M403.0781,156.8125 L403.4688,157.7969 L403.0781,157.7969 C402.625,157.7969 402.5156,157.8125 402.3594,157.9219 C402.1094,158.0781 401.9531,158.3594 401.9531,158.6563 C401.9531,158.9219 402.0938,159.1719 402.3125,159.3281 C402.4531,159.4531 402.6563,159.5 403.0781,159.5 L405.4375,159.5 C405.7969,159.5 406.0156,159.4688 406.1563,159.375 C406.4063,159.2344 406.5625,158.9375 406.5625,158.6563 C406.5625,158.375 406.4219,158.125 406.2031,157.9688 C406.0313,157.8281 405.875,157.7969 405.4063,157.7969 L402.0156,149.5938 L398.3438,149.5938 C397.8906,149.5938 397.7656,149.6094 397.6094,149.7031 C397.3594,149.875 397.2031,150.1563 397.2031,150.4375 C397.2031,150.7188 397.3438,150.9688 397.5625,151.1406 C397.7344,151.25 397.9063,151.2813 398.3438,151.2813 L399.4219,151.2813 L396.7813,157.7969 C396.3594,157.7969 396.2031,157.8125 396.0469,157.9219 C395.7969,158.0781 395.6406,158.3594 395.6406,158.6563 C395.6406,159.2188 396.0156,159.5 396.7656,159.5 L399.0313,159.5 C399.3906,159.5 399.6094,159.4688 399.7344,159.375 C400,159.2344 400.1406,158.9375 400.1406,158.6563 C400.1406,158.375 400.0156,158.125 399.7969,157.9531 C399.625,157.8281 399.4844,157.7969 399.0313,157.7969 L398.6406,157.7969 L399.0313,156.8125 L403.0781,156.8125 Z M402.375,155.1094 L399.7031,155.1094 L401.0469,151.8438 L402.375,155.1094 Z " fill="#000000"/><text fill="#000000" font-family="sans-serif" font-size="14" font-style="italic" lengthAdjust="spacing" textLength="133" x="415" y="159.8467">MemoryChunkPool</text><line style="stroke:#181818;stroke-width:0.5;" x1="387" x2="550" y1="171" y2="171"/><line style="stroke:#181818;stroke-width:0.5;" x1="387" x2="550" y1="179" y2="179"/></g><!--class BufferMemoryChunkPool--><g id="elem_BufferMemoryChunkPool"><rect fill="#F1F1F1" height="48" id="BufferMemoryChunkPool" rx="2.5" ry="2.5" style="stroke:#181818;stroke-width:0.5;" width="211" x="7" y="319"/><ellipse cx="22" cy="335" fill="#ADD1B2" rx="11" ry="11" style="stroke:#181818;stroke-width:1.0;"/><path d="M24.3438,330.6719 C23.4063,330.2344 22.8125,330.0938 21.9375,330.0938 C19.3125,330.0938 17.3125,332.1719 17.3125,334.8906 L17.3125,336.0156 C17.3125,338.5938 19.4219,340.4844 22.3125,340.4844 C23.5313,340.4844 24.6875,340.1875 25.4375,339.6406 C26.0156,339.2344 26.3438,338.7813 26.3438,338.3906 C26.3438,337.9375 25.9531,337.5469 25.4844,337.5469 C25.2656,337.5469 25.0625,337.625 24.875,337.8125 C24.4219,338.2969 24.4219,338.2969 24.2344,338.3906 C23.8125,338.6563 23.125,338.7813 22.3594,338.7813 C20.3125,338.7813 19.0156,337.6875 19.0156,335.9844 L19.0156,334.8906 C19.0156,333.1094 20.2656,331.7969 22,331.7969 C22.5781,331.7969 23.1875,331.9531 23.6563,332.2031 C24.1406,332.4844 24.3125,332.7031 24.4063,333.1094 C24.4688,333.5156 24.5,333.6406 24.6406,333.7656 C24.7813,333.9063 25.0156,334.0156 25.2344,334.0156 C25.5,334.0156 25.7656,333.875 25.9375,333.6563 C26.0469,333.5 26.0781,333.3125 26.0781,332.8906 L26.0781,331.4688 C26.0781,331.0313 26.0625,330.9063 25.9688,330.75 C25.8125,330.4844 25.5313,330.3438 25.2344,330.3438 C24.9375,330.3438 24.7344,330.4375 24.5156,330.75 L24.3438,330.6719 Z " fill="#000000"/><text fill="#000000" font-family="sans-serif" font-size="14" lengthAdjust="spacing" textLength="179" x="36" y="339.8467">BufferMemoryChunkPool</text><line style="stroke:#181818;stroke-width:0.5;" x1="8" x2="217" y1="351" y2="351"/><line style="stroke:#181818;stroke-width:0.5;" x1="8" x2="217" y1="359" y2="359"/></g><!--class BufferMemoryChunk--><g id="elem_BufferMemoryChunk"><rect fill="#F1F1F1" height="48" id="BufferMemoryChunk" rx="2.5" ry="2.5" style="stroke:#181818;stroke-width:0.5;" width="180" x="49.5" y="444"/><ellipse cx="64.5" cy="460" fill="#ADD1B2" rx="11" ry="11" style="stroke:#181818;stroke-width:1.0;"/><path d="M66.8438,455.6719 C65.9063,455.2344 65.3125,455.0938 64.4375,455.0938 C61.8125,455.0938 59.8125,457.1719 59.8125,459.8906 L59.8125,461.0156 C59.8125,463.5938 61.9219,465.4844 64.8125,465.4844 C66.0313,465.4844 67.1875,465.1875 67.9375,464.6406 C68.5156,464.2344 68.8438,463.7813 68.8438,463.3906 C68.8438,462.9375 68.4531,462.5469 67.9844,462.5469 C67.7656,462.5469 67.5625,462.625 67.375,462.8125 C66.9219,463.2969 66.9219,463.2969 66.7344,463.3906 C66.3125,463.6563 65.625,463.7813 64.8594,463.7813 C62.8125,463.7813 61.5156,462.6875 61.5156,460.9844 L61.5156,459.8906 C61.5156,458.1094 62.7656,456.7969 64.5,456.7969 C65.0781,456.7969 65.6875,456.9531 66.1563,457.2031 C66.6406,457.4844 66.8125,457.7031 66.9063,458.1094 C66.9688,458.5156 67,458.6406 67.1406,458.7656 C67.2813,458.9063 67.5156,459.0156 67.7344,459.0156 C68,459.0156 68.2656,458.875 68.4375,458.6563 C68.5469,458.5 68.5781,458.3125 68.5781,457.8906 L68.5781,456.4688 C68.5781,456.0313 68.5625,455.9063 68.4688,455.75 C68.3125,455.4844 68.0313,455.3438 67.7344,455.3438 C67.4375,455.3438 67.2344,455.4375 67.0156,455.75 L66.8438,455.6719 Z " fill="#000000"/><text fill="#000000" font-family="sans-serif" font-size="14" lengthAdjust="spacing" textLength="148" x="78.5" y="464.8467">BufferMemoryChunk</text><line style="stroke:#181818;stroke-width:0.5;" x1="50.5" x2="228.5" y1="476" y2="476"/><line style="stroke:#181818;stroke-width:0.5;" x1="50.5" x2="228.5" y1="484" y2="484"/></g><!--class AshmemMemoryChunkPool--><g id="elem_AshmemMemoryChunkPool"><rect fill="#F1F1F1" height="48" id="AshmemMemoryChunkPool" rx="2.5" ry="2.5" style="stroke:#181818;stroke-width:0.5;" width="229" x="253" y="319"/><ellipse cx="268" cy="335" fill="#ADD1B2" rx="11" ry="11" style="stroke:#181818;stroke-width:1.0;"/><path d="M270.3438,330.6719 C269.4063,330.2344 268.8125,330.0938 267.9375,330.0938 C265.3125,330.0938 263.3125,332.1719 263.3125,334.8906 L263.3125,336.0156 C263.3125,338.5938 265.4219,340.4844 268.3125,340.4844 C269.5313,340.4844 270.6875,340.1875 271.4375,339.6406 C272.0156,339.2344 272.3438,338.7813 272.3438,338.3906 C272.3438,337.9375 271.9531,337.5469 271.4844,337.5469 C271.2656,337.5469 271.0625,337.625 270.875,337.8125 C270.4219,338.2969 270.4219,338.2969 270.2344,338.3906 C269.8125,338.6563 269.125,338.7813 268.3594,338.7813 C266.3125,338.7813 265.0156,337.6875 265.0156,335.9844 L265.0156,334.8906 C265.0156,333.1094 266.2656,331.7969 268,331.7969 C268.5781,331.7969 269.1875,331.9531 269.6563,332.2031 C270.1406,332.4844 270.3125,332.7031 270.4063,333.1094 C270.4688,333.5156 270.5,333.6406 270.6406,333.7656 C270.7813,333.9063 271.0156,334.0156 271.2344,334.0156 C271.5,334.0156 271.7656,333.875 271.9375,333.6563 C272.0469,333.5 272.0781,333.3125 272.0781,332.8906 L272.0781,331.4688 C272.0781,331.0313 272.0625,330.9063 271.9688,330.75 C271.8125,330.4844 271.5313,330.3438 271.2344,330.3438 C270.9375,330.3438 270.7344,330.4375 270.5156,330.75 L270.3438,330.6719 Z " fill="#000000"/><text fill="#000000" font-family="sans-serif" font-size="14" lengthAdjust="spacing" textLength="197" x="282" y="339.8467">AshmemMemoryChunkPool</text><line style="stroke:#181818;stroke-width:0.5;" x1="254" x2="481" y1="351" y2="351"/><line style="stroke:#181818;stroke-width:0.5;" x1="254" x2="481" y1="359" y2="359"/></g><!--class NativeMemoryChunkPool--><g id="elem_NativeMemoryChunkPool"><rect fill="#F1F1F1" height="48" id="NativeMemoryChunkPool" rx="2.5" ry="2.5" style="stroke:#181818;stroke-width:0.5;" width="212" x="517.5" y="319"/><ellipse cx="532.5" cy="335" fill="#ADD1B2" rx="11" ry="11" style="stroke:#181818;stroke-width:1.0;"/><path d="M534.8438,330.6719 C533.9063,330.2344 533.3125,330.0938 532.4375,330.0938 C529.8125,330.0938 527.8125,332.1719 527.8125,334.8906 L527.8125,336.0156 C527.8125,338.5938 529.9219,340.4844 532.8125,340.4844 C534.0313,340.4844 535.1875,340.1875 535.9375,339.6406 C536.5156,339.2344 536.8438,338.7813 536.8438,338.3906 C536.8438,337.9375 536.4531,337.5469 535.9844,337.5469 C535.7656,337.5469 535.5625,337.625 535.375,337.8125 C534.9219,338.2969 534.9219,338.2969 534.7344,338.3906 C534.3125,338.6563 533.625,338.7813 532.8594,338.7813 C530.8125,338.7813 529.5156,337.6875 529.5156,335.9844 L529.5156,334.8906 C529.5156,333.1094 530.7656,331.7969 532.5,331.7969 C533.0781,331.7969 533.6875,331.9531 534.1563,332.2031 C534.6406,332.4844 534.8125,332.7031 534.9063,333.1094 C534.9688,333.5156 535,333.6406 535.1406,333.7656 C535.2813,333.9063 535.5156,334.0156 535.7344,334.0156 C536,334.0156 536.2656,333.875 536.4375,333.6563 C536.5469,333.5 536.5781,333.3125 536.5781,332.8906 L536.5781,331.4688 C536.5781,331.0313 536.5625,330.9063 536.4688,330.75 C536.3125,330.4844 536.0313,330.3438 535.7344,330.3438 C535.4375,330.3438 535.2344,330.4375 535.0156,330.75 L534.8438,330.6719 Z " fill="#000000"/><text fill="#000000" font-family="sans-serif" font-size="14" lengthAdjust="spacing" textLength="180" x="546.5" y="339.8467">NativeMemoryChunkPool</text><line style="stroke:#181818;stroke-width:0.5;" x1="518.5" x2="728.5" y1="351" y2="351"/><line style="stroke:#181818;stroke-width:0.5;" x1="518.5" x2="728.5" y1="359" y2="359"/></g><!--class NativeMemoryChunk--><g id="elem_NativeMemoryChunk"><rect fill="#F1F1F1" height="48" id="NativeMemoryChunk" rx="2.5" ry="2.5" style="stroke:#181818;stroke-width:0.5;" width="181" x="510" y="444"/><ellipse cx="525" cy="460" fill="#ADD1B2" rx="11" ry="11" style="stroke:#181818;stroke-width:1.0;"/><path d="M527.3438,455.6719 C526.4063,455.2344 525.8125,455.0938 524.9375,455.0938 C522.3125,455.0938 520.3125,457.1719 520.3125,459.8906 L520.3125,461.0156 C520.3125,463.5938 522.4219,465.4844 525.3125,465.4844 C526.5313,465.4844 527.6875,465.1875 528.4375,464.6406 C529.0156,464.2344 529.3438,463.7813 529.3438,463.3906 C529.3438,462.9375 528.9531,462.5469 528.4844,462.5469 C528.2656,462.5469 528.0625,462.625 527.875,462.8125 C527.4219,463.2969 527.4219,463.2969 527.2344,463.3906 C526.8125,463.6563 526.125,463.7813 525.3594,463.7813 C523.3125,463.7813 522.0156,462.6875 522.0156,460.9844 L522.0156,459.8906 C522.0156,458.1094 523.2656,456.7969 525,456.7969 C525.5781,456.7969 526.1875,456.9531 526.6563,457.2031 C527.1406,457.4844 527.3125,457.7031 527.4063,458.1094 C527.4688,458.5156 527.5,458.6406 527.6406,458.7656 C527.7813,458.9063 528.0156,459.0156 528.2344,459.0156 C528.5,459.0156 528.7656,458.875 528.9375,458.6563 C529.0469,458.5 529.0781,458.3125 529.0781,457.8906 L529.0781,456.4688 C529.0781,456.0313 529.0625,455.9063 528.9688,455.75 C528.8125,455.4844 528.5313,455.3438 528.2344,455.3438 C527.9375,455.3438 527.7344,455.4375 527.5156,455.75 L527.3438,455.6719 Z " fill="#000000"/><text fill="#000000" font-family="sans-serif" font-size="14" lengthAdjust="spacing" textLength="149" x="539" y="464.8467">NativeMemoryChunk</text><line style="stroke:#181818;stroke-width:0.5;" x1="511" x2="690" y1="476" y2="476"/><line style="stroke:#181818;stroke-width:0.5;" x1="511" x2="690" y1="484" y2="484"/></g><!--class MemoryChunk--><g id="elem_MemoryChunk"><rect codeLine="7" fill="#F1F1F1" height="48" id="MemoryChunk" rx="2.5" ry="2.5" style="stroke:#181818;stroke-width:0.5;" width="135" x="396" y="553"/><ellipse cx="411" cy="569" fill="#B4A7E5" rx="11" ry="11" style="stroke:#181818;stroke-width:1.0;"/><path d="M411.9531,565.7813 L413.6719,565.7813 C414.0625,565.7813 414.25,565.75 414.375,565.6719 C414.6406,565.5156 414.7813,565.2344 414.7813,564.9375 C414.7813,564.6719 414.6719,564.4063 414.4375,564.2344 C414.2656,564.125 414.125,564.0938 413.6719,564.0938 L408.5313,564.0938 C408.0938,564.0938 407.9688,564.1094 407.8125,564.2031 C407.5625,564.3594 407.4063,564.6563 407.4063,564.9375 C407.4063,565.2188 407.5469,565.4688 407.7656,565.6406 C407.9219,565.75 408.1094,565.7813 408.5313,565.7813 L410.25,565.7813 L410.25,572.2969 L408.5313,572.2969 C408.0938,572.2969 407.9688,572.3125 407.8125,572.4219 C407.5625,572.5781 407.4063,572.8594 407.4063,573.1563 C407.4063,573.4063 407.5469,573.6719 407.7656,573.8281 C407.9219,573.9531 408.125,574 408.5313,574 L413.6719,574 C414.4219,574 414.7813,573.7188 414.7813,573.1563 C414.7813,572.875 414.6719,572.625 414.4375,572.4531 C414.2656,572.3281 414.125,572.2969 413.6719,572.2969 L411.9531,572.2969 L411.9531,565.7813 Z " fill="#000000"/><text fill="#000000" font-family="sans-serif" font-size="14" font-style="italic" lengthAdjust="spacing" textLength="103" x="425" y="573.8467">MemoryChunk</text><line style="stroke:#181818;stroke-width:0.5;" x1="397" x2="530" y1="585" y2="585"/><line style="stroke:#181818;stroke-width:0.5;" x1="397" x2="530" y1="593" y2="593"/></g><!--class AshmemMemoryChunk--><g id="elem_AshmemMemoryChunk"><rect fill="#F1F1F1" height="48" id="AshmemMemoryChunk" rx="2.5" ry="2.5" style="stroke:#181818;stroke-width:0.5;" width="198" x="274.5" y="444"/><ellipse cx="289.5" cy="460" fill="#ADD1B2" rx="11" ry="11" style="stroke:#181818;stroke-width:1.0;"/><path d="M291.8438,455.6719 C290.9063,455.2344 290.3125,455.0938 289.4375,455.0938 C286.8125,455.0938 284.8125,457.1719 284.8125,459.8906 L284.8125,461.0156 C284.8125,463.5938 286.9219,465.4844 289.8125,465.4844 C291.0313,465.4844 292.1875,465.1875 292.9375,464.6406 C293.5156,464.2344 293.8438,463.7813 293.8438,463.3906 C293.8438,462.9375 293.4531,462.5469 292.9844,462.5469 C292.7656,462.5469 292.5625,462.625 292.375,462.8125 C291.9219,463.2969 291.9219,463.2969 291.7344,463.3906 C291.3125,463.6563 290.625,463.7813 289.8594,463.7813 C287.8125,463.7813 286.5156,462.6875 286.5156,460.9844 L286.5156,459.8906 C286.5156,458.1094 287.7656,456.7969 289.5,456.7969 C290.0781,456.7969 290.6875,456.9531 291.1563,457.2031 C291.6406,457.4844 291.8125,457.7031 291.9063,458.1094 C291.9688,458.5156 292,458.6406 292.1406,458.7656 C292.2813,458.9063 292.5156,459.0156 292.7344,459.0156 C293,459.0156 293.2656,458.875 293.4375,458.6563 C293.5469,458.5 293.5781,458.3125 293.5781,457.8906 L293.5781,456.4688 C293.5781,456.0313 293.5625,455.9063 293.4688,455.75 C293.3125,455.4844 293.0313,455.3438 292.7344,455.3438 C292.4375,455.3438 292.2344,455.4375 292.0156,455.75 L291.8438,455.6719 Z " fill="#000000"/><text fill="#000000" font-family="sans-serif" font-size="14" lengthAdjust="spacing" textLength="166" x="303.5" y="464.8467">AshmemMemoryChunk</text><line style="stroke:#181818;stroke-width:0.5;" x1="275.5" x2="471.5" y1="476" y2="476"/><line style="stroke:#181818;stroke-width:0.5;" x1="275.5" x2="471.5" y1="484" y2="484"/></g><!--class BasePool--><g id="elem_BasePool"><rect codeLine="13" fill="#F1F1F1" height="64.2969" id="BasePool" rx="2.5" ry="2.5" style="stroke:#181818;stroke-width:0.5;" width="373" x="383" y="10"/><ellipse cx="487.25" cy="26" fill="#A9DCDF" rx="11" ry="11" style="stroke:#181818;stroke-width:1.0;"/><path d="M489.3281,27.8125 L489.7188,28.7969 L489.3281,28.7969 C488.875,28.7969 488.7656,28.8125 488.6094,28.9219 C488.3594,29.0781 488.2031,29.3594 488.2031,29.6563 C488.2031,29.9219 488.3438,30.1719 488.5625,30.3281 C488.7031,30.4531 488.9063,30.5 489.3281,30.5 L491.6875,30.5 C492.0469,30.5 492.2656,30.4688 492.4063,30.375 C492.6563,30.2344 492.8125,29.9375 492.8125,29.6563 C492.8125,29.375 492.6719,29.125 492.4531,28.9688 C492.2813,28.8281 492.125,28.7969 491.6563,28.7969 L488.2656,20.5938 L484.5938,20.5938 C484.1406,20.5938 484.0156,20.6094 483.8594,20.7031 C483.6094,20.875 483.4531,21.1563 483.4531,21.4375 C483.4531,21.7188 483.5938,21.9688 483.8125,22.1406 C483.9844,22.25 484.1563,22.2813 484.5938,22.2813 L485.6719,22.2813 L483.0313,28.7969 C482.6094,28.7969 482.4531,28.8125 482.2969,28.9219 C482.0469,29.0781 481.8906,29.3594 481.8906,29.6563 C481.8906,30.2188 482.2656,30.5 483.0156,30.5 L485.2813,30.5 C485.6406,30.5 485.8594,30.4688 485.9844,30.375 C486.25,30.2344 486.3906,29.9375 486.3906,29.6563 C486.3906,29.375 486.2656,29.125 486.0469,28.9531 C485.875,28.8281 485.7344,28.7969 485.2813,28.7969 L484.8906,28.7969 L485.2813,27.8125 L489.3281,27.8125 Z M488.625,26.1094 L485.9531,26.1094 L487.2969,22.8438 L488.625,26.1094 Z " fill="#000000"/><text fill="#000000" font-family="sans-serif" font-size="14" font-style="italic" lengthAdjust="spacing" textLength="65" x="507.75" y="30.8467">BasePool</text><rect fill="#FFFFFF" height="15.9688" style="stroke:#181818;stroke-width:1.0;stroke-dasharray:2.0,2.0;" width="89" x="670" y="7"/><text fill="#000000" font-family="sans-serif" font-size="12" font-style="italic" lengthAdjust="spacing" textLength="87" x="671" y="19.1387">MemoryChunk</text><line style="stroke:#181818;stroke-width:0.5;" x1="384" x2="755" y1="42" y2="42"/><text fill="#000000" font-family="sans-serif" font-size="14" lengthAdjust="spacing" textLength="361" x="389" y="58.9951">SparseArray&lt;Bucket&lt;MemoryChunk&gt;&gt; mBuckets</text><line style="stroke:#181818;stroke-width:0.5;" x1="384" x2="755" y1="66.2969" y2="66.2969"/></g><!--class Bucket--><g id="elem_Bucket"><rect codeLine="19" fill="#F1F1F1" height="64.2969" id="Bucket" rx="2.5" ry="2.5" style="stroke:#181818;stroke-width:0.5;" width="258" x="626.5" y="221"/><ellipse cx="680.25" cy="237" fill="#ADD1B2" rx="11" ry="11" style="stroke:#181818;stroke-width:1.0;"/><path d="M682.5938,232.6719 C681.6563,232.2344 681.0625,232.0938 680.1875,232.0938 C677.5625,232.0938 675.5625,234.1719 675.5625,236.8906 L675.5625,238.0156 C675.5625,240.5938 677.6719,242.4844 680.5625,242.4844 C681.7813,242.4844 682.9375,242.1875 683.6875,241.6406 C684.2656,241.2344 684.5938,240.7813 684.5938,240.3906 C684.5938,239.9375 684.2031,239.5469 683.7344,239.5469 C683.5156,239.5469 683.3125,239.625 683.125,239.8125 C682.6719,240.2969 682.6719,240.2969 682.4844,240.3906 C682.0625,240.6563 681.375,240.7813 680.6094,240.7813 C678.5625,240.7813 677.2656,239.6875 677.2656,237.9844 L677.2656,236.8906 C677.2656,235.1094 678.5156,233.7969 680.25,233.7969 C680.8281,233.7969 681.4375,233.9531 681.9063,234.2031 C682.3906,234.4844 682.5625,234.7031 682.6563,235.1094 C682.7188,235.5156 682.75,235.6406 682.8906,235.7656 C683.0313,235.9063 683.2656,236.0156 683.4844,236.0156 C683.75,236.0156 684.0156,235.875 684.1875,235.6563 C684.2969,235.5 684.3281,235.3125 684.3281,234.8906 L684.3281,233.4688 C684.3281,233.0313 684.3125,232.9063 684.2188,232.75 C684.0625,232.4844 683.7813,232.3438 683.4844,232.3438 C683.1875,232.3438 682.9844,232.4375 682.7656,232.75 L682.5938,232.6719 Z " fill="#000000"/><text fill="#000000" font-family="sans-serif" font-size="14" lengthAdjust="spacing" textLength="51" x="700.75" y="241.8467">Bucket</text><rect fill="#FFFFFF" height="15.9688" style="stroke:#181818;stroke-width:1.0;stroke-dasharray:2.0,2.0;" width="89" x="798.5" y="218"/><text fill="#000000" font-family="sans-serif" font-size="12" font-style="italic" lengthAdjust="spacing" textLength="87" x="799.5" y="230.1387">MemoryChunk</text><line style="stroke:#181818;stroke-width:0.5;" x1="627.5" x2="883.5" y1="253" y2="253"/><text fill="#000000" font-family="sans-serif" font-size="14" lengthAdjust="spacing" textLength="246" x="632.5" y="269.9951">Queue&lt;MemoryChunk&gt; mFreeList</text><line style="stroke:#181818;stroke-width:0.5;" x1="627.5" x2="883.5" y1="277.2969" y2="277.2969"/></g><!--link BufferMemoryChunkPool to BufferMemoryChunk--><g id="link_BufferMemoryChunkPool_BufferMemoryChunk"><path codeLine="2" d="M117.578,367.135 C122.406,389.126 128.3387,416.1515 133.1577,438.1075 " fill="none" id="BufferMemoryChunkPool-to-BufferMemoryChunk" style="stroke:#181818;stroke-width:1.0;"/><polygon fill="#181818" points="134.444,443.968,136.4216,434.3197,133.3721,439.0842,128.6076,436.0348,134.444,443.968" style="stroke:#181818;stroke-width:1.0;"/><text fill="#000000" font-family="sans-serif" font-size="13" lengthAdjust="spacing" textLength="27" x="129.5" y="410.0669">new</text></g><!--reverse link MemoryChunkPool to BufferMemoryChunkPool--><g id="link_MemoryChunkPool_BufferMemoryChunkPool"><path codeLine="3" d="M406.2243,195.1378 C337.9313,229.2838 226.84,284.83 158.594,318.953 " fill="none" id="MemoryChunkPool-backto-BufferMemoryChunkPool" style="stroke:#181818;stroke-width:1.0;"/><polygon fill="none" points="422.324,187.088,403.541,189.7712,408.9075,200.5043,422.324,187.088" style="stroke:#181818;stroke-width:1.0;"/></g><!--reverse link MemoryChunkPool to AshmemMemoryChunkPool--><g id="link_MemoryChunkPool_AshmemMemoryChunkPool"><path codeLine="4" d="M446.4128,202.9253 C427.0558,237.0393 400.066,284.607 380.707,318.724 " fill="none" id="MemoryChunkPool-backto-AshmemMemoryChunkPool" style="stroke:#181818;stroke-width:1.0;"/><polygon fill="none" points="455.296,187.27,441.1944,199.9643,451.6313,205.8864,455.296,187.27" style="stroke:#181818;stroke-width:1.0;"/></g><!--reverse link MemoryChunkPool to NativeMemoryChunkPool--><g id="link_MemoryChunkPool_NativeMemoryChunkPool"><path codeLine="5" d="M500.5844,200.8449 C530.2894,234.9589 573.523,284.607 603.231,318.724 " fill="none" id="MemoryChunkPool-backto-NativeMemoryChunkPool" style="stroke:#181818;stroke-width:1.0;"/><polygon fill="none" points="488.764,187.27,496.0595,204.785,505.1094,196.9047,488.764,187.27" style="stroke:#181818;stroke-width:1.0;"/></g><!--link NativeMemoryChunkPool to NativeMemoryChunk--><g id="link_NativeMemoryChunkPool_NativeMemoryChunk"><path codeLine="6" d="M619.174,367.135 C615.062,389.126 610.0147,416.1142 605.9097,438.0702 " fill="none" id="NativeMemoryChunkPool-to-NativeMemoryChunk" style="stroke:#181818;stroke-width:1.0;"/><polygon fill="#181818" points="604.807,443.968,610.3929,435.8564,605.7259,439.0532,602.5292,434.3862,604.807,443.968" style="stroke:#181818;stroke-width:1.0;"/><text fill="#000000" font-family="sans-serif" font-size="13" lengthAdjust="spacing" textLength="27" x="614.5" y="410.0669">new</text></g><!--link NativeMemoryChunk to MemoryChunk--><g id="link_NativeMemoryChunk_MemoryChunk"><path codeLine="8" d="M570.773,492.217 C547.794,510.1649 530.32,523.8122 507.355,541.7483 " fill="none" id="NativeMemoryChunk-to-MemoryChunk" style="stroke:#181818;stroke-width:1.0;"/><polygon fill="none" points="493.169,552.8279,511.0482,546.477,503.6618,537.0197,493.169,552.8279" style="stroke:#181818;stroke-width:1.0;"/></g><!--link BufferMemoryChunk to MemoryChunk--><g id="link_BufferMemoryChunk_MemoryChunk"><path codeLine="9" d="M209.404,492.086 C264.655,510.3321 324.2149,530.0016 378.8479,548.044 " fill="none" id="BufferMemoryChunk-to-MemoryChunk" style="stroke:#181818;stroke-width:1.0;"/><polygon fill="none" points="395.94,553.6886,380.7295,542.3466,376.9664,553.7413,395.94,553.6886" style="stroke:#181818;stroke-width:1.0;"/></g><!--link AshmemMemoryChunkPool to AshmemMemoryChunk--><g id="link_AshmemMemoryChunkPool_AshmemMemoryChunk"><path codeLine="10" d="M368.629,367.135 C369.701,389.126 371.0124,416.0191 372.0844,437.9751 " fill="none" id="AshmemMemoryChunkPool-to-AshmemMemoryChunk" style="stroke:#181818;stroke-width:1.0;"/><polygon fill="#181818" points="372.377,443.968,375.9333,434.7836,372.1332,438.9739,367.9429,435.1738,372.377,443.968" style="stroke:#181818;stroke-width:1.0;"/><text fill="#000000" font-family="sans-serif" font-size="13" lengthAdjust="spacing" textLength="27" x="372.5" y="410.0669">new</text></g><!--link AshmemMemoryChunk to MemoryChunk--><g id="link_AshmemMemoryChunk_MemoryChunk"><path codeLine="11" d="M393.029,492.217 C408.125,510.1649 417.3367,521.1166 432.4227,539.0527 " fill="none" id="AshmemMemoryChunk-to-MemoryChunk" style="stroke:#181818;stroke-width:1.0;"/><polygon fill="none" points="444.009,552.8279,437.0144,535.1906,427.8309,542.9148,444.009,552.8279" style="stroke:#181818;stroke-width:1.0;"/></g><!--reverse link BasePool to MemoryChunkPool--><g id="link_BasePool_MemoryChunkPool"><path codeLine="16" d="M528.0954,91.7835 C511.4534,111.3915 502.822,121.562 488.161,138.835 " fill="none" id="BasePool-backto-MemoryChunkPool" style="stroke:#181818;stroke-width:1.0;"/><polygon fill="none" points="539.743,78.06,523.5209,87.9009,532.6699,95.666,539.743,78.06" style="stroke:#181818;stroke-width:1.0;"/></g><!--reverse link BasePool to Bucket--><g id="link_BasePool_Bucket"><path codeLine="22" d="M769.5,54 C833.785,54 791.086,159.65 769.868,216.602 " fill="none" id="BasePool-backto-Bucket" style="stroke:#181818;stroke-width:1.0;"/><polygon fill="#181818" points="757.5,54,763.5,58,769.5,54,763.5,50,757.5,54" style="stroke:#181818;stroke-width:1.0;"/><text fill="#000000" font-family="sans-serif" font-size="13" lengthAdjust="spacing" textLength="8" x="763.8" y="51.2119">1</text><text fill="#000000" font-family="sans-serif" font-size="13" lengthAdjust="spacing" textLength="8" x="762.759" y="209.8894">n</text></g><!--reverse link Bucket to MemoryChunk--><g id="link_Bucket_MemoryChunk"><path codeLine="23" d="M897.5,265 C922.835,265 970.476,315.296 708.5,492 C654.447,528.459 583.026,550.5653 531.253,562.8812 " fill="none" id="Bucket-backto-MemoryChunk" style="stroke:#181818;stroke-width:1.0;"/><polygon fill="#181818" points="885.5,265,891.5,269,897.5,265,891.5,261,885.5,265" style="stroke:#181818;stroke-width:1.0;"/><text fill="#000000" font-family="sans-serif" font-size="13" lengthAdjust="spacing" textLength="8" x="892.4094" y="262.2947">1</text><text fill="#000000" font-family="sans-serif" font-size="13" lengthAdjust="spacing" textLength="8" x="539.101" y="557.5908">n</text></g><!--SRC=[ZPBFYi8m48VlynH3ZmivU2sbO1SygQpi4yoMAHPDA_cp8kgxRxGDj9qSDfV2_BvyCqbAFzOPgXtMPx8MTwnxS_iy-kxqrVTdg7pJi5bKKQaIHO8vTdo59LiybCAa9eskxL6p_XUw9zV-yX9DLjyZYsGSkUqScuPgdXvVUeBZKSuGUGS2IHxdFOr8ncbaNKY1ugjLPFbbB2PnYNV0iBulP2olZQ5RKVdwn6v6bQY7geMdk5_bBw-cKGy0m_-Hy8pT3fuzpmEzCSpRrhhG89hoF7R5R9NXHtZ6hCj6BmoVmCITCsWY_mC0]--></g></svg>