<?xml version="1.0" encoding="us-ascii" standalone="no"?><svg xmlns="http://www.w3.org/2000/svg" xmlns:xlink="http://www.w3.org/1999/xlink" contentStyleType="text/css" height="955px" preserveAspectRatio="none" style="width:1004px;height:955px;background:#FFFFFF;" version="1.1" viewBox="0 0 1004 955" width="1004px" zoomAndPan="magnify"><defs/><g><rect fill="#F0F8FF" height="943.9141" style="stroke:#181818;stroke-width:0.5;" width="470" x="75.5" y="6"/><text fill="#000000" font-family="sans-serif" font-size="13" font-weight="bold" lengthAdjust="spacing" textLength="32" x="292" y="18.0669">AMS</text><rect fill="#F0F0F0" height="943.9141" style="stroke:#181818;stroke-width:0.5;" width="450.5" x="547.5" y="6"/><text fill="#000000" font-family="sans-serif" font-size="13" font-weight="bold" lengthAdjust="spacing" textLength="30" x="755.25" y="18.0669">APP</text><rect fill="#FFFFFF" height="274.0625" style="stroke:#181818;stroke-width:1.0;" width="10" x="133" y="87.5625"/><rect fill="#FFBBBB" height="236.9297" style="stroke:#181818;stroke-width:1.0;" width="10" x="138" y="124.6953"/><rect fill="#FFFFFF" height="137.5313" style="stroke:#181818;stroke-width:1.0;" width="10" x="143" y="224.0938"/><rect fill="#FFFFFF" height="74.2656" style="stroke:#181818;stroke-width:1.0;" width="10" x="335" y="331.625"/><rect fill="#FFFFFF" height="68.1328" style="stroke:#181818;stroke-width:1.0;" width="10" x="476" y="838.4844"/><rect fill="#FFFFFF" height="85.2656" style="stroke:#181818;stroke-width:1.0;" width="10" x="606.5" y="443.0234"/><rect fill="#FFFFFF" height="34.1328" style="stroke:#181818;stroke-width:1.0;" width="10" x="606.5" y="572.4219"/><rect fill="#FFFFFF" height="29.1328" style="stroke:#181818;stroke-width:1.0;" width="10" x="606.5" y="692.9531"/><rect fill="#FFFFFF" height="261.9297" style="stroke:#181818;stroke-width:1.0;" width="10" x="787.5" y="606.5547"/><rect fill="#FFFFFF" height="63.2656" style="stroke:#181818;stroke-width:1.0;" width="10" x="792.5" y="658.8203"/><rect fill="#FFFFFF" height="94.1328" style="stroke:#181818;stroke-width:1.0;" width="10" x="792.5" y="774.3516"/><line style="stroke:#181818;stroke-width:0.5;stroke-dasharray:5.0,5.0;" x1="137.5" x2="137.5" y1="56.4297" y2="915.6172"/><line style="stroke:#181818;stroke-width:0.5;stroke-dasharray:5.0,5.0;" x1="339.5" x2="339.5" y1="56.4297" y2="915.6172"/><line style="stroke:#181818;stroke-width:0.5;stroke-dasharray:5.0,5.0;" x1="480.5" x2="480.5" y1="56.4297" y2="915.6172"/><line style="stroke:#181818;stroke-width:0.5;stroke-dasharray:5.0,5.0;" x1="611.5" x2="611.5" y1="56.4297" y2="915.6172"/><line style="stroke:#181818;stroke-width:0.5;stroke-dasharray:5.0,5.0;" x1="792.5" x2="792.5" y1="56.4297" y2="915.6172"/><line style="stroke:#181818;stroke-width:0.5;stroke-dasharray:5.0,5.0;" x1="942" x2="942" y1="56.4297" y2="915.6172"/><rect fill="#E2E2F0" height="30.2969" rx="2.5" ry="2.5" style="stroke:#181818;stroke-width:0.5;" width="117" x="79.5" y="25.1328"/><text fill="#000000" font-family="sans-serif" font-size="14" lengthAdjust="spacing" textLength="103" x="86.5" y="45.1279">TaskFragment</text><rect fill="#E2E2F0" height="30.2969" rx="2.5" ry="2.5" style="stroke:#181818;stroke-width:0.5;" width="117" x="79.5" y="914.6172"/><text fill="#000000" font-family="sans-serif" font-size="14" lengthAdjust="spacing" textLength="103" x="86.5" y="934.6123">TaskFragment</text><rect fill="#E2E2F0" height="30.2969" rx="2.5" ry="2.5" style="stroke:#181818;stroke-width:0.5;" width="141" x="269.5" y="25.1328"/><text fill="#000000" font-family="sans-serif" font-size="14" lengthAdjust="spacing" textLength="127" x="276.5" y="45.1279">ClientTransaction</text><rect fill="#E2E2F0" height="30.2969" rx="2.5" ry="2.5" style="stroke:#181818;stroke-width:0.5;" width="141" x="269.5" y="914.6172"/><text fill="#000000" font-family="sans-serif" font-size="14" lengthAdjust="spacing" textLength="127" x="276.5" y="934.6123">ClientTransaction</text><rect fill="#E2E2F0" height="30.2969" rx="2.5" ry="2.5" style="stroke:#181818;stroke-width:0.5;" width="121" x="420.5" y="25.1328"/><text fill="#000000" font-family="sans-serif" font-size="14" lengthAdjust="spacing" textLength="107" x="427.5" y="45.1279">ActivityRecord</text><rect fill="#E2E2F0" height="30.2969" rx="2.5" ry="2.5" style="stroke:#181818;stroke-width:0.5;" width="121" x="420.5" y="914.6172"/><text fill="#000000" font-family="sans-serif" font-size="14" lengthAdjust="spacing" textLength="107" x="427.5" y="934.6123">ActivityRecord</text><rect fill="#E2E2F0" height="30.2969" rx="2.5" ry="2.5" style="stroke:#181818;stroke-width:0.5;" width="120" x="551.5" y="25.1328"/><text fill="#000000" font-family="sans-serif" font-size="14" lengthAdjust="spacing" textLength="106" x="558.5" y="45.1279">ActivityThread</text><rect fill="#E2E2F0" height="30.2969" rx="2.5" ry="2.5" style="stroke:#181818;stroke-width:0.5;" width="120" x="551.5" y="914.6172"/><text fill="#000000" font-family="sans-serif" font-size="14" lengthAdjust="spacing" textLength="106" x="558.5" y="934.6123">ActivityThread</text><rect fill="#E2E2F0" height="30.2969" rx="2.5" ry="2.5" style="stroke:#181818;stroke-width:0.5;" width="162" x="711.5" y="25.1328"/><text fill="#000000" font-family="sans-serif" font-size="14" lengthAdjust="spacing" textLength="148" x="718.5" y="45.1279">TransactionExecutor</text><rect fill="#E2E2F0" height="30.2969" rx="2.5" ry="2.5" style="stroke:#181818;stroke-width:0.5;" width="162" x="711.5" y="914.6172"/><text fill="#000000" font-family="sans-serif" font-size="14" lengthAdjust="spacing" textLength="148" x="718.5" y="934.6123">TransactionExecutor</text><rect fill="#E2E2F0" height="30.2969" rx="2.5" ry="2.5" style="stroke:#181818;stroke-width:0.5;" width="103" x="891" y="25.1328"/><text fill="#000000" font-family="sans-serif" font-size="14" lengthAdjust="spacing" textLength="89" x="898" y="45.1279">MainActivity</text><rect fill="#E2E2F0" height="30.2969" rx="2.5" ry="2.5" style="stroke:#181818;stroke-width:0.5;" width="103" x="891" y="914.6172"/><text fill="#000000" font-family="sans-serif" font-size="14" lengthAdjust="spacing" textLength="89" x="898" y="934.6123">MainActivity</text><rect fill="#FFFFFF" height="274.0625" style="stroke:#181818;stroke-width:1.0;" width="10" x="133" y="87.5625"/><rect fill="#FFBBBB" height="236.9297" style="stroke:#181818;stroke-width:1.0;" width="10" x="138" y="124.6953"/><rect fill="#FFFFFF" height="137.5313" style="stroke:#181818;stroke-width:1.0;" width="10" x="143" y="224.0938"/><rect fill="#FFFFFF" height="74.2656" style="stroke:#181818;stroke-width:1.0;" width="10" x="335" y="331.625"/><rect fill="#FFFFFF" height="68.1328" style="stroke:#181818;stroke-width:1.0;" width="10" x="476" y="838.4844"/><rect fill="#FFFFFF" height="85.2656" style="stroke:#181818;stroke-width:1.0;" width="10" x="606.5" y="443.0234"/><rect fill="#FFFFFF" height="34.1328" style="stroke:#181818;stroke-width:1.0;" width="10" x="606.5" y="572.4219"/><rect fill="#FFFFFF" height="29.1328" style="stroke:#181818;stroke-width:1.0;" width="10" x="606.5" y="692.9531"/><rect fill="#FFFFFF" height="261.9297" style="stroke:#181818;stroke-width:1.0;" width="10" x="787.5" y="606.5547"/><rect fill="#FFFFFF" height="63.2656" style="stroke:#181818;stroke-width:1.0;" width="10" x="792.5" y="658.8203"/><rect fill="#FFFFFF" height="94.1328" style="stroke:#181818;stroke-width:1.0;" width="10" x="792.5" y="774.3516"/><ellipse cx="7.5" cy="86.8125" fill="none" rx="4" ry="4" style="stroke:#181818;stroke-width:1.5;"/><polygon fill="#181818" points="121,83.5625,131,87.5625,121,91.5625,125,87.5625" style="stroke:#181818;stroke-width:1.0;"/><line style="stroke:#181818;stroke-width:1.0;" x1="12" x2="127" y1="87.5625" y2="87.5625"/><text fill="#000000" font-family="sans-serif" font-size="13" lengthAdjust="spacing" textLength="106" x="10" y="82.4966">&#9313; startPausing()</text><line style="stroke:#181818;stroke-width:1.0;" x1="143" x2="190" y1="111.6953" y2="111.6953"/><line style="stroke:#181818;stroke-width:1.0;" x1="190" x2="190" y1="111.6953" y2="124.6953"/><line style="stroke:#181818;stroke-width:1.0;" x1="149" x2="190" y1="124.6953" y2="124.6953"/><polygon fill="#181818" points="159,120.6953,149,124.6953,159,128.6953,155,124.6953" style="stroke:#181818;stroke-width:1.0;"/><text fill="#000000" font-family="sans-serif" font-size="13" lengthAdjust="spacing" textLength="144" x="155" y="106.6294">schedulePauseActivity</text><line style="stroke:#181818;stroke-width:1.0;" x1="148" x2="190" y1="158.8281" y2="158.8281"/><line style="stroke:#181818;stroke-width:1.0;" x1="190" x2="190" y1="158.8281" y2="171.8281"/><line style="stroke:#181818;stroke-width:1.0;" x1="149" x2="190" y1="171.8281" y2="171.8281"/><polygon fill="#181818" points="159,167.8281,149,171.8281,159,175.8281,155,171.8281" style="stroke:#181818;stroke-width:1.0;"/><text fill="#000000" font-family="sans-serif" font-size="13" lengthAdjust="spacing" textLength="170" x="155" y="153.7622">PauseActivityItem.obtain()</text><line style="stroke:#181818;stroke-width:1.0;" x1="148" x2="195" y1="211.0938" y2="211.0938"/><line style="stroke:#181818;stroke-width:1.0;" x1="195" x2="195" y1="211.0938" y2="224.0938"/><line style="stroke:#181818;stroke-width:1.0;" x1="154" x2="195" y1="224.0938" y2="224.0938"/><polygon fill="#181818" points="164,220.0938,154,224.0938,164,228.0938,160,224.0938" style="stroke:#181818;stroke-width:1.0;"/><text fill="#000000" font-family="sans-serif" font-size="13" lengthAdjust="spacing" textLength="151" x="160" y="190.895">ClientLifecycleManager.</text><text fill="#000000" font-family="sans-serif" font-size="13" lengthAdjust="spacing" textLength="132" x="164" y="206.0278">scheduleTransaction</text><polygon fill="#181818" points="328,254.2266,338,258.2266,328,262.2266,332,258.2266" style="stroke:#181818;stroke-width:1.0;"/><line style="stroke:#181818;stroke-width:1.0;" x1="153" x2="334" y1="258.2266" y2="258.2266"/><text fill="#000000" font-family="sans-serif" font-size="13" lengthAdjust="spacing" textLength="40" x="283" y="253.1606">obtain</text><polygon fill="#181818" points="328,298.4922,338,302.4922,328,306.4922,332,302.4922" style="stroke:#181818;stroke-width:1.0;"/><line style="stroke:#181818;stroke-width:1.0;" x1="153" x2="334" y1="302.4922" y2="302.4922"/><text fill="#000000" font-family="sans-serif" font-size="13" lengthAdjust="spacing" textLength="163" x="160" y="282.2935">setLifecycleStateRequest</text><text fill="#000000" font-family="sans-serif" font-size="13" lengthAdjust="spacing" textLength="126" x="160" y="297.4263">(PauseActivityItem)</text><polygon fill="#181818" points="323,327.625,333,331.625,323,335.625,327,331.625" style="stroke:#181818;stroke-width:1.0;"/><line style="stroke:#181818;stroke-width:1.0;" x1="153" x2="329" y1="331.625" y2="331.625"/><text fill="#000000" font-family="sans-serif" font-size="13" lengthAdjust="spacing" textLength="67" x="251" y="326.5591">schedule()</text><polygon fill="#181818" points="599.5,401.8906,609.5,405.8906,599.5,409.8906,603.5,405.8906" style="stroke:#181818;stroke-width:1.0;"/><line style="stroke:#181818;stroke-width:1.0;" x1="340" x2="605.5" y1="405.8906" y2="405.8906"/><text fill="#000000" font-family="sans-serif" font-size="13" lengthAdjust="spacing" textLength="136" x="429.5" y="385.6919">[ApplicationThread]&#8594;</text><text fill="#000000" font-family="sans-serif" font-size="13" lengthAdjust="spacing" textLength="165" x="429.5" y="400.8247">scheduleTransaction(this)</text><line style="stroke:#181818;stroke-width:1.0;" x1="616.5" x2="658.5" y1="435.0234" y2="435.0234"/><line style="stroke:#181818;stroke-width:1.0;" x1="658.5" x2="658.5" y1="435.0234" y2="448.0234"/><line style="stroke:#181818;stroke-width:1.0;" x1="617.5" x2="658.5" y1="448.0234" y2="448.0234"/><polygon fill="#181818" points="627.5,444.0234,617.5,448.0234,627.5,452.0234,623.5,448.0234" style="stroke:#181818;stroke-width:1.0;"/><text fill="#000000" font-family="sans-serif" font-size="13" lengthAdjust="spacing" textLength="132" x="623.5" y="429.9575">scheduleTransaction</text><line style="stroke:#181818;stroke-width:1.0;" x1="616.5" x2="658.5" y1="527.2891" y2="527.2891"/><line style="stroke:#181818;stroke-width:1.0;" x1="658.5" x2="658.5" y1="527.2891" y2="540.2891"/><line style="stroke:#181818;stroke-width:1.0;" x1="611.5" x2="658.5" y1="540.2891" y2="540.2891"/><polygon fill="#181818" points="621.5,536.2891,611.5,540.2891,621.5,544.2891,617.5,540.2891" style="stroke:#181818;stroke-width:1.0;"/><text fill="#000000" font-family="sans-serif" font-size="13" lengthAdjust="spacing" textLength="92" x="623.5" y="507.0903">sendMessage:</text><text fill="#000000" font-family="sans-serif" font-size="13" lengthAdjust="spacing" textLength="157" x="623.5" y="522.2231">EXECUTE_TRANSACTION</text><line style="stroke:#181818;stroke-width:1.0;" x1="611.5" x2="658.5" y1="559.4219" y2="559.4219"/><line style="stroke:#181818;stroke-width:1.0;" x1="658.5" x2="658.5" y1="559.4219" y2="572.4219"/><line style="stroke:#181818;stroke-width:1.0;" x1="617.5" x2="658.5" y1="572.4219" y2="572.4219"/><polygon fill="#181818" points="627.5,568.4219,617.5,572.4219,627.5,576.4219,623.5,572.4219" style="stroke:#181818;stroke-width:1.0;"/><text fill="#000000" font-family="sans-serif" font-size="13" lengthAdjust="spacing" textLength="109" x="623.5" y="554.356">handleMessage()</text><polygon fill="#181818" points="775.5,602.5547,785.5,606.5547,775.5,610.5547,779.5,606.5547" style="stroke:#181818;stroke-width:1.0;"/><line style="stroke:#181818;stroke-width:1.0;" x1="611.5" x2="781.5" y1="606.5547" y2="606.5547"/><text fill="#000000" font-family="sans-serif" font-size="13" lengthAdjust="spacing" textLength="134" x="636.5" y="601.4888">execute(transaction)</text><line style="stroke:#181818;stroke-width:1.0;" x1="797.5" x2="844.5" y1="645.8203" y2="645.8203"/><line style="stroke:#181818;stroke-width:1.0;" x1="844.5" x2="844.5" y1="645.8203" y2="658.8203"/><line style="stroke:#181818;stroke-width:1.0;" x1="803.5" x2="844.5" y1="658.8203" y2="658.8203"/><polygon fill="#181818" points="813.5,654.8203,803.5,658.8203,813.5,662.8203,809.5,658.8203" style="stroke:#181818;stroke-width:1.0;"/><text fill="#000000" font-family="sans-serif" font-size="13" lengthAdjust="spacing" textLength="126" x="809.5" y="625.6216">[PauseActivityItem]</text><text fill="#000000" font-family="sans-serif" font-size="13" lengthAdjust="spacing" textLength="73" x="809.5" y="640.7544">&#8594;execute()</text><polygon fill="#181818" points="627.5,688.9531,617.5,692.9531,627.5,696.9531,623.5,692.9531" style="stroke:#181818;stroke-width:1.0;"/><line style="stroke:#181818;stroke-width:1.0;" x1="621.5" x2="791.5" y1="692.9531" y2="692.9531"/><text fill="#000000" font-family="sans-serif" font-size="13" lengthAdjust="spacing" textLength="130" x="633.5" y="687.8872">handlePauseActivity</text><polygon fill="#181818" points="930.5,718.0859,940.5,722.0859,930.5,726.0859,934.5,722.0859" style="stroke:#181818;stroke-width:1.0;"/><line style="stroke:#181818;stroke-width:1.0;" x1="611.5" x2="936.5" y1="722.0859" y2="722.0859"/><text fill="#000000" font-family="sans-serif" font-size="13" lengthAdjust="spacing" textLength="65" x="860.5" y="717.02">onPause()</text><line style="stroke:#181818;stroke-width:1.0;" x1="802.5" x2="844.5" y1="766.3516" y2="766.3516"/><line style="stroke:#181818;stroke-width:1.0;" x1="844.5" x2="844.5" y1="766.3516" y2="779.3516"/><line style="stroke:#181818;stroke-width:1.0;" x1="803.5" x2="844.5" y1="779.3516" y2="779.3516"/><polygon fill="#181818" points="813.5,775.3516,803.5,779.3516,813.5,783.3516,809.5,779.3516" style="stroke:#181818;stroke-width:1.0;"/><text fill="#000000" font-family="sans-serif" font-size="13" lengthAdjust="spacing" textLength="126" x="809.5" y="746.1528">[PauseActivityItem]</text><text fill="#000000" font-family="sans-serif" font-size="13" lengthAdjust="spacing" textLength="91" x="809.5" y="761.2856">&#8594;postExecute</text><polygon fill="#181818" points="497,834.4844,487,838.4844,497,842.4844,493,838.4844" style="stroke:#181818;stroke-width:1.0;"/><line style="stroke:#181818;stroke-width:1.0;" x1="491" x2="791.5" y1="838.4844" y2="838.4844"/><text fill="#000000" font-family="sans-serif" font-size="13" lengthAdjust="spacing" textLength="94" x="503" y="833.4185">activityPaused</text><polygon fill="#181818" points="149,893.6172,139,897.6172,149,901.6172,145,897.6172" style="stroke:#181818;stroke-width:1.0;"/><line style="stroke:#181818;stroke-width:1.0;" x1="143" x2="475" y1="897.6172" y2="897.6172"/><text fill="#000000" font-family="sans-serif" font-size="13" lengthAdjust="spacing" textLength="115" x="155" y="892.5513">&#9314; completePause</text><!--SRC=[hLJDJkCm4BxdAInnIOMAEA8UaBAbaP0eL6rMGceG6foXjKZjOBi8Ne3xyWRBe_4aZ1EovA-RhhJ99R5dllc-ppCs3q9ce67333vkKNASeZ6mmY0LAyaqFg4sU2OqSYkKzExKCmkc2tOG7eSdOUWjrV2KHM0UGWsh3KhB3Wz7xEFNRsOiQ3k3hH5ovG-yMampPyGCNsEoJT4bO42rdeHzyS1zWCLwz44O_g2d3x86TMvnSwJkB0ZPHyO96AU2FY_4FV8Ndk8K95cYZsBvXsYaGHeeJ6d25TcL269JrDuhrE1tvOKb-NDtDCR6qczf6ko1w0ILj4byWfss_lCwjOqLN6H0TKjAS-HA9nxAX56dU4Mxp6Pvkz3hjSaHup8vMck4X0s78xOCiYmL75n8iNppyVeMomxtVRiMPk0rGLgmLHUgXxTBNY-Wusb8wTV0Z5Wi9zUJySzeSXlDWyj5C8xEhoxt8xO6cQJbwFbTQYgK9y_8jrPfOk1oCVz5ttv7K5TqXNUZE8nbgx5kOacEbzWx0NTggGzoMy-Kfg5SpQrKCazfD6Yxwl-IbYbZYq2iLgmp_SjEZo759EGCu6if9vBqoUlPhezMvIPk56xSQkvEVcTSRR8KRN4u9TGd]--></g></svg>