<?xml version="1.0" encoding="us-ascii" standalone="no"?><svg xmlns="http://www.w3.org/2000/svg" xmlns:xlink="http://www.w3.org/1999/xlink" contentStyleType="text/css" height="389px" preserveAspectRatio="none" style="width:961px;height:389px;background:#FFFFFF;" version="1.1" viewBox="0 0 961 389" width="961px" zoomAndPan="magnify"><defs/><g><!--class MemoryCache--><g id="elem_MemoryCache"><rect codeLine="1" fill="#F1F1F1" height="48" id="MemoryCache" rx="2.5" ry="2.5" style="stroke:#181818;stroke-width:0.5;" width="308" x="158" y="118"/><ellipse cx="173" cy="134" fill="#B4A7E5" rx="11" ry="11" style="stroke:#181818;stroke-width:1.0;"/><path d="M173.9531,130.7813 L175.6719,130.7813 C176.0625,130.7813 176.25,130.75 176.375,130.6719 C176.6406,130.5156 176.7813,130.2344 176.7813,129.9375 C176.7813,129.6719 176.6719,129.4063 176.4375,129.2344 C176.2656,129.125 176.125,129.0938 175.6719,129.0938 L170.5313,129.0938 C170.0938,129.0938 169.9688,129.1094 169.8125,129.2031 C169.5625,129.3594 169.4063,129.6563 169.4063,129.9375 C169.4063,130.2188 169.5469,130.4688 169.7656,130.6406 C169.9219,130.75 170.1094,130.7813 170.5313,130.7813 L172.25,130.7813 L172.25,137.2969 L170.5313,137.2969 C170.0938,137.2969 169.9688,137.3125 169.8125,137.4219 C169.5625,137.5781 169.4063,137.8594 169.4063,138.1563 C169.4063,138.4063 169.5469,138.6719 169.7656,138.8281 C169.9219,138.9531 170.125,139 170.5313,139 L175.6719,139 C176.4219,139 176.7813,138.7188 176.7813,138.1563 C176.7813,137.875 176.6719,137.625 176.4375,137.4531 C176.2656,137.3281 176.125,137.2969 175.6719,137.2969 L173.9531,137.2969 L173.9531,130.7813 Z " fill="#000000"/><text fill="#000000" font-family="sans-serif" font-size="14" font-style="italic" lengthAdjust="spacing" textLength="103" x="187" y="138.8467">MemoryCache</text><rect fill="#FFFFFF" height="15.9688" style="stroke:#181818;stroke-width:1.0;stroke-dasharray:2.0,2.0;" width="171" x="298" y="115"/><text fill="#000000" font-family="sans-serif" font-size="12" font-style="italic" lengthAdjust="spacing" textLength="169" x="299" y="127.1387">CacheKey, PooledByteBuffer</text><line style="stroke:#181818;stroke-width:0.5;" x1="159" x2="465" y1="150" y2="150"/><line style="stroke:#181818;stroke-width:0.5;" x1="159" x2="465" y1="158" y2="158"/></g><!--class Producer--><g id="elem_Producer"><rect codeLine="2" fill="#F1F1F1" height="48" id="Producer" rx="2.5" ry="2.5" style="stroke:#181818;stroke-width:0.5;" width="191" x="477.5" y="10"/><ellipse cx="492.5" cy="26" fill="#B4A7E5" rx="11" ry="11" style="stroke:#181818;stroke-width:1.0;"/><path d="M493.4531,22.7813 L495.1719,22.7813 C495.5625,22.7813 495.75,22.75 495.875,22.6719 C496.1406,22.5156 496.2813,22.2344 496.2813,21.9375 C496.2813,21.6719 496.1719,21.4063 495.9375,21.2344 C495.7656,21.125 495.625,21.0938 495.1719,21.0938 L490.0313,21.0938 C489.5938,21.0938 489.4688,21.1094 489.3125,21.2031 C489.0625,21.3594 488.9063,21.6563 488.9063,21.9375 C488.9063,22.2188 489.0469,22.4688 489.2656,22.6406 C489.4219,22.75 489.6094,22.7813 490.0313,22.7813 L491.75,22.7813 L491.75,29.2969 L490.0313,29.2969 C489.5938,29.2969 489.4688,29.3125 489.3125,29.4219 C489.0625,29.5781 488.9063,29.8594 488.9063,30.1563 C488.9063,30.4063 489.0469,30.6719 489.2656,30.8281 C489.4219,30.9531 489.625,31 490.0313,31 L495.1719,31 C495.9219,31 496.2813,30.7188 496.2813,30.1563 C496.2813,29.875 496.1719,29.625 495.9375,29.4531 C495.7656,29.3281 495.625,29.2969 495.1719,29.2969 L493.4531,29.2969 L493.4531,22.7813 Z " fill="#000000"/><text fill="#000000" font-family="sans-serif" font-size="14" font-style="italic" lengthAdjust="spacing" textLength="64" x="506.5" y="30.8467">Producer</text><rect fill="#FFFFFF" height="15.9688" style="stroke:#181818;stroke-width:1.0;stroke-dasharray:2.0,2.0;" width="93" x="578.5" y="7"/><text fill="#000000" font-family="sans-serif" font-size="12" font-style="italic" lengthAdjust="spacing" textLength="91" x="579.5" y="19.1387">EncodedImage</text><line style="stroke:#181818;stroke-width:0.5;" x1="478.5" x2="667.5" y1="42" y2="42"/><line style="stroke:#181818;stroke-width:0.5;" x1="478.5" x2="667.5" y1="50" y2="50"/></g><!--class EncodedMemoryCacheProducer--><g id="elem_EncodedMemoryCacheProducer"><rect fill="#F1F1F1" height="48" id="EncodedMemoryCacheProducer" rx="2.5" ry="2.5" style="stroke:#181818;stroke-width:0.5;" width="260" x="182" y="10"/><ellipse cx="197" cy="26" fill="#ADD1B2" rx="11" ry="11" style="stroke:#181818;stroke-width:1.0;"/><path d="M199.3438,21.6719 C198.4063,21.2344 197.8125,21.0938 196.9375,21.0938 C194.3125,21.0938 192.3125,23.1719 192.3125,25.8906 L192.3125,27.0156 C192.3125,29.5938 194.4219,31.4844 197.3125,31.4844 C198.5313,31.4844 199.6875,31.1875 200.4375,30.6406 C201.0156,30.2344 201.3438,29.7813 201.3438,29.3906 C201.3438,28.9375 200.9531,28.5469 200.4844,28.5469 C200.2656,28.5469 200.0625,28.625 199.875,28.8125 C199.4219,29.2969 199.4219,29.2969 199.2344,29.3906 C198.8125,29.6563 198.125,29.7813 197.3594,29.7813 C195.3125,29.7813 194.0156,28.6875 194.0156,26.9844 L194.0156,25.8906 C194.0156,24.1094 195.2656,22.7969 197,22.7969 C197.5781,22.7969 198.1875,22.9531 198.6563,23.2031 C199.1406,23.4844 199.3125,23.7031 199.4063,24.1094 C199.4688,24.5156 199.5,24.6406 199.6406,24.7656 C199.7813,24.9063 200.0156,25.0156 200.2344,25.0156 C200.5,25.0156 200.7656,24.875 200.9375,24.6563 C201.0469,24.5 201.0781,24.3125 201.0781,23.8906 L201.0781,22.4688 C201.0781,22.0313 201.0625,21.9063 200.9688,21.75 C200.8125,21.4844 200.5313,21.3438 200.2344,21.3438 C199.9375,21.3438 199.7344,21.4375 199.5156,21.75 L199.3438,21.6719 Z " fill="#000000"/><text fill="#000000" font-family="sans-serif" font-size="14" lengthAdjust="spacing" textLength="228" x="211" y="30.8467">EncodedMemoryCacheProducer</text><line style="stroke:#181818;stroke-width:0.5;" x1="183" x2="441" y1="42" y2="42"/><line style="stroke:#181818;stroke-width:0.5;" x1="183" x2="441" y1="50" y2="50"/></g><g id="elem_GMN7"><path d="M703.5,21.5 L703.5,30 L668.625,34 L703.5,38 L703.5,46.6328 A0,0 0 0 0 703.5,46.6328 L802.5,46.6328 A0,0 0 0 0 802.5,46.6328 L802.5,31.5 L792.5,21.5 L703.5,21.5 A0,0 0 0 0 703.5,21.5 " fill="#FEFFDD" style="stroke:#181818;stroke-width:0.5;"/><path d="M792.5,21.5 L792.5,31.5 L802.5,31.5 L792.5,21.5 " fill="#FEFFDD" style="stroke:#181818;stroke-width:0.5;"/><text fill="#000000" font-family="sans-serif" font-size="13" lengthAdjust="spacing" textLength="78" x="709.5" y="38.5669">&#19979;&#19968;&#32423;&#29983;&#20135;&#32773;</text></g><!--class CountingMemoryCache--><g id="elem_CountingMemoryCache"><rect codeLine="8" fill="#F1F1F1" height="48" id="CountingMemoryCache" rx="2.5" ry="2.5" style="stroke:#181818;stroke-width:0.5;" width="372" x="7" y="226"/><ellipse cx="22" cy="242" fill="#ADD1B2" rx="11" ry="11" style="stroke:#181818;stroke-width:1.0;"/><path d="M24.3438,237.6719 C23.4063,237.2344 22.8125,237.0938 21.9375,237.0938 C19.3125,237.0938 17.3125,239.1719 17.3125,241.8906 L17.3125,243.0156 C17.3125,245.5938 19.4219,247.4844 22.3125,247.4844 C23.5313,247.4844 24.6875,247.1875 25.4375,246.6406 C26.0156,246.2344 26.3438,245.7813 26.3438,245.3906 C26.3438,244.9375 25.9531,244.5469 25.4844,244.5469 C25.2656,244.5469 25.0625,244.625 24.875,244.8125 C24.4219,245.2969 24.4219,245.2969 24.2344,245.3906 C23.8125,245.6563 23.125,245.7813 22.3594,245.7813 C20.3125,245.7813 19.0156,244.6875 19.0156,242.9844 L19.0156,241.8906 C19.0156,240.1094 20.2656,238.7969 22,238.7969 C22.5781,238.7969 23.1875,238.9531 23.6563,239.2031 C24.1406,239.4844 24.3125,239.7031 24.4063,240.1094 C24.4688,240.5156 24.5,240.6406 24.6406,240.7656 C24.7813,240.9063 25.0156,241.0156 25.2344,241.0156 C25.5,241.0156 25.7656,240.875 25.9375,240.6563 C26.0469,240.5 26.0781,240.3125 26.0781,239.8906 L26.0781,238.4688 C26.0781,238.0313 26.0625,237.9063 25.9688,237.75 C25.8125,237.4844 25.5313,237.3438 25.2344,237.3438 C24.9375,237.3438 24.7344,237.4375 24.5156,237.75 L24.3438,237.6719 Z " fill="#000000"/><text fill="#000000" font-family="sans-serif" font-size="14" lengthAdjust="spacing" textLength="167" x="36" y="246.8467">CountingMemoryCache</text><rect fill="#FFFFFF" height="15.9688" style="stroke:#181818;stroke-width:1.0;stroke-dasharray:2.0,2.0;" width="171" x="211" y="223"/><text fill="#000000" font-family="sans-serif" font-size="12" font-style="italic" lengthAdjust="spacing" textLength="169" x="212" y="235.1387">CacheKey, PooledByteBuffer</text><line style="stroke:#181818;stroke-width:0.5;" x1="8" x2="378" y1="258" y2="258"/><line style="stroke:#181818;stroke-width:0.5;" x1="8" x2="378" y1="266" y2="266"/></g><!--class LruCountingMemoryCache--><g id="elem_LruCountingMemoryCache"><rect codeLine="9" fill="#F1F1F1" height="48" id="LruCountingMemoryCache" rx="2.5" ry="2.5" style="stroke:#181818;stroke-width:0.5;" width="394" x="186" y="334"/><ellipse cx="201" cy="350" fill="#ADD1B2" rx="11" ry="11" style="stroke:#181818;stroke-width:1.0;"/><path d="M203.3438,345.6719 C202.4063,345.2344 201.8125,345.0938 200.9375,345.0938 C198.3125,345.0938 196.3125,347.1719 196.3125,349.8906 L196.3125,351.0156 C196.3125,353.5938 198.4219,355.4844 201.3125,355.4844 C202.5313,355.4844 203.6875,355.1875 204.4375,354.6406 C205.0156,354.2344 205.3438,353.7813 205.3438,353.3906 C205.3438,352.9375 204.9531,352.5469 204.4844,352.5469 C204.2656,352.5469 204.0625,352.625 203.875,352.8125 C203.4219,353.2969 203.4219,353.2969 203.2344,353.3906 C202.8125,353.6563 202.125,353.7813 201.3594,353.7813 C199.3125,353.7813 198.0156,352.6875 198.0156,350.9844 L198.0156,349.8906 C198.0156,348.1094 199.2656,346.7969 201,346.7969 C201.5781,346.7969 202.1875,346.9531 202.6563,347.2031 C203.1406,347.4844 203.3125,347.7031 203.4063,348.1094 C203.4688,348.5156 203.5,348.6406 203.6406,348.7656 C203.7813,348.9063 204.0156,349.0156 204.2344,349.0156 C204.5,349.0156 204.7656,348.875 204.9375,348.6563 C205.0469,348.5 205.0781,348.3125 205.0781,347.8906 L205.0781,346.4688 C205.0781,346.0313 205.0625,345.9063 204.9688,345.75 C204.8125,345.4844 204.5313,345.3438 204.2344,345.3438 C203.9375,345.3438 203.7344,345.4375 203.5156,345.75 L203.3438,345.6719 Z " fill="#000000"/><text fill="#000000" font-family="sans-serif" font-size="14" lengthAdjust="spacing" textLength="189" x="215" y="354.8467">LruCountingMemoryCache</text><rect fill="#FFFFFF" height="15.9688" style="stroke:#181818;stroke-width:1.0;stroke-dasharray:2.0,2.0;" width="171" x="412" y="331"/><text fill="#000000" font-family="sans-serif" font-size="12" font-style="italic" lengthAdjust="spacing" textLength="169" x="413" y="343.1387">CacheKey, PooledByteBuffer</text><line style="stroke:#181818;stroke-width:0.5;" x1="187" x2="579" y1="366" y2="366"/><line style="stroke:#181818;stroke-width:0.5;" x1="187" x2="579" y1="374" y2="374"/></g><!--class Entry--><g id="elem_Entry"><rect codeLine="13" fill="#F1F1F1" height="48" id="Entry" rx="2.5" ry="2.5" style="stroke:#181818;stroke-width:0.5;" width="416" x="534" y="226"/><ellipse cx="549" cy="242" fill="#ADD1B2" rx="11" ry="11" style="stroke:#181818;stroke-width:1.0;"/><path d="M551.3438,237.6719 C550.4063,237.2344 549.8125,237.0938 548.9375,237.0938 C546.3125,237.0938 544.3125,239.1719 544.3125,241.8906 L544.3125,243.0156 C544.3125,245.5938 546.4219,247.4844 549.3125,247.4844 C550.5313,247.4844 551.6875,247.1875 552.4375,246.6406 C553.0156,246.2344 553.3438,245.7813 553.3438,245.3906 C553.3438,244.9375 552.9531,244.5469 552.4844,244.5469 C552.2656,244.5469 552.0625,244.625 551.875,244.8125 C551.4219,245.2969 551.4219,245.2969 551.2344,245.3906 C550.8125,245.6563 550.125,245.7813 549.3594,245.7813 C547.3125,245.7813 546.0156,244.6875 546.0156,242.9844 L546.0156,241.8906 C546.0156,240.1094 547.2656,238.7969 549,238.7969 C549.5781,238.7969 550.1875,238.9531 550.6563,239.2031 C551.1406,239.4844 551.3125,239.7031 551.4063,240.1094 C551.4688,240.5156 551.5,240.6406 551.6406,240.7656 C551.7813,240.9063 552.0156,241.0156 552.2344,241.0156 C552.5,241.0156 552.7656,240.875 552.9375,240.6563 C553.0469,240.5 553.0781,240.3125 553.0781,239.8906 L553.0781,238.4688 C553.0781,238.0313 553.0625,237.9063 552.9688,237.75 C552.8125,237.4844 552.5313,237.3438 552.2344,237.3438 C551.9375,237.3438 551.7344,237.4375 551.5156,237.75 L551.3438,237.6719 Z " fill="#000000"/><text fill="#000000" font-family="sans-serif" font-size="14" lengthAdjust="spacing" textLength="211" x="563" y="246.8467">CountingMemoryCache.Entry</text><rect fill="#FFFFFF" height="15.9688" style="stroke:#181818;stroke-width:1.0;stroke-dasharray:2.0,2.0;" width="171" x="782" y="223"/><text fill="#000000" font-family="sans-serif" font-size="12" font-style="italic" lengthAdjust="spacing" textLength="169" x="783" y="235.1387">CacheKey, PooledByteBuffer</text><line style="stroke:#181818;stroke-width:0.5;" x1="535" x2="949" y1="258" y2="258"/><line style="stroke:#181818;stroke-width:0.5;" x1="535" x2="949" y1="266" y2="266"/></g><!--class CountingLruMap--><g id="elem_CountingLruMap"><rect codeLine="14" fill="#F1F1F1" height="48" id="CountingLruMap" rx="2.5" ry="2.5" style="stroke:#181818;stroke-width:0.5;" width="253" x="615.5" y="334"/><ellipse cx="630.5" cy="350" fill="#ADD1B2" rx="11" ry="11" style="stroke:#181818;stroke-width:1.0;"/><path d="M632.8438,345.6719 C631.9063,345.2344 631.3125,345.0938 630.4375,345.0938 C627.8125,345.0938 625.8125,347.1719 625.8125,349.8906 L625.8125,351.0156 C625.8125,353.5938 627.9219,355.4844 630.8125,355.4844 C632.0313,355.4844 633.1875,355.1875 633.9375,354.6406 C634.5156,354.2344 634.8438,353.7813 634.8438,353.3906 C634.8438,352.9375 634.4531,352.5469 633.9844,352.5469 C633.7656,352.5469 633.5625,352.625 633.375,352.8125 C632.9219,353.2969 632.9219,353.2969 632.7344,353.3906 C632.3125,353.6563 631.625,353.7813 630.8594,353.7813 C628.8125,353.7813 627.5156,352.6875 627.5156,350.9844 L627.5156,349.8906 C627.5156,348.1094 628.7656,346.7969 630.5,346.7969 C631.0781,346.7969 631.6875,346.9531 632.1563,347.2031 C632.6406,347.4844 632.8125,347.7031 632.9063,348.1094 C632.9688,348.5156 633,348.6406 633.1406,348.7656 C633.2813,348.9063 633.5156,349.0156 633.7344,349.0156 C634,349.0156 634.2656,348.875 634.4375,348.6563 C634.5469,348.5 634.5781,348.3125 634.5781,347.8906 L634.5781,346.4688 C634.5781,346.0313 634.5625,345.9063 634.4688,345.75 C634.3125,345.4844 634.0313,345.3438 633.7344,345.3438 C633.4375,345.3438 633.2344,345.4375 633.0156,345.75 L632.8438,345.6719 Z " fill="#000000"/><text fill="#000000" font-family="sans-serif" font-size="14" lengthAdjust="spacing" textLength="117" x="644.5" y="354.8467">CountingLruMap</text><rect fill="#FFFFFF" height="15.9688" style="stroke:#181818;stroke-width:1.0;stroke-dasharray:2.0,2.0;" width="102" x="769.5" y="331"/><text fill="#000000" font-family="sans-serif" font-size="12" font-style="italic" lengthAdjust="spacing" textLength="100" x="770.5" y="343.1387">CacheKey, Entry</text><line style="stroke:#181818;stroke-width:0.5;" x1="616.5" x2="867.5" y1="366" y2="366"/><line style="stroke:#181818;stroke-width:0.5;" x1="616.5" x2="867.5" y1="374" y2="374"/></g><!--reverse link EncodedMemoryCacheProducer to MemoryCache--><g id="link_EncodedMemoryCacheProducer_MemoryCache"><path codeLine="3" d="M312,70 C312,87.658 312,99.941 312,117.678 " fill="none" id="EncodedMemoryCacheProducer-backto-MemoryCache" style="stroke:#181818;stroke-width:1.0;"/><polygon fill="#181818" points="312,58,308,64,312,70,316,64,312,58" style="stroke:#181818;stroke-width:1.0;"/></g><!--reverse link EncodedMemoryCacheProducer to Producer--><g id="link_EncodedMemoryCacheProducer_Producer"><path codeLine="4" d="M454.245,34 C465.993,34 465.74,34 477.488,34 " fill="none" id="EncodedMemoryCacheProducer-backto-Producer" style="stroke:#181818;stroke-width:1.0;"/><polygon fill="#181818" points="442.245,34,448.245,38,454.245,34,448.245,30,442.245,34" style="stroke:#181818;stroke-width:1.0;"/></g><!--reverse link CountingMemoryCache to LruCountingMemoryCache--><g id="link_CountingMemoryCache_LruCountingMemoryCache"><path codeLine="10" d="M249.9461,282.7699 C281.7061,300.4892 309.704,316.1083 341.526,333.8617 " fill="none" id="CountingMemoryCache-backto-LruCountingMemoryCache" style="stroke:#181818;stroke-width:1.0;"/><polygon fill="none" points="234.227,274,247.0228,288.0096,252.8694,277.5302,234.227,274" style="stroke:#181818;stroke-width:1.0;"/></g><!--reverse link MemoryCache to LruCountingMemoryCache--><g id="link_MemoryCache_LruCountingMemoryCache"><path codeLine="11" d="M360.4993,177.5464 C378.9703,192.2434 385.885,201.786 396,226 C410.8,261.429 400.576,306.7745 391.799,333.763 " fill="none" id="MemoryCache-backto-LruCountingMemoryCache" style="stroke:#181818;stroke-width:1.0;"/><polygon fill="none" points="346.414,166.339,356.7635,182.2415,364.2351,172.8513,346.414,166.339" style="stroke:#181818;stroke-width:1.0;"/></g><!--reverse link MemoryCache to CountingMemoryCache--><g id="link_MemoryCache_CountingMemoryCache"><path codeLine="12" d="M272.738,177.9724 C252.914,195.6304 239.095,207.941 219.182,225.678 " fill="none" id="MemoryCache-backto-CountingMemoryCache" style="stroke:#181818;stroke-width:1.0;"/><polygon fill="none" points="286.179,166,268.7472,173.4921,276.7288,182.4528,286.179,166" style="stroke:#181818;stroke-width:1.0;"/></g><!--reverse link LruCountingMemoryCache to CountingLruMap--><g id="link_LruCountingMemoryCache_CountingLruMap"><path codeLine="15" d="M592.029,358 C603.84,358 603.65,358 615.46,358 " fill="none" id="LruCountingMemoryCache-backto-CountingLruMap" style="stroke:#181818;stroke-width:1.0;"/><polygon fill="#181818" points="580.029,358,586.029,362,592.029,358,586.029,354,580.029,358" style="stroke:#181818;stroke-width:1.0;"/></g><!--link Entry to CountingLruMap--><g id="link_Entry_CountingLruMap"><path codeLine="16" d="M742,274 C742,291.6584 742,303.9408 742,321.6784 " fill="none" id="Entry-to-CountingLruMap" style="stroke:#181818;stroke-width:1.0;"/><polygon fill="#181818" points="742,333.6784,746,327.6784,742,321.6784,738,327.6784,742,333.6784" style="stroke:#181818;stroke-width:1.0;"/><text fill="#000000" font-family="sans-serif" font-size="13" lengthAdjust="spacing" textLength="8" x="732.975" y="294.1558">n</text><text fill="#000000" font-family="sans-serif" font-size="13" lengthAdjust="spacing" textLength="8" x="733.025" y="323.005">1</text></g><!--SRC=[dP6_2i8m4CRtFCMHKQpWNZfK74GBla98hhMWYQJ9K71mSN9rT_GLnESfrCUmjlwf4aHT0fVylY_VtQNIe8uPHuXmeNG-O7o6VdsECU_2LAavYZ0t6DeuHXsGzA6OQYKiH-qF9LS2nMZ14Wp8hMhvtK7eU5xxdy_emvz8PH1qcimCgFXvNHotnN5TdWxbRb-S3kVrXg0KSAK9dxCiWu6oqgGo-RQtHZNHzbUXWmT_LNNhzY9_SoweIKqTJxsXD3h_b9m2ow2ctaPM1OhOiYMjeO2uWrxNzQeahoNGFgqWk_I0IjgONG00]--></g></svg>