<?xml version="1.0" encoding="us-ascii" standalone="no"?><svg xmlns="http://www.w3.org/2000/svg" xmlns:xlink="http://www.w3.org/1999/xlink" contentStyleType="text/css" height="581px" preserveAspectRatio="none" style="width:1048px;height:581px;background:#FFFFFF;" version="1.1" viewBox="0 0 1048 581" width="1048px" zoomAndPan="magnify"><defs/><g><!--class Producer--><g id="elem_Producer"><rect codeLine="1" fill="#F1F1F1" height="48" id="Producer" rx="2.5" ry="2.5" style="stroke:#181818;stroke-width:0.5;" width="191" x="213" y="10"/><ellipse cx="228" cy="26" fill="#B4A7E5" rx="11" ry="11" style="stroke:#181818;stroke-width:1.0;"/><path d="M228.9531,22.7813 L230.6719,22.7813 C231.0625,22.7813 231.25,22.75 231.375,22.6719 C231.6406,22.5156 231.7813,22.2344 231.7813,21.9375 C231.7813,21.6719 231.6719,21.4063 231.4375,21.2344 C231.2656,21.125 231.125,21.0938 230.6719,21.0938 L225.5313,21.0938 C225.0938,21.0938 224.9688,21.1094 224.8125,21.2031 C224.5625,21.3594 224.4063,21.6563 224.4063,21.9375 C224.4063,22.2188 224.5469,22.4688 224.7656,22.6406 C224.9219,22.75 225.1094,22.7813 225.5313,22.7813 L227.25,22.7813 L227.25,29.2969 L225.5313,29.2969 C225.0938,29.2969 224.9688,29.3125 224.8125,29.4219 C224.5625,29.5781 224.4063,29.8594 224.4063,30.1563 C224.4063,30.4063 224.5469,30.6719 224.7656,30.8281 C224.9219,30.9531 225.125,31 225.5313,31 L230.6719,31 C231.4219,31 231.7813,30.7188 231.7813,30.1563 C231.7813,29.875 231.6719,29.625 231.4375,29.4531 C231.2656,29.3281 231.125,29.2969 230.6719,29.2969 L228.9531,29.2969 L228.9531,22.7813 Z " fill="#000000"/><text fill="#000000" font-family="sans-serif" font-size="14" font-style="italic" lengthAdjust="spacing" textLength="64" x="242" y="30.8467">Producer</text><rect fill="#FFFFFF" height="15.9688" style="stroke:#181818;stroke-width:1.0;stroke-dasharray:2.0,2.0;" width="93" x="314" y="7"/><text fill="#000000" font-family="sans-serif" font-size="12" font-style="italic" lengthAdjust="spacing" textLength="91" x="315" y="19.1387">EncodedImage</text><line style="stroke:#181818;stroke-width:0.5;" x1="214" x2="403" y1="42" y2="42"/><line style="stroke:#181818;stroke-width:0.5;" x1="214" x2="403" y1="50" y2="50"/></g><!--class NetworkFetchProducer--><g id="elem_NetworkFetchProducer"><rect fill="#F1F1F1" height="48" id="NetworkFetchProducer" rx="2.5" ry="2.5" style="stroke:#181818;stroke-width:0.5;" width="198" x="209.5" y="119"/><ellipse cx="224.5" cy="135" fill="#ADD1B2" rx="11" ry="11" style="stroke:#181818;stroke-width:1.0;"/><path d="M226.8438,130.6719 C225.9063,130.2344 225.3125,130.0938 224.4375,130.0938 C221.8125,130.0938 219.8125,132.1719 219.8125,134.8906 L219.8125,136.0156 C219.8125,138.5938 221.9219,140.4844 224.8125,140.4844 C226.0313,140.4844 227.1875,140.1875 227.9375,139.6406 C228.5156,139.2344 228.8438,138.7813 228.8438,138.3906 C228.8438,137.9375 228.4531,137.5469 227.9844,137.5469 C227.7656,137.5469 227.5625,137.625 227.375,137.8125 C226.9219,138.2969 226.9219,138.2969 226.7344,138.3906 C226.3125,138.6563 225.625,138.7813 224.8594,138.7813 C222.8125,138.7813 221.5156,137.6875 221.5156,135.9844 L221.5156,134.8906 C221.5156,133.1094 222.7656,131.7969 224.5,131.7969 C225.0781,131.7969 225.6875,131.9531 226.1563,132.2031 C226.6406,132.4844 226.8125,132.7031 226.9063,133.1094 C226.9688,133.5156 227,133.6406 227.1406,133.7656 C227.2813,133.9063 227.5156,134.0156 227.7344,134.0156 C228,134.0156 228.2656,133.875 228.4375,133.6563 C228.5469,133.5 228.5781,133.3125 228.5781,132.8906 L228.5781,131.4688 C228.5781,131.0313 228.5625,130.9063 228.4688,130.75 C228.3125,130.4844 228.0313,130.3438 227.7344,130.3438 C227.4375,130.3438 227.2344,130.4375 227.0156,130.75 L226.8438,130.6719 Z " fill="#000000"/><text fill="#000000" font-family="sans-serif" font-size="14" lengthAdjust="spacing" textLength="166" x="238.5" y="139.8467">NetworkFetchProducer</text><line style="stroke:#181818;stroke-width:0.5;" x1="210.5" x2="406.5" y1="151" y2="151"/><line style="stroke:#181818;stroke-width:0.5;" x1="210.5" x2="406.5" y1="159" y2="159"/></g><!--class NetworkFetcher--><g id="elem_NetworkFetcher"><rect fill="#F1F1F1" height="48" id="NetworkFetcher" rx="2.5" ry="2.5" style="stroke:#181818;stroke-width:0.5;" width="149" x="613" y="119"/><ellipse cx="628" cy="135" fill="#ADD1B2" rx="11" ry="11" style="stroke:#181818;stroke-width:1.0;"/><path d="M630.3438,130.6719 C629.4063,130.2344 628.8125,130.0938 627.9375,130.0938 C625.3125,130.0938 623.3125,132.1719 623.3125,134.8906 L623.3125,136.0156 C623.3125,138.5938 625.4219,140.4844 628.3125,140.4844 C629.5313,140.4844 630.6875,140.1875 631.4375,139.6406 C632.0156,139.2344 632.3438,138.7813 632.3438,138.3906 C632.3438,137.9375 631.9531,137.5469 631.4844,137.5469 C631.2656,137.5469 631.0625,137.625 630.875,137.8125 C630.4219,138.2969 630.4219,138.2969 630.2344,138.3906 C629.8125,138.6563 629.125,138.7813 628.3594,138.7813 C626.3125,138.7813 625.0156,137.6875 625.0156,135.9844 L625.0156,134.8906 C625.0156,133.1094 626.2656,131.7969 628,131.7969 C628.5781,131.7969 629.1875,131.9531 629.6563,132.2031 C630.1406,132.4844 630.3125,132.7031 630.4063,133.1094 C630.4688,133.5156 630.5,133.6406 630.6406,133.7656 C630.7813,133.9063 631.0156,134.0156 631.2344,134.0156 C631.5,134.0156 631.7656,133.875 631.9375,133.6563 C632.0469,133.5 632.0781,133.3125 632.0781,132.8906 L632.0781,131.4688 C632.0781,131.0313 632.0625,130.9063 631.9688,130.75 C631.8125,130.4844 631.5313,130.3438 631.2344,130.3438 C630.9375,130.3438 630.7344,130.4375 630.5156,130.75 L630.3438,130.6719 Z " fill="#000000"/><text fill="#000000" font-family="sans-serif" font-size="14" lengthAdjust="spacing" textLength="117" x="642" y="139.8467">NetworkFetcher</text><line style="stroke:#181818;stroke-width:0.5;" x1="614" x2="761" y1="151" y2="151"/><line style="stroke:#181818;stroke-width:0.5;" x1="614" x2="761" y1="159" y2="159"/></g><!--class MemoryChunkPool--><g id="elem_MemoryChunkPool"><rect codeLine="4" fill="#F1F1F1" height="48" id="MemoryChunkPool" rx="2.5" ry="2.5" style="stroke:#181818;stroke-width:0.5;" width="165" x="431" y="526"/><ellipse cx="446" cy="542" fill="#A9DCDF" rx="11" ry="11" style="stroke:#181818;stroke-width:1.0;"/><path d="M448.0781,543.8125 L448.4688,544.7969 L448.0781,544.7969 C447.625,544.7969 447.5156,544.8125 447.3594,544.9219 C447.1094,545.0781 446.9531,545.3594 446.9531,545.6563 C446.9531,545.9219 447.0938,546.1719 447.3125,546.3281 C447.4531,546.4531 447.6563,546.5 448.0781,546.5 L450.4375,546.5 C450.7969,546.5 451.0156,546.4688 451.1563,546.375 C451.4063,546.2344 451.5625,545.9375 451.5625,545.6563 C451.5625,545.375 451.4219,545.125 451.2031,544.9688 C451.0313,544.8281 450.875,544.7969 450.4063,544.7969 L447.0156,536.5938 L443.3438,536.5938 C442.8906,536.5938 442.7656,536.6094 442.6094,536.7031 C442.3594,536.875 442.2031,537.1563 442.2031,537.4375 C442.2031,537.7188 442.3438,537.9688 442.5625,538.1406 C442.7344,538.25 442.9063,538.2813 443.3438,538.2813 L444.4219,538.2813 L441.7813,544.7969 C441.3594,544.7969 441.2031,544.8125 441.0469,544.9219 C440.7969,545.0781 440.6406,545.3594 440.6406,545.6563 C440.6406,546.2188 441.0156,546.5 441.7656,546.5 L444.0313,546.5 C444.3906,546.5 444.6094,546.4688 444.7344,546.375 C445,546.2344 445.1406,545.9375 445.1406,545.6563 C445.1406,545.375 445.0156,545.125 444.7969,544.9531 C444.625,544.8281 444.4844,544.7969 444.0313,544.7969 L443.6406,544.7969 L444.0313,543.8125 L448.0781,543.8125 Z M447.375,542.1094 L444.7031,542.1094 L446.0469,538.8438 L447.375,542.1094 Z " fill="#000000"/><text fill="#000000" font-family="sans-serif" font-size="14" font-style="italic" lengthAdjust="spacing" textLength="133" x="460" y="546.8467">MemoryChunkPool</text><line style="stroke:#181818;stroke-width:0.5;" x1="432" x2="595" y1="558" y2="558"/><line style="stroke:#181818;stroke-width:0.5;" x1="432" x2="595" y1="566" y2="566"/></g><!--class ByteArrayPool--><g id="elem_ByteArrayPool"><rect fill="#F1F1F1" height="48" id="ByteArrayPool" rx="2.5" ry="2.5" style="stroke:#181818;stroke-width:0.5;" width="135" x="443" y="119"/><ellipse cx="458" cy="135" fill="#ADD1B2" rx="11" ry="11" style="stroke:#181818;stroke-width:1.0;"/><path d="M460.3438,130.6719 C459.4063,130.2344 458.8125,130.0938 457.9375,130.0938 C455.3125,130.0938 453.3125,132.1719 453.3125,134.8906 L453.3125,136.0156 C453.3125,138.5938 455.4219,140.4844 458.3125,140.4844 C459.5313,140.4844 460.6875,140.1875 461.4375,139.6406 C462.0156,139.2344 462.3438,138.7813 462.3438,138.3906 C462.3438,137.9375 461.9531,137.5469 461.4844,137.5469 C461.2656,137.5469 461.0625,137.625 460.875,137.8125 C460.4219,138.2969 460.4219,138.2969 460.2344,138.3906 C459.8125,138.6563 459.125,138.7813 458.3594,138.7813 C456.3125,138.7813 455.0156,137.6875 455.0156,135.9844 L455.0156,134.8906 C455.0156,133.1094 456.2656,131.7969 458,131.7969 C458.5781,131.7969 459.1875,131.9531 459.6563,132.2031 C460.1406,132.4844 460.3125,132.7031 460.4063,133.1094 C460.4688,133.5156 460.5,133.6406 460.6406,133.7656 C460.7813,133.9063 461.0156,134.0156 461.2344,134.0156 C461.5,134.0156 461.7656,133.875 461.9375,133.6563 C462.0469,133.5 462.0781,133.3125 462.0781,132.8906 L462.0781,131.4688 C462.0781,131.0313 462.0625,130.9063 461.9688,130.75 C461.8125,130.4844 461.5313,130.3438 461.2344,130.3438 C460.9375,130.3438 460.7344,130.4375 460.5156,130.75 L460.3438,130.6719 Z " fill="#000000"/><text fill="#000000" font-family="sans-serif" font-size="14" lengthAdjust="spacing" textLength="103" x="472" y="139.8467">ByteArrayPool</text><line style="stroke:#181818;stroke-width:0.5;" x1="444" x2="577" y1="151" y2="151"/><line style="stroke:#181818;stroke-width:0.5;" x1="444" x2="577" y1="159" y2="159"/></g><!--class BaseNetworkFetcher--><g id="elem_BaseNetworkFetcher"><rect codeLine="6" fill="#F1F1F1" height="48" id="BaseNetworkFetcher" rx="2.5" ry="2.5" style="stroke:#181818;stroke-width:0.5;" width="179" x="598" y="240"/><ellipse cx="613" cy="256" fill="#A9DCDF" rx="11" ry="11" style="stroke:#181818;stroke-width:1.0;"/><path d="M615.0781,257.8125 L615.4688,258.7969 L615.0781,258.7969 C614.625,258.7969 614.5156,258.8125 614.3594,258.9219 C614.1094,259.0781 613.9531,259.3594 613.9531,259.6563 C613.9531,259.9219 614.0938,260.1719 614.3125,260.3281 C614.4531,260.4531 614.6563,260.5 615.0781,260.5 L617.4375,260.5 C617.7969,260.5 618.0156,260.4688 618.1563,260.375 C618.4063,260.2344 618.5625,259.9375 618.5625,259.6563 C618.5625,259.375 618.4219,259.125 618.2031,258.9688 C618.0313,258.8281 617.875,258.7969 617.4063,258.7969 L614.0156,250.5938 L610.3438,250.5938 C609.8906,250.5938 609.7656,250.6094 609.6094,250.7031 C609.3594,250.875 609.2031,251.1563 609.2031,251.4375 C609.2031,251.7188 609.3438,251.9688 609.5625,252.1406 C609.7344,252.25 609.9063,252.2813 610.3438,252.2813 L611.4219,252.2813 L608.7813,258.7969 C608.3594,258.7969 608.2031,258.8125 608.0469,258.9219 C607.7969,259.0781 607.6406,259.3594 607.6406,259.6563 C607.6406,260.2188 608.0156,260.5 608.7656,260.5 L611.0313,260.5 C611.3906,260.5 611.6094,260.4688 611.7344,260.375 C612,260.2344 612.1406,259.9375 612.1406,259.6563 C612.1406,259.375 612.0156,259.125 611.7969,258.9531 C611.625,258.8281 611.4844,258.7969 611.0313,258.7969 L610.6406,258.7969 L611.0313,257.8125 L615.0781,257.8125 Z M614.375,256.1094 L611.7031,256.1094 L613.0469,252.8438 L614.375,256.1094 Z " fill="#000000"/><text fill="#000000" font-family="sans-serif" font-size="14" font-style="italic" lengthAdjust="spacing" textLength="147" x="627" y="260.8467">BaseNetworkFetcher</text><line style="stroke:#181818;stroke-width:0.5;" x1="599" x2="776" y1="272" y2="272"/><line style="stroke:#181818;stroke-width:0.5;" x1="599" x2="776" y1="280" y2="280"/></g><!--class HttpUrlConnectionNetworkFetcher--><g id="elem_HttpUrlConnectionNetworkFetcher"><rect fill="#F1F1F1" height="48" id="HttpUrlConnectionNetworkFetcher" rx="2.5" ry="2.5" style="stroke:#181818;stroke-width:0.5;" width="285" x="518" y="389"/><ellipse cx="533" cy="405" fill="#ADD1B2" rx="11" ry="11" style="stroke:#181818;stroke-width:1.0;"/><path d="M535.3438,400.6719 C534.4063,400.2344 533.8125,400.0938 532.9375,400.0938 C530.3125,400.0938 528.3125,402.1719 528.3125,404.8906 L528.3125,406.0156 C528.3125,408.5938 530.4219,410.4844 533.3125,410.4844 C534.5313,410.4844 535.6875,410.1875 536.4375,409.6406 C537.0156,409.2344 537.3438,408.7813 537.3438,408.3906 C537.3438,407.9375 536.9531,407.5469 536.4844,407.5469 C536.2656,407.5469 536.0625,407.625 535.875,407.8125 C535.4219,408.2969 535.4219,408.2969 535.2344,408.3906 C534.8125,408.6563 534.125,408.7813 533.3594,408.7813 C531.3125,408.7813 530.0156,407.6875 530.0156,405.9844 L530.0156,404.8906 C530.0156,403.1094 531.2656,401.7969 533,401.7969 C533.5781,401.7969 534.1875,401.9531 534.6563,402.2031 C535.1406,402.4844 535.3125,402.7031 535.4063,403.1094 C535.4688,403.5156 535.5,403.6406 535.6406,403.7656 C535.7813,403.9063 536.0156,404.0156 536.2344,404.0156 C536.5,404.0156 536.7656,403.875 536.9375,403.6563 C537.0469,403.5 537.0781,403.3125 537.0781,402.8906 L537.0781,401.4688 C537.0781,401.0313 537.0625,400.9063 536.9688,400.75 C536.8125,400.4844 536.5313,400.3438 536.2344,400.3438 C535.9375,400.3438 535.7344,400.4375 535.5156,400.75 L535.3438,400.6719 Z " fill="#000000"/><text fill="#000000" font-family="sans-serif" font-size="14" lengthAdjust="spacing" textLength="253" x="547" y="409.8467">HttpUrlConnectionNetworkFetcher</text><line style="stroke:#181818;stroke-width:0.5;" x1="519" x2="802" y1="421" y2="421"/><line style="stroke:#181818;stroke-width:0.5;" x1="519" x2="802" y1="429" y2="429"/></g><!--class OkHttpNetworkFetcher--><g id="elem_OkHttpNetworkFetcher"><rect fill="#F1F1F1" height="48" id="OkHttpNetworkFetcher" rx="2.5" ry="2.5" style="stroke:#181818;stroke-width:0.5;" width="203" x="838" y="389"/><ellipse cx="853" cy="405" fill="#ADD1B2" rx="11" ry="11" style="stroke:#181818;stroke-width:1.0;"/><path d="M855.3438,400.6719 C854.4063,400.2344 853.8125,400.0938 852.9375,400.0938 C850.3125,400.0938 848.3125,402.1719 848.3125,404.8906 L848.3125,406.0156 C848.3125,408.5938 850.4219,410.4844 853.3125,410.4844 C854.5313,410.4844 855.6875,410.1875 856.4375,409.6406 C857.0156,409.2344 857.3438,408.7813 857.3438,408.3906 C857.3438,407.9375 856.9531,407.5469 856.4844,407.5469 C856.2656,407.5469 856.0625,407.625 855.875,407.8125 C855.4219,408.2969 855.4219,408.2969 855.2344,408.3906 C854.8125,408.6563 854.125,408.7813 853.3594,408.7813 C851.3125,408.7813 850.0156,407.6875 850.0156,405.9844 L850.0156,404.8906 C850.0156,403.1094 851.2656,401.7969 853,401.7969 C853.5781,401.7969 854.1875,401.9531 854.6563,402.2031 C855.1406,402.4844 855.3125,402.7031 855.4063,403.1094 C855.4688,403.5156 855.5,403.6406 855.6406,403.7656 C855.7813,403.9063 856.0156,404.0156 856.2344,404.0156 C856.5,404.0156 856.7656,403.875 856.9375,403.6563 C857.0469,403.5 857.0781,403.3125 857.0781,402.8906 L857.0781,401.4688 C857.0781,401.0313 857.0625,400.9063 856.9688,400.75 C856.8125,400.4844 856.5313,400.3438 856.2344,400.3438 C855.9375,400.3438 855.7344,400.4375 855.5156,400.75 L855.3438,400.6719 Z " fill="#000000"/><text fill="#000000" font-family="sans-serif" font-size="14" lengthAdjust="spacing" textLength="171" x="867" y="409.8467">OkHttpNetworkFetcher</text><line style="stroke:#181818;stroke-width:0.5;" x1="839" x2="1040" y1="421" y2="421"/><line style="stroke:#181818;stroke-width:0.5;" x1="839" x2="1040" y1="429" y2="429"/></g><!--class MemoryPooledByteBufferFactory--><g id="elem_MemoryPooledByteBufferFactory"><rect codeLine="15" fill="#F1F1F1" height="64.2969" id="MemoryPooledByteBufferFactory" rx="2.5" ry="2.5" style="stroke:#181818;stroke-width:0.5;" width="272" x="21.5" y="232"/><ellipse cx="36.5" cy="248" fill="#ADD1B2" rx="11" ry="11" style="stroke:#181818;stroke-width:1.0;"/><path d="M38.8438,243.6719 C37.9063,243.2344 37.3125,243.0938 36.4375,243.0938 C33.8125,243.0938 31.8125,245.1719 31.8125,247.8906 L31.8125,249.0156 C31.8125,251.5938 33.9219,253.4844 36.8125,253.4844 C38.0313,253.4844 39.1875,253.1875 39.9375,252.6406 C40.5156,252.2344 40.8438,251.7813 40.8438,251.3906 C40.8438,250.9375 40.4531,250.5469 39.9844,250.5469 C39.7656,250.5469 39.5625,250.625 39.375,250.8125 C38.9219,251.2969 38.9219,251.2969 38.7344,251.3906 C38.3125,251.6563 37.625,251.7813 36.8594,251.7813 C34.8125,251.7813 33.5156,250.6875 33.5156,248.9844 L33.5156,247.8906 C33.5156,246.1094 34.7656,244.7969 36.5,244.7969 C37.0781,244.7969 37.6875,244.9531 38.1563,245.2031 C38.6406,245.4844 38.8125,245.7031 38.9063,246.1094 C38.9688,246.5156 39,246.6406 39.1406,246.7656 C39.2813,246.9063 39.5156,247.0156 39.7344,247.0156 C40,247.0156 40.2656,246.875 40.4375,246.6563 C40.5469,246.5 40.5781,246.3125 40.5781,245.8906 L40.5781,244.4688 C40.5781,244.0313 40.5625,243.9063 40.4688,243.75 C40.3125,243.4844 40.0313,243.3438 39.7344,243.3438 C39.4375,243.3438 39.2344,243.4375 39.0156,243.75 L38.8438,243.6719 Z " fill="#000000"/><text fill="#000000" font-family="sans-serif" font-size="14" lengthAdjust="spacing" textLength="240" x="50.5" y="252.8467">MemoryPooledByteBufferFactory</text><line style="stroke:#181818;stroke-width:0.5;" x1="22.5" x2="292.5" y1="264" y2="264"/><line style="stroke:#181818;stroke-width:0.5;" x1="22.5" x2="292.5" y1="272" y2="272"/><text fill="#000000" font-family="sans-serif" font-size="14" lengthAdjust="spacing" textLength="143" x="27.5" y="288.9951">newOutputStream()</text></g><!--class MemoryPooledByteBufferOutputStream--><g id="elem_MemoryPooledByteBufferOutputStream"><rect codeLine="11" fill="#F1F1F1" height="64.2969" id="MemoryPooledByteBufferOutputStream" rx="2.5" ry="2.5" style="stroke:#181818;stroke-width:0.5;" width="322" x="125.5" y="381"/><ellipse cx="140.5" cy="397" fill="#ADD1B2" rx="11" ry="11" style="stroke:#181818;stroke-width:1.0;"/><path d="M142.8438,392.6719 C141.9063,392.2344 141.3125,392.0938 140.4375,392.0938 C137.8125,392.0938 135.8125,394.1719 135.8125,396.8906 L135.8125,398.0156 C135.8125,400.5938 137.9219,402.4844 140.8125,402.4844 C142.0313,402.4844 143.1875,402.1875 143.9375,401.6406 C144.5156,401.2344 144.8438,400.7813 144.8438,400.3906 C144.8438,399.9375 144.4531,399.5469 143.9844,399.5469 C143.7656,399.5469 143.5625,399.625 143.375,399.8125 C142.9219,400.2969 142.9219,400.2969 142.7344,400.3906 C142.3125,400.6563 141.625,400.7813 140.8594,400.7813 C138.8125,400.7813 137.5156,399.6875 137.5156,397.9844 L137.5156,396.8906 C137.5156,395.1094 138.7656,393.7969 140.5,393.7969 C141.0781,393.7969 141.6875,393.9531 142.1563,394.2031 C142.6406,394.4844 142.8125,394.7031 142.9063,395.1094 C142.9688,395.5156 143,395.6406 143.1406,395.7656 C143.2813,395.9063 143.5156,396.0156 143.7344,396.0156 C144,396.0156 144.2656,395.875 144.4375,395.6563 C144.5469,395.5 144.5781,395.3125 144.5781,394.8906 L144.5781,393.4688 C144.5781,393.0313 144.5625,392.9063 144.4688,392.75 C144.3125,392.4844 144.0313,392.3438 143.7344,392.3438 C143.4375,392.3438 143.2344,392.4375 143.0156,392.75 L142.8438,392.6719 Z " fill="#000000"/><text fill="#000000" font-family="sans-serif" font-size="14" lengthAdjust="spacing" textLength="290" x="154.5" y="401.8467">MemoryPooledByteBufferOutputStream</text><line style="stroke:#181818;stroke-width:0.5;" x1="126.5" x2="446.5" y1="413" y2="413"/><line style="stroke:#181818;stroke-width:0.5;" x1="126.5" x2="446.5" y1="421" y2="421"/><text fill="#000000" font-family="sans-serif" font-size="14" lengthAdjust="spacing" textLength="295" x="131.5" y="437.9951">MemoryPooledByteBuffer toByteBuffer()</text></g><!--class MemoryPooledByteBuffer--><g id="elem_MemoryPooledByteBuffer"><rect fill="#F1F1F1" height="48" id="MemoryPooledByteBuffer" rx="2.5" ry="2.5" style="stroke:#181818;stroke-width:0.5;" width="218" x="177.5" y="526"/><ellipse cx="192.5" cy="542" fill="#ADD1B2" rx="11" ry="11" style="stroke:#181818;stroke-width:1.0;"/><path d="M194.8438,537.6719 C193.9063,537.2344 193.3125,537.0938 192.4375,537.0938 C189.8125,537.0938 187.8125,539.1719 187.8125,541.8906 L187.8125,543.0156 C187.8125,545.5938 189.9219,547.4844 192.8125,547.4844 C194.0313,547.4844 195.1875,547.1875 195.9375,546.6406 C196.5156,546.2344 196.8438,545.7813 196.8438,545.3906 C196.8438,544.9375 196.4531,544.5469 195.9844,544.5469 C195.7656,544.5469 195.5625,544.625 195.375,544.8125 C194.9219,545.2969 194.9219,545.2969 194.7344,545.3906 C194.3125,545.6563 193.625,545.7813 192.8594,545.7813 C190.8125,545.7813 189.5156,544.6875 189.5156,542.9844 L189.5156,541.8906 C189.5156,540.1094 190.7656,538.7969 192.5,538.7969 C193.0781,538.7969 193.6875,538.9531 194.1563,539.2031 C194.6406,539.4844 194.8125,539.7031 194.9063,540.1094 C194.9688,540.5156 195,540.6406 195.1406,540.7656 C195.2813,540.9063 195.5156,541.0156 195.7344,541.0156 C196,541.0156 196.2656,540.875 196.4375,540.6563 C196.5469,540.5 196.5781,540.3125 196.5781,539.8906 L196.5781,538.4688 C196.5781,538.0313 196.5625,537.9063 196.4688,537.75 C196.3125,537.4844 196.0313,537.3438 195.7344,537.3438 C195.4375,537.3438 195.2344,537.4375 195.0156,537.75 L194.8438,537.6719 Z " fill="#000000"/><text fill="#000000" font-family="sans-serif" font-size="14" lengthAdjust="spacing" textLength="186" x="206.5" y="546.8467">MemoryPooledByteBuffer</text><line style="stroke:#181818;stroke-width:0.5;" x1="178.5" x2="394.5" y1="558" y2="558"/><line style="stroke:#181818;stroke-width:0.5;" x1="178.5" x2="394.5" y1="566" y2="566"/></g><!--class MemoryChunk--><g id="elem_MemoryChunk"><rect fill="#F1F1F1" height="48" id="MemoryChunk" rx="2.5" ry="2.5" style="stroke:#181818;stroke-width:0.5;" width="135" x="7" y="526"/><ellipse cx="22" cy="542" fill="#ADD1B2" rx="11" ry="11" style="stroke:#181818;stroke-width:1.0;"/><path d="M24.3438,537.6719 C23.4063,537.2344 22.8125,537.0938 21.9375,537.0938 C19.3125,537.0938 17.3125,539.1719 17.3125,541.8906 L17.3125,543.0156 C17.3125,545.5938 19.4219,547.4844 22.3125,547.4844 C23.5313,547.4844 24.6875,547.1875 25.4375,546.6406 C26.0156,546.2344 26.3438,545.7813 26.3438,545.3906 C26.3438,544.9375 25.9531,544.5469 25.4844,544.5469 C25.2656,544.5469 25.0625,544.625 24.875,544.8125 C24.4219,545.2969 24.4219,545.2969 24.2344,545.3906 C23.8125,545.6563 23.125,545.7813 22.3594,545.7813 C20.3125,545.7813 19.0156,544.6875 19.0156,542.9844 L19.0156,541.8906 C19.0156,540.1094 20.2656,538.7969 22,538.7969 C22.5781,538.7969 23.1875,538.9531 23.6563,539.2031 C24.1406,539.4844 24.3125,539.7031 24.4063,540.1094 C24.4688,540.5156 24.5,540.6406 24.6406,540.7656 C24.7813,540.9063 25.0156,541.0156 25.2344,541.0156 C25.5,541.0156 25.7656,540.875 25.9375,540.6563 C26.0469,540.5 26.0781,540.3125 26.0781,539.8906 L26.0781,538.4688 C26.0781,538.0313 26.0625,537.9063 25.9688,537.75 C25.8125,537.4844 25.5313,537.3438 25.2344,537.3438 C24.9375,537.3438 24.7344,537.4375 24.5156,537.75 L24.3438,537.6719 Z " fill="#000000"/><text fill="#000000" font-family="sans-serif" font-size="14" lengthAdjust="spacing" textLength="103" x="36" y="546.8467">MemoryChunk</text><line style="stroke:#181818;stroke-width:0.5;" x1="8" x2="141" y1="558" y2="558"/><line style="stroke:#181818;stroke-width:0.5;" x1="8" x2="141" y1="566" y2="566"/></g><!--reverse link Producer to NetworkFetchProducer--><g id="link_Producer_NetworkFetchProducer"><path codeLine="2" d="M308.5,76.217 C308.5,94.165 308.5,100.892 308.5,118.828 " fill="none" id="Producer-backto-NetworkFetchProducer" style="stroke:#181818;stroke-width:1.0;"/><polygon fill="none" points="308.5,58.217,302.5,76.217,314.5,76.217,308.5,58.217" style="stroke:#181818;stroke-width:1.0;"/></g><!--reverse link NetworkFetchProducer to NetworkFetcher--><g id="link_NetworkFetchProducer_NetworkFetcher"><path codeLine="3" d="M365.9464,113.911 C391.2334,102.197 412.583,94.429 443,88.5 C501.892,77.022 519.592,74.768 578,88.5 C603.426,94.478 629.697,107.293 650.132,118.994 " fill="none" id="NetworkFetchProducer-backto-NetworkFetcher" style="stroke:#181818;stroke-width:1.0;"/><polygon fill="#181818" points="355.058,118.955,362.1836,120.0625,365.9464,113.911,358.8209,112.8035,355.058,118.955" style="stroke:#181818;stroke-width:1.0;"/></g><!--reverse link NetworkFetchProducer to ByteArrayPool--><g id="link_NetworkFetchProducer_ByteArrayPool"><path codeLine="5" d="M419.527,143 C431.326,143 431.125,143 442.924,143 " fill="none" id="NetworkFetchProducer-backto-ByteArrayPool" style="stroke:#181818;stroke-width:1.0;"/><polygon fill="#181818" points="407.527,143,413.527,147,419.527,143,413.527,139,407.527,143" style="stroke:#181818;stroke-width:1.0;"/></g><!--reverse link BaseNetworkFetcher to HttpUrlConnectionNetworkFetcher--><g id="link_BaseNetworkFetcher_HttpUrlConnectionNetworkFetcher"><path codeLine="7" d="M679.97,305.9968 C674.914,333.5218 669.805,361.339 664.758,388.816 " fill="none" id="BaseNetworkFetcher-backto-HttpUrlConnectionNetworkFetcher" style="stroke:#181818;stroke-width:1.0;"/><polygon fill="none" points="683.222,288.293,674.0688,304.9128,685.8713,307.0808,683.222,288.293" style="stroke:#181818;stroke-width:1.0;"/></g><!--reverse link NetworkFetcher to BaseNetworkFetcher--><g id="link_NetworkFetcher_BaseNetworkFetcher"><path codeLine="8" d="M687.5,185.227 C687.5,206.195 687.5,218.882 687.5,239.832 " fill="none" id="NetworkFetcher-backto-BaseNetworkFetcher" style="stroke:#181818;stroke-width:1.0;"/><polygon fill="none" points="687.5,167.227,681.5,185.227,693.5,185.227,687.5,167.227" style="stroke:#181818;stroke-width:1.0;"/></g><!--reverse link BaseNetworkFetcher to OkHttpNetworkFetcher--><g id="link_BaseNetworkFetcher_OkHttpNetworkFetcher"><path codeLine="9" d="M742.7,297.1997 C789.827,324.6907 852.456,361.224 899.663,388.762 " fill="none" id="BaseNetworkFetcher-backto-OkHttpNetworkFetcher" style="stroke:#181818;stroke-width:1.0;"/><polygon fill="none" points="727.152,288.13,739.6767,302.3824,745.7232,292.0171,727.152,288.13" style="stroke:#181818;stroke-width:1.0;"/></g><!--reverse link NetworkFetchProducer to MemoryPooledByteBufferFactory--><g id="link_NetworkFetchProducer_MemoryPooledByteBufferFactory"><path codeLine="10" d="M269.602,174.6547 C247.716,191.9027 226.911,208.299 202.077,227.87 " fill="none" id="NetworkFetchProducer-backto-MemoryPooledByteBufferFactory" style="stroke:#181818;stroke-width:1.0;"/><polygon fill="#181818" points="279.027,167.227,271.8386,167.7992,269.602,174.6547,276.7904,174.0825,279.027,167.227" style="stroke:#181818;stroke-width:1.0;"/></g><!--link MemoryPooledByteBufferOutputStream to MemoryPooledByteBuffer--><g id="link_MemoryPooledByteBufferOutputStream_MemoryPooledByteBuffer"><path codeLine="14" d="M448.5,433 C511.716,433 407.4903,489.4384 339.5973,523.2675 " fill="none" id="MemoryPooledByteBufferOutputStream-to-MemoryPooledByteBuffer" style="stroke:#181818;stroke-width:1.0;"/><polygon fill="#181818" points="334.227,525.9434,344.0663,525.5098,338.7022,523.7135,340.4985,518.3494,334.227,525.9434" style="stroke:#181818;stroke-width:1.0;"/><text fill="#000000" font-family="sans-serif" font-size="13" lengthAdjust="spacing" textLength="39" x="420.5" y="492.0669">return</text></g><!--link MemoryPooledByteBufferFactory to MemoryPooledByteBufferOutputStream--><g id="link_MemoryPooledByteBufferFactory_MemoryPooledByteBufferOutputStream"><path codeLine="18" d="M294.5,284 C313.147,284 305.2925,332.945 296.7175,370.833 " fill="none" id="MemoryPooledByteBufferFactory-to-MemoryPooledByteBufferOutputStream" style="stroke:#181818;stroke-width:1.0;"/><polygon fill="#181818" points="295.393,376.685,301.281,368.79,296.4967,371.8083,293.4783,367.024,295.393,376.685" style="stroke:#181818;stroke-width:1.0;"/><text fill="#000000" font-family="sans-serif" font-size="13" lengthAdjust="spacing" textLength="39" x="305.5" y="343.0669">return</text></g><!--link NetworkFetchProducer to MemoryPooledByteBufferOutputStream--><g id="link_NetworkFetchProducer_MemoryPooledByteBufferOutputStream"><path codeLine="19" d="M321.492,167.02 C341.41,205.515 374.676,284.85 349.5,347 C345.075,357.924 341.8719,363.5882 333.8469,372.4122 " fill="none" id="NetworkFetchProducer-to-MemoryPooledByteBufferOutputStream" style="stroke:#181818;stroke-width:1.0;stroke-dasharray:7.0,7.0;"/><polygon fill="#181818" points="329.81,376.851,338.8246,372.884,333.1741,373.152,332.9061,367.5015,329.81,376.851" style="stroke:#181818;stroke-width:1.0;"/><text fill="#000000" font-family="sans-serif" font-size="13" lengthAdjust="spacing" textLength="91" x="360.5" y="268.5669">toByteBuffer()</text></g><!--reverse link MemoryPooledByteBufferOutputStream to MemoryChunkPool--><g id="link_MemoryPooledByteBufferOutputStream_MemoryChunkPool"><path codeLine="20" d="M429.2386,454.1437 C447.1316,462.2237 453.524,467.105 468.5,479 C484.112,491.4002 495.969,510.7726 503.582,525.997 " fill="none" id="MemoryPooledByteBufferOutputStream-backto-MemoryChunkPool" style="stroke:#181818;stroke-width:1.0;"/><polygon fill="#181818" points="418.302,449.205,422.1241,455.3199,429.2386,454.1437,425.4165,448.0288,418.302,449.205" style="stroke:#181818;stroke-width:1.0;"/></g><!--reverse link MemoryPooledByteBufferOutputStream to MemoryChunk--><g id="link_MemoryPooledByteBufferOutputStream_MemoryChunk"><path codeLine="21" d="M221.2311,455.5627 C183.1991,479.7817 143.842,504.8436 110.72,525.9353 " fill="none" id="MemoryPooledByteBufferOutputStream-backto-MemoryChunk" style="stroke:#181818;stroke-width:1.0;"/><polygon fill="#181818" points="231.353,449.117,224.1435,448.9659,221.2311,455.5627,228.4406,455.7138,231.353,449.117" style="stroke:#181818;stroke-width:1.0;"/></g><!--link MemoryChunk to MemoryPooledByteBuffer--><g id="link_MemoryChunk_MemoryPooledByteBuffer"><path codeLine="23" d="M142.406,550 C154.039,550 153.671,550 165.304,550 " fill="none" id="MemoryChunk-to-MemoryPooledByteBuffer" style="stroke:#181818;stroke-width:1.0;"/><polygon fill="#181818" points="177.304,550,171.304,546,165.304,550,171.304,554,177.304,550" style="stroke:#181818;stroke-width:1.0;"/></g><!--SRC=[bPDDReCm48Ntd69s_P6S0w08gKIDsaMRI5KFu9eX8C16mrWHQdhtcee2eK0Jxp3lVNxFFwbcf5WgX3sPo2gazQDM9iBekP073BnNvAEXR8kiaby925kAKz1PfaNtWj93mWA6VvrOVbHCKZ6yO66etYHMPtjZyZaAX3NZ0v6iVrITFPGLZj1_fs1z4WAUcCjtoZT6QrIS6ZtoJNckmE-oPe45vg2DQ6itNJ1ggeKsZf6shfARzbGkgsf6ixDSMdvZGbd0fmTkJ0k1JVznU-TzUVy3VNze0Y62ERWFX6n9BsPj-xGnDHw7Qor4Qds-Fx8i13gJTU4czt-rkX0osi0BFFtHzZVwUfjt0zClphKVSsRm3fbZp6VORm00]--></g></svg>