<?xml version="1.0" encoding="us-ascii" standalone="no"?><svg xmlns="http://www.w3.org/2000/svg" xmlns:xlink="http://www.w3.org/1999/xlink" contentStyleType="text/css" height="634px" preserveAspectRatio="none" style="width:333px;height:634px;background:#FFFFFF;" version="1.1" viewBox="0 0 333 634" width="333px" zoomAndPan="magnify"><defs/><g><!--class IBinder--><g id="elem_IBinder"><rect codeLine="2" fill="#F1F1F1" height="48" id="IBinder" rx="2.5" ry="2.5" style="stroke:#181818;stroke-width:0.5;" width="83" x="32.5" y="123"/><ellipse cx="47.5" cy="139" fill="#B4A7E5" rx="11" ry="11" style="stroke:#181818;stroke-width:1.0;"/><path d="M48.4531,135.7813 L50.1719,135.7813 C50.5625,135.7813 50.75,135.75 50.875,135.6719 C51.1406,135.5156 51.2813,135.2344 51.2813,134.9375 C51.2813,134.6719 51.1719,134.4063 50.9375,134.2344 C50.7656,134.125 50.625,134.0938 50.1719,134.0938 L45.0313,134.0938 C44.5938,134.0938 44.4688,134.1094 44.3125,134.2031 C44.0625,134.3594 43.9063,134.6563 43.9063,134.9375 C43.9063,135.2188 44.0469,135.4688 44.2656,135.6406 C44.4219,135.75 44.6094,135.7813 45.0313,135.7813 L46.75,135.7813 L46.75,142.2969 L45.0313,142.2969 C44.5938,142.2969 44.4688,142.3125 44.3125,142.4219 C44.0625,142.5781 43.9063,142.8594 43.9063,143.1563 C43.9063,143.4063 44.0469,143.6719 44.2656,143.8281 C44.4219,143.9531 44.625,144 45.0313,144 L50.1719,144 C50.9219,144 51.2813,143.7188 51.2813,143.1563 C51.2813,142.875 51.1719,142.625 50.9375,142.4531 C50.7656,142.3281 50.625,142.2969 50.1719,142.2969 L48.4531,142.2969 L48.4531,135.7813 Z " fill="#000000"/><text fill="#000000" font-family="sans-serif" font-size="14" font-style="italic" lengthAdjust="spacing" textLength="51" x="61.5" y="143.8467">IBinder</text><line style="stroke:#181818;stroke-width:0.5;" x1="33.5" x2="114.5" y1="155" y2="155"/><line style="stroke:#181818;stroke-width:0.5;" x1="33.5" x2="114.5" y1="163" y2="163"/></g><!--class IMediaPlayerService--><g id="elem_IMediaPlayerService"><rect codeLine="3" fill="#F1F1F1" height="48" id="IMediaPlayerService" rx="2.5" ry="2.5" style="stroke:#181818;stroke-width:0.5;" width="176" x="150" y="247"/><ellipse cx="165" cy="263" fill="#B4A7E5" rx="11" ry="11" style="stroke:#181818;stroke-width:1.0;"/><path d="M165.9531,259.7813 L167.6719,259.7813 C168.0625,259.7813 168.25,259.75 168.375,259.6719 C168.6406,259.5156 168.7813,259.2344 168.7813,258.9375 C168.7813,258.6719 168.6719,258.4063 168.4375,258.2344 C168.2656,258.125 168.125,258.0938 167.6719,258.0938 L162.5313,258.0938 C162.0938,258.0938 161.9688,258.1094 161.8125,258.2031 C161.5625,258.3594 161.4063,258.6563 161.4063,258.9375 C161.4063,259.2188 161.5469,259.4688 161.7656,259.6406 C161.9219,259.75 162.1094,259.7813 162.5313,259.7813 L164.25,259.7813 L164.25,266.2969 L162.5313,266.2969 C162.0938,266.2969 161.9688,266.3125 161.8125,266.4219 C161.5625,266.5781 161.4063,266.8594 161.4063,267.1563 C161.4063,267.4063 161.5469,267.6719 161.7656,267.8281 C161.9219,267.9531 162.125,268 162.5313,268 L167.6719,268 C168.4219,268 168.7813,267.7188 168.7813,267.1563 C168.7813,266.875 168.6719,266.625 168.4375,266.4531 C168.2656,266.3281 168.125,266.2969 167.6719,266.2969 L165.9531,266.2969 L165.9531,259.7813 Z " fill="#000000"/><text fill="#000000" font-family="sans-serif" font-size="14" font-style="italic" lengthAdjust="spacing" textLength="144" x="179" y="267.8467">IMediaPlayerService</text><line style="stroke:#181818;stroke-width:0.5;" x1="151" x2="325" y1="279" y2="279"/><line style="stroke:#181818;stroke-width:0.5;" x1="151" x2="325" y1="287" y2="287"/></g><!--class BBinder--><g id="elem_BBinder"><rect codeLine="4" fill="#F1F1F1" height="64.2969" id="BBinder" rx="2.5" ry="2.5" style="stroke:#181818;stroke-width:0.5;" width="106" x="9" y="239"/><ellipse cx="31.65" cy="255" fill="#ADD1B2" rx="11" ry="11" style="stroke:#181818;stroke-width:1.0;"/><path d="M33.9938,250.6719 C33.0563,250.2344 32.4625,250.0938 31.5875,250.0938 C28.9625,250.0938 26.9625,252.1719 26.9625,254.8906 L26.9625,256.0156 C26.9625,258.5938 29.0719,260.4844 31.9625,260.4844 C33.1813,260.4844 34.3375,260.1875 35.0875,259.6406 C35.6656,259.2344 35.9938,258.7813 35.9938,258.3906 C35.9938,257.9375 35.6031,257.5469 35.1344,257.5469 C34.9156,257.5469 34.7125,257.625 34.525,257.8125 C34.0719,258.2969 34.0719,258.2969 33.8844,258.3906 C33.4625,258.6563 32.775,258.7813 32.0094,258.7813 C29.9625,258.7813 28.6656,257.6875 28.6656,255.9844 L28.6656,254.8906 C28.6656,253.1094 29.9156,251.7969 31.65,251.7969 C32.2281,251.7969 32.8375,251.9531 33.3063,252.2031 C33.7906,252.4844 33.9625,252.7031 34.0563,253.1094 C34.1188,253.5156 34.15,253.6406 34.2906,253.7656 C34.4313,253.9063 34.6656,254.0156 34.8844,254.0156 C35.15,254.0156 35.4156,253.875 35.5875,253.6563 C35.6969,253.5 35.7281,253.3125 35.7281,252.8906 L35.7281,251.4688 C35.7281,251.0313 35.7125,250.9063 35.6188,250.75 C35.4625,250.4844 35.1813,250.3438 34.8844,250.3438 C34.5875,250.3438 34.3844,250.4375 34.1656,250.75 L33.9938,250.6719 Z " fill="#000000"/><text fill="#000000" font-family="sans-serif" font-size="14" lengthAdjust="spacing" textLength="57" x="47.35" y="259.8467">BBinder</text><line style="stroke:#181818;stroke-width:0.5;" x1="10" x2="114" y1="271" y2="271"/><polygon fill="none" points="20,280.6484,16,286.6484,24,286.6484" style="stroke:#1963A0;stroke-width:1.0;"/><text fill="#000000" font-family="sans-serif" font-size="14" lengthAdjust="spacing" textLength="80" x="29" y="287.9951">onTransact</text><line style="stroke:#181818;stroke-width:0.5;" x1="10" x2="114" y1="295.2969" y2="295.2969"/></g><!--class IInterface--><g id="elem_IInterface"><rect codeLine="7" fill="#F1F1F1" height="64.2969" id="IInterface" rx="2.5" ry="2.5" style="stroke:#181818;stroke-width:0.5;" width="102" x="175" y="115"/><ellipse cx="190" cy="131" fill="#ADD1B2" rx="11" ry="11" style="stroke:#181818;stroke-width:1.0;"/><path d="M192.3438,126.6719 C191.4063,126.2344 190.8125,126.0938 189.9375,126.0938 C187.3125,126.0938 185.3125,128.1719 185.3125,130.8906 L185.3125,132.0156 C185.3125,134.5938 187.4219,136.4844 190.3125,136.4844 C191.5313,136.4844 192.6875,136.1875 193.4375,135.6406 C194.0156,135.2344 194.3438,134.7813 194.3438,134.3906 C194.3438,133.9375 193.9531,133.5469 193.4844,133.5469 C193.2656,133.5469 193.0625,133.625 192.875,133.8125 C192.4219,134.2969 192.4219,134.2969 192.2344,134.3906 C191.8125,134.6563 191.125,134.7813 190.3594,134.7813 C188.3125,134.7813 187.0156,133.6875 187.0156,131.9844 L187.0156,130.8906 C187.0156,129.1094 188.2656,127.7969 190,127.7969 C190.5781,127.7969 191.1875,127.9531 191.6563,128.2031 C192.1406,128.4844 192.3125,128.7031 192.4063,129.1094 C192.4688,129.5156 192.5,129.6406 192.6406,129.7656 C192.7813,129.9063 193.0156,130.0156 193.2344,130.0156 C193.5,130.0156 193.7656,129.875 193.9375,129.6563 C194.0469,129.5 194.0781,129.3125 194.0781,128.8906 L194.0781,127.4688 C194.0781,127.0313 194.0625,126.9063 193.9688,126.75 C193.8125,126.4844 193.5313,126.3438 193.2344,126.3438 C192.9375,126.3438 192.7344,126.4375 192.5156,126.75 L192.3438,126.6719 Z " fill="#000000"/><text fill="#000000" font-family="sans-serif" font-size="14" lengthAdjust="spacing" textLength="70" x="204" y="135.8467">IInterface</text><line style="stroke:#181818;stroke-width:0.5;" x1="176" x2="276" y1="147" y2="147"/><ellipse cx="186" cy="160.6484" fill="none" rx="3" ry="3" style="stroke:#038048;stroke-width:1.0;"/><text fill="#000000" font-family="sans-serif" font-size="14" lengthAdjust="spacing" textLength="62" x="195" y="163.9951">asBinder</text><line style="stroke:#181818;stroke-width:0.5;" x1="176" x2="276" y1="171.2969" y2="171.2969"/></g><!--class RefBase--><g id="elem_RefBase"><rect fill="#F1F1F1" height="48" id="RefBase" rx="2.5" ry="2.5" style="stroke:#181818;stroke-width:0.5;" width="91" x="92.5" y="7"/><ellipse cx="107.5" cy="23" fill="#ADD1B2" rx="11" ry="11" style="stroke:#181818;stroke-width:1.0;"/><path d="M109.8438,18.6719 C108.9063,18.2344 108.3125,18.0938 107.4375,18.0938 C104.8125,18.0938 102.8125,20.1719 102.8125,22.8906 L102.8125,24.0156 C102.8125,26.5938 104.9219,28.4844 107.8125,28.4844 C109.0313,28.4844 110.1875,28.1875 110.9375,27.6406 C111.5156,27.2344 111.8438,26.7813 111.8438,26.3906 C111.8438,25.9375 111.4531,25.5469 110.9844,25.5469 C110.7656,25.5469 110.5625,25.625 110.375,25.8125 C109.9219,26.2969 109.9219,26.2969 109.7344,26.3906 C109.3125,26.6563 108.625,26.7813 107.8594,26.7813 C105.8125,26.7813 104.5156,25.6875 104.5156,23.9844 L104.5156,22.8906 C104.5156,21.1094 105.7656,19.7969 107.5,19.7969 C108.0781,19.7969 108.6875,19.9531 109.1563,20.2031 C109.6406,20.4844 109.8125,20.7031 109.9063,21.1094 C109.9688,21.5156 110,21.6406 110.1406,21.7656 C110.2813,21.9063 110.5156,22.0156 110.7344,22.0156 C111,22.0156 111.2656,21.875 111.4375,21.6563 C111.5469,21.5 111.5781,21.3125 111.5781,20.8906 L111.5781,19.4688 C111.5781,19.0313 111.5625,18.9063 111.4688,18.75 C111.3125,18.4844 111.0313,18.3438 110.7344,18.3438 C110.4375,18.3438 110.2344,18.4375 110.0156,18.75 L109.8438,18.6719 Z " fill="#000000"/><text fill="#000000" font-family="sans-serif" font-size="14" lengthAdjust="spacing" textLength="59" x="121.5" y="27.8467">RefBase</text><line style="stroke:#181818;stroke-width:0.5;" x1="93.5" x2="182.5" y1="39" y2="39"/><line style="stroke:#181818;stroke-width:0.5;" x1="93.5" x2="182.5" y1="47" y2="47"/></g><!--class BnInterface--><g id="elem_BnInterface"><rect codeLine="12" fill="#F1F1F1" height="48" id="BnInterface" rx="2.5" ry="2.5" style="stroke:#181818;stroke-width:0.5;" width="240" x="30" y="363"/><ellipse cx="45" cy="379" fill="#ADD1B2" rx="11" ry="11" style="stroke:#181818;stroke-width:1.0;"/><path d="M47.3438,374.6719 C46.4063,374.2344 45.8125,374.0938 44.9375,374.0938 C42.3125,374.0938 40.3125,376.1719 40.3125,378.8906 L40.3125,380.0156 C40.3125,382.5938 42.4219,384.4844 45.3125,384.4844 C46.5313,384.4844 47.6875,384.1875 48.4375,383.6406 C49.0156,383.2344 49.3438,382.7813 49.3438,382.3906 C49.3438,381.9375 48.9531,381.5469 48.4844,381.5469 C48.2656,381.5469 48.0625,381.625 47.875,381.8125 C47.4219,382.2969 47.4219,382.2969 47.2344,382.3906 C46.8125,382.6563 46.125,382.7813 45.3594,382.7813 C43.3125,382.7813 42.0156,381.6875 42.0156,379.9844 L42.0156,378.8906 C42.0156,377.1094 43.2656,375.7969 45,375.7969 C45.5781,375.7969 46.1875,375.9531 46.6563,376.2031 C47.1406,376.4844 47.3125,376.7031 47.4063,377.1094 C47.4688,377.5156 47.5,377.6406 47.6406,377.7656 C47.7813,377.9063 48.0156,378.0156 48.2344,378.0156 C48.5,378.0156 48.7656,377.875 48.9375,377.6563 C49.0469,377.5 49.0781,377.3125 49.0781,376.8906 L49.0781,375.4688 C49.0781,375.0313 49.0625,374.9063 48.9688,374.75 C48.8125,374.4844 48.5313,374.3438 48.2344,374.3438 C47.9375,374.3438 47.7344,374.4375 47.5156,374.75 L47.3438,374.6719 Z " fill="#000000"/><text fill="#000000" font-family="sans-serif" font-size="14" lengthAdjust="spacing" textLength="85" x="59" y="383.8467">BnInterface</text><rect fill="#FFFFFF" height="15.9688" style="stroke:#181818;stroke-width:1.0;stroke-dasharray:2.0,2.0;" width="121" x="152" y="360"/><text fill="#000000" font-family="sans-serif" font-size="12" font-style="italic" lengthAdjust="spacing" textLength="119" x="153" y="372.1387">IMediaPlayerService</text><line style="stroke:#181818;stroke-width:0.5;" x1="31" x2="269" y1="395" y2="395"/><line style="stroke:#181818;stroke-width:0.5;" x1="31" x2="269" y1="403" y2="403"/></g><!--class BnMediaPlayerService--><g id="elem_BnMediaPlayerService"><rect fill="#F1F1F1" height="48" id="BnMediaPlayerService" rx="2.5" ry="2.5" style="stroke:#181818;stroke-width:0.5;" width="190" x="55" y="471"/><ellipse cx="70" cy="487" fill="#ADD1B2" rx="11" ry="11" style="stroke:#181818;stroke-width:1.0;"/><path d="M72.3438,482.6719 C71.4063,482.2344 70.8125,482.0938 69.9375,482.0938 C67.3125,482.0938 65.3125,484.1719 65.3125,486.8906 L65.3125,488.0156 C65.3125,490.5938 67.4219,492.4844 70.3125,492.4844 C71.5313,492.4844 72.6875,492.1875 73.4375,491.6406 C74.0156,491.2344 74.3438,490.7813 74.3438,490.3906 C74.3438,489.9375 73.9531,489.5469 73.4844,489.5469 C73.2656,489.5469 73.0625,489.625 72.875,489.8125 C72.4219,490.2969 72.4219,490.2969 72.2344,490.3906 C71.8125,490.6563 71.125,490.7813 70.3594,490.7813 C68.3125,490.7813 67.0156,489.6875 67.0156,487.9844 L67.0156,486.8906 C67.0156,485.1094 68.2656,483.7969 70,483.7969 C70.5781,483.7969 71.1875,483.9531 71.6563,484.2031 C72.1406,484.4844 72.3125,484.7031 72.4063,485.1094 C72.4688,485.5156 72.5,485.6406 72.6406,485.7656 C72.7813,485.9063 73.0156,486.0156 73.2344,486.0156 C73.5,486.0156 73.7656,485.875 73.9375,485.6563 C74.0469,485.5 74.0781,485.3125 74.0781,484.8906 L74.0781,483.4688 C74.0781,483.0313 74.0625,482.9063 73.9688,482.75 C73.8125,482.4844 73.5313,482.3438 73.2344,482.3438 C72.9375,482.3438 72.7344,482.4375 72.5156,482.75 L72.3438,482.6719 Z " fill="#000000"/><text fill="#000000" font-family="sans-serif" font-size="14" lengthAdjust="spacing" textLength="158" x="84" y="491.8467">BnMediaPlayerService</text><line style="stroke:#181818;stroke-width:0.5;" x1="56" x2="244" y1="503" y2="503"/><line style="stroke:#181818;stroke-width:0.5;" x1="56" x2="244" y1="511" y2="511"/></g><!--class MediaPlayerService--><g id="elem_MediaPlayerService"><rect fill="#F1F1F1" height="48" id="MediaPlayerService" rx="2.5" ry="2.5" style="stroke:#181818;stroke-width:0.5;" width="171" x="64.5" y="579"/><ellipse cx="79.5" cy="595" fill="#ADD1B2" rx="11" ry="11" style="stroke:#181818;stroke-width:1.0;"/><path d="M81.8438,590.6719 C80.9063,590.2344 80.3125,590.0938 79.4375,590.0938 C76.8125,590.0938 74.8125,592.1719 74.8125,594.8906 L74.8125,596.0156 C74.8125,598.5938 76.9219,600.4844 79.8125,600.4844 C81.0313,600.4844 82.1875,600.1875 82.9375,599.6406 C83.5156,599.2344 83.8438,598.7813 83.8438,598.3906 C83.8438,597.9375 83.4531,597.5469 82.9844,597.5469 C82.7656,597.5469 82.5625,597.625 82.375,597.8125 C81.9219,598.2969 81.9219,598.2969 81.7344,598.3906 C81.3125,598.6563 80.625,598.7813 79.8594,598.7813 C77.8125,598.7813 76.5156,597.6875 76.5156,595.9844 L76.5156,594.8906 C76.5156,593.1094 77.7656,591.7969 79.5,591.7969 C80.0781,591.7969 80.6875,591.9531 81.1563,592.2031 C81.6406,592.4844 81.8125,592.7031 81.9063,593.1094 C81.9688,593.5156 82,593.6406 82.1406,593.7656 C82.2813,593.9063 82.5156,594.0156 82.7344,594.0156 C83,594.0156 83.2656,593.875 83.4375,593.6563 C83.5469,593.5 83.5781,593.3125 83.5781,592.8906 L83.5781,591.4688 C83.5781,591.0313 83.5625,590.9063 83.4688,590.75 C83.3125,590.4844 83.0313,590.3438 82.7344,590.3438 C82.4375,590.3438 82.2344,590.4375 82.0156,590.75 L81.8438,590.6719 Z " fill="#000000"/><text fill="#000000" font-family="sans-serif" font-size="14" lengthAdjust="spacing" textLength="139" x="93.5" y="599.8467">MediaPlayerService</text><line style="stroke:#181818;stroke-width:0.5;" x1="65.5" x2="234.5" y1="611" y2="611"/><line style="stroke:#181818;stroke-width:0.5;" x1="65.5" x2="234.5" y1="619" y2="619"/></g><!--reverse link RefBase to IInterface--><g id="link_RefBase_IInterface"><path codeLine="10" d="M166.8071,69.3185 C180.0661,86.4945 187.314,95.884 201.881,114.755 " fill="none" id="RefBase-backto-IInterface" style="stroke:#181818;stroke-width:1.0;"/><polygon fill="none" points="155.808,55.07,162.0576,72.9849,171.5566,65.6521,155.808,55.07" style="stroke:#181818;stroke-width:1.0;"/></g><!--reverse link IInterface to IMediaPlayerService--><g id="link_IInterface_IMediaPlayerService"><path codeLine="11" d="M230.8207,197.0146 C232.8897,218.0526 233.818,227.481 235.704,246.661 " fill="none" id="IInterface-backto-IMediaPlayerService" style="stroke:#181818;stroke-width:1.0;"/><polygon fill="none" points="229.059,179.101,224.8495,197.6018,236.7919,196.4273,229.059,179.101" style="stroke:#181818;stroke-width:1.0;"/></g><!--reverse link RefBase to IBinder--><g id="link_RefBase_IBinder"><path codeLine="13" d="M116.237,70.7655 C105.133,90.5435 98.0302,103.196 86.9321,122.965 " fill="none" id="RefBase-backto-IBinder" style="stroke:#181818;stroke-width:1.0;"/><polygon fill="none" points="125.049,55.07,111.0052,67.8282,121.4689,73.7028,125.049,55.07" style="stroke:#181818;stroke-width:1.0;"/></g><!--reverse link IBinder to BBinder--><g id="link_IBinder_BBinder"><path codeLine="14" d="M69.9527,189.1476 C68.0759,208.2296 67.1615,217.525 65.093,238.555 " fill="none" id="IBinder-backto-BBinder" style="stroke:#181818;stroke-width:1.0;"/><polygon fill="none" points="71.7146,171.234,63.9815,188.5603,75.9239,189.7349,71.7146,171.234" style="stroke:#181818;stroke-width:1.0;"/></g><!--reverse link BBinder to BnInterface--><g id="link_BBinder_BnInterface"><path codeLine="15" d="M97.0455,317.3995 C111.5997,336.2535 118.85,345.647 132.126,362.845 " fill="none" id="BBinder-backto-BnInterface" style="stroke:#181818;stroke-width:1.0;"/><polygon fill="none" points="86.0464,303.151,92.2959,321.0659,101.795,313.7332,86.0464,303.151" style="stroke:#181818;stroke-width:1.0;"/></g><!--reverse link IMediaPlayerService to BnInterface--><g id="link_IMediaPlayerService_BnInterface"><path codeLine="16" d="M209.1927,309.3184 C193.9247,329.0964 183.042,343.196 167.782,362.965 " fill="none" id="IMediaPlayerService-backto-BnInterface" style="stroke:#181818;stroke-width:1.0;"/><polygon fill="none" points="220.192,295.07,204.4433,305.6519,213.9422,312.9848,220.192,295.07" style="stroke:#181818;stroke-width:1.0;"/></g><!--reverse link BnInterface to BnMediaPlayerService--><g id="link_BnInterface_BnMediaPlayerService"><path codeLine="17" d="M150,429 C150,446.658 150,452.941 150,470.678 " fill="none" id="BnInterface-backto-BnMediaPlayerService" style="stroke:#181818;stroke-width:1.0;"/><polygon fill="none" points="150,411,144,429,156,429,150,411" style="stroke:#181818;stroke-width:1.0;"/></g><!--reverse link BnMediaPlayerService to MediaPlayerService--><g id="link_BnMediaPlayerService_MediaPlayerService"><path codeLine="18" d="M150,537 C150,554.6584 150,560.9408 150,578.6784 " fill="none" id="BnMediaPlayerService-backto-MediaPlayerService" style="stroke:#181818;stroke-width:1.0;"/><polygon fill="none" points="150,519,144,537,156,537,150,519" style="stroke:#181818;stroke-width:1.0;"/></g><!--SRC=[KrVmJKt9J0p8IQnCBGfEBIhBJ4vzldlviyxzJritFz-ycoiphoIrA2qnELN1qoapBoMr25a4KozNSavYSR624qIjGZMN0X3KvUU552Nc5IScbt3LGbLuUiADWIZIJYo6Mb3B5PIQvfHOdAfWKwEhYwII2qaJH0gt0_BWIcsmgB93im9gCvI624BzmEM48fY7v1fCSp4L8R5XabWSZKqGeXnJ7000]--></g></svg>