<?xml version="1.0" encoding="us-ascii" standalone="no"?><svg xmlns="http://www.w3.org/2000/svg" xmlns:xlink="http://www.w3.org/1999/xlink" contentStyleType="text/css" height="760px" preserveAspectRatio="none" style="width:741px;height:760px;background:#FFFFFF;" version="1.1" viewBox="0 0 741 760" width="741px" zoomAndPan="magnify"><defs/><g><ellipse cx="248.75" cy="20" fill="#222222" rx="10" ry="10" style="stroke:#222222;stroke-width:1.0;"/><rect fill="#F1F1F1" height="33.9688" rx="12.5" ry="12.5" style="stroke:#181818;stroke-width:0.5;" width="131" x="183.25" y="50"/><text fill="#000000" font-family="sans-serif" font-size="12" lengthAdjust="spacing" textLength="111" x="193.25" y="71.1387">&#36890;&#36807;url&#35835;&#21462;&#26412;&#22320;&#32531;&#23384;</text><rect fill="#F1F1F1" height="61.9063" rx="12.5" ry="12.5" style="stroke:#181818;stroke-width:0.5;" width="196" x="150.75" y="103.9688"/><text fill="#000000" font-family="sans-serif" font-size="12" lengthAdjust="spacing" textLength="176" x="160.75" y="125.1074">&#35745;&#31639;&#24471;&#21040;CacheStrategy&#65292;&#21253;&#21547;:</text><ellipse cx="166.25" cy="134.4063" fill="#000000" rx="2.5" ry="2.5" style="stroke:#000000;stroke-width:0.0;"/><text fill="#000000" font-family="sans-serif" font-size="12" lengthAdjust="spacing" textLength="98" x="172.75" y="139.0762">networkRequest</text><ellipse cx="166.25" cy="148.375" fill="#000000" rx="2.5" ry="2.5" style="stroke:#000000;stroke-width:0.0;"/><text fill="#000000" font-family="sans-serif" font-size="12" lengthAdjust="spacing" textLength="96" x="172.75" y="153.0449">cacheResponse</text><polygon fill="#F1F1F1" points="166.75,185.875,330.75,185.875,342.75,198.6797,330.75,211.4844,166.75,211.4844,154.75,198.6797,166.75,185.875" style="stroke:#181818;stroke-width:0.5;"/><text fill="#000000" font-family="sans-serif" font-size="11" lengthAdjust="spacing" textLength="160" x="166.75" y="196.0854">networkRequest == null &amp;&amp;</text><text fill="#000000" font-family="sans-serif" font-size="11" lengthAdjust="spacing" textLength="136" x="166.75" y="208.8901">cacheResponse == null</text><text fill="#000000" font-family="sans-serif" font-size="11" lengthAdjust="spacing" textLength="21" x="133.75" y="196.0854">yes</text><text fill="#000000" font-family="sans-serif" font-size="11" lengthAdjust="spacing" textLength="14" x="342.75" y="196.0854">no</text><rect fill="#F1F1F1" height="47.9375" rx="12.5" ry="12.5" style="stroke:#181818;stroke-width:0.5;" width="166" x="11" y="221.4844"/><text fill="#000000" font-family="sans-serif" font-size="12" lengthAdjust="spacing" textLength="146" x="21" y="242.623">only-if-cached&#22330;&#26223;&#65292;&#20294;&#26159;</text><text fill="#000000" font-family="sans-serif" font-size="12" lengthAdjust="spacing" textLength="120" x="21" y="256.5918">&#32531;&#23384;&#19981;&#21512;&#27861;&#65292;&#19978;&#25253;504</text><polygon fill="#F1F1F1" points="334.5,221.4844,472.5,221.4844,484.5,233.4844,472.5,245.4844,334.5,245.4844,322.5,233.4844,334.5,221.4844" style="stroke:#181818;stroke-width:0.5;"/><text fill="#000000" font-family="sans-serif" font-size="11" lengthAdjust="spacing" textLength="138" x="334.5" y="237.2925">networkRequest == null</text><text fill="#000000" font-family="sans-serif" font-size="11" lengthAdjust="spacing" textLength="21" x="301.5" y="230.8901">yes</text><text fill="#000000" font-family="sans-serif" font-size="11" lengthAdjust="spacing" textLength="14" x="484.5" y="230.8901">no</text><rect fill="#F1F1F1" height="33.9688" rx="12.5" ry="12.5" style="stroke:#181818;stroke-width:0.5;" width="116" x="207" y="255.4844"/><text fill="#000000" font-family="sans-serif" font-size="12" lengthAdjust="spacing" textLength="96" x="217" y="276.623">&#20351;&#29992;&#32531;&#23384;&#21709;&#24212;&#35831;&#27714;</text><rect fill="#F1F1F1" height="47.9375" rx="12.5" ry="12.5" style="stroke:#181818;stroke-width:0.5;" width="214" x="435" y="255.4844"/><text fill="#000000" font-family="sans-serif" font-size="12" lengthAdjust="spacing" textLength="168" x="445" y="276.623">&#20351;&#29992;&#19979;&#19968;&#20010;&#25318;&#25130;&#22120;&#22788;&#29702;&#32593;&#32476;&#35831;&#27714;</text><text fill="#000000" font-family="sans-serif" font-size="12" lengthAdjust="spacing" textLength="194" x="445" y="290.5918">chain.proceed(networkRequest)</text><rect fill="#F1F1F1" height="33.9688" rx="12.5" ry="12.5" style="stroke:#181818;stroke-width:0.5;" width="116" x="484" y="371.8242"/><text fill="#000000" font-family="sans-serif" font-size="12" lengthAdjust="spacing" textLength="96" x="494" y="392.9629">&#36825;&#26159;&#19968;&#20010;&#26465;&#20214;&#35831;&#27714;</text><polygon fill="#F1F1F1" points="463,425.793,621,425.793,633,437.793,621,449.793,463,449.793,451,437.793,463,425.793" style="stroke:#181818;stroke-width:0.5;"/><text fill="#000000" font-family="sans-serif" font-size="11" lengthAdjust="spacing" textLength="158" x="463" y="441.6011">&#21709;&#24212;&#30721;&#26159;304&#65288;Not Modified&#65289;</text><text fill="#000000" font-family="sans-serif" font-size="11" lengthAdjust="spacing" textLength="21" x="430" y="435.1987">yes</text><text fill="#000000" font-family="sans-serif" font-size="11" lengthAdjust="spacing" textLength="14" x="633" y="435.1987">no</text><rect fill="#F1F1F1" height="47.9375" rx="12.5" ry="12.5" style="stroke:#181818;stroke-width:0.5;" width="156" x="363" y="459.793"/><text fill="#000000" font-family="sans-serif" font-size="12" lengthAdjust="spacing" textLength="136" x="373" y="480.9316">&#21512;&#24182;&#32593;&#32476;&#35831;&#27714;&#21644;&#26412;&#22320;&#32531;&#23384;,</text><text fill="#000000" font-family="sans-serif" font-size="12" lengthAdjust="spacing" textLength="108" x="373" y="494.9004">&#19981;&#38656;&#35201;&#26356;&#26032;&#26412;&#22320;&#32531;&#23384;</text><ellipse cx="441" cy="538.7305" fill="none" rx="11" ry="11" style="stroke:#222222;stroke-width:1.0;"/><ellipse cx="441" cy="538.7305" fill="#222222" rx="6" ry="6" style="stroke:#222222;stroke-width:1.0;"/><rect fill="#F1F1F1" height="33.9688" rx="12.5" ry="12.5" style="stroke:#181818;stroke-width:0.5;" width="116" x="585" y="459.793"/><text fill="#000000" font-family="sans-serif" font-size="12" lengthAdjust="spacing" textLength="96" x="595" y="480.9316">&#37322;&#25918;&#26412;&#22320;&#32531;&#23384;&#36164;&#28304;</text><polygon fill="#F1F1F1" points="476,323.4219,608,323.4219,620,335.4219,608,347.4219,476,347.4219,464,335.4219,476,323.4219" style="stroke:#181818;stroke-width:0.5;"/><text fill="#000000" font-family="sans-serif" font-size="11" lengthAdjust="spacing" textLength="21" x="546" y="357.6323">yes</text><text fill="#000000" font-family="sans-serif" font-size="11" lengthAdjust="spacing" textLength="132" x="476" y="339.23">cacheResponse != null</text><polygon fill="#F1F1F1" points="542,569.7305,554,581.7305,542,593.7305,530,581.7305,542,569.7305" style="stroke:#181818;stroke-width:0.5;"/><rect fill="#F1F1F1" height="33.9688" rx="12.5" ry="12.5" style="stroke:#181818;stroke-width:0.5;" width="68" x="508" y="613.7305"/><text fill="#000000" font-family="sans-serif" font-size="12" lengthAdjust="spacing" textLength="48" x="518" y="634.8691">&#20445;&#23384;&#32531;&#23384;</text><polygon fill="#F1F1F1" points="403.5,653.6992,415.5,665.6992,403.5,677.6992,391.5,665.6992,403.5,653.6992" style="stroke:#181818;stroke-width:0.5;"/><polygon fill="#F1F1F1" points="248.75,683.6992,260.75,695.6992,248.75,707.6992,236.75,695.6992,248.75,683.6992" style="stroke:#181818;stroke-width:0.5;"/><ellipse cx="248.75" cy="738.6992" fill="none" rx="11" ry="11" style="stroke:#222222;stroke-width:1.0;"/><ellipse cx="248.75" cy="738.6992" fill="#222222" rx="6" ry="6" style="stroke:#222222;stroke-width:1.0;"/><line style="stroke:#181818;stroke-width:1.0;" x1="248.75" x2="248.75" y1="30" y2="50"/><polygon fill="#181818" points="244.75,40,248.75,50,252.75,40,248.75,44" style="stroke:#181818;stroke-width:1.0;"/><line style="stroke:#181818;stroke-width:1.0;" x1="248.75" x2="248.75" y1="83.9688" y2="103.9688"/><polygon fill="#181818" points="244.75,93.9688,248.75,103.9688,252.75,93.9688,248.75,97.9688" style="stroke:#181818;stroke-width:1.0;"/><line style="stroke:#181818;stroke-width:1.0;" x1="441" x2="441" y1="507.7305" y2="527.7305"/><polygon fill="#181818" points="437,517.7305,441,527.7305,445,517.7305,441,521.7305" style="stroke:#181818;stroke-width:1.0;"/><line style="stroke:#181818;stroke-width:1.0;" x1="451" x2="441" y1="437.793" y2="437.793"/><line style="stroke:#181818;stroke-width:1.0;" x1="441" x2="441" y1="437.793" y2="459.793"/><polygon fill="#181818" points="437,449.793,441,459.793,445,449.793,441,453.793" style="stroke:#181818;stroke-width:1.0;"/><line style="stroke:#181818;stroke-width:1.0;" x1="633" x2="643" y1="437.793" y2="437.793"/><line style="stroke:#181818;stroke-width:1.0;" x1="643" x2="643" y1="437.793" y2="459.793"/><polygon fill="#181818" points="639,449.793,643,459.793,647,449.793,643,453.793" style="stroke:#181818;stroke-width:1.0;"/><line style="stroke:#181818;stroke-width:1.0;" x1="643" x2="643" y1="493.7617" y2="554.7305"/><line style="stroke:#181818;stroke-width:1.0;" x1="643" x2="542" y1="554.7305" y2="554.7305"/><line style="stroke:#181818;stroke-width:1.0;" x1="542" x2="542" y1="554.7305" y2="569.7305"/><polygon fill="#181818" points="538,559.7305,542,569.7305,546,559.7305,542,563.7305" style="stroke:#181818;stroke-width:1.0;"/><line style="stroke:#181818;stroke-width:1.0;" x1="542" x2="542" y1="405.793" y2="425.793"/><polygon fill="#181818" points="538,415.793,542,425.793,546,415.793,542,419.793" style="stroke:#181818;stroke-width:1.0;"/><line style="stroke:#181818;stroke-width:1.0;" x1="542" x2="542" y1="347.4219" y2="371.8242"/><polygon fill="#181818" points="538,361.8242,542,371.8242,546,361.8242,542,365.8242" style="stroke:#181818;stroke-width:1.0;"/><line style="stroke:#181818;stroke-width:1.0;" x1="620" x2="715" y1="335.4219" y2="335.4219"/><polygon fill="#181818" points="711,453.7773,715,463.7773,719,453.7773,715,457.7773" style="stroke:#181818;stroke-width:1.0;"/><line style="stroke:#181818;stroke-width:1.0;" x1="715" x2="715" y1="335.4219" y2="581.7305"/><line style="stroke:#181818;stroke-width:1.0;" x1="715" x2="554" y1="581.7305" y2="581.7305"/><polygon fill="#181818" points="564,577.7305,554,581.7305,564,585.7305,560,581.7305" style="stroke:#181818;stroke-width:1.0;"/><line style="stroke:#181818;stroke-width:1.0;" x1="542" x2="542" y1="303.4219" y2="323.4219"/><polygon fill="#181818" points="538,313.4219,542,323.4219,546,313.4219,542,317.4219" style="stroke:#181818;stroke-width:1.0;"/><line style="stroke:#181818;stroke-width:1.0;" x1="542" x2="542" y1="593.7305" y2="613.7305"/><polygon fill="#181818" points="538,603.7305,542,613.7305,546,603.7305,542,607.7305" style="stroke:#181818;stroke-width:1.0;"/><line style="stroke:#181818;stroke-width:1.0;" x1="322.5" x2="265" y1="233.4844" y2="233.4844"/><line style="stroke:#181818;stroke-width:1.0;" x1="265" x2="265" y1="233.4844" y2="255.4844"/><polygon fill="#181818" points="261,245.4844,265,255.4844,269,245.4844,265,249.4844" style="stroke:#181818;stroke-width:1.0;"/><line style="stroke:#181818;stroke-width:1.0;" x1="484.5" x2="542" y1="233.4844" y2="233.4844"/><line style="stroke:#181818;stroke-width:1.0;" x1="542" x2="542" y1="233.4844" y2="255.4844"/><polygon fill="#181818" points="538,245.4844,542,255.4844,546,245.4844,542,249.4844" style="stroke:#181818;stroke-width:1.0;"/><line style="stroke:#181818;stroke-width:1.0;" x1="265" x2="265" y1="289.4531" y2="665.6992"/><line style="stroke:#181818;stroke-width:1.0;" x1="265" x2="391.5" y1="665.6992" y2="665.6992"/><polygon fill="#181818" points="381.5,661.6992,391.5,665.6992,381.5,669.6992,385.5,665.6992" style="stroke:#181818;stroke-width:1.0;"/><line style="stroke:#181818;stroke-width:1.0;" x1="542" x2="542" y1="647.6992" y2="665.6992"/><line style="stroke:#181818;stroke-width:1.0;" x1="542" x2="415.5" y1="665.6992" y2="665.6992"/><polygon fill="#181818" points="425.5,661.6992,415.5,665.6992,425.5,669.6992,421.5,665.6992" style="stroke:#181818;stroke-width:1.0;"/><line style="stroke:#181818;stroke-width:1.0;" x1="154.75" x2="94" y1="198.6797" y2="198.6797"/><line style="stroke:#181818;stroke-width:1.0;" x1="94" x2="94" y1="198.6797" y2="221.4844"/><polygon fill="#181818" points="90,211.4844,94,221.4844,98,211.4844,94,215.4844" style="stroke:#181818;stroke-width:1.0;"/><line style="stroke:#181818;stroke-width:1.0;" x1="342.75" x2="403.5" y1="198.6797" y2="198.6797"/><line style="stroke:#181818;stroke-width:1.0;" x1="403.5" x2="403.5" y1="198.6797" y2="221.4844"/><polygon fill="#181818" points="399.5,211.4844,403.5,221.4844,407.5,211.4844,403.5,215.4844" style="stroke:#181818;stroke-width:1.0;"/><line style="stroke:#181818;stroke-width:1.0;" x1="94" x2="94" y1="269.4219" y2="695.6992"/><line style="stroke:#181818;stroke-width:1.0;" x1="94" x2="236.75" y1="695.6992" y2="695.6992"/><polygon fill="#181818" points="226.75,691.6992,236.75,695.6992,226.75,699.6992,230.75,695.6992" style="stroke:#181818;stroke-width:1.0;"/><line style="stroke:#181818;stroke-width:1.0;" x1="403.5" x2="403.5" y1="677.6992" y2="695.6992"/><line style="stroke:#181818;stroke-width:1.0;" x1="403.5" x2="260.75" y1="695.6992" y2="695.6992"/><polygon fill="#181818" points="270.75,691.6992,260.75,695.6992,270.75,699.6992,266.75,695.6992" style="stroke:#181818;stroke-width:1.0;"/><line style="stroke:#181818;stroke-width:1.0;" x1="248.75" x2="248.75" y1="165.875" y2="185.875"/><polygon fill="#181818" points="244.75,175.875,248.75,185.875,252.75,175.875,248.75,179.875" style="stroke:#181818;stroke-width:1.0;"/><line style="stroke:#181818;stroke-width:1.0;" x1="248.75" x2="248.75" y1="707.6992" y2="727.6992"/><polygon fill="#181818" points="244.75,717.6992,248.75,727.6992,252.75,717.6992,248.75,721.6992" style="stroke:#181818;stroke-width:1.0;"/><!--SRC=[TPBBJi9058RtVOgw8M34cAYRDgvSwmAtR0WCqjXCiHrYsA51HOI8YXUq998e8QY0KR5oVPdEjAnu1GSAGhtCefdf-S__VtCo2lB9Y66uNkp6x1v6PD6iDl799L6Vi5epMkVu-PfdEBDIC2fNk7E54xLLdpy4Df3iGs0psc-bS6eVPnuvBvo50Er8yfO7R4U0WkWF_q3g0KfOWWhW6I7ej4lObHKMHaIHTJXOBxIfnoKNYq80EgD0SJ4iNPm4nQXR2Bg7wW1M6oHNfHHw-u1SLxtGGjQrDCuaoEl5eA8bIV9XUM69Pu2e02UK1ax_ilmArDjT8rkoVF5v6ZUoPlM3lEpnj3nb-AtKjMDTY-bQcHmNIQACSoLy7pSo1qRxr6YgLY-zRCWdmFcmBFa12Fn0SV53Fufe7ydCtuGqsUpcwEr7iVc2tgnF64TM5hfnjqk5YmjB_LPYNKBicXGGWW88z5j7lssfCPqY_gnFe-EprFJZcFD2EkoU6ZEBk-JsZLpMx4zdxAGWAJmws8OsJEaT9acsCzreliT98pDk1v1IClOTftVpL3Z9iKhMTv3s1G00]--></g></svg>