<?xml version="1.0" encoding="us-ascii" standalone="no"?><svg xmlns="http://www.w3.org/2000/svg" xmlns:xlink="http://www.w3.org/1999/xlink" contentStyleType="text/css" height="510px" preserveAspectRatio="none" style="width:476px;height:510px;background:#FFFFFF;" version="1.1" viewBox="0 0 476 510" width="476px" zoomAndPan="magnify"><defs/><g><!--class IBinder--><g id="elem_IBinder"><rect codeLine="2" fill="#F1F1F1" height="64.2969" id="IBinder" rx="2.5" ry="2.5" style="stroke:#181818;stroke-width:0.5;" width="86" x="36.5" y="115"/><ellipse cx="52.85" cy="131" fill="#B4A7E5" rx="11" ry="11" style="stroke:#181818;stroke-width:1.0;"/><path d="M53.8031,127.7813 L55.5219,127.7813 C55.9125,127.7813 56.1,127.75 56.225,127.6719 C56.4906,127.5156 56.6313,127.2344 56.6313,126.9375 C56.6313,126.6719 56.5219,126.4063 56.2875,126.2344 C56.1156,126.125 55.975,126.0938 55.5219,126.0938 L50.3813,126.0938 C49.9438,126.0938 49.8188,126.1094 49.6625,126.2031 C49.4125,126.3594 49.2563,126.6563 49.2563,126.9375 C49.2563,127.2188 49.3969,127.4688 49.6156,127.6406 C49.7719,127.75 49.9594,127.7813 50.3813,127.7813 L52.1,127.7813 L52.1,134.2969 L50.3813,134.2969 C49.9438,134.2969 49.8188,134.3125 49.6625,134.4219 C49.4125,134.5781 49.2563,134.8594 49.2563,135.1563 C49.2563,135.4063 49.3969,135.6719 49.6156,135.8281 C49.7719,135.9531 49.975,136 50.3813,136 L55.5219,136 C56.2719,136 56.6313,135.7188 56.6313,135.1563 C56.6313,134.875 56.5219,134.625 56.2875,134.4531 C56.1156,134.3281 55.975,134.2969 55.5219,134.2969 L53.8031,134.2969 L53.8031,127.7813 Z " fill="#000000"/><text fill="#000000" font-family="sans-serif" font-size="14" font-style="italic" lengthAdjust="spacing" textLength="51" x="67.15" y="135.8467">IBinder</text><line style="stroke:#181818;stroke-width:0.5;" x1="37.5" x2="121.5" y1="147" y2="147"/><ellipse cx="47.5" cy="160.6484" fill="none" rx="3" ry="3" style="stroke:#038048;stroke-width:1.0;"/><text fill="#000000" font-family="sans-serif" font-size="14" lengthAdjust="spacing" textLength="60" x="56.5" y="163.9951">transact</text><line style="stroke:#181818;stroke-width:0.5;" x1="37.5" x2="121.5" y1="171.2969" y2="171.2969"/></g><!--class RefBase--><g id="elem_RefBase"><rect fill="#F1F1F1" height="48" id="RefBase" rx="2.5" ry="2.5" style="stroke:#181818;stroke-width:0.5;" width="91" x="192" y="7"/><ellipse cx="207" cy="23" fill="#ADD1B2" rx="11" ry="11" style="stroke:#181818;stroke-width:1.0;"/><path d="M209.3438,18.6719 C208.4063,18.2344 207.8125,18.0938 206.9375,18.0938 C204.3125,18.0938 202.3125,20.1719 202.3125,22.8906 L202.3125,24.0156 C202.3125,26.5938 204.4219,28.4844 207.3125,28.4844 C208.5313,28.4844 209.6875,28.1875 210.4375,27.6406 C211.0156,27.2344 211.3438,26.7813 211.3438,26.3906 C211.3438,25.9375 210.9531,25.5469 210.4844,25.5469 C210.2656,25.5469 210.0625,25.625 209.875,25.8125 C209.4219,26.2969 209.4219,26.2969 209.2344,26.3906 C208.8125,26.6563 208.125,26.7813 207.3594,26.7813 C205.3125,26.7813 204.0156,25.6875 204.0156,23.9844 L204.0156,22.8906 C204.0156,21.1094 205.2656,19.7969 207,19.7969 C207.5781,19.7969 208.1875,19.9531 208.6563,20.2031 C209.1406,20.4844 209.3125,20.7031 209.4063,21.1094 C209.4688,21.5156 209.5,21.6406 209.6406,21.7656 C209.7813,21.9063 210.0156,22.0156 210.2344,22.0156 C210.5,22.0156 210.7656,21.875 210.9375,21.6563 C211.0469,21.5 211.0781,21.3125 211.0781,20.8906 L211.0781,19.4688 C211.0781,19.0313 211.0625,18.9063 210.9688,18.75 C210.8125,18.4844 210.5313,18.3438 210.2344,18.3438 C209.9375,18.3438 209.7344,18.4375 209.5156,18.75 L209.3438,18.6719 Z " fill="#000000"/><text fill="#000000" font-family="sans-serif" font-size="14" lengthAdjust="spacing" textLength="59" x="221" y="27.8467">RefBase</text><line style="stroke:#181818;stroke-width:0.5;" x1="193" x2="282" y1="39" y2="39"/><line style="stroke:#181818;stroke-width:0.5;" x1="193" x2="282" y1="47" y2="47"/></g><!--class BpBinder--><g id="elem_BpBinder"><rect fill="#F1F1F1" height="48" id="BpBinder" rx="2.5" ry="2.5" style="stroke:#181818;stroke-width:0.5;" width="99" x="30" y="239"/><ellipse cx="45" cy="255" fill="#ADD1B2" rx="11" ry="11" style="stroke:#181818;stroke-width:1.0;"/><path d="M47.3438,250.6719 C46.4063,250.2344 45.8125,250.0938 44.9375,250.0938 C42.3125,250.0938 40.3125,252.1719 40.3125,254.8906 L40.3125,256.0156 C40.3125,258.5938 42.4219,260.4844 45.3125,260.4844 C46.5313,260.4844 47.6875,260.1875 48.4375,259.6406 C49.0156,259.2344 49.3438,258.7813 49.3438,258.3906 C49.3438,257.9375 48.9531,257.5469 48.4844,257.5469 C48.2656,257.5469 48.0625,257.625 47.875,257.8125 C47.4219,258.2969 47.4219,258.2969 47.2344,258.3906 C46.8125,258.6563 46.125,258.7813 45.3594,258.7813 C43.3125,258.7813 42.0156,257.6875 42.0156,255.9844 L42.0156,254.8906 C42.0156,253.1094 43.2656,251.7969 45,251.7969 C45.5781,251.7969 46.1875,251.9531 46.6563,252.2031 C47.1406,252.4844 47.3125,252.7031 47.4063,253.1094 C47.4688,253.5156 47.5,253.6406 47.6406,253.7656 C47.7813,253.9063 48.0156,254.0156 48.2344,254.0156 C48.5,254.0156 48.7656,253.875 48.9375,253.6563 C49.0469,253.5 49.0781,253.3125 49.0781,252.8906 L49.0781,251.4688 C49.0781,251.0313 49.0625,250.9063 48.9688,250.75 C48.8125,250.4844 48.5313,250.3438 48.2344,250.3438 C47.9375,250.3438 47.7344,250.4375 47.5156,250.75 L47.3438,250.6719 Z " fill="#000000"/><text fill="#000000" font-family="sans-serif" font-size="14" lengthAdjust="spacing" textLength="67" x="59" y="259.8467">BpBinder</text><line style="stroke:#181818;stroke-width:0.5;" x1="31" x2="128" y1="271" y2="271"/><line style="stroke:#181818;stroke-width:0.5;" x1="31" x2="128" y1="279" y2="279"/></g><!--class IPCThreadState--><g id="elem_IPCThreadState"><rect fill="#F1F1F1" height="48" id="IPCThreadState" rx="2.5" ry="2.5" style="stroke:#181818;stroke-width:0.5;" width="145" x="7" y="347"/><ellipse cx="22" cy="363" fill="#ADD1B2" rx="11" ry="11" style="stroke:#181818;stroke-width:1.0;"/><path d="M24.3438,358.6719 C23.4063,358.2344 22.8125,358.0938 21.9375,358.0938 C19.3125,358.0938 17.3125,360.1719 17.3125,362.8906 L17.3125,364.0156 C17.3125,366.5938 19.4219,368.4844 22.3125,368.4844 C23.5313,368.4844 24.6875,368.1875 25.4375,367.6406 C26.0156,367.2344 26.3438,366.7813 26.3438,366.3906 C26.3438,365.9375 25.9531,365.5469 25.4844,365.5469 C25.2656,365.5469 25.0625,365.625 24.875,365.8125 C24.4219,366.2969 24.4219,366.2969 24.2344,366.3906 C23.8125,366.6563 23.125,366.7813 22.3594,366.7813 C20.3125,366.7813 19.0156,365.6875 19.0156,363.9844 L19.0156,362.8906 C19.0156,361.1094 20.2656,359.7969 22,359.7969 C22.5781,359.7969 23.1875,359.9531 23.6563,360.2031 C24.1406,360.4844 24.3125,360.7031 24.4063,361.1094 C24.4688,361.5156 24.5,361.6406 24.6406,361.7656 C24.7813,361.9063 25.0156,362.0156 25.2344,362.0156 C25.5,362.0156 25.7656,361.875 25.9375,361.6563 C26.0469,361.5 26.0781,361.3125 26.0781,360.8906 L26.0781,359.4688 C26.0781,359.0313 26.0625,358.9063 25.9688,358.75 C25.8125,358.4844 25.5313,358.3438 25.2344,358.3438 C24.9375,358.3438 24.7344,358.4375 24.5156,358.75 L24.3438,358.6719 Z " fill="#000000"/><text fill="#000000" font-family="sans-serif" font-size="14" lengthAdjust="spacing" textLength="113" x="36" y="367.8467">IPCThreadState</text><line style="stroke:#181818;stroke-width:0.5;" x1="8" x2="151" y1="379" y2="379"/><line style="stroke:#181818;stroke-width:0.5;" x1="8" x2="151" y1="387" y2="387"/></g><!--class ProcessState--><g id="elem_ProcessState"><rect fill="#F1F1F1" height="48" id="ProcessState" rx="2.5" ry="2.5" style="stroke:#181818;stroke-width:0.5;" width="127" x="16" y="455"/><ellipse cx="31" cy="471" fill="#ADD1B2" rx="11" ry="11" style="stroke:#181818;stroke-width:1.0;"/><path d="M33.3438,466.6719 C32.4063,466.2344 31.8125,466.0938 30.9375,466.0938 C28.3125,466.0938 26.3125,468.1719 26.3125,470.8906 L26.3125,472.0156 C26.3125,474.5938 28.4219,476.4844 31.3125,476.4844 C32.5313,476.4844 33.6875,476.1875 34.4375,475.6406 C35.0156,475.2344 35.3438,474.7813 35.3438,474.3906 C35.3438,473.9375 34.9531,473.5469 34.4844,473.5469 C34.2656,473.5469 34.0625,473.625 33.875,473.8125 C33.4219,474.2969 33.4219,474.2969 33.2344,474.3906 C32.8125,474.6563 32.125,474.7813 31.3594,474.7813 C29.3125,474.7813 28.0156,473.6875 28.0156,471.9844 L28.0156,470.8906 C28.0156,469.1094 29.2656,467.7969 31,467.7969 C31.5781,467.7969 32.1875,467.9531 32.6563,468.2031 C33.1406,468.4844 33.3125,468.7031 33.4063,469.1094 C33.4688,469.5156 33.5,469.6406 33.6406,469.7656 C33.7813,469.9063 34.0156,470.0156 34.2344,470.0156 C34.5,470.0156 34.7656,469.875 34.9375,469.6563 C35.0469,469.5 35.0781,469.3125 35.0781,468.8906 L35.0781,467.4688 C35.0781,467.0313 35.0625,466.9063 34.9688,466.75 C34.8125,466.4844 34.5313,466.3438 34.2344,466.3438 C33.9375,466.3438 33.7344,466.4375 33.5156,466.75 L33.3438,466.6719 Z " fill="#000000"/><text fill="#000000" font-family="sans-serif" font-size="14" lengthAdjust="spacing" textLength="95" x="45" y="475.8467">ProcessState</text><line style="stroke:#181818;stroke-width:0.5;" x1="17" x2="142" y1="487" y2="487"/><line style="stroke:#181818;stroke-width:0.5;" x1="17" x2="142" y1="495" y2="495"/></g><!--class IServiceManager--><g id="elem_IServiceManager"><rect codeLine="9" fill="#F1F1F1" height="48" id="IServiceManager" rx="2.5" ry="2.5" style="stroke:#181818;stroke-width:0.5;" width="152" x="317.5" y="239"/><ellipse cx="332.5" cy="255" fill="#B4A7E5" rx="11" ry="11" style="stroke:#181818;stroke-width:1.0;"/><path d="M333.4531,251.7813 L335.1719,251.7813 C335.5625,251.7813 335.75,251.75 335.875,251.6719 C336.1406,251.5156 336.2813,251.2344 336.2813,250.9375 C336.2813,250.6719 336.1719,250.4063 335.9375,250.2344 C335.7656,250.125 335.625,250.0938 335.1719,250.0938 L330.0313,250.0938 C329.5938,250.0938 329.4688,250.1094 329.3125,250.2031 C329.0625,250.3594 328.9063,250.6563 328.9063,250.9375 C328.9063,251.2188 329.0469,251.4688 329.2656,251.6406 C329.4219,251.75 329.6094,251.7813 330.0313,251.7813 L331.75,251.7813 L331.75,258.2969 L330.0313,258.2969 C329.5938,258.2969 329.4688,258.3125 329.3125,258.4219 C329.0625,258.5781 328.9063,258.8594 328.9063,259.1563 C328.9063,259.4063 329.0469,259.6719 329.2656,259.8281 C329.4219,259.9531 329.625,260 330.0313,260 L335.1719,260 C335.9219,260 336.2813,259.7188 336.2813,259.1563 C336.2813,258.875 336.1719,258.625 335.9375,258.4531 C335.7656,258.3281 335.625,258.2969 335.1719,258.2969 L333.4531,258.2969 L333.4531,251.7813 Z " fill="#000000"/><text fill="#000000" font-family="sans-serif" font-size="14" font-style="italic" lengthAdjust="spacing" textLength="120" x="346.5" y="259.8467">IServiceManager</text><line style="stroke:#181818;stroke-width:0.5;" x1="318.5" x2="468.5" y1="271" y2="271"/><line style="stroke:#181818;stroke-width:0.5;" x1="318.5" x2="468.5" y1="279" y2="279"/></g><!--class IInterface--><g id="elem_IInterface"><rect codeLine="11" fill="#F1F1F1" height="64.2969" id="IInterface" rx="2.5" ry="2.5" style="stroke:#181818;stroke-width:0.5;" width="100" x="352.5" y="115"/><ellipse cx="367.5" cy="131" fill="#B4A7E5" rx="11" ry="11" style="stroke:#181818;stroke-width:1.0;"/><path d="M368.4531,127.7813 L370.1719,127.7813 C370.5625,127.7813 370.75,127.75 370.875,127.6719 C371.1406,127.5156 371.2813,127.2344 371.2813,126.9375 C371.2813,126.6719 371.1719,126.4063 370.9375,126.2344 C370.7656,126.125 370.625,126.0938 370.1719,126.0938 L365.0313,126.0938 C364.5938,126.0938 364.4688,126.1094 364.3125,126.2031 C364.0625,126.3594 363.9063,126.6563 363.9063,126.9375 C363.9063,127.2188 364.0469,127.4688 364.2656,127.6406 C364.4219,127.75 364.6094,127.7813 365.0313,127.7813 L366.75,127.7813 L366.75,134.2969 L365.0313,134.2969 C364.5938,134.2969 364.4688,134.3125 364.3125,134.4219 C364.0625,134.5781 363.9063,134.8594 363.9063,135.1563 C363.9063,135.4063 364.0469,135.6719 364.2656,135.8281 C364.4219,135.9531 364.625,136 365.0313,136 L370.1719,136 C370.9219,136 371.2813,135.7188 371.2813,135.1563 C371.2813,134.875 371.1719,134.625 370.9375,134.4531 C370.7656,134.3281 370.625,134.2969 370.1719,134.2969 L368.4531,134.2969 L368.4531,127.7813 Z " fill="#000000"/><text fill="#000000" font-family="sans-serif" font-size="14" font-style="italic" lengthAdjust="spacing" textLength="68" x="381.5" y="135.8467">IInterface</text><line style="stroke:#181818;stroke-width:0.5;" x1="353.5" x2="451.5" y1="147" y2="147"/><ellipse cx="363.5" cy="160.6484" fill="none" rx="3" ry="3" style="stroke:#038048;stroke-width:1.0;"/><text fill="#000000" font-family="sans-serif" font-size="14" lengthAdjust="spacing" text-decoration="underline" textLength="62" x="372.5" y="163.9951">asBinder</text><line style="stroke:#181818;stroke-width:0.5;" x1="353.5" x2="451.5" y1="171.2969" y2="171.2969"/></g><!--class BpInterface--><g id="elem_BpInterface"><rect codeLine="15" fill="#F1F1F1" height="48" id="BpInterface" rx="2.5" ry="2.5" style="stroke:#181818;stroke-width:0.5;" width="222" x="230.5" y="347"/><ellipse cx="245.5" cy="363" fill="#ADD1B2" rx="11" ry="11" style="stroke:#181818;stroke-width:1.0;"/><path d="M247.8438,358.6719 C246.9063,358.2344 246.3125,358.0938 245.4375,358.0938 C242.8125,358.0938 240.8125,360.1719 240.8125,362.8906 L240.8125,364.0156 C240.8125,366.5938 242.9219,368.4844 245.8125,368.4844 C247.0313,368.4844 248.1875,368.1875 248.9375,367.6406 C249.5156,367.2344 249.8438,366.7813 249.8438,366.3906 C249.8438,365.9375 249.4531,365.5469 248.9844,365.5469 C248.7656,365.5469 248.5625,365.625 248.375,365.8125 C247.9219,366.2969 247.9219,366.2969 247.7344,366.3906 C247.3125,366.6563 246.625,366.7813 245.8594,366.7813 C243.8125,366.7813 242.5156,365.6875 242.5156,363.9844 L242.5156,362.8906 C242.5156,361.1094 243.7656,359.7969 245.5,359.7969 C246.0781,359.7969 246.6875,359.9531 247.1563,360.2031 C247.6406,360.4844 247.8125,360.7031 247.9063,361.1094 C247.9688,361.5156 248,361.6406 248.1406,361.7656 C248.2813,361.9063 248.5156,362.0156 248.7344,362.0156 C249,362.0156 249.2656,361.875 249.4375,361.6563 C249.5469,361.5 249.5781,361.3125 249.5781,360.8906 L249.5781,359.4688 C249.5781,359.0313 249.5625,358.9063 249.4688,358.75 C249.3125,358.4844 249.0313,358.3438 248.7344,358.3438 C248.4375,358.3438 248.2344,358.4375 248.0156,358.75 L247.8438,358.6719 Z " fill="#000000"/><text fill="#000000" font-family="sans-serif" font-size="14" lengthAdjust="spacing" textLength="86" x="259.5" y="367.8467">BpInterface</text><rect fill="#FFFFFF" height="15.9688" style="stroke:#181818;stroke-width:1.0;stroke-dasharray:2.0,2.0;" width="102" x="353.5" y="344"/><text fill="#000000" font-family="sans-serif" font-size="12" font-style="italic" lengthAdjust="spacing" textLength="100" x="354.5" y="356.1387">IServiceManager</text><line style="stroke:#181818;stroke-width:0.5;" x1="231.5" x2="451.5" y1="379" y2="379"/><line style="stroke:#181818;stroke-width:0.5;" x1="231.5" x2="451.5" y1="387" y2="387"/></g><!--class BpRefBase--><g id="elem_BpRefBase"><rect codeLine="22" fill="#F1F1F1" height="64.2969" id="BpRefBase" rx="2.5" ry="2.5" style="stroke:#181818;stroke-width:0.5;" width="160" x="157.5" y="115"/><ellipse cx="194.55" cy="131" fill="#ADD1B2" rx="11" ry="11" style="stroke:#181818;stroke-width:1.0;"/><path d="M196.8938,126.6719 C195.9563,126.2344 195.3625,126.0938 194.4875,126.0938 C191.8625,126.0938 189.8625,128.1719 189.8625,130.8906 L189.8625,132.0156 C189.8625,134.5938 191.9719,136.4844 194.8625,136.4844 C196.0813,136.4844 197.2375,136.1875 197.9875,135.6406 C198.5656,135.2344 198.8938,134.7813 198.8938,134.3906 C198.8938,133.9375 198.5031,133.5469 198.0344,133.5469 C197.8156,133.5469 197.6125,133.625 197.425,133.8125 C196.9719,134.2969 196.9719,134.2969 196.7844,134.3906 C196.3625,134.6563 195.675,134.7813 194.9094,134.7813 C192.8625,134.7813 191.5656,133.6875 191.5656,131.9844 L191.5656,130.8906 C191.5656,129.1094 192.8156,127.7969 194.55,127.7969 C195.1281,127.7969 195.7375,127.9531 196.2063,128.2031 C196.6906,128.4844 196.8625,128.7031 196.9563,129.1094 C197.0188,129.5156 197.05,129.6406 197.1906,129.7656 C197.3313,129.9063 197.5656,130.0156 197.7844,130.0156 C198.05,130.0156 198.3156,129.875 198.4875,129.6563 C198.5969,129.5 198.6281,129.3125 198.6281,128.8906 L198.6281,127.4688 C198.6281,127.0313 198.6125,126.9063 198.5188,126.75 C198.3625,126.4844 198.0813,126.3438 197.7844,126.3438 C197.4875,126.3438 197.2844,126.4375 197.0656,126.75 L196.8938,126.6719 Z " fill="#000000"/><text fill="#000000" font-family="sans-serif" font-size="14" lengthAdjust="spacing" textLength="79" x="213.45" y="135.8467">BpRefBase</text><line style="stroke:#181818;stroke-width:0.5;" x1="158.5" x2="316.5" y1="147" y2="147"/><rect fill="none" height="6" style="stroke:#C82930;stroke-width:1.0;" width="6" x="165.5" y="157.6484"/><text fill="#000000" font-family="sans-serif" font-size="14" lengthAdjust="spacing" textLength="134" x="177.5" y="163.9951">IBinder* mRemote</text><line style="stroke:#181818;stroke-width:0.5;" x1="158.5" x2="316.5" y1="171.2969" y2="171.2969"/></g><!--class BpServiceManager--><g id="elem_BpServiceManager"><rect fill="#F1F1F1" height="48" id="BpServiceManager" rx="2.5" ry="2.5" style="stroke:#181818;stroke-width:0.5;" width="166" x="258.5" y="455"/><ellipse cx="273.5" cy="471" fill="#ADD1B2" rx="11" ry="11" style="stroke:#181818;stroke-width:1.0;"/><path d="M275.8438,466.6719 C274.9063,466.2344 274.3125,466.0938 273.4375,466.0938 C270.8125,466.0938 268.8125,468.1719 268.8125,470.8906 L268.8125,472.0156 C268.8125,474.5938 270.9219,476.4844 273.8125,476.4844 C275.0313,476.4844 276.1875,476.1875 276.9375,475.6406 C277.5156,475.2344 277.8438,474.7813 277.8438,474.3906 C277.8438,473.9375 277.4531,473.5469 276.9844,473.5469 C276.7656,473.5469 276.5625,473.625 276.375,473.8125 C275.9219,474.2969 275.9219,474.2969 275.7344,474.3906 C275.3125,474.6563 274.625,474.7813 273.8594,474.7813 C271.8125,474.7813 270.5156,473.6875 270.5156,471.9844 L270.5156,470.8906 C270.5156,469.1094 271.7656,467.7969 273.5,467.7969 C274.0781,467.7969 274.6875,467.9531 275.1563,468.2031 C275.6406,468.4844 275.8125,468.7031 275.9063,469.1094 C275.9688,469.5156 276,469.6406 276.1406,469.7656 C276.2813,469.9063 276.5156,470.0156 276.7344,470.0156 C277,470.0156 277.2656,469.875 277.4375,469.6563 C277.5469,469.5 277.5781,469.3125 277.5781,468.8906 L277.5781,467.4688 C277.5781,467.0313 277.5625,466.9063 277.4688,466.75 C277.3125,466.4844 277.0313,466.3438 276.7344,466.3438 C276.4375,466.3438 276.2344,466.4375 276.0156,466.75 L275.8438,466.6719 Z " fill="#000000"/><text fill="#000000" font-family="sans-serif" font-size="14" lengthAdjust="spacing" textLength="134" x="287.5" y="475.8467">BpServiceManager</text><line style="stroke:#181818;stroke-width:0.5;" x1="259.5" x2="423.5" y1="487" y2="487"/><line style="stroke:#181818;stroke-width:0.5;" x1="259.5" x2="423.5" y1="495" y2="495"/></g><!--reverse link RefBase to IBinder--><g id="link_RefBase_IBinder"><path codeLine="5" d="M190.929,65.6022 C167.034,82.8432 148.71,96.064 122.508,114.969 " fill="none" id="RefBase-backto-IBinder" style="stroke:#181818;stroke-width:1.0;"/><polygon fill="none" points="205.526,55.07,187.4183,60.7365,194.4397,70.4679,205.526,55.07" style="stroke:#181818;stroke-width:1.0;"/></g><!--reverse link IBinder to BpBinder--><g id="link_IBinder_BpBinder"><path codeLine="6" d="M79.5,197.151 C79.5,216.005 79.5,221.647 79.5,238.845 " fill="none" id="IBinder-backto-BpBinder" style="stroke:#181818;stroke-width:1.0;"/><polygon fill="none" points="79.5,179.151,73.5,197.151,85.5,197.151,79.5,179.151" style="stroke:#181818;stroke-width:1.0;"/></g><!--link BpBinder to IPCThreadState--><g id="link_BpBinder_IPCThreadState"><path codeLine="7" d="M79.5,287 C79.5,304.658 79.5,322.941 79.5,340.678 " fill="none" id="BpBinder-to-IPCThreadState" style="stroke:#181818;stroke-width:1.0;"/><polygon fill="#181818" points="79.5,346.678,83.5,337.678,79.5,341.678,75.5,337.678,79.5,346.678" style="stroke:#181818;stroke-width:1.0;"/></g><!--link IPCThreadState to ProcessState--><g id="link_IPCThreadState_ProcessState"><path codeLine="8" d="M79.5,395 C79.5,412.6584 79.5,430.9408 79.5,448.6784 " fill="none" id="IPCThreadState-to-ProcessState" style="stroke:#181818;stroke-width:1.0;"/><polygon fill="#181818" points="79.5,454.6784,83.5,445.6784,79.5,449.6784,75.5,445.6784,79.5,454.6784" style="stroke:#181818;stroke-width:1.0;"/></g><!--reverse link RefBase to IInterface--><g id="link_RefBase_IInterface"><path codeLine="10" d="M285.6991,65.3018 C310.6531,82.5428 330.224,96.064 357.587,114.969 " fill="none" id="RefBase-backto-IInterface" style="stroke:#181818;stroke-width:1.0;"/><polygon fill="none" points="270.89,55.07,282.2885,70.2382,289.1097,60.3654,270.89,55.07" style="stroke:#181818;stroke-width:1.0;"/></g><!--reverse link IInterface to IServiceManager--><g id="link_IInterface_IServiceManager"><path codeLine="14" d="M398.6239,197.0951 C397.1349,215.9491 396.686,221.647 395.328,238.845 " fill="none" id="IInterface-backto-IServiceManager" style="stroke:#181818;stroke-width:1.0;"/><polygon fill="none" points="400.041,179.151,392.6425,196.6227,404.6052,197.5675,400.041,179.151" style="stroke:#181818;stroke-width:1.0;"/></g><!--reverse link RefBase to BpRefBase--><g id="link_RefBase_BpRefBase"><path codeLine="16" d="M237.5,73.07 C237.5,90.246 237.5,95.884 237.5,114.755 " fill="none" id="RefBase-backto-BpRefBase" style="stroke:#181818;stroke-width:1.0;"/><polygon fill="none" points="237.5,55.07,231.5,73.07,243.5,73.07,237.5,55.07" style="stroke:#181818;stroke-width:1.0;"/></g><!--reverse link BpRefBase to BpInterface--><g id="link_BpRefBase_BpInterface"><path codeLine="17" d="M258.0217,195.6279 C270.2957,223.9299 282.02,250.253 299.5,287 C309.212,307.417 320.863,330.326 329.427,346.895 " fill="none" id="BpRefBase-backto-BpInterface" style="stroke:#181818;stroke-width:1.0;"/><polygon fill="none" points="250.86,179.114,252.5171,198.0152,263.5264,193.2407,250.86,179.114" style="stroke:#181818;stroke-width:1.0;"/></g><!--reverse link IServiceManager to BpInterface--><g id="link_IServiceManager_BpInterface"><path codeLine="18" d="M374.2889,303.16 C365.6259,320.818 361.642,328.941 352.941,346.678 " fill="none" id="IServiceManager-backto-BpInterface" style="stroke:#181818;stroke-width:1.0;"/><polygon fill="none" points="382.217,287,368.9023,300.5173,379.6756,305.8027,382.217,287" style="stroke:#181818;stroke-width:1.0;"/></g><!--reverse link BpInterface to BpServiceManager--><g id="link_BpInterface_BpServiceManager"><path codeLine="19" d="M341.5,413 C341.5,430.6584 341.5,436.9408 341.5,454.6784 " fill="none" id="BpInterface-backto-BpServiceManager" style="stroke:#181818;stroke-width:1.0;"/><polygon fill="none" points="341.5,395,335.5,413,347.5,413,341.5,395" style="stroke:#181818;stroke-width:1.0;"/></g><!--link IBinder to BpRefBase--><g id="link_IBinder_BpRefBase"><path codeLine="21" d="M122.703,147 C134.213,147 133.722,147 145.232,147 " fill="none" id="IBinder-to-BpRefBase" style="stroke:#181818;stroke-width:1.0;"/><polygon fill="#181818" points="157.232,147,151.232,143,145.232,147,151.232,151,157.232,147" style="stroke:#181818;stroke-width:1.0;"/></g><!--SRC=[RP4x3i8m38RtdC8RKglS07K8KmSa15p02YvKWb8b4KlfoC19E01Z1qu3lGOHRKeQoEJ7R_kpCm5HhaYTSabpB71B2jhczhe-dfTxUszONXXI6Kg2LEJ5ngOh1lR5Hc6XKHfMioLb0ZN1zCovap4d_mH5sKUT0Pmda2vcwvqYtAmC6c9ZzwDOgACahRkyXp8c3W1If_ChXc3FNsdRCvSrnAXxjffvggvLC4VkKMkxp22R1efaZ2BAtcM3vH9VoA35hy2pNJBWcdmdGVJd3tZaeRWbN45tZw4eWiEI3aTxx_eD]--></g></svg>