<?xml version="1.0" encoding="us-ascii" standalone="no"?><svg xmlns="http://www.w3.org/2000/svg" xmlns:xlink="http://www.w3.org/1999/xlink" contentStyleType="text/css" height="526px" preserveAspectRatio="none" style="width:1114px;height:526px;background:#FFFFFF;" version="1.1" viewBox="0 0 1114 526" width="1114px" zoomAndPan="magnify"><defs/><g><!--class SkImageDecoder--><g id="elem_SkImageDecoder"><rect fill="#F1F1F1" height="48" id="SkImageDecoder" rx="2.5" ry="2.5" style="stroke:#181818;stroke-width:0.5;" width="155" x="353.5" y="7"/><ellipse cx="368.5" cy="23" fill="#ADD1B2" rx="11" ry="11" style="stroke:#181818;stroke-width:1.0;"/><path d="M370.8438,18.6719 C369.9063,18.2344 369.3125,18.0938 368.4375,18.0938 C365.8125,18.0938 363.8125,20.1719 363.8125,22.8906 L363.8125,24.0156 C363.8125,26.5938 365.9219,28.4844 368.8125,28.4844 C370.0313,28.4844 371.1875,28.1875 371.9375,27.6406 C372.5156,27.2344 372.8438,26.7813 372.8438,26.3906 C372.8438,25.9375 372.4531,25.5469 371.9844,25.5469 C371.7656,25.5469 371.5625,25.625 371.375,25.8125 C370.9219,26.2969 370.9219,26.2969 370.7344,26.3906 C370.3125,26.6563 369.625,26.7813 368.8594,26.7813 C366.8125,26.7813 365.5156,25.6875 365.5156,23.9844 L365.5156,22.8906 C365.5156,21.1094 366.7656,19.7969 368.5,19.7969 C369.0781,19.7969 369.6875,19.9531 370.1563,20.2031 C370.6406,20.4844 370.8125,20.7031 370.9063,21.1094 C370.9688,21.5156 371,21.6406 371.1406,21.7656 C371.2813,21.9063 371.5156,22.0156 371.7344,22.0156 C372,22.0156 372.2656,21.875 372.4375,21.6563 C372.5469,21.5 372.5781,21.3125 372.5781,20.8906 L372.5781,19.4688 C372.5781,19.0313 372.5625,18.9063 372.4688,18.75 C372.3125,18.4844 372.0313,18.3438 371.7344,18.3438 C371.4375,18.3438 371.2344,18.4375 371.0156,18.75 L370.8438,18.6719 Z " fill="#000000"/><text fill="#000000" font-family="sans-serif" font-size="14" lengthAdjust="spacing" textLength="123" x="382.5" y="27.8467">SkImageDecoder</text><line style="stroke:#181818;stroke-width:0.5;" x1="354.5" x2="507.5" y1="39" y2="39"/><line style="stroke:#181818;stroke-width:0.5;" x1="354.5" x2="507.5" y1="47" y2="47"/></g><!--class SkJPEGImageDecoder--><g id="elem_SkJPEGImageDecoder"><rect fill="#F1F1F1" height="48" id="SkJPEGImageDecoder" rx="2.5" ry="2.5" style="stroke:#181818;stroke-width:0.5;" width="188" x="7" y="115"/><ellipse cx="22" cy="131" fill="#ADD1B2" rx="11" ry="11" style="stroke:#181818;stroke-width:1.0;"/><path d="M24.3438,126.6719 C23.4063,126.2344 22.8125,126.0938 21.9375,126.0938 C19.3125,126.0938 17.3125,128.1719 17.3125,130.8906 L17.3125,132.0156 C17.3125,134.5938 19.4219,136.4844 22.3125,136.4844 C23.5313,136.4844 24.6875,136.1875 25.4375,135.6406 C26.0156,135.2344 26.3438,134.7813 26.3438,134.3906 C26.3438,133.9375 25.9531,133.5469 25.4844,133.5469 C25.2656,133.5469 25.0625,133.625 24.875,133.8125 C24.4219,134.2969 24.4219,134.2969 24.2344,134.3906 C23.8125,134.6563 23.125,134.7813 22.3594,134.7813 C20.3125,134.7813 19.0156,133.6875 19.0156,131.9844 L19.0156,130.8906 C19.0156,129.1094 20.2656,127.7969 22,127.7969 C22.5781,127.7969 23.1875,127.9531 23.6563,128.2031 C24.1406,128.4844 24.3125,128.7031 24.4063,129.1094 C24.4688,129.5156 24.5,129.6406 24.6406,129.7656 C24.7813,129.9063 25.0156,130.0156 25.2344,130.0156 C25.5,130.0156 25.7656,129.875 25.9375,129.6563 C26.0469,129.5 26.0781,129.3125 26.0781,128.8906 L26.0781,127.4688 C26.0781,127.0313 26.0625,126.9063 25.9688,126.75 C25.8125,126.4844 25.5313,126.3438 25.2344,126.3438 C24.9375,126.3438 24.7344,126.4375 24.5156,126.75 L24.3438,126.6719 Z " fill="#000000"/><text fill="#000000" font-family="sans-serif" font-size="14" lengthAdjust="spacing" textLength="156" x="36" y="135.8467">SkJPEGImageDecoder</text><line style="stroke:#181818;stroke-width:0.5;" x1="8" x2="194" y1="147" y2="147"/><line style="stroke:#181818;stroke-width:0.5;" x1="8" x2="194" y1="155" y2="155"/></g><!--class SkPNGImageDecoder--><g id="elem_SkPNGImageDecoder"><rect fill="#F1F1F1" height="48" id="SkPNGImageDecoder" rx="2.5" ry="2.5" style="stroke:#181818;stroke-width:0.5;" width="185" x="230.5" y="115"/><ellipse cx="245.5" cy="131" fill="#ADD1B2" rx="11" ry="11" style="stroke:#181818;stroke-width:1.0;"/><path d="M247.8438,126.6719 C246.9063,126.2344 246.3125,126.0938 245.4375,126.0938 C242.8125,126.0938 240.8125,128.1719 240.8125,130.8906 L240.8125,132.0156 C240.8125,134.5938 242.9219,136.4844 245.8125,136.4844 C247.0313,136.4844 248.1875,136.1875 248.9375,135.6406 C249.5156,135.2344 249.8438,134.7813 249.8438,134.3906 C249.8438,133.9375 249.4531,133.5469 248.9844,133.5469 C248.7656,133.5469 248.5625,133.625 248.375,133.8125 C247.9219,134.2969 247.9219,134.2969 247.7344,134.3906 C247.3125,134.6563 246.625,134.7813 245.8594,134.7813 C243.8125,134.7813 242.5156,133.6875 242.5156,131.9844 L242.5156,130.8906 C242.5156,129.1094 243.7656,127.7969 245.5,127.7969 C246.0781,127.7969 246.6875,127.9531 247.1563,128.2031 C247.6406,128.4844 247.8125,128.7031 247.9063,129.1094 C247.9688,129.5156 248,129.6406 248.1406,129.7656 C248.2813,129.9063 248.5156,130.0156 248.7344,130.0156 C249,130.0156 249.2656,129.875 249.4375,129.6563 C249.5469,129.5 249.5781,129.3125 249.5781,128.8906 L249.5781,127.4688 C249.5781,127.0313 249.5625,126.9063 249.4688,126.75 C249.3125,126.4844 249.0313,126.3438 248.7344,126.3438 C248.4375,126.3438 248.2344,126.4375 248.0156,126.75 L247.8438,126.6719 Z " fill="#000000"/><text fill="#000000" font-family="sans-serif" font-size="14" lengthAdjust="spacing" textLength="153" x="259.5" y="135.8467">SkPNGImageDecoder</text><line style="stroke:#181818;stroke-width:0.5;" x1="231.5" x2="414.5" y1="147" y2="147"/><line style="stroke:#181818;stroke-width:0.5;" x1="231.5" x2="414.5" y1="155" y2="155"/></g><!--class SkGIFImageDecoder--><g id="elem_SkGIFImageDecoder"><rect fill="#F1F1F1" height="48" id="SkGIFImageDecoder" rx="2.5" ry="2.5" style="stroke:#181818;stroke-width:0.5;" width="178" x="451" y="115"/><ellipse cx="466" cy="131" fill="#ADD1B2" rx="11" ry="11" style="stroke:#181818;stroke-width:1.0;"/><path d="M468.3438,126.6719 C467.4063,126.2344 466.8125,126.0938 465.9375,126.0938 C463.3125,126.0938 461.3125,128.1719 461.3125,130.8906 L461.3125,132.0156 C461.3125,134.5938 463.4219,136.4844 466.3125,136.4844 C467.5313,136.4844 468.6875,136.1875 469.4375,135.6406 C470.0156,135.2344 470.3438,134.7813 470.3438,134.3906 C470.3438,133.9375 469.9531,133.5469 469.4844,133.5469 C469.2656,133.5469 469.0625,133.625 468.875,133.8125 C468.4219,134.2969 468.4219,134.2969 468.2344,134.3906 C467.8125,134.6563 467.125,134.7813 466.3594,134.7813 C464.3125,134.7813 463.0156,133.6875 463.0156,131.9844 L463.0156,130.8906 C463.0156,129.1094 464.2656,127.7969 466,127.7969 C466.5781,127.7969 467.1875,127.9531 467.6563,128.2031 C468.1406,128.4844 468.3125,128.7031 468.4063,129.1094 C468.4688,129.5156 468.5,129.6406 468.6406,129.7656 C468.7813,129.9063 469.0156,130.0156 469.2344,130.0156 C469.5,130.0156 469.7656,129.875 469.9375,129.6563 C470.0469,129.5 470.0781,129.3125 470.0781,128.8906 L470.0781,127.4688 C470.0781,127.0313 470.0625,126.9063 469.9688,126.75 C469.8125,126.4844 469.5313,126.3438 469.2344,126.3438 C468.9375,126.3438 468.7344,126.4375 468.5156,126.75 L468.3438,126.6719 Z " fill="#000000"/><text fill="#000000" font-family="sans-serif" font-size="14" lengthAdjust="spacing" textLength="146" x="480" y="135.8467">SkGIFImageDecoder</text><line style="stroke:#181818;stroke-width:0.5;" x1="452" x2="628" y1="147" y2="147"/><line style="stroke:#181818;stroke-width:0.5;" x1="452" x2="628" y1="155" y2="155"/></g><!--class SkBMPImageDecoder--><g id="elem_SkBMPImageDecoder"><rect fill="#F1F1F1" height="48" id="SkBMPImageDecoder" rx="2.5" ry="2.5" style="stroke:#181818;stroke-width:0.5;" width="186" x="664" y="115"/><ellipse cx="679" cy="131" fill="#ADD1B2" rx="11" ry="11" style="stroke:#181818;stroke-width:1.0;"/><path d="M681.3438,126.6719 C680.4063,126.2344 679.8125,126.0938 678.9375,126.0938 C676.3125,126.0938 674.3125,128.1719 674.3125,130.8906 L674.3125,132.0156 C674.3125,134.5938 676.4219,136.4844 679.3125,136.4844 C680.5313,136.4844 681.6875,136.1875 682.4375,135.6406 C683.0156,135.2344 683.3438,134.7813 683.3438,134.3906 C683.3438,133.9375 682.9531,133.5469 682.4844,133.5469 C682.2656,133.5469 682.0625,133.625 681.875,133.8125 C681.4219,134.2969 681.4219,134.2969 681.2344,134.3906 C680.8125,134.6563 680.125,134.7813 679.3594,134.7813 C677.3125,134.7813 676.0156,133.6875 676.0156,131.9844 L676.0156,130.8906 C676.0156,129.1094 677.2656,127.7969 679,127.7969 C679.5781,127.7969 680.1875,127.9531 680.6563,128.2031 C681.1406,128.4844 681.3125,128.7031 681.4063,129.1094 C681.4688,129.5156 681.5,129.6406 681.6406,129.7656 C681.7813,129.9063 682.0156,130.0156 682.2344,130.0156 C682.5,130.0156 682.7656,129.875 682.9375,129.6563 C683.0469,129.5 683.0781,129.3125 683.0781,128.8906 L683.0781,127.4688 C683.0781,127.0313 683.0625,126.9063 682.9688,126.75 C682.8125,126.4844 682.5313,126.3438 682.2344,126.3438 C681.9375,126.3438 681.7344,126.4375 681.5156,126.75 L681.3438,126.6719 Z " fill="#000000"/><text fill="#000000" font-family="sans-serif" font-size="14" lengthAdjust="spacing" textLength="154" x="693" y="135.8467">SkBMPImageDecoder</text><line style="stroke:#181818;stroke-width:0.5;" x1="665" x2="849" y1="147" y2="147"/><line style="stroke:#181818;stroke-width:0.5;" x1="665" x2="849" y1="155" y2="155"/></g><!--class SkPixelRef--><g id="elem_SkPixelRef"><rect fill="#F1F1F1" height="48" id="SkPixelRef" rx="2.5" ry="2.5" style="stroke:#181818;stroke-width:0.5;" width="109" x="885.5" y="115"/><ellipse cx="900.5" cy="131" fill="#ADD1B2" rx="11" ry="11" style="stroke:#181818;stroke-width:1.0;"/><path d="M902.8438,126.6719 C901.9063,126.2344 901.3125,126.0938 900.4375,126.0938 C897.8125,126.0938 895.8125,128.1719 895.8125,130.8906 L895.8125,132.0156 C895.8125,134.5938 897.9219,136.4844 900.8125,136.4844 C902.0313,136.4844 903.1875,136.1875 903.9375,135.6406 C904.5156,135.2344 904.8438,134.7813 904.8438,134.3906 C904.8438,133.9375 904.4531,133.5469 903.9844,133.5469 C903.7656,133.5469 903.5625,133.625 903.375,133.8125 C902.9219,134.2969 902.9219,134.2969 902.7344,134.3906 C902.3125,134.6563 901.625,134.7813 900.8594,134.7813 C898.8125,134.7813 897.5156,133.6875 897.5156,131.9844 L897.5156,130.8906 C897.5156,129.1094 898.7656,127.7969 900.5,127.7969 C901.0781,127.7969 901.6875,127.9531 902.1563,128.2031 C902.6406,128.4844 902.8125,128.7031 902.9063,129.1094 C902.9688,129.5156 903,129.6406 903.1406,129.7656 C903.2813,129.9063 903.5156,130.0156 903.7344,130.0156 C904,130.0156 904.2656,129.875 904.4375,129.6563 C904.5469,129.5 904.5781,129.3125 904.5781,128.8906 L904.5781,127.4688 C904.5781,127.0313 904.5625,126.9063 904.4688,126.75 C904.3125,126.4844 904.0313,126.3438 903.7344,126.3438 C903.4375,126.3438 903.2344,126.4375 903.0156,126.75 L902.8438,126.6719 Z " fill="#000000"/><text fill="#000000" font-family="sans-serif" font-size="14" lengthAdjust="spacing" textLength="77" x="914.5" y="135.8467">SkPixelRef</text><line style="stroke:#181818;stroke-width:0.5;" x1="886.5" x2="993.5" y1="147" y2="147"/><line style="stroke:#181818;stroke-width:0.5;" x1="886.5" x2="993.5" y1="155" y2="155"/></g><!--class SkImageRef--><g id="elem_SkImageRef"><rect fill="#F1F1F1" height="48" id="SkImageRef" rx="2.5" ry="2.5" style="stroke:#181818;stroke-width:0.5;" width="119" x="779.5" y="223"/><ellipse cx="794.5" cy="239" fill="#ADD1B2" rx="11" ry="11" style="stroke:#181818;stroke-width:1.0;"/><path d="M796.8438,234.6719 C795.9063,234.2344 795.3125,234.0938 794.4375,234.0938 C791.8125,234.0938 789.8125,236.1719 789.8125,238.8906 L789.8125,240.0156 C789.8125,242.5938 791.9219,244.4844 794.8125,244.4844 C796.0313,244.4844 797.1875,244.1875 797.9375,243.6406 C798.5156,243.2344 798.8438,242.7813 798.8438,242.3906 C798.8438,241.9375 798.4531,241.5469 797.9844,241.5469 C797.7656,241.5469 797.5625,241.625 797.375,241.8125 C796.9219,242.2969 796.9219,242.2969 796.7344,242.3906 C796.3125,242.6563 795.625,242.7813 794.8594,242.7813 C792.8125,242.7813 791.5156,241.6875 791.5156,239.9844 L791.5156,238.8906 C791.5156,237.1094 792.7656,235.7969 794.5,235.7969 C795.0781,235.7969 795.6875,235.9531 796.1563,236.2031 C796.6406,236.4844 796.8125,236.7031 796.9063,237.1094 C796.9688,237.5156 797,237.6406 797.1406,237.7656 C797.2813,237.9063 797.5156,238.0156 797.7344,238.0156 C798,238.0156 798.2656,237.875 798.4375,237.6563 C798.5469,237.5 798.5781,237.3125 798.5781,236.8906 L798.5781,235.4688 C798.5781,235.0313 798.5625,234.9063 798.4688,234.75 C798.3125,234.4844 798.0313,234.3438 797.7344,234.3438 C797.4375,234.3438 797.2344,234.4375 797.0156,234.75 L796.8438,234.6719 Z " fill="#000000"/><text fill="#000000" font-family="sans-serif" font-size="14" lengthAdjust="spacing" textLength="87" x="808.5" y="243.8467">SkImageRef</text><line style="stroke:#181818;stroke-width:0.5;" x1="780.5" x2="897.5" y1="255" y2="255"/><line style="stroke:#181818;stroke-width:0.5;" x1="780.5" x2="897.5" y1="263" y2="263"/></g><!--class SkImageRef_ashmem--><g id="elem_SkImageRef_ashmem"><rect codeLine="8" fill="#F1F1F1" height="64.2969" id="SkImageRef_ashmem" rx="2.5" ry="2.5" style="stroke:#181818;stroke-width:0.5;" width="187" x="738.5" y="331"/><ellipse cx="753.5" cy="347" fill="#ADD1B2" rx="11" ry="11" style="stroke:#181818;stroke-width:1.0;"/><path d="M755.8438,342.6719 C754.9063,342.2344 754.3125,342.0938 753.4375,342.0938 C750.8125,342.0938 748.8125,344.1719 748.8125,346.8906 L748.8125,348.0156 C748.8125,350.5938 750.9219,352.4844 753.8125,352.4844 C755.0313,352.4844 756.1875,352.1875 756.9375,351.6406 C757.5156,351.2344 757.8438,350.7813 757.8438,350.3906 C757.8438,349.9375 757.4531,349.5469 756.9844,349.5469 C756.7656,349.5469 756.5625,349.625 756.375,349.8125 C755.9219,350.2969 755.9219,350.2969 755.7344,350.3906 C755.3125,350.6563 754.625,350.7813 753.8594,350.7813 C751.8125,350.7813 750.5156,349.6875 750.5156,347.9844 L750.5156,346.8906 C750.5156,345.1094 751.7656,343.7969 753.5,343.7969 C754.0781,343.7969 754.6875,343.9531 755.1563,344.2031 C755.6406,344.4844 755.8125,344.7031 755.9063,345.1094 C755.9688,345.5156 756,345.6406 756.1406,345.7656 C756.2813,345.9063 756.5156,346.0156 756.7344,346.0156 C757,346.0156 757.2656,345.875 757.4375,345.6563 C757.5469,345.5 757.5781,345.3125 757.5781,344.8906 L757.5781,343.4688 C757.5781,343.0313 757.5625,342.9063 757.4688,342.75 C757.3125,342.4844 757.0313,342.3438 756.7344,342.3438 C756.4375,342.3438 756.2344,342.4375 756.0156,342.75 L755.8438,342.6719 Z " fill="#000000"/><text fill="#000000" font-family="sans-serif" font-size="14" lengthAdjust="spacing" textLength="155" x="767.5" y="351.8467">SkImageRef_ashmem</text><line style="stroke:#181818;stroke-width:0.5;" x1="739.5" x2="924.5" y1="363" y2="363"/><line style="stroke:#181818;stroke-width:0.5;" x1="739.5" x2="924.5" y1="371" y2="371"/><text fill="#000000" font-family="sans-serif" font-size="14" lengthAdjust="spacing" textLength="119" x="744.5" y="387.9951">bool onDecode()</text></g><!--class AshmemAllocator--><g id="elem_AshmemAllocator"><rect codeLine="12" fill="#F1F1F1" height="64.2969" id="AshmemAllocator" rx="2.5" ry="2.5" style="stroke:#181818;stroke-width:0.5;" width="386" x="639" y="455"/><ellipse cx="763.75" cy="471" fill="#ADD1B2" rx="11" ry="11" style="stroke:#181818;stroke-width:1.0;"/><path d="M766.0938,466.6719 C765.1563,466.2344 764.5625,466.0938 763.6875,466.0938 C761.0625,466.0938 759.0625,468.1719 759.0625,470.8906 L759.0625,472.0156 C759.0625,474.5938 761.1719,476.4844 764.0625,476.4844 C765.2813,476.4844 766.4375,476.1875 767.1875,475.6406 C767.7656,475.2344 768.0938,474.7813 768.0938,474.3906 C768.0938,473.9375 767.7031,473.5469 767.2344,473.5469 C767.0156,473.5469 766.8125,473.625 766.625,473.8125 C766.1719,474.2969 766.1719,474.2969 765.9844,474.3906 C765.5625,474.6563 764.875,474.7813 764.1094,474.7813 C762.0625,474.7813 760.7656,473.6875 760.7656,471.9844 L760.7656,470.8906 C760.7656,469.1094 762.0156,467.7969 763.75,467.7969 C764.3281,467.7969 764.9375,467.9531 765.4063,468.2031 C765.8906,468.4844 766.0625,468.7031 766.1563,469.1094 C766.2188,469.5156 766.25,469.6406 766.3906,469.7656 C766.5313,469.9063 766.7656,470.0156 766.9844,470.0156 C767.25,470.0156 767.5156,469.875 767.6875,469.6563 C767.7969,469.5 767.8281,469.3125 767.8281,468.8906 L767.8281,467.4688 C767.8281,467.0313 767.8125,466.9063 767.7188,466.75 C767.5625,466.4844 767.2813,466.3438 766.9844,466.3438 C766.6875,466.3438 766.4844,466.4375 766.2656,466.75 L766.0938,466.6719 Z " fill="#000000"/><text fill="#000000" font-family="sans-serif" font-size="14" lengthAdjust="spacing" textLength="128" x="784.25" y="475.8467">AshmemAllocator</text><line style="stroke:#181818;stroke-width:0.5;" x1="640" x2="1024" y1="487" y2="487"/><line style="stroke:#181818;stroke-width:0.5;" x1="640" x2="1024" y1="495" y2="495"/><text fill="#000000" font-family="sans-serif" font-size="14" lengthAdjust="spacing" textLength="374" x="645" y="511.9951">bool allocPixelRef(SkBitmap* bm, SkColorTable* ct)</text></g><!--class SkBitmap--><g id="elem_SkBitmap"><rect fill="#F1F1F1" height="48" id="SkBitmap" rx="2.5" ry="2.5" style="stroke:#181818;stroke-width:0.5;" width="103" x="888.5" y="7"/><ellipse cx="903.5" cy="23" fill="#ADD1B2" rx="11" ry="11" style="stroke:#181818;stroke-width:1.0;"/><path d="M905.8438,18.6719 C904.9063,18.2344 904.3125,18.0938 903.4375,18.0938 C900.8125,18.0938 898.8125,20.1719 898.8125,22.8906 L898.8125,24.0156 C898.8125,26.5938 900.9219,28.4844 903.8125,28.4844 C905.0313,28.4844 906.1875,28.1875 906.9375,27.6406 C907.5156,27.2344 907.8438,26.7813 907.8438,26.3906 C907.8438,25.9375 907.4531,25.5469 906.9844,25.5469 C906.7656,25.5469 906.5625,25.625 906.375,25.8125 C905.9219,26.2969 905.9219,26.2969 905.7344,26.3906 C905.3125,26.6563 904.625,26.7813 903.8594,26.7813 C901.8125,26.7813 900.5156,25.6875 900.5156,23.9844 L900.5156,22.8906 C900.5156,21.1094 901.7656,19.7969 903.5,19.7969 C904.0781,19.7969 904.6875,19.9531 905.1563,20.2031 C905.6406,20.4844 905.8125,20.7031 905.9063,21.1094 C905.9688,21.5156 906,21.6406 906.1406,21.7656 C906.2813,21.9063 906.5156,22.0156 906.7344,22.0156 C907,22.0156 907.2656,21.875 907.4375,21.6563 C907.5469,21.5 907.5781,21.3125 907.5781,20.8906 L907.5781,19.4688 C907.5781,19.0313 907.5625,18.9063 907.4688,18.75 C907.3125,18.4844 907.0313,18.3438 906.7344,18.3438 C906.4375,18.3438 906.2344,18.4375 906.0156,18.75 L905.8438,18.6719 Z " fill="#000000"/><text fill="#000000" font-family="sans-serif" font-size="14" lengthAdjust="spacing" textLength="71" x="917.5" y="27.8467">SkBitmap</text><line style="stroke:#181818;stroke-width:0.5;" x1="889.5" x2="990.5" y1="39" y2="39"/><line style="stroke:#181818;stroke-width:0.5;" x1="889.5" x2="990.5" y1="47" y2="47"/></g><!--class SkMallocPixelRef--><g id="elem_SkMallocPixelRef"><rect fill="#F1F1F1" height="48" id="SkMallocPixelRef" rx="2.5" ry="2.5" style="stroke:#181818;stroke-width:0.5;" width="154" x="949" y="223"/><ellipse cx="964" cy="239" fill="#ADD1B2" rx="11" ry="11" style="stroke:#181818;stroke-width:1.0;"/><path d="M966.3438,234.6719 C965.4063,234.2344 964.8125,234.0938 963.9375,234.0938 C961.3125,234.0938 959.3125,236.1719 959.3125,238.8906 L959.3125,240.0156 C959.3125,242.5938 961.4219,244.4844 964.3125,244.4844 C965.5313,244.4844 966.6875,244.1875 967.4375,243.6406 C968.0156,243.2344 968.3438,242.7813 968.3438,242.3906 C968.3438,241.9375 967.9531,241.5469 967.4844,241.5469 C967.2656,241.5469 967.0625,241.625 966.875,241.8125 C966.4219,242.2969 966.4219,242.2969 966.2344,242.3906 C965.8125,242.6563 965.125,242.7813 964.3594,242.7813 C962.3125,242.7813 961.0156,241.6875 961.0156,239.9844 L961.0156,238.8906 C961.0156,237.1094 962.2656,235.7969 964,235.7969 C964.5781,235.7969 965.1875,235.9531 965.6563,236.2031 C966.1406,236.4844 966.3125,236.7031 966.4063,237.1094 C966.4688,237.5156 966.5,237.6406 966.6406,237.7656 C966.7813,237.9063 967.0156,238.0156 967.2344,238.0156 C967.5,238.0156 967.7656,237.875 967.9375,237.6563 C968.0469,237.5 968.0781,237.3125 968.0781,236.8906 L968.0781,235.4688 C968.0781,235.0313 968.0625,234.9063 967.9688,234.75 C967.8125,234.4844 967.5313,234.3438 967.2344,234.3438 C966.9375,234.3438 966.7344,234.4375 966.5156,234.75 L966.3438,234.6719 Z " fill="#000000"/><text fill="#000000" font-family="sans-serif" font-size="14" lengthAdjust="spacing" textLength="122" x="978" y="243.8467">SkMallocPixelRef</text><line style="stroke:#181818;stroke-width:0.5;" x1="950" x2="1102" y1="255" y2="255"/><line style="stroke:#181818;stroke-width:0.5;" x1="950" x2="1102" y1="263" y2="263"/></g><!--class AndroidPixelRef--><g id="elem_AndroidPixelRef"><rect fill="#F1F1F1" height="48" id="AndroidPixelRef" rx="2.5" ry="2.5" style="stroke:#181818;stroke-width:0.5;" width="147" x="960.5" y="339"/><ellipse cx="975.5" cy="355" fill="#ADD1B2" rx="11" ry="11" style="stroke:#181818;stroke-width:1.0;"/><path d="M977.8438,350.6719 C976.9063,350.2344 976.3125,350.0938 975.4375,350.0938 C972.8125,350.0938 970.8125,352.1719 970.8125,354.8906 L970.8125,356.0156 C970.8125,358.5938 972.9219,360.4844 975.8125,360.4844 C977.0313,360.4844 978.1875,360.1875 978.9375,359.6406 C979.5156,359.2344 979.8438,358.7813 979.8438,358.3906 C979.8438,357.9375 979.4531,357.5469 978.9844,357.5469 C978.7656,357.5469 978.5625,357.625 978.375,357.8125 C977.9219,358.2969 977.9219,358.2969 977.7344,358.3906 C977.3125,358.6563 976.625,358.7813 975.8594,358.7813 C973.8125,358.7813 972.5156,357.6875 972.5156,355.9844 L972.5156,354.8906 C972.5156,353.1094 973.7656,351.7969 975.5,351.7969 C976.0781,351.7969 976.6875,351.9531 977.1563,352.2031 C977.6406,352.4844 977.8125,352.7031 977.9063,353.1094 C977.9688,353.5156 978,353.6406 978.1406,353.7656 C978.2813,353.9063 978.5156,354.0156 978.7344,354.0156 C979,354.0156 979.2656,353.875 979.4375,353.6563 C979.5469,353.5 979.5781,353.3125 979.5781,352.8906 L979.5781,351.4688 C979.5781,351.0313 979.5625,350.9063 979.4688,350.75 C979.3125,350.4844 979.0313,350.3438 978.7344,350.3438 C978.4375,350.3438 978.2344,350.4375 978.0156,350.75 L977.8438,350.6719 Z " fill="#000000"/><text fill="#000000" font-family="sans-serif" font-size="14" lengthAdjust="spacing" textLength="115" x="989.5" y="359.8467">AndroidPixelRef</text><line style="stroke:#181818;stroke-width:0.5;" x1="961.5" x2="1106.5" y1="371" y2="371"/><line style="stroke:#181818;stroke-width:0.5;" x1="961.5" x2="1106.5" y1="379" y2="379"/></g><!--reverse link SkImageDecoder to SkJPEGImageDecoder--><g id="link_SkImageDecoder_SkJPEGImageDecoder"><path codeLine="1" d="M342.2575,60.505 C287.0005,78.255 228.043,97.192 172.75,114.953 " fill="none" id="SkImageDecoder-backto-SkJPEGImageDecoder" style="stroke:#181818;stroke-width:1.0;"/><polygon fill="none" points="359.395,55,340.4225,54.7925,344.0925,66.2175,359.395,55" style="stroke:#181818;stroke-width:1.0;"/></g><!--reverse link SkImageDecoder to SkPNGImageDecoder--><g id="link_SkImageDecoder_SkPNGImageDecoder"><path codeLine="2" d="M394.7194,67.6081 C376.7274,85.2661 364.834,96.941 346.762,114.678 " fill="none" id="SkImageDecoder-backto-SkPNGImageDecoder" style="stroke:#181818;stroke-width:1.0;"/><polygon fill="none" points="407.566,55,390.5167,63.3259,398.9221,71.8903,407.566,55" style="stroke:#181818;stroke-width:1.0;"/></g><!--reverse link SkImageDecoder to SkGIFImageDecoder--><g id="link_SkImageDecoder_SkGIFImageDecoder"><path codeLine="3" d="M467.5553,67.549 C485.7133,85.207 497.779,96.941 516.018,114.678 " fill="none" id="SkImageDecoder-backto-SkGIFImageDecoder" style="stroke:#181818;stroke-width:1.0;"/><polygon fill="none" points="454.651,55,463.3723,71.8505,471.7384,63.2476,454.651,55" style="stroke:#181818;stroke-width:1.0;"/></g><!--reverse link SkImageDecoder to SkBMPImageDecoder--><g id="link_SkImageDecoder_SkBMPImageDecoder"><path codeLine="4" d="M518.8548,60.5661 C573.4428,78.3161 631.497,97.192 686.12,114.953 " fill="none" id="SkImageDecoder-backto-SkBMPImageDecoder" style="stroke:#181818;stroke-width:1.0;"/><polygon fill="none" points="501.737,55,516.9994,66.272,520.7102,54.8601,501.737,55" style="stroke:#181818;stroke-width:1.0;"/></g><!--reverse link SkPixelRef to SkImageRef--><g id="link_SkPixelRef_SkImageRef"><path codeLine="6" d="M905.6678,176.0312 C888.8418,193.6892 878.122,204.941 861.222,222.678 " fill="none" id="SkPixelRef-backto-SkImageRef" style="stroke:#181818;stroke-width:1.0;"/><polygon fill="none" points="918.085,163,901.324,171.8921,910.0115,180.1703,918.085,163" style="stroke:#181818;stroke-width:1.0;"/></g><!--reverse link SkImageRef to SkImageRef_ashmem--><g id="link_SkImageRef_SkImageRef_ashmem"><path codeLine="7" d="M836.4805,289.0362 C835.4265,306.2122 835.077,311.884 833.919,330.755 " fill="none" id="SkImageRef-backto-SkImageRef_ashmem" style="stroke:#181818;stroke-width:1.0;"/><polygon fill="none" points="837.583,271.07,830.4918,288.6687,842.4692,289.4037,837.583,271.07" style="stroke:#181818;stroke-width:1.0;"/></g><!--link SkImageRef_ashmem to AshmemAllocator--><g id="link_SkImageRef_ashmem_AshmemAllocator"><path codeLine="11" d="M832,395.101 C832,413.457 832,430.6101 832,448.9554 " fill="none" id="SkImageRef_ashmem-to-AshmemAllocator" style="stroke:#181818;stroke-width:1.0;"/><polygon fill="#181818" points="832,454.9554,836,445.9554,832,449.9554,828,445.9554,832,454.9554" style="stroke:#181818;stroke-width:1.0;"/></g><!--reverse link SkBitmap to SkPixelRef--><g id="link_SkBitmap_SkPixelRef"><path codeLine="15" d="M940,67 C940,84.658 940,96.941 940,114.678 " fill="none" id="SkBitmap-backto-SkPixelRef" style="stroke:#181818;stroke-width:1.0;"/><polygon fill="#181818" points="940,55,936,61,940,67,944,61,940,55" style="stroke:#181818;stroke-width:1.0;"/></g><!--reverse link SkPixelRef to SkMallocPixelRef--><g id="link_SkPixelRef_SkMallocPixelRef"><path codeLine="17" d="M970.0016,176.9782 C984.3276,194.6362 992.688,204.941 1007.08,222.678 " fill="none" id="SkPixelRef-backto-SkMallocPixelRef" style="stroke:#181818;stroke-width:1.0;"/><polygon fill="none" points="958.661,163,965.3422,180.7584,974.661,173.198,958.661,163" style="stroke:#181818;stroke-width:1.0;"/></g><!--reverse link SkMallocPixelRef to AndroidPixelRef--><g id="link_SkMallocPixelRef_AndroidPixelRef"><path codeLine="18" d="M1028.8819,289.0257 C1030.2719,308.8037 1031,319.196 1032.38,338.965 " fill="none" id="SkMallocPixelRef-backto-AndroidPixelRef" style="stroke:#181818;stroke-width:1.0;"/><polygon fill="none" points="1027.62,271.07,1022.8967,289.4464,1034.8672,288.6051,1027.62,271.07" style="stroke:#181818;stroke-width:1.0;"/></g><!--SRC=[ZP1B3e8m443tFSKibSWDZ0d-22QOHjoRKgeIMiOK5YRgtQqK8hy5NKtVlCwdKHOeTXDRmJ4H6fPlruKeEz2Tt-Oa6jNeSOhb1_i9rZga7SjeD7qAUHBNHgdovax-OJzrOSLT2KMuP4KnvF0YO4wCA05psses9nyoD5rt1LuLUb8YPoNgkcgFjcko7sp6dfcbqbAnXmEnMfXXDYXHdraiXGEyj6sj0Oxzp_hbsF9XfpRf0wjvUQ8nJHhu1G00]--></g></svg>