<?xml version="1.0" encoding="us-ascii" standalone="no"?><svg xmlns="http://www.w3.org/2000/svg" xmlns:xlink="http://www.w3.org/1999/xlink" contentStyleType="text/css" height="688px" preserveAspectRatio="none" style="width:380px;height:688px;background:#FFFFFF;" version="1.1" viewBox="0 0 380 688" width="380px" zoomAndPan="magnify"><defs/><g><!--class Executor--><g id="elem_Executor"><rect codeLine="1" fill="#F1F1F1" height="64.2969" id="Executor" rx="2.5" ry="2.5" style="stroke:#181818;stroke-width:0.5;" width="256" x="17" y="7"/><ellipse cx="109.25" cy="23" fill="#B4A7E5" rx="11" ry="11" style="stroke:#181818;stroke-width:1.0;"/><path d="M110.2031,19.7813 L111.9219,19.7813 C112.3125,19.7813 112.5,19.75 112.625,19.6719 C112.8906,19.5156 113.0313,19.2344 113.0313,18.9375 C113.0313,18.6719 112.9219,18.4063 112.6875,18.2344 C112.5156,18.125 112.375,18.0938 111.9219,18.0938 L106.7813,18.0938 C106.3438,18.0938 106.2188,18.1094 106.0625,18.2031 C105.8125,18.3594 105.6563,18.6563 105.6563,18.9375 C105.6563,19.2188 105.7969,19.4688 106.0156,19.6406 C106.1719,19.75 106.3594,19.7813 106.7813,19.7813 L108.5,19.7813 L108.5,26.2969 L106.7813,26.2969 C106.3438,26.2969 106.2188,26.3125 106.0625,26.4219 C105.8125,26.5781 105.6563,26.8594 105.6563,27.1563 C105.6563,27.4063 105.7969,27.6719 106.0156,27.8281 C106.1719,27.9531 106.375,28 106.7813,28 L111.9219,28 C112.6719,28 113.0313,27.7188 113.0313,27.1563 C113.0313,26.875 112.9219,26.625 112.6875,26.4531 C112.5156,26.3281 112.375,26.2969 111.9219,26.2969 L110.2031,26.2969 L110.2031,19.7813 Z " fill="#000000"/><text fill="#000000" font-family="sans-serif" font-size="14" font-style="italic" lengthAdjust="spacing" textLength="63" x="129.75" y="27.8467">Executor</text><line style="stroke:#181818;stroke-width:0.5;" x1="18" x2="272" y1="39" y2="39"/><line style="stroke:#181818;stroke-width:0.5;" x1="18" x2="272" y1="47" y2="47"/><text fill="#000000" font-family="sans-serif" font-size="14" lengthAdjust="spacing" textLength="244" x="23" y="63.9951">void execute(Runnable command)</text></g><!--class ExecutorService--><g id="elem_ExecutorService"><rect codeLine="4" fill="#F1F1F1" height="96.8906" id="ExecutorService" rx="2.5" ry="2.5" style="stroke:#181818;stroke-width:0.5;" width="276" x="7" y="132"/><ellipse cx="82.75" cy="148" fill="#B4A7E5" rx="11" ry="11" style="stroke:#181818;stroke-width:1.0;"/><path d="M83.7031,144.7813 L85.4219,144.7813 C85.8125,144.7813 86,144.75 86.125,144.6719 C86.3906,144.5156 86.5313,144.2344 86.5313,143.9375 C86.5313,143.6719 86.4219,143.4063 86.1875,143.2344 C86.0156,143.125 85.875,143.0938 85.4219,143.0938 L80.2813,143.0938 C79.8438,143.0938 79.7188,143.1094 79.5625,143.2031 C79.3125,143.3594 79.1563,143.6563 79.1563,143.9375 C79.1563,144.2188 79.2969,144.4688 79.5156,144.6406 C79.6719,144.75 79.8594,144.7813 80.2813,144.7813 L82,144.7813 L82,151.2969 L80.2813,151.2969 C79.8438,151.2969 79.7188,151.3125 79.5625,151.4219 C79.3125,151.5781 79.1563,151.8594 79.1563,152.1563 C79.1563,152.4063 79.2969,152.6719 79.5156,152.8281 C79.6719,152.9531 79.875,153 80.2813,153 L85.4219,153 C86.1719,153 86.5313,152.7188 86.5313,152.1563 C86.5313,151.875 86.4219,151.625 86.1875,151.4531 C86.0156,151.3281 85.875,151.2969 85.4219,151.2969 L83.7031,151.2969 L83.7031,144.7813 Z " fill="#000000"/><text fill="#000000" font-family="sans-serif" font-size="14" font-style="italic" lengthAdjust="spacing" textLength="116" x="103.25" y="152.8467">ExecutorService</text><line style="stroke:#181818;stroke-width:0.5;" x1="8" x2="282" y1="164" y2="164"/><line style="stroke:#181818;stroke-width:0.5;" x1="8" x2="282" y1="172" y2="172"/><text fill="#000000" font-family="sans-serif" font-size="14" lengthAdjust="spacing" textLength="264" x="13" y="188.9951">Future&lt;?&gt; submit(Runnable task, ...)</text><text fill="#000000" font-family="sans-serif" font-size="14" lengthAdjust="spacing" textLength="113" x="13" y="205.292">void shutdown()</text><text fill="#000000" font-family="sans-serif" font-size="14" lengthAdjust="spacing" textLength="228" x="13" y="221.5889">List&lt;Runnable&gt; shutdownNow()</text></g><!--class AbstractExecutorService--><g id="elem_AbstractExecutorService"><rect fill="#F1F1F1" height="48" id="AbstractExecutorService" rx="2.5" ry="2.5" style="stroke:#181818;stroke-width:0.5;" width="212" x="39" y="290"/><ellipse cx="54" cy="306" fill="#ADD1B2" rx="11" ry="11" style="stroke:#181818;stroke-width:1.0;"/><path d="M56.3438,301.6719 C55.4063,301.2344 54.8125,301.0938 53.9375,301.0938 C51.3125,301.0938 49.3125,303.1719 49.3125,305.8906 L49.3125,307.0156 C49.3125,309.5938 51.4219,311.4844 54.3125,311.4844 C55.5313,311.4844 56.6875,311.1875 57.4375,310.6406 C58.0156,310.2344 58.3438,309.7813 58.3438,309.3906 C58.3438,308.9375 57.9531,308.5469 57.4844,308.5469 C57.2656,308.5469 57.0625,308.625 56.875,308.8125 C56.4219,309.2969 56.4219,309.2969 56.2344,309.3906 C55.8125,309.6563 55.125,309.7813 54.3594,309.7813 C52.3125,309.7813 51.0156,308.6875 51.0156,306.9844 L51.0156,305.8906 C51.0156,304.1094 52.2656,302.7969 54,302.7969 C54.5781,302.7969 55.1875,302.9531 55.6563,303.2031 C56.1406,303.4844 56.3125,303.7031 56.4063,304.1094 C56.4688,304.5156 56.5,304.6406 56.6406,304.7656 C56.7813,304.9063 57.0156,305.0156 57.2344,305.0156 C57.5,305.0156 57.7656,304.875 57.9375,304.6563 C58.0469,304.5 58.0781,304.3125 58.0781,303.8906 L58.0781,302.4688 C58.0781,302.0313 58.0625,301.9063 57.9688,301.75 C57.8125,301.4844 57.5313,301.3438 57.2344,301.3438 C56.9375,301.3438 56.7344,301.4375 56.5156,301.75 L56.3438,301.6719 Z " fill="#000000"/><text fill="#000000" font-family="sans-serif" font-size="14" lengthAdjust="spacing" textLength="180" x="68" y="310.8467">AbstractExecutorService</text><line style="stroke:#181818;stroke-width:0.5;" x1="40" x2="250" y1="322" y2="322"/><line style="stroke:#181818;stroke-width:0.5;" x1="40" x2="250" y1="330" y2="330"/></g><!--class ThreadPoolExecutor--><g id="elem_ThreadPoolExecutor"><rect fill="#F1F1F1" height="48" id="ThreadPoolExecutor" rx="2.5" ry="2.5" style="stroke:#181818;stroke-width:0.5;" width="177" x="184.5" y="399"/><ellipse cx="199.5" cy="415" fill="#ADD1B2" rx="11" ry="11" style="stroke:#181818;stroke-width:1.0;"/><path d="M201.8438,410.6719 C200.9063,410.2344 200.3125,410.0938 199.4375,410.0938 C196.8125,410.0938 194.8125,412.1719 194.8125,414.8906 L194.8125,416.0156 C194.8125,418.5938 196.9219,420.4844 199.8125,420.4844 C201.0313,420.4844 202.1875,420.1875 202.9375,419.6406 C203.5156,419.2344 203.8438,418.7813 203.8438,418.3906 C203.8438,417.9375 203.4531,417.5469 202.9844,417.5469 C202.7656,417.5469 202.5625,417.625 202.375,417.8125 C201.9219,418.2969 201.9219,418.2969 201.7344,418.3906 C201.3125,418.6563 200.625,418.7813 199.8594,418.7813 C197.8125,418.7813 196.5156,417.6875 196.5156,415.9844 L196.5156,414.8906 C196.5156,413.1094 197.7656,411.7969 199.5,411.7969 C200.0781,411.7969 200.6875,411.9531 201.1563,412.2031 C201.6406,412.4844 201.8125,412.7031 201.9063,413.1094 C201.9688,413.5156 202,413.6406 202.1406,413.7656 C202.2813,413.9063 202.5156,414.0156 202.7344,414.0156 C203,414.0156 203.2656,413.875 203.4375,413.6563 C203.5469,413.5 203.5781,413.3125 203.5781,412.8906 L203.5781,411.4688 C203.5781,411.0313 203.5625,410.9063 203.4688,410.75 C203.3125,410.4844 203.0313,410.3438 202.7344,410.3438 C202.4375,410.3438 202.2344,410.4375 202.0156,410.75 L201.8438,410.6719 Z " fill="#000000"/><text fill="#000000" font-family="sans-serif" font-size="14" lengthAdjust="spacing" textLength="145" x="213.5" y="419.8467">ThreadPoolExecutor</text><line style="stroke:#181818;stroke-width:0.5;" x1="185.5" x2="360.5" y1="431" y2="431"/><line style="stroke:#181818;stroke-width:0.5;" x1="185.5" x2="360.5" y1="439" y2="439"/></g><!--class Executors--><g id="elem_Executors"><rect fill="#F1F1F1" height="48" id="Executors" rx="2.5" ry="2.5" style="stroke:#181818;stroke-width:0.5;" width="103" x="78.5" y="524"/><ellipse cx="93.5" cy="540" fill="#ADD1B2" rx="11" ry="11" style="stroke:#181818;stroke-width:1.0;"/><path d="M95.8438,535.6719 C94.9063,535.2344 94.3125,535.0938 93.4375,535.0938 C90.8125,535.0938 88.8125,537.1719 88.8125,539.8906 L88.8125,541.0156 C88.8125,543.5938 90.9219,545.4844 93.8125,545.4844 C95.0313,545.4844 96.1875,545.1875 96.9375,544.6406 C97.5156,544.2344 97.8438,543.7813 97.8438,543.3906 C97.8438,542.9375 97.4531,542.5469 96.9844,542.5469 C96.7656,542.5469 96.5625,542.625 96.375,542.8125 C95.9219,543.2969 95.9219,543.2969 95.7344,543.3906 C95.3125,543.6563 94.625,543.7813 93.8594,543.7813 C91.8125,543.7813 90.5156,542.6875 90.5156,540.9844 L90.5156,539.8906 C90.5156,538.1094 91.7656,536.7969 93.5,536.7969 C94.0781,536.7969 94.6875,536.9531 95.1563,537.2031 C95.6406,537.4844 95.8125,537.7031 95.9063,538.1094 C95.9688,538.5156 96,538.6406 96.1406,538.7656 C96.2813,538.9063 96.5156,539.0156 96.7344,539.0156 C97,539.0156 97.2656,538.875 97.4375,538.6563 C97.5469,538.5 97.5781,538.3125 97.5781,537.8906 L97.5781,536.4688 C97.5781,536.0313 97.5625,535.9063 97.4688,535.75 C97.3125,535.4844 97.0313,535.3438 96.7344,535.3438 C96.4375,535.3438 96.2344,535.4375 96.0156,535.75 L95.8438,535.6719 Z " fill="#000000"/><text fill="#000000" font-family="sans-serif" font-size="14" lengthAdjust="spacing" textLength="71" x="107.5" y="544.8467">Executors</text><line style="stroke:#181818;stroke-width:0.5;" x1="79.5" x2="180.5" y1="556" y2="556"/><line style="stroke:#181818;stroke-width:0.5;" x1="79.5" x2="180.5" y1="564" y2="564"/></g><!--class ForkJoinPool--><g id="elem_ForkJoinPool"><rect fill="#F1F1F1" height="48" id="ForkJoinPool" rx="2.5" ry="2.5" style="stroke:#181818;stroke-width:0.5;" width="121" x="28.5" y="399"/><ellipse cx="43.5" cy="415" fill="#ADD1B2" rx="11" ry="11" style="stroke:#181818;stroke-width:1.0;"/><path d="M45.8438,410.6719 C44.9063,410.2344 44.3125,410.0938 43.4375,410.0938 C40.8125,410.0938 38.8125,412.1719 38.8125,414.8906 L38.8125,416.0156 C38.8125,418.5938 40.9219,420.4844 43.8125,420.4844 C45.0313,420.4844 46.1875,420.1875 46.9375,419.6406 C47.5156,419.2344 47.8438,418.7813 47.8438,418.3906 C47.8438,417.9375 47.4531,417.5469 46.9844,417.5469 C46.7656,417.5469 46.5625,417.625 46.375,417.8125 C45.9219,418.2969 45.9219,418.2969 45.7344,418.3906 C45.3125,418.6563 44.625,418.7813 43.8594,418.7813 C41.8125,418.7813 40.5156,417.6875 40.5156,415.9844 L40.5156,414.8906 C40.5156,413.1094 41.7656,411.7969 43.5,411.7969 C44.0781,411.7969 44.6875,411.9531 45.1563,412.2031 C45.6406,412.4844 45.8125,412.7031 45.9063,413.1094 C45.9688,413.5156 46,413.6406 46.1406,413.7656 C46.2813,413.9063 46.5156,414.0156 46.7344,414.0156 C47,414.0156 47.2656,413.875 47.4375,413.6563 C47.5469,413.5 47.5781,413.3125 47.5781,412.8906 L47.5781,411.4688 C47.5781,411.0313 47.5625,410.9063 47.4688,410.75 C47.3125,410.4844 47.0313,410.3438 46.7344,410.3438 C46.4375,410.3438 46.2344,410.4375 46.0156,410.75 L45.8438,410.6719 Z " fill="#000000"/><text fill="#000000" font-family="sans-serif" font-size="14" lengthAdjust="spacing" textLength="89" x="57.5" y="419.8467">ForkJoinPool</text><line style="stroke:#181818;stroke-width:0.5;" x1="29.5" x2="148.5" y1="431" y2="431"/><line style="stroke:#181818;stroke-width:0.5;" x1="29.5" x2="148.5" y1="439" y2="439"/></g><!--class Worker--><g id="elem_Worker"><rect fill="#F1F1F1" height="48" id="Worker" rx="2.5" ry="2.5" style="stroke:#181818;stroke-width:0.5;" width="85" x="230.5" y="524"/><ellipse cx="245.5" cy="540" fill="#ADD1B2" rx="11" ry="11" style="stroke:#181818;stroke-width:1.0;"/><path d="M247.8438,535.6719 C246.9063,535.2344 246.3125,535.0938 245.4375,535.0938 C242.8125,535.0938 240.8125,537.1719 240.8125,539.8906 L240.8125,541.0156 C240.8125,543.5938 242.9219,545.4844 245.8125,545.4844 C247.0313,545.4844 248.1875,545.1875 248.9375,544.6406 C249.5156,544.2344 249.8438,543.7813 249.8438,543.3906 C249.8438,542.9375 249.4531,542.5469 248.9844,542.5469 C248.7656,542.5469 248.5625,542.625 248.375,542.8125 C247.9219,543.2969 247.9219,543.2969 247.7344,543.3906 C247.3125,543.6563 246.625,543.7813 245.8594,543.7813 C243.8125,543.7813 242.5156,542.6875 242.5156,540.9844 L242.5156,539.8906 C242.5156,538.1094 243.7656,536.7969 245.5,536.7969 C246.0781,536.7969 246.6875,536.9531 247.1563,537.2031 C247.6406,537.4844 247.8125,537.7031 247.9063,538.1094 C247.9688,538.5156 248,538.6406 248.1406,538.7656 C248.2813,538.9063 248.5156,539.0156 248.7344,539.0156 C249,539.0156 249.2656,538.875 249.4375,538.6563 C249.5469,538.5 249.5781,538.3125 249.5781,537.8906 L249.5781,536.4688 C249.5781,536.0313 249.5625,535.9063 249.4688,535.75 C249.3125,535.4844 249.0313,535.3438 248.7344,535.3438 C248.4375,535.3438 248.2344,535.4375 248.0156,535.75 L247.8438,535.6719 Z " fill="#000000"/><text fill="#000000" font-family="sans-serif" font-size="14" lengthAdjust="spacing" textLength="53" x="259.5" y="544.8467">Worker</text><line style="stroke:#181818;stroke-width:0.5;" x1="231.5" x2="314.5" y1="556" y2="556"/><line style="stroke:#181818;stroke-width:0.5;" x1="231.5" x2="314.5" y1="564" y2="564"/></g><!--class Thread--><g id="elem_Thread"><rect fill="#F1F1F1" height="48" id="Thread" rx="2.5" ry="2.5" style="stroke:#181818;stroke-width:0.5;" width="82" x="291" y="633"/><ellipse cx="306" cy="649" fill="#ADD1B2" rx="11" ry="11" style="stroke:#181818;stroke-width:1.0;"/><path d="M308.3438,644.6719 C307.4063,644.2344 306.8125,644.0938 305.9375,644.0938 C303.3125,644.0938 301.3125,646.1719 301.3125,648.8906 L301.3125,650.0156 C301.3125,652.5938 303.4219,654.4844 306.3125,654.4844 C307.5313,654.4844 308.6875,654.1875 309.4375,653.6406 C310.0156,653.2344 310.3438,652.7813 310.3438,652.3906 C310.3438,651.9375 309.9531,651.5469 309.4844,651.5469 C309.2656,651.5469 309.0625,651.625 308.875,651.8125 C308.4219,652.2969 308.4219,652.2969 308.2344,652.3906 C307.8125,652.6563 307.125,652.7813 306.3594,652.7813 C304.3125,652.7813 303.0156,651.6875 303.0156,649.9844 L303.0156,648.8906 C303.0156,647.1094 304.2656,645.7969 306,645.7969 C306.5781,645.7969 307.1875,645.9531 307.6563,646.2031 C308.1406,646.4844 308.3125,646.7031 308.4063,647.1094 C308.4688,647.5156 308.5,647.6406 308.6406,647.7656 C308.7813,647.9063 309.0156,648.0156 309.2344,648.0156 C309.5,648.0156 309.7656,647.875 309.9375,647.6563 C310.0469,647.5 310.0781,647.3125 310.0781,646.8906 L310.0781,645.4688 C310.0781,645.0313 310.0625,644.9063 309.9688,644.75 C309.8125,644.4844 309.5313,644.3438 309.2344,644.3438 C308.9375,644.3438 308.7344,644.4375 308.5156,644.75 L308.3438,644.6719 Z " fill="#000000"/><text fill="#000000" font-family="sans-serif" font-size="14" lengthAdjust="spacing" textLength="50" x="320" y="653.8467">Thread</text><line style="stroke:#181818;stroke-width:0.5;" x1="292" x2="372" y1="665" y2="665"/><line style="stroke:#181818;stroke-width:0.5;" x1="292" x2="372" y1="673" y2="673"/></g><!--class Runnable--><g id="elem_Runnable"><rect fill="#F1F1F1" height="48" id="Runnable" rx="2.5" ry="2.5" style="stroke:#181818;stroke-width:0.5;" width="99" x="48.5" y="633"/><ellipse cx="63.5" cy="649" fill="#ADD1B2" rx="11" ry="11" style="stroke:#181818;stroke-width:1.0;"/><path d="M65.8438,644.6719 C64.9063,644.2344 64.3125,644.0938 63.4375,644.0938 C60.8125,644.0938 58.8125,646.1719 58.8125,648.8906 L58.8125,650.0156 C58.8125,652.5938 60.9219,654.4844 63.8125,654.4844 C65.0313,654.4844 66.1875,654.1875 66.9375,653.6406 C67.5156,653.2344 67.8438,652.7813 67.8438,652.3906 C67.8438,651.9375 67.4531,651.5469 66.9844,651.5469 C66.7656,651.5469 66.5625,651.625 66.375,651.8125 C65.9219,652.2969 65.9219,652.2969 65.7344,652.3906 C65.3125,652.6563 64.625,652.7813 63.8594,652.7813 C61.8125,652.7813 60.5156,651.6875 60.5156,649.9844 L60.5156,648.8906 C60.5156,647.1094 61.7656,645.7969 63.5,645.7969 C64.0781,645.7969 64.6875,645.9531 65.1563,646.2031 C65.6406,646.4844 65.8125,646.7031 65.9063,647.1094 C65.9688,647.5156 66,647.6406 66.1406,647.7656 C66.2813,647.9063 66.5156,648.0156 66.7344,648.0156 C67,648.0156 67.2656,647.875 67.4375,647.6563 C67.5469,647.5 67.5781,647.3125 67.5781,646.8906 L67.5781,645.4688 C67.5781,645.0313 67.5625,644.9063 67.4688,644.75 C67.3125,644.4844 67.0313,644.3438 66.7344,644.3438 C66.4375,644.3438 66.2344,644.4375 66.0156,644.75 L65.8438,644.6719 Z " fill="#000000"/><text fill="#000000" font-family="sans-serif" font-size="14" lengthAdjust="spacing" textLength="67" x="77.5" y="653.8467">Runnable</text><line style="stroke:#181818;stroke-width:0.5;" x1="49.5" x2="146.5" y1="665" y2="665"/><line style="stroke:#181818;stroke-width:0.5;" x1="49.5" x2="146.5" y1="673" y2="673"/></g><g id="elem_GMN21"><path d="M182.5,644.5 L182.5,653 L147.629,657 L182.5,661 L182.5,669.6328 A0,0 0 0 0 182.5,669.6328 L255.5,669.6328 A0,0 0 0 0 255.5,669.6328 L255.5,654.5 L245.5,644.5 L182.5,644.5 A0,0 0 0 0 182.5,644.5 " fill="#FEFFDD" style="stroke:#181818;stroke-width:0.5;"/><path d="M245.5,644.5 L245.5,654.5 L255.5,654.5 L245.5,644.5 " fill="#FEFFDD" style="stroke:#181818;stroke-width:0.5;"/><text fill="#000000" font-family="sans-serif" font-size="13" lengthAdjust="spacing" textLength="52" x="188.5" y="661.5669">&#29992;&#25143;&#20219;&#21153;</text></g><!--reverse link Executor to ExecutorService--><g id="link_Executor_ExecutorService"><path codeLine="9" d="M145,89.307 C145,107.14 145,111.849 145,131.853 " fill="none" id="Executor-backto-ExecutorService" style="stroke:#181818;stroke-width:1.0;"/><polygon fill="none" points="145,71.307,139,89.307,151,89.307,145,71.307" style="stroke:#181818;stroke-width:1.0;"/></g><!--reverse link ExecutorService to AbstractExecutorService--><g id="link_ExecutorService_AbstractExecutorService"><path codeLine="10" d="M145,247.347 C145,267.909 145,272.999 145,289.703 " fill="none" id="ExecutorService-backto-AbstractExecutorService" style="stroke:#181818;stroke-width:1.0;"/><polygon fill="none" points="145,229.347,139,247.347,151,247.347,145,229.347" style="stroke:#181818;stroke-width:1.0;"/></g><!--reverse link AbstractExecutorService to ThreadPoolExecutor--><g id="link_AbstractExecutorService_ThreadPoolExecutor"><path codeLine="11" d="M186.5841,349.7617 C208.0541,367.7097 223.824,380.892 245.28,398.828 " fill="none" id="AbstractExecutorService-backto-ThreadPoolExecutor" style="stroke:#181818;stroke-width:1.0;"/><polygon fill="none" points="172.774,338.217,182.7359,354.3651,190.4324,345.1583,172.774,338.217" style="stroke:#181818;stroke-width:1.0;"/></g><!--reverse link ThreadPoolExecutor to Executors--><g id="link_ThreadPoolExecutor_Executors"><path codeLine="12" d="M241.5543,451.0477 C215.9883,473.0387 182.303,502.012 156.777,523.968 " fill="none" id="ThreadPoolExecutor-backto-Executors" style="stroke:#181818;stroke-width:1.0;"/><polygon fill="#181818" points="246.103,447.135,236.6714,449.9715,242.3124,450.3956,241.8883,456.0365,246.103,447.135" style="stroke:#181818;stroke-width:1.0;"/><text fill="#000000" font-family="sans-serif" font-size="13" lengthAdjust="spacing" textLength="27" x="212" y="490.0669">new</text></g><!--reverse link ForkJoinPool to Executors--><g id="link_ForkJoinPool_Executors"><path codeLine="13" d="M98.6091,452.8271 C105.9392,474.8181 115.004,502.012 122.323,523.968 " fill="none" id="ForkJoinPool-backto-Executors" style="stroke:#181818;stroke-width:1.0;"/><polygon fill="#181818" points="96.7118,447.135,95.763,456.9381,98.2929,451.8784,103.3525,454.4083,96.7118,447.135" style="stroke:#181818;stroke-width:1.0;"/><text fill="#000000" font-family="sans-serif" font-size="13" lengthAdjust="spacing" textLength="27" x="113" y="490.0669">new</text></g><!--reverse link AbstractExecutorService to ForkJoinPool--><g id="link_AbstractExecutorService_ForkJoinPool"><path codeLine="14" d="M124.5027,354.165 C115.1097,372.113 110.515,380.892 101.1275,398.828 " fill="none" id="AbstractExecutorService-backto-ForkJoinPool" style="stroke:#181818;stroke-width:1.0;"/><polygon fill="none" points="132.849,338.217,119.1867,351.3829,129.8187,356.9471,132.849,338.217" style="stroke:#181818;stroke-width:1.0;"/></g><!--reverse link Worker to Thread--><g id="link_Worker_Thread"><path codeLine="15" d="M291.5961,582.7255 C301.4921,600.6734 309.333,614.8918 319.223,632.8279 " fill="none" id="Worker-backto-Thread" style="stroke:#181818;stroke-width:1.0;"/><polygon fill="#181818" points="285.802,572.217,285.1962,579.4026,291.5961,582.7255,292.2019,575.5399,285.802,572.217" style="stroke:#181818;stroke-width:1.0;"/></g><!--reverse link Worker to Runnable--><g id="link_Worker_Runnable"><path codeLine="16" d="M224.7901,578.4768 C195.4361,596.4247 165.233,614.8918 135.898,632.8279 " fill="none" id="Worker-backto-Runnable" style="stroke:#181818;stroke-width:1.0;"/><polygon fill="#181818" points="235.028,572.217,227.8224,571.9342,224.7901,578.4768,231.9956,578.7595,235.028,572.217" style="stroke:#181818;stroke-width:1.0;"/></g><!--reverse link ThreadPoolExecutor to Worker--><g id="link_ThreadPoolExecutor_Worker"><path codeLine="18" d="M273,459.135 C273,481.126 273,502.012 273,523.968 " fill="none" id="ThreadPoolExecutor-backto-Worker" style="stroke:#181818;stroke-width:1.0;"/><polygon fill="#181818" points="273,447.135,269,453.135,273,459.135,277,453.135,273,447.135" style="stroke:#181818;stroke-width:1.0;"/><text fill="#000000" font-family="sans-serif" font-size="13" lengthAdjust="spacing" textLength="8" x="264.025" y="466.9291">1</text><text fill="#000000" font-family="sans-serif" font-size="13" lengthAdjust="spacing" textLength="26" x="243.6688" y="512.9718">0~n</text></g><!--SRC=[VP0zJiD048NxFSN8bOEm1IsoZ2X8WH12W4IzjYTubNW7xSx6IFpKY9eBq743Ybo7dsl4iR4JEJ_RpPjltdjQfHdDIAO8fm-OEYO3ZmAgDoML0TOQ-bTEQvbC458g2gcpWNWMQkto6irKLNDZC7Ji34R7CLYN58gN9YpjU1_2C1miaspkEADI-urshYn7xK7SRI-ez1VPNTVeAGZw-QBVfuPE4ij6fjo7j-ZDqKrkK6QNH9DstPbR2Dnz46z0u0WqbclWaCpuZ9HUeF_8pknLNjnM0nhOwpgjAkq_2KsCODHTpa2ZJgx2_ju_Vr-_lcUpdxSFiQ6nT-ZLJjx1Y_QWiPu3]--></g></svg>