<?xml version="1.0" encoding="us-ascii" standalone="no"?><svg xmlns="http://www.w3.org/2000/svg" xmlns:xlink="http://www.w3.org/1999/xlink" contentStyleType="text/css" height="428px" preserveAspectRatio="none" style="width:977px;height:428px;background:#FFFFFF;" version="1.1" viewBox="0 0 977 428" width="977px" zoomAndPan="magnify"><defs/><g><!--class DataSource--><g id="elem_DataSource"><rect codeLine="1" fill="#F1F1F1" height="48" id="DataSource" rx="2.5" ry="2.5" style="stroke:#181818;stroke-width:0.5;" width="349" x="478.5" y="10"/><ellipse cx="493.5" cy="26" fill="#ADD1B2" rx="11" ry="11" style="stroke:#181818;stroke-width:1.0;"/><path d="M495.8438,21.6719 C494.9063,21.2344 494.3125,21.0938 493.4375,21.0938 C490.8125,21.0938 488.8125,23.1719 488.8125,25.8906 L488.8125,27.0156 C488.8125,29.5938 490.9219,31.4844 493.8125,31.4844 C495.0313,31.4844 496.1875,31.1875 496.9375,30.6406 C497.5156,30.2344 497.8438,29.7813 497.8438,29.3906 C497.8438,28.9375 497.4531,28.5469 496.9844,28.5469 C496.7656,28.5469 496.5625,28.625 496.375,28.8125 C495.9219,29.2969 495.9219,29.2969 495.7344,29.3906 C495.3125,29.6563 494.625,29.7813 493.8594,29.7813 C491.8125,29.7813 490.5156,28.6875 490.5156,26.9844 L490.5156,25.8906 C490.5156,24.1094 491.7656,22.7969 493.5,22.7969 C494.0781,22.7969 494.6875,22.9531 495.1563,23.2031 C495.6406,23.4844 495.8125,23.7031 495.9063,24.1094 C495.9688,24.5156 496,24.6406 496.1406,24.7656 C496.2813,24.9063 496.5156,25.0156 496.7344,25.0156 C497,25.0156 497.2656,24.875 497.4375,24.6563 C497.5469,24.5 497.5781,24.3125 497.5781,23.8906 L497.5781,22.4688 C497.5781,22.0313 497.5625,21.9063 497.4688,21.75 C497.3125,21.4844 497.0313,21.3438 496.7344,21.3438 C496.4375,21.3438 496.2344,21.4375 496.0156,21.75 L495.8438,21.6719 Z " fill="#000000"/><text fill="#000000" font-family="sans-serif" font-size="14" lengthAdjust="spacing" textLength="83" x="507.5" y="30.8467">DataSource</text><rect fill="#FFFFFF" height="15.9688" style="stroke:#181818;stroke-width:1.0;stroke-dasharray:2.0,2.0;" width="232" x="598.5" y="7"/><text fill="#000000" font-family="sans-serif" font-size="12" font-style="italic" lengthAdjust="spacing" textLength="230" x="599.5" y="19.1387">CloseableReference&lt;CloseableImage&gt;</text><line style="stroke:#181818;stroke-width:0.5;" x1="479.5" x2="826.5" y1="42" y2="42"/><line style="stroke:#181818;stroke-width:0.5;" x1="479.5" x2="826.5" y1="50" y2="50"/></g><!--class Producer--><g id="elem_Producer"><rect codeLine="2" fill="#F1F1F1" height="64.2969" id="Producer" rx="2.5" ry="2.5" style="stroke:#181818;stroke-width:0.5;" width="401" x="12.5" y="357"/><ellipse cx="59.75" cy="373" fill="#ADD1B2" rx="11" ry="11" style="stroke:#181818;stroke-width:1.0;"/><path d="M62.0938,368.6719 C61.1563,368.2344 60.5625,368.0938 59.6875,368.0938 C57.0625,368.0938 55.0625,370.1719 55.0625,372.8906 L55.0625,374.0156 C55.0625,376.5938 57.1719,378.4844 60.0625,378.4844 C61.2813,378.4844 62.4375,378.1875 63.1875,377.6406 C63.7656,377.2344 64.0938,376.7813 64.0938,376.3906 C64.0938,375.9375 63.7031,375.5469 63.2344,375.5469 C63.0156,375.5469 62.8125,375.625 62.625,375.8125 C62.1719,376.2969 62.1719,376.2969 61.9844,376.3906 C61.5625,376.6563 60.875,376.7813 60.1094,376.7813 C58.0625,376.7813 56.7656,375.6875 56.7656,373.9844 L56.7656,372.8906 C56.7656,371.1094 58.0156,369.7969 59.75,369.7969 C60.3281,369.7969 60.9375,369.9531 61.4063,370.2031 C61.8906,370.4844 62.0625,370.7031 62.1563,371.1094 C62.2188,371.5156 62.25,371.6406 62.3906,371.7656 C62.5313,371.9063 62.7656,372.0156 62.9844,372.0156 C63.25,372.0156 63.5156,371.875 63.6875,371.6563 C63.7969,371.5 63.8281,371.3125 63.8281,370.8906 L63.8281,369.4688 C63.8281,369.0313 63.8125,368.9063 63.7188,368.75 C63.5625,368.4844 63.2813,368.3438 62.9844,368.3438 C62.6875,368.3438 62.4844,368.4375 62.2656,368.75 L62.0938,368.6719 Z " fill="#000000"/><text fill="#000000" font-family="sans-serif" font-size="14" lengthAdjust="spacing" textLength="64" x="80.25" y="377.8467">Producer</text><rect fill="#FFFFFF" height="15.9688" style="stroke:#181818;stroke-width:1.0;stroke-dasharray:2.0,2.0;" width="232" x="184.5" y="354"/><text fill="#000000" font-family="sans-serif" font-size="12" font-style="italic" lengthAdjust="spacing" textLength="230" x="185.5" y="366.1387">CloseableReference&lt;CloseableImage&gt;</text><line style="stroke:#181818;stroke-width:0.5;" x1="13.5" x2="412.5" y1="389" y2="389"/><line style="stroke:#181818;stroke-width:0.5;" x1="13.5" x2="412.5" y1="397" y2="397"/><text fill="#000000" font-family="sans-serif" font-size="14" lengthAdjust="spacing" textLength="389" x="18.5" y="413.9951">void produceResults(Consumer&lt;T&gt;, ProducerContext)</text></g><!--class AbstractDataSource--><g id="elem_AbstractDataSource"><rect codeLine="5" fill="#F1F1F1" height="48" id="AbstractDataSource" rx="2.5" ry="2.5" style="stroke:#181818;stroke-width:0.5;" width="409" x="448.5" y="119"/><ellipse cx="463.5" cy="135" fill="#A9DCDF" rx="11" ry="11" style="stroke:#181818;stroke-width:1.0;"/><path d="M465.5781,136.8125 L465.9688,137.7969 L465.5781,137.7969 C465.125,137.7969 465.0156,137.8125 464.8594,137.9219 C464.6094,138.0781 464.4531,138.3594 464.4531,138.6563 C464.4531,138.9219 464.5938,139.1719 464.8125,139.3281 C464.9531,139.4531 465.1563,139.5 465.5781,139.5 L467.9375,139.5 C468.2969,139.5 468.5156,139.4688 468.6563,139.375 C468.9063,139.2344 469.0625,138.9375 469.0625,138.6563 C469.0625,138.375 468.9219,138.125 468.7031,137.9688 C468.5313,137.8281 468.375,137.7969 467.9063,137.7969 L464.5156,129.5938 L460.8438,129.5938 C460.3906,129.5938 460.2656,129.6094 460.1094,129.7031 C459.8594,129.875 459.7031,130.1563 459.7031,130.4375 C459.7031,130.7188 459.8438,130.9688 460.0625,131.1406 C460.2344,131.25 460.4063,131.2813 460.8438,131.2813 L461.9219,131.2813 L459.2813,137.7969 C458.8594,137.7969 458.7031,137.8125 458.5469,137.9219 C458.2969,138.0781 458.1406,138.3594 458.1406,138.6563 C458.1406,139.2188 458.5156,139.5 459.2656,139.5 L461.5313,139.5 C461.8906,139.5 462.1094,139.4688 462.2344,139.375 C462.5,139.2344 462.6406,138.9375 462.6406,138.6563 C462.6406,138.375 462.5156,138.125 462.2969,137.9531 C462.125,137.8281 461.9844,137.7969 461.5313,137.7969 L461.1406,137.7969 L461.5313,136.8125 L465.5781,136.8125 Z M464.875,135.1094 L462.2031,135.1094 L463.5469,131.8438 L464.875,135.1094 Z " fill="#000000"/><text fill="#000000" font-family="sans-serif" font-size="14" font-style="italic" lengthAdjust="spacing" textLength="143" x="477.5" y="139.8467">AbstractDataSource</text><rect fill="#FFFFFF" height="15.9688" style="stroke:#181818;stroke-width:1.0;stroke-dasharray:2.0,2.0;" width="232" x="628.5" y="116"/><text fill="#000000" font-family="sans-serif" font-size="12" font-style="italic" lengthAdjust="spacing" textLength="230" x="629.5" y="128.1387">CloseableReference&lt;CloseableImage&gt;</text><line style="stroke:#181818;stroke-width:0.5;" x1="449.5" x2="856.5" y1="151" y2="151"/><line style="stroke:#181818;stroke-width:0.5;" x1="449.5" x2="856.5" y1="159" y2="159"/></g><!--class AbstractProducerToDataSourceAdapter--><g id="elem_AbstractProducerToDataSourceAdapter"><rect codeLine="6" fill="#F1F1F1" height="48" id="AbstractProducerToDataSourceAdapter" rx="2.5" ry="2.5" style="stroke:#181818;stroke-width:0.5;" width="548" x="7" y="228"/><ellipse cx="22" cy="244" fill="#A9DCDF" rx="11" ry="11" style="stroke:#181818;stroke-width:1.0;"/><path d="M24.0781,245.8125 L24.4688,246.7969 L24.0781,246.7969 C23.625,246.7969 23.5156,246.8125 23.3594,246.9219 C23.1094,247.0781 22.9531,247.3594 22.9531,247.6563 C22.9531,247.9219 23.0938,248.1719 23.3125,248.3281 C23.4531,248.4531 23.6563,248.5 24.0781,248.5 L26.4375,248.5 C26.7969,248.5 27.0156,248.4688 27.1563,248.375 C27.4063,248.2344 27.5625,247.9375 27.5625,247.6563 C27.5625,247.375 27.4219,247.125 27.2031,246.9688 C27.0313,246.8281 26.875,246.7969 26.4063,246.7969 L23.0156,238.5938 L19.3438,238.5938 C18.8906,238.5938 18.7656,238.6094 18.6094,238.7031 C18.3594,238.875 18.2031,239.1563 18.2031,239.4375 C18.2031,239.7188 18.3438,239.9688 18.5625,240.1406 C18.7344,240.25 18.9063,240.2813 19.3438,240.2813 L20.4219,240.2813 L17.7813,246.7969 C17.3594,246.7969 17.2031,246.8125 17.0469,246.9219 C16.7969,247.0781 16.6406,247.3594 16.6406,247.6563 C16.6406,248.2188 17.0156,248.5 17.7656,248.5 L20.0313,248.5 C20.3906,248.5 20.6094,248.4688 20.7344,248.375 C21,248.2344 21.1406,247.9375 21.1406,247.6563 C21.1406,247.375 21.0156,247.125 20.7969,246.9531 C20.625,246.8281 20.4844,246.7969 20.0313,246.7969 L19.6406,246.7969 L20.0313,245.8125 L24.0781,245.8125 Z M23.375,244.1094 L20.7031,244.1094 L22.0469,240.8438 L23.375,244.1094 Z " fill="#000000"/><text fill="#000000" font-family="sans-serif" font-size="14" font-style="italic" lengthAdjust="spacing" textLength="282" x="36" y="248.8467">AbstractProducerToDataSourceAdapter</text><rect fill="#FFFFFF" height="15.9688" style="stroke:#181818;stroke-width:1.0;stroke-dasharray:2.0,2.0;" width="232" x="326" y="225"/><text fill="#000000" font-family="sans-serif" font-size="12" font-style="italic" lengthAdjust="spacing" textLength="230" x="327" y="237.1387">CloseableReference&lt;CloseableImage&gt;</text><line style="stroke:#181818;stroke-width:0.5;" x1="8" x2="554" y1="260" y2="260"/><line style="stroke:#181818;stroke-width:0.5;" x1="8" x2="554" y1="268" y2="268"/></g><!--class CloseableProducerToDataSourceAdapter--><g id="elem_CloseableProducerToDataSourceAdapter"><rect codeLine="7" fill="#F1F1F1" height="48" id="CloseableProducerToDataSourceAdapter" rx="2.5" ry="2.5" style="stroke:#181818;stroke-width:0.5;" width="424" x="457" y="365"/><ellipse cx="472" cy="381" fill="#ADD1B2" rx="11" ry="11" style="stroke:#181818;stroke-width:1.0;"/><path d="M474.3438,376.6719 C473.4063,376.2344 472.8125,376.0938 471.9375,376.0938 C469.3125,376.0938 467.3125,378.1719 467.3125,380.8906 L467.3125,382.0156 C467.3125,384.5938 469.4219,386.4844 472.3125,386.4844 C473.5313,386.4844 474.6875,386.1875 475.4375,385.6406 C476.0156,385.2344 476.3438,384.7813 476.3438,384.3906 C476.3438,383.9375 475.9531,383.5469 475.4844,383.5469 C475.2656,383.5469 475.0625,383.625 474.875,383.8125 C474.4219,384.2969 474.4219,384.2969 474.2344,384.3906 C473.8125,384.6563 473.125,384.7813 472.3594,384.7813 C470.3125,384.7813 469.0156,383.6875 469.0156,381.9844 L469.0156,380.8906 C469.0156,379.1094 470.2656,377.7969 472,377.7969 C472.5781,377.7969 473.1875,377.9531 473.6563,378.2031 C474.1406,378.4844 474.3125,378.7031 474.4063,379.1094 C474.4688,379.5156 474.5,379.6406 474.6406,379.7656 C474.7813,379.9063 475.0156,380.0156 475.2344,380.0156 C475.5,380.0156 475.7656,379.875 475.9375,379.6563 C476.0469,379.5 476.0781,379.3125 476.0781,378.8906 L476.0781,377.4688 C476.0781,377.0313 476.0625,376.9063 475.9688,376.75 C475.8125,376.4844 475.5313,376.3438 475.2344,376.3438 C474.9375,376.3438 474.7344,376.4375 474.5156,376.75 L474.3438,376.6719 Z " fill="#000000"/><text fill="#000000" font-family="sans-serif" font-size="14" lengthAdjust="spacing" textLength="294" x="486" y="385.8467">CloseableProducerToDataSourceAdapter</text><rect fill="#FFFFFF" height="15.9688" style="stroke:#181818;stroke-width:1.0;stroke-dasharray:2.0,2.0;" width="96" x="788" y="362"/><text fill="#000000" font-family="sans-serif" font-size="12" font-style="italic" lengthAdjust="spacing" textLength="94" x="789" y="374.1387">CloseableImage</text><line style="stroke:#181818;stroke-width:0.5;" x1="458" x2="880" y1="397" y2="397"/><line style="stroke:#181818;stroke-width:0.5;" x1="458" x2="880" y1="405" y2="405"/></g><!--class DataSubscriber--><g id="elem_DataSubscriber"><rect codeLine="13" fill="#F1F1F1" height="48" id="DataSubscriber" rx="2.5" ry="2.5" style="stroke:#181818;stroke-width:0.5;" width="376" x="590" y="228"/><ellipse cx="605" cy="244" fill="#B4A7E5" rx="11" ry="11" style="stroke:#181818;stroke-width:1.0;"/><path d="M605.9531,240.7813 L607.6719,240.7813 C608.0625,240.7813 608.25,240.75 608.375,240.6719 C608.6406,240.5156 608.7813,240.2344 608.7813,239.9375 C608.7813,239.6719 608.6719,239.4063 608.4375,239.2344 C608.2656,239.125 608.125,239.0938 607.6719,239.0938 L602.5313,239.0938 C602.0938,239.0938 601.9688,239.1094 601.8125,239.2031 C601.5625,239.3594 601.4063,239.6563 601.4063,239.9375 C601.4063,240.2188 601.5469,240.4688 601.7656,240.6406 C601.9219,240.75 602.1094,240.7813 602.5313,240.7813 L604.25,240.7813 L604.25,247.2969 L602.5313,247.2969 C602.0938,247.2969 601.9688,247.3125 601.8125,247.4219 C601.5625,247.5781 601.4063,247.8594 601.4063,248.1563 C601.4063,248.4063 601.5469,248.6719 601.7656,248.8281 C601.9219,248.9531 602.125,249 602.5313,249 L607.6719,249 C608.4219,249 608.7813,248.7188 608.7813,248.1563 C608.7813,247.875 608.6719,247.625 608.4375,247.4531 C608.2656,247.3281 608.125,247.2969 607.6719,247.2969 L605.9531,247.2969 L605.9531,240.7813 Z " fill="#000000"/><text fill="#000000" font-family="sans-serif" font-size="14" font-style="italic" lengthAdjust="spacing" textLength="110" x="619" y="248.8467">DataSubscriber</text><rect fill="#FFFFFF" height="15.9688" style="stroke:#181818;stroke-width:1.0;stroke-dasharray:2.0,2.0;" width="232" x="737" y="225"/><text fill="#000000" font-family="sans-serif" font-size="12" font-style="italic" lengthAdjust="spacing" textLength="230" x="738" y="237.1387">CloseableReference&lt;CloseableImage&gt;</text><line style="stroke:#181818;stroke-width:0.5;" x1="591" x2="965" y1="260" y2="260"/><line style="stroke:#181818;stroke-width:0.5;" x1="591" x2="965" y1="268" y2="268"/></g><!--reverse link DataSource to AbstractDataSource--><g id="link_DataSource_AbstractDataSource"><path codeLine="8" d="M653,76.217 C653,94.165 653,100.892 653,118.828 " fill="none" id="DataSource-backto-AbstractDataSource" style="stroke:#181818;stroke-width:1.0;"/><polygon fill="none" points="653,58.217,647,76.217,659,76.217,653,58.217" style="stroke:#181818;stroke-width:1.0;"/></g><!--reverse link AbstractDataSource to AbstractProducerToDataSourceAdapter--><g id="link_AbstractDataSource_AbstractProducerToDataSourceAdapter"><path codeLine="9" d="M555.4413,172.0615 C492.8593,190.0615 423.662,209.966 361.117,227.956 " fill="none" id="AbstractDataSource-backto-AbstractProducerToDataSourceAdapter" style="stroke:#181818;stroke-width:1.0;"/><polygon fill="none" points="572.74,167.086,553.7828,166.2953,557.0998,177.8277,572.74,167.086" style="stroke:#181818;stroke-width:1.0;"/></g><!--reverse link AbstractProducerToDataSourceAdapter to CloseableProducerToDataSourceAdapter--><g id="link_AbstractProducerToDataSourceAdapter_CloseableProducerToDataSourceAdapter"><path codeLine="10" d="M406.7091,280.351 C440.0571,288.553 459.151,294.381 492,306 C538.775,322.544 589.98,347.0071 625.226,364.9074 " fill="none" id="AbstractProducerToDataSourceAdapter-backto-CloseableProducerToDataSourceAdapter" style="stroke:#181818;stroke-width:1.0;"/><polygon fill="none" points="389.23,276.052,405.2761,286.1774,408.1421,274.5247,389.23,276.052" style="stroke:#181818;stroke-width:1.0;"/></g><!--link AbstractProducerToDataSourceAdapter to Producer--><g id="link_AbstractProducerToDataSourceAdapter_Producer"><path codeLine="11" d="M236.869,276.157 C226.12,284.084 215.998,294.037 210,306 C202.849,320.263 201.7812,331.7876 203.6842,346.9377 " fill="none" id="AbstractProducerToDataSourceAdapter-to-Producer" style="stroke:#181818;stroke-width:1.0;"/><polygon fill="#181818" points="204.432,352.8909,207.2791,343.4625,203.8088,347.9299,199.3415,344.4596,204.432,352.8909" style="stroke:#181818;stroke-width:1.0;"/><text fill="#000000" font-family="sans-serif" font-size="13" lengthAdjust="spacing" textLength="26" x="211" y="319.0669">&#20381;&#36182;</text></g><!--link AbstractProducerToDataSourceAdapter to Producer--><g id="link_AbstractProducerToDataSourceAdapter_Producer"><path codeLine="12" d="M331.172,276.183 C361.05,292.931 396.466,318.65 414,353 C425.317,375.1714 445.893,409 421,409 " fill="none" id="AbstractProducerToDataSourceAdapter-to-Producer-1" style="stroke:#0000FF;stroke-width:1.0;stroke-dasharray:7.0,7.0;"/><polygon fill="#0000FF" points="415,409,424,413,420,409,424,405,415,409" style="stroke:#0000FF;stroke-width:1.0;"/><text fill="#0000FF" font-family="sans-serif" font-size="13" lengthAdjust="spacing" textLength="91" x="392" y="319.0669">&#26500;&#36896;&#20989;&#25968;&#20013;&#35843;&#29992;</text></g><!--reverse link AbstractDataSource to DataSubscriber--><g id="link_AbstractDataSource_DataSubscriber"><path codeLine="14" d="M689.2392,175.0206 C710.2062,192.9686 729.976,209.892 750.93,227.828 " fill="none" id="AbstractDataSource-backto-DataSubscriber" style="stroke:#181818;stroke-width:1.0;"/><polygon fill="#181818" points="680.123,167.217,682.0799,174.1575,689.2392,175.0206,687.2823,168.0801,680.123,167.217" style="stroke:#181818;stroke-width:1.0;"/><text fill="#000000" font-family="sans-serif" font-size="13" lengthAdjust="spacing" textLength="8" x="677.7592" y="187.0311">1</text><text fill="#000000" font-family="sans-serif" font-size="13" lengthAdjust="spacing" textLength="8" x="734.9683" y="216.796">n</text></g><!--SRC=[Iyv9B2vMS4aiIGpEBorAJhLnpialJarCoaaDIarBBKhDGnRop4rCJxMpuqe6QmeeoayfJKuj8aQBGZMN0X2KvMUcA1H0z0Mb5fVcb1HhEEVd5PVc0eq9iTE1cmaKB4cjAD7agkLAJ2ekAKfCBb5mX398T2o6VfWT8Va8annJ4WjAYFCArFTmOQACW-ZbGgXGiAdHrSNY9IvC8LIbUApZ8a8Dn31Y74-KQRgwTl0uKx1IUB9lxekjqqZMQMM5cYOKb9DoIbEjSpBpKlLI4eipKbEiGQd12YGAjENPl9QN3GkUjkzzDdN3anrhNsneVZvb1LScCCKKfIK2mmjiMMbISN9HPXAHSOebr9KCbHIqW66bbAU4PY80]--></g></svg>