<?xml version="1.0" encoding="us-ascii" standalone="no"?><svg xmlns="http://www.w3.org/2000/svg" xmlns:xlink="http://www.w3.org/1999/xlink" contentStyleType="text/css" height="344px" preserveAspectRatio="none" style="width:545px;height:344px;background:#FFFFFF;" version="1.1" viewBox="0 0 545 344" width="545px" zoomAndPan="magnify"><defs/><g><!--class LruCountingMemoryCache--><g id="elem_LruCountingMemoryCache"><rect codeLine="1" fill="#F1F1F1" height="80.5938" id="LruCountingMemoryCache" rx="2.5" ry="2.5" style="stroke:#181818;stroke-width:0.5;" width="397" x="71.5" y="7"/><ellipse cx="171.25" cy="23" fill="#ADD1B2" rx="11" ry="11" style="stroke:#181818;stroke-width:1.0;"/><path d="M173.5938,18.6719 C172.6563,18.2344 172.0625,18.0938 171.1875,18.0938 C168.5625,18.0938 166.5625,20.1719 166.5625,22.8906 L166.5625,24.0156 C166.5625,26.5938 168.6719,28.4844 171.5625,28.4844 C172.7813,28.4844 173.9375,28.1875 174.6875,27.6406 C175.2656,27.2344 175.5938,26.7813 175.5938,26.3906 C175.5938,25.9375 175.2031,25.5469 174.7344,25.5469 C174.5156,25.5469 174.3125,25.625 174.125,25.8125 C173.6719,26.2969 173.6719,26.2969 173.4844,26.3906 C173.0625,26.6563 172.375,26.7813 171.6094,26.7813 C169.5625,26.7813 168.2656,25.6875 168.2656,23.9844 L168.2656,22.8906 C168.2656,21.1094 169.5156,19.7969 171.25,19.7969 C171.8281,19.7969 172.4375,19.9531 172.9063,20.2031 C173.3906,20.4844 173.5625,20.7031 173.6563,21.1094 C173.7188,21.5156 173.75,21.6406 173.8906,21.7656 C174.0313,21.9063 174.2656,22.0156 174.4844,22.0156 C174.75,22.0156 175.0156,21.875 175.1875,21.6563 C175.2969,21.5 175.3281,21.3125 175.3281,20.8906 L175.3281,19.4688 C175.3281,19.0313 175.3125,18.9063 175.2188,18.75 C175.0625,18.4844 174.7813,18.3438 174.4844,18.3438 C174.1875,18.3438 173.9844,18.4375 173.7656,18.75 L173.5938,18.6719 Z " fill="#000000"/><text fill="#000000" font-family="sans-serif" font-size="14" lengthAdjust="spacing" textLength="189" x="191.75" y="27.8467">LruCountingMemoryCache</text><line style="stroke:#181818;stroke-width:0.5;" x1="72.5" x2="467.5" y1="39" y2="39"/><text fill="#000000" font-family="sans-serif" font-size="14" lengthAdjust="spacing" textLength="385" x="77.5" y="55.9951">CountingLruMap&lt;K, Entry&lt;K, V&gt;&gt; mExclusiveEntries;</text><text fill="#000000" font-family="sans-serif" font-size="14" lengthAdjust="spacing" textLength="373" x="77.5" y="72.292">CountingLruMap&lt;K, Entry&lt;K, V&gt;&gt; mCachedEntries;</text><line style="stroke:#181818;stroke-width:0.5;" x1="72.5" x2="467.5" y1="79.5938" y2="79.5938"/></g><!--class clm1--><g id="elem_clm1"><rect codeLine="5" fill="#F1F1F1" height="80.5938" id="clm1" rx="2.5" ry="2.5" style="stroke:#181818;stroke-width:0.5;" width="246" x="7" y="148"/><ellipse cx="22" cy="164" fill="#ADD1B2" rx="11" ry="11" style="stroke:#181818;stroke-width:1.0;"/><path d="M24.3438,159.6719 C23.4063,159.2344 22.8125,159.0938 21.9375,159.0938 C19.3125,159.0938 17.3125,161.1719 17.3125,163.8906 L17.3125,165.0156 C17.3125,167.5938 19.4219,169.4844 22.3125,169.4844 C23.5313,169.4844 24.6875,169.1875 25.4375,168.6406 C26.0156,168.2344 26.3438,167.7813 26.3438,167.3906 C26.3438,166.9375 25.9531,166.5469 25.4844,166.5469 C25.2656,166.5469 25.0625,166.625 24.875,166.8125 C24.4219,167.2969 24.4219,167.2969 24.2344,167.3906 C23.8125,167.6563 23.125,167.7813 22.3594,167.7813 C20.3125,167.7813 19.0156,166.6875 19.0156,164.9844 L19.0156,163.8906 C19.0156,162.1094 20.2656,160.7969 22,160.7969 C22.5781,160.7969 23.1875,160.9531 23.6563,161.2031 C24.1406,161.4844 24.3125,161.7031 24.4063,162.1094 C24.4688,162.5156 24.5,162.6406 24.6406,162.7656 C24.7813,162.9063 25.0156,163.0156 25.2344,163.0156 C25.5,163.0156 25.7656,162.875 25.9375,162.6563 C26.0469,162.5 26.0781,162.3125 26.0781,161.8906 L26.0781,160.4688 C26.0781,160.0313 26.0625,159.9063 25.9688,159.75 C25.8125,159.4844 25.5313,159.3438 25.2344,159.3438 C24.9375,159.3438 24.7344,159.4375 24.5156,159.75 L24.3438,159.6719 Z " fill="#000000"/><text fill="#000000" font-family="sans-serif" font-size="14" lengthAdjust="spacing" textLength="117" x="36" y="168.8467">CountingLruMap</text><rect fill="#FFFFFF" height="15.9688" style="stroke:#181818;stroke-width:1.0;stroke-dasharray:2.0,2.0;" width="95" x="161" y="145"/><text fill="#000000" font-family="sans-serif" font-size="12" font-style="italic" lengthAdjust="spacing" textLength="93" x="162" y="157.1387">K, Entry&lt;K, V&gt;</text><line style="stroke:#181818;stroke-width:0.5;" x1="8" x2="252" y1="180" y2="180"/><text fill="#000000" font-family="sans-serif" font-size="14" lengthAdjust="spacing" textLength="215" x="13" y="196.9951">LinkedHashMap&lt;K, V&gt; mMap;</text><text fill="#000000" font-family="sans-serif" font-size="14" lengthAdjust="spacing" textLength="155" x="13" y="213.292">int mSizeInBytes = 0;</text><line style="stroke:#181818;stroke-width:0.5;" x1="8" x2="252" y1="220.5938" y2="220.5938"/></g><!--class clm2--><g id="elem_clm2"><rect codeLine="9" fill="#F1F1F1" height="80.5938" id="clm2" rx="2.5" ry="2.5" style="stroke:#181818;stroke-width:0.5;" width="246" x="288" y="148"/><ellipse cx="303" cy="164" fill="#ADD1B2" rx="11" ry="11" style="stroke:#181818;stroke-width:1.0;"/><path d="M305.3438,159.6719 C304.4063,159.2344 303.8125,159.0938 302.9375,159.0938 C300.3125,159.0938 298.3125,161.1719 298.3125,163.8906 L298.3125,165.0156 C298.3125,167.5938 300.4219,169.4844 303.3125,169.4844 C304.5313,169.4844 305.6875,169.1875 306.4375,168.6406 C307.0156,168.2344 307.3438,167.7813 307.3438,167.3906 C307.3438,166.9375 306.9531,166.5469 306.4844,166.5469 C306.2656,166.5469 306.0625,166.625 305.875,166.8125 C305.4219,167.2969 305.4219,167.2969 305.2344,167.3906 C304.8125,167.6563 304.125,167.7813 303.3594,167.7813 C301.3125,167.7813 300.0156,166.6875 300.0156,164.9844 L300.0156,163.8906 C300.0156,162.1094 301.2656,160.7969 303,160.7969 C303.5781,160.7969 304.1875,160.9531 304.6563,161.2031 C305.1406,161.4844 305.3125,161.7031 305.4063,162.1094 C305.4688,162.5156 305.5,162.6406 305.6406,162.7656 C305.7813,162.9063 306.0156,163.0156 306.2344,163.0156 C306.5,163.0156 306.7656,162.875 306.9375,162.6563 C307.0469,162.5 307.0781,162.3125 307.0781,161.8906 L307.0781,160.4688 C307.0781,160.0313 307.0625,159.9063 306.9688,159.75 C306.8125,159.4844 306.5313,159.3438 306.2344,159.3438 C305.9375,159.3438 305.7344,159.4375 305.5156,159.75 L305.3438,159.6719 Z " fill="#000000"/><text fill="#000000" font-family="sans-serif" font-size="14" lengthAdjust="spacing" textLength="117" x="317" y="168.8467">CountingLruMap</text><rect fill="#FFFFFF" height="15.9688" style="stroke:#181818;stroke-width:1.0;stroke-dasharray:2.0,2.0;" width="95" x="442" y="145"/><text fill="#000000" font-family="sans-serif" font-size="12" font-style="italic" lengthAdjust="spacing" textLength="93" x="443" y="157.1387">K, Entry&lt;K, V&gt;</text><line style="stroke:#181818;stroke-width:0.5;" x1="289" x2="533" y1="180" y2="180"/><text fill="#000000" font-family="sans-serif" font-size="14" lengthAdjust="spacing" textLength="215" x="294" y="196.9951">LinkedHashMap&lt;K, V&gt; mMap;</text><text fill="#000000" font-family="sans-serif" font-size="14" lengthAdjust="spacing" textLength="155" x="294" y="213.292">int mSizeInBytes = 0;</text><line style="stroke:#181818;stroke-width:0.5;" x1="289" x2="533" y1="220.5938" y2="220.5938"/></g><!--class lhm1--><g id="elem_lhm1"><rect codeLine="15" fill="#F1F1F1" height="48" id="lhm1" rx="2.5" ry="2.5" style="stroke:#181818;stroke-width:0.5;" width="172" x="44" y="289"/><ellipse cx="59" cy="305" fill="#ADD1B2" rx="11" ry="11" style="stroke:#181818;stroke-width:1.0;"/><path d="M61.3438,300.6719 C60.4063,300.2344 59.8125,300.0938 58.9375,300.0938 C56.3125,300.0938 54.3125,302.1719 54.3125,304.8906 L54.3125,306.0156 C54.3125,308.5938 56.4219,310.4844 59.3125,310.4844 C60.5313,310.4844 61.6875,310.1875 62.4375,309.6406 C63.0156,309.2344 63.3438,308.7813 63.3438,308.3906 C63.3438,307.9375 62.9531,307.5469 62.4844,307.5469 C62.2656,307.5469 62.0625,307.625 61.875,307.8125 C61.4219,308.2969 61.4219,308.2969 61.2344,308.3906 C60.8125,308.6563 60.125,308.7813 59.3594,308.7813 C57.3125,308.7813 56.0156,307.6875 56.0156,305.9844 L56.0156,304.8906 C56.0156,303.1094 57.2656,301.7969 59,301.7969 C59.5781,301.7969 60.1875,301.9531 60.6563,302.2031 C61.1406,302.4844 61.3125,302.7031 61.4063,303.1094 C61.4688,303.5156 61.5,303.6406 61.6406,303.7656 C61.7813,303.9063 62.0156,304.0156 62.2344,304.0156 C62.5,304.0156 62.7656,303.875 62.9375,303.6563 C63.0469,303.5 63.0781,303.3125 63.0781,302.8906 L63.0781,301.4688 C63.0781,301.0313 63.0625,300.9063 62.9688,300.75 C62.8125,300.4844 62.5313,300.3438 62.2344,300.3438 C61.9375,300.3438 61.7344,300.4375 61.5156,300.75 L61.3438,300.6719 Z " fill="#000000"/><text fill="#000000" font-family="sans-serif" font-size="14" lengthAdjust="spacing" textLength="112" x="73" y="309.8467">LinkedHashMap</text><rect fill="#FFFFFF" height="15.9688" style="stroke:#181818;stroke-width:1.0;stroke-dasharray:2.0,2.0;" width="26" x="193" y="286"/><text fill="#000000" font-family="sans-serif" font-size="12" font-style="italic" lengthAdjust="spacing" textLength="24" x="194" y="298.1387">K, V</text><line style="stroke:#181818;stroke-width:0.5;" x1="45" x2="215" y1="321" y2="321"/><line style="stroke:#181818;stroke-width:0.5;" x1="45" x2="215" y1="329" y2="329"/></g><!--class lhm2--><g id="elem_lhm2"><rect codeLine="16" fill="#F1F1F1" height="48" id="lhm2" rx="2.5" ry="2.5" style="stroke:#181818;stroke-width:0.5;" width="172" x="325" y="289"/><ellipse cx="340" cy="305" fill="#ADD1B2" rx="11" ry="11" style="stroke:#181818;stroke-width:1.0;"/><path d="M342.3438,300.6719 C341.4063,300.2344 340.8125,300.0938 339.9375,300.0938 C337.3125,300.0938 335.3125,302.1719 335.3125,304.8906 L335.3125,306.0156 C335.3125,308.5938 337.4219,310.4844 340.3125,310.4844 C341.5313,310.4844 342.6875,310.1875 343.4375,309.6406 C344.0156,309.2344 344.3438,308.7813 344.3438,308.3906 C344.3438,307.9375 343.9531,307.5469 343.4844,307.5469 C343.2656,307.5469 343.0625,307.625 342.875,307.8125 C342.4219,308.2969 342.4219,308.2969 342.2344,308.3906 C341.8125,308.6563 341.125,308.7813 340.3594,308.7813 C338.3125,308.7813 337.0156,307.6875 337.0156,305.9844 L337.0156,304.8906 C337.0156,303.1094 338.2656,301.7969 340,301.7969 C340.5781,301.7969 341.1875,301.9531 341.6563,302.2031 C342.1406,302.4844 342.3125,302.7031 342.4063,303.1094 C342.4688,303.5156 342.5,303.6406 342.6406,303.7656 C342.7813,303.9063 343.0156,304.0156 343.2344,304.0156 C343.5,304.0156 343.7656,303.875 343.9375,303.6563 C344.0469,303.5 344.0781,303.3125 344.0781,302.8906 L344.0781,301.4688 C344.0781,301.0313 344.0625,300.9063 343.9688,300.75 C343.8125,300.4844 343.5313,300.3438 343.2344,300.3438 C342.9375,300.3438 342.7344,300.4375 342.5156,300.75 L342.3438,300.6719 Z " fill="#000000"/><text fill="#000000" font-family="sans-serif" font-size="14" lengthAdjust="spacing" textLength="112" x="354" y="309.8467">LinkedHashMap</text><rect fill="#FFFFFF" height="15.9688" style="stroke:#181818;stroke-width:1.0;stroke-dasharray:2.0,2.0;" width="26" x="474" y="286"/><text fill="#000000" font-family="sans-serif" font-size="12" font-style="italic" lengthAdjust="spacing" textLength="24" x="475" y="298.1387">K, V</text><line style="stroke:#181818;stroke-width:0.5;" x1="326" x2="496" y1="321" y2="321"/><line style="stroke:#181818;stroke-width:0.5;" x1="326" x2="496" y1="329" y2="329"/></g><!--reverse link LruCountingMemoryCache to clm1--><g id="link_LruCountingMemoryCache_clm1"><path codeLine="13" d="M221.3663,96.7868 C202.6203,115.3988 188.871,129.05 170.124,147.662 " fill="none" id="LruCountingMemoryCache-backto-clm1" style="stroke:#181818;stroke-width:1.0;"/><polygon fill="#181818" points="229.882,88.332,222.8059,89.7208,221.3663,96.7868,228.4424,95.3979,229.882,88.332" style="stroke:#181818;stroke-width:1.0;"/></g><!--reverse link LruCountingMemoryCache to clm2--><g id="link_LruCountingMemoryCache_clm2"><path codeLine="14" d="M318.9505,96.7566 C337.8295,115.3686 351.709,129.05 370.589,147.662 " fill="none" id="LruCountingMemoryCache-backto-clm2" style="stroke:#181818;stroke-width:1.0;"/><polygon fill="#181818" points="310.405,88.332,311.8695,95.3928,318.9505,96.7566,317.486,89.6958,310.405,88.332" style="stroke:#181818;stroke-width:1.0;"/></g><!--reverse link clm1 to lhm1--><g id="link_clm1_lhm1"><path codeLine="17" d="M130,241.272 C130,260.9732 130,272.0687 130,288.8428 " fill="none" id="clm1-backto-lhm1" style="stroke:#181818;stroke-width:1.0;"/><polygon fill="#181818" points="130,229.272,126,235.272,130,241.272,134,235.272,130,229.272" style="stroke:#181818;stroke-width:1.0;"/></g><!--reverse link clm2 to lhm2--><g id="link_clm2_lhm2"><path codeLine="18" d="M411,241.272 C411,260.9732 411,272.0687 411,288.8428 " fill="none" id="clm2-backto-lhm2" style="stroke:#181818;stroke-width:1.0;"/><polygon fill="#181818" points="411,229.272,407,235.272,411,241.272,415,235.272,411,229.272" style="stroke:#181818;stroke-width:1.0;"/></g><!--SRC=[fL2z3e8m4DvvYWkZaKHPLGODYKQOJDYRqaXZMmmjHZI-kzTQd5GqThhUVNztL12j8MlQLTqgmzK-Px9kkXMX5ODh0FZw2O9oSfnlnv0gqtIsA984P7gcejNyn6oRCptxYkKSoYVb5b2N9FpC2u5ee49EVRQCgmChrqHN7boWD9QF35mPa3j-OHkrx0pJi839prRnNrPlBZkA8hV6m3pkexumT_b4XHh36Ak3DxEgde5h-Lzy1m00]--></g></svg>