<?xml version="1.0" encoding="us-ascii" standalone="no"?><svg xmlns="http://www.w3.org/2000/svg" xmlns:xlink="http://www.w3.org/1999/xlink" contentStyleType="text/css" height="447px" preserveAspectRatio="none" style="width:1091px;height:447px;background:#FFFFFF;" version="1.1" viewBox="0 0 1091 447" width="1091px" zoomAndPan="magnify"><defs/><g><!--entity ????--><g id="elem_&#22270;&#29255;&#25968;&#25454;"><ellipse cx="137.5" cy="25" fill="#F1F1F1" rx="8" ry="8" style="stroke:#181818;stroke-width:0.5;"/><text fill="#000000" font-family="sans-serif" font-size="14" lengthAdjust="spacing" textLength="56" x="109.5" y="54.9951">&#22270;&#29255;&#25968;&#25454;</text></g><!--entity NetworkFetchProducer--><g id="elem_NetworkFetchProducer"><rect fill="#F1F1F1" height="36.2969" rx="2.5" ry="2.5" style="stroke:#181818;stroke-width:0.5;" width="186" x="181.5" y="7"/><text fill="#000000" font-family="sans-serif" font-size="14" lengthAdjust="spacing" textLength="166" x="191.5" y="29.9951">NetworkFetchProducer</text></g><!--entity WebpTranscodeProducer--><g id="elem_WebpTranscodeProducer"><rect fill="#FFFFFF" height="36.2969" rx="2.5" ry="2.5" style="stroke:#181818;stroke-width:1.0;stroke-dasharray:1.0,3.0;" width="201" x="403" y="7"/><text fill="#000000" font-family="sans-serif" font-size="14" lengthAdjust="spacing" textLength="181" x="413" y="29.9951">WebpTranscodeProducer</text></g><!--entity PartialDiskCacheProducer--><g id="elem_PartialDiskCacheProducer"><rect fill="#FFFFFF" height="36.2969" rx="2.5" ry="2.5" style="stroke:#181818;stroke-width:1.0;stroke-dasharray:1.0,3.0;" width="205" x="639" y="7"/><text fill="#000000" font-family="sans-serif" font-size="14" lengthAdjust="spacing" textLength="185" x="649" y="29.9951">PartialDiskCacheProducer</text></g><!--entity DiskCacheWriteProducer--><g id="elem_DiskCacheWriteProducer"><rect fill="#F1F1F1" height="36.2969" rx="2.5" ry="2.5" style="stroke:#181818;stroke-width:0.5;" width="199" x="879" y="7"/><text fill="#000000" font-family="sans-serif" font-size="14" lengthAdjust="spacing" textLength="179" x="889" y="29.9951">DiskCacheWriteProducer</text></g><!--entity DiskCacheReadProducer--><g id="elem_DiskCacheReadProducer"><rect fill="#F1F1F1" height="36.2969" rx="2.5" ry="2.5" style="stroke:#181818;stroke-width:0.5;" width="195" x="881" y="103"/><text fill="#000000" font-family="sans-serif" font-size="14" lengthAdjust="spacing" textLength="175" x="891" y="125.9951">DiskCacheReadProducer</text></g><!--entity EncodedMemoryCacheProducer--><g id="elem_EncodedMemoryCacheProducer"><rect fill="#F1F1F1" height="36.2969" rx="2.5" ry="2.5" style="stroke:#181818;stroke-width:0.5;" width="248" x="597.5" y="103"/><text fill="#000000" font-family="sans-serif" font-size="14" lengthAdjust="spacing" textLength="228" x="607.5" y="125.9951">EncodedMemoryCacheProducer</text></g><!--entity EncodedProbeProducer--><g id="elem_EncodedProbeProducer"><rect fill="#FFFFFF" height="36.2969" rx="2.5" ry="2.5" style="stroke:#181818;stroke-width:1.0;stroke-dasharray:1.0,3.0;" width="189" x="373" y="103"/><text fill="#000000" font-family="sans-serif" font-size="14" lengthAdjust="spacing" textLength="169" x="383" y="125.9951">EncodedProbeProducer</text></g><!--entity EncodedCacheKeyMultiplexProducer--><g id="elem_EncodedCacheKeyMultiplexProducer"><rect fill="#F1F1F1" height="36.2969" rx="2.5" ry="2.5" style="stroke:#181818;stroke-width:0.5;" width="283" x="55" y="103"/><text fill="#000000" font-family="sans-serif" font-size="14" lengthAdjust="spacing" textLength="263" x="65" y="125.9951">EncodedCacheKeyMultiplexProducer</text></g><!--entity AddImageTransformMetaDataProducer--><g id="elem_AddImageTransformMetaDataProducer"><rect fill="#F1F1F1" height="36.2969" rx="2.5" ry="2.5" style="stroke:#181818;stroke-width:0.5;" width="300" x="46.5" y="199"/><text fill="#000000" font-family="sans-serif" font-size="14" lengthAdjust="spacing" textLength="280" x="56.5" y="221.9951">AddImageTransformMetaDataProducer</text></g><!--entity ResizeAndRotateProducer--><g id="elem_ResizeAndRotateProducer"><rect fill="#F1F1F1" height="36.2969" rx="2.5" ry="2.5" style="stroke:#181818;stroke-width:0.5;" width="209" x="382" y="199"/><text fill="#000000" font-family="sans-serif" font-size="14" lengthAdjust="spacing" textLength="189" x="392" y="221.9951">ResizeAndRotateProducer</text></g><!--entity DecodeProducer--><g id="elem_DecodeProducer"><rect fill="#F1F1F1" height="36.2969" rx="2.5" ry="2.5" style="stroke:#181818;stroke-width:0.5;" width="139" x="626" y="199"/><text fill="#000000" font-family="sans-serif" font-size="14" lengthAdjust="spacing" textLength="119" x="636" y="221.9951">DecodeProducer</text></g><!--entity BitmapMemoryCacheProducer--><g id="elem_BitmapMemoryCacheProducer"><rect fill="#F1F1F1" height="36.2969" rx="2.5" ry="2.5" style="stroke:#181818;stroke-width:0.5;" width="239" x="800" y="199"/><text fill="#000000" font-family="sans-serif" font-size="14" lengthAdjust="spacing" textLength="219" x="810" y="221.9951">BitmapMemoryCacheProducer</text></g><!--entity BitmapMemoryCacheKeyMultiplexProducer--><g id="elem_BitmapMemoryCacheKeyMultiplexProducer"><rect fill="#F1F1F1" height="36.2969" rx="2.5" ry="2.5" style="stroke:#181818;stroke-width:0.5;" width="332" x="753.5" y="295"/><text fill="#000000" font-family="sans-serif" font-size="14" lengthAdjust="spacing" textLength="312" x="763.5" y="317.9951">BitmapMemoryCacheKeyMultiplexProducer</text></g><!--entity ThreadHandoffProducer--><g id="elem_ThreadHandoffProducer"><rect fill="#F1F1F1" height="36.2969" rx="2.5" ry="2.5" style="stroke:#181818;stroke-width:0.5;" width="191" x="527" y="295"/><text fill="#000000" font-family="sans-serif" font-size="14" lengthAdjust="spacing" textLength="171" x="537" y="317.9951">ThreadHandoffProducer</text></g><!--entity BitmapMemoryCacheGetProducer--><g id="elem_BitmapMemoryCacheGetProducer"><rect fill="#F1F1F1" height="36.2969" rx="2.5" ry="2.5" style="stroke:#181818;stroke-width:0.5;" width="266" x="225.5" y="295"/><text fill="#000000" font-family="sans-serif" font-size="14" lengthAdjust="spacing" textLength="246" x="235.5" y="317.9951">BitmapMemoryCacheGetProducer</text></g><!--entity BitmapProbeProducer--><g id="elem_BitmapProbeProducer"><rect fill="#FFFFFF" height="36.2969" rx="2.5" ry="2.5" style="stroke:#181818;stroke-width:1.0;stroke-dasharray:1.0,3.0;" width="180" x="10.5" y="295"/><text fill="#000000" font-family="sans-serif" font-size="14" lengthAdjust="spacing" textLength="160" x="20.5" y="317.9951">BitmapProbeProducer</text></g><!--entity PostprocessorProducer--><g id="elem_PostprocessorProducer"><rect fill="#FFFFFF" height="36.2969" rx="2.5" ry="2.5" style="stroke:#181818;stroke-width:1.0;stroke-dasharray:1.0,3.0;" width="187" x="7" y="391"/><text fill="#000000" font-family="sans-serif" font-size="14" lengthAdjust="spacing" textLength="167" x="17" y="413.9951">PostprocessorProducer</text></g><!--entity PostprocessedBitmapMemoryCacheProducer--><g id="elem_PostprocessedBitmapMemoryCacheProducer"><rect fill="#FFFFFF" height="36.2969" rx="2.5" ry="2.5" style="stroke:#181818;stroke-width:1.0;stroke-dasharray:1.0,3.0;" width="345" x="229" y="391"/><text fill="#000000" font-family="sans-serif" font-size="14" lengthAdjust="spacing" textLength="325" x="239" y="413.9951">PostprocessedBitmapMemoryCacheProducer</text></g><!--entity BitmapPrepareProducer--><g id="elem_BitmapPrepareProducer"><rect fill="#F1F1F1" height="36.2969" rx="2.5" ry="2.5" style="stroke:#181818;stroke-width:0.5;" width="194" x="609.5" y="391"/><text fill="#000000" font-family="sans-serif" font-size="14" lengthAdjust="spacing" textLength="174" x="619.5" y="413.9951">BitmapPrepareProducer</text></g><!--entity DelayProducer--><g id="elem_DelayProducer"><rect fill="#FFFFFF" height="36.2969" rx="2.5" ry="2.5" style="stroke:#181818;stroke-width:1.0;stroke-dasharray:1.0,3.0;" width="124" x="838.5" y="391"/><text fill="#000000" font-family="sans-serif" font-size="14" lengthAdjust="spacing" textLength="104" x="848.5" y="413.9951">DelayProducer</text></g><!--entity Bitmap--><g id="elem_Bitmap"><ellipse cx="1006.5" cy="409" fill="#F1F1F1" rx="8" ry="8" style="stroke:#181818;stroke-width:0.5;"/><text fill="#000000" font-family="sans-serif" font-size="14" lengthAdjust="spacing" textLength="53" x="980" y="438.9951">Bitmap</text></g><!--link ???? to NetworkFetchProducer--><g id="link_&#22270;&#29255;&#25968;&#25454;_NetworkFetchProducer"><path d="M146.598,25 C158.089,25 163.58,25 175.071,25 " fill="none" id="&#22270;&#29255;&#25968;&#25454;-to-NetworkFetchProducer" style="stroke:#181818;stroke-width:1.0;"/><polygon fill="#181818" points="181.071,25,172.071,21,176.071,25,172.071,29,181.071,25" style="stroke:#181818;stroke-width:1.0;"/></g><!--link NetworkFetchProducer to WebpTranscodeProducer--><g id="link_NetworkFetchProducer_WebpTranscodeProducer"><path d="M367.531,25 C379.305,25 385.078,25 396.851,25 " fill="none" id="NetworkFetchProducer-to-WebpTranscodeProducer" style="stroke:#181818;stroke-width:1.0;"/><polygon fill="#181818" points="402.851,25,393.851,21,397.851,25,393.851,29,402.851,25" style="stroke:#181818;stroke-width:1.0;"/></g><!--link WebpTranscodeProducer to PartialDiskCacheProducer--><g id="link_WebpTranscodeProducer_PartialDiskCacheProducer"><path d="M604.371,25 C615.888,25 621.404,25 632.921,25 " fill="none" id="WebpTranscodeProducer-to-PartialDiskCacheProducer" style="stroke:#181818;stroke-width:1.0;"/><polygon fill="#181818" points="638.921,25,629.921,21,633.921,25,629.921,29,638.921,25" style="stroke:#181818;stroke-width:1.0;"/></g><!--link PartialDiskCacheProducer to DiskCacheWriteProducer--><g id="link_PartialDiskCacheProducer_DiskCacheWriteProducer"><path d="M844.262,25 C855.798,25 861.334,25 872.87,25 " fill="none" id="PartialDiskCacheProducer-to-DiskCacheWriteProducer" style="stroke:#181818;stroke-width:1.0;"/><polygon fill="#181818" points="878.87,25,869.87,21,873.87,25,869.87,29,878.87,25" style="stroke:#181818;stroke-width:1.0;"/></g><!--link DiskCacheWriteProducer to DiskCacheReadProducer--><g id="link_DiskCacheWriteProducer_DiskCacheReadProducer"><path d="M978.5,43.241 C978.5,60.202 978.5,79.945 978.5,96.868 " fill="none" id="DiskCacheWriteProducer-to-DiskCacheReadProducer" style="stroke:#181818;stroke-width:1.0;"/><polygon fill="#181818" points="978.5,102.868,982.5,93.868,978.5,97.868,974.5,93.868,978.5,102.868" style="stroke:#181818;stroke-width:1.0;"/></g><!--reverse link EncodedMemoryCacheProducer to DiskCacheReadProducer--><g id="link_EncodedMemoryCacheProducer_DiskCacheReadProducer"><path d="M851.733,121 C863.489,121 869.244,121 881,121 " fill="none" id="EncodedMemoryCacheProducer-backto-DiskCacheReadProducer" style="stroke:#181818;stroke-width:1.0;"/><polygon fill="#181818" points="845.733,121,854.733,125,850.733,121,854.733,117,845.733,121" style="stroke:#181818;stroke-width:1.0;"/></g><!--reverse link EncodedProbeProducer to EncodedMemoryCacheProducer--><g id="link_EncodedProbeProducer_EncodedMemoryCacheProducer"><path d="M568.254,121 C579.969,121 585.685,121 597.4,121 " fill="none" id="EncodedProbeProducer-backto-EncodedMemoryCacheProducer" style="stroke:#181818;stroke-width:1.0;"/><polygon fill="#181818" points="562.254,121,571.254,125,567.254,121,571.254,117,562.254,121" style="stroke:#181818;stroke-width:1.0;"/></g><!--reverse link EncodedCacheKeyMultiplexProducer to EncodedProbeProducer--><g id="link_EncodedCacheKeyMultiplexProducer_EncodedProbeProducer"><path d="M344.087,121 C355.714,121 361.341,121 372.968,121 " fill="none" id="EncodedCacheKeyMultiplexProducer-backto-EncodedProbeProducer" style="stroke:#181818;stroke-width:1.0;"/><polygon fill="#181818" points="338.087,121,347.087,125,343.087,121,347.087,117,338.087,121" style="stroke:#181818;stroke-width:1.0;"/></g><!--link EncodedCacheKeyMultiplexProducer to AddImageTransformMetaDataProducer--><g id="link_EncodedCacheKeyMultiplexProducer_AddImageTransformMetaDataProducer"><path d="M196.5,139.241 C196.5,156.202 196.5,175.945 196.5,192.868 " fill="none" id="EncodedCacheKeyMultiplexProducer-to-AddImageTransformMetaDataProducer" style="stroke:#181818;stroke-width:1.0;"/><polygon fill="#181818" points="196.5,198.868,200.5,189.868,196.5,193.868,192.5,189.868,196.5,198.868" style="stroke:#181818;stroke-width:1.0;"/></g><!--link AddImageTransformMetaDataProducer to ResizeAndRotateProducer--><g id="link_AddImageTransformMetaDataProducer_ResizeAndRotateProducer"><path d="M346.598,217 C358.347,217 364.097,217 375.846,217 " fill="none" id="AddImageTransformMetaDataProducer-to-ResizeAndRotateProducer" style="stroke:#181818;stroke-width:1.0;"/><polygon fill="#181818" points="381.846,217,372.846,213,376.846,217,372.846,221,381.846,217" style="stroke:#181818;stroke-width:1.0;"/></g><!--link ResizeAndRotateProducer to DecodeProducer--><g id="link_ResizeAndRotateProducer_DecodeProducer"><path d="M591,217 C602.566,217 608.132,217 619.697,217 " fill="none" id="ResizeAndRotateProducer-to-DecodeProducer" style="stroke:#181818;stroke-width:1.0;"/><polygon fill="#181818" points="625.697,217,616.697,213,620.697,217,616.697,221,625.697,217" style="stroke:#181818;stroke-width:1.0;"/></g><!--link DecodeProducer to BitmapMemoryCacheProducer--><g id="link_DecodeProducer_BitmapMemoryCacheProducer"><path d="M765.062,217 C776.625,217 782.188,217 793.751,217 " fill="none" id="DecodeProducer-to-BitmapMemoryCacheProducer" style="stroke:#181818;stroke-width:1.0;"/><polygon fill="#181818" points="799.751,217,790.751,213,794.751,217,790.751,221,799.751,217" style="stroke:#181818;stroke-width:1.0;"/></g><!--link BitmapMemoryCacheProducer to BitmapMemoryCacheKeyMultiplexProducer--><g id="link_BitmapMemoryCacheProducer_BitmapMemoryCacheKeyMultiplexProducer"><path d="M919.5,235.241 C919.5,252.202 919.5,271.945 919.5,288.868 " fill="none" id="BitmapMemoryCacheProducer-to-BitmapMemoryCacheKeyMultiplexProducer" style="stroke:#181818;stroke-width:1.0;"/><polygon fill="#181818" points="919.5,294.868,923.5,285.868,919.5,289.868,915.5,285.868,919.5,294.868" style="stroke:#181818;stroke-width:1.0;"/></g><!--reverse link ThreadHandoffProducer to BitmapMemoryCacheKeyMultiplexProducer--><g id="link_ThreadHandoffProducer_BitmapMemoryCacheKeyMultiplexProducer"><path d="M724.213,313 C735.876,313 741.539,313 753.202,313 " fill="none" id="ThreadHandoffProducer-backto-BitmapMemoryCacheKeyMultiplexProducer" style="stroke:#181818;stroke-width:1.0;"/><polygon fill="#181818" points="718.213,313,727.213,317,723.213,313,727.213,309,718.213,313" style="stroke:#181818;stroke-width:1.0;"/></g><!--reverse link BitmapMemoryCacheGetProducer to ThreadHandoffProducer--><g id="link_BitmapMemoryCacheGetProducer_ThreadHandoffProducer"><path d="M497.531,313 C509.298,313 515.065,313 526.831,313 " fill="none" id="BitmapMemoryCacheGetProducer-backto-ThreadHandoffProducer" style="stroke:#181818;stroke-width:1.0;"/><polygon fill="#181818" points="491.531,313,500.531,317,496.531,313,500.531,309,491.531,313" style="stroke:#181818;stroke-width:1.0;"/></g><!--reverse link BitmapProbeProducer to BitmapMemoryCacheGetProducer--><g id="link_BitmapProbeProducer_BitmapMemoryCacheGetProducer"><path d="M196.699,313 C208.279,313 213.859,313 225.439,313 " fill="none" id="BitmapProbeProducer-backto-BitmapMemoryCacheGetProducer" style="stroke:#181818;stroke-width:1.0;"/><polygon fill="#181818" points="190.699,313,199.699,317,195.699,313,199.699,309,190.699,313" style="stroke:#181818;stroke-width:1.0;"/></g><!--link BitmapProbeProducer to PostprocessorProducer--><g id="link_BitmapProbeProducer_PostprocessorProducer"><path d="M100.5,331.241 C100.5,348.2017 100.5,367.9455 100.5,384.8683 " fill="none" id="BitmapProbeProducer-to-PostprocessorProducer" style="stroke:#181818;stroke-width:1.0;"/><polygon fill="#181818" points="100.5,390.8683,104.5,381.8683,100.5,385.8683,96.5,381.8683,100.5,390.8683" style="stroke:#181818;stroke-width:1.0;"/></g><!--link PostprocessorProducer to PostprocessedBitmapMemoryCacheProducer--><g id="link_PostprocessorProducer_PostprocessedBitmapMemoryCacheProducer"><path d="M194.269,409 C205.736,409 211.204,409 222.672,409 " fill="none" id="PostprocessorProducer-to-PostprocessedBitmapMemoryCacheProducer" style="stroke:#181818;stroke-width:1.0;"/><polygon fill="#181818" points="228.672,409,219.672,405,223.672,409,219.672,413,228.672,409" style="stroke:#181818;stroke-width:1.0;"/></g><!--link PostprocessedBitmapMemoryCacheProducer to BitmapPrepareProducer--><g id="link_PostprocessedBitmapMemoryCacheProducer_BitmapPrepareProducer"><path d="M574.254,409 C585.963,409 591.672,409 603.382,409 " fill="none" id="PostprocessedBitmapMemoryCacheProducer-to-BitmapPrepareProducer" style="stroke:#181818;stroke-width:1.0;"/><polygon fill="#181818" points="609.382,409,600.382,405,604.382,409,600.382,413,609.382,409" style="stroke:#181818;stroke-width:1.0;"/></g><!--link BitmapPrepareProducer to DelayProducer--><g id="link_BitmapPrepareProducer_DelayProducer"><path d="M803.879,409 C815.327,409 820.776,409 832.225,409 " fill="none" id="BitmapPrepareProducer-to-DelayProducer" style="stroke:#181818;stroke-width:1.0;"/><polygon fill="#181818" points="838.225,409,829.225,405,833.225,409,829.225,413,838.225,409" style="stroke:#181818;stroke-width:1.0;"/></g><!--link DelayProducer to Bitmap--><g id="link_DelayProducer_Bitmap"><path d="M962.609,409 C974.154,409 979.698,409 991.242,409 " fill="none" id="DelayProducer-to-Bitmap" style="stroke:#181818;stroke-width:1.0;"/><polygon fill="#181818" points="997.242,409,988.242,405,992.242,409,988.242,413,997.242,409" style="stroke:#181818;stroke-width:1.0;"/></g><!--SRC=[bLHBJiCm4Dtd59PObmE0X5GeFw6YgbJgec8njITDbCIEdAbAk01YmP8LTq2SWDi0ro2VgasSE8JjpFjCteoJ1BwCGKF4k8fY9L7I7QKXCesSGAv2TBxUFd-UdxvVFxvVtjdWX2rkaJPA1nT8t9je9TOSzRspuxF579VnJ8DCk1AuGx239V3WQEFvXCUXB_5GA28KJhjWOTMkLFMQW2OVmf6V16V0lJvsbl5oFwkQqs6K4tVbkSxyAZHBWmrgh2c2Q2FLwcmGeaivxrpceuinHagdng2LRBQmhBViaqk7QiEwhkbOh4nM8Ng3wNWTaX-7-D1Ki4FAo8P2N4UmmcA1hjBH60b6G52H-XjJx6oAYV-8GoccYg2sD5kdN3NMZz4i5A1JdoA8MnVKqIi_iT6t9DOFjr_2pDFPELs15CfrAphjzJsluNE9r7fl9R3lkNNAckx6lLL_02gXM2kEIQ9qRrlpK8l7twfayKBHiKQhkMLOmxrBs-azH3KypFxnxV6DC8Jq7x7LbROFeYhXc98Pf2J_0W00]--></g></svg>