<?xml version="1.0" encoding="us-ascii" standalone="no"?><svg xmlns="http://www.w3.org/2000/svg" xmlns:xlink="http://www.w3.org/1999/xlink" contentStyleType="text/css" height="278px" preserveAspectRatio="none" style="width:299px;height:278px;background:#FFFFFF;" version="1.1" viewBox="0 0 299 278" width="299px" zoomAndPan="magnify"><defs/><g><!--class Center--><g id="elem_Center"><rect fill="#F1F1F1" height="48" id="Center" rx="2.5" ry="2.5" style="stroke:#181818;stroke-width:0.5;" width="82" x="104" y="115"/><ellipse cx="119" cy="131" fill="#ADD1B2" rx="11" ry="11" style="stroke:#181818;stroke-width:1.0;"/><path d="M121.3438,126.6719 C120.4063,126.2344 119.8125,126.0938 118.9375,126.0938 C116.3125,126.0938 114.3125,128.1719 114.3125,130.8906 L114.3125,132.0156 C114.3125,134.5938 116.4219,136.4844 119.3125,136.4844 C120.5313,136.4844 121.6875,136.1875 122.4375,135.6406 C123.0156,135.2344 123.3438,134.7813 123.3438,134.3906 C123.3438,133.9375 122.9531,133.5469 122.4844,133.5469 C122.2656,133.5469 122.0625,133.625 121.875,133.8125 C121.4219,134.2969 121.4219,134.2969 121.2344,134.3906 C120.8125,134.6563 120.125,134.7813 119.3594,134.7813 C117.3125,134.7813 116.0156,133.6875 116.0156,131.9844 L116.0156,130.8906 C116.0156,129.1094 117.2656,127.7969 119,127.7969 C119.5781,127.7969 120.1875,127.9531 120.6563,128.2031 C121.1406,128.4844 121.3125,128.7031 121.4063,129.1094 C121.4688,129.5156 121.5,129.6406 121.6406,129.7656 C121.7813,129.9063 122.0156,130.0156 122.2344,130.0156 C122.5,130.0156 122.7656,129.875 122.9375,129.6563 C123.0469,129.5 123.0781,129.3125 123.0781,128.8906 L123.0781,127.4688 C123.0781,127.0313 123.0625,126.9063 122.9688,126.75 C122.8125,126.4844 122.5313,126.3438 122.2344,126.3438 C121.9375,126.3438 121.7344,126.4375 121.5156,126.75 L121.3438,126.6719 Z " fill="#000000"/><text fill="#000000" font-family="sans-serif" font-size="14" lengthAdjust="spacing" textLength="50" x="133" y="135.8467">Center</text><line style="stroke:#181818;stroke-width:0.5;" x1="105" x2="185" y1="147" y2="147"/><line style="stroke:#181818;stroke-width:0.5;" x1="105" x2="185" y1="155" y2="155"/></g><!--class Left--><g id="elem_Left"><rect fill="#F1F1F1" height="48" id="Left" rx="2.5" ry="2.5" style="stroke:#181818;stroke-width:0.5;" width="62" x="7" y="115"/><ellipse cx="22" cy="131" fill="#ADD1B2" rx="11" ry="11" style="stroke:#181818;stroke-width:1.0;"/><path d="M24.3438,126.6719 C23.4063,126.2344 22.8125,126.0938 21.9375,126.0938 C19.3125,126.0938 17.3125,128.1719 17.3125,130.8906 L17.3125,132.0156 C17.3125,134.5938 19.4219,136.4844 22.3125,136.4844 C23.5313,136.4844 24.6875,136.1875 25.4375,135.6406 C26.0156,135.2344 26.3438,134.7813 26.3438,134.3906 C26.3438,133.9375 25.9531,133.5469 25.4844,133.5469 C25.2656,133.5469 25.0625,133.625 24.875,133.8125 C24.4219,134.2969 24.4219,134.2969 24.2344,134.3906 C23.8125,134.6563 23.125,134.7813 22.3594,134.7813 C20.3125,134.7813 19.0156,133.6875 19.0156,131.9844 L19.0156,130.8906 C19.0156,129.1094 20.2656,127.7969 22,127.7969 C22.5781,127.7969 23.1875,127.9531 23.6563,128.2031 C24.1406,128.4844 24.3125,128.7031 24.4063,129.1094 C24.4688,129.5156 24.5,129.6406 24.6406,129.7656 C24.7813,129.9063 25.0156,130.0156 25.2344,130.0156 C25.5,130.0156 25.7656,129.875 25.9375,129.6563 C26.0469,129.5 26.0781,129.3125 26.0781,128.8906 L26.0781,127.4688 C26.0781,127.0313 26.0625,126.9063 25.9688,126.75 C25.8125,126.4844 25.5313,126.3438 25.2344,126.3438 C24.9375,126.3438 24.7344,126.4375 24.5156,126.75 L24.3438,126.6719 Z " fill="#000000"/><text fill="#000000" font-family="sans-serif" font-size="14" lengthAdjust="spacing" textLength="30" x="36" y="135.8467">Left</text><line style="stroke:#181818;stroke-width:0.5;" x1="8" x2="68" y1="147" y2="147"/><line style="stroke:#181818;stroke-width:0.5;" x1="8" x2="68" y1="155" y2="155"/></g><!--class Up--><g id="elem_Up"><rect fill="#F1F1F1" height="48" id="Up" rx="2.5" ry="2.5" style="stroke:#181818;stroke-width:0.5;" width="51" x="119.5" y="7"/><ellipse cx="134.5" cy="23" fill="#ADD1B2" rx="11" ry="11" style="stroke:#181818;stroke-width:1.0;"/><path d="M136.8438,18.6719 C135.9063,18.2344 135.3125,18.0938 134.4375,18.0938 C131.8125,18.0938 129.8125,20.1719 129.8125,22.8906 L129.8125,24.0156 C129.8125,26.5938 131.9219,28.4844 134.8125,28.4844 C136.0313,28.4844 137.1875,28.1875 137.9375,27.6406 C138.5156,27.2344 138.8438,26.7813 138.8438,26.3906 C138.8438,25.9375 138.4531,25.5469 137.9844,25.5469 C137.7656,25.5469 137.5625,25.625 137.375,25.8125 C136.9219,26.2969 136.9219,26.2969 136.7344,26.3906 C136.3125,26.6563 135.625,26.7813 134.8594,26.7813 C132.8125,26.7813 131.5156,25.6875 131.5156,23.9844 L131.5156,22.8906 C131.5156,21.1094 132.7656,19.7969 134.5,19.7969 C135.0781,19.7969 135.6875,19.9531 136.1563,20.2031 C136.6406,20.4844 136.8125,20.7031 136.9063,21.1094 C136.9688,21.5156 137,21.6406 137.1406,21.7656 C137.2813,21.9063 137.5156,22.0156 137.7344,22.0156 C138,22.0156 138.2656,21.875 138.4375,21.6563 C138.5469,21.5 138.5781,21.3125 138.5781,20.8906 L138.5781,19.4688 C138.5781,19.0313 138.5625,18.9063 138.4688,18.75 C138.3125,18.4844 138.0313,18.3438 137.7344,18.3438 C137.4375,18.3438 137.2344,18.4375 137.0156,18.75 L136.8438,18.6719 Z " fill="#000000"/><text fill="#000000" font-family="sans-serif" font-size="14" lengthAdjust="spacing" textLength="19" x="148.5" y="27.8467">Up</text><line style="stroke:#181818;stroke-width:0.5;" x1="120.5" x2="169.5" y1="39" y2="39"/><line style="stroke:#181818;stroke-width:0.5;" x1="120.5" x2="169.5" y1="47" y2="47"/></g><!--class Down--><g id="elem_Down"><rect fill="#F1F1F1" height="48" id="Down" rx="2.5" ry="2.5" style="stroke:#181818;stroke-width:0.5;" width="72" x="109" y="223"/><ellipse cx="124" cy="239" fill="#ADD1B2" rx="11" ry="11" style="stroke:#181818;stroke-width:1.0;"/><path d="M126.3438,234.6719 C125.4063,234.2344 124.8125,234.0938 123.9375,234.0938 C121.3125,234.0938 119.3125,236.1719 119.3125,238.8906 L119.3125,240.0156 C119.3125,242.5938 121.4219,244.4844 124.3125,244.4844 C125.5313,244.4844 126.6875,244.1875 127.4375,243.6406 C128.0156,243.2344 128.3438,242.7813 128.3438,242.3906 C128.3438,241.9375 127.9531,241.5469 127.4844,241.5469 C127.2656,241.5469 127.0625,241.625 126.875,241.8125 C126.4219,242.2969 126.4219,242.2969 126.2344,242.3906 C125.8125,242.6563 125.125,242.7813 124.3594,242.7813 C122.3125,242.7813 121.0156,241.6875 121.0156,239.9844 L121.0156,238.8906 C121.0156,237.1094 122.2656,235.7969 124,235.7969 C124.5781,235.7969 125.1875,235.9531 125.6563,236.2031 C126.1406,236.4844 126.3125,236.7031 126.4063,237.1094 C126.4688,237.5156 126.5,237.6406 126.6406,237.7656 C126.7813,237.9063 127.0156,238.0156 127.2344,238.0156 C127.5,238.0156 127.7656,237.875 127.9375,237.6563 C128.0469,237.5 128.0781,237.3125 128.0781,236.8906 L128.0781,235.4688 C128.0781,235.0313 128.0625,234.9063 127.9688,234.75 C127.8125,234.4844 127.5313,234.3438 127.2344,234.3438 C126.9375,234.3438 126.7344,234.4375 126.5156,234.75 L126.3438,234.6719 Z " fill="#000000"/><text fill="#000000" font-family="sans-serif" font-size="14" lengthAdjust="spacing" textLength="40" x="138" y="243.8467">Down</text><line style="stroke:#181818;stroke-width:0.5;" x1="110" x2="180" y1="255" y2="255"/><line style="stroke:#181818;stroke-width:0.5;" x1="110" x2="180" y1="263" y2="263"/></g><!--class Right--><g id="elem_Right"><rect fill="#F1F1F1" height="48" id="Right" rx="2.5" ry="2.5" style="stroke:#181818;stroke-width:0.5;" width="71" x="221.5" y="115"/><ellipse cx="236.5" cy="131" fill="#ADD1B2" rx="11" ry="11" style="stroke:#181818;stroke-width:1.0;"/><path d="M238.8438,126.6719 C237.9063,126.2344 237.3125,126.0938 236.4375,126.0938 C233.8125,126.0938 231.8125,128.1719 231.8125,130.8906 L231.8125,132.0156 C231.8125,134.5938 233.9219,136.4844 236.8125,136.4844 C238.0313,136.4844 239.1875,136.1875 239.9375,135.6406 C240.5156,135.2344 240.8438,134.7813 240.8438,134.3906 C240.8438,133.9375 240.4531,133.5469 239.9844,133.5469 C239.7656,133.5469 239.5625,133.625 239.375,133.8125 C238.9219,134.2969 238.9219,134.2969 238.7344,134.3906 C238.3125,134.6563 237.625,134.7813 236.8594,134.7813 C234.8125,134.7813 233.5156,133.6875 233.5156,131.9844 L233.5156,130.8906 C233.5156,129.1094 234.7656,127.7969 236.5,127.7969 C237.0781,127.7969 237.6875,127.9531 238.1563,128.2031 C238.6406,128.4844 238.8125,128.7031 238.9063,129.1094 C238.9688,129.5156 239,129.6406 239.1406,129.7656 C239.2813,129.9063 239.5156,130.0156 239.7344,130.0156 C240,130.0156 240.2656,129.875 240.4375,129.6563 C240.5469,129.5 240.5781,129.3125 240.5781,128.8906 L240.5781,127.4688 C240.5781,127.0313 240.5625,126.9063 240.4688,126.75 C240.3125,126.4844 240.0313,126.3438 239.7344,126.3438 C239.4375,126.3438 239.2344,126.4375 239.0156,126.75 L238.8438,126.6719 Z " fill="#000000"/><text fill="#000000" font-family="sans-serif" font-size="14" lengthAdjust="spacing" textLength="39" x="250.5" y="135.8467">Right</text><line style="stroke:#181818;stroke-width:0.5;" x1="222.5" x2="291.5" y1="147" y2="147"/><line style="stroke:#181818;stroke-width:0.5;" x1="222.5" x2="291.5" y1="155" y2="155"/></g><!--reverse link Left to Center--><g id="link_Left_Center"><path codeLine="1" d="M75.3477,139 C86.8728,139 92.398,139 103.9231,139 " fill="none" id="Left-backto-Center" style="stroke:#181818;stroke-width:1.0;"/><polygon fill="#181818" points="69.3477,139,78.3477,143,74.3477,139,78.3477,135,69.3477,139" style="stroke:#181818;stroke-width:1.0;"/></g><!--reverse link Up to Center--><g id="link_Up_Center"><path codeLine="2" d="M145,61 C145,78.658 145,96.941 145,114.678 " fill="none" id="Up-backto-Center" style="stroke:#181818;stroke-width:1.0;"/><polygon fill="#181818" points="145,55,141,64,145,60,149,64,145,55" style="stroke:#181818;stroke-width:1.0;"/></g><!--link Center to Down--><g id="link_Center_Down"><path codeLine="3" d="M145,163 C145,180.6584 145,198.9408 145,216.6784 " fill="none" id="Center-to-Down" style="stroke:#181818;stroke-width:1.0;"/><polygon fill="#181818" points="145,222.6784,149,213.6784,145,217.6784,141,213.6784,145,222.6784" style="stroke:#181818;stroke-width:1.0;"/></g><!--link Center to Right--><g id="link_Center_Right"><path codeLine="4" d="M186.125,139 C197.845,139 203.565,139 215.286,139 " fill="none" id="Center-to-Right" style="stroke:#181818;stroke-width:1.0;"/><polygon fill="#181818" points="221.286,139,212.286,135,216.286,139,212.286,143,221.286,139" style="stroke:#181818;stroke-width:1.0;"/></g><!--SRC=[SqxDAqajKj3DIKqhqRLJy05INCvGiT82e4Xe0PoVab-U1nHn0L9miQBCz0oGnY0G3G00]--></g></svg>