<?xml version="1.0" encoding="us-ascii" standalone="no"?><svg xmlns="http://www.w3.org/2000/svg" xmlns:xlink="http://www.w3.org/1999/xlink" contentStyleType="text/css" height="567px" preserveAspectRatio="none" style="width:1034px;height:567px;background:#FFFFFF;" version="1.1" viewBox="0 0 1034 567" width="1034px" zoomAndPan="magnify"><defs/><g><!--class ImageDecoder--><g id="elem_ImageDecoder"><rect codeLine="1" fill="#F1F1F1" height="48" id="ImageDecoder" rx="2.5" ry="2.5" style="stroke:#181818;stroke-width:0.5;" width="138" x="530" y="7"/><ellipse cx="545" cy="23" fill="#B4A7E5" rx="11" ry="11" style="stroke:#181818;stroke-width:1.0;"/><path d="M545.9531,19.7813 L547.6719,19.7813 C548.0625,19.7813 548.25,19.75 548.375,19.6719 C548.6406,19.5156 548.7813,19.2344 548.7813,18.9375 C548.7813,18.6719 548.6719,18.4063 548.4375,18.2344 C548.2656,18.125 548.125,18.0938 547.6719,18.0938 L542.5313,18.0938 C542.0938,18.0938 541.9688,18.1094 541.8125,18.2031 C541.5625,18.3594 541.4063,18.6563 541.4063,18.9375 C541.4063,19.2188 541.5469,19.4688 541.7656,19.6406 C541.9219,19.75 542.1094,19.7813 542.5313,19.7813 L544.25,19.7813 L544.25,26.2969 L542.5313,26.2969 C542.0938,26.2969 541.9688,26.3125 541.8125,26.4219 C541.5625,26.5781 541.4063,26.8594 541.4063,27.1563 C541.4063,27.4063 541.5469,27.6719 541.7656,27.8281 C541.9219,27.9531 542.125,28 542.5313,28 L547.6719,28 C548.4219,28 548.7813,27.7188 548.7813,27.1563 C548.7813,26.875 548.6719,26.625 548.4375,26.4531 C548.2656,26.3281 548.125,26.2969 547.6719,26.2969 L545.9531,26.2969 L545.9531,19.7813 Z " fill="#000000"/><text fill="#000000" font-family="sans-serif" font-size="14" font-style="italic" lengthAdjust="spacing" textLength="106" x="559" y="27.8467">ImageDecoder</text><line style="stroke:#181818;stroke-width:0.5;" x1="531" x2="667" y1="39" y2="39"/><line style="stroke:#181818;stroke-width:0.5;" x1="531" x2="667" y1="47" y2="47"/></g><!--class DefaultImageDecoder--><g id="elem_DefaultImageDecoder"><rect codeLine="3" fill="#F1F1F1" height="113.1875" id="DefaultImageDecoder" rx="2.5" ry="2.5" style="stroke:#181818;stroke-width:0.5;" width="308" x="445" y="119"/><ellipse cx="515.75" cy="135" fill="#ADD1B2" rx="11" ry="11" style="stroke:#181818;stroke-width:1.0;"/><path d="M518.0938,130.6719 C517.1563,130.2344 516.5625,130.0938 515.6875,130.0938 C513.0625,130.0938 511.0625,132.1719 511.0625,134.8906 L511.0625,136.0156 C511.0625,138.5938 513.1719,140.4844 516.0625,140.4844 C517.2813,140.4844 518.4375,140.1875 519.1875,139.6406 C519.7656,139.2344 520.0938,138.7813 520.0938,138.3906 C520.0938,137.9375 519.7031,137.5469 519.2344,137.5469 C519.0156,137.5469 518.8125,137.625 518.625,137.8125 C518.1719,138.2969 518.1719,138.2969 517.9844,138.3906 C517.5625,138.6563 516.875,138.7813 516.1094,138.7813 C514.0625,138.7813 512.7656,137.6875 512.7656,135.9844 L512.7656,134.8906 C512.7656,133.1094 514.0156,131.7969 515.75,131.7969 C516.3281,131.7969 516.9375,131.9531 517.4063,132.2031 C517.8906,132.4844 518.0625,132.7031 518.1563,133.1094 C518.2188,133.5156 518.25,133.6406 518.3906,133.7656 C518.5313,133.9063 518.7656,134.0156 518.9844,134.0156 C519.25,134.0156 519.5156,133.875 519.6875,133.6563 C519.7969,133.5 519.8281,133.3125 519.8281,132.8906 L519.8281,131.4688 C519.8281,131.0313 519.8125,130.9063 519.7188,130.75 C519.5625,130.4844 519.2813,130.3438 518.9844,130.3438 C518.6875,130.3438 518.4844,130.4375 518.2656,130.75 L518.0938,130.6719 Z " fill="#000000"/><text fill="#000000" font-family="sans-serif" font-size="14" lengthAdjust="spacing" textLength="158" x="536.25" y="139.8467">DefaultImageDecoder</text><line style="stroke:#181818;stroke-width:0.5;" x1="446" x2="752" y1="151" y2="151"/><text fill="#000000" font-family="sans-serif" font-size="14" lengthAdjust="spacing" textLength="275" x="451" y="167.9951">ImageDecoder mAnimatedGifDecoder</text><text fill="#000000" font-family="sans-serif" font-size="14" lengthAdjust="spacing" textLength="296" x="451" y="184.292">ImageDecoder mAnimatedWebPDecoder</text><text fill="#000000" font-family="sans-serif" font-size="14" lengthAdjust="spacing" textLength="266" x="451" y="200.5889">PlatformDecoder mPlatformDecoder</text><text fill="#000000" font-family="sans-serif" font-size="14" lengthAdjust="spacing" textLength="237" x="451" y="216.8857">ImageDecoder mDefaultDecoder</text><line style="stroke:#181818;stroke-width:0.5;" x1="446" x2="752" y1="224.1875" y2="224.1875"/></g><path d="M796.5,158 L796.5,166.5664 L688,212.0391 L796.5,174.5664 L796.5,183.1328 A0,0 0 0 0 796.5,183.1328 L1027.5,183.1328 A0,0 0 0 0 1027.5,183.1328 L1027.5,168 L1017.5,158 L796.5,158 A0,0 0 0 0 796.5,158 " fill="#FEFFDD" style="stroke:#181818;stroke-width:0.5;"/><path d="M1017.5,158 L1017.5,168 L1027.5,168 L1017.5,158 " fill="#FEFFDD" style="stroke:#181818;stroke-width:0.5;"/><text fill="#000000" font-family="sans-serif" font-size="13" lengthAdjust="spacing" textLength="210" x="802.5" y="175.0669">&#20869;&#37096;&#31867;&#65292;&#26681;&#25454;&#22270;&#29255;&#26684;&#24335;&#36873;&#25321;Decoder</text><!--class PlatformDecoder--><g id="elem_PlatformDecoder"><rect codeLine="13" fill="#F1F1F1" height="48" id="PlatformDecoder" rx="2.5" ry="2.5" style="stroke:#181818;stroke-width:0.5;" width="153" x="248.5" y="151.5"/><ellipse cx="263.5" cy="167.5" fill="#B4A7E5" rx="11" ry="11" style="stroke:#181818;stroke-width:1.0;"/><path d="M264.4531,164.2813 L266.1719,164.2813 C266.5625,164.2813 266.75,164.25 266.875,164.1719 C267.1406,164.0156 267.2813,163.7344 267.2813,163.4375 C267.2813,163.1719 267.1719,162.9063 266.9375,162.7344 C266.7656,162.625 266.625,162.5938 266.1719,162.5938 L261.0313,162.5938 C260.5938,162.5938 260.4688,162.6094 260.3125,162.7031 C260.0625,162.8594 259.9063,163.1563 259.9063,163.4375 C259.9063,163.7188 260.0469,163.9688 260.2656,164.1406 C260.4219,164.25 260.6094,164.2813 261.0313,164.2813 L262.75,164.2813 L262.75,170.7969 L261.0313,170.7969 C260.5938,170.7969 260.4688,170.8125 260.3125,170.9219 C260.0625,171.0781 259.9063,171.3594 259.9063,171.6563 C259.9063,171.9063 260.0469,172.1719 260.2656,172.3281 C260.4219,172.4531 260.625,172.5 261.0313,172.5 L266.1719,172.5 C266.9219,172.5 267.2813,172.2188 267.2813,171.6563 C267.2813,171.375 267.1719,171.125 266.9375,170.9531 C266.7656,170.8281 266.625,170.7969 266.1719,170.7969 L264.4531,170.7969 L264.4531,164.2813 Z " fill="#000000"/><text fill="#000000" font-family="sans-serif" font-size="14" font-style="italic" lengthAdjust="spacing" textLength="121" x="277.5" y="172.3467">PlatformDecoder</text><line style="stroke:#181818;stroke-width:0.5;" x1="249.5" x2="400.5" y1="183.5" y2="183.5"/><line style="stroke:#181818;stroke-width:0.5;" x1="249.5" x2="400.5" y1="191.5" y2="191.5"/></g><!--class DefaultDecoder--><g id="elem_DefaultDecoder"><rect codeLine="14" fill="#F1F1F1" height="48" id="DefaultDecoder" rx="2.5" ry="2.5" style="stroke:#181818;stroke-width:0.5;" width="145" x="70.5" y="296"/><ellipse cx="85.5" cy="312" fill="#A9DCDF" rx="11" ry="11" style="stroke:#181818;stroke-width:1.0;"/><path d="M87.5781,313.8125 L87.9688,314.7969 L87.5781,314.7969 C87.125,314.7969 87.0156,314.8125 86.8594,314.9219 C86.6094,315.0781 86.4531,315.3594 86.4531,315.6563 C86.4531,315.9219 86.5938,316.1719 86.8125,316.3281 C86.9531,316.4531 87.1563,316.5 87.5781,316.5 L89.9375,316.5 C90.2969,316.5 90.5156,316.4688 90.6563,316.375 C90.9063,316.2344 91.0625,315.9375 91.0625,315.6563 C91.0625,315.375 90.9219,315.125 90.7031,314.9688 C90.5313,314.8281 90.375,314.7969 89.9063,314.7969 L86.5156,306.5938 L82.8438,306.5938 C82.3906,306.5938 82.2656,306.6094 82.1094,306.7031 C81.8594,306.875 81.7031,307.1563 81.7031,307.4375 C81.7031,307.7188 81.8438,307.9688 82.0625,308.1406 C82.2344,308.25 82.4063,308.2813 82.8438,308.2813 L83.9219,308.2813 L81.2813,314.7969 C80.8594,314.7969 80.7031,314.8125 80.5469,314.9219 C80.2969,315.0781 80.1406,315.3594 80.1406,315.6563 C80.1406,316.2188 80.5156,316.5 81.2656,316.5 L83.5313,316.5 C83.8906,316.5 84.1094,316.4688 84.2344,316.375 C84.5,316.2344 84.6406,315.9375 84.6406,315.6563 C84.6406,315.375 84.5156,315.125 84.2969,314.9531 C84.125,314.8281 83.9844,314.7969 83.5313,314.7969 L83.1406,314.7969 L83.5313,313.8125 L87.5781,313.8125 Z M86.875,312.1094 L84.2031,312.1094 L85.5469,308.8438 L86.875,312.1094 Z " fill="#000000"/><text fill="#000000" font-family="sans-serif" font-size="14" font-style="italic" lengthAdjust="spacing" textLength="113" x="99.5" y="316.8467">DefaultDecoder</text><line style="stroke:#181818;stroke-width:0.5;" x1="71.5" x2="214.5" y1="328" y2="328"/><line style="stroke:#181818;stroke-width:0.5;" x1="71.5" x2="214.5" y1="336" y2="336"/></g><!--class OreoDecoder--><g id="elem_OreoDecoder"><rect fill="#F1F1F1" height="48" id="OreoDecoder" rx="2.5" ry="2.5" style="stroke:#181818;stroke-width:0.5;" width="128" x="158" y="404"/><ellipse cx="173" cy="420" fill="#ADD1B2" rx="11" ry="11" style="stroke:#181818;stroke-width:1.0;"/><path d="M175.3438,415.6719 C174.4063,415.2344 173.8125,415.0938 172.9375,415.0938 C170.3125,415.0938 168.3125,417.1719 168.3125,419.8906 L168.3125,421.0156 C168.3125,423.5938 170.4219,425.4844 173.3125,425.4844 C174.5313,425.4844 175.6875,425.1875 176.4375,424.6406 C177.0156,424.2344 177.3438,423.7813 177.3438,423.3906 C177.3438,422.9375 176.9531,422.5469 176.4844,422.5469 C176.2656,422.5469 176.0625,422.625 175.875,422.8125 C175.4219,423.2969 175.4219,423.2969 175.2344,423.3906 C174.8125,423.6563 174.125,423.7813 173.3594,423.7813 C171.3125,423.7813 170.0156,422.6875 170.0156,420.9844 L170.0156,419.8906 C170.0156,418.1094 171.2656,416.7969 173,416.7969 C173.5781,416.7969 174.1875,416.9531 174.6563,417.2031 C175.1406,417.4844 175.3125,417.7031 175.4063,418.1094 C175.4688,418.5156 175.5,418.6406 175.6406,418.7656 C175.7813,418.9063 176.0156,419.0156 176.2344,419.0156 C176.5,419.0156 176.7656,418.875 176.9375,418.6563 C177.0469,418.5 177.0781,418.3125 177.0781,417.8906 L177.0781,416.4688 C177.0781,416.0313 177.0625,415.9063 176.9688,415.75 C176.8125,415.4844 176.5313,415.3438 176.2344,415.3438 C175.9375,415.3438 175.7344,415.4375 175.5156,415.75 L175.3438,415.6719 Z " fill="#000000"/><text fill="#000000" font-family="sans-serif" font-size="14" lengthAdjust="spacing" textLength="96" x="187" y="424.8467">OreoDecoder</text><line style="stroke:#181818;stroke-width:0.5;" x1="159" x2="285" y1="436" y2="436"/><line style="stroke:#181818;stroke-width:0.5;" x1="159" x2="285" y1="444" y2="444"/></g><!--class ArtDecoder--><g id="elem_ArtDecoder"><rect fill="#F1F1F1" height="48" id="ArtDecoder" rx="2.5" ry="2.5" style="stroke:#181818;stroke-width:0.5;" width="116" x="7" y="404"/><ellipse cx="22" cy="420" fill="#ADD1B2" rx="11" ry="11" style="stroke:#181818;stroke-width:1.0;"/><path d="M24.3438,415.6719 C23.4063,415.2344 22.8125,415.0938 21.9375,415.0938 C19.3125,415.0938 17.3125,417.1719 17.3125,419.8906 L17.3125,421.0156 C17.3125,423.5938 19.4219,425.4844 22.3125,425.4844 C23.5313,425.4844 24.6875,425.1875 25.4375,424.6406 C26.0156,424.2344 26.3438,423.7813 26.3438,423.3906 C26.3438,422.9375 25.9531,422.5469 25.4844,422.5469 C25.2656,422.5469 25.0625,422.625 24.875,422.8125 C24.4219,423.2969 24.4219,423.2969 24.2344,423.3906 C23.8125,423.6563 23.125,423.7813 22.3594,423.7813 C20.3125,423.7813 19.0156,422.6875 19.0156,420.9844 L19.0156,419.8906 C19.0156,418.1094 20.2656,416.7969 22,416.7969 C22.5781,416.7969 23.1875,416.9531 23.6563,417.2031 C24.1406,417.4844 24.3125,417.7031 24.4063,418.1094 C24.4688,418.5156 24.5,418.6406 24.6406,418.7656 C24.7813,418.9063 25.0156,419.0156 25.2344,419.0156 C25.5,419.0156 25.7656,418.875 25.9375,418.6563 C26.0469,418.5 26.0781,418.3125 26.0781,417.8906 L26.0781,416.4688 C26.0781,416.0313 26.0625,415.9063 25.9688,415.75 C25.8125,415.4844 25.5313,415.3438 25.2344,415.3438 C24.9375,415.3438 24.7344,415.4375 24.5156,415.75 L24.3438,415.6719 Z " fill="#000000"/><text fill="#000000" font-family="sans-serif" font-size="14" lengthAdjust="spacing" textLength="84" x="36" y="424.8467">ArtDecoder</text><line style="stroke:#181818;stroke-width:0.5;" x1="8" x2="122" y1="436" y2="436"/><line style="stroke:#181818;stroke-width:0.5;" x1="8" x2="122" y1="444" y2="444"/></g><!--class PlatformDecoderFactory--><g id="elem_PlatformDecoderFactory"><rect fill="#F1F1F1" height="48" id="PlatformDecoderFactory" rx="2.5" ry="2.5" style="stroke:#181818;stroke-width:0.5;" width="210" x="219" y="512"/><ellipse cx="234" cy="528" fill="#ADD1B2" rx="11" ry="11" style="stroke:#181818;stroke-width:1.0;"/><path d="M236.3438,523.6719 C235.4063,523.2344 234.8125,523.0938 233.9375,523.0938 C231.3125,523.0938 229.3125,525.1719 229.3125,527.8906 L229.3125,529.0156 C229.3125,531.5938 231.4219,533.4844 234.3125,533.4844 C235.5313,533.4844 236.6875,533.1875 237.4375,532.6406 C238.0156,532.2344 238.3438,531.7813 238.3438,531.3906 C238.3438,530.9375 237.9531,530.5469 237.4844,530.5469 C237.2656,530.5469 237.0625,530.625 236.875,530.8125 C236.4219,531.2969 236.4219,531.2969 236.2344,531.3906 C235.8125,531.6563 235.125,531.7813 234.3594,531.7813 C232.3125,531.7813 231.0156,530.6875 231.0156,528.9844 L231.0156,527.8906 C231.0156,526.1094 232.2656,524.7969 234,524.7969 C234.5781,524.7969 235.1875,524.9531 235.6563,525.2031 C236.1406,525.4844 236.3125,525.7031 236.4063,526.1094 C236.4688,526.5156 236.5,526.6406 236.6406,526.7656 C236.7813,526.9063 237.0156,527.0156 237.2344,527.0156 C237.5,527.0156 237.7656,526.875 237.9375,526.6563 C238.0469,526.5 238.0781,526.3125 238.0781,525.8906 L238.0781,524.4688 C238.0781,524.0313 238.0625,523.9063 237.9688,523.75 C237.8125,523.4844 237.5313,523.3438 237.2344,523.3438 C236.9375,523.3438 236.7344,523.4375 236.5156,523.75 L236.3438,523.6719 Z " fill="#000000"/><text fill="#000000" font-family="sans-serif" font-size="14" lengthAdjust="spacing" textLength="178" x="248" y="532.8467">PlatformDecoderFactory</text><line style="stroke:#181818;stroke-width:0.5;" x1="220" x2="428" y1="544" y2="544"/><line style="stroke:#181818;stroke-width:0.5;" x1="220" x2="428" y1="552" y2="552"/></g><!--class GingerbreadPurgeableDecoder--><g id="elem_GingerbreadPurgeableDecoder"><rect fill="#F1F1F1" height="48" id="GingerbreadPurgeableDecoder" rx="2.5" ry="2.5" style="stroke:#181818;stroke-width:0.5;" width="255" x="567.5" y="404"/><ellipse cx="582.5" cy="420" fill="#ADD1B2" rx="11" ry="11" style="stroke:#181818;stroke-width:1.0;"/><path d="M584.8438,415.6719 C583.9063,415.2344 583.3125,415.0938 582.4375,415.0938 C579.8125,415.0938 577.8125,417.1719 577.8125,419.8906 L577.8125,421.0156 C577.8125,423.5938 579.9219,425.4844 582.8125,425.4844 C584.0313,425.4844 585.1875,425.1875 585.9375,424.6406 C586.5156,424.2344 586.8438,423.7813 586.8438,423.3906 C586.8438,422.9375 586.4531,422.5469 585.9844,422.5469 C585.7656,422.5469 585.5625,422.625 585.375,422.8125 C584.9219,423.2969 584.9219,423.2969 584.7344,423.3906 C584.3125,423.6563 583.625,423.7813 582.8594,423.7813 C580.8125,423.7813 579.5156,422.6875 579.5156,420.9844 L579.5156,419.8906 C579.5156,418.1094 580.7656,416.7969 582.5,416.7969 C583.0781,416.7969 583.6875,416.9531 584.1563,417.2031 C584.6406,417.4844 584.8125,417.7031 584.9063,418.1094 C584.9688,418.5156 585,418.6406 585.1406,418.7656 C585.2813,418.9063 585.5156,419.0156 585.7344,419.0156 C586,419.0156 586.2656,418.875 586.4375,418.6563 C586.5469,418.5 586.5781,418.3125 586.5781,417.8906 L586.5781,416.4688 C586.5781,416.0313 586.5625,415.9063 586.4688,415.75 C586.3125,415.4844 586.0313,415.3438 585.7344,415.3438 C585.4375,415.3438 585.2344,415.4375 585.0156,415.75 L584.8438,415.6719 Z " fill="#000000"/><text fill="#000000" font-family="sans-serif" font-size="14" lengthAdjust="spacing" textLength="223" x="596.5" y="424.8467">GingerbreadPurgeableDecoder</text><line style="stroke:#181818;stroke-width:0.5;" x1="568.5" x2="821.5" y1="436" y2="436"/><line style="stroke:#181818;stroke-width:0.5;" x1="568.5" x2="821.5" y1="444" y2="444"/></g><!--class KitKatPurgeableDecoder--><g id="elem_KitKatPurgeableDecoder"><rect fill="#F1F1F1" height="48" id="KitKatPurgeableDecoder" rx="2.5" ry="2.5" style="stroke:#181818;stroke-width:0.5;" width="211" x="321.5" y="404"/><ellipse cx="336.5" cy="420" fill="#ADD1B2" rx="11" ry="11" style="stroke:#181818;stroke-width:1.0;"/><path d="M338.8438,415.6719 C337.9063,415.2344 337.3125,415.0938 336.4375,415.0938 C333.8125,415.0938 331.8125,417.1719 331.8125,419.8906 L331.8125,421.0156 C331.8125,423.5938 333.9219,425.4844 336.8125,425.4844 C338.0313,425.4844 339.1875,425.1875 339.9375,424.6406 C340.5156,424.2344 340.8438,423.7813 340.8438,423.3906 C340.8438,422.9375 340.4531,422.5469 339.9844,422.5469 C339.7656,422.5469 339.5625,422.625 339.375,422.8125 C338.9219,423.2969 338.9219,423.2969 338.7344,423.3906 C338.3125,423.6563 337.625,423.7813 336.8594,423.7813 C334.8125,423.7813 333.5156,422.6875 333.5156,420.9844 L333.5156,419.8906 C333.5156,418.1094 334.7656,416.7969 336.5,416.7969 C337.0781,416.7969 337.6875,416.9531 338.1563,417.2031 C338.6406,417.4844 338.8125,417.7031 338.9063,418.1094 C338.9688,418.5156 339,418.6406 339.1406,418.7656 C339.2813,418.9063 339.5156,419.0156 339.7344,419.0156 C340,419.0156 340.2656,418.875 340.4375,418.6563 C340.5469,418.5 340.5781,418.3125 340.5781,417.8906 L340.5781,416.4688 C340.5781,416.0313 340.5625,415.9063 340.4688,415.75 C340.3125,415.4844 340.0313,415.3438 339.7344,415.3438 C339.4375,415.3438 339.2344,415.4375 339.0156,415.75 L338.8438,415.6719 Z " fill="#000000"/><text fill="#000000" font-family="sans-serif" font-size="14" lengthAdjust="spacing" textLength="179" x="350.5" y="424.8467">KitKatPurgeableDecoder</text><line style="stroke:#181818;stroke-width:0.5;" x1="322.5" x2="531.5" y1="436" y2="436"/><line style="stroke:#181818;stroke-width:0.5;" x1="322.5" x2="531.5" y1="444" y2="444"/></g><!--class DalvikPurgeableDecoder--><g id="elem_DalvikPurgeableDecoder"><rect codeLine="23" fill="#F1F1F1" height="48" id="DalvikPurgeableDecoder" rx="2.5" ry="2.5" style="stroke:#181818;stroke-width:0.5;" width="209" x="402.5" y="296"/><ellipse cx="417.5" cy="312" fill="#A9DCDF" rx="11" ry="11" style="stroke:#181818;stroke-width:1.0;"/><path d="M419.5781,313.8125 L419.9688,314.7969 L419.5781,314.7969 C419.125,314.7969 419.0156,314.8125 418.8594,314.9219 C418.6094,315.0781 418.4531,315.3594 418.4531,315.6563 C418.4531,315.9219 418.5938,316.1719 418.8125,316.3281 C418.9531,316.4531 419.1563,316.5 419.5781,316.5 L421.9375,316.5 C422.2969,316.5 422.5156,316.4688 422.6563,316.375 C422.9063,316.2344 423.0625,315.9375 423.0625,315.6563 C423.0625,315.375 422.9219,315.125 422.7031,314.9688 C422.5313,314.8281 422.375,314.7969 421.9063,314.7969 L418.5156,306.5938 L414.8438,306.5938 C414.3906,306.5938 414.2656,306.6094 414.1094,306.7031 C413.8594,306.875 413.7031,307.1563 413.7031,307.4375 C413.7031,307.7188 413.8438,307.9688 414.0625,308.1406 C414.2344,308.25 414.4063,308.2813 414.8438,308.2813 L415.9219,308.2813 L413.2813,314.7969 C412.8594,314.7969 412.7031,314.8125 412.5469,314.9219 C412.2969,315.0781 412.1406,315.3594 412.1406,315.6563 C412.1406,316.2188 412.5156,316.5 413.2656,316.5 L415.5313,316.5 C415.8906,316.5 416.1094,316.4688 416.2344,316.375 C416.5,316.2344 416.6406,315.9375 416.6406,315.6563 C416.6406,315.375 416.5156,315.125 416.2969,314.9531 C416.125,314.8281 415.9844,314.7969 415.5313,314.7969 L415.1406,314.7969 L415.5313,313.8125 L419.5781,313.8125 Z M418.875,312.1094 L416.2031,312.1094 L417.5469,308.8438 L418.875,312.1094 Z " fill="#000000"/><text fill="#000000" font-family="sans-serif" font-size="14" font-style="italic" lengthAdjust="spacing" textLength="177" x="431.5" y="316.8467">DalvikPurgeableDecoder</text><line style="stroke:#181818;stroke-width:0.5;" x1="403.5" x2="610.5" y1="328" y2="328"/><line style="stroke:#181818;stroke-width:0.5;" x1="403.5" x2="610.5" y1="336" y2="336"/></g><!--class BitmapPool--><g id="elem_BitmapPool"><rect fill="#F1F1F1" height="48" id="BitmapPool" rx="2.5" ry="2.5" style="stroke:#181818;stroke-width:0.5;" width="116" x="251" y="296"/><ellipse cx="266" cy="312" fill="#ADD1B2" rx="11" ry="11" style="stroke:#181818;stroke-width:1.0;"/><path d="M268.3438,307.6719 C267.4063,307.2344 266.8125,307.0938 265.9375,307.0938 C263.3125,307.0938 261.3125,309.1719 261.3125,311.8906 L261.3125,313.0156 C261.3125,315.5938 263.4219,317.4844 266.3125,317.4844 C267.5313,317.4844 268.6875,317.1875 269.4375,316.6406 C270.0156,316.2344 270.3438,315.7813 270.3438,315.3906 C270.3438,314.9375 269.9531,314.5469 269.4844,314.5469 C269.2656,314.5469 269.0625,314.625 268.875,314.8125 C268.4219,315.2969 268.4219,315.2969 268.2344,315.3906 C267.8125,315.6563 267.125,315.7813 266.3594,315.7813 C264.3125,315.7813 263.0156,314.6875 263.0156,312.9844 L263.0156,311.8906 C263.0156,310.1094 264.2656,308.7969 266,308.7969 C266.5781,308.7969 267.1875,308.9531 267.6563,309.2031 C268.1406,309.4844 268.3125,309.7031 268.4063,310.1094 C268.4688,310.5156 268.5,310.6406 268.6406,310.7656 C268.7813,310.9063 269.0156,311.0156 269.2344,311.0156 C269.5,311.0156 269.7656,310.875 269.9375,310.6563 C270.0469,310.5 270.0781,310.3125 270.0781,309.8906 L270.0781,308.4688 C270.0781,308.0313 270.0625,307.9063 269.9688,307.75 C269.8125,307.4844 269.5313,307.3438 269.2344,307.3438 C268.9375,307.3438 268.7344,307.4375 268.5156,307.75 L268.3438,307.6719 Z " fill="#000000"/><text fill="#000000" font-family="sans-serif" font-size="14" lengthAdjust="spacing" textLength="84" x="280" y="316.8467">BitmapPool</text><line style="stroke:#181818;stroke-width:0.5;" x1="252" x2="366" y1="328" y2="328"/><line style="stroke:#181818;stroke-width:0.5;" x1="252" x2="366" y1="336" y2="336"/></g><!--reverse link ImageDecoder to DefaultImageDecoder--><g id="link_ImageDecoder_DefaultImageDecoder"><path codeLine="2" d="M599,73.212 C599,89.38 599,93.724 599,114.707 " fill="none" id="ImageDecoder-backto-DefaultImageDecoder" style="stroke:#181818;stroke-width:1.0;"/><polygon fill="none" points="599,55.212,593,73.212,605,73.212,599,55.212" style="stroke:#181818;stroke-width:1.0;"/></g><!--link PlatformDecoder to DefaultImageDecoder--><g id="link_PlatformDecoder_DefaultImageDecoder"><path codeLine="15" d="M401.536,192.152 C415.581,194.15 418.182,195.5 432,195.5 " fill="none" id="PlatformDecoder-to-DefaultImageDecoder" style="stroke:#181818;stroke-width:1.0;"/><polygon fill="#181818" points="444,195.5,438,191.5,432,195.5,438,199.5,444,195.5" style="stroke:#181818;stroke-width:1.0;"/></g><!--reverse link PlatformDecoder to DefaultDecoder--><g id="link_PlatformDecoder_DefaultDecoder"><path codeLine="16" d="M281.1804,210.8088 C247.3364,237.3078 206.473,269.303 172.634,295.798 " fill="none" id="PlatformDecoder-backto-DefaultDecoder" style="stroke:#181818;stroke-width:1.0;"/><polygon fill="none" points="295.353,199.712,277.4815,206.0846,284.8794,215.533,295.353,199.712" style="stroke:#181818;stroke-width:1.0;"/></g><!--reverse link DefaultDecoder to OreoDecoder--><g id="link_DefaultDecoder_OreoDecoder"><path codeLine="17" d="M170.8983,358.4327 C184.0583,376.0907 191.399,385.941 204.619,403.678 " fill="none" id="DefaultDecoder-backto-OreoDecoder" style="stroke:#181818;stroke-width:1.0;"/><polygon fill="none" points="160.142,344,166.0874,362.0181,175.7092,354.8473,160.142,344" style="stroke:#181818;stroke-width:1.0;"/></g><!--reverse link DefaultDecoder to ArtDecoder--><g id="link_DefaultDecoder_ArtDecoder"><path codeLine="18" d="M115.4071,358.4981 C102.4141,376.1561 95.2134,385.941 82.1612,403.678 " fill="none" id="DefaultDecoder-backto-ArtDecoder" style="stroke:#181818;stroke-width:1.0;"/><polygon fill="none" points="126.075,344,110.5744,354.9421,120.2398,362.0541,126.075,344" style="stroke:#181818;stroke-width:1.0;"/></g><!--reverse link OreoDecoder to PlatformDecoderFactory--><g id="link_OreoDecoder_PlatformDecoderFactory"><path codeLine="19" d="M248.2923,456.3234 C265.2843,473.9818 284.49,493.9408 301.558,511.6784 " fill="none" id="OreoDecoder-backto-PlatformDecoderFactory" style="stroke:#181818;stroke-width:1.0;"/><polygon fill="#181818" points="244.132,452,247.4901,461.2587,247.5989,455.6029,253.2547,455.7116,244.132,452" style="stroke:#181818;stroke-width:1.0;"/></g><!--reverse link ArtDecoder to PlatformDecoderFactory--><g id="link_ArtDecoder_PlatformDecoderFactory"><path codeLine="20" d="M126.7519,454.2727 C170.0459,471.992 224.085,494.1083 267.464,511.8617 " fill="none" id="ArtDecoder-backto-PlatformDecoderFactory" style="stroke:#181818;stroke-width:1.0;"/><polygon fill="#181818" points="121.199,452,128.0132,459.111,125.8264,453.8939,131.0435,451.7071,121.199,452" style="stroke:#181818;stroke-width:1.0;"/></g><!--reverse link GingerbreadPurgeableDecoder to PlatformDecoderFactory--><g id="link_GingerbreadPurgeableDecoder_PlatformDecoderFactory"><path codeLine="21" d="M608.7299,453.6484 C546.6069,471.3981 466.827,494.1922 404.664,511.9531 " fill="none" id="GingerbreadPurgeableDecoder-backto-PlatformDecoderFactory" style="stroke:#181818;stroke-width:1.0;"/><polygon fill="#181818" points="614.499,452,604.7464,450.6264,609.6914,453.3736,606.9442,458.3186,614.499,452" style="stroke:#181818;stroke-width:1.0;"/></g><!--reverse link KitKatPurgeableDecoder to PlatformDecoderFactory--><g id="link_KitKatPurgeableDecoder_PlatformDecoderFactory"><path codeLine="22" d="M400.4696,456.3031 C383.3106,473.9615 363.897,493.9408 346.662,511.6784 " fill="none" id="KitKatPurgeableDecoder-backto-PlatformDecoderFactory" style="stroke:#181818;stroke-width:1.0;"/><polygon fill="#181818" points="404.651,452,395.5103,455.667,401.1665,455.5859,401.2477,461.2421,404.651,452" style="stroke:#181818;stroke-width:1.0;"/></g><!--reverse link PlatformDecoder to DalvikPurgeableDecoder--><g id="link_PlatformDecoder_DalvikPurgeableDecoder"><path codeLine="24" d="M368.8196,210.8088 C402.6636,237.3078 443.527,269.303 477.366,295.798 " fill="none" id="PlatformDecoder-backto-DalvikPurgeableDecoder" style="stroke:#181818;stroke-width:1.0;"/><polygon fill="none" points="354.647,199.712,365.1206,215.533,372.5185,206.0846,354.647,199.712" style="stroke:#181818;stroke-width:1.0;"/></g><!--reverse link DalvikPurgeableDecoder to GingerbreadPurgeableDecoder--><g id="link_DalvikPurgeableDecoder_GingerbreadPurgeableDecoder"><path codeLine="25" d="M563.4724,352.8406 C594.8984,370.5596 622.475,386.108 653.962,403.862 " fill="none" id="DalvikPurgeableDecoder-backto-GingerbreadPurgeableDecoder" style="stroke:#181818;stroke-width:1.0;"/><polygon fill="none" points="547.793,344,560.5256,358.067,566.4193,347.6141,547.793,344" style="stroke:#181818;stroke-width:1.0;"/></g><!--reverse link DalvikPurgeableDecoder to KitKatPurgeableDecoder--><g id="link_DalvikPurgeableDecoder_KitKatPurgeableDecoder"><path codeLine="26" d="M478.7976,358.3673 C465.4706,376.0253 457.988,385.941 444.601,403.678 " fill="none" id="DalvikPurgeableDecoder-backto-KitKatPurgeableDecoder" style="stroke:#181818;stroke-width:1.0;"/><polygon fill="none" points="489.641,344,474.0085,354.7528,483.5867,361.9818,489.641,344" style="stroke:#181818;stroke-width:1.0;"/></g><!--reverse link DefaultDecoder to BitmapPool--><g id="link_DefaultDecoder_BitmapPool"><path codeLine="27" d="M227.625,320 C239.297,320 238.969,320 250.641,320 " fill="none" id="DefaultDecoder-backto-BitmapPool" style="stroke:#181818;stroke-width:1.0;"/><polygon fill="#181818" points="215.625,320,221.625,324,227.625,320,221.625,316,215.625,320" style="stroke:#181818;stroke-width:1.0;"/></g><!--SRC=[ZP71IiD048RlUOez5_O5YWYLOf4UpCtp99cDYvjisKm4KK4GbQBY0tZfKI-2Hp7uDatfgQzWYqr9jaditdRc-__vTrR6X4Q0Z-meWX3xwEi0ZLE-iBqhpbaV1QIAAfIl84dgEkpIOSjJAKMzM4P060oaA0oQeHFqt3BbAY2XJRG1hKADrJfN0LmxiIPaHeQdnBIeYztjsgALw_J-RdxxDllyNcHF-UGhV_wOllxCnW_v99jcB_ERSVxuNl0O1smrnd7aPh5sKl0ICk0JgwolwDR7if_VuGe5yIrlcoj_dJMXWXmRr6tzdg664OVBbsXpmNWwuliLdrPmLyE1Z4Cqda48tDI429x2dOH3IKEWBOszV53dykm_v_KQwzdwyf-aBNsRhY6yzJCTpWuaHJ1ojLQ_]--></g></svg>