<?xml version="1.0" encoding="us-ascii" standalone="no"?><svg xmlns="http://www.w3.org/2000/svg" xmlns:xlink="http://www.w3.org/1999/xlink" contentStyleType="text/css" height="563px" preserveAspectRatio="none" style="width:813px;height:563px;background:#FFFFFF;" version="1.1" viewBox="0 0 813 563" width="813px" zoomAndPan="magnify"><defs/><g><!--class DiskCacheWriteProducer--><g id="elem_DiskCacheWriteProducer"><rect codeLine="1" fill="#F1F1F1" height="80.5938" id="DiskCacheWriteProducer" rx="2.5" ry="2.5" style="stroke:#181818;stroke-width:0.5;" width="247" x="7" y="7"/><ellipse cx="38.2" cy="23" fill="#ADD1B2" rx="11" ry="11" style="stroke:#181818;stroke-width:1.0;"/><path d="M40.5438,18.6719 C39.6063,18.2344 39.0125,18.0938 38.1375,18.0938 C35.5125,18.0938 33.5125,20.1719 33.5125,22.8906 L33.5125,24.0156 C33.5125,26.5938 35.6219,28.4844 38.5125,28.4844 C39.7313,28.4844 40.8875,28.1875 41.6375,27.6406 C42.2156,27.2344 42.5438,26.7813 42.5438,26.3906 C42.5438,25.9375 42.1531,25.5469 41.6844,25.5469 C41.4656,25.5469 41.2625,25.625 41.075,25.8125 C40.6219,26.2969 40.6219,26.2969 40.4344,26.3906 C40.0125,26.6563 39.325,26.7813 38.5594,26.7813 C36.5125,26.7813 35.2156,25.6875 35.2156,23.9844 L35.2156,22.8906 C35.2156,21.1094 36.4656,19.7969 38.2,19.7969 C38.7781,19.7969 39.3875,19.9531 39.8563,20.2031 C40.3406,20.4844 40.5125,20.7031 40.6063,21.1094 C40.6688,21.5156 40.7,21.6406 40.8406,21.7656 C40.9813,21.9063 41.2156,22.0156 41.4344,22.0156 C41.7,22.0156 41.9656,21.875 42.1375,21.6563 C42.2469,21.5 42.2781,21.3125 42.2781,20.8906 L42.2781,19.4688 C42.2781,19.0313 42.2625,18.9063 42.1688,18.75 C42.0125,18.4844 41.7313,18.3438 41.4344,18.3438 C41.1375,18.3438 40.9344,18.4375 40.7156,18.75 L40.5438,18.6719 Z " fill="#000000"/><text fill="#000000" font-family="sans-serif" font-size="14" lengthAdjust="spacing" textLength="179" x="55.8" y="27.8467">DiskCacheWriteProducer</text><line style="stroke:#181818;stroke-width:0.5;" x1="8" x2="253" y1="39" y2="39"/><text fill="#000000" font-family="sans-serif" font-size="14" lengthAdjust="spacing" textLength="205" x="13" y="55.9951">mDefaultBufferedDiskCache</text><text fill="#000000" font-family="sans-serif" font-size="14" lengthAdjust="spacing" textLength="235" x="13" y="72.292">mSmallImageBufferedDiskCache</text><line style="stroke:#181818;stroke-width:0.5;" x1="8" x2="253" y1="79.5938" y2="79.5938"/></g><!--class BufferedDiskCache--><g id="elem_BufferedDiskCache"><rect fill="#F1F1F1" height="48" id="BufferedDiskCache" rx="2.5" ry="2.5" style="stroke:#181818;stroke-width:0.5;" width="170" x="297.5" y="23"/><ellipse cx="312.5" cy="39" fill="#ADD1B2" rx="11" ry="11" style="stroke:#181818;stroke-width:1.0;"/><path d="M314.8438,34.6719 C313.9063,34.2344 313.3125,34.0938 312.4375,34.0938 C309.8125,34.0938 307.8125,36.1719 307.8125,38.8906 L307.8125,40.0156 C307.8125,42.5938 309.9219,44.4844 312.8125,44.4844 C314.0313,44.4844 315.1875,44.1875 315.9375,43.6406 C316.5156,43.2344 316.8438,42.7813 316.8438,42.3906 C316.8438,41.9375 316.4531,41.5469 315.9844,41.5469 C315.7656,41.5469 315.5625,41.625 315.375,41.8125 C314.9219,42.2969 314.9219,42.2969 314.7344,42.3906 C314.3125,42.6563 313.625,42.7813 312.8594,42.7813 C310.8125,42.7813 309.5156,41.6875 309.5156,39.9844 L309.5156,38.8906 C309.5156,37.1094 310.7656,35.7969 312.5,35.7969 C313.0781,35.7969 313.6875,35.9531 314.1563,36.2031 C314.6406,36.4844 314.8125,36.7031 314.9063,37.1094 C314.9688,37.5156 315,37.6406 315.1406,37.7656 C315.2813,37.9063 315.5156,38.0156 315.7344,38.0156 C316,38.0156 316.2656,37.875 316.4375,37.6563 C316.5469,37.5 316.5781,37.3125 316.5781,36.8906 L316.5781,35.4688 C316.5781,35.0313 316.5625,34.9063 316.4688,34.75 C316.3125,34.4844 316.0313,34.3438 315.7344,34.3438 C315.4375,34.3438 315.2344,34.4375 315.0156,34.75 L314.8438,34.6719 Z " fill="#000000"/><text fill="#000000" font-family="sans-serif" font-size="14" lengthAdjust="spacing" textLength="138" x="326.5" y="43.8467">BufferedDiskCache</text><line style="stroke:#181818;stroke-width:0.5;" x1="298.5" x2="466.5" y1="55" y2="55"/><line style="stroke:#181818;stroke-width:0.5;" x1="298.5" x2="466.5" y1="63" y2="63"/></g><!--class StagingArea--><g id="elem_StagingArea"><rect codeLine="8" fill="#F1F1F1" height="64.2969" id="StagingArea" rx="2.5" ry="2.5" style="stroke:#181818;stroke-width:0.5;" width="297" x="32" y="159.5"/><ellipse cx="132.25" cy="175.5" fill="#ADD1B2" rx="11" ry="11" style="stroke:#181818;stroke-width:1.0;"/><path d="M134.5938,171.1719 C133.6563,170.7344 133.0625,170.5938 132.1875,170.5938 C129.5625,170.5938 127.5625,172.6719 127.5625,175.3906 L127.5625,176.5156 C127.5625,179.0938 129.6719,180.9844 132.5625,180.9844 C133.7813,180.9844 134.9375,180.6875 135.6875,180.1406 C136.2656,179.7344 136.5938,179.2813 136.5938,178.8906 C136.5938,178.4375 136.2031,178.0469 135.7344,178.0469 C135.5156,178.0469 135.3125,178.125 135.125,178.3125 C134.6719,178.7969 134.6719,178.7969 134.4844,178.8906 C134.0625,179.1563 133.375,179.2813 132.6094,179.2813 C130.5625,179.2813 129.2656,178.1875 129.2656,176.4844 L129.2656,175.3906 C129.2656,173.6094 130.5156,172.2969 132.25,172.2969 C132.8281,172.2969 133.4375,172.4531 133.9063,172.7031 C134.3906,172.9844 134.5625,173.2031 134.6563,173.6094 C134.7188,174.0156 134.75,174.1406 134.8906,174.2656 C135.0313,174.4063 135.2656,174.5156 135.4844,174.5156 C135.75,174.5156 136.0156,174.375 136.1875,174.1563 C136.2969,174 136.3281,173.8125 136.3281,173.3906 L136.3281,171.9688 C136.3281,171.5313 136.3125,171.4063 136.2188,171.25 C136.0625,170.9844 135.7813,170.8438 135.4844,170.8438 C135.1875,170.8438 134.9844,170.9375 134.7656,171.25 L134.5938,171.1719 Z " fill="#000000"/><text fill="#000000" font-family="sans-serif" font-size="14" lengthAdjust="spacing" textLength="88" x="152.75" y="180.3467">StagingArea</text><line style="stroke:#181818;stroke-width:0.5;" x1="33" x2="328" y1="191.5" y2="191.5"/><text fill="#000000" font-family="sans-serif" font-size="14" lengthAdjust="spacing" textLength="285" x="38" y="208.4951">Map&lt;CacheKey, EncodedImage&gt; mMap</text><line style="stroke:#181818;stroke-width:0.5;" x1="33" x2="328" y1="215.7969" y2="215.7969"/></g><!--class FileCache--><g id="elem_FileCache"><rect codeLine="11" fill="#F1F1F1" height="80.5938" id="FileCache" rx="2.5" ry="2.5" style="stroke:#181818;stroke-width:0.5;" width="442" x="364.5" y="151"/><ellipse cx="546.25" cy="167" fill="#B4A7E5" rx="11" ry="11" style="stroke:#181818;stroke-width:1.0;"/><path d="M547.2031,163.7813 L548.9219,163.7813 C549.3125,163.7813 549.5,163.75 549.625,163.6719 C549.8906,163.5156 550.0313,163.2344 550.0313,162.9375 C550.0313,162.6719 549.9219,162.4063 549.6875,162.2344 C549.5156,162.125 549.375,162.0938 548.9219,162.0938 L543.7813,162.0938 C543.3438,162.0938 543.2188,162.1094 543.0625,162.2031 C542.8125,162.3594 542.6563,162.6563 542.6563,162.9375 C542.6563,163.2188 542.7969,163.4688 543.0156,163.6406 C543.1719,163.75 543.3594,163.7813 543.7813,163.7813 L545.5,163.7813 L545.5,170.2969 L543.7813,170.2969 C543.3438,170.2969 543.2188,170.3125 543.0625,170.4219 C542.8125,170.5781 542.6563,170.8594 542.6563,171.1563 C542.6563,171.4063 542.7969,171.6719 543.0156,171.8281 C543.1719,171.9531 543.375,172 543.7813,172 L548.9219,172 C549.6719,172 550.0313,171.7188 550.0313,171.1563 C550.0313,170.875 549.9219,170.625 549.6875,170.4531 C549.5156,170.3281 549.375,170.2969 548.9219,170.2969 L547.2031,170.2969 L547.2031,163.7813 Z " fill="#000000"/><text fill="#000000" font-family="sans-serif" font-size="14" font-style="italic" lengthAdjust="spacing" textLength="70" x="566.75" y="171.8467">FileCache</text><line style="stroke:#181818;stroke-width:0.5;" x1="365.5" x2="805.5" y1="183" y2="183"/><line style="stroke:#181818;stroke-width:0.5;" x1="365.5" x2="805.5" y1="191" y2="191"/><text fill="#000000" font-family="sans-serif" font-size="14" lengthAdjust="spacing" textLength="317" x="370.5" y="207.9951">BinaryResource getResource(CacheKey key)</text><text fill="#000000" font-family="sans-serif" font-size="14" lengthAdjust="spacing" textLength="430" x="370.5" y="224.292">BinaryResource insert(CacheKey key, WriterCallback writer)</text></g><!--class DiskStorageCache--><g id="elem_DiskStorageCache"><rect fill="#F1F1F1" height="48" id="DiskStorageCache" rx="2.5" ry="2.5" style="stroke:#181818;stroke-width:0.5;" width="164" x="503.5" y="292"/><ellipse cx="518.5" cy="308" fill="#ADD1B2" rx="11" ry="11" style="stroke:#181818;stroke-width:1.0;"/><path d="M520.8438,303.6719 C519.9063,303.2344 519.3125,303.0938 518.4375,303.0938 C515.8125,303.0938 513.8125,305.1719 513.8125,307.8906 L513.8125,309.0156 C513.8125,311.5938 515.9219,313.4844 518.8125,313.4844 C520.0313,313.4844 521.1875,313.1875 521.9375,312.6406 C522.5156,312.2344 522.8438,311.7813 522.8438,311.3906 C522.8438,310.9375 522.4531,310.5469 521.9844,310.5469 C521.7656,310.5469 521.5625,310.625 521.375,310.8125 C520.9219,311.2969 520.9219,311.2969 520.7344,311.3906 C520.3125,311.6563 519.625,311.7813 518.8594,311.7813 C516.8125,311.7813 515.5156,310.6875 515.5156,308.9844 L515.5156,307.8906 C515.5156,306.1094 516.7656,304.7969 518.5,304.7969 C519.0781,304.7969 519.6875,304.9531 520.1563,305.2031 C520.6406,305.4844 520.8125,305.7031 520.9063,306.1094 C520.9688,306.5156 521,306.6406 521.1406,306.7656 C521.2813,306.9063 521.5156,307.0156 521.7344,307.0156 C522,307.0156 522.2656,306.875 522.4375,306.6563 C522.5469,306.5 522.5781,306.3125 522.5781,305.8906 L522.5781,304.4688 C522.5781,304.0313 522.5625,303.9063 522.4688,303.75 C522.3125,303.4844 522.0313,303.3438 521.7344,303.3438 C521.4375,303.3438 521.2344,303.4375 521.0156,303.75 L520.8438,303.6719 Z " fill="#000000"/><text fill="#000000" font-family="sans-serif" font-size="14" lengthAdjust="spacing" textLength="132" x="532.5" y="312.8467">DiskStorageCache</text><line style="stroke:#181818;stroke-width:0.5;" x1="504.5" x2="666.5" y1="324" y2="324"/><line style="stroke:#181818;stroke-width:0.5;" x1="504.5" x2="666.5" y1="332" y2="332"/></g><!--class DiskStorage--><g id="elem_DiskStorage"><rect codeLine="16" fill="#F1F1F1" height="48" id="DiskStorage" rx="2.5" ry="2.5" style="stroke:#181818;stroke-width:0.5;" width="118" x="526.5" y="400"/><ellipse cx="541.5" cy="416" fill="#B4A7E5" rx="11" ry="11" style="stroke:#181818;stroke-width:1.0;"/><path d="M542.4531,412.7813 L544.1719,412.7813 C544.5625,412.7813 544.75,412.75 544.875,412.6719 C545.1406,412.5156 545.2813,412.2344 545.2813,411.9375 C545.2813,411.6719 545.1719,411.4063 544.9375,411.2344 C544.7656,411.125 544.625,411.0938 544.1719,411.0938 L539.0313,411.0938 C538.5938,411.0938 538.4688,411.1094 538.3125,411.2031 C538.0625,411.3594 537.9063,411.6563 537.9063,411.9375 C537.9063,412.2188 538.0469,412.4688 538.2656,412.6406 C538.4219,412.75 538.6094,412.7813 539.0313,412.7813 L540.75,412.7813 L540.75,419.2969 L539.0313,419.2969 C538.5938,419.2969 538.4688,419.3125 538.3125,419.4219 C538.0625,419.5781 537.9063,419.8594 537.9063,420.1563 C537.9063,420.4063 538.0469,420.6719 538.2656,420.8281 C538.4219,420.9531 538.625,421 539.0313,421 L544.1719,421 C544.9219,421 545.2813,420.7188 545.2813,420.1563 C545.2813,419.875 545.1719,419.625 544.9375,419.4531 C544.7656,419.3281 544.625,419.2969 544.1719,419.2969 L542.4531,419.2969 L542.4531,412.7813 Z " fill="#000000"/><text fill="#000000" font-family="sans-serif" font-size="14" font-style="italic" lengthAdjust="spacing" textLength="86" x="555.5" y="420.8467">DiskStorage</text><line style="stroke:#181818;stroke-width:0.5;" x1="527.5" x2="643.5" y1="432" y2="432"/><line style="stroke:#181818;stroke-width:0.5;" x1="527.5" x2="643.5" y1="440" y2="440"/></g><!--class DynamicDefaultDiskStorage--><g id="elem_DynamicDefaultDiskStorage"><rect fill="#F1F1F1" height="48" id="DynamicDefaultDiskStorage" rx="2.5" ry="2.5" style="stroke:#181818;stroke-width:0.5;" width="235" x="468" y="508"/><ellipse cx="483" cy="524" fill="#ADD1B2" rx="11" ry="11" style="stroke:#181818;stroke-width:1.0;"/><path d="M485.3438,519.6719 C484.4063,519.2344 483.8125,519.0938 482.9375,519.0938 C480.3125,519.0938 478.3125,521.1719 478.3125,523.8906 L478.3125,525.0156 C478.3125,527.5938 480.4219,529.4844 483.3125,529.4844 C484.5313,529.4844 485.6875,529.1875 486.4375,528.6406 C487.0156,528.2344 487.3438,527.7813 487.3438,527.3906 C487.3438,526.9375 486.9531,526.5469 486.4844,526.5469 C486.2656,526.5469 486.0625,526.625 485.875,526.8125 C485.4219,527.2969 485.4219,527.2969 485.2344,527.3906 C484.8125,527.6563 484.125,527.7813 483.3594,527.7813 C481.3125,527.7813 480.0156,526.6875 480.0156,524.9844 L480.0156,523.8906 C480.0156,522.1094 481.2656,520.7969 483,520.7969 C483.5781,520.7969 484.1875,520.9531 484.6563,521.2031 C485.1406,521.4844 485.3125,521.7031 485.4063,522.1094 C485.4688,522.5156 485.5,522.6406 485.6406,522.7656 C485.7813,522.9063 486.0156,523.0156 486.2344,523.0156 C486.5,523.0156 486.7656,522.875 486.9375,522.6563 C487.0469,522.5 487.0781,522.3125 487.0781,521.8906 L487.0781,520.4688 C487.0781,520.0313 487.0625,519.9063 486.9688,519.75 C486.8125,519.4844 486.5313,519.3438 486.2344,519.3438 C485.9375,519.3438 485.7344,519.4375 485.5156,519.75 L485.3438,519.6719 Z " fill="#000000"/><text fill="#000000" font-family="sans-serif" font-size="14" lengthAdjust="spacing" textLength="203" x="497" y="528.8467">DynamicDefaultDiskStorage</text><line style="stroke:#181818;stroke-width:0.5;" x1="469" x2="702" y1="540" y2="540"/><line style="stroke:#181818;stroke-width:0.5;" x1="469" x2="702" y1="548" y2="548"/></g><!--reverse link DiskCacheWriteProducer to BufferedDiskCache--><g id="link_DiskCacheWriteProducer_BufferedDiskCache"><path codeLine="5" d="M267.5,51 C281.069,51 283.457,50.765 297.47,50.41 " fill="none" id="DiskCacheWriteProducer-backto-BufferedDiskCache" style="stroke:#181818;stroke-width:1.0;"/><polygon fill="#181818" points="255.5,51,261.5,55,267.5,51,261.5,47,255.5,51" style="stroke:#181818;stroke-width:1.0;"/></g><!--reverse link DiskCacheWriteProducer to BufferedDiskCache--><g id="link_DiskCacheWriteProducer_BufferedDiskCache"><path codeLine="6" d="M267.5,67 C281.122,67 283.47,65.846 297.41,64.092 " fill="none" id="DiskCacheWriteProducer-backto-BufferedDiskCache-1" style="stroke:#181818;stroke-width:1.0;"/><polygon fill="#181818" points="255.5,67,261.5,71,267.5,67,261.5,63,255.5,67" style="stroke:#181818;stroke-width:1.0;"/></g><!--reverse link BufferedDiskCache to StagingArea--><g id="link_BufferedDiskCache_StagingArea"><path codeLine="7" d="M339.7903,78.1293 C305.8043,102.1043 262.369,132.746 224.72,159.305 " fill="none" id="BufferedDiskCache-backto-StagingArea" style="stroke:#181818;stroke-width:1.0;"/><polygon fill="#181818" points="349.596,71.212,342.3874,71.4021,339.7903,78.1293,346.9989,77.9392,349.596,71.212" style="stroke:#181818;stroke-width:1.0;"/></g><!--reverse link FileCache to DiskStorageCache--><g id="link_FileCache_DiskStorageCache"><path codeLine="15" d="M585.5,250.272 C585.5,269.973 585.5,275.069 585.5,291.843 " fill="none" id="FileCache-backto-DiskStorageCache" style="stroke:#181818;stroke-width:1.0;"/><polygon fill="none" points="585.5,232.272,579.5,250.272,591.5,250.272,585.5,232.272" style="stroke:#181818;stroke-width:1.0;"/></g><!--reverse link DiskStorage to DynamicDefaultDiskStorage--><g id="link_DiskStorage_DynamicDefaultDiskStorage"><path codeLine="17" d="M585.5,466 C585.5,483.6584 585.5,489.9408 585.5,507.6784 " fill="none" id="DiskStorage-backto-DynamicDefaultDiskStorage" style="stroke:#181818;stroke-width:1.0;"/><polygon fill="none" points="585.5,448,579.5,466,591.5,466,585.5,448" style="stroke:#181818;stroke-width:1.0;"/></g><!--reverse link BufferedDiskCache to FileCache--><g id="link_BufferedDiskCache_FileCache"><path codeLine="18" d="M425.3887,78.1065 C456.0597,99.6365 492.514,125.227 529.034,150.863 " fill="none" id="BufferedDiskCache-backto-FileCache" style="stroke:#181818;stroke-width:1.0;"/><polygon fill="#181818" points="415.567,71.212,418.1797,77.9332,425.3887,78.1065,422.776,71.3853,415.567,71.212" style="stroke:#181818;stroke-width:1.0;"/></g><!--reverse link DiskStorageCache to DiskStorage--><g id="link_DiskStorageCache_DiskStorage"><path codeLine="19" d="M585.5,352 C585.5,369.658 585.5,381.941 585.5,399.678 " fill="none" id="DiskStorageCache-backto-DiskStorage" style="stroke:#181818;stroke-width:1.0;"/><polygon fill="#181818" points="585.5,340,581.5,346,585.5,352,589.5,346,585.5,340" style="stroke:#181818;stroke-width:1.0;"/></g><!--SRC=[VL51Ri8m4Bpx5Nii5Nm08QG2hLHLIAWvzBnrDgaLswdMZge8-7jT9u1RJ7soTsPdTiTIetEmKQvPe_oWDrQUTjoMdII6lO1mp8OgxBHVTLL5JEMPFA25GQsV3TPqJJYAlF9yVbCKxcTmBNHJvX_tl5AEDeF2Owri_S24GiP8aigOmnO_5x7ZXVefF5hPbbH6woMO08PjbVN45Kg29wLfa1-QLyeYzw_aseu3N9C_tUzEcj1GFycHbNN4_XTl2Z48NeVjtr4sy1MVap33nNbn29lzx5dubiEOGm2N6HD89FUnhxTeb1o_AQNc4ppRYh-E4KwAtm00]--></g></svg>