<?xml version="1.0" encoding="us-ascii" standalone="no"?><svg xmlns="http://www.w3.org/2000/svg" xmlns:xlink="http://www.w3.org/1999/xlink" contentStyleType="text/css" height="1556px" preserveAspectRatio="none" style="width:1034px;height:1556px;background:#FFFFFF;" version="1.1" viewBox="0 0 1034 1556" width="1034px" zoomAndPan="magnify"><defs/><g><rect fill="none" height="20.9531" style="stroke:none;stroke-width:1.0;" width="1001" x="15" y="12.7451"/><ellipse cx="115" cy="48.6982" fill="#222222" rx="10" ry="10" style="stroke:#222222;stroke-width:1.0;"/><polygon fill="#F1F1F1" points="30,78.6982,200,78.6982,210,95.6826,200,112.667,30,112.667" style="stroke:#181818;stroke-width:0.5;"/><text fill="#000000" font-family="sans-serif" font-size="12" lengthAdjust="spacing" textLength="146" x="40" y="99.8369">onActivityDestroyed&#20107;&#20214;</text><rect fill="#F1F1F1" height="33.9688" rx="12.5" ry="12.5" style="stroke:#181818;stroke-width:0.5;" width="134" x="48" y="132.667"/><text fill="#000000" font-family="sans-serif" font-size="12" lengthAdjust="spacing" textLength="114" x="58" y="153.8057">&#29983;&#25104;activity&#25551;&#36848;&#20449;&#24687;</text><line style="stroke:#000000;stroke-width:1.5;" x1="15" x2="15" y1="12.7451" y2="1544.4946"/><rect fill="#F1F1F1" height="75.875" rx="12.5" ry="12.5" style="stroke:#181818;stroke-width:0.5;" width="200" x="280" y="203.895"/><text fill="#000000" font-family="sans-serif" font-size="12" lengthAdjust="spacing" textLength="180" x="290" y="225.0337">&#28165;&#29702;&#24341;&#29992;&#34920;&#20013;&#24050;&#32463;&#34987;&#22238;&#25910;&#30340;&#23545;&#35937;&#65306;</text><text fill="#000000" font-family="sans-serif" font-size="12" lengthAdjust="spacing" textLength="174" x="290" y="239.0024">&#24490;&#29615;&#20174;ReferenceQueue&#20013;&#21462;&#20986;</text><text fill="#000000" font-family="sans-serif" font-size="12" lengthAdjust="spacing" textLength="168" x="290" y="252.9712">&#24050;&#32463;&#34987;&#22238;&#25910;&#30340;&#24341;&#29992;&#65292;&#24182;&#20174;&#24341;&#29992;&#34920;</text><text fill="#000000" font-family="sans-serif" font-size="12" lengthAdjust="spacing" textLength="36" x="290" y="266.9399">&#20013;&#21024;&#38500;</text><rect fill="#F1F1F1" height="33.9688" rx="12.5" ry="12.5" style="stroke:#181818;stroke-width:0.5;" width="209" x="275.5" y="299.77"/><text fill="#000000" font-family="sans-serif" font-size="12" lengthAdjust="spacing" textLength="189" x="285.5" y="320.9087">&#36890;&#36807;UUID.randomUUID()&#29983;&#25104;key</text><rect fill="#F1F1F1" height="89.8438" rx="12.5" ry="12.5" style="stroke:#181818;stroke-width:0.5;" width="227" x="266.5" y="353.7388"/><text fill="#000000" font-family="sans-serif" font-size="12" lengthAdjust="spacing" textLength="207" x="276.5" y="374.8774">&#26500;&#24314;&#24369;&#24341;&#29992;KeyedWeakReference&#65292;</text><text fill="#000000" font-family="sans-serif" font-size="12" lengthAdjust="spacing" textLength="198" x="276.5" y="388.8462">&#24182;&#20851;&#32852;ReferenceQueue&#65292;&#24369;&#24341;&#29992;&#25345;</text><text fill="#000000" font-family="sans-serif" font-size="12" lengthAdjust="spacing" textLength="190" x="276.5" y="402.8149">&#26377;&#30417;&#25511;&#23545;&#35937;&#12289;key&#12289;&#25551;&#36848;&#20449;&#24687;&#12289;&#30417;&#25511;</text><text fill="#000000" font-family="sans-serif" font-size="12" lengthAdjust="spacing" textLength="192" x="276.5" y="416.7837">&#26102;&#38388;&#12290;&#24403;&#30417;&#25511;&#23545;&#35937;&#34987;&#22238;&#25910;&#21518;&#65292;&#24369;&#24341;&#29992;</text><text fill="#000000" font-family="sans-serif" font-size="12" lengthAdjust="spacing" textLength="162" x="276.5" y="430.7524">&#20250;&#34987;&#28155;&#21152;&#21040;ReferenceQueue</text><rect fill="#F1F1F1" height="47.9375" rx="12.5" ry="12.5" style="stroke:#181818;stroke-width:0.5;" width="228" x="266" y="463.5825"/><text fill="#000000" font-family="sans-serif" font-size="12" lengthAdjust="spacing" textLength="160" x="276" y="484.7212">&#24369;&#24341;&#29992;&#28155;&#21152;&#21040;&#24341;&#29992;&#34920;(map)&#20013;:</text><text fill="#000000" font-family="sans-serif" font-size="12" lengthAdjust="spacing" textLength="208" x="276" y="498.6899">watchedObjects[key] = reference</text><rect fill="#F1F1F1" height="33.9688" rx="12.5" ry="12.5" style="stroke:#181818;stroke-width:0.5;" width="212" x="274" y="565.7236"/><text fill="#000000" font-family="sans-serif" font-size="12" lengthAdjust="spacing" textLength="192" x="284" y="586.8623">&#20877;&#27425;&#28165;&#29702;&#24341;&#29992;&#34920;&#20013;&#24050;&#32463;&#34987;&#22238;&#25910;&#30340;&#23545;&#35937;</text><rect fill="#F1F1F1" height="47.9375" rx="12.5" ry="12.5" style="stroke:#181818;stroke-width:0.5;" width="160" x="300" y="619.6924"/><text fill="#000000" font-family="sans-serif" font-size="12" lengthAdjust="spacing" textLength="136" x="310" y="640.8311">&#20174;&#24341;&#29992;&#34920;&#20013;&#21462;&#20986;&#30417;&#25511;&#23545;&#35937;:</text><text fill="#000000" font-family="sans-serif" font-size="12" lengthAdjust="spacing" textLength="130" x="310" y="654.7998">watchedObjects[key]</text><rect fill="#F1F1F1" height="47.9375" rx="12.5" ry="12.5" style="stroke:#181818;stroke-width:0.5;" width="142" x="309" y="748.8369"/><text fill="#000000" font-family="sans-serif" font-size="12" lengthAdjust="spacing" textLength="96" x="319" y="769.9756">&#26356;&#26032;&#27844;&#28431;&#26816;&#27979;&#26102;&#38388;</text><text fill="#000000" font-family="sans-serif" font-size="12" lengthAdjust="spacing" textLength="122" x="319" y="783.9443">retainedUptimeMillis</text><polygon fill="#F1F1F1" points="352.5,687.6299,407.5,687.6299,419.5,699.6299,407.5,711.6299,352.5,711.6299,340.5,699.6299,352.5,687.6299" style="stroke:#181818;stroke-width:0.5;"/><text fill="#000000" font-family="sans-serif" font-size="11" lengthAdjust="spacing" textLength="21" x="384" y="721.8403">yes</text><text fill="#000000" font-family="sans-serif" font-size="11" lengthAdjust="spacing" textLength="77" x="384" y="734.645">&#24341;&#29992;&#34920;&#20013;&#36824;&#23384;&#22312;</text><text fill="#000000" font-family="sans-serif" font-size="11" lengthAdjust="spacing" textLength="44" x="384" y="747.4497">&#34920;&#31034;&#27844;&#28431;</text><text fill="#000000" font-family="sans-serif" font-size="11" lengthAdjust="spacing" textLength="55" x="352.5" y="703.438">&#26159;&#21542;&#27844;&#28431;&#65311;</text><text fill="#000000" font-family="sans-serif" font-size="11" lengthAdjust="spacing" textLength="14" x="419.5" y="697.0356">no</text><ellipse cx="455.5" cy="699.6299" fill="none" rx="11" ry="11" style="stroke:#222222;stroke-width:1.0;"/><ellipse cx="455.5" cy="699.6299" fill="#222222" rx="6" ry="6" style="stroke:#222222;stroke-width:1.0;"/><rect fill="#F1F1F1" height="33.9688" rx="12.5" ry="12.5" style="stroke:#181818;stroke-width:0.5;" width="188" x="286" y="941.9712"/><text fill="#000000" font-family="sans-serif" font-size="12" lengthAdjust="spacing" textLength="168" x="296" y="963.1099">&#28165;&#29702;&#24341;&#29992;&#34920;&#20013;&#24050;&#32463;&#34987;&#22238;&#25910;&#30340;&#23545;&#35937;</text><rect fill="#F1F1F1" height="47.9375" rx="12.5" ry="12.5" style="stroke:#181818;stroke-width:0.5;" width="298" x="231" y="995.9399"/><text fill="#000000" font-family="sans-serif" font-size="12" lengthAdjust="spacing" textLength="278" x="241" y="1017.0786">&#33719;&#21462;&#27844;&#28431;&#23545;&#35937;&#25968;&#37327;&#65306;&#24341;&#29992;&#34920;&#20013;retainedUptimeMillis</text><text fill="#000000" font-family="sans-serif" font-size="12" lengthAdjust="spacing" textLength="108" x="241" y="1031.0474">&#24050;&#34987;&#26356;&#26032;&#30340;&#24341;&#29992;&#25968;&#37327;</text><line style="stroke:#000000;stroke-width:1.5;" x1="225" x2="225" y1="12.7451" y2="1544.4946"/><rect fill="#F1F1F1" height="33.9688" rx="12.5" ry="12.5" style="stroke:#181818;stroke-width:0.5;" width="137" x="561.5" y="816.7744"/><text fill="#000000" font-family="sans-serif" font-size="12" lengthAdjust="spacing" textLength="117" x="571.5" y="837.9131">onObjectRetained()</text><line style="stroke:#000000;stroke-width:1.5;" x1="533" x2="533" y1="12.7451" y2="1544.4946"/><rect fill="#F1F1F1" height="33.9688" rx="12.5" ry="12.5" style="stroke:#181818;stroke-width:0.5;" width="237" x="739.5" y="888.0024"/><text fill="#000000" font-family="sans-serif" font-size="12" lengthAdjust="spacing" textLength="217" x="749.5" y="909.1411">&#21518;&#21488;&#32447;&#31243;&#25191;&#34892;checkRetainedObjects()</text><rect fill="#F1F1F1" height="33.9688" rx="12.5" ry="12.5" style="stroke:#181818;stroke-width:0.5;" width="175" x="770.5" y="1112.2798"/><text fill="#000000" font-family="sans-serif" font-size="12" lengthAdjust="spacing" textLength="155" x="780.5" y="1133.4185">Runtime.getRuntime().gc()</text><rect fill="#F1F1F1" height="33.9688" rx="12.5" ry="12.5" style="stroke:#181818;stroke-width:0.5;" width="140" x="788" y="1181.2485"/><text fill="#000000" font-family="sans-serif" font-size="12" lengthAdjust="spacing" textLength="120" x="798" y="1202.3872">&#37325;&#26032;&#33719;&#21462;&#27844;&#28431;&#23545;&#35937;&#25968;&#37327;</text><polygon fill="#F1F1F1" points="805,1063.8774,911,1063.8774,923,1075.8774,911,1087.8774,805,1087.8774,793,1075.8774,805,1063.8774" style="stroke:#181818;stroke-width:0.5;"/><text fill="#000000" font-family="sans-serif" font-size="11" lengthAdjust="spacing" textLength="21" x="862" y="1098.0879">yes</text><text fill="#000000" font-family="sans-serif" font-size="11" lengthAdjust="spacing" textLength="106" x="805" y="1079.6855">&#27844;&#28431;&#23545;&#35937;&#25968;&#37327;&#22823;&#20110;0&#65311;</text><polygon fill="#F1F1F1" points="858,1235.2173,870,1247.2173,858,1259.2173,846,1247.2173,858,1235.2173" style="stroke:#181818;stroke-width:0.5;"/><rect fill="#F1F1F1" height="47.9375" rx="12.5" ry="12.5" style="stroke:#181818;stroke-width:0.5;" width="254" x="731" y="1327.6196"/><text fill="#000000" font-family="sans-serif" font-size="12" lengthAdjust="spacing" textLength="234" x="741" y="1348.7583">Debug.dumpHprofData(heapDumpFile)</text><text fill="#000000" font-family="sans-serif" font-size="12" lengthAdjust="spacing" textLength="84" x="741" y="1362.7271">&#20445;&#23384;&#22534;&#26632;&#21040;&#25991;&#20214;</text><rect fill="#F1F1F1" height="47.9375" rx="12.5" ry="12.5" style="stroke:#181818;stroke-width:0.5;" width="218" x="749" y="1410.5571"/><text fill="#000000" font-family="sans-serif" font-size="12" lengthAdjust="spacing" textLength="198" x="759" y="1431.6958">BackgroundThreadHeapAnalyzer</text><text fill="#000000" font-family="sans-serif" font-size="12" lengthAdjust="spacing" textLength="48" x="759" y="1445.6646">&#35299;&#26512;&#22534;&#26632;</text><polygon fill="#F1F1F1" points="779,1279.2173,937,1279.2173,949,1291.2173,937,1303.2173,779,1303.2173,767,1291.2173,779,1279.2173" style="stroke:#181818;stroke-width:0.5;"/><text fill="#000000" font-family="sans-serif" font-size="11" lengthAdjust="spacing" textLength="70" x="862" y="1313.4277">dumpHeap()</text><text fill="#000000" font-family="sans-serif" font-size="11" lengthAdjust="spacing" textLength="158" x="779" y="1295.0254">&#27844;&#28431;&#23545;&#35937;&#25968;&#37327;&#22823;&#20110;&#38408;&#20540;(&#40664;&#35748;5)&#65311;</text><text fill="#000000" font-family="sans-serif" font-size="11" lengthAdjust="spacing" textLength="14" x="949" y="1288.623">no</text><polygon fill="#F1F1F1" points="858,1478.4946,870,1490.4946,858,1502.4946,846,1490.4946,858,1478.4946" style="stroke:#181818;stroke-width:0.5;"/><ellipse cx="858" cy="1533.4946" fill="none" rx="11" ry="11" style="stroke:#222222;stroke-width:1.0;"/><ellipse cx="858" cy="1533.4946" fill="#222222" rx="6" ry="6" style="stroke:#222222;stroke-width:1.0;"/><line style="stroke:#000000;stroke-width:1.5;" x1="725" x2="725" y1="12.7451" y2="1544.4946"/><line style="stroke:#000000;stroke-width:1.5;" x1="1014" x2="1014" y1="12.7451" y2="1544.4946"/><line style="stroke:#181818;stroke-width:1.0;" x1="115" x2="115" y1="58.6982" y2="78.6982"/><polygon fill="#181818" points="111,68.6982,115,78.6982,119,68.6982,115,72.6982" style="stroke:#181818;stroke-width:1.0;"/><line style="stroke:#181818;stroke-width:1.0;" x1="115" x2="115" y1="112.667" y2="132.667"/><polygon fill="#181818" points="111,122.667,115,132.667,119,122.667,115,126.667" style="stroke:#181818;stroke-width:1.0;"/><line style="stroke:#181818;stroke-width:1.0;" x1="380" x2="380" y1="279.77" y2="299.77"/><polygon fill="#181818" points="376,289.77,380,299.77,384,289.77,380,293.77" style="stroke:#181818;stroke-width:1.0;"/><line style="stroke:#181818;stroke-width:1.0;" x1="380" x2="380" y1="333.7388" y2="353.7388"/><polygon fill="#181818" points="376,343.7388,380,353.7388,384,343.7388,380,347.7388" style="stroke:#181818;stroke-width:1.0;"/><line style="stroke:#181818;stroke-width:1.0;" x1="380" x2="380" y1="443.5825" y2="463.5825"/><polygon fill="#181818" points="376,453.5825,380,463.5825,384,453.5825,380,457.5825" style="stroke:#181818;stroke-width:1.0;"/><line style="stroke:#181818;stroke-width:1.0;" x1="380" x2="380" y1="511.52" y2="565.7236"/><polygon fill="#181818" points="376,555.7236,380,565.7236,384,555.7236,380,559.7236" style="stroke:#181818;stroke-width:1.0;"/><text fill="#000000" font-family="sans-serif" font-size="11" lengthAdjust="spacing" textLength="95" x="384" y="532.8247">&#20027;&#32447;&#31243;&#24310;&#26102;5&#31186;&#25191;&#34892;</text><text fill="#000000" font-family="sans-serif" font-size="11" lengthAdjust="spacing" textLength="106" x="384" y="545.6294">moveToRetained()</text><line style="stroke:#181818;stroke-width:1.0;" x1="380" x2="380" y1="599.6924" y2="619.6924"/><polygon fill="#181818" points="376,609.6924,380,619.6924,384,609.6924,380,613.6924" style="stroke:#181818;stroke-width:1.0;"/><line style="stroke:#181818;stroke-width:1.0;" x1="380" x2="380" y1="711.6299" y2="748.8369"/><polygon fill="#181818" points="376,738.8369,380,748.8369,384,738.8369,380,742.8369" style="stroke:#181818;stroke-width:1.0;"/><line style="stroke:#181818;stroke-width:1.0;" x1="419.5" x2="444.5" y1="699.6299" y2="699.6299"/><polygon fill="#181818" points="434.5,695.6299,444.5,699.6299,434.5,703.6299,438.5,699.6299" style="stroke:#181818;stroke-width:1.0;"/><line style="stroke:#181818;stroke-width:1.0;" x1="380" x2="380" y1="796.7744" y2="801.7744"/><line style="stroke:#181818;stroke-width:1.0;" x1="380" x2="630" y1="801.7744" y2="801.7744"/><line style="stroke:#181818;stroke-width:1.0;" x1="630" x2="630" y1="801.7744" y2="816.7744"/><polygon fill="#181818" points="626,806.7744,630,816.7744,634,806.7744,630,810.7744" style="stroke:#181818;stroke-width:1.0;"/><line style="stroke:#181818;stroke-width:1.0;" x1="380" x2="380" y1="667.6299" y2="687.6299"/><polygon fill="#181818" points="376,677.6299,380,687.6299,384,677.6299,380,681.6299" style="stroke:#181818;stroke-width:1.0;"/><line style="stroke:#181818;stroke-width:1.0;" x1="380" x2="380" y1="975.9399" y2="995.9399"/><polygon fill="#181818" points="376,985.9399,380,995.9399,384,985.9399,380,989.9399" style="stroke:#181818;stroke-width:1.0;"/><line style="stroke:#181818;stroke-width:1.0;" x1="858" x2="858" y1="1146.2485" y2="1181.2485"/><polygon fill="#181818" points="854,1171.2485,858,1181.2485,862,1171.2485,858,1175.2485" style="stroke:#181818;stroke-width:1.0;"/><line style="stroke:#181818;stroke-width:1.0;" x1="858" x2="858" y1="1087.8774" y2="1112.2798"/><polygon fill="#181818" points="854,1102.2798,858,1112.2798,862,1102.2798,858,1106.2798" style="stroke:#181818;stroke-width:1.0;"/><line style="stroke:#181818;stroke-width:1.0;" x1="923" x2="955.5" y1="1075.8774" y2="1075.8774"/><polygon fill="#181818" points="951.5,1153.7485,955.5,1163.7485,959.5,1153.7485,955.5,1157.7485" style="stroke:#181818;stroke-width:1.0;"/><line style="stroke:#181818;stroke-width:1.0;" x1="955.5" x2="955.5" y1="1075.8774" y2="1247.2173"/><line style="stroke:#181818;stroke-width:1.0;" x1="955.5" x2="870" y1="1247.2173" y2="1247.2173"/><polygon fill="#181818" points="880,1243.2173,870,1247.2173,880,1251.2173,876,1247.2173" style="stroke:#181818;stroke-width:1.0;"/><line style="stroke:#181818;stroke-width:1.0;" x1="858" x2="858" y1="1215.2173" y2="1235.2173"/><polygon fill="#181818" points="854,1225.2173,858,1235.2173,862,1225.2173,858,1229.2173" style="stroke:#181818;stroke-width:1.0;"/><line style="stroke:#181818;stroke-width:1.0;" x1="858" x2="858" y1="1375.5571" y2="1410.5571"/><polygon fill="#181818" points="854,1400.5571,858,1410.5571,862,1400.5571,858,1404.5571" style="stroke:#181818;stroke-width:1.0;"/><line style="stroke:#181818;stroke-width:1.0;" x1="858" x2="858" y1="1303.2173" y2="1327.6196"/><polygon fill="#181818" points="854,1317.6196,858,1327.6196,862,1317.6196,858,1321.6196" style="stroke:#181818;stroke-width:1.0;"/><line style="stroke:#181818;stroke-width:1.0;" x1="949" x2="995" y1="1291.2173" y2="1291.2173"/><polygon fill="#181818" points="991,1383.0571,995,1393.0571,999,1383.0571,995,1387.0571" style="stroke:#181818;stroke-width:1.0;"/><line style="stroke:#181818;stroke-width:1.0;" x1="995" x2="995" y1="1291.2173" y2="1490.4946"/><line style="stroke:#181818;stroke-width:1.0;" x1="995" x2="870" y1="1490.4946" y2="1490.4946"/><polygon fill="#181818" points="880,1486.4946,870,1490.4946,880,1494.4946,876,1490.4946" style="stroke:#181818;stroke-width:1.0;"/><line style="stroke:#181818;stroke-width:1.0;" x1="858" x2="858" y1="1458.4946" y2="1478.4946"/><polygon fill="#181818" points="854,1468.4946,858,1478.4946,862,1468.4946,858,1472.4946" style="stroke:#181818;stroke-width:1.0;"/><line style="stroke:#181818;stroke-width:1.0;" x1="858" x2="858" y1="1259.2173" y2="1279.2173"/><polygon fill="#181818" points="854,1269.2173,858,1279.2173,862,1269.2173,858,1273.2173" style="stroke:#181818;stroke-width:1.0;"/><line style="stroke:#181818;stroke-width:1.0;" x1="858" x2="858" y1="1502.4946" y2="1522.4946"/><polygon fill="#181818" points="854,1512.4946,858,1522.4946,862,1512.4946,858,1516.4946" style="stroke:#181818;stroke-width:1.0;"/><line style="stroke:#181818;stroke-width:1.0;" x1="115" x2="115" y1="166.6357" y2="188.895"/><line style="stroke:#181818;stroke-width:1.0;" x1="115" x2="380" y1="188.895" y2="188.895"/><line style="stroke:#181818;stroke-width:1.0;" x1="380" x2="380" y1="188.895" y2="203.895"/><polygon fill="#181818" points="376,193.895,380,203.895,384,193.895,380,197.895" style="stroke:#181818;stroke-width:1.0;"/><text fill="#000000" font-family="sans-serif" font-size="11" lengthAdjust="spacing" textLength="172" x="119" y="182.395">&#35843;&#29992;expectWeaklyReachable()</text><line style="stroke:#181818;stroke-width:1.0;" x1="630" x2="630" y1="850.7432" y2="873.0024"/><line style="stroke:#181818;stroke-width:1.0;" x1="630" x2="858" y1="873.0024" y2="873.0024"/><line style="stroke:#181818;stroke-width:1.0;" x1="858" x2="858" y1="873.0024" y2="888.0024"/><polygon fill="#181818" points="854,878.0024,858,888.0024,862,878.0024,858,882.0024" style="stroke:#181818;stroke-width:1.0;"/><text fill="#000000" font-family="sans-serif" font-size="11" lengthAdjust="spacing" textLength="205" x="634" y="866.5024">&#35843;&#29992;scheduleRetainedObjectCheck()</text><line style="stroke:#181818;stroke-width:1.0;" x1="858" x2="858" y1="921.9712" y2="926.9712"/><line style="stroke:#181818;stroke-width:1.0;" x1="858" x2="380" y1="926.9712" y2="926.9712"/><line style="stroke:#181818;stroke-width:1.0;" x1="380" x2="380" y1="926.9712" y2="941.9712"/><polygon fill="#181818" points="376,931.9712,380,941.9712,384,931.9712,380,935.9712" style="stroke:#181818;stroke-width:1.0;"/><line style="stroke:#181818;stroke-width:1.0;" x1="380" x2="380" y1="1043.8774" y2="1048.8774"/><line style="stroke:#181818;stroke-width:1.0;" x1="380" x2="858" y1="1048.8774" y2="1048.8774"/><line style="stroke:#181818;stroke-width:1.0;" x1="858" x2="858" y1="1048.8774" y2="1063.8774"/><polygon fill="#181818" points="854,1053.8774,858,1063.8774,862,1053.8774,858,1057.8774" style="stroke:#181818;stroke-width:1.0;"/><text fill="#000000" font-family="sans-serif" font-size="18" lengthAdjust="spacing" textLength="149" x="45.5" y="29.4531">ActivityWatcher</text><text fill="#000000" font-family="sans-serif" font-size="18" lengthAdjust="spacing" textLength="139" x="309.5" y="29.4531">ObjectWatcher</text><text fill="#000000" font-family="sans-serif" font-size="18" lengthAdjust="spacing" textLength="182" x="538" y="29.4531">InternalLeakCanary</text><text fill="#000000" font-family="sans-serif" font-size="18" lengthAdjust="spacing" textLength="171" x="784" y="29.4531">HeapDumpTrigger</text><!--SRC=[bLJFRn9R5DxFNp7BOM7pDcuWcgZ4QDGOcpOkv2rkXrCO2tV8pA0FmuA-Lmkr2gYr8jLQj956dw_uuz4MKFuOkNU6LVy5pvqBI6qrkfdCt7k-SxxlVETCzfJk63SC9tELE7eShAnYEyHobA19XpTXi1tBp42qrrhkjPlgIINehZpdXJ8P1F1IoUisUjqQdzyEATdBCzT1TqRvZfrKlSO_xieM_9KIvq3c4fb987gSp2H02uIK8D-zxPONMUSHHdcrhTxkMxRptcsNl1TlsDewNscwrGMslUUzg-rtgX7AFhzsYzkzTd4IPi42giELDAH1m4ghBD_2YCDmF_b-voxRQo9oL2j21QomqN-oYKJwkQhNpKzFdmzFM8H6pQHurG9IxXna1DVr1TPkiSuxcU82O6E4fX4Nh844zfhizWTlVkKWHL5_YEHtvoEKFrror-xpObtA-vARnohu76yfVieO37_Sx3_- -2NtD_lqS1mtKihAnV4QgAvJnKk-qsPtDbYXSP0Eolb6PnWoQesM9Aa0TYSOeJTzCwFIMViQSlnJFQ5QmsGXON9lj-sskkxMCcitaUTnj_w0BzMz6dOZQTw0ANCI769GYFgMiyLx_D_QhnkFa77RHbwFTo6e7iaqf1YpgiOhswpyYdzOu9tIVkTvG7NYG3Lg1XHLjHqpfK321Yq3DfetLiNhLjZR2dkAhSG3TxCbCmXKaAzzvAiDUS1VvlZ_ozAV2BK6KgTJZf64IqOYOTWX1MZKc5Movwa35YM9YpWrPmWbLYOhrarI7c_IQ7Di8IcTWE6b33qJ1trEn6NF0Kc5qydKb6N4OcBdWZW7hDIGVaWNT15zC87jWxzRr-1lUU8LTz07sG9vo1yr-ddiS7Kymr7zyBTKpARVnT6AIlnHedmN3rLYc_LUg_Z7DqlHGj-ToJGLnIPYu0nUjS14J1UQyRQVluTLVqH_wDNFIlOh1PRhQFrsnVjlytZW405qBuhqXOn1pJ3Cf6CJ_c7ACcV3n25QVA3oh9600AvhzvaOjur5lb70NUIhUVpZ-k3JH9-BMMQQHgVY5f2eo7iAfoXp2ooSpVfBlbwMk90_oge_srA6cE-l]--></g></svg>