<?xml version="1.0" encoding="us-ascii" standalone="no"?><svg xmlns="http://www.w3.org/2000/svg" xmlns:xlink="http://www.w3.org/1999/xlink" contentStyleType="text/css" height="543px" preserveAspectRatio="none" style="width:960px;height:543px;background:#FFFFFF;" version="1.1" viewBox="0 0 960 543" width="960px" zoomAndPan="magnify"><defs/><g><!--class SharedReference--><g id="elem_SharedReference"><rect codeLine="1" fill="#F1F1F1" height="96.8906" id="SharedReference" rx="2.5" ry="2.5" style="stroke:#181818;stroke-width:0.5;" width="361" x="588" y="331"/><ellipse cx="678.25" cy="347" fill="#ADD1B2" rx="11" ry="11" style="stroke:#181818;stroke-width:1.0;"/><path d="M680.5938,342.6719 C679.6563,342.2344 679.0625,342.0938 678.1875,342.0938 C675.5625,342.0938 673.5625,344.1719 673.5625,346.8906 L673.5625,348.0156 C673.5625,350.5938 675.6719,352.4844 678.5625,352.4844 C679.7813,352.4844 680.9375,352.1875 681.6875,351.6406 C682.2656,351.2344 682.5938,350.7813 682.5938,350.3906 C682.5938,349.9375 682.2031,349.5469 681.7344,349.5469 C681.5156,349.5469 681.3125,349.625 681.125,349.8125 C680.6719,350.2969 680.6719,350.2969 680.4844,350.3906 C680.0625,350.6563 679.375,350.7813 678.6094,350.7813 C676.5625,350.7813 675.2656,349.6875 675.2656,347.9844 L675.2656,346.8906 C675.2656,345.1094 676.5156,343.7969 678.25,343.7969 C678.8281,343.7969 679.4375,343.9531 679.9063,344.2031 C680.3906,344.4844 680.5625,344.7031 680.6563,345.1094 C680.7188,345.5156 680.75,345.6406 680.8906,345.7656 C681.0313,345.9063 681.2656,346.0156 681.4844,346.0156 C681.75,346.0156 682.0156,345.875 682.1875,345.6563 C682.2969,345.5 682.3281,345.3125 682.3281,344.8906 L682.3281,343.4688 C682.3281,343.0313 682.3125,342.9063 682.2188,342.75 C682.0625,342.4844 681.7813,342.3438 681.4844,342.3438 C681.1875,342.3438 680.9844,342.4375 680.7656,342.75 L680.5938,342.6719 Z " fill="#000000"/><text fill="#000000" font-family="sans-serif" font-size="14" lengthAdjust="spacing" textLength="125" x="698.75" y="351.8467">SharedReference</text><rect fill="#FFFFFF" height="15.9688" style="stroke:#181818;stroke-width:1.0;stroke-dasharray:2.0,2.0;" width="45" x="907" y="328"/><text fill="#000000" font-family="sans-serif" font-size="12" font-style="italic" lengthAdjust="spacing" textLength="43" x="908" y="340.1387">Bitmap</text><line style="stroke:#181818;stroke-width:0.5;" x1="589" x2="948" y1="363" y2="363"/><text fill="#000000" font-family="sans-serif" font-size="14" lengthAdjust="spacing" textLength="110" x="594" y="379.9951">Bitmap mValue</text><text fill="#000000" font-family="sans-serif" font-size="14" lengthAdjust="spacing" textLength="106" x="594" y="396.292">int mRefCount</text><text fill="#000000" font-family="sans-serif" font-size="14" lengthAdjust="spacing" textLength="349" x="594" y="412.5889">ResourceReleaser&lt;Bitmap&gt; mResourceReleaser</text><line style="stroke:#181818;stroke-width:0.5;" x1="589" x2="948" y1="419.8906" y2="419.8906"/></g><!--class Bitmap--><g id="elem_Bitmap"><rect fill="#F1F1F1" height="48" id="Bitmap" rx="2.5" ry="2.5" style="stroke:#181818;stroke-width:0.5;" width="85" x="529" y="223"/><ellipse cx="544" cy="239" fill="#ADD1B2" rx="11" ry="11" style="stroke:#181818;stroke-width:1.0;"/><path d="M546.3438,234.6719 C545.4063,234.2344 544.8125,234.0938 543.9375,234.0938 C541.3125,234.0938 539.3125,236.1719 539.3125,238.8906 L539.3125,240.0156 C539.3125,242.5938 541.4219,244.4844 544.3125,244.4844 C545.5313,244.4844 546.6875,244.1875 547.4375,243.6406 C548.0156,243.2344 548.3438,242.7813 548.3438,242.3906 C548.3438,241.9375 547.9531,241.5469 547.4844,241.5469 C547.2656,241.5469 547.0625,241.625 546.875,241.8125 C546.4219,242.2969 546.4219,242.2969 546.2344,242.3906 C545.8125,242.6563 545.125,242.7813 544.3594,242.7813 C542.3125,242.7813 541.0156,241.6875 541.0156,239.9844 L541.0156,238.8906 C541.0156,237.1094 542.2656,235.7969 544,235.7969 C544.5781,235.7969 545.1875,235.9531 545.6563,236.2031 C546.1406,236.4844 546.3125,236.7031 546.4063,237.1094 C546.4688,237.5156 546.5,237.6406 546.6406,237.7656 C546.7813,237.9063 547.0156,238.0156 547.2344,238.0156 C547.5,238.0156 547.7656,237.875 547.9375,237.6563 C548.0469,237.5 548.0781,237.3125 548.0781,236.8906 L548.0781,235.4688 C548.0781,235.0313 548.0625,234.9063 547.9688,234.75 C547.8125,234.4844 547.5313,234.3438 547.2344,234.3438 C546.9375,234.3438 546.7344,234.4375 546.5156,234.75 L546.3438,234.6719 Z " fill="#000000"/><text fill="#000000" font-family="sans-serif" font-size="14" lengthAdjust="spacing" textLength="53" x="558" y="243.8467">Bitmap</text><line style="stroke:#181818;stroke-width:0.5;" x1="530" x2="613" y1="255" y2="255"/><line style="stroke:#181818;stroke-width:0.5;" x1="530" x2="613" y1="263" y2="263"/></g><!--class CloseableReference--><g id="elem_CloseableReference"><rect codeLine="7" fill="#F1F1F1" height="48" id="CloseableReference" rx="2.5" ry="2.5" style="stroke:#181818;stroke-width:0.5;" width="223" x="330" y="355.5"/><ellipse cx="345" cy="371.5" fill="#A9DCDF" rx="11" ry="11" style="stroke:#181818;stroke-width:1.0;"/><path d="M347.0781,373.3125 L347.4688,374.2969 L347.0781,374.2969 C346.625,374.2969 346.5156,374.3125 346.3594,374.4219 C346.1094,374.5781 345.9531,374.8594 345.9531,375.1563 C345.9531,375.4219 346.0938,375.6719 346.3125,375.8281 C346.4531,375.9531 346.6563,376 347.0781,376 L349.4375,376 C349.7969,376 350.0156,375.9688 350.1563,375.875 C350.4063,375.7344 350.5625,375.4375 350.5625,375.1563 C350.5625,374.875 350.4219,374.625 350.2031,374.4688 C350.0313,374.3281 349.875,374.2969 349.4063,374.2969 L346.0156,366.0938 L342.3438,366.0938 C341.8906,366.0938 341.7656,366.1094 341.6094,366.2031 C341.3594,366.375 341.2031,366.6563 341.2031,366.9375 C341.2031,367.2188 341.3438,367.4688 341.5625,367.6406 C341.7344,367.75 341.9063,367.7813 342.3438,367.7813 L343.4219,367.7813 L340.7813,374.2969 C340.3594,374.2969 340.2031,374.3125 340.0469,374.4219 C339.7969,374.5781 339.6406,374.8594 339.6406,375.1563 C339.6406,375.7188 340.0156,376 340.7656,376 L343.0313,376 C343.3906,376 343.6094,375.9688 343.7344,375.875 C344,375.7344 344.1406,375.4375 344.1406,375.1563 C344.1406,374.875 344.0156,374.625 343.7969,374.4531 C343.625,374.3281 343.4844,374.2969 343.0313,374.2969 L342.6406,374.2969 L343.0313,373.3125 L347.0781,373.3125 Z M346.375,371.6094 L343.7031,371.6094 L345.0469,368.3438 L346.375,371.6094 Z " fill="#000000"/><text fill="#000000" font-family="sans-serif" font-size="14" font-style="italic" lengthAdjust="spacing" textLength="144" x="359" y="376.3467">CloseableReference</text><rect fill="#FFFFFF" height="15.9688" style="stroke:#181818;stroke-width:1.0;stroke-dasharray:2.0,2.0;" width="45" x="511" y="352.5"/><text fill="#000000" font-family="sans-serif" font-size="12" font-style="italic" lengthAdjust="spacing" textLength="43" x="512" y="364.6387">Bitmap</text><line style="stroke:#181818;stroke-width:0.5;" x1="331" x2="552" y1="387.5" y2="387.5"/><line style="stroke:#181818;stroke-width:0.5;" x1="331" x2="552" y1="395.5" y2="395.5"/></g><!--class DefaultCloseableReference--><g id="elem_DefaultCloseableReference"><rect codeLine="8" fill="#F1F1F1" height="48" id="DefaultCloseableReference" rx="2.5" ry="2.5" style="stroke:#181818;stroke-width:0.5;" width="277" x="321" y="488"/><ellipse cx="336" cy="504" fill="#ADD1B2" rx="11" ry="11" style="stroke:#181818;stroke-width:1.0;"/><path d="M338.3438,499.6719 C337.4063,499.2344 336.8125,499.0938 335.9375,499.0938 C333.3125,499.0938 331.3125,501.1719 331.3125,503.8906 L331.3125,505.0156 C331.3125,507.5938 333.4219,509.4844 336.3125,509.4844 C337.5313,509.4844 338.6875,509.1875 339.4375,508.6406 C340.0156,508.2344 340.3438,507.7813 340.3438,507.3906 C340.3438,506.9375 339.9531,506.5469 339.4844,506.5469 C339.2656,506.5469 339.0625,506.625 338.875,506.8125 C338.4219,507.2969 338.4219,507.2969 338.2344,507.3906 C337.8125,507.6563 337.125,507.7813 336.3594,507.7813 C334.3125,507.7813 333.0156,506.6875 333.0156,504.9844 L333.0156,503.8906 C333.0156,502.1094 334.2656,500.7969 336,500.7969 C336.5781,500.7969 337.1875,500.9531 337.6563,501.2031 C338.1406,501.4844 338.3125,501.7031 338.4063,502.1094 C338.4688,502.5156 338.5,502.6406 338.6406,502.7656 C338.7813,502.9063 339.0156,503.0156 339.2344,503.0156 C339.5,503.0156 339.7656,502.875 339.9375,502.6563 C340.0469,502.5 340.0781,502.3125 340.0781,501.8906 L340.0781,500.4688 C340.0781,500.0313 340.0625,499.9063 339.9688,499.75 C339.8125,499.4844 339.5313,499.3438 339.2344,499.3438 C338.9375,499.3438 338.7344,499.4375 338.5156,499.75 L338.3438,499.6719 Z " fill="#000000"/><text fill="#000000" font-family="sans-serif" font-size="14" lengthAdjust="spacing" textLength="198" x="350" y="508.8467">DefaultCloseableReference</text><rect fill="#FFFFFF" height="15.9688" style="stroke:#181818;stroke-width:1.0;stroke-dasharray:2.0,2.0;" width="45" x="556" y="485"/><text fill="#000000" font-family="sans-serif" font-size="12" font-style="italic" lengthAdjust="spacing" textLength="43" x="557" y="497.1387">Bitmap</text><line style="stroke:#181818;stroke-width:0.5;" x1="322" x2="597" y1="520" y2="520"/><line style="stroke:#181818;stroke-width:0.5;" x1="322" x2="597" y1="528" y2="528"/></g><!--class CloseableImage--><g id="elem_CloseableImage"><rect codeLine="12" fill="#F1F1F1" height="48" id="CloseableImage" rx="2.5" ry="2.5" style="stroke:#181818;stroke-width:0.5;" width="147" x="118" y="7"/><ellipse cx="133" cy="23" fill="#B4A7E5" rx="11" ry="11" style="stroke:#181818;stroke-width:1.0;"/><path d="M133.9531,19.7813 L135.6719,19.7813 C136.0625,19.7813 136.25,19.75 136.375,19.6719 C136.6406,19.5156 136.7813,19.2344 136.7813,18.9375 C136.7813,18.6719 136.6719,18.4063 136.4375,18.2344 C136.2656,18.125 136.125,18.0938 135.6719,18.0938 L130.5313,18.0938 C130.0938,18.0938 129.9688,18.1094 129.8125,18.2031 C129.5625,18.3594 129.4063,18.6563 129.4063,18.9375 C129.4063,19.2188 129.5469,19.4688 129.7656,19.6406 C129.9219,19.75 130.1094,19.7813 130.5313,19.7813 L132.25,19.7813 L132.25,26.2969 L130.5313,26.2969 C130.0938,26.2969 129.9688,26.3125 129.8125,26.4219 C129.5625,26.5781 129.4063,26.8594 129.4063,27.1563 C129.4063,27.4063 129.5469,27.6719 129.7656,27.8281 C129.9219,27.9531 130.125,28 130.5313,28 L135.6719,28 C136.4219,28 136.7813,27.7188 136.7813,27.1563 C136.7813,26.875 136.6719,26.625 136.4375,26.4531 C136.2656,26.3281 136.125,26.2969 135.6719,26.2969 L133.9531,26.2969 L133.9531,19.7813 Z " fill="#000000"/><text fill="#000000" font-family="sans-serif" font-size="14" font-style="italic" lengthAdjust="spacing" textLength="115" x="147" y="27.8467">CloseableImage</text><line style="stroke:#181818;stroke-width:0.5;" x1="119" x2="264" y1="39" y2="39"/><line style="stroke:#181818;stroke-width:0.5;" x1="119" x2="264" y1="47" y2="47"/></g><!--class CloseableBitmap--><g id="elem_CloseableBitmap"><rect codeLine="13" fill="#F1F1F1" height="48" id="CloseableBitmap" rx="2.5" ry="2.5" style="stroke:#181818;stroke-width:0.5;" width="153" x="14" y="115"/><ellipse cx="29" cy="131" fill="#B4A7E5" rx="11" ry="11" style="stroke:#181818;stroke-width:1.0;"/><path d="M29.9531,127.7813 L31.6719,127.7813 C32.0625,127.7813 32.25,127.75 32.375,127.6719 C32.6406,127.5156 32.7813,127.2344 32.7813,126.9375 C32.7813,126.6719 32.6719,126.4063 32.4375,126.2344 C32.2656,126.125 32.125,126.0938 31.6719,126.0938 L26.5313,126.0938 C26.0938,126.0938 25.9688,126.1094 25.8125,126.2031 C25.5625,126.3594 25.4063,126.6563 25.4063,126.9375 C25.4063,127.2188 25.5469,127.4688 25.7656,127.6406 C25.9219,127.75 26.1094,127.7813 26.5313,127.7813 L28.25,127.7813 L28.25,134.2969 L26.5313,134.2969 C26.0938,134.2969 25.9688,134.3125 25.8125,134.4219 C25.5625,134.5781 25.4063,134.8594 25.4063,135.1563 C25.4063,135.4063 25.5469,135.6719 25.7656,135.8281 C25.9219,135.9531 26.125,136 26.5313,136 L31.6719,136 C32.4219,136 32.7813,135.7188 32.7813,135.1563 C32.7813,134.875 32.6719,134.625 32.4375,134.4531 C32.2656,134.3281 32.125,134.2969 31.6719,134.2969 L29.9531,134.2969 L29.9531,127.7813 Z " fill="#000000"/><text fill="#000000" font-family="sans-serif" font-size="14" font-style="italic" lengthAdjust="spacing" textLength="121" x="43" y="135.8467">CloseableBitmap</text><line style="stroke:#181818;stroke-width:0.5;" x1="15" x2="166" y1="147" y2="147"/><line style="stroke:#181818;stroke-width:0.5;" x1="15" x2="166" y1="155" y2="155"/></g><!--class CloseableStaticBitmap--><g id="elem_CloseableStaticBitmap"><rect codeLine="14" fill="#F1F1F1" height="48" id="CloseableStaticBitmap" rx="2.5" ry="2.5" style="stroke:#181818;stroke-width:0.5;" width="193" x="7" y="223"/><ellipse cx="22" cy="239" fill="#B4A7E5" rx="11" ry="11" style="stroke:#181818;stroke-width:1.0;"/><path d="M22.9531,235.7813 L24.6719,235.7813 C25.0625,235.7813 25.25,235.75 25.375,235.6719 C25.6406,235.5156 25.7813,235.2344 25.7813,234.9375 C25.7813,234.6719 25.6719,234.4063 25.4375,234.2344 C25.2656,234.125 25.125,234.0938 24.6719,234.0938 L19.5313,234.0938 C19.0938,234.0938 18.9688,234.1094 18.8125,234.2031 C18.5625,234.3594 18.4063,234.6563 18.4063,234.9375 C18.4063,235.2188 18.5469,235.4688 18.7656,235.6406 C18.9219,235.75 19.1094,235.7813 19.5313,235.7813 L21.25,235.7813 L21.25,242.2969 L19.5313,242.2969 C19.0938,242.2969 18.9688,242.3125 18.8125,242.4219 C18.5625,242.5781 18.4063,242.8594 18.4063,243.1563 C18.4063,243.4063 18.5469,243.6719 18.7656,243.8281 C18.9219,243.9531 19.125,244 19.5313,244 L24.6719,244 C25.4219,244 25.7813,243.7188 25.7813,243.1563 C25.7813,242.875 25.6719,242.625 25.4375,242.4531 C25.2656,242.3281 25.125,242.2969 24.6719,242.2969 L22.9531,242.2969 L22.9531,235.7813 Z " fill="#000000"/><text fill="#000000" font-family="sans-serif" font-size="14" font-style="italic" lengthAdjust="spacing" textLength="161" x="36" y="243.8467">CloseableStaticBitmap</text><line style="stroke:#181818;stroke-width:0.5;" x1="8" x2="199" y1="255" y2="255"/><line style="stroke:#181818;stroke-width:0.5;" x1="8" x2="199" y1="263" y2="263"/></g><!--class BaseCloseableImage--><g id="elem_BaseCloseableImage"><rect codeLine="17" fill="#F1F1F1" height="48" id="BaseCloseableImage" rx="2.5" ry="2.5" style="stroke:#181818;stroke-width:0.5;" width="182" x="202.5" y="115"/><ellipse cx="217.5" cy="131" fill="#A9DCDF" rx="11" ry="11" style="stroke:#181818;stroke-width:1.0;"/><path d="M219.5781,132.8125 L219.9688,133.7969 L219.5781,133.7969 C219.125,133.7969 219.0156,133.8125 218.8594,133.9219 C218.6094,134.0781 218.4531,134.3594 218.4531,134.6563 C218.4531,134.9219 218.5938,135.1719 218.8125,135.3281 C218.9531,135.4531 219.1563,135.5 219.5781,135.5 L221.9375,135.5 C222.2969,135.5 222.5156,135.4688 222.6563,135.375 C222.9063,135.2344 223.0625,134.9375 223.0625,134.6563 C223.0625,134.375 222.9219,134.125 222.7031,133.9688 C222.5313,133.8281 222.375,133.7969 221.9063,133.7969 L218.5156,125.5938 L214.8438,125.5938 C214.3906,125.5938 214.2656,125.6094 214.1094,125.7031 C213.8594,125.875 213.7031,126.1563 213.7031,126.4375 C213.7031,126.7188 213.8438,126.9688 214.0625,127.1406 C214.2344,127.25 214.4063,127.2813 214.8438,127.2813 L215.9219,127.2813 L213.2813,133.7969 C212.8594,133.7969 212.7031,133.8125 212.5469,133.9219 C212.2969,134.0781 212.1406,134.3594 212.1406,134.6563 C212.1406,135.2188 212.5156,135.5 213.2656,135.5 L215.5313,135.5 C215.8906,135.5 216.1094,135.4688 216.2344,135.375 C216.5,135.2344 216.6406,134.9375 216.6406,134.6563 C216.6406,134.375 216.5156,134.125 216.2969,133.9531 C216.125,133.8281 215.9844,133.7969 215.5313,133.7969 L215.1406,133.7969 L215.5313,132.8125 L219.5781,132.8125 Z M218.875,131.1094 L216.2031,131.1094 L217.5469,127.8438 L218.875,131.1094 Z " fill="#000000"/><text fill="#000000" font-family="sans-serif" font-size="14" font-style="italic" lengthAdjust="spacing" textLength="150" x="231.5" y="135.8467">BaseCloseableImage</text><line style="stroke:#181818;stroke-width:0.5;" x1="203.5" x2="383.5" y1="147" y2="147"/><line style="stroke:#181818;stroke-width:0.5;" x1="203.5" x2="383.5" y1="155" y2="155"/></g><!--class BaseCloseableStaticBitmap--><g id="elem_BaseCloseableStaticBitmap"><rect fill="#F1F1F1" height="48" id="BaseCloseableStaticBitmap" rx="2.5" ry="2.5" style="stroke:#181818;stroke-width:0.5;" width="232" x="62.5" y="355.5"/><ellipse cx="77.5" cy="371.5" fill="#ADD1B2" rx="11" ry="11" style="stroke:#181818;stroke-width:1.0;"/><path d="M79.8438,367.1719 C78.9063,366.7344 78.3125,366.5938 77.4375,366.5938 C74.8125,366.5938 72.8125,368.6719 72.8125,371.3906 L72.8125,372.5156 C72.8125,375.0938 74.9219,376.9844 77.8125,376.9844 C79.0313,376.9844 80.1875,376.6875 80.9375,376.1406 C81.5156,375.7344 81.8438,375.2813 81.8438,374.8906 C81.8438,374.4375 81.4531,374.0469 80.9844,374.0469 C80.7656,374.0469 80.5625,374.125 80.375,374.3125 C79.9219,374.7969 79.9219,374.7969 79.7344,374.8906 C79.3125,375.1563 78.625,375.2813 77.8594,375.2813 C75.8125,375.2813 74.5156,374.1875 74.5156,372.4844 L74.5156,371.3906 C74.5156,369.6094 75.7656,368.2969 77.5,368.2969 C78.0781,368.2969 78.6875,368.4531 79.1563,368.7031 C79.6406,368.9844 79.8125,369.2031 79.9063,369.6094 C79.9688,370.0156 80,370.1406 80.1406,370.2656 C80.2813,370.4063 80.5156,370.5156 80.7344,370.5156 C81,370.5156 81.2656,370.375 81.4375,370.1563 C81.5469,370 81.5781,369.8125 81.5781,369.3906 L81.5781,367.9688 C81.5781,367.5313 81.5625,367.4063 81.4688,367.25 C81.3125,366.9844 81.0313,366.8438 80.7344,366.8438 C80.4375,366.8438 80.2344,366.9375 80.0156,367.25 L79.8438,367.1719 Z " fill="#000000"/><text fill="#000000" font-family="sans-serif" font-size="14" lengthAdjust="spacing" textLength="200" x="91.5" y="376.3467">BaseCloseableStaticBitmap</text><line style="stroke:#181818;stroke-width:0.5;" x1="63.5" x2="293.5" y1="387.5" y2="387.5"/><line style="stroke:#181818;stroke-width:0.5;" x1="63.5" x2="293.5" y1="395.5" y2="395.5"/></g><!--class DefaultCloseableStaticBitmap--><g id="elem_DefaultCloseableStaticBitmap"><rect fill="#F1F1F1" height="48" id="DefaultCloseableStaticBitmap" rx="2.5" ry="2.5" style="stroke:#181818;stroke-width:0.5;" width="251" x="35" y="488"/><ellipse cx="50" cy="504" fill="#ADD1B2" rx="11" ry="11" style="stroke:#181818;stroke-width:1.0;"/><path d="M52.3438,499.6719 C51.4063,499.2344 50.8125,499.0938 49.9375,499.0938 C47.3125,499.0938 45.3125,501.1719 45.3125,503.8906 L45.3125,505.0156 C45.3125,507.5938 47.4219,509.4844 50.3125,509.4844 C51.5313,509.4844 52.6875,509.1875 53.4375,508.6406 C54.0156,508.2344 54.3438,507.7813 54.3438,507.3906 C54.3438,506.9375 53.9531,506.5469 53.4844,506.5469 C53.2656,506.5469 53.0625,506.625 52.875,506.8125 C52.4219,507.2969 52.4219,507.2969 52.2344,507.3906 C51.8125,507.6563 51.125,507.7813 50.3594,507.7813 C48.3125,507.7813 47.0156,506.6875 47.0156,504.9844 L47.0156,503.8906 C47.0156,502.1094 48.2656,500.7969 50,500.7969 C50.5781,500.7969 51.1875,500.9531 51.6563,501.2031 C52.1406,501.4844 52.3125,501.7031 52.4063,502.1094 C52.4688,502.5156 52.5,502.6406 52.6406,502.7656 C52.7813,502.9063 53.0156,503.0156 53.2344,503.0156 C53.5,503.0156 53.7656,502.875 53.9375,502.6563 C54.0469,502.5 54.0781,502.3125 54.0781,501.8906 L54.0781,500.4688 C54.0781,500.0313 54.0625,499.9063 53.9688,499.75 C53.8125,499.4844 53.5313,499.3438 53.2344,499.3438 C52.9375,499.3438 52.7344,499.4375 52.5156,499.75 L52.3438,499.6719 Z " fill="#000000"/><text fill="#000000" font-family="sans-serif" font-size="14" lengthAdjust="spacing" textLength="219" x="64" y="508.8467">DefaultCloseableStaticBitmap</text><line style="stroke:#181818;stroke-width:0.5;" x1="36" x2="285" y1="520" y2="520"/><line style="stroke:#181818;stroke-width:0.5;" x1="36" x2="285" y1="528" y2="528"/></g><!--reverse link SharedReference to Bitmap--><g id="link_SharedReference_Bitmap"><path codeLine="6" d="M686.554,324.2158 C655.761,303.8168 631.23,287.567 606.266,271.03 " fill="none" id="SharedReference-backto-Bitmap" style="stroke:#181818;stroke-width:1.0;"/><polygon fill="#181818" points="696.558,330.843,693.7651,324.1947,686.554,324.2158,689.3469,330.8641,696.558,330.843" style="stroke:#181818;stroke-width:1.0;"/></g><!--reverse link CloseableReference to DefaultCloseableReference--><g id="link_CloseableReference_DefaultCloseableReference"><path codeLine="9" d="M447.1364,421.3612 C450.4064,445.0692 453.014,463.9771 456.295,487.7609 " fill="none" id="CloseableReference-backto-DefaultCloseableReference" style="stroke:#181818;stroke-width:1.0;"/><polygon fill="none" points="444.677,403.53,441.1927,422.181,453.0802,420.5414,444.677,403.53" style="stroke:#181818;stroke-width:1.0;"/></g><!--reverse link CloseableReference to SharedReference--><g id="link_CloseableReference_SharedReference"><path codeLine="10" d="M565.268,379.5 C576.758,379.5 576.248,379.5 587.738,379.5 " fill="none" id="CloseableReference-backto-SharedReference" style="stroke:#181818;stroke-width:1.0;"/><polygon fill="#181818" points="553.268,379.5,559.268,383.5,565.268,379.5,559.268,375.5,553.268,379.5" style="stroke:#181818;stroke-width:1.0;"/></g><!--reverse link CloseableImage to CloseableBitmap--><g id="link_CloseableImage_CloseableBitmap"><path codeLine="15" d="M157.1678,68.0312 C140.3418,85.6892 129.622,96.941 112.722,114.678 " fill="none" id="CloseableImage-backto-CloseableBitmap" style="stroke:#181818;stroke-width:1.0;"/><polygon fill="none" points="169.585,55,152.824,63.8921,161.5115,72.1703,169.585,55" style="stroke:#181818;stroke-width:1.0;"/></g><!--reverse link CloseableBitmap to CloseableStaticBitmap--><g id="link_CloseableBitmap_CloseableStaticBitmap"><path codeLine="16" d="M95.5119,180.8661 C97.6775,198.5241 98.4644,204.941 100.6398,222.678 " fill="none" id="CloseableBitmap-backto-CloseableStaticBitmap" style="stroke:#181818;stroke-width:1.0;"/><polygon fill="none" points="93.3208,163,89.5565,181.5965,101.4673,180.1358,93.3208,163" style="stroke:#181818;stroke-width:1.0;"/></g><!--reverse link CloseableImage to BaseCloseableImage--><g id="link_CloseableImage_BaseCloseableImage"><path codeLine="18" d="M226.113,67.9702 C243.105,85.6282 253.99,96.941 271.058,114.678 " fill="none" id="CloseableImage-backto-BaseCloseableImage" style="stroke:#181818;stroke-width:1.0;"/><polygon fill="none" points="213.632,55,221.7896,72.1305,230.4364,63.8098,213.632,55" style="stroke:#181818;stroke-width:1.0;"/></g><!--reverse link CloseableStaticBitmap to BaseCloseableStaticBitmap--><g id="link_CloseableStaticBitmap_BaseCloseableStaticBitmap"><path codeLine="19" d="M125.705,286.6363 C139.33,310.3443 151.475,331.477 165.144,355.261 " fill="none" id="CloseableStaticBitmap-backto-BaseCloseableStaticBitmap" style="stroke:#181818;stroke-width:1.0;"/><polygon fill="none" points="116.736,271.03,120.5029,289.626,130.9071,283.6467,116.736,271.03" style="stroke:#181818;stroke-width:1.0;"/></g><!--reverse link BaseCloseableImage to BaseCloseableStaticBitmap--><g id="link_BaseCloseableImage_BaseCloseableStaticBitmap"><path codeLine="20" d="M274.446,179.5165 C252.404,225.2285 211.554,309.949 189.612,355.454 " fill="none" id="BaseCloseableImage-backto-BaseCloseableStaticBitmap" style="stroke:#181818;stroke-width:1.0;"/><polygon fill="none" points="282.264,163.303,269.0415,176.9105,279.8505,182.1225,282.264,163.303" style="stroke:#181818;stroke-width:1.0;"/></g><!--reverse link BaseCloseableStaticBitmap to DefaultCloseableStaticBitmap--><g id="link_BaseCloseableStaticBitmap_DefaultCloseableStaticBitmap"><path codeLine="21" d="M172.8636,421.3612 C169.5936,445.0692 166.986,463.9771 163.705,487.7609 " fill="none" id="BaseCloseableStaticBitmap-backto-DefaultCloseableStaticBitmap" style="stroke:#181818;stroke-width:1.0;"/><polygon fill="none" points="175.323,403.53,166.9198,420.5414,178.8073,422.181,175.323,403.53" style="stroke:#181818;stroke-width:1.0;"/></g><!--reverse link BaseCloseableStaticBitmap to CloseableReference--><g id="link_BaseCloseableStaticBitmap_CloseableReference"><path codeLine="22" d="M306.59,379.5 C318.354,379.5 318.118,379.5 329.883,379.5 " fill="none" id="BaseCloseableStaticBitmap-backto-CloseableReference" style="stroke:#181818;stroke-width:1.0;"/><polygon fill="#181818" points="294.59,379.5,300.59,383.5,306.59,379.5,300.59,375.5,294.59,379.5" style="stroke:#181818;stroke-width:1.0;"/></g><!--link Bitmap to BaseCloseableStaticBitmap--><g id="link_Bitmap_BaseCloseableStaticBitmap"><path codeLine="23" d="M528.747,261.261 C477.29,277.324 388.334,305.415 312.5,331 C289.581,338.733 275.8766,343.4804 253.7366,351.3644 " fill="none" id="Bitmap-to-BaseCloseableStaticBitmap" style="stroke:#181818;stroke-width:1.0;"/><polygon fill="#181818" points="242.432,355.39,249.4262,357.1454,253.7366,351.3644,246.7425,349.609,242.432,355.39" style="stroke:#181818;stroke-width:1.0;"/></g><!--SRC=[bLAz3e8m4Dxx59rDU0FY02wkaBWVzVX9MZ3jTLBVtGQGo569Thj-VzUxAWtEoR85YzS2QxJOAqopZWpSZl8kP3XJ9Sq5jCVnfkj9ca3F1z_JU5EW6xnLMA16S6WN2yCHyHGiJXwIP0uHK3coe4YgiR5S3mwXqhZfJKo44zRWDUtmjf1C7o7mgpAcE2IsQrfA-AI42AD0MqFWBBApWGPZmFp6258IKATcV6qqTSizMCr8ApisqYmiWRKQ2zoZVTf7sAlqhSzVYcqKtzkFscM3aONlgVpj_JTV]--></g></svg>