<?xml version="1.0" encoding="us-ascii" standalone="no"?><svg xmlns="http://www.w3.org/2000/svg" xmlns:xlink="http://www.w3.org/1999/xlink" contentStyleType="text/css" height="404px" preserveAspectRatio="none" style="width:752px;height:404px;background:#FFFFFF;" version="1.1" viewBox="0 0 752 404" width="752px" zoomAndPan="magnify"><defs/><g><line style="stroke:#181818;stroke-width:0.5;stroke-dasharray:5.0,5.0;" x1="88.5" x2="88.5" y1="36.2969" y2="368.8203"/><line style="stroke:#181818;stroke-width:0.5;stroke-dasharray:5.0,5.0;" x1="213.5" x2="213.5" y1="36.2969" y2="368.8203"/><line style="stroke:#181818;stroke-width:0.5;stroke-dasharray:5.0,5.0;" x1="367" x2="367" y1="36.2969" y2="368.8203"/><line style="stroke:#181818;stroke-width:0.5;stroke-dasharray:5.0,5.0;" x1="525.5" x2="525.5" y1="277.7422" y2="368.8203"/><line style="stroke:#181818;stroke-width:0.5;stroke-dasharray:5.0,5.0;" x1="661.5" x2="661.5" y1="319.0391" y2="368.8203"/><rect fill="#E2E2F0" height="30.2969" rx="2.5" ry="2.5" style="stroke:#181818;stroke-width:0.5;" width="159" x="9.5" y="5"/><text fill="#000000" font-family="sans-serif" font-size="14" lengthAdjust="spacing" textLength="145" x="16.5" y="24.9951">ConnectInterceptor</text><rect fill="#E2E2F0" height="30.2969" rx="2.5" ry="2.5" style="stroke:#181818;stroke-width:0.5;" width="159" x="9.5" y="367.8203"/><text fill="#000000" font-family="sans-serif" font-size="14" lengthAdjust="spacing" textLength="145" x="16.5" y="387.8154">ConnectInterceptor</text><rect fill="#E2E2F0" height="30.2969" rx="2.5" ry="2.5" style="stroke:#181818;stroke-width:0.5;" width="71" x="178.5" y="5"/><text fill="#000000" font-family="sans-serif" font-size="14" lengthAdjust="spacing" textLength="57" x="185.5" y="24.9951">RealCall</text><rect fill="#E2E2F0" height="30.2969" rx="2.5" ry="2.5" style="stroke:#181818;stroke-width:0.5;" width="71" x="178.5" y="367.8203"/><text fill="#000000" font-family="sans-serif" font-size="14" lengthAdjust="spacing" textLength="57" x="185.5" y="387.8154">RealCall</text><rect fill="#E2E2F0" height="30.2969" rx="2.5" ry="2.5" style="stroke:#181818;stroke-width:0.5;" width="128" x="303" y="5"/><text fill="#000000" font-family="sans-serif" font-size="14" lengthAdjust="spacing" textLength="114" x="310" y="24.9951">ExchangeFinder</text><rect fill="#E2E2F0" height="30.2969" rx="2.5" ry="2.5" style="stroke:#181818;stroke-width:0.5;" width="128" x="303" y="367.8203"/><text fill="#000000" font-family="sans-serif" font-size="14" lengthAdjust="spacing" textLength="114" x="310" y="387.8154">ExchangeFinder</text><rect fill="#E2E2F0" height="30.2969" rx="2.5" ry="2.5" style="stroke:#181818;stroke-width:0.5;" width="83" x="484.5" y="367.8203"/><text fill="#000000" font-family="sans-serif" font-size="14" lengthAdjust="spacing" textLength="69" x="491.5" y="387.8154">Exchange</text><rect fill="#E2E2F0" height="30.2969" rx="2.5" ry="2.5" style="stroke:#181818;stroke-width:0.5;" width="169" x="577.5" y="367.8203"/><text fill="#000000" font-family="sans-serif" font-size="14" lengthAdjust="spacing" textLength="155" x="584.5" y="387.8154">RealInterceptorChain</text><ellipse cx="7.5" cy="66.6797" fill="none" rx="4" ry="4" style="stroke:#181818;stroke-width:1.5;"/><polygon fill="#181818" points="77,63.4297,87,67.4297,77,71.4297,81,67.4297" style="stroke:#181818;stroke-width:1.0;"/><line style="stroke:#181818;stroke-width:1.0;" x1="12" x2="83" y1="67.4297" y2="67.4297"/><text fill="#000000" font-family="sans-serif" font-size="13" lengthAdjust="spacing" textLength="57" x="15" y="62.3638">intercept</text><polygon fill="#181818" points="202,92.5625,212,96.5625,202,100.5625,206,96.5625" style="stroke:#181818;stroke-width:1.0;"/><line style="stroke:#181818;stroke-width:1.0;" x1="89" x2="208" y1="96.5625" y2="96.5625"/><text fill="#000000" font-family="sans-serif" font-size="13" lengthAdjust="spacing" textLength="82" x="96" y="91.4966">initExchange</text><polygon fill="#181818" points="355,121.6953,365,125.6953,355,129.6953,359,125.6953" style="stroke:#181818;stroke-width:1.0;"/><line style="stroke:#181818;stroke-width:1.0;" x1="214" x2="361" y1="125.6953" y2="125.6953"/><text fill="#000000" font-family="sans-serif" font-size="13" lengthAdjust="spacing" textLength="24" x="221" y="120.6294">find</text><line style="stroke:#181818;stroke-width:1.0;" x1="367" x2="409" y1="154.8281" y2="154.8281"/><line style="stroke:#181818;stroke-width:1.0;" x1="409" x2="409" y1="154.8281" y2="167.8281"/><line style="stroke:#181818;stroke-width:1.0;" x1="368" x2="409" y1="167.8281" y2="167.8281"/><polygon fill="#181818" points="378,163.8281,368,167.8281,378,171.8281,374,167.8281" style="stroke:#181818;stroke-width:1.0;"/><text fill="#000000" font-family="sans-serif" font-size="13" lengthAdjust="spacing" textLength="145" x="374" y="149.7622">findHealthyConnection</text><line style="stroke:#181818;stroke-width:1.0;" x1="367" x2="409" y1="196.9609" y2="196.9609"/><line style="stroke:#181818;stroke-width:1.0;" x1="409" x2="409" y1="196.9609" y2="209.9609"/><line style="stroke:#181818;stroke-width:1.0;" x1="368" x2="409" y1="209.9609" y2="209.9609"/><polygon fill="#181818" points="378,205.9609,368,209.9609,378,213.9609,374,209.9609" style="stroke:#181818;stroke-width:1.0;"/><text fill="#000000" font-family="sans-serif" font-size="13" lengthAdjust="spacing" textLength="96" x="374" y="191.895">findConnection</text><polygon fill="#181818" points="225,235.0938,215,239.0938,225,243.0938,221,239.0938" style="stroke:#181818;stroke-width:1.0;"/><line style="stroke:#181818;stroke-width:1.0;stroke-dasharray:2.0,2.0;" x1="219" x2="366" y1="239.0938" y2="239.0938"/><text fill="#000000" font-family="sans-serif" font-size="13" lengthAdjust="spacing" textLength="129" x="231" y="234.0278">&#36820;&#22238;ExchangeCodec</text><polygon fill="#181818" points="472.5,264.2266,482.5,268.2266,472.5,272.2266,476.5,268.2266" style="stroke:#181818;stroke-width:1.0;"/><line style="stroke:#181818;stroke-width:1.0;" x1="214" x2="478.5" y1="268.2266" y2="268.2266"/><text fill="#000000" font-family="sans-serif" font-size="13" lengthAdjust="spacing" textLength="27" x="221" y="263.1606">new</text><rect fill="#E2E2F0" height="30.2969" rx="2.5" ry="2.5" style="stroke:#181818;stroke-width:0.5;" width="83" x="484.5" y="247.0938"/><text fill="#000000" font-family="sans-serif" font-size="14" lengthAdjust="spacing" textLength="69" x="491.5" y="267.0889">Exchange</text><polygon fill="#181818" points="565.5,305.5234,575.5,309.5234,565.5,313.5234,569.5,309.5234" style="stroke:#181818;stroke-width:1.0;"/><line style="stroke:#181818;stroke-width:1.0;" x1="214" x2="571.5" y1="309.5234" y2="309.5234"/><text fill="#000000" font-family="sans-serif" font-size="13" lengthAdjust="spacing" textLength="134" x="221" y="304.4575">copy (&#20256;&#20837;Exchange)</text><rect fill="#E2E2F0" height="30.2969" rx="2.5" ry="2.5" style="stroke:#181818;stroke-width:0.5;" width="169" x="577.5" y="288.3906"/><text fill="#000000" font-family="sans-serif" font-size="14" lengthAdjust="spacing" textLength="155" x="584.5" y="308.3857">RealInterceptorChain</text><polygon fill="#181818" points="650,346.8203,660,350.8203,650,354.8203,654,350.8203" style="stroke:#181818;stroke-width:1.0;"/><line style="stroke:#181818;stroke-width:1.0;" x1="214" x2="656" y1="350.8203" y2="350.8203"/><text fill="#000000" font-family="sans-serif" font-size="13" lengthAdjust="spacing" textLength="235" x="221" y="345.7544">proceed (&#25226;&#32593;&#32476;&#35831;&#27714;&#20132;&#32473;&#19979;&#19968;&#20010;&#25318;&#25130;&#22120;)</text><!--SRC=[YyxNjLDmpi_BIqqkySmhIIrAJYqeoIzIi5B8XF6ui4W3DGMb9kOu9-RaW9LcbhXM96SavgMdSi75WMfWWcwPUIcf84FJW0mkD55SwZo01fLaL49jpypF8rOZ7XsexdwnVyhJsVDWQfppKrAJiJfVGKiBg3eljHn55iH62XFdZCJCFA1AAuNa_89A1OqdUnOyRLqACqAJi5OhXOAY_EJKr1G5ZMTTNS_tJdo-UywBzTkVRMnwicl9yzqpd-peVhAZuScELS-wbpthMFLqvWfD0000]--></g></svg>