<?xml version="1.0" encoding="us-ascii" standalone="no"?><svg xmlns="http://www.w3.org/2000/svg" xmlns:xlink="http://www.w3.org/1999/xlink" contentStyleType="text/css" height="386px" preserveAspectRatio="none" style="width:345px;height:386px;background:#FFFFFF;" version="1.1" viewBox="0 0 345 386" width="345px" zoomAndPan="magnify"><defs/><g><!--class AbstractOwnableSynchronizer--><g id="elem_AbstractOwnableSynchronizer"><rect codeLine="1" fill="#F1F1F1" height="48" id="AbstractOwnableSynchronizer" rx="2.5" ry="2.5" style="stroke:#181818;stroke-width:0.5;" width="246" x="92" y="7"/><ellipse cx="107" cy="23" fill="#A9DCDF" rx="11" ry="11" style="stroke:#181818;stroke-width:1.0;"/><path d="M109.0781,24.8125 L109.4688,25.7969 L109.0781,25.7969 C108.625,25.7969 108.5156,25.8125 108.3594,25.9219 C108.1094,26.0781 107.9531,26.3594 107.9531,26.6563 C107.9531,26.9219 108.0938,27.1719 108.3125,27.3281 C108.4531,27.4531 108.6563,27.5 109.0781,27.5 L111.4375,27.5 C111.7969,27.5 112.0156,27.4688 112.1563,27.375 C112.4063,27.2344 112.5625,26.9375 112.5625,26.6563 C112.5625,26.375 112.4219,26.125 112.2031,25.9688 C112.0313,25.8281 111.875,25.7969 111.4063,25.7969 L108.0156,17.5938 L104.3438,17.5938 C103.8906,17.5938 103.7656,17.6094 103.6094,17.7031 C103.3594,17.875 103.2031,18.1563 103.2031,18.4375 C103.2031,18.7188 103.3438,18.9688 103.5625,19.1406 C103.7344,19.25 103.9063,19.2813 104.3438,19.2813 L105.4219,19.2813 L102.7813,25.7969 C102.3594,25.7969 102.2031,25.8125 102.0469,25.9219 C101.7969,26.0781 101.6406,26.3594 101.6406,26.6563 C101.6406,27.2188 102.0156,27.5 102.7656,27.5 L105.0313,27.5 C105.3906,27.5 105.6094,27.4688 105.7344,27.375 C106,27.2344 106.1406,26.9375 106.1406,26.6563 C106.1406,26.375 106.0156,26.125 105.7969,25.9531 C105.625,25.8281 105.4844,25.7969 105.0313,25.7969 L104.6406,25.7969 L105.0313,24.8125 L109.0781,24.8125 Z M108.375,23.1094 L105.7031,23.1094 L107.0469,19.8438 L108.375,23.1094 Z " fill="#000000"/><text fill="#000000" font-family="sans-serif" font-size="14" font-style="italic" lengthAdjust="spacing" textLength="214" x="121" y="27.8467">AbstractOwnableSynchronizer</text><line style="stroke:#181818;stroke-width:0.5;" x1="93" x2="337" y1="39" y2="39"/><line style="stroke:#181818;stroke-width:0.5;" x1="93" x2="337" y1="47" y2="47"/></g><!--class AbstractQueuedSynchronizer--><g id="elem_AbstractQueuedSynchronizer"><rect codeLine="2" fill="#F1F1F1" height="48" id="AbstractQueuedSynchronizer" rx="2.5" ry="2.5" style="stroke:#181818;stroke-width:0.5;" width="240" x="95" y="115"/><ellipse cx="110" cy="131" fill="#A9DCDF" rx="11" ry="11" style="stroke:#181818;stroke-width:1.0;"/><path d="M112.0781,132.8125 L112.4688,133.7969 L112.0781,133.7969 C111.625,133.7969 111.5156,133.8125 111.3594,133.9219 C111.1094,134.0781 110.9531,134.3594 110.9531,134.6563 C110.9531,134.9219 111.0938,135.1719 111.3125,135.3281 C111.4531,135.4531 111.6563,135.5 112.0781,135.5 L114.4375,135.5 C114.7969,135.5 115.0156,135.4688 115.1563,135.375 C115.4063,135.2344 115.5625,134.9375 115.5625,134.6563 C115.5625,134.375 115.4219,134.125 115.2031,133.9688 C115.0313,133.8281 114.875,133.7969 114.4063,133.7969 L111.0156,125.5938 L107.3438,125.5938 C106.8906,125.5938 106.7656,125.6094 106.6094,125.7031 C106.3594,125.875 106.2031,126.1563 106.2031,126.4375 C106.2031,126.7188 106.3438,126.9688 106.5625,127.1406 C106.7344,127.25 106.9063,127.2813 107.3438,127.2813 L108.4219,127.2813 L105.7813,133.7969 C105.3594,133.7969 105.2031,133.8125 105.0469,133.9219 C104.7969,134.0781 104.6406,134.3594 104.6406,134.6563 C104.6406,135.2188 105.0156,135.5 105.7656,135.5 L108.0313,135.5 C108.3906,135.5 108.6094,135.4688 108.7344,135.375 C109,135.2344 109.1406,134.9375 109.1406,134.6563 C109.1406,134.375 109.0156,134.125 108.7969,133.9531 C108.625,133.8281 108.4844,133.7969 108.0313,133.7969 L107.6406,133.7969 L108.0313,132.8125 L112.0781,132.8125 Z M111.375,131.1094 L108.7031,131.1094 L110.0469,127.8438 L111.375,131.1094 Z " fill="#000000"/><text fill="#000000" font-family="sans-serif" font-size="14" font-style="italic" lengthAdjust="spacing" textLength="208" x="124" y="135.8467">AbstractQueuedSynchronizer</text><line style="stroke:#181818;stroke-width:0.5;" x1="96" x2="334" y1="147" y2="147"/><line style="stroke:#181818;stroke-width:0.5;" x1="96" x2="334" y1="155" y2="155"/></g><!--class Sync--><g id="elem_Sync"><rect codeLine="3" fill="#F1F1F1" height="48" id="Sync" rx="2.5" ry="2.5" style="stroke:#181818;stroke-width:0.5;" width="66" x="182" y="223"/><ellipse cx="197" cy="239" fill="#A9DCDF" rx="11" ry="11" style="stroke:#181818;stroke-width:1.0;"/><path d="M199.0781,240.8125 L199.4688,241.7969 L199.0781,241.7969 C198.625,241.7969 198.5156,241.8125 198.3594,241.9219 C198.1094,242.0781 197.9531,242.3594 197.9531,242.6563 C197.9531,242.9219 198.0938,243.1719 198.3125,243.3281 C198.4531,243.4531 198.6563,243.5 199.0781,243.5 L201.4375,243.5 C201.7969,243.5 202.0156,243.4688 202.1563,243.375 C202.4063,243.2344 202.5625,242.9375 202.5625,242.6563 C202.5625,242.375 202.4219,242.125 202.2031,241.9688 C202.0313,241.8281 201.875,241.7969 201.4063,241.7969 L198.0156,233.5938 L194.3438,233.5938 C193.8906,233.5938 193.7656,233.6094 193.6094,233.7031 C193.3594,233.875 193.2031,234.1563 193.2031,234.4375 C193.2031,234.7188 193.3438,234.9688 193.5625,235.1406 C193.7344,235.25 193.9063,235.2813 194.3438,235.2813 L195.4219,235.2813 L192.7813,241.7969 C192.3594,241.7969 192.2031,241.8125 192.0469,241.9219 C191.7969,242.0781 191.6406,242.3594 191.6406,242.6563 C191.6406,243.2188 192.0156,243.5 192.7656,243.5 L195.0313,243.5 C195.3906,243.5 195.6094,243.4688 195.7344,243.375 C196,243.2344 196.1406,242.9375 196.1406,242.6563 C196.1406,242.375 196.0156,242.125 195.7969,241.9531 C195.625,241.8281 195.4844,241.7969 195.0313,241.7969 L194.6406,241.7969 L195.0313,240.8125 L199.0781,240.8125 Z M198.375,239.1094 L195.7031,239.1094 L197.0469,235.8438 L198.375,239.1094 Z " fill="#000000"/><text fill="#000000" font-family="sans-serif" font-size="14" font-style="italic" lengthAdjust="spacing" textLength="34" x="211" y="243.8467">Sync</text><line style="stroke:#181818;stroke-width:0.5;" x1="183" x2="247" y1="255" y2="255"/><line style="stroke:#181818;stroke-width:0.5;" x1="183" x2="247" y1="263" y2="263"/></g><!--class ReentrantLock--><g id="elem_ReentrantLock"><rect codeLine="4" fill="#ADD8E6" height="48" id="ReentrantLock" rx="2.5" ry="2.5" style="stroke:#181818;stroke-width:0.5;" width="140" x="7" y="223"/><ellipse cx="22" cy="239" fill="#ADD1B2" rx="11" ry="11" style="stroke:#181818;stroke-width:1.0;"/><path d="M24.3438,234.6719 C23.4063,234.2344 22.8125,234.0938 21.9375,234.0938 C19.3125,234.0938 17.3125,236.1719 17.3125,238.8906 L17.3125,240.0156 C17.3125,242.5938 19.4219,244.4844 22.3125,244.4844 C23.5313,244.4844 24.6875,244.1875 25.4375,243.6406 C26.0156,243.2344 26.3438,242.7813 26.3438,242.3906 C26.3438,241.9375 25.9531,241.5469 25.4844,241.5469 C25.2656,241.5469 25.0625,241.625 24.875,241.8125 C24.4219,242.2969 24.4219,242.2969 24.2344,242.3906 C23.8125,242.6563 23.125,242.7813 22.3594,242.7813 C20.3125,242.7813 19.0156,241.6875 19.0156,239.9844 L19.0156,238.8906 C19.0156,237.1094 20.2656,235.7969 22,235.7969 C22.5781,235.7969 23.1875,235.9531 23.6563,236.2031 C24.1406,236.4844 24.3125,236.7031 24.4063,237.1094 C24.4688,237.5156 24.5,237.6406 24.6406,237.7656 C24.7813,237.9063 25.0156,238.0156 25.2344,238.0156 C25.5,238.0156 25.7656,237.875 25.9375,237.6563 C26.0469,237.5 26.0781,237.3125 26.0781,236.8906 L26.0781,235.4688 C26.0781,235.0313 26.0625,234.9063 25.9688,234.75 C25.8125,234.4844 25.5313,234.3438 25.2344,234.3438 C24.9375,234.3438 24.7344,234.4375 24.5156,234.75 L24.3438,234.6719 Z " fill="#000000"/><text fill="#000000" font-family="sans-serif" font-size="14" lengthAdjust="spacing" textLength="108" x="36" y="243.8467">ReentrantLock</text><line style="stroke:#181818;stroke-width:0.5;" x1="8" x2="146" y1="255" y2="255"/><line style="stroke:#181818;stroke-width:0.5;" x1="8" x2="146" y1="263" y2="263"/></g><!--class NonfairSync--><g id="elem_NonfairSync"><rect fill="#F1F1F1" height="48" id="NonfairSync" rx="2.5" ry="2.5" style="stroke:#181818;stroke-width:0.5;" width="118" x="86" y="331"/><ellipse cx="101" cy="347" fill="#ADD1B2" rx="11" ry="11" style="stroke:#181818;stroke-width:1.0;"/><path d="M103.3438,342.6719 C102.4063,342.2344 101.8125,342.0938 100.9375,342.0938 C98.3125,342.0938 96.3125,344.1719 96.3125,346.8906 L96.3125,348.0156 C96.3125,350.5938 98.4219,352.4844 101.3125,352.4844 C102.5313,352.4844 103.6875,352.1875 104.4375,351.6406 C105.0156,351.2344 105.3438,350.7813 105.3438,350.3906 C105.3438,349.9375 104.9531,349.5469 104.4844,349.5469 C104.2656,349.5469 104.0625,349.625 103.875,349.8125 C103.4219,350.2969 103.4219,350.2969 103.2344,350.3906 C102.8125,350.6563 102.125,350.7813 101.3594,350.7813 C99.3125,350.7813 98.0156,349.6875 98.0156,347.9844 L98.0156,346.8906 C98.0156,345.1094 99.2656,343.7969 101,343.7969 C101.5781,343.7969 102.1875,343.9531 102.6563,344.2031 C103.1406,344.4844 103.3125,344.7031 103.4063,345.1094 C103.4688,345.5156 103.5,345.6406 103.6406,345.7656 C103.7813,345.9063 104.0156,346.0156 104.2344,346.0156 C104.5,346.0156 104.7656,345.875 104.9375,345.6563 C105.0469,345.5 105.0781,345.3125 105.0781,344.8906 L105.0781,343.4688 C105.0781,343.0313 105.0625,342.9063 104.9688,342.75 C104.8125,342.4844 104.5313,342.3438 104.2344,342.3438 C103.9375,342.3438 103.7344,342.4375 103.5156,342.75 L103.3438,342.6719 Z " fill="#000000"/><text fill="#000000" font-family="sans-serif" font-size="14" lengthAdjust="spacing" textLength="86" x="115" y="351.8467">NonfairSync</text><line style="stroke:#181818;stroke-width:0.5;" x1="87" x2="203" y1="363" y2="363"/><line style="stroke:#181818;stroke-width:0.5;" x1="87" x2="203" y1="371" y2="371"/></g><!--class FairSync--><g id="elem_FairSync"><rect fill="#F1F1F1" height="48" id="FairSync" rx="2.5" ry="2.5" style="stroke:#181818;stroke-width:0.5;" width="92" x="239" y="331"/><ellipse cx="254" cy="347" fill="#ADD1B2" rx="11" ry="11" style="stroke:#181818;stroke-width:1.0;"/><path d="M256.3438,342.6719 C255.4063,342.2344 254.8125,342.0938 253.9375,342.0938 C251.3125,342.0938 249.3125,344.1719 249.3125,346.8906 L249.3125,348.0156 C249.3125,350.5938 251.4219,352.4844 254.3125,352.4844 C255.5313,352.4844 256.6875,352.1875 257.4375,351.6406 C258.0156,351.2344 258.3438,350.7813 258.3438,350.3906 C258.3438,349.9375 257.9531,349.5469 257.4844,349.5469 C257.2656,349.5469 257.0625,349.625 256.875,349.8125 C256.4219,350.2969 256.4219,350.2969 256.2344,350.3906 C255.8125,350.6563 255.125,350.7813 254.3594,350.7813 C252.3125,350.7813 251.0156,349.6875 251.0156,347.9844 L251.0156,346.8906 C251.0156,345.1094 252.2656,343.7969 254,343.7969 C254.5781,343.7969 255.1875,343.9531 255.6563,344.2031 C256.1406,344.4844 256.3125,344.7031 256.4063,345.1094 C256.4688,345.5156 256.5,345.6406 256.6406,345.7656 C256.7813,345.9063 257.0156,346.0156 257.2344,346.0156 C257.5,346.0156 257.7656,345.875 257.9375,345.6563 C258.0469,345.5 258.0781,345.3125 258.0781,344.8906 L258.0781,343.4688 C258.0781,343.0313 258.0625,342.9063 257.9688,342.75 C257.8125,342.4844 257.5313,342.3438 257.2344,342.3438 C256.9375,342.3438 256.7344,342.4375 256.5156,342.75 L256.3438,342.6719 Z " fill="#000000"/><text fill="#000000" font-family="sans-serif" font-size="14" lengthAdjust="spacing" textLength="60" x="268" y="351.8467">FairSync</text><line style="stroke:#181818;stroke-width:0.5;" x1="240" x2="330" y1="363" y2="363"/><line style="stroke:#181818;stroke-width:0.5;" x1="240" x2="330" y1="371" y2="371"/></g><!--reverse link ReentrantLock to Sync--><g id="link_ReentrantLock_Sync"><path codeLine="5" d="M159.078,247 C170.664,247 170.249,247 181.835,247 " fill="none" id="ReentrantLock-backto-Sync" style="stroke:#181818;stroke-width:1.0;"/><polygon fill="#181818" points="147.078,247,153.078,251,159.078,247,153.078,243,147.078,247" style="stroke:#181818;stroke-width:1.0;"/></g><!--reverse link AbstractOwnableSynchronizer to AbstractQueuedSynchronizer--><g id="link_AbstractOwnableSynchronizer_AbstractQueuedSynchronizer"><path codeLine="6" d="M215,73 C215,90.658 215,96.941 215,114.678 " fill="none" id="AbstractOwnableSynchronizer-backto-AbstractQueuedSynchronizer" style="stroke:#181818;stroke-width:1.0;"/><polygon fill="none" points="215,55,209,73,221,73,215,55" style="stroke:#181818;stroke-width:1.0;"/></g><!--reverse link AbstractQueuedSynchronizer to Sync--><g id="link_AbstractQueuedSynchronizer_Sync"><path codeLine="7" d="M215,181 C215,198.658 215,204.941 215,222.678 " fill="none" id="AbstractQueuedSynchronizer-backto-Sync" style="stroke:#181818;stroke-width:1.0;"/><polygon fill="none" points="215,163,209,181,221,181,215,163" style="stroke:#181818;stroke-width:1.0;"/></g><!--reverse link Sync to NonfairSync--><g id="link_Sync_NonfairSync"><path codeLine="8" d="M189.892,286.0204 C178.231,303.6788 172.115,312.9408 160.401,330.6784 " fill="none" id="Sync-backto-NonfairSync" style="stroke:#181818;stroke-width:1.0;"/><polygon fill="none" points="199.811,271,184.8852,282.7141,194.8988,289.3268,199.811,271" style="stroke:#181818;stroke-width:1.0;"/></g><!--reverse link Sync to FairSync--><g id="link_Sync_FairSync"><path codeLine="9" d="M240.108,286.0204 C251.769,303.6788 257.885,312.9408 269.599,330.6784 " fill="none" id="Sync-backto-FairSync" style="stroke:#181818;stroke-width:1.0;"/><polygon fill="none" points="230.189,271,235.1012,289.3268,245.1148,282.7141,230.189,271" style="stroke:#181818;stroke-width:1.0;"/></g><!--SRC=[IqmgBYbAJ2vHS8Go_Clp4fDoKeChyv8pYlBpCgjIYxWIqHK5bgQMfgPWLmCIvKhEIImkLWXAJSq32kQL-EGdPoievsIcPvGavPIcSg5AQEb2DE4sNK6tj42tnWwl8q4ST7LOt0bMPbEZgwlWbv-NbfXP1BOQ8Ue65G80]--></g></svg>