<?xml version="1.0" encoding="us-ascii" standalone="no"?><svg xmlns="http://www.w3.org/2000/svg" xmlns:xlink="http://www.w3.org/1999/xlink" contentStyleType="text/css" height="609px" preserveAspectRatio="none" style="width:982px;height:609px;background:#FFFFFF;" version="1.1" viewBox="0 0 982 609" width="982px" zoomAndPan="magnify"><defs/><g><rect fill="#FFFFFF" height="114.6953" style="stroke:#181818;stroke-width:1.0;" width="10" x="108" y="67.4297"/><rect fill="#FFFFFF" height="353.7578" style="stroke:#181818;stroke-width:1.0;" width="10" x="108" y="211.2578"/><rect fill="#FFFFFF" height="85.5625" style="stroke:#181818;stroke-width:1.0;" width="10" x="348.5" y="96.5625"/><rect fill="#FFFFFF" height="266.3594" style="stroke:#181818;stroke-width:1.0;" width="10" x="637.5" y="298.6563"/><rect fill="#FFFFFF" height="214.0938" style="stroke:#181818;stroke-width:1.0;" width="10" x="642.5" y="350.9219"/><rect fill="#FFFFFF" height="171.9609" style="stroke:#181818;stroke-width:1.0;" width="10" x="647.5" y="393.0547"/><line style="stroke:#181818;stroke-width:0.5;stroke-dasharray:5.0,5.0;" x1="113" x2="113" y1="36.2969" y2="574.0156"/><line style="stroke:#181818;stroke-width:0.5;stroke-dasharray:5.0,5.0;" x1="353" x2="353" y1="36.2969" y2="574.0156"/><line style="stroke:#181818;stroke-width:0.5;stroke-dasharray:5.0,5.0;" x1="642" x2="642" y1="135.2109" y2="574.0156"/><line style="stroke:#181818;stroke-width:0.5;stroke-dasharray:5.0,5.0;" x1="876" x2="876" y1="436.7031" y2="574.0156"/><rect fill="#E2E2F0" height="30.2969" rx="2.5" ry="2.5" style="stroke:#181818;stroke-width:0.5;" width="152" x="37" y="5"/><text fill="#000000" font-family="sans-serif" font-size="14" lengthAdjust="spacing" textLength="138" x="44" y="24.9951">SimpleDraweeView</text><rect fill="#E2E2F0" height="30.2969" rx="2.5" ry="2.5" style="stroke:#181818;stroke-width:0.5;" width="152" x="37" y="573.0156"/><text fill="#000000" font-family="sans-serif" font-size="14" lengthAdjust="spacing" textLength="138" x="44" y="593.0107">SimpleDraweeView</text><rect fill="#E2E2F0" height="30.2969" rx="2.5" ry="2.5" style="stroke:#181818;stroke-width:0.5;" width="309" x="199" y="5"/><text fill="#000000" font-family="sans-serif" font-size="14" lengthAdjust="spacing" textLength="295" x="206" y="24.9951">PipelineDraweeControllerBuilderSupplier</text><rect fill="#E2E2F0" height="30.2969" rx="2.5" ry="2.5" style="stroke:#181818;stroke-width:0.5;" width="309" x="199" y="573.0156"/><text fill="#000000" font-family="sans-serif" font-size="14" lengthAdjust="spacing" textLength="295" x="206" y="593.0107">PipelineDraweeControllerBuilderSupplier</text><rect fill="#E2E2F0" height="30.2969" rx="2.5" ry="2.5" style="stroke:#181818;stroke-width:0.5;" width="249" x="518" y="573.0156"/><text fill="#000000" font-family="sans-serif" font-size="14" lengthAdjust="spacing" textLength="235" x="525" y="593.0107">PipelineDraweeControllerBuilder</text><rect fill="#E2E2F0" height="30.2969" rx="2.5" ry="2.5" style="stroke:#181818;stroke-width:0.5;" width="199" x="777" y="573.0156"/><text fill="#000000" font-family="sans-serif" font-size="14" lengthAdjust="spacing" textLength="185" x="784" y="593.0107">PipelineDraweeController</text><rect fill="#FFFFFF" height="114.6953" style="stroke:#181818;stroke-width:1.0;" width="10" x="108" y="67.4297"/><rect fill="#FFFFFF" height="353.7578" style="stroke:#181818;stroke-width:1.0;" width="10" x="108" y="211.2578"/><rect fill="#FFFFFF" height="85.5625" style="stroke:#181818;stroke-width:1.0;" width="10" x="348.5" y="96.5625"/><rect fill="#FFFFFF" height="266.3594" style="stroke:#181818;stroke-width:1.0;" width="10" x="637.5" y="298.6563"/><rect fill="#FFFFFF" height="214.0938" style="stroke:#181818;stroke-width:1.0;" width="10" x="642.5" y="350.9219"/><rect fill="#FFFFFF" height="171.9609" style="stroke:#181818;stroke-width:1.0;" width="10" x="647.5" y="393.0547"/><ellipse cx="7.5" cy="66.6797" fill="none" rx="4" ry="4" style="stroke:#181818;stroke-width:1.5;"/><polygon fill="#181818" points="96,63.4297,106,67.4297,96,71.4297,100,67.4297" style="stroke:#181818;stroke-width:1.0;"/><line style="stroke:#181818;stroke-width:1.0;" x1="12" x2="102" y1="67.4297" y2="67.4297"/><text fill="#000000" font-family="sans-serif" font-size="13" lengthAdjust="spacing" textLength="19" x="15" y="62.3638">init</text><polygon fill="#181818" points="336.5,92.5625,346.5,96.5625,336.5,100.5625,340.5,96.5625" style="stroke:#181818;stroke-width:1.0;"/><line style="stroke:#181818;stroke-width:1.0;" x1="118" x2="342.5" y1="96.5625" y2="96.5625"/><text fill="#000000" font-family="sans-serif" font-size="13" lengthAdjust="spacing" textLength="31" x="125" y="91.4966">get()</text><polygon fill="#181818" points="506,106.5625,516,110.5625,506,114.5625,510,110.5625" style="stroke:#181818;stroke-width:1.0;"/><line style="stroke:#181818;stroke-width:1.0;" x1="358.5" x2="512" y1="110.5625" y2="110.5625"/><rect fill="#E2E2F0" height="30.2969" rx="2.5" ry="2.5" style="stroke:#181818;stroke-width:0.5;" width="249" x="518" y="104.5625"/><text fill="#000000" font-family="sans-serif" font-size="14" lengthAdjust="spacing" textLength="235" x="525" y="124.5576">PipelineDraweeControllerBuilder</text><polygon fill="#181818" points="124,178.125,114,182.125,124,186.125,120,182.125" style="stroke:#181818;stroke-width:1.0;"/><line style="stroke:#181818;stroke-width:1.0;stroke-dasharray:2.0,2.0;" x1="118" x2="352.5" y1="182.125" y2="182.125"/><text fill="#000000" font-family="sans-serif" font-size="13" lengthAdjust="spacing" textLength="26" x="130" y="161.9263">&#36820;&#22238;</text><text fill="#000000" font-family="sans-serif" font-size="13" lengthAdjust="spacing" textLength="204" x="130" y="177.0591">PipelineDraweeControllerBuilder</text><ellipse cx="7.5" cy="210.5078" fill="none" rx="4" ry="4" style="stroke:#181818;stroke-width:1.5;"/><polygon fill="#181818" points="96,207.2578,106,211.2578,96,215.2578,100,211.2578" style="stroke:#181818;stroke-width:1.0;"/><line style="stroke:#181818;stroke-width:1.0;" x1="12" x2="102" y1="211.2578" y2="211.2578"/><text fill="#000000" font-family="sans-serif" font-size="13" lengthAdjust="spacing" textLength="81" x="15" y="206.1919">setImageURI</text><polygon fill="#181818" points="630.5,236.3906,640.5,240.3906,630.5,244.3906,634.5,240.3906" style="stroke:#181818;stroke-width:1.0;"/><line style="stroke:#181818;stroke-width:1.0;" x1="118" x2="636.5" y1="240.3906" y2="240.3906"/><text fill="#000000" font-family="sans-serif" font-size="13" lengthAdjust="spacing" textLength="47" x="125" y="235.3247">setUri()</text><polygon fill="#181818" points="630.5,265.5234,640.5,269.5234,630.5,273.5234,634.5,269.5234" style="stroke:#181818;stroke-width:1.0;"/><line style="stroke:#181818;stroke-width:1.0;" x1="118" x2="636.5" y1="269.5234" y2="269.5234"/><text fill="#000000" font-family="sans-serif" font-size="13" lengthAdjust="spacing" textLength="113" x="125" y="264.4575">setOldController()</text><polygon fill="#181818" points="625.5,294.6563,635.5,298.6563,625.5,302.6563,629.5,298.6563" style="stroke:#181818;stroke-width:1.0;"/><line style="stroke:#181818;stroke-width:1.0;" x1="118" x2="631.5" y1="298.6563" y2="298.6563"/><text fill="#000000" font-family="sans-serif" font-size="13" lengthAdjust="spacing" textLength="92" x="125" y="293.5903">&#35843;&#29992;&#29238;&#31867;build()</text><line style="stroke:#181818;stroke-width:1.0;" x1="647.5" x2="694.5" y1="337.9219" y2="337.9219"/><line style="stroke:#181818;stroke-width:1.0;" x1="694.5" x2="694.5" y1="337.9219" y2="350.9219"/><line style="stroke:#181818;stroke-width:1.0;" x1="653.5" x2="694.5" y1="350.9219" y2="350.9219"/><polygon fill="#181818" points="663.5,346.9219,653.5,350.9219,663.5,354.9219,659.5,350.9219" style="stroke:#181818;stroke-width:1.0;"/><text fill="#000000" font-family="sans-serif" font-size="13" lengthAdjust="spacing" textLength="52" x="659.5" y="317.7231">&#35843;&#29992;&#29238;&#31867;</text><text fill="#000000" font-family="sans-serif" font-size="13" lengthAdjust="spacing" textLength="102" x="659.5" y="332.856">buildController()</text><line style="stroke:#181818;stroke-width:1.0;" x1="652.5" x2="699.5" y1="380.0547" y2="380.0547"/><line style="stroke:#181818;stroke-width:1.0;" x1="699.5" x2="699.5" y1="380.0547" y2="393.0547"/><line style="stroke:#181818;stroke-width:1.0;" x1="658.5" x2="699.5" y1="393.0547" y2="393.0547"/><polygon fill="#181818" points="668.5,389.0547,658.5,393.0547,668.5,397.0547,664.5,393.0547" style="stroke:#181818;stroke-width:1.0;"/><text fill="#000000" font-family="sans-serif" font-size="13" lengthAdjust="spacing" textLength="112" x="664.5" y="374.9888">obtainController()</text><polygon fill="#181818" points="765,423.1875,775,427.1875,765,431.1875,769,427.1875" style="stroke:#181818;stroke-width:1.0;"/><line style="stroke:#181818;stroke-width:1.0;" x1="657.5" x2="771" y1="427.1875" y2="427.1875"/><text fill="#000000" font-family="sans-serif" font-size="13" lengthAdjust="spacing" textLength="27" x="664.5" y="422.1216">new</text><rect fill="#E2E2F0" height="30.2969" rx="2.5" ry="2.5" style="stroke:#181818;stroke-width:0.5;" width="199" x="777" y="406.0547"/><text fill="#000000" font-family="sans-serif" font-size="14" lengthAdjust="spacing" textLength="185" x="784" y="426.0498">PipelineDraweeController</text><line style="stroke:#181818;stroke-width:1.0;" x1="657.5" x2="699.5" y1="513.8828" y2="513.8828"/><line style="stroke:#181818;stroke-width:1.0;" x1="699.5" x2="699.5" y1="513.8828" y2="526.8828"/><line style="stroke:#181818;stroke-width:1.0;" x1="658.5" x2="699.5" y1="526.8828" y2="526.8828"/><polygon fill="#181818" points="668.5,522.8828,658.5,526.8828,668.5,530.8828,664.5,526.8828" style="stroke:#181818;stroke-width:1.0;"/><text fill="#000000" font-family="sans-serif" font-size="13" lengthAdjust="spacing" textLength="52" x="664.5" y="463.4185">&#35843;&#29992;&#29238;&#31867;</text><text fill="#000000" font-family="sans-serif" font-size="13" lengthAdjust="spacing" textLength="189" x="664.5" y="478.5513">obtainDataSourceSupplier()&#65292;</text><text fill="#000000" font-family="sans-serif" font-size="13" lengthAdjust="spacing" textLength="91" x="664.5" y="493.6841">&#36820;&#22238;&#19968;&#20010;&#20869;&#37096;&#31867;</text><text fill="#000000" font-family="sans-serif" font-size="13" lengthAdjust="spacing" textLength="174" x="664.5" y="508.8169">Supplier&lt;DataSource&lt;T&gt;&gt;</text><polygon fill="#181818" points="129,552.0156,119,556.0156,129,560.0156,125,556.0156" style="stroke:#181818;stroke-width:1.0;"/><line style="stroke:#181818;stroke-width:1.0;stroke-dasharray:2.0,2.0;" x1="123" x2="646.5" y1="556.0156" y2="556.0156"/><text fill="#000000" font-family="sans-serif" font-size="13" lengthAdjust="spacing" textLength="187" x="135" y="550.9497">&#36820;&#22238;PipelineDraweeController</text><!--SRC=[YyxNjLC8pimjo4brAKeiJqqDoqmjLz3MjbB8pCiiuSAG0QfM2iWiICt9p8CAE-VdbHJbv-Ia5ZcLPkQaf1O5bnOKv6Ic5Yaf91Ohm3X08nMi5D9JIpGqkU1YH1W6DWJALj3IGjABpTswkbOAB_PFUJfxNamU0OEvKb8Jaqioon9BKZ7CuOh66Ih5gIMUkOdfgQ51dbW31-PKiChGeaoGTmafyyz9GJYFW0QG6rviQ7u-PSNpZctFD-vE0ea3zS3ayIYDoGChHh4AXxRyf9B4p3nSAd766JYo45nWV04zc0SCJopMeBiDOgLBOabYS7vfKN8gBA8rDD_lwOd9WyJganqDJtQiUjhM-h9v1LWNJ9KDGgDDY9qTma9iyGXB8xYy0G00]--></g></svg>