<?xml version="1.0" encoding="us-ascii" standalone="no"?><svg xmlns="http://www.w3.org/2000/svg" xmlns:xlink="http://www.w3.org/1999/xlink" contentStyleType="text/css" height="758px" preserveAspectRatio="none" style="width:777px;height:758px;background:#FFFFFF;" version="1.1" viewBox="0 0 777 758" width="777px" zoomAndPan="magnify"><defs/><g><!--class PooledByteBuffer--><g id="elem_PooledByteBuffer"><rect codeLine="1" fill="#F1F1F1" height="48" id="PooledByteBuffer" rx="2.5" ry="2.5" style="stroke:#181818;stroke-width:0.5;" width="156" x="309" y="347"/><ellipse cx="324" cy="363" fill="#B4A7E5" rx="11" ry="11" style="stroke:#181818;stroke-width:1.0;"/><path d="M324.9531,359.7813 L326.6719,359.7813 C327.0625,359.7813 327.25,359.75 327.375,359.6719 C327.6406,359.5156 327.7813,359.2344 327.7813,358.9375 C327.7813,358.6719 327.6719,358.4063 327.4375,358.2344 C327.2656,358.125 327.125,358.0938 326.6719,358.0938 L321.5313,358.0938 C321.0938,358.0938 320.9688,358.1094 320.8125,358.2031 C320.5625,358.3594 320.4063,358.6563 320.4063,358.9375 C320.4063,359.2188 320.5469,359.4688 320.7656,359.6406 C320.9219,359.75 321.1094,359.7813 321.5313,359.7813 L323.25,359.7813 L323.25,366.2969 L321.5313,366.2969 C321.0938,366.2969 320.9688,366.3125 320.8125,366.4219 C320.5625,366.5781 320.4063,366.8594 320.4063,367.1563 C320.4063,367.4063 320.5469,367.6719 320.7656,367.8281 C320.9219,367.9531 321.125,368 321.5313,368 L326.6719,368 C327.4219,368 327.7813,367.7188 327.7813,367.1563 C327.7813,366.875 327.6719,366.625 327.4375,366.4531 C327.2656,366.3281 327.125,366.2969 326.6719,366.2969 L324.9531,366.2969 L324.9531,359.7813 Z " fill="#000000"/><text fill="#000000" font-family="sans-serif" font-size="14" font-style="italic" lengthAdjust="spacing" textLength="124" x="338" y="367.8467">PooledByteBuffer</text><line style="stroke:#181818;stroke-width:0.5;" x1="310" x2="464" y1="379" y2="379"/><line style="stroke:#181818;stroke-width:0.5;" x1="310" x2="464" y1="387" y2="387"/></g><!--class CloseableReference--><g id="elem_CloseableReference"><rect codeLine="2" fill="#F1F1F1" height="48" id="CloseableReference" rx="2.5" ry="2.5" style="stroke:#181818;stroke-width:0.5;" width="283" x="200.5" y="115"/><ellipse cx="215.5" cy="131" fill="#ADD1B2" rx="11" ry="11" style="stroke:#181818;stroke-width:1.0;"/><path d="M217.8438,126.6719 C216.9063,126.2344 216.3125,126.0938 215.4375,126.0938 C212.8125,126.0938 210.8125,128.1719 210.8125,130.8906 L210.8125,132.0156 C210.8125,134.5938 212.9219,136.4844 215.8125,136.4844 C217.0313,136.4844 218.1875,136.1875 218.9375,135.6406 C219.5156,135.2344 219.8438,134.7813 219.8438,134.3906 C219.8438,133.9375 219.4531,133.5469 218.9844,133.5469 C218.7656,133.5469 218.5625,133.625 218.375,133.8125 C217.9219,134.2969 217.9219,134.2969 217.7344,134.3906 C217.3125,134.6563 216.625,134.7813 215.8594,134.7813 C213.8125,134.7813 212.5156,133.6875 212.5156,131.9844 L212.5156,130.8906 C212.5156,129.1094 213.7656,127.7969 215.5,127.7969 C216.0781,127.7969 216.6875,127.9531 217.1563,128.2031 C217.6406,128.4844 217.8125,128.7031 217.9063,129.1094 C217.9688,129.5156 218,129.6406 218.1406,129.7656 C218.2813,129.9063 218.5156,130.0156 218.7344,130.0156 C219,130.0156 219.2656,129.875 219.4375,129.6563 C219.5469,129.5 219.5781,129.3125 219.5781,128.8906 L219.5781,127.4688 C219.5781,127.0313 219.5625,126.9063 219.4688,126.75 C219.3125,126.4844 219.0313,126.3438 218.7344,126.3438 C218.4375,126.3438 218.2344,126.4375 218.0156,126.75 L217.8438,126.6719 Z " fill="#000000"/><text fill="#000000" font-family="sans-serif" font-size="14" lengthAdjust="spacing" textLength="145" x="229.5" y="135.8467">CloseableReference</text><rect fill="#FFFFFF" height="15.9688" style="stroke:#181818;stroke-width:1.0;stroke-dasharray:2.0,2.0;" width="104" x="382.5" y="112"/><text fill="#000000" font-family="sans-serif" font-size="12" font-style="italic" lengthAdjust="spacing" textLength="102" x="383.5" y="124.1387">PooledByteBuffer</text><line style="stroke:#181818;stroke-width:0.5;" x1="201.5" x2="482.5" y1="147" y2="147"/><line style="stroke:#181818;stroke-width:0.5;" x1="201.5" x2="482.5" y1="155" y2="155"/></g><!--class EncodedImage--><g id="elem_EncodedImage"><rect fill="#F1F1F1" height="48" id="EncodedImage" rx="2.5" ry="2.5" style="stroke:#181818;stroke-width:0.5;" width="138" x="273" y="7"/><ellipse cx="288" cy="23" fill="#ADD1B2" rx="11" ry="11" style="stroke:#181818;stroke-width:1.0;"/><path d="M290.3438,18.6719 C289.4063,18.2344 288.8125,18.0938 287.9375,18.0938 C285.3125,18.0938 283.3125,20.1719 283.3125,22.8906 L283.3125,24.0156 C283.3125,26.5938 285.4219,28.4844 288.3125,28.4844 C289.5313,28.4844 290.6875,28.1875 291.4375,27.6406 C292.0156,27.2344 292.3438,26.7813 292.3438,26.3906 C292.3438,25.9375 291.9531,25.5469 291.4844,25.5469 C291.2656,25.5469 291.0625,25.625 290.875,25.8125 C290.4219,26.2969 290.4219,26.2969 290.2344,26.3906 C289.8125,26.6563 289.125,26.7813 288.3594,26.7813 C286.3125,26.7813 285.0156,25.6875 285.0156,23.9844 L285.0156,22.8906 C285.0156,21.1094 286.2656,19.7969 288,19.7969 C288.5781,19.7969 289.1875,19.9531 289.6563,20.2031 C290.1406,20.4844 290.3125,20.7031 290.4063,21.1094 C290.4688,21.5156 290.5,21.6406 290.6406,21.7656 C290.7813,21.9063 291.0156,22.0156 291.2344,22.0156 C291.5,22.0156 291.7656,21.875 291.9375,21.6563 C292.0469,21.5 292.0781,21.3125 292.0781,20.8906 L292.0781,19.4688 C292.0781,19.0313 292.0625,18.9063 291.9688,18.75 C291.8125,18.4844 291.5313,18.3438 291.2344,18.3438 C290.9375,18.3438 290.7344,18.4375 290.5156,18.75 L290.3438,18.6719 Z " fill="#000000"/><text fill="#000000" font-family="sans-serif" font-size="14" lengthAdjust="spacing" textLength="106" x="302" y="27.8467">EncodedImage</text><line style="stroke:#181818;stroke-width:0.5;" x1="274" x2="410" y1="39" y2="39"/><line style="stroke:#181818;stroke-width:0.5;" x1="274" x2="410" y1="47" y2="47"/></g><!--class MemoryPooledByteBuffer--><g id="elem_MemoryPooledByteBuffer"><rect codeLine="4" fill="#F1F1F1" height="64.2969" id="MemoryPooledByteBuffer" rx="2.5" ry="2.5" style="stroke:#181818;stroke-width:0.5;" width="218" x="181" y="455"/><ellipse cx="196" cy="471" fill="#ADD1B2" rx="11" ry="11" style="stroke:#181818;stroke-width:1.0;"/><path d="M198.3438,466.6719 C197.4063,466.2344 196.8125,466.0938 195.9375,466.0938 C193.3125,466.0938 191.3125,468.1719 191.3125,470.8906 L191.3125,472.0156 C191.3125,474.5938 193.4219,476.4844 196.3125,476.4844 C197.5313,476.4844 198.6875,476.1875 199.4375,475.6406 C200.0156,475.2344 200.3438,474.7813 200.3438,474.3906 C200.3438,473.9375 199.9531,473.5469 199.4844,473.5469 C199.2656,473.5469 199.0625,473.625 198.875,473.8125 C198.4219,474.2969 198.4219,474.2969 198.2344,474.3906 C197.8125,474.6563 197.125,474.7813 196.3594,474.7813 C194.3125,474.7813 193.0156,473.6875 193.0156,471.9844 L193.0156,470.8906 C193.0156,469.1094 194.2656,467.7969 196,467.7969 C196.5781,467.7969 197.1875,467.9531 197.6563,468.2031 C198.1406,468.4844 198.3125,468.7031 198.4063,469.1094 C198.4688,469.5156 198.5,469.6406 198.6406,469.7656 C198.7813,469.9063 199.0156,470.0156 199.2344,470.0156 C199.5,470.0156 199.7656,469.875 199.9375,469.6563 C200.0469,469.5 200.0781,469.3125 200.0781,468.8906 L200.0781,467.4688 C200.0781,467.0313 200.0625,466.9063 199.9688,466.75 C199.8125,466.4844 199.5313,466.3438 199.2344,466.3438 C198.9375,466.3438 198.7344,466.4375 198.5156,466.75 L198.3438,466.6719 Z " fill="#000000"/><text fill="#000000" font-family="sans-serif" font-size="14" lengthAdjust="spacing" textLength="186" x="210" y="475.8467">MemoryPooledByteBuffer</text><line style="stroke:#181818;stroke-width:0.5;" x1="182" x2="398" y1="487" y2="487"/><line style="stroke:#181818;stroke-width:0.5;" x1="182" x2="398" y1="495" y2="495"/><text fill="#000000" font-family="sans-serif" font-size="14" lengthAdjust="spacing" textLength="47" x="187" y="511.9951">close()</text></g><!--class DefaultCloseableReference--><g id="elem_DefaultCloseableReference"><rect codeLine="8" fill="#F1F1F1" height="48" id="DefaultCloseableReference" rx="2.5" ry="2.5" style="stroke:#181818;stroke-width:0.5;" width="336" x="7" y="231"/><ellipse cx="22" cy="247" fill="#ADD1B2" rx="11" ry="11" style="stroke:#181818;stroke-width:1.0;"/><path d="M24.3438,242.6719 C23.4063,242.2344 22.8125,242.0938 21.9375,242.0938 C19.3125,242.0938 17.3125,244.1719 17.3125,246.8906 L17.3125,248.0156 C17.3125,250.5938 19.4219,252.4844 22.3125,252.4844 C23.5313,252.4844 24.6875,252.1875 25.4375,251.6406 C26.0156,251.2344 26.3438,250.7813 26.3438,250.3906 C26.3438,249.9375 25.9531,249.5469 25.4844,249.5469 C25.2656,249.5469 25.0625,249.625 24.875,249.8125 C24.4219,250.2969 24.4219,250.2969 24.2344,250.3906 C23.8125,250.6563 23.125,250.7813 22.3594,250.7813 C20.3125,250.7813 19.0156,249.6875 19.0156,247.9844 L19.0156,246.8906 C19.0156,245.1094 20.2656,243.7969 22,243.7969 C22.5781,243.7969 23.1875,243.9531 23.6563,244.2031 C24.1406,244.4844 24.3125,244.7031 24.4063,245.1094 C24.4688,245.5156 24.5,245.6406 24.6406,245.7656 C24.7813,245.9063 25.0156,246.0156 25.2344,246.0156 C25.5,246.0156 25.7656,245.875 25.9375,245.6563 C26.0469,245.5 26.0781,245.3125 26.0781,244.8906 L26.0781,243.4688 C26.0781,243.0313 26.0625,242.9063 25.9688,242.75 C25.8125,242.4844 25.5313,242.3438 25.2344,242.3438 C24.9375,242.3438 24.7344,242.4375 24.5156,242.75 L24.3438,242.6719 Z " fill="#000000"/><text fill="#000000" font-family="sans-serif" font-size="14" lengthAdjust="spacing" textLength="198" x="36" y="251.8467">DefaultCloseableReference</text><rect fill="#FFFFFF" height="15.9688" style="stroke:#181818;stroke-width:1.0;stroke-dasharray:2.0,2.0;" width="104" x="242" y="228"/><text fill="#000000" font-family="sans-serif" font-size="12" font-style="italic" lengthAdjust="spacing" textLength="102" x="243" y="240.1387">PooledByteBuffer</text><line style="stroke:#181818;stroke-width:0.5;" x1="8" x2="342" y1="263" y2="263"/><line style="stroke:#181818;stroke-width:0.5;" x1="8" x2="342" y1="271" y2="271"/></g><!--class SharedReference--><g id="elem_SharedReference"><rect codeLine="10" fill="#F1F1F1" height="64.2969" id="SharedReference" rx="2.5" ry="2.5" style="stroke:#181818;stroke-width:0.5;" width="263" x="378.5" y="223"/><ellipse cx="393.5" cy="239" fill="#ADD1B2" rx="11" ry="11" style="stroke:#181818;stroke-width:1.0;"/><path d="M395.8438,234.6719 C394.9063,234.2344 394.3125,234.0938 393.4375,234.0938 C390.8125,234.0938 388.8125,236.1719 388.8125,238.8906 L388.8125,240.0156 C388.8125,242.5938 390.9219,244.4844 393.8125,244.4844 C395.0313,244.4844 396.1875,244.1875 396.9375,243.6406 C397.5156,243.2344 397.8438,242.7813 397.8438,242.3906 C397.8438,241.9375 397.4531,241.5469 396.9844,241.5469 C396.7656,241.5469 396.5625,241.625 396.375,241.8125 C395.9219,242.2969 395.9219,242.2969 395.7344,242.3906 C395.3125,242.6563 394.625,242.7813 393.8594,242.7813 C391.8125,242.7813 390.5156,241.6875 390.5156,239.9844 L390.5156,238.8906 C390.5156,237.1094 391.7656,235.7969 393.5,235.7969 C394.0781,235.7969 394.6875,235.9531 395.1563,236.2031 C395.6406,236.4844 395.8125,236.7031 395.9063,237.1094 C395.9688,237.5156 396,237.6406 396.1406,237.7656 C396.2813,237.9063 396.5156,238.0156 396.7344,238.0156 C397,238.0156 397.2656,237.875 397.4375,237.6563 C397.5469,237.5 397.5781,237.3125 397.5781,236.8906 L397.5781,235.4688 C397.5781,235.0313 397.5625,234.9063 397.4688,234.75 C397.3125,234.4844 397.0313,234.3438 396.7344,234.3438 C396.4375,234.3438 396.2344,234.4375 396.0156,234.75 L395.8438,234.6719 Z " fill="#000000"/><text fill="#000000" font-family="sans-serif" font-size="14" lengthAdjust="spacing" textLength="125" x="407.5" y="243.8467">SharedReference</text><rect fill="#FFFFFF" height="15.9688" style="stroke:#181818;stroke-width:1.0;stroke-dasharray:2.0,2.0;" width="104" x="540.5" y="220"/><text fill="#000000" font-family="sans-serif" font-size="12" font-style="italic" lengthAdjust="spacing" textLength="102" x="541.5" y="232.1387">PooledByteBuffer</text><line style="stroke:#181818;stroke-width:0.5;" x1="379.5" x2="640.5" y1="255" y2="255"/><text fill="#000000" font-family="sans-serif" font-size="14" lengthAdjust="spacing" textLength="106" x="384.5" y="271.9951">int mRefCount</text><line style="stroke:#181818;stroke-width:0.5;" x1="379.5" x2="640.5" y1="279.2969" y2="279.2969"/></g><!--class ResourceReleaser--><g id="elem_ResourceReleaser"><rect codeLine="15" fill="#F1F1F1" height="48" id="ResourceReleaser" rx="2.5" ry="2.5" style="stroke:#181818;stroke-width:0.5;" width="266" x="500" y="347"/><ellipse cx="515" cy="363" fill="#ADD1B2" rx="11" ry="11" style="stroke:#181818;stroke-width:1.0;"/><path d="M517.3438,358.6719 C516.4063,358.2344 515.8125,358.0938 514.9375,358.0938 C512.3125,358.0938 510.3125,360.1719 510.3125,362.8906 L510.3125,364.0156 C510.3125,366.5938 512.4219,368.4844 515.3125,368.4844 C516.5313,368.4844 517.6875,368.1875 518.4375,367.6406 C519.0156,367.2344 519.3438,366.7813 519.3438,366.3906 C519.3438,365.9375 518.9531,365.5469 518.4844,365.5469 C518.2656,365.5469 518.0625,365.625 517.875,365.8125 C517.4219,366.2969 517.4219,366.2969 517.2344,366.3906 C516.8125,366.6563 516.125,366.7813 515.3594,366.7813 C513.3125,366.7813 512.0156,365.6875 512.0156,363.9844 L512.0156,362.8906 C512.0156,361.1094 513.2656,359.7969 515,359.7969 C515.5781,359.7969 516.1875,359.9531 516.6563,360.2031 C517.1406,360.4844 517.3125,360.7031 517.4063,361.1094 C517.4688,361.5156 517.5,361.6406 517.6406,361.7656 C517.7813,361.9063 518.0156,362.0156 518.2344,362.0156 C518.5,362.0156 518.7656,361.875 518.9375,361.6563 C519.0469,361.5 519.0781,361.3125 519.0781,360.8906 L519.0781,359.4688 C519.0781,359.0313 519.0625,358.9063 518.9688,358.75 C518.8125,358.4844 518.5313,358.3438 518.2344,358.3438 C517.9375,358.3438 517.7344,358.4375 517.5156,358.75 L517.3438,358.6719 Z " fill="#000000"/><text fill="#000000" font-family="sans-serif" font-size="14" lengthAdjust="spacing" textLength="128" x="529" y="367.8467">ResourceReleaser</text><rect fill="#FFFFFF" height="15.9688" style="stroke:#181818;stroke-width:1.0;stroke-dasharray:2.0,2.0;" width="104" x="665" y="344"/><text fill="#000000" font-family="sans-serif" font-size="12" font-style="italic" lengthAdjust="spacing" textLength="102" x="666" y="356.1387">PooledByteBuffer</text><line style="stroke:#181818;stroke-width:0.5;" x1="501" x2="765" y1="379" y2="379"/><line style="stroke:#181818;stroke-width:0.5;" x1="501" x2="765" y1="387" y2="387"/></g><!--class Closeable--><g id="elem_Closeable"><rect codeLine="17" fill="#F1F1F1" height="48" id="Closeable" rx="2.5" ry="2.5" style="stroke:#181818;stroke-width:0.5;" width="102" x="434" y="463"/><ellipse cx="449" cy="479" fill="#B4A7E5" rx="11" ry="11" style="stroke:#181818;stroke-width:1.0;"/><path d="M449.9531,475.7813 L451.6719,475.7813 C452.0625,475.7813 452.25,475.75 452.375,475.6719 C452.6406,475.5156 452.7813,475.2344 452.7813,474.9375 C452.7813,474.6719 452.6719,474.4063 452.4375,474.2344 C452.2656,474.125 452.125,474.0938 451.6719,474.0938 L446.5313,474.0938 C446.0938,474.0938 445.9688,474.1094 445.8125,474.2031 C445.5625,474.3594 445.4063,474.6563 445.4063,474.9375 C445.4063,475.2188 445.5469,475.4688 445.7656,475.6406 C445.9219,475.75 446.1094,475.7813 446.5313,475.7813 L448.25,475.7813 L448.25,482.2969 L446.5313,482.2969 C446.0938,482.2969 445.9688,482.3125 445.8125,482.4219 C445.5625,482.5781 445.4063,482.8594 445.4063,483.1563 C445.4063,483.4063 445.5469,483.6719 445.7656,483.8281 C445.9219,483.9531 446.125,484 446.5313,484 L451.6719,484 C452.4219,484 452.7813,483.7188 452.7813,483.1563 C452.7813,482.875 452.6719,482.625 452.4375,482.4531 C452.2656,482.3281 452.125,482.2969 451.6719,482.2969 L449.9531,482.2969 L449.9531,475.7813 Z " fill="#000000"/><text fill="#000000" font-family="sans-serif" font-size="14" font-style="italic" lengthAdjust="spacing" textLength="70" x="463" y="483.8467">Closeable</text><line style="stroke:#181818;stroke-width:0.5;" x1="435" x2="535" y1="495" y2="495"/><line style="stroke:#181818;stroke-width:0.5;" x1="435" x2="535" y1="503" y2="503"/></g><!--class CloseableReference2--><g id="elem_CloseableReference2"><rect codeLine="20" fill="#F1F1F1" height="48" id="CloseableReference2" rx="2.5" ry="2.5" style="stroke:#181818;stroke-width:0.5;" width="268" x="156" y="587"/><ellipse cx="171" cy="603" fill="#ADD1B2" rx="11" ry="11" style="stroke:#181818;stroke-width:1.0;"/><path d="M173.3438,598.6719 C172.4063,598.2344 171.8125,598.0938 170.9375,598.0938 C168.3125,598.0938 166.3125,600.1719 166.3125,602.8906 L166.3125,604.0156 C166.3125,606.5938 168.4219,608.4844 171.3125,608.4844 C172.5313,608.4844 173.6875,608.1875 174.4375,607.6406 C175.0156,607.2344 175.3438,606.7813 175.3438,606.3906 C175.3438,605.9375 174.9531,605.5469 174.4844,605.5469 C174.2656,605.5469 174.0625,605.625 173.875,605.8125 C173.4219,606.2969 173.4219,606.2969 173.2344,606.3906 C172.8125,606.6563 172.125,606.7813 171.3594,606.7813 C169.3125,606.7813 168.0156,605.6875 168.0156,603.9844 L168.0156,602.8906 C168.0156,601.1094 169.2656,599.7969 171,599.7969 C171.5781,599.7969 172.1875,599.9531 172.6563,600.2031 C173.1406,600.4844 173.3125,600.7031 173.4063,601.1094 C173.4688,601.5156 173.5,601.6406 173.6406,601.7656 C173.7813,601.9063 174.0156,602.0156 174.2344,602.0156 C174.5,602.0156 174.7656,601.875 174.9375,601.6563 C175.0469,601.5 175.0781,601.3125 175.0781,600.8906 L175.0781,599.4688 C175.0781,599.0313 175.0625,598.9063 174.9688,598.75 C174.8125,598.4844 174.5313,598.3438 174.2344,598.3438 C173.9375,598.3438 173.7344,598.4375 173.5156,598.75 L173.3438,598.6719 Z " fill="#000000"/><text fill="#000000" font-family="sans-serif" font-size="14" lengthAdjust="spacing" textLength="145" x="185" y="607.8467">CloseableReference</text><rect fill="#FFFFFF" height="15.9688" style="stroke:#181818;stroke-width:1.0;stroke-dasharray:2.0,2.0;" width="89" x="338" y="584"/><text fill="#000000" font-family="sans-serif" font-size="12" font-style="italic" lengthAdjust="spacing" textLength="87" x="339" y="596.1387">MemoryChunk</text><line style="stroke:#181818;stroke-width:0.5;" x1="157" x2="423" y1="619" y2="619"/><line style="stroke:#181818;stroke-width:0.5;" x1="157" x2="423" y1="627" y2="627"/></g><!--class MemoryChunkPool--><g id="elem_MemoryChunkPool"><rect codeLine="22" fill="#F1F1F1" height="48" id="MemoryChunkPool" rx="2.5" ry="2.5" style="stroke:#181818;stroke-width:0.5;" width="165" x="502.5" y="703"/><ellipse cx="517.5" cy="719" fill="#A9DCDF" rx="11" ry="11" style="stroke:#181818;stroke-width:1.0;"/><path d="M519.5781,720.8125 L519.9688,721.7969 L519.5781,721.7969 C519.125,721.7969 519.0156,721.8125 518.8594,721.9219 C518.6094,722.0781 518.4531,722.3594 518.4531,722.6563 C518.4531,722.9219 518.5938,723.1719 518.8125,723.3281 C518.9531,723.4531 519.1563,723.5 519.5781,723.5 L521.9375,723.5 C522.2969,723.5 522.5156,723.4688 522.6563,723.375 C522.9063,723.2344 523.0625,722.9375 523.0625,722.6563 C523.0625,722.375 522.9219,722.125 522.7031,721.9688 C522.5313,721.8281 522.375,721.7969 521.9063,721.7969 L518.5156,713.5938 L514.8438,713.5938 C514.3906,713.5938 514.2656,713.6094 514.1094,713.7031 C513.8594,713.875 513.7031,714.1563 513.7031,714.4375 C513.7031,714.7188 513.8438,714.9688 514.0625,715.1406 C514.2344,715.25 514.4063,715.2813 514.8438,715.2813 L515.9219,715.2813 L513.2813,721.7969 C512.8594,721.7969 512.7031,721.8125 512.5469,721.9219 C512.2969,722.0781 512.1406,722.3594 512.1406,722.6563 C512.1406,723.2188 512.5156,723.5 513.2656,723.5 L515.5313,723.5 C515.8906,723.5 516.1094,723.4688 516.2344,723.375 C516.5,723.2344 516.6406,722.9375 516.6406,722.6563 C516.6406,722.375 516.5156,722.125 516.2969,721.9531 C516.125,721.8281 515.9844,721.7969 515.5313,721.7969 L515.1406,721.7969 L515.5313,720.8125 L519.5781,720.8125 Z M518.875,719.1094 L516.2031,719.1094 L517.5469,715.8438 L518.875,719.1094 Z " fill="#000000"/><text fill="#000000" font-family="sans-serif" font-size="14" font-style="italic" lengthAdjust="spacing" textLength="133" x="531.5" y="723.8467">MemoryChunkPool</text><line style="stroke:#181818;stroke-width:0.5;" x1="503.5" x2="666.5" y1="735" y2="735"/><line style="stroke:#181818;stroke-width:0.5;" x1="503.5" x2="666.5" y1="743" y2="743"/></g><!--class ResourceReleaser2--><g id="elem_ResourceReleaser2"><rect codeLine="23" fill="#F1F1F1" height="64.2969" id="ResourceReleaser2" rx="2.5" ry="2.5" style="stroke:#181818;stroke-width:0.5;" width="251" x="459.5" y="579"/><ellipse cx="474.5" cy="595" fill="#ADD1B2" rx="11" ry="11" style="stroke:#181818;stroke-width:1.0;"/><path d="M476.8438,590.6719 C475.9063,590.2344 475.3125,590.0938 474.4375,590.0938 C471.8125,590.0938 469.8125,592.1719 469.8125,594.8906 L469.8125,596.0156 C469.8125,598.5938 471.9219,600.4844 474.8125,600.4844 C476.0313,600.4844 477.1875,600.1875 477.9375,599.6406 C478.5156,599.2344 478.8438,598.7813 478.8438,598.3906 C478.8438,597.9375 478.4531,597.5469 477.9844,597.5469 C477.7656,597.5469 477.5625,597.625 477.375,597.8125 C476.9219,598.2969 476.9219,598.2969 476.7344,598.3906 C476.3125,598.6563 475.625,598.7813 474.8594,598.7813 C472.8125,598.7813 471.5156,597.6875 471.5156,595.9844 L471.5156,594.8906 C471.5156,593.1094 472.7656,591.7969 474.5,591.7969 C475.0781,591.7969 475.6875,591.9531 476.1563,592.2031 C476.6406,592.4844 476.8125,592.7031 476.9063,593.1094 C476.9688,593.5156 477,593.6406 477.1406,593.7656 C477.2813,593.9063 477.5156,594.0156 477.7344,594.0156 C478,594.0156 478.2656,593.875 478.4375,593.6563 C478.5469,593.5 478.5781,593.3125 478.5781,592.8906 L478.5781,591.4688 C478.5781,591.0313 478.5625,590.9063 478.4688,590.75 C478.3125,590.4844 478.0313,590.3438 477.7344,590.3438 C477.4375,590.3438 477.2344,590.4375 477.0156,590.75 L476.8438,590.6719 Z " fill="#000000"/><text fill="#000000" font-family="sans-serif" font-size="14" lengthAdjust="spacing" textLength="128" x="488.5" y="599.8467">ResourceReleaser</text><rect fill="#FFFFFF" height="15.9688" style="stroke:#181818;stroke-width:1.0;stroke-dasharray:2.0,2.0;" width="89" x="624.5" y="576"/><text fill="#000000" font-family="sans-serif" font-size="12" font-style="italic" lengthAdjust="spacing" textLength="87" x="625.5" y="588.1387">MemoryChunk</text><line style="stroke:#181818;stroke-width:0.5;" x1="460.5" x2="709.5" y1="611" y2="611"/><line style="stroke:#181818;stroke-width:0.5;" x1="460.5" x2="709.5" y1="619" y2="619"/><text fill="#000000" font-family="sans-serif" font-size="14" lengthAdjust="spacing" textLength="62" x="465.5" y="635.9951">release()</text></g><!--class MemoryChunk--><g id="elem_MemoryChunk"><rect codeLine="28" fill="#F1F1F1" height="48" id="MemoryChunk" rx="2.5" ry="2.5" style="stroke:#181818;stroke-width:0.5;" width="135" x="222.5" y="703"/><ellipse cx="237.5" cy="719" fill="#B4A7E5" rx="11" ry="11" style="stroke:#181818;stroke-width:1.0;"/><path d="M238.4531,715.7813 L240.1719,715.7813 C240.5625,715.7813 240.75,715.75 240.875,715.6719 C241.1406,715.5156 241.2813,715.2344 241.2813,714.9375 C241.2813,714.6719 241.1719,714.4063 240.9375,714.2344 C240.7656,714.125 240.625,714.0938 240.1719,714.0938 L235.0313,714.0938 C234.5938,714.0938 234.4688,714.1094 234.3125,714.2031 C234.0625,714.3594 233.9063,714.6563 233.9063,714.9375 C233.9063,715.2188 234.0469,715.4688 234.2656,715.6406 C234.4219,715.75 234.6094,715.7813 235.0313,715.7813 L236.75,715.7813 L236.75,722.2969 L235.0313,722.2969 C234.5938,722.2969 234.4688,722.3125 234.3125,722.4219 C234.0625,722.5781 233.9063,722.8594 233.9063,723.1563 C233.9063,723.4063 234.0469,723.6719 234.2656,723.8281 C234.4219,723.9531 234.625,724 235.0313,724 L240.1719,724 C240.9219,724 241.2813,723.7188 241.2813,723.1563 C241.2813,722.875 241.1719,722.625 240.9375,722.4531 C240.7656,722.3281 240.625,722.2969 240.1719,722.2969 L238.4531,722.2969 L238.4531,715.7813 Z " fill="#000000"/><text fill="#000000" font-family="sans-serif" font-size="14" font-style="italic" lengthAdjust="spacing" textLength="103" x="251.5" y="723.8467">MemoryChunk</text><line style="stroke:#181818;stroke-width:0.5;" x1="223.5" x2="356.5" y1="735" y2="735"/><line style="stroke:#181818;stroke-width:0.5;" x1="223.5" x2="356.5" y1="743" y2="743"/></g><!--reverse link EncodedImage to CloseableReference--><g id="link_EncodedImage_CloseableReference"><path codeLine="3" d="M342,67 C342,84.658 342,96.941 342,114.678 " fill="none" id="EncodedImage-backto-CloseableReference" style="stroke:#181818;stroke-width:1.0;"/><polygon fill="#181818" points="342,55,338,61,342,67,346,61,342,55" style="stroke:#181818;stroke-width:1.0;"/></g><!--reverse link PooledByteBuffer to MemoryPooledByteBuffer--><g id="link_PooledByteBuffer_MemoryPooledByteBuffer"><path codeLine="7" d="M355.7062,408.7788 C341.0912,425.9548 332.642,435.884 316.586,454.755 " fill="none" id="PooledByteBuffer-backto-MemoryPooledByteBuffer" style="stroke:#181818;stroke-width:1.0;"/><polygon fill="none" points="367.371,395.07,351.1366,404.8906,360.2758,412.6671,367.371,395.07" style="stroke:#181818;stroke-width:1.0;"/></g><!--reverse link CloseableReference to DefaultCloseableReference--><g id="link_CloseableReference_DefaultCloseableReference"><path codeLine="9" d="M293.3384,173.2181 C264.3644,192.9961 237.704,211.196 208.745,230.965 " fill="none" id="CloseableReference-backto-DefaultCloseableReference" style="stroke:#181818;stroke-width:1.0;"/><polygon fill="none" points="308.205,163.07,289.9557,168.2626,296.7211,178.1736,308.205,163.07" style="stroke:#181818;stroke-width:1.0;"/></g><!--reverse link CloseableReference to SharedReference--><g id="link_CloseableReference_SharedReference"><path codeLine="13" d="M385.9267,169.808 C411.3347,187.049 436.41,204.064 464.27,222.969 " fill="none" id="CloseableReference-backto-SharedReference" style="stroke:#181818;stroke-width:1.0;"/><polygon fill="#181818" points="375.997,163.07,378.7159,169.7489,385.9267,169.808,383.2079,163.1291,375.997,163.07" style="stroke:#181818;stroke-width:1.0;"/></g><!--reverse link SharedReference to PooledByteBuffer--><g id="link_SharedReference_PooledByteBuffer"><path codeLine="14" d="M467.5887,295.3081 C447.2457,314.1621 430.539,329.647 411.984,346.845 " fill="none" id="SharedReference-backto-PooledByteBuffer" style="stroke:#181818;stroke-width:1.0;"/><polygon fill="#181818" points="476.39,287.151,469.2703,288.2958,467.5887,295.3081,474.7084,294.1633,476.39,287.151" style="stroke:#181818;stroke-width:1.0;"/></g><!--reverse link SharedReference to ResourceReleaser--><g id="link_SharedReference_ResourceReleaser"><path codeLine="16" d="M552.4113,295.3081 C572.7543,314.1621 589.461,329.647 608.016,346.845 " fill="none" id="SharedReference-backto-ResourceReleaser" style="stroke:#181818;stroke-width:1.0;"/><polygon fill="#181818" points="543.61,287.151,545.2916,294.1633,552.4113,295.3081,550.7297,288.2958,543.61,287.151" style="stroke:#181818;stroke-width:1.0;"/></g><!--link PooledByteBuffer to Closeable--><g id="link_PooledByteBuffer_Closeable"><path codeLine="18" d="M406.832,395.07 C423.834,414.848 436.4702,429.5462 453.4642,449.3152 " fill="none" id="PooledByteBuffer-to-Closeable" style="stroke:#181818;stroke-width:1.0;"/><polygon fill="none" points="465.198,462.965,458.0142,445.4039,448.9143,453.2264,465.198,462.965" style="stroke:#181818;stroke-width:1.0;"/></g><!--reverse link MemoryPooledByteBuffer to CloseableReference2--><g id="link_MemoryPooledByteBuffer_CloseableReference2"><path codeLine="21" d="M290,531.101 C290,552.139 290,567.481 290,586.661 " fill="none" id="MemoryPooledByteBuffer-backto-CloseableReference2" style="stroke:#181818;stroke-width:1.0;"/><polygon fill="#181818" points="290,519.101,286,525.101,290,531.101,294,525.101,290,519.101" style="stroke:#181818;stroke-width:1.0;"/></g><!--reverse link ResourceReleaser2 to MemoryChunkPool--><g id="link_ResourceReleaser2_MemoryChunkPool"><path codeLine="26" d="M585,661.151 C585,680.0054 585,685.647 585,702.8446 " fill="none" id="ResourceReleaser2-backto-MemoryChunkPool" style="stroke:#181818;stroke-width:1.0;"/><polygon fill="none" points="585,643.151,579,661.151,591,661.151,585,643.151" style="stroke:#181818;stroke-width:1.0;"/></g><!--reverse link CloseableReference2 to ResourceReleaser2--><g id="link_CloseableReference2_ResourceReleaser2"><path codeLine="27" d="M436.248,611 C447.97,611 447.691,611 459.413,611 " fill="none" id="CloseableReference2-backto-ResourceReleaser2" style="stroke:#181818;stroke-width:1.0;"/><polygon fill="#181818" points="424.248,611,430.248,615,436.248,611,430.248,607,424.248,611" style="stroke:#181818;stroke-width:1.0;"/></g><!--reverse link CloseableReference2 to MemoryChunk--><g id="link_CloseableReference2_MemoryChunk"><path codeLine="29" d="M290,647.07 C290,666.8481 290,683.1961 290,702.9647 " fill="none" id="CloseableReference2-backto-MemoryChunk" style="stroke:#181818;stroke-width:1.0;"/><polygon fill="#181818" points="290,635.07,286,641.07,290,647.07,294,641.07,290,635.07" style="stroke:#181818;stroke-width:1.0;"/></g><!--SRC=[ZPAzRi8m58LtFuN5r29voOmoa7ReW8Je4roScnBLiP5_1bJwxdM8IoFx1ZMRutC-d_lJQu-s0ubyRup2Tdlnk0rTXvP91SxnHXc7S5HumFWJjSHDhgpPgvQcnVPjW0_aQo48LyBjS33saXFu5-FnawFhwPbziqAmkKOgRKxa5-mWAF-llALeUc2HaTvuFu75zW4v5T9hpuSeQqpGFfP3l3TsASEnx7pJB5HxG6U2bH6e41nQeaYAbjjOVv__FMFPV26kzUm-HLWHhPucr9o2_gnN7AZrgTZ23j1xKp4uEcz1UZw3Z-RV64KhYX2veafZijFvjd4Pd8jm7gikhCGignYT4FwrTiPUi8kvvWS0]--></g></svg>